<?xml version="1.0" encoding="utf-8"?>
<!-- Generator: Adobe Illustrator 16.0.0, SVG Export Plug-In . SVG Version: 6.00 Build 0)  -->
<!DOCTYPE svg PUBLIC "-//W3C//DTD SVG 1.1//EN" "http://www.w3.org/Graphics/SVG/1.1/DTD/svg11.dtd">
<svg version="1.1" id="Layer_1" xmlns="http://www.w3.org/2000/svg" xmlns:xlink="http://www.w3.org/1999/xlink" x="0px" y="0px"
	 width="322.484px" height="320.984px" viewBox="0 0 322.484 320.984" enable-background="new 0 0 322.484 320.984"
	 xml:space="preserve">
<path fill="#002C3E" d="M111.806,81.822c-36.972,0-76.268-10.281-76.268-29.336s39.296-29.336,76.268-29.336
	c36.974,0,76.27,10.281,76.27,29.336S148.78,81.822,111.806,81.822z M111.806,31.52c-42.067,0-67.896,12.21-67.896,20.965
	c0,8.755,25.83,20.965,67.896,20.965s67.899-12.21,67.899-20.965C179.705,43.73,153.873,31.52,111.806,31.52z"/>
<path fill="#002C3E" d="M109.879,113.711c-42.686,0-70.605-16.641-72.34-17.701l4.365-7.142
	c0.607,0.371,61.509,36.451,140.218-0.221l3.537,7.586C157.545,109.332,131.771,113.711,109.879,113.711z"/>
<path fill="#002C3E" d="M173.868,132.398c3.613-2.09,7.447-3.591,11.461-4.406l-3.207-6.875
	c-78.709,36.672-139.61,0.591-140.218,0.221l-4.365,7.142c1.735,1.06,29.655,17.701,72.34,17.701
	c18.396,0,39.539-3.115,62.499-11.873C172.56,133.576,173.018,132.889,173.868,132.398z"/>
<path fill="#002C3E" d="M141.902,168.381c-58.235,12.801-99.603-12.235-100.098-12.543l-4.265,7.142
	c1.696,1.06,28.976,17.701,70.685,17.701c10.387,0,21.676-1.046,33.679-3.608V168.381z"/>
<rect x="35.538" y="52.485" fill="#002C3E" width="8.371" height="144.112"/>
<path fill="#002C3E" d="M187.146,124.345V58.233h-8.37v68.093C181.467,125.384,184.26,124.708,187.146,124.345z"/>
<path fill="#3DC7C9" d="M217.494,262.395l-1.21-0.525c-57.233-24.884-52.481-97.563-52.427-98.295l0.218-2.889l2.779-0.815
	c27.336-8.014,48.108-26.276,48.315-26.461l2.6-2.308l2.746,2.128c23.323,18.08,49.171,24.734,49.431,24.799l3.095,0.779
	l0.068,3.191c1.851,87.63-52.023,99.664-54.318,100.132L217.494,262.395z M172.111,167.013c-0.183,12.877,1.833,66.311,46.22,86.603
	c7.692-2.196,46.854-16.902,46.451-88.355c-7.545-2.284-27.424-9.188-46.697-23.377C211.687,147.045,194.37,159.854,172.111,167.013
	z"/>
<path fill="#3DC7C9" d="M125.294,294.367H93.671c-2.616,0-4.744-2.128-4.744-4.744V258.03c0-2.615,2.128-4.744,4.744-4.744h31.623
	c2.616,0,4.744,2.129,4.744,4.744v31.593C130.038,292.239,127.91,294.367,125.294,294.367z M97.298,285.996h24.369v-24.339H97.298
	V285.996z"/>
<path fill="#3DC7C9" d="M91.87,278.571H35.538c-2.616,0-4.744-2.129-4.744-4.744c0-2.616,2.128-4.744,4.744-4.744H91.87
	c2.616,0,4.744,2.128,4.744,4.744C96.614,276.442,94.486,278.571,91.87,278.571z"/>
<rect x="35.538" y="269.641" fill="#3DC7C9" width="56.332" height="8.371"/>
<rect x="128.084" y="269.641" fill="#3DC7C9" width="61.694" height="8.371"/>
<path fill="#3DC7C9" d="M109.879,210.41c-2.616,0-4.744,2.128-4.744,4.744v42.876c0,1.043,0.348,1.999,0.92,2.783
	c0.941-0.116,1.87-0.296,2.796-0.495c0.041-0.013,0.071-0.042,0.115-0.049c0.085-0.014,0.169-0.021,0.254-0.033
	c1.776-0.396,3.537-0.879,5.311-1.304c0.057-0.292,0.091-0.593,0.091-0.902v-42.876C114.623,212.538,112.495,210.41,109.879,210.41z
	"/>
<rect x="105.694" y="209.573" fill="#3DC7C9" width="8.371" height="42.877"/>
<path fill="#002C3E" d="M215.99,293.988l-1.213-0.525c-87.287-37.95-80.02-149.055-79.938-150.175l0.218-2.888l2.779-0.815
	c42.937-12.583,75.502-41.244,75.826-41.53l2.597-2.311l2.749,2.128c36.487,28.285,77.112,38.773,77.519,38.876l3.09,0.779
	l0.071,3.19c1.471,69.671-20.759,107.487-39.667,126.94c-20.774,21.376-41.852,25.883-42.737,26.066L215.99,293.988z
	 M143.069,146.748c-0.453,17.017,0.812,105.745,73.773,138.477c10.298-2.708,75.837-24.559,74.526-141.218
	c-10.169-2.959-43.174-13.771-74.782-37.456C208.03,113.613,179.805,135.303,143.069,146.748z"/>
<path fill="#002C3E" d="M146.205,202.46c-61.729,14.004-105.756-12.069-106.278-12.386l-4.448,7.278
	c1.769,1.08,30.217,18.037,73.712,18.037c11.375,0,23.787-1.174,37.014-4.079V202.46z"/>
</svg>
