<?xml version="1.0" encoding="utf-8"?>
<!-- Generator: Adobe Illustrator 16.0.0, SVG Export Plug-In . SVG Version: 6.00 Build 0)  -->
<!DOCTYPE svg PUBLIC "-//W3C//DTD SVG 1.1//EN" "http://www.w3.org/Graphics/SVG/1.1/DTD/svg11.dtd">
<svg version="1.1" xmlns="http://www.w3.org/2000/svg" xmlns:xlink="http://www.w3.org/1999/xlink" x="0px" y="0px"
	 width="352.667px" height="292px" viewBox="0 0 352.667 292" enable-background="new 0 0 352.667 292" xml:space="preserve">
<g id="Background_xA0_Image_1_">
</g>
<g id="Layer_1_xA0_Image_1_">
</g>
<g id="Layer_2_xA0_Image_1_">
	<g>
		<g>
			<line fill="#F90303" x1="40.666" y1="205.497" x2="69.536" y2="205.497"/>
			<rect x="40.666" y="201.731" fill="#002C3D" width="28.871" height="7.531"/>
		</g>
		<polygon fill="#012C3D" points="91.503,224.953 65.771,224.953 65.771,84.062 96.848,52.984 186.274,52.984 186.274,39.804 
			76.116,39.804 48.197,67.724 48.197,205.497 40.666,205.497 40.666,64.605 72.998,32.272 193.806,32.272 193.806,60.516 
			99.966,60.516 73.302,87.18 73.302,217.421 91.503,217.421 		"/>
		<polygon fill="#012C3D" points="215.538,127.252 208.007,127.252 208.007,60.516 189.646,60.516 189.646,52.984 215.538,52.984 		
			"/>
		<rect x="70.792" y="36.038" fill="#012C3D" width="7.531" height="32.637"/>
		<rect x="44.431" y="61.144" fill="#012C3D" width="30.126" height="7.531"/>
		<rect x="94.641" y="56.75" fill="#012C3D" width="7.532" height="31.695"/>
		<rect x="69.536" y="81.855" fill="#012C3D" width="32.637" height="7.531"/>
		<rect x="112.842" y="81.855" fill="#012C3D" width="45.816" height="7.531"/>
		<rect x="79.578" y="97.545" fill="#012C3D" width="37.657" height="7.532"/>
		<rect x="126.65" y="97.545" fill="#012C3D" width="38.913" height="7.532"/>
		<rect x="126.65" y="111.353" fill="#012C3D" width="51.465" height="7.532"/>
		<rect x="79.578" y="111.353" fill="#012C3D" width="8.787" height="7.532"/>
		<rect x="94.916" y="111.353" fill="#012C3D" width="21.418" height="7.532"/>
		<rect x="79.578" y="127.671" fill="#012C3D" width="47.072" height="7.532"/>
		<rect x="135.75" y="127.671" fill="#012C3D" width="10.356" height="7.532"/>
		<path fill="none" stroke="#FF0000" stroke-width="3" stroke-miterlimit="10" d="M265.982,160.308"/>
		<polygon fill="#012C3D" points="269.748,260.728 87.737,260.728 87.737,154.502 151.294,154.502 180.949,124.847 265.982,124.847 
			265.982,132.378 184.067,132.378 154.413,162.034 95.269,162.034 95.269,253.196 262.216,253.196 262.216,245.665 
			269.748,245.665 		"/>
		<rect x="178.115" y="177.881" fill="#47C2C5" width="14.435" height="50.209"/>
		<rect x="158.659" y="196.082" fill="#47C2C5" width="52.72" height="14.436"/>
		<rect x="103.114" y="170.978" fill="#3DC7C9" width="7.217" height="7.217"/>
		<rect x="119.746" y="170.978" fill="#3DC7C9" width="7.218" height="7.217"/>
		<rect x="134.652" y="170.978" fill="#3DC7C9" width="7.217" height="7.217"/>
		<g>
			<ellipse fill="#3DC7C9" cx="264.99" cy="181.607" rx="12.552" ry="10.788"/>
			<ellipse fill="#3DC7C9" cx="309.551" cy="181.607" rx="12.552" ry="10.788"/>
			<rect x="274.404" y="179.097" fill="#3DC7C9" width="23.651" height="5.021"/>
		</g>
		<g>
			<ellipse fill="#3DC7C9" cx="264.99" cy="230.484" rx="12.552" ry="10.787"/>
			<ellipse fill="#3DC7C9" cx="309.551" cy="230.484" rx="12.552" ry="10.787"/>
			<rect x="274.404" y="227.974" fill="#3DC7C9" width="23.651" height="5.021"/>
		</g>
		<g>
			<ellipse fill="#3DC7C9" cx="241.401" cy="206.046" rx="12.552" ry="10.787"/>
			<ellipse fill="#3DC7C9" cx="285.962" cy="206.046" rx="12.552" ry="10.787"/>
			<rect x="250.815" y="203.535" fill="#3DC7C9" width="23.651" height="5.021"/>
		</g>
		<g>
			<line fill="#FF0000" x1="263.681" y1="124.847" x2="263.681" y2="160.308"/>
			<rect x="259.916" y="124.847" fill="#002C3D" width="7.532" height="35.46"/>
		</g>
	</g>
</g>
<g id="Layer_5__x2B__Layer_6_xA0_Image_1_">
</g>
<g id="Layer_7_xA0_Image_1_">
</g>
<g id="Layer_33_xA0_Image_1_">
</g>
<g id="Layer_28_xA0_Image_1_">
</g>
<g id="Layer_11_copy_xA0_Image_1_">
</g>
<g id="Layer_32__x2B__Layer_31_xA0_Image_1_">
</g>
<g id="Layer_28_copy_xA0_Image_1_">
</g>
<g id="Layer_11_copy_2_xA0_Image_1_">
</g>
<g id="Layer_38__x2B__Layer_39_xA0_Image_1_">
</g>
<g id="Layer_37_xA0_Image_1_">
</g>
<g id="Layer_16__x2B__Layer_17_xA0_Image_1_">
</g>
<g id="Layer_30_xA0_Image_1_">
</g>
</svg>
