<?xml version="1.0" encoding="utf-8"?>
<!-- Generator: Adobe Illustrator 16.0.0, SVG Export Plug-In . SVG Version: 6.00 Build 0)  -->
<!DOCTYPE svg PUBLIC "-//W3C//DTD SVG 1.1//EN" "http://www.w3.org/Graphics/SVG/1.1/DTD/svg11.dtd">
<svg version="1.1" id="Layer_1" xmlns="http://www.w3.org/2000/svg" xmlns:xlink="http://www.w3.org/1999/xlink" x="0px" y="0px"
	 width="116px" height="138.664px" viewBox="0 0 116 138.664" enable-background="new 0 0 116 138.664" xml:space="preserve">
<g>
	<circle fill="#012C3D" cx="43.166" cy="74.748" r="4.75"/>
	<circle fill="#012C3D" cx="71.416" cy="74.748" r="4.75"/>
	<path fill="none" stroke="#052E3E" stroke-width="3" stroke-miterlimit="10" d="M56.952,101.765c-5.362,0-10.445-2.59-15.11-7.699
		c-0.038-0.041-0.035-0.104,0.006-0.142c0.04-0.037,0.104-0.034,0.141,0.007c4.625,5.065,9.66,7.634,14.963,7.634
		c0.043,0,0.086,0,0.13,0c8.968-0.071,15.691-7.557,15.758-7.633c0.037-0.042,0.099-0.045,0.142-0.009
		c0.041,0.037,0.045,0.1,0.009,0.142c-0.067,0.076-6.848,7.627-15.905,7.7C57.042,101.765,56.997,101.765,56.952,101.765z"/>
	<path fill="none" stroke="#052E3E" stroke-width="3" stroke-miterlimit="10" d="M72.916,93.998c0,0-15.25,17.25-31,0"/>
	<path fill="#173E4E" d="M95.622,62.949c2.433,5.267,3.794,11.125,3.794,17.299c0,22.883-18.617,41.5-41.5,41.5
		c-22.883,0-41.5-18.617-41.5-41.5c0-18.364,11.995-33.97,28.558-39.422c-0.412-0.752-0.819-1.508-1.226-2.264
		c-0.098-0.128-0.185-0.265-0.285-0.392C26.001,44.186,13.416,60.77,13.416,80.248c0,24.537,19.962,44.5,44.5,44.5
		c24.537,0,44.5-19.963,44.5-44.5c0-6.135-1.254-11.979-3.513-17.299H95.622z"/>
	<path fill="none" stroke="#3AC8C9" stroke-width="2" stroke-miterlimit="10" d="M80.666,64.598c-0.056,0-0.1-0.044-0.1-0.1v-16
		c0-0.056,0.044-0.1,0.1-0.1s0.1,0.044,0.1,0.1v16C80.765,64.554,80.721,64.598,80.666,64.598z"/>
	<path fill="none" stroke="#3AC8C9" stroke-width="2" stroke-miterlimit="10" d="M88.416,56.598h-14.25c-0.056,0-0.1-0.044-0.1-0.1
		s0.044-0.1,0.1-0.1h14.25c0.056,0,0.1,0.044,0.1,0.1S88.471,56.598,88.416,56.598z"/>
	<path fill="none" stroke="#3AC8C9" stroke-width="2" stroke-miterlimit="10" d="M96.115,51.748c-0.056,0-0.1-0.044-0.1-0.1v-16
		c0-0.056,0.044-0.1,0.1-0.1s0.1,0.044,0.1,0.1v16C96.214,51.704,96.17,51.748,96.115,51.748z"/>
	<path fill="none" stroke="#3AC8C9" stroke-width="2" stroke-miterlimit="10" d="M103.865,43.748h-14.25c-0.056,0-0.1-0.044-0.1-0.1
		s0.044-0.1,0.1-0.1h14.25c0.056,0,0.1,0.044,0.1,0.1S103.92,43.748,103.865,43.748z"/>
	<path fill="#3AC8C9" d="M60.465,19.748c-6.989,0-12.675,5.585-12.675,12.45c0,3.994,1.934,7.542,4.921,9.818
		c0.527-0.149,1.058-0.28,1.59-0.396c0.079-0.271,0.15-0.544,0.224-0.817c-2.838-1.875-4.735-5.006-4.735-8.604
		c0-5.763,4.789-10.45,10.675-10.45c5.886,0,10.674,4.688,10.674,10.45s-4.788,10.45-10.674,10.45c-0.338,0-0.669-0.024-0.999-0.056
		c0.007,0.667,0.02,1.334,0.035,2c0.319,0.025,0.638,0.056,0.964,0.056c6.988,0,12.674-5.585,12.674-12.45
		S67.454,19.748,60.465,19.748z"/>
	<path fill="none" stroke="#3AC8C9" stroke-width="2" stroke-miterlimit="10" d="M55.541,52.748h8.625c0,0,2.625,0.125,2.5-2.125
		c0,0-0.125-2.449-3-2.225l-7-0.015c0,0-2.125-1.136-1.875-2.636c0,0,1.416-2.471,5.693-2"/>
	<path fill="none" stroke="#3AC8C9" stroke-width="2" stroke-miterlimit="10" d="M62.166,39.373v-5.125c0,0,4.125-1.125,1.5-2.625
		h-7c-1.625,2,1.25,4.625,1.25,4.625c0.5,7.625-5,4.625-5,4.625"/>
	<line fill="none" stroke="#3AC8C9" stroke-width="2" stroke-miterlimit="10" x1="61.666" y1="56.598" x2="58.727" y2="56.598"/>
	<line fill="none" stroke="#3AC8C9" stroke-width="2" stroke-miterlimit="10" x1="60.197" y1="11.873" x2="60.197" y2="19.748"/>
	<line fill="none" stroke="#3AC8C9" stroke-width="2" stroke-miterlimit="10" x1="70.666" y1="14.248" x2="67.666" y2="19.748"/>
	<line fill="none" stroke="#3AC8C9" stroke-width="2" stroke-miterlimit="10" x1="49.666" y1="14.248" x2="53.916" y2="20.623"/>
</g>
</svg>
