<?xml version="1.0" encoding="utf-8"?>
<!-- Generator: Adobe Illustrator 16.0.0, SVG Export Plug-In . SVG Version: 6.00 Build 0)  -->
<!DOCTYPE svg PUBLIC "-//W3C//DTD SVG 1.1//EN" "http://www.w3.org/Graphics/SVG/1.1/DTD/svg11.dtd">
<svg version="1.1" id="Layer_1" xmlns="http://www.w3.org/2000/svg" xmlns:xlink="http://www.w3.org/1999/xlink" x="0px" y="0px"
	 width="352.482px" height="272.986px" viewBox="0 0 352.482 272.986" enable-background="new 0 0 352.482 272.986"
	 xml:space="preserve">
<rect x="34.408" y="103.92" fill="#002938" width="8.069" height="133.584"/>
<rect x="34.408" y="99.9" fill="#002938" width="63.206" height="8.04"/>
<rect x="31.269" y="81.058" fill="#3FC8C9" width="66.345" height="8.069"/>
<rect x="255.853" y="81.058" fill="#3FC8C9" width="68.139" height="8.069"/>
<rect x="213.714" y="189.54" fill="#3FC8C9" width="91.004" height="8.069"/>
<rect x="104.785" y="29.955" fill="#3FC8C9" width="144.343" height="8.069"/>
<rect x="34.408" y="233.469" fill="#002938" width="63.206" height="8.069"/>
<rect x="111.96" y="233.469" fill="#002938" width="132.687" height="8.069"/>
<rect x="107.926" y="46.093" fill="#002938" width="8.069" height="195.446"/>
<path fill="#002938" d="M232.05,132.878c2.406,2.406,4.813,4.812,7.219,7.218V46.093H231.2v86.088
	C231.489,132.393,231.774,132.602,232.05,132.878z"/>
<rect x="111.96" y="46.093" fill="#002938" width="127.308" height="8.069"/>
<rect x="251.821" y="99.885" fill="#002938" width="66.342" height="8.069"/>
<rect x="255.407" y="233.469" fill="#002938" width="62.756" height="8.069"/>
<path fill="#002938" d="M310.425,99.885v87.569c4.736,2.36,4.736,10.263,0,12.623v41.461h8.307V99.885H310.425z"/>
<rect x="148.94" y="151.211" transform="matrix(1 0.0052 -0.0052 1 1.0135 -0.7935)" fill="#002938" width="8.069" height="86.294"/>
<rect x="153.198" y="150.988" fill="#002938" width="51.103" height="8.069"/>
<path fill="#002938" d="M205.401,177.292c1.027-1.321,2.018-2.675,2.963-4.07v-22.234h-8.127v30.034h1.891
	C203.185,179.74,204.269,178.491,205.401,177.292z"/>
<path fill="#002938" d="M201.526,210.16h-1.26v24.207h8.068v-17.894C206.278,214.112,203.98,212.041,201.526,210.16z"/>
<polygon fill="#3FC8C9" points="232.735,225.023 203.101,193.41 232.901,165.098 238.46,170.948 214.468,193.739 238.626,219.504 
	"/>
<line fill="none" stroke="#002938" stroke-width="9" stroke-miterlimit="10" x1="175.979" y1="69.957" x2="175.979" y2="129.626"/>
<line fill="none" stroke="#002938" stroke-width="9" stroke-miterlimit="10" x1="145.759" y1="98.699" x2="204.344" y2="98.699"/>
</svg>
