<?xml version="1.0" encoding="utf-8"?>
<!-- Generator: Adobe Illustrator 16.0.0, SVG Export Plug-In . SVG Version: 6.00 Build 0)  -->
<!DOCTYPE svg PUBLIC "-//W3C//DTD SVG 1.1//EN" "http://www.w3.org/Graphics/SVG/1.1/DTD/svg11.dtd">
<svg version="1.1" id="Layer_1" xmlns="http://www.w3.org/2000/svg" xmlns:xlink="http://www.w3.org/1999/xlink" x="0px" y="0px"
	 width="154.563px" height="150.662px" viewBox="0 0 154.563 150.662" enable-background="new 0 0 154.563 150.662"
	 xml:space="preserve">
<path fill="#002B3E" d="M84.637,113.714H27.429c-4.153,0-7.532-2.954-7.532-6.586V47.3c0-3.632,3.379-6.586,7.532-6.586h37.644v-3
	H27.429c-5.888,0-10.679,4.3-10.679,9.586v59.828c0,5.286,4.791,9.586,10.679,9.586h57.595
	C84.984,115.688,84.866,114.681,84.637,113.714z"/>
<path fill="#002B3E" d="M129.128,37.714H89.201v3h39.927c4.229,0,7.669,2.954,7.669,6.586v59.828c0,3.632-3.439,6.586-7.669,6.586
	h-3.795v3h3.795c5.994,0,10.872-4.3,10.872-9.586V47.3C140,42.014,135.122,37.714,129.128,37.714z"/>
<path fill="#002C3E" d="M126.75,62.563H72c-0.883,0-1.6-0.718-1.6-1.6s0.717-1.6,1.6-1.6h54.75c0.882,0,1.6,0.718,1.6,1.6
	S127.632,62.563,126.75,62.563z"/>
<path fill="#002C3E" d="M126.75,75.563H72c-0.883,0-1.6-0.718-1.6-1.6s0.717-1.6,1.6-1.6h54.75c0.882,0,1.6,0.718,1.6,1.6
	S127.632,75.563,126.75,75.563z"/>
<path fill="#002C3E" d="M93.662,85.774c0.109-0.438,0.323-0.842,0.645-1.16l0,0H73c-0.883,0-1.6,0.718-1.6,1.6s0.717,1.6,1.6,1.6
	h20.098C93.01,87.089,93.203,86.331,93.662,85.774z"/>
<path fill="#002C3E" d="M126.75,84.614h-10.6c1.31,0.479,1.777,1.984,1.396,3.199h9.203c0.882,0,1.6-0.718,1.6-1.6
	S127.632,84.614,126.75,84.614z"/>
<path fill="#3DC8CA" d="M120.5,103.714h-3V90.342c-1.504-8.551-10.346-9.736-11.692-9.868c-12.482,2.072-11.92,12.683-11.89,13.135
	l0.004,0.105v10h-3v-9.97c-0.047-1.137-0.227-13.922,14.594-16.262l0.165-0.026l0.167,0.011c4.388,0.286,13.093,3.268,14.632,12.5
	l0.021,0.247V103.714z"/>
<path fill="#3DC8CA" d="M88.688,138.776c-4.41,0-6.3-4.463-6.683-6.822l-0.02-0.24v-29.5H127.5v29.416
	c0.249,2.302-0.195,4.109-1.321,5.372c-1.016,1.14-2.572,1.768-4.383,1.768c-0.001,0,0,0,0,0c-0.406,0-0.725-0.032-0.904-0.056
	H89.605C89.295,138.755,88.987,138.776,88.688,138.776z M84.986,131.577c0.143,0.716,1.09,4.643,4.291,4.153l0.223-0.017
	l31.757,0.022c0.031,0.005,0.241,0.033,0.539,0.033c0.546,0,1.552-0.1,2.144-0.764c0.681-0.764,0.686-2.118,0.57-3.12l-0.01-0.172
	v-26.5H84.986V131.577z"/>
<path fill="#3DC8CA" d="M105.705,125.509c-3.608,0-6.545-2.937-6.545-6.545s2.937-6.545,6.545-6.545s6.545,2.937,6.545,6.545
	S109.313,125.509,105.705,125.509z M105.705,115.419c-1.955,0-3.545,1.59-3.545,3.545s1.59,3.545,3.545,3.545
	s3.545-1.59,3.545-3.545S107.66,115.419,105.705,115.419z"/>
<path fill="#3DC8CA" d="M105.705,130.313c-0.882,0-1.6-0.718-1.6-1.6v-4.705c0-0.882,0.718-1.6,1.6-1.6s1.6,0.718,1.6,1.6v4.705
	C107.305,129.596,106.587,130.313,105.705,130.313z"/>
<rect x="104.205" y="124.009" fill="#3DC8CA" width="3" height="4.705"/>
<path fill="#3DC8CA" d="M43,75.063c-7.361,0-13.35-5.988-13.35-13.35s5.988-13.35,13.35-13.35s13.35,5.988,13.35,13.35
	S50.361,75.063,43,75.063z M43,51.364c-5.707,0-10.35,4.643-10.35,10.35s4.643,10.35,10.35,10.35s10.35-4.643,10.35-10.35
	S48.707,51.364,43,51.364z"/>
<path fill="#3DC8CA" d="M59.756,92.839H26.052l-0.265-1.168c-0.062-0.271-1.465-6.716,2.531-11.813
	c2.915-3.72,7.843-5.669,14.647-5.794c0.005,0,0.236-0.012,0.615-0.012c2.212,0,9.752,0.389,13.933,5.383
	c2.536,3.03,3.365,7.124,2.463,12.168L59.756,92.839z M28.557,89.839h28.65c0.417-3.55-0.252-6.397-1.994-8.479
	c-3.346-3.998-9.749-4.309-11.632-4.309c-0.303,0-0.482,0.009-0.502,0.01c-5.899,0.107-10.048,1.663-12.383,4.625
	C28.464,84.518,28.404,88.042,28.557,89.839z"/>
<path fill="#3DC8CA" d="M61.5,101.813H27.001c-0.882,0-1.6-0.718-1.6-1.6s0.718-1.6,1.6-1.6H61.5c0.882,0,1.6,0.718,1.6,1.6
	S62.382,101.813,61.5,101.813z"/>
<rect x="27.001" y="98.714" fill="#3DC8CA" width="34.499" height="3"/>
<polygon fill="#002C3E" points="91.25,50.364 64.5,50.364 64.5,47.364 88.25,47.364 88.25,30.245 91.25,30.245 "/>
<path fill="#002C3E" d="M67.25,50.233h-3v-20.75c0-9.087,8.422-11.488,12.875-11.488c5.115,0.192,8.919,1.789,11.36,4.748
	c3.266,3.958,2.777,8.855,2.755,9.062l-2.98-0.352l1.49,0.176l-1.491-0.169c0.004-0.038,0.346-3.798-2.07-6.701
	c-1.876-2.253-4.943-3.475-9.117-3.632c-0.347,0.003-9.821,0.137-9.821,8.356V50.233z"/>
<path fill="#002C3E" d="M77.765,37.995c-3.722,0-6.75-3.028-6.75-6.75c0-3.722,3.028-6.75,6.75-6.75s6.75,3.028,6.75,6.75
	C84.515,34.967,81.486,37.995,77.765,37.995z M77.765,27.495c-2.067,0-3.75,1.682-3.75,3.75c0,2.067,1.683,3.75,3.75,3.75
	s3.75-1.683,3.75-3.75C81.515,29.177,79.832,27.495,77.765,27.495z"/>
</svg>
