<svg xmlns="http://www.w3.org/2000/svg" width="128" height="128" viewBox="0 0 128 128">
  <line x1="68" y1="104" x2="66" y2="92" fill="none" stroke="#222" stroke-width="3"/>
  <line x1="40" y1="104" x2="76" y2="104" fill="none" stroke="#222" stroke-linecap="round" stroke-linejoin="round" stroke-width="3"/>
  <line x1="48" y1="104" x2="50" y2="92" fill="none" stroke="#222" stroke-width="3"/>
  <path d="M80,92H12a4,4,0,0,1-4-4V28a4,4,0,0,1,4-4h92a4,4,0,0,1,4,4V42" fill="none" stroke="#222" stroke-linecap="round" stroke-linejoin="round" stroke-width="3"/>
  <path d="M113.66,96l-.83.5c-.46.28-.83,2.08-.83,4a3.78,3.78,0,0,1-4,3.5H96a3.78,3.78,0,0,1-4-3.5c0-1.92-.37-3.72-.83-4l-.83-.5m23.32-40-.83-.5c-.46-.28-.83-2.07-.83-4a3.79,3.79,0,0,0-4-3.5H96a3.79,3.79,0,0,0-4,3.5c0,1.93-.37,3.72-.83,4l-.83.5M118,60a4,4,0,0,0-4-4H90a4,4,0,0,0-4,4V92a4,4,0,0,0,4,4h24a4,4,0,0,0,4-4Zm2,6v6m-18-4v8l8,6" fill="none" stroke="#177fc6" stroke-linecap="round" stroke-linejoin="round" stroke-width="3"/>
</svg>
