<?xml version="1.0" encoding="UTF-8" standalone="no"?>
<svg width="59px" height="71px" viewBox="0 0 59 71" version="1.1" xmlns="http://www.w3.org/2000/svg" xmlns:xlink="http://www.w3.org/1999/xlink" xmlns:sketch="http://www.bohemiancoding.com/sketch/ns">
    <!-- Generator: Sketch 3.4.2 (15855) - http://www.bohemiancoding.com/sketch -->
    <title>Group</title>
    <desc>Created with Sketch.</desc>
    <defs></defs>
    <g id="Page-1" stroke="none" stroke-width="1" fill-rule="evenodd" sketch:type="MSPage">
        <g id="-" sketch:type="MSArtboardGroup" transform="translate(-833.000000, -2735.000000)">
            <g id="Group" sketch:type="MSLayerGroup" transform="translate(833.000000, 2735.000000)">
                <path d="M27.6178852,16.350893 C27.6178852,16.350893 34.0614922,13.6009275 37.7229802,16.2342626 C41.3834132,18.8686438 41.5158197,21.687123 40.5035166,24.8183599 C39.4917411,27.9501197 34.2223845,33.1969157 32.0827799,39.0258174 L32.4145875,40.2946299 C32.4145875,40.2946299 43.5172151,48.3206798 44.1987657,50.3928295 C44.8797887,52.4655022 37.0593652,65.6703573 37.0593652,65.6703573 C37.0593652,65.6703573 43.4423078,65.6075965 43.4423078,70.1812839 L30.0449859,70.1812839 C30.0449859,70.1812839 29.5232727,69.147301 29.9025566,66.6567465 C30.2818406,64.166192 35.7326626,54.2981151 35.5427569,52.888614 C35.3533787,51.4785899 23.5512649,44.7119385 22.5558424,43.7720967 C21.5609473,42.832255 19.1860706,39.2235137 21.2291398,33.8271379 L24.9734478,26.4789039 C24.9734478,26.4789039 31.6438867,25.2555929 31.9408782,25.1164733 C32.6899508,24.9444043 32.5533242,23.521305 31.4523984,23.7310304 L21.7133994,25.531217 L13.3306439,34.1231593 C13.3306439,34.1231593 10.4899706,35.7434319 8.98180262,33.308839 C7.47310708,30.8737231 11.0902838,27.5604802 11.6747714,27.2634128 C12.2597866,26.9658224 17.6757926,21.7530218 17.6757926,21.7530218 C17.6757926,21.7530218 20.8129298,19.1730333 27.6178852,16.350893" id="Fill-1" sketch:type="MSShapeGroup"></path>
                <path d="M42.3994089,22.4374274 C42.3994089,22.4374274 42.1709945,24.7951384 41.6651067,25.9698098 C41.1592189,27.1450043 39.3440366,30.00637 39.3440366,30.00637 C39.3440366,30.00637 42.0834268,33.5277693 43.5056098,33.8096695 C44.9272652,34.0915698 56.4793364,30.8688069 56.4793364,30.8688069 C56.4793364,30.8688069 59.6206937,29.831163 58.5767397,26.7302605 C57.7237464,24.1926355 54.5016792,24.7872933 54.5016792,24.7872933 L44.9272652,26.6669768 C44.9272652,26.6669768 44.1887429,24.1717153 42.3994089,22.4374274" id="Fill-3" sketch:type="MSShapeGroup"></path>
                <path d="M19.5699967,41.0935216 C19.5699967,41.0935216 20.4704664,43.8189057 21.086605,44.5239178 C21.7027436,45.2289299 25.3051499,47.1086134 25.3051499,47.1086134 C25.3051499,47.1086134 23.8354905,52.3716226 22.129504,54.2983766 C20.42299,56.2246077 12.2612636,57.6158036 11.0859581,58.1984323 C9.91065266,58.7810609 8.43149801,58.9505149 7.72093406,59.6550039 C7.72093406,59.6550039 10.2329649,66.657008 5.1614268,68.1135797 L0.231790497,56.4672825 C0.516649096,55.4730481 2.84352183,54.6508827 5.35080502,53.3585349 C6.56092655,52.7345888 15.635783,49.6462384 16.6312055,47.9072435 C19.181745,43.3471543 19.5699967,41.0935216 19.5699967,41.0935216" id="Fill-5" sketch:type="MSShapeGroup"></path>
                <path d="M47.3327905,8.57065596 C46.7519955,12.5779278 43.7789158,15.4701509 40.8543675,15.0533151 C37.9298192,14.6364794 35.2737765,10.9419651 35.8550991,6.93469324 C36.4358941,2.92742139 38.3771527,-0.111766379 42.959156,0.540945089 C46.7277298,1.07859524 47.9146406,4.56338411 47.3327905,8.57065596" id="Fill-7" sketch:type="MSShapeGroup"></path>
            </g>
        </g>
    </g>
</svg>