<?xml version="1.0" encoding="UTF-8" standalone="no"?>
<svg width="68px" height="68px" viewBox="0 0 68 68" version="1.1" xmlns="http://www.w3.org/2000/svg" xmlns:xlink="http://www.w3.org/1999/xlink" xmlns:sketch="http://www.bohemiancoding.com/sketch/ns">
    <!-- Generator: Sketch 3.4.2 (15855) - http://www.bohemiancoding.com/sketch -->
    <title>Group</title>
    <desc>Created with Sketch.</desc>
    <defs></defs>
    <g id="Page-1" stroke-width="1" fill-rule="evenodd" sketch:type="MSPage">
        <g id="-" sketch:type="MSArtboardGroup" transform="translate(-1550.000000, -2737.000000)">
            <g id="Group" sketch:type="MSLayerGroup" transform="translate(1552.000000, 2739.000000)">
                <path d="M53.2431844,44.5852141 L49.5474079,44.5852141 L49.5474079,36.4770523 L53.2431844,36.4770523 C53.2431844,36.4770523 53.9416155,37.406957 53.8951941,37.9435611 C53.8482452,38.4806883 53.3972191,38.5204367 53.3829762,39.0172924 C53.3682057,39.5141481 53.6673072,39.765714 53.7142562,40.4100573 C53.7612051,41.0544007 54.454361,41.3253178 54.4079396,41.8085753 C54.3615182,42.2918329 53.8018238,42.6140046 53.8951941,43.1506087 C53.9885644,43.6877358 53.2431844,44.5852141 53.2431844,44.5852141" id="Fill-40" stroke="none" sketch:type="MSShapeGroup"></path>
                <path d="M44.6579155,44.5852141 L42.3975098,44.5852141 L42.3975098,36.4770523 L44.6579155,36.4770523 L44.6579155,44.5852141 Z" id="Fill-43" stroke="none" sketch:type="MSShapeGroup"></path>
                <path d="M44.658021,42.10899 C44.658021,43.4708976 43.5212242,44.5854233 42.1312198,44.5854233 L10.2460473,44.5854233 C8.85604283,44.5854233 7.71924601,43.4708976 7.71924601,42.10899 L7.71924601,38.9531719 C7.71924601,37.5912643 8.85604283,36.4767385 10.2460473,36.4767385 L42.1312198,36.4767385 C43.5212242,36.4767385 44.658021,37.5912643 44.658021,38.9531719 L44.658021,42.10899 Z" id="Fill-44" fstroke="none" sketch:type="MSShapeGroup"></path>
                <path d="M48.2444963,44.5852141 L45.9835631,44.5852141 L45.9835631,36.4770523 L48.2444963,36.4770523 L48.2444963,44.5852141 Z" id="Fill-46" stroke="none" sketch:type="MSShapeGroup"></path>
                <g id="Group-51" sketch:type="MSShapeGroup">
                    <path d="M53.071689,35.1560438 C55.8131893,33.3762545 54.7064609,26.9406658 50.7817424,26.9458959 C48.2375331,26.9406658 47.0469297,24.2984396 47.6767837,22.8083956 C48.3066377,21.3199205 50.1234025,15.7551369 44.9352834,15.8633991 C39.7471643,15.9716613 39.5029244,12.2917912 40.1449113,11.4957761 C38.843002,12.6380212 38.2342486,15.2687413 40.9989596,18.4036392 C43.2424848,21.3214895 40.2166535,21.1060111 40.6339186,24.0787771 C41.0517112,27.0510201 44.4130426,25.5913104 45.1204415,30.2397876 C45.5382341,32.9960291 49.4645351,32.1482364 50.8598148,31.7528439 C52.2550944,31.3574514 53.8972514,33.0153803 53.071689,35.1560438" id="Fill-47" stroke="none"></path>
                    <path d="M31.8672369,63.1054836 C49.4134716,63.1054836 63.637411,49.0031503 63.637411,31.6069252 C63.637411,14.2107002 49.4134716,0.10836684 31.8672369,0.10836684 C14.3210023,0.10836684 0.0970629299,14.2107002 0.0970629299,31.6069252 C0.0970629299,49.0031503 14.3210023,63.1054836 31.8672369,63.1054836 L31.8672369,63.1054836 Z" id="Stroke-49" fill="none" stroke-width="4"></path>
                    <path d="M8.29898601,8.86097658 L54.1828486,54.3525601" id="Stroke-52" fill="none" stroke-width="4"></path>
                </g>
            </g>
        </g>
    </g>
</svg>