<?xml version="1.0" encoding="UTF-8" standalone="no"?>
<svg width="59px" height="55px" viewBox="0 0 59 55" version="1.1" xmlns="http://www.w3.org/2000/svg" xmlns:xlink="http://www.w3.org/1999/xlink" xmlns:sketch="http://www.bohemiancoding.com/sketch/ns">
    <!-- Generator: Sketch 3.4.2 (15855) - http://www.bohemiancoding.com/sketch -->
    <title>Group 59</title>
    <desc>Created with Sketch.</desc>
    <defs></defs>
    <g id="Page-1" stroke-width="1" fill-rule="evenodd" sketch:type="MSPage">
        <g id="-" sketch:type="MSArtboardGroup" transform="translate(-1693.000000, -2744.000000)">
            <g id="Group-59" sketch:type="MSLayerGroup" transform="translate(1695.000000, 2745.000000)">
                <g sketch:type="MSShapeGroup">
                    <path d="M34.2439599,4.25460138 C34.2439599,4.25460138 43.3931961,-3.41789641 51.2758666,5.37592621 C59.1622296,14.1619037 50.7378003,22.6319856 50.7378003,22.6319856 L20.363961,49.1316528 C20.363961,49.1316528 11.4742626,56.0667122 3.5894821,47.2791656 C-4.29951854,38.4958031 3.87012057,30.7516535 3.87012057,30.7516535 L34.2439599,4.25460138 L34.2439599,4.25460138 Z" id="Stroke-53" fill="none" stroke-width="4"></path>
                    <path d="M34.2602602,36.9795565 C34.2602602,36.9795565 32.0035471,22.2412479 18.6362936,18.3359622" id="Stroke-55" fill="none" stroke-width="4"></path>
                    <path d="M35.8988301,2.87182586 C35.8988301,2.87182586 44.6155033,-4.30120121 52.0492577,4.51772569 C59.4830121,13.3361296 52.5635857,21.0332086 52.5635857,21.0332086 L35.1101938,36.9210844 C35.1101938,36.9210844 32.9600389,21.503391 18.0413611,17.7508231 L35.8988301,2.87182586 Z" id="Fill-57"  stroke="none" ></path>
                </g>
            </g>
        </g>
    </g>
</svg>