<?xml version="1.0" encoding="UTF-8" standalone="no"?>
<svg width="68px" height="62px" viewBox="0 0 68 62" version="1.1" xmlns="http://www.w3.org/2000/svg" xmlns:xlink="http://www.w3.org/1999/xlink" xmlns:sketch="http://www.bohemiancoding.com/sketch/ns">
    <!-- Generator: Sketch 3.4.2 (15855) - http://www.bohemiancoding.com/sketch -->
    <title>Group</title>
    <desc>Created with Sketch.</desc>
    <defs></defs>
    <g id="Page-1" stroke="none" stroke-width="1" fill-rule="evenodd" sketch:type="MSPage">
        <g id="-" sketch:type="MSArtboardGroup" transform="translate(-1117.000000, -2740.000000)">
            <g id="Group" sketch:type="MSLayerGroup" transform="translate(1117.000000, 2740.000000)">
                <path d="M40.9408273,9.1245716 C40.9065388,13.9194905 37.899698,17.7850277 34.4186205,17.7604464 C30.9375429,17.7353421 27.2428214,13.8211653 27.2781649,9.02676948 C27.3124535,4.23080461 29.0907096,0.356899283 34.5446968,0.395601726 C39.0306922,0.428551103 40.9761709,4.32965274 40.9408273,9.1245716" id="Fill-15" sketch:type="MSShapeGroup"></path>
                <path d="M44.2864916,45.5292922 L34.2536662,48.0130476 L23.9322897,45.5292922 L24.7620722,25.6979513 C24.7620722,25.6979513 25.0954623,19.1880958 33.7024121,19.1880958 C42.3093619,19.1880958 43.1011633,25.6979513 43.1011633,25.6979513 L44.2864916,45.5292922 Z" id="Fill-17" sketch:type="MSShapeGroup"></path>
                <path d="M34.2160016,49.2919542 L14.8123834,44.7569693 C14.8123834,44.7569693 7.31532707,43.6461046 6.36685344,48.7014804 C5.41837981,53.7568562 8.77601866,55.4289064 10.8844998,56.0423924 C11.8124003,56.3127865 24.1673508,57.49478 24.1673508,57.49478 L21.5107806,60.6302009 C28.383258,64.3508655 33.2395696,57.7071204 33.2395696,57.7071204 L35.4862599,57.6542968 C35.4862599,57.6542968 40.2212429,64.8634113 47.381744,59.9738284 L44.6107029,57.229093 L57.2283562,55.5277545 C57.2283562,55.5277545 62.8242452,53.7720234 61.3324301,48.6193685 C60.482602,45.0582207 56.2181632,44.3139832 52.3198206,44.9687867 C47.9488236,45.7036101 34.2160016,49.2919542 34.2160016,49.2919542" id="Fill-19" sketch:type="MSShapeGroup"></path>
                <path d="M26.3589157,21.9922447 C26.3589157,21.9922447 18.9847706,33.3440896 14.8342753,35.655253 C10.68378,37.9658935 2.92982344,39.1253977 2.92982344,39.1253977 C2.92982344,39.1253977 -0.681023057,39.8984006 0.293298854,43.607036 C1.26762076,47.3161945 5.55790777,46.2361871 5.81217045,46.1922546 C6.06643312,46.1483221 7.34935185,44.2252291 10.5286903,43.6457385 C13.7080288,43.0662478 16.0079982,43.8303596 16.0079982,43.8303596 C16.0079982,43.8303596 16.8050748,43.4684394 18.2831744,42.6802694 C19.7607465,41.8926224 25.8171568,35.5590199 25.8171568,35.5590199 L26.3589157,21.9922447 Z" id="Fill-21" sketch:type="MSShapeGroup"></path>
                <path d="M41.2236286,21.9922447 C41.2236286,21.9922447 48.5977737,33.3440896 52.748269,35.655253 C56.8987643,37.9658935 64.6527209,39.1253977 64.6527209,39.1253977 C64.6527209,39.1253977 68.2635674,39.8984006 67.2892454,43.607036 C66.3149235,47.3161945 62.0246365,46.2361871 61.7703738,46.1922546 C61.5161112,46.1483221 60.2331924,44.2252291 57.053854,43.6457385 C53.8745155,43.0662478 51.5745461,43.8303596 51.5745461,43.8303596 C51.5745461,43.8303596 50.776942,43.4684394 49.2993699,42.6802694 C47.8217978,41.8926224 41.7653875,35.5590199 41.7653875,35.5590199 L41.2236286,21.9922447 Z" id="Fill-23" sketch:type="MSShapeGroup"></path>
            </g>
        </g>
    </g>
</svg>