<svg xmlns="http://www.w3.org/2000/svg" width="128" height="128" viewBox="0 0 128 128">
  <path d="M89.5,22a21.44,21.44,0,0,0-9.22,2.08,21.46,21.46,0,0,0-33.56,0A21.5,21.5,0,1,0,32,64.29V106.5c0,1,0,2.3,10,3.89A140.18,140.18,0,0,0,63.5,112,140.18,140.18,0,0,0,85,110.39c10-1.59,10-2.87,10-3.89v-4l-3-3.68v7c-2.58,1-14,3.25-28.5,3.25s-25.92-2.23-28.5-3.25V92.91a52.82,52.82,0,0,0,7,1.49A140.42,140.42,0,0,0,63.5,96,140.42,140.42,0,0,0,85,94.4c1.14-.18,2.15-.35,3-.53l-.26-.32L85.82,91.2A133.65,133.65,0,0,1,63.5,93C49,93,37.57,90.77,35,89.74V63.1a1.5,1.5,0,0,0-1.2-1.47A18.5,18.5,0,0,1,37.5,25a18.33,18.33,0,0,1,8.93,2.31,1.51,1.51,0,0,0,2-.45,18.45,18.45,0,0,1,30.22,0,1.51,1.51,0,0,0,2,.45A18.33,18.33,0,0,1,89.5,25a18.5,18.5,0,0,1,3.7,36.63A1.5,1.5,0,0,0,92,63.1V75l3,3.68V64.29A21.5,21.5,0,0,0,89.5,22Z" fill="#222"/>
  <path d="M73.65,43.8C68.42,37.37,58,32,51.57,37.28S48.26,53.8,53.49,60.22C58.05,65.82,63.68,67,69.3,63.8l38.05,46.7,4.65-3.79L74,60C78.27,55.16,78.21,49.4,73.65,43.8Z" fill="none" stroke="#177fc6" stroke-linecap="round" stroke-linejoin="round" stroke-width="3"/>
</svg>
