<?xml version="1.0" encoding="UTF-8" standalone="no"?>
<svg width="54px" height="55px" viewBox="0 0 54 55" version="1.1" xmlns="http://www.w3.org/2000/svg" xmlns:xlink="http://www.w3.org/1999/xlink" xmlns:sketch="http://www.bohemiancoding.com/sketch/ns">
    <!-- Generator: Sketch 3.4.2 (15855) - http://www.bohemiancoding.com/sketch -->
    <title>Fill 9 + Fill 11 + Fill 13</title>
    <desc>Created with Sketch.</desc>
    <defs></defs>
    <g id="Page-1" stroke="none" stroke-width="1" fill-rule="evenodd" sketch:type="MSPage">
        <g id="-" sketch:type="MSArtboardGroup" transform="translate(-700.000000, -2743.000000)">
            <g id="Fill-9-+-Fill-11-+-Fill-13" sketch:type="MSLayerGroup" transform="translate(700.000000, 2743.000000)">
                <path d="M51.3411203,31.4571886 L51.298919,31.4556196 C52.8535084,29.3217552 53.7613633,26.7501348 53.7613633,23.9823871 C53.7613633,16.5975426 47.3014033,10.6106931 39.3332753,10.6106931 C34.1746971,10.6106931 29.6517756,14.1467366 27.1007086,17.9191787 C24.5501691,14.1467366 20.02672,10.6106931 14.8686693,10.6106931 C6.90001378,10.6106931 0.440581299,16.5975426 0.440581299,23.9823871 C0.440581299,26.6209523 1.26930882,29.0796034 2.69307429,31.1517531 L2.68832665,31.1522761 L2.70889977,31.1758114 C3.28494716,32.0094829 3.95436487,32.7814398 4.70924015,33.4754687 C4.70924015,33.4754687 20.1559614,51.5563086 21.2310389,52.8852668 C23.2925711,55.2937093 29.0277242,56.1242428 31.9849785,52.8852668 C35.4734413,49.6818551 49.7105686,33.2673123 49.7105686,33.2673123 C50.1943007,32.802883 50.6416342,32.3065503 51.049404,31.7809293 L51.3411203,31.4571886 Z" id="Fill-9" sketch:type="MSShapeGroup"></path>
                <path d="M27.1506116,15.7037777 C27.1506116,15.7037777 20.7856044,9.8675539 23.7275607,1.92570803 C23.7275607,1.92570803 25.1022672,-0.630745217 27.4275574,0.191943196 C29.7517926,1.01463161 29.383059,2.9544608 28.8244196,4.06532551 C28.2657802,5.17566722 26.3408746,9.70019198 27.1506116,15.7037777" id="Fill-11" sketch:type="MSShapeGroup"></path>
                <path d="M28.7104762,9.86195773 C28.7104762,9.86195773 28.3391049,0.396072432 40.0510135,2.21561025 C40.0510135,2.21561025 40.1417462,11.4294067 28.7104762,9.86195773" id="Fill-13" sketch:type="MSShapeGroup"></path>
            </g>
        </g>
    </g>
</svg>