<?xml version="1.0" encoding="UTF-8" standalone="no"?>
<svg width="65px" height="74px" viewBox="0 0 65 74" version="1.1" xmlns="http://www.w3.org/2000/svg" xmlns:xlink="http://www.w3.org/1999/xlink" xmlns:sketch="http://www.bohemiancoding.com/sketch/ns">
    <!-- Generator: Sketch 3.4.2 (15855) - http://www.bohemiancoding.com/sketch -->
    <title>Group</title>
    <desc>Created with Sketch.</desc>
    <defs></defs>
    <g id="Page-1" stroke="none" stroke-width="1" fill-rule="evenodd" sketch:type="MSPage">
        <g id="-" sketch:type="MSArtboardGroup" transform="translate(-972.000000, -2735.000000)">
            <g id="Group" sketch:type="MSLayerGroup" transform="translate(972.000000, 2735.000000)">
                <path d="M21.6203456,23.8595853 C25.3356403,25.5441876 29.3990954,24.6299731 30.6297901,21.9647346 C31.8589022,19.2994961 30.1613559,15.0835449 26.4460613,13.3989426 C22.7307666,11.7143403 19.1004021,11.687667 17.1739139,15.8633468 C15.5897836,19.2984501 17.9045235,22.174983 21.6203456,23.8595853" id="Fill-25" sketch:type="MSShapeGroup"></path>
                <path d="M54.0504421,46.5663085 C53.3699465,47.0040645 52.3613361,47.4930751 51.6818956,47.839828 C51.049404,48.1635688 48.5083598,49.1415899 48.5083598,49.1415899 L48.4651035,49.4888659 C51.6708177,49.7801802 56.285527,51.2670863 56.285527,51.2670863 C56.2733942,47.7838664 55.6867965,45.1813886 55.6867965,45.1813886 C55.6867965,45.1813886 54.7309376,46.1285525 54.0504421,46.5663085" id="Fill-27" sketch:type="MSShapeGroup"></path>
                <path d="M62.1367337,61.4454103 C61.2705525,59.7618541 57.9466747,55.5762372 57.9466747,55.5762372 L54.9962781,62.818301 C54.9962781,62.818301 57.4349842,66.1189918 57.692412,66.836556 C57.692412,66.836556 53.137312,70.9180947 56.8098779,73.6251737 L65.0491491,67.0520345 C65.0575893,65.8627189 63.0029148,63.1289666 62.1367337,61.4454103" id="Fill-29" sketch:type="MSShapeGroup"></path>
                <path d="M36.0063379,12.8190336 C30.2242358,8.48383697 26.2314678,2.46665312 24.6383697,0.953073804 C23.0452716,-0.561028519 21.153072,1.72921468 21.153072,1.72921468 C14.8365964,10.2296309 10.2625058,15.2070789 1.19872718,20.5657982 C-1.18142466,22.4501888 1.5173468,23.9731822 1.5173468,23.9731822 C7.89554183,26.6478348 13.1891641,35.0928124 13.1891641,35.0928124 C14.674649,36.9876631 16.1775418,33.9657345 16.1775418,33.9657345 C16.1775418,33.9657345 16.5035467,33.218882 17.0073244,32.6440984 C16.6760444,32.3967166 15.4959913,30.2633752 17.2341562,27.8580706 C18.9717937,25.4527661 22.2814286,26.7262857 22.2814286,26.7262857 C22.5884429,26.4255572 23.0384139,25.9857092 23.3491208,25.6896878 C22.6069059,25.5197109 21.8604709,25.2791281 21.1240586,24.9449273 C16.6259304,22.90625 13.8232383,19.4230301 15.7418137,15.2651326 C18.0739616,10.2097567 22.4686967,10.2416601 26.9662975,12.2808604 C29.6381657,13.4926653 31.439105,15.7860465 32.1565267,18.1249293 C34.866376,16.2452458 36.8862344,15.5041463 36.8862344,15.5041463 C38.3701367,13.9466345 36.0063379,12.8190336 36.0063379,12.8190336" id="Fill-32" sketch:type="MSShapeGroup"></path>
                <path d="M21.5209616,32.013667 L27.9803941,34.4806862 L28.2631426,31.6862652 L22.7964951,28.0111022 C22.7964951,28.0111022 20.1019438,26.157046 18.2735736,28.1256405 C16.6825856,29.8358701 17.456979,31.4556196 18.036719,32.2484967 C19.1376447,31.232296 21.5209616,32.013667 21.5209616,32.013667" id="Fill-34" sketch:type="MSShapeGroup"></path>
                <path d="M53.1418486,34.4346094 L47.2874769,28.5905405 C47.2874769,28.5905405 43.7267444,25.4760399 42.2676354,24.0670618 C40.8090539,22.6586066 34.5790908,18.8098056 30.9508363,22.6481465 C30.0635545,23.6313978 29.6051432,24.5728085 29.4479434,25.4781319 C29.4400307,25.484931 29.4347555,25.489115 29.4347555,25.489115 L29.4289528,25.6151595 C29.3888616,25.9001977 29.3777838,26.1810519 29.3920267,26.4592911 L28.9684314,36.1741273 L21.783137,33.1950852 C21.783137,33.1950852 18.7715486,31.9084905 17.3731039,34.1982107 C15.6628973,36.9942007 18.4972404,38.6955391 18.4972404,38.6955391 C18.4972404,38.6955391 32.2960019,45.3068578 33.3948176,44.368062 C34.4936332,43.4282203 35.2194951,38.7148903 35.2194951,38.7148903 C35.2194951,38.7148903 35.4326116,37.3446147 35.6594434,35.4162916 L35.6599709,35.4115846 C35.6705212,35.3237195 35.6805441,35.2369006 35.6910944,35.1469435 C35.6916219,35.1474665 35.6921494,35.1479895 35.6926769,35.1485125 L36.0313421,32.5721851 C36.0313421,32.5721851 36.108887,31.7960442 36.7587866,31.8504368 C37.4081587,31.9053524 37.2525415,32.7651743 37.2525415,32.7651743 L36.7619517,35.9392976 C38.6541513,37.3294475 40.7330916,38.8289057 42.5102927,40.5773147 C42.5102927,40.5773147 34.9077332,45.1107305 33.0165886,46.6012976 C31.1254441,48.0923876 30.2977716,49.5029348 30.5652221,51.010761 C30.8321452,52.5185873 30.6564824,53.804136 33.9133657,54.8156296 C37.1707765,55.8266001 50.6118823,56.9840124 50.6118823,56.9840124 C50.6118823,56.9840124 49.2176577,62.1612486 53.1138903,64.6141467 L57.7481177,53.2565487 C53.5285178,50.7267688 43.3690886,49.8910052 43.3690886,49.8910052 C43.3690886,49.8910052 53.5733567,46.7676135 54.9802416,44.3042553 C56.3871266,41.8414201 56.7685206,38.943444 53.1418486,34.4346094" id="Fill-36" sketch:type="MSShapeGroup"></path>
            </g>
        </g>
    </g>
</svg>