<?xml version="1.0" encoding="UTF-8" standalone="no"?>
<svg width="62px" height="53px" viewBox="0 0 62 53" version="1.1" xmlns="http://www.w3.org/2000/svg" xmlns:xlink="http://www.w3.org/1999/xlink" xmlns:sketch="http://www.bohemiancoding.com/sketch/ns">
    <!-- Generator: Sketch 3.4.2 (15855) - http://www.bohemiancoding.com/sketch -->
    <title>Fill 38</title>
    <desc>Created with Sketch.</desc>
    <defs></defs>
    <g id="Page-1" stroke="none" stroke-width="1" fill-rule="evenodd" sketch:type="MSPage">
        <g id="-" sketch:type="MSArtboardGroup" transform="translate(-1411.000000, -2744.000000)">
            <path d="M1472.25198,2759.9726 C1472.25198,2751.15158 1464.83089,2744 1455.67796,2744 C1449.75237,2744 1444.55634,2748.22432 1441.62599,2752.73054 C1438.69564,2748.22432 1433.49961,2744 1427.57455,2744 C1418.42057,2744 1411,2751.15158 1411,2759.9726 C1411,2761.86902 1411.35027,2763.68542 1411.98118,2765.37212 L1420.75588,2765.37212 L1426.43775,2752.74361 L1431.50718,2767.44636 L1436.45423,2757.42766 L1441.44611,2771.29307 L1445.0406,2765.37212 L1455.79401,2765.37212 C1456.19493,2764.1509 1457.37973,2763.26545 1458.77975,2763.26545 C1460.50948,2763.26545 1461.91214,2764.6169 1461.91214,2766.28424 C1461.91214,2767.95106 1460.50948,2769.30251 1458.77975,2769.30251 C1457.48048,2769.30251 1456.36637,2768.53996 1455.89213,2767.4542 L1446.27921,2767.4542 L1440.94233,2776.24541 L1436.14088,2762.90771 L1431.15058,2773.01376 L1426.17083,2758.57095 L1422.17437,2767.4542 L1412.93757,2767.4542 C1413.14119,2767.82292 1413.35536,2768.18537 1413.58747,2768.53683 L1413.58219,2768.53683 L1413.60593,2768.56507 C1414.26743,2769.56035 1415.03655,2770.48241 1415.90379,2771.31137 L1440.67383,2797.02601 L1467.59824,2771.06294 C1468.15477,2770.50804 1468.66857,2769.91547 1469.137,2769.28786 L1469.47198,2768.90084 L1469.42397,2768.89927 C1471.20908,2766.35066 1472.25198,2763.27852 1472.25198,2759.9726" id="Fill-38" sketch:type="MSShapeGroup"></path>
        </g>
    </g>
</svg>