<?xml version="1.0" encoding="utf-8"?>
<!-- Generator: Adobe Illustrator 16.0.0, SVG Export Plug-In . SVG Version: 6.00 Build 0)  -->
<!DOCTYPE svg PUBLIC "-//W3C//DTD SVG 1.1//EN" "http://www.w3.org/Graphics/SVG/1.1/DTD/svg11.dtd">
<svg version="1.1" xmlns="http://www.w3.org/2000/svg" xmlns:xlink="http://www.w3.org/1999/xlink" x="0px" y="0px" width="1280px"
	 height="700px" viewBox="0 0 1280 700" style="enable-background:new 0 0 1280 700;" xml:space="preserve">
<g id="Silla">
	<path style="fill:#F3E1B6;" d="M681.8,485c0,1.3-32,2.4-93.7,2.4s-79.7-1.1-79.7-2.4s18-2.4,79.7-2.4S681.8,483.7,681.8,485z"/>
	<g>
		<g>
			<g>
				<path style="fill:#AEC5CA;" d="M569,481.4c0.1,0.7,0.7,1.2,1.4,1.2h1.5c0.7,0,1.1-0.5,1-1.2l-10.3-61.6c-0.1-0.6-0.7-1.1-1.4-1
					l-1.5,0.3c-0.7,0.1-1.1,0.7-1,1.4L569,481.4z"/>
				<path style="fill:#AEC5CA;" d="M515.8,481.2c-0.1,0.7,0.4,1.2,1,1.2h1.5c0.7,0,1.3-0.5,1.4-1.2l9.6-60.8c0.1-0.7-0.3-1.3-1-1.4
					l-1.5-0.2c-0.7-0.1-1.3,0.3-1.4,1L515.8,481.2z"/>
			</g>
			<path style="opacity:0.5;fill:#AEC5CA;" d="M528.2,419l-0.5-0.1c-0.3,0.2-0.5,0.5-0.6,0.8l-9.6,61.4c-0.1,0.6,0.3,1.1,0.9,1.2
				c0.6-0.1,1.1-0.6,1.2-1.2l9.6-60.8C529.3,419.7,528.9,419.1,528.2,419z"/>
			<path style="opacity:0.5;fill:#AEC5CA;" d="M562.1,419l-0.3,0.1c-0.7,0.1-1.1,0.7-1,1.4l10.3,60.9c0.1,0.5,0.5,1,1.1,1.1
				c0.5-0.1,0.8-0.6,0.7-1.1l-10.3-61.6C562.5,419.5,562.3,419.2,562.1,419z"/>
			<g>
				<g>
					<path style="fill:#897558;" d="M530,415.5c-3.5,0-7.8-1.9-8.3-5l-2.1-13.6l-5.1-55.4c-0.1-0.9-1-1.6-2-1.5c-0.9,0.1-3.2,1-3,2
						l7.2,69.1c0.8,5.4,6.8,9.3,12.2,9.7c0,0,42.9-0.1,42.9-0.1c1.9-0.2,2.7-1.3,2.6-2.4c0-0.9-0.4-2.7-2.7-2.8
						C571.1,415.4,540.5,415.6,530,415.5z"/>
				</g>
			</g>
		</g>
		<path style="opacity:0.25;fill:#897558;" d="M567.5,416.7c-0.8-0.1-31.4,0.1-41.9,0c-3.5,0-7.8-1.9-8.3-5l-1.3-8.9l0.9,8.3
			c0.8,5.4,6.8,9.3,12.2,9.7c0,0,32.3,0,40.8-0.1c0.2-0.4,0.3-0.8,0.3-1.2C570.2,418.6,569.9,416.9,567.5,416.7z M509.8,341.7
			c-0.1,0.1-0.2,0.2-0.1,0.3l7.1,65.8l-4.1-64.7C512.5,342.8,510.5,342,509.8,341.7z"/>
	</g>
</g>
<g id="Comida">
	<g>
		<g>
			<g>
				<path style="fill:#EBEBEB;" d="M629.7,369v-2.5h-4.5v2.5c0,0-3.1,1.6-3.1,3.4v12.3c0,0.9,0.8,1.7,1.7,1.7h7.2
					c0.9,0,1.7-0.8,1.7-1.7v-12.3C632.7,370.5,629.7,369,629.7,369z"/>
				<path style="fill:#EBEBEB;" d="M630.7,366.1c0,0.4-0.3,0.7-0.7,0.7h-5.1c-0.4,0-0.7-0.3-0.7-0.7l0,0c0-0.4,0.3-0.7,0.7-0.7h5.1
					C630.4,365.4,630.7,365.7,630.7,366.1L630.7,366.1z"/>
			</g>
			<g>
				<path style="fill:#B9AB42;" d="M631.5,384.1c0,0.6-0.5,1.1-1.1,1.1h-6.1c-0.6,0-1.1-0.5-1.1-1.1v-8.7c0-0.6,0.5-1.1,1.1-1.1h6.1
					c0.6,0,1.1,0.5,1.1,1.1V384.1z"/>
				<path style="opacity:0.25;fill:#B9AB42;" d="M631.5,376.6c0,0.6-0.5,1.2-1.2,1.2h-5.8c-0.6,0-1.2-0.5-1.2-1.2v-1.2
					c0-0.6,0.5-1.2,1.2-1.2h5.8c0.6,0,1.2,0.5,1.2,1.2V376.6z"/>
			</g>
			<g>
				<polygon style="fill:#946454;" points="629.4,364.4 625.5,364.4 625.7,365.6 629.2,365.6 				"/>
				<polygon style="fill:#C4C4C4;" points="625.7,365.6 625.7,365.7 626,368.1 628.8,368.1 629.2,365.7 629.2,365.6 				"/>
			</g>
		</g>
		<g>
			<g>
				<path style="fill:#EBEBEB;" d="M641.8,385.8c0,0.4-0.3,0.7-0.7,0.7h-6.7c-0.4,0-0.7-0.3-0.7-0.7v-19.9c0-0.4,0.3-0.7,0.7-0.7
					h6.7c0.4,0,0.7,0.3,0.7,0.7V385.8z"/>
				<ellipse style="fill:#EBEBEB;" cx="637.7" cy="365.6" rx="4.1" ry="4.7"/>
				<rect x="636.1" y="356" style="fill:#EBEBEB;" width="3.2" height="7"/>
				<path style="fill:#98AB42;" d="M639.7,355.9c-0.1,0-0.2-0.1-0.2-0.2c0-0.1,0.1-0.2,0.2-0.2h0.1v-0.6h-0.1
					c-0.1,0-0.2-0.1-0.2-0.2c0-0.1,0.1-0.2,0.2-0.2h0.1V354c0-0.3-0.2-0.5-0.5-0.5h-3c-0.3,0-0.5,0.2-0.5,0.5v0.4h0.1
					c0.1,0,0.2,0.1,0.2,0.2c0,0.1-0.1,0.2-0.2,0.2h-0.1v0.6h0.1c0.1,0,0.2,0.1,0.2,0.2c0,0.1-0.1,0.2-0.2,0.2h-0.1v0.7h4.1
					L639.7,355.9L639.7,355.9z"/>
				<path style="fill:#EBEBEB;" d="M639.8,357.2c0,0.3-0.3,0.6-0.6,0.6h-2.9c-0.3,0-0.6-0.3-0.6-0.6l0,0c0-0.3,0.3-0.6,0.6-0.6h2.9
					C639.5,356.6,639.8,356.9,639.8,357.2L639.8,357.2z"/>
			</g>
			<g>
				<path style="fill:#EFA245;" d="M640.7,384.6c0,0.4-0.3,0.7-0.7,0.7h-4.5c-0.4,0-0.7-0.3-0.7-0.7v-17.7c0-0.4,0.3-0.7,0.7-0.7
					h4.5c0.4,0,0.7,0.3,0.7,0.7V384.6z"/>
				<path style="fill:#FFB757;" d="M640.7,369.1c0,0.4-0.3,0.7-0.7,0.7h-4.5c-0.4,0-0.7-0.3-0.7-0.7v-2.2c0-0.4,0.3-0.7,0.7-0.7h4.5
					c0.4,0,0.7,0.3,0.7,0.7V369.1z"/>
			</g>
		</g>
	</g>
	<g>
		<g>
			<path style="fill:#EFA245;" d="M610.7,375.1c-0.7-0.2-1.1-1-0.9-1.8l0,0c0.2-0.7,1-1.1,1.8-0.9l10.8,3.6c0.7,0.2,1.1,1,0.9,1.8
				l0,0c-0.2,0.7-1,1.1-1.7,0.9L610.7,375.1z"/>
			<g>
				<path style="fill:#FFB757;" d="M622.2,376.8c1.1,0.3,1.6-0.4,1.7-0.6c0.5-1.6-2.1-3.9-5.9-5.2c-3.8-1.3-7.3-1-7.8,0.6
					c-0.1,0.2,0.2,1.2,1.3,1.7L622.2,376.8z"/>
				<path style="fill:#EFA245;" d="M613.7,372.8c-0.3-0.1-0.5-0.4-0.4-0.8l0,0c0.1-0.3,0.5-0.5,0.8-0.4l7.4,2.4
					c0.3,0.1,0.5,0.4,0.4,0.8l0,0c-0.1,0.3-0.5,0.5-0.8,0.3L613.7,372.8z"/>
			</g>
			<g>
				<path style="fill:#FFB757;" d="M621.8,378c1,0.4,1.1,1.3,1,1.5c-0.5,1.6-4,1.9-7.8,0.6c-3.8-1.3-6.4-3.6-5.9-5.2
					c0.1-0.2,0.9-0.8,2.1-0.5L621.8,378z"/>
				<path style="fill:#EFA245;" d="M612.6,376.2c-0.3-0.1-0.7,0-0.8,0.3l0,0c-0.1,0.3,0.1,0.6,0.4,0.8l7.4,2.4
					c0.3,0.1,0.7,0,0.8-0.3l0,0c0.1-0.3-0.1-0.6-0.4-0.8L612.6,376.2z"/>
			</g>
		</g>
		<path style="fill:#76885A;" d="M593,382c0.6,0.3,1.7,0.1,2.3-0.2c0.1,0.5,0.2,1.2-0.2,1.2h17.3c0.2,0,0.5,0,0.7,0
			c0.1,0,0.2,0,0.3,0h6.6c-0.1,0-0.1-0.5,0.2-0.8c0.3-0.3,0.9-0.3,1.3-0.5c0.8-0.4,0.8-1.2,0.4-1.8c-0.4-0.6-1-1.2-1.1-1.8
			c-0.2-0.8,0.3-1.9-1-2.4c-1.2-0.4-2.8,0.2-3.9-0.2c-0.6-0.2-0.7-0.7-1.1-1c-0.6-0.4-1.7-0.7-2.6-0.5c-0.9,0.2-1.6,0.7-1.6,1.2
			c-1.9,0.1-3.8,0.2-5.7,0.3c0.6,0.9-0.5,2.1-2.2,2.3c-1.5,0.2-3-0.2-4.5-0.3c-1.5-0.2-3.1,0-4.3,0.5c-1.2,0.5-1.8,1.5-1.2,2.3
			C593.1,380.9,594,381.7,593,382z"/>
		<g>
			<g>
				<path style="fill:#FFBE8E;" d="M590.9,384c0.1,0,10.9-3.1,13-3.3l1.5-1.6l-1.1-3.1c-2.5-1.6-9.4-5.6-10.4-6.4c0,0,0,0,0,0
					c0,0-0.2-0.1-0.3-0.1c1.6,1,2.2,13-2.1,14.3c4.2-1.2,3.5-13.3,2-14.3"/>
				<circle style="fill:#FFD2B9;" cx="590" cy="376.3" r="7.6"/>
				<circle style="fill:#D76A74;" cx="590" cy="376.3" r="6.9"/>
				<circle style="fill:#F5E5E5;" cx="590" cy="376.3" r="1.2"/>
				<path style="fill:#AEC5CA;" d="M610.2,374.1c-1-1.4-2.9-1.8-4.4-0.9c-1,0.6-1.5,1.7-1.4,2.8c0,0-0.2-0.1-0.5-0.3
					c0.4,1,0.9,3-0.7,5c-0.3,0.9-0.1,1.8,0.4,2.6c1,1.4,2.9,1.8,4.4,0.9c1.4-1,1.8-2.9,0.9-4.4c-0.3-0.4-0.6-0.7-1-0.9
					c0.5,0,1-0.2,1.5-0.5C610.8,377.5,611.2,375.5,610.2,374.1z"/>
				<path style="fill:#F5E5E5;" d="M605.9,373.3c-1,0.6-1.5,1.7-1.4,2.8c0,0-0.2-0.1-0.5-0.3c0.4,1,0.9,3-0.7,5
					c-0.1,0.4-0.1,0.8-0.1,1.3c1,1.2,2.8,1.4,4.1,0.6c1-0.7,1.5-1.8,1.4-3c-0.2-0.2-0.5-0.5-0.7-0.6c0.2,0,0.4-0.1,0.6-0.1
					c-0.1-0.2-0.2-0.4-0.3-0.6c-0.3-0.4-0.6-0.7-1-0.9c0.5,0,1-0.2,1.5-0.5c1-0.7,1.5-1.9,1.4-3C609,372.6,607.2,372.4,605.9,373.3z
					"/>
			</g>
			<path style="opacity:0.25;fill:#F5E5E5;" d="M590,368.6c-4,0-7.4,3.2-7.6,7.3c-0.2,4.2,3.1,7.8,7.3,7.9c0.1,0,0.3,0,0.3,0V368.6z
				"/>
		</g>
		<path style="fill:#769F5A;" d="M608.3,382.9c-0.1,0.1-0.1,0.1-0.2,0.1h18.1c0.7,0,1.3-0.6,1.5-1.1c0.3-0.9-1.1-1.8-2.5-1.5
			c0.6-0.6,1.1-1.1,1.3-1.8c0.2-0.7-0.1-1.5-1.2-2c-1.1-0.4-2.9-0.2-3.2,0.5c0.1-1.1-0.4-2.1-1.3-3.1c-2.1,0.1-3.8,1.4-3.2,2.6
			c-0.6-0.5-1.2-0.9-2-1.2c-0.8-0.3-2-0.4-2.8-0.1c-0.9,0.3-1.1,1-1.1,1.6c0,0.7,0.4,1.5,1.1,2.1c-0.7-0.2-1.7-0.3-2.4,0
			c-1.1,0.4-1.3,1.3-0.9,2c0.3,0.6,1.1,0.9,1.9,1.3C610.3,382.2,608.8,382.3,608.3,382.9z"/>
		<g>
			<g>
				<g>
					<ellipse style="fill:#A53926;" cx="597.7" cy="379.4" rx="3.5" ry="3.1"/>
				</g>
			</g>
		</g>
		<g>
			<g>
				<g>
					<path style="fill:#FFB757;" d="M623.1,383.6c0.5-0.8,1.5-3.8,0.5-4.4c-1-0.6-3.5,1.6-4,2.4c-0.5,0.8-0.2,1.2,0.8,1.8
						C621.4,384.1,622.6,384.4,623.1,383.6z"/>
					<path style="fill:#EFA245;" d="M619,383.6c0.5-0.8,1.5-3.8,0.5-4.4c-1-0.6-3.5,1.6-4,2.4c-0.5,0.8-0.2,1.2,0.8,1.8
						C617.3,384.1,618.5,384.4,619,383.6z"/>
					<path style="fill:#FFB757;" d="M615,383.6c0.5-0.8,1.5-3.8,0.5-4.4c-1-0.6-3.5,1.6-4,2.4c-0.5,0.8-0.2,1.2,0.8,1.8
						C613.2,384.1,614.5,384.4,615,383.6z"/>
					<path style="fill:#EFA245;" d="M610.9,383.4c0.5-0.8,1.5-3.8,0.5-4.4c-1-0.6-3.5,1.6-4,2.4c-0.5,0.8-0.2,1.2,0.8,1.8
						C609.2,383.9,610.4,384.2,610.9,383.4z"/>
					<path style="fill:#FFB757;" d="M606.9,383.6c0.5-0.8,1.5-3.8,0.5-4.4c-1-0.6-3.5,1.6-4,2.4c-0.5,0.8-0.2,1.2,0.8,1.8
						C605.1,384.1,606.3,384.4,606.9,383.6z"/>
					<path style="fill:#EFA245;" d="M602.8,383.6c0.5-0.8,1.5-3.8,0.5-4.4c-1-0.6-3.5,1.6-4,2.4c-0.5,0.8-0.2,1.2,0.8,1.8
						C601.1,384.1,602.3,384.4,602.8,383.6z"/>
					<path style="fill:#FFB757;" d="M598.7,383.6c0.5-0.8,1.5-3.8,0.5-4.4c-1-0.6-3.5,1.6-4,2.4c-0.5,0.8-0.2,1.2,0.8,1.8
						C597,384.1,598.2,384.4,598.7,383.6z"/>
					<path style="fill:#EFA245;" d="M594.7,383.6c0.5-0.8,1.5-3.8,0.5-4.4c-1-0.6-3.5,1.6-4,2.4c-0.5,0.8-0.2,1.2,0.8,1.8
						C592.9,384.1,594.1,384.4,594.7,383.6z"/>
					<path style="fill:#FFB757;" d="M590.6,383.6c0.5-0.8,1.5-3.8,0.5-4.4c-1-0.6-3.5,1.6-4,2.4c-0.5,0.8-0.2,1.2,0.8,1.8
						C588.9,384.1,590.1,384.4,590.6,383.6z"/>
				</g>
			</g>
		</g>
		<g>
			<path style="fill:#AEC5CA;" d="M629.5,383.2c0-0.2-0.2-0.2-0.4-0.2h-45.2c-0.2,0-0.4-0.1-0.4,0.2l8.2,2.5c0,0.2,0.2,0.4,0.4,0.4
				h28.8c0.2,0,0.4-0.2,0.4-0.4L629.5,383.2z"/>
			<path style="opacity:0.25;fill:#AEC5CA;" d="M621.1,383h-37.5c-0.2,0-0.4-0.1-0.4,0.1l3.7,0.9h30.8l3.7-0.9
				C621.5,382.9,621.3,383,621.1,383z"/>
			<path style="opacity:0.5;fill:#AEC5CA;" d="M591.7,385.5c0,0.2,0.2,0.5,0.4,0.5h28.8c0.2,0,0.4-0.3,0.4-0.5l-15.4,0L591.7,385.5z
				"/>
		</g>
	</g>
</g>
<g id="Lousteau">
	<g>
		<g>
			<g>
				<path style="fill:#FFBE9A;" d="M607,475v-54c0-7.1-6.1-13-13.3-13h-47.6c-4.4,0-8.2-7-9.6-11H553v6h40.7c9.8,0,18.3,8.2,18.3,18
					v54H607z"/>
			</g>
		</g>
		<path style="fill:#1F4463;" d="M593.8,400h-35.5l-0.1,0c-2.7,0-3.2-2.6-3.2-3.3V396h-21v1.9c0,7.2,5.3,14.1,12.5,14.1h47.3
			c5.5,0,9.2,3.4,9.2,8.9V468h11v-47.1C614,409.4,605.3,400,593.8,400z"/>
		<path style="opacity:0.15;fill:#1F4463;" d="M587.6,404.1l-35.5,0c-2.7,0-3.1-2.7-3.1-3.4V396h-15v2.2c0,7.1,5.4,13.8,12.5,13.8
			h47.3c5.5,0,9.2,3.4,9.2,8.9V468h5v-45.1C608,411.4,599.1,404.1,587.6,404.1z"/>
		<g>
			<g>
				<g>
					<g>
						<path style="fill:#9FD1C9;" d="M604.5,474.8c0,0.2,0.1,0.4,0.3,0.4l7.9,0.8c0.2,0,0.4-0.1,0.3-0.4l-0.6-4.6
							c0-0.2-0.2-0.4-0.5-0.4h-6.6c-0.2,0-0.4,0.2-0.4,0.4L604.5,474.8z"/>
					</g>
					<path style="fill:#3C3541;" d="M603.3,473.6l-1.4,8.7h31.6c0,0,0.3-5.2-4-5.7c-11.1-1-15.2-6.1-15.2-6.1s-2.6,3-5.8,3.1
						C605.2,473.6,603.3,473.6,603.3,473.6z"/>
					<rect x="601.9" y="482.3" style="fill:#4C4452;" width="31.6" height="2.4"/>
					<g>
						<path style="fill:#7F6C50;" d="M617.1,475.7c-0.1,0.2,0,0.4,0.2,0.5l0.4,0.2c0.2,0.1,0.4,0,0.5-0.2l1-2.1
							c0.1-0.2,0-0.4-0.2-0.5l-0.4-0.2c-0.2-0.1-0.4,0-0.5,0.2L617.1,475.7z"/>
					</g>
					<g>
						<path style="fill:#7F6C50;" d="M614.6,474.1c-0.1,0.2-0.1,0.4,0.1,0.6l0.4,0.3c0.2,0.1,0.4,0.1,0.5-0.1l1.3-1.9
							c0.1-0.2,0.1-0.4-0.1-0.6l-0.4-0.3c-0.2-0.1-0.4-0.1-0.5,0.1L614.6,474.1z"/>
					</g>
					<g>
						<path style="fill:#7F6C50;" d="M620,477c-0.1,0.2,0,0.4,0.2,0.5l0.4,0.2c0.2,0.1,0.4,0,0.5-0.2l0.8-2.2c0.1-0.2,0-0.4-0.2-0.5
							l-0.4-0.2c-0.2-0.1-0.4,0-0.5,0.2L620,477z"/>
					</g>
					<g>
						<path style="fill:#7F6C50;" d="M622.8,477.9c0,0.2,0.1,0.4,0.3,0.5l0.4,0.1c0.2,0.1,0.4-0.1,0.5-0.3l0.5-2.3
							c0-0.2-0.1-0.4-0.3-0.5l-0.4-0.1c-0.2-0.1-0.4,0.1-0.5,0.3L622.8,477.9z"/>
					</g>
				</g>
			</g>
		</g>
		<path style="opacity:0.25;fill:#3C3541;" d="M614,483.7v-1.3c0-0.2,0.2-0.6,0.2-0.9c0,0,0.5-5.3-4.2-5.8c-2-0.2-4.9-0.8-4.9-0.8
			c-0.2-0.1-0.4-0.1-0.4-0.2c0-0.1-0.1-0.2-0.4-0.2l-0.5-0.1c-0.2-0.1-0.4-0.1-0.4,0c0,0.1-0.2,0-0.4,0l-0.1,0l-1,7.2
			c0,0.2,0,0.6,0,0.9v1.6h12C614.2,484,614,483.9,614,483.7z"/>
	</g>
	<g>
		<g>
			<g>
				<g>
					<path style="fill:#FFBE9A;" d="M585,475v-49.1c0-7.1-5-12.9-12.1-12.9h-37.3c-5.6,0-10.6-4.6-10.6-10.1V397h16v11h31.9
						c9.8,0,18.1,8.1,18.1,17.9V475H585z"/>
				</g>
			</g>
			<path style="fill:#2B4E6B;" d="M572.9,406h-25.5l-0.1-0.5c-2.7,0-3.2-3.1-3.2-3.8V396h-21v6.9c0,7.2,5.3,13.1,12.6,13.1h37.3
				c5.5,0,9.1,4.4,9.1,9.9V468h12v-42.1C594,414.4,584.4,406,572.9,406z"/>
			<path style="opacity:0.15;fill:#2B4E6B;" d="M567.9,408h-25.5l0.4,0c-2.7,0-2.7-2.6-2.7-3.3V396h-17v6.9
				c0,7.2,5.3,13.1,12.6,13.1h37.3c5.5,0,9.1,4.4,9.1,9.9V468h7v-39.1C589,417.4,579.4,408,567.9,408z"/>
		</g>
		<g>
			<g>
				<g>
					<g>
						<path style="fill:#9FD1C9;" d="M584,474.8c0,0.2,0.1,0.4,0.3,0.4l7.9,0.8c0.2,0,0.4-0.1,0.3-0.4l-0.6-4.6
							c0-0.2-0.2-0.4-0.5-0.4h-6.6c-0.2,0-0.4,0.2-0.4,0.4L584,474.8z"/>
					</g>
					<path style="fill:#3C3541;" d="M582.7,473.6l-1.4,8.7h31.6c0,0,0.3-5.2-4-5.7c-11.1-1-15.2-6.1-15.2-6.1s-2.6,3-5.8,3.1
						C584.6,473.6,582.7,473.6,582.7,473.6z"/>
					<rect x="581.3" y="482.3" style="fill:#4C4452;" width="31.6" height="3.6"/>
					<g>
						<path style="fill:#7F6C50;" d="M596.6,475.7c-0.1,0.2,0,0.4,0.2,0.5l0.4,0.2c0.2,0.1,0.4,0,0.5-0.2l1-2.1
							c0.1-0.2,0-0.4-0.2-0.5l-0.4-0.2c-0.2-0.1-0.4,0-0.5,0.2L596.6,475.7z"/>
					</g>
					<g>
						<path style="fill:#7F6C50;" d="M594.1,474.1c-0.1,0.2-0.1,0.4,0.1,0.6l0.4,0.3c0.2,0.1,0.4,0.1,0.5-0.1l1.3-1.9
							c0.1-0.2,0.1-0.4-0.1-0.6l-0.4-0.3c-0.2-0.1-0.4-0.1-0.5,0.1L594.1,474.1z"/>
					</g>
					<g>
						<path style="fill:#7F6C50;" d="M599.4,477c-0.1,0.2,0,0.4,0.2,0.5l0.4,0.2c0.2,0.1,0.4,0,0.5-0.2l0.8-2.2
							c0.1-0.2,0-0.4-0.2-0.5l-0.4-0.2c-0.2-0.1-0.4,0-0.5,0.2L599.4,477z"/>
					</g>
					<g>
						<path style="fill:#7F6C50;" d="M602.2,477.9c0,0.2,0.1,0.4,0.3,0.5l0.4,0.1c0.2,0.1,0.4-0.1,0.5-0.3l0.5-2.3
							c0-0.2-0.1-0.4-0.3-0.5l-0.4-0.1c-0.2-0.1-0.4,0.1-0.5,0.3L602.2,477.9z"/>
					</g>
				</g>
			</g>
		</g>
	</g>
	<g>
		<g>
			<g>
				<g>
					<g>
						<g>
							<g>
								<path style="fill:#FFBE9A;" d="M538.1,324.7l0.1,0.8c0.2,1.4,1.6,3.1,3,2.9l34.8,5.7c1.6-0.2,2.7-1.7,2.5-3.3
									c-0.2-1.6-1.7-2.8-3.2-2.6l-34.8-5.7C539.1,322.7,538,323.4,538.1,324.7z"/>
							</g>
						</g>
					</g>
					<g>
						<path style="fill:#FFBE9A;" d="M575.8,333c1.6,0,2.9-1.3,2.9-2.9l1.2-36.6l-5.8-0.1L573,330C573,331.6,574.2,332.9,575.8,333z
							"/>
					</g>
				</g>
				<g>
					<circle style="fill:#E3BE9A;" cx="541.5" cy="324.4" r="6.2"/>
				</g>
			</g>
		</g>
		<g>
			<g>
				<g>
					<g>
						<path style="fill:#D76A74;" d="M554.1,320c-1.2-7.6-7.8-13.5-15.7-13.5c-8.3,0-17.1,6.3-17.8,14.4c0,0.3-0.1,0.7-0.1,1
							l0.4,81.5c0,1.3,1.1,2.7,2.4,2.7l30.3-10c1.3,0,2.4-1.4,2.4-2.7l-1.6-71.3C554.3,321.4,554.2,320.6,554.1,320z"/>
						<path style="opacity:0.5;fill:#CC656F;" d="M538.1,306.5c0,0,0.1,0,0.1,0c-8.3,0-17,6.3-17.7,14.4c0,0.3,0,0.7,0,1l0.4,81.5
							c0,1.3,1.1,2.7,2.4,2.7l8.2-2.6c0,0-1.7-84.4-1.7-88.4C529.7,311.2,538.1,306.5,538.1,306.5z"/>
					</g>
				</g>
			</g>
		</g>
		<g>
			<path style="opacity:0.5;fill:#E4CA9A;" d="M534.7,324.2c-0.1,0.6-0.8,0.9-1,1.5c-1.8,4.1-6.5,6.1-10.7,4.3
				c-2.3-1-3.9-2.9-4.6-5.1c-0.6,3.7-2.2,14.6,3.2,16.9c5.4,2.3,8.7,0.3,10.7-4.3C533.1,335.7,535.3,326,534.7,324.2z"/>
			<g>
				<g>
					<g>
						<g>
							<circle style="fill:#E3BE9A;" cx="525.9" cy="324.4" r="6.2"/>
							<path style="opacity:0.2;fill:#E3BE9A;" d="M531.3,321.3c0,0.4,0,0.9-0.1,1.4c-0.6,3.4-3.9,5.6-7.3,4.9
								c-1.9-0.4-3.3-1.5-4.2-3c0.1,2.8,2.1,5.3,5,5.9c3.4,0.6,6.6-1.6,7.3-4.9C532.3,324.1,532,322.6,531.3,321.3z"/>
						</g>
						<g>
							<g>
								<path style="fill:#E3BE9A;" d="M526.6,321.3l-0.8-0.2c-1.3-0.3-2.8,0.5-3.1,1.8l-8.9,46.2c-0.3,1.6,1,3.2,2.6,3.5
									c1.6,0.3,3.4-0.7,3.7-2.3l8.9-46.2C529.3,322.8,528,321.6,526.6,321.3z"/>
								<path style="opacity:0.2;fill:#E3BE9A;" d="M526.6,321.3l-0.8-0.2c-1.3-0.3-2.8,0.5-3.1,1.8l-1.4,7.2l5.6,4.7l2.1-10.7
									C529.3,322.8,528,321.6,526.6,321.3z"/>
							</g>
						</g>
					</g>
				</g>
				<path style="fill:#D76A74;" d="M517.7,340.7l9.4,1.8c0,0,6-14.1,6.5-16.6c0.8-4.2-2-8.3-6.2-9.1c-4.2-0.8-8.3,2-9.1,6.2
					C517.8,325.3,517.7,340.7,517.7,340.7z"/>
				<path style="opacity:0.5;fill:#CC656F;" d="M527.2,316.7c-4.1-0.7-8.1,2.1-8.9,6.2c-0.5,2.4-0.6,17.8-0.6,17.8l4.7,0.9
					L527.2,316.7z"/>
				<path style="opacity:0.15;fill:#CC656F;" d="M525.9,324.6c3.1,0.6,5.4,3,6.1,5.9c0.8-2.1,1.4-3.9,1.6-4.6c0.8-4.2-2-8.3-6.2-9.1
					c-4.2-0.8-8.3,2-9.1,6.2C518.2,323.6,522.7,324,525.9,324.6z"/>
				<polygon style="fill:#2B4E6B;" points="517.6,342.3 526.5,344 527.1,342.5 517.7,340.7 				"/>
			</g>
		</g>
	</g>
	<g>
		<g>
			<path style="fill:#DFB48A;" d="M534.7,298.7l0,8.6c0,2.2,1.8,4.1,4,4.1c2.2,0,4.1-1.8,4.1-4l0-8.6L534.7,298.7z"/>
			<path style="fill:#CEAD8D;" d="M534.7,298.7l0,8.6c0,2.2,1.8,4.1,4,4.1l0-12.7L534.7,298.7z"/>
		</g>
		<g>
			<g>
				<g>
					<g>
						<g>
							<g>
								<path style="fill:#FFBE9A;" d="M525.7,262.4l0,26.5c0,7,5.7,12.8,12.7,12.8c7,0,12.8-5.7,12.8-12.7l0-26.5L525.7,262.4z"/>
							</g>
						</g>
						<path style="fill:#E3BE9A;" d="M525.7,262.4l0,26.5c0,7,5.7,12.8,12.7,12.8l0.1-39.3L525.7,262.4z"/>
					</g>
				</g>
				<g>
					<g>
						<path style="fill:#4C4452;" d="M544.8,277.7c0,0.8,0.6,1.4,1.4,1.4c0.8,0,1.4-0.6,1.4-1.4c0-0.8-0.6-1.4-1.4-1.4
							C545.4,276.3,544.8,276.9,544.8,277.7z"/>
					</g>
				</g>
			</g>
			<path style="fill:#F5E5E5;" d="M548.8,288c-2.8,0.2-5.1,0.9-5.1,1.5c0,0.6,2.5,2,5.3,1.8c0.2,0,0.3,0,0.5-0.1
				c0.3-1.1,0.5-2.2,0.5-3.3C549.7,288,549.2,288,548.8,288z"/>
			<path style="fill:#FFBE9A;" d="M545,277.9c0,1.2-1,2.1-2.2,2.1h-5.7c-1.2,0-2.2-1-2.2-2.1v-1.7c0-1.2,1-2.1,2.2-2.1h5.7
				c1.2,0,2.2,1,2.2,2.1V277.9z"/>
		</g>
		<path style="fill:#4C4452;" d="M562.3,254.5c0-6-5.7-9.5-10-9.5c-2,0-4,0-4,0s-1.2-2.2-2-3c-3.3-2.9-8.5-2.7-11.5,0.5
			c-0.7,0.7-1.2,1.5-1.6,2.5c-0.2,0.4-0.3,2-0.7,2c-1.3,0-2.7,0-4,0c-1.5,0-2.9,0.1-4.3,0.7c-1.9,0.8-3.5,2.3-4.3,4.2
			c-1.9,4.1,0,9.2,4.1,11.1c0.4,0.2,0.7,0.1,0.7,0.5c0,0.4,0,0.7,0,1.1c0,1.3,0,2.5,0,3.8c0,2.8,0,5.7,0,8.5c0,0.5,0,1,0,1.5
			c0,0.1,1.6,0,1.7,0c2.1,0,4.1,0,6.2,0c3.6,0,6.9-1.8,9-4.7c1-1.4,1.7-3.1,1.9-4.8c0.2-1.1,0.1-2.2,0-3.2c-0.1-0.5-0.2-1.1-0.4-1.6
			c-0.1-0.3-0.2-0.6-0.3-0.9c0.1-0.2,0.5-0.5,0.6-0.7c1.3,3.5,4,4.9,7.6,4.9c0,0.1,0,7,0,7c3.6-0.1,6.1-3,6.2-6.6
			c0-1.1-0.4-2.1-0.9-3C556.3,264.4,562.3,263.6,562.3,254.5z"/>
		<path style="fill:#3C3541;" d="M533.1,247l-5.4,0c-4.6,0-8.3,3.8-8.3,8.4c0,3.6,3.7,6.7,5.7,7.9v0.1c-7,0.4-10.6,5.5-10.6,11.7
			c0,6.5,4,11.7,11.2,11.7l0-2.2c0-1.2,0-1.7,0-2.1c0-2.8,1.6-3.7,6.1-3.7c5.2,0,6.3-2.1,9.3-4v-35.1
			C537,240.1,533.5,243.1,533.1,247z"/>
	</g>
	<g>
		<g>
			<g>
				<g>
					<path style="fill:#FFBE9A;" d="M573,278.6L573,278.6c0.8,0,1.5,0.7,1.4,1.4l-0.1,7.4l5.8,0.1l0.1-6.1c0-0.8,0.7-1.4,1.4-1.4h0
						c0.8,0,1,0.6,1,1.4l-0.1,6.1l0,3.6c0,2.5-1.6,4.5-4.1,4.4l-2.6,0c-2.5,0-4.5-2.1-4.4-4.5l0-3.6h0l0.1-7.4
						C571.6,279.2,572.2,278.6,573,278.6z"/>
				</g>
				<g>
					<path style="fill:#FFBE9A;" d="M576,276.9L576,276.9c-0.7,0-1.2,0.5-1.2,1.2l-0.1,8.7l2.4,0l0.1-8.7
						C577.2,277.5,576.6,276.9,576,276.9z"/>
				</g>
				<g>
					<path style="fill:#FFBE9A;" d="M578.8,277.2L578.8,277.2c-0.7,0-1.2,0.5-1.2,1.2l-0.1,8.7l2.4,0l0.1-8.7
						C579.9,277.7,579.4,277.2,578.8,277.2z"/>
				</g>
			</g>
		</g>
		<g>
			<g>
				<g>
					<g>
						<g>
							<path style="fill:#F5E5E5;" d="M586.7,282.4l-1.9,10.9c0,0.1-0.1,0.2-0.2,0.2l-30.4-2.6c-0.1,0-0.2-0.1-0.2-0.2
								c0-0.1,2.7-15.7,2.7-15.8c0-0.1,0.1-0.2,0.3-0.2l29.5,7.5C586.7,282.1,586.8,282.2,586.7,282.4z"/>
						</g>
					</g>
				</g>
				<path style="fill:#72ADC8;" d="M555,290.4l25.9,1.7c1.3,0.1,2.6-0.9,2.9-2.2l0.8-4.7c0.2-1.3-0.7-2.7-2-3c0,0-0.8-0.2-3.6-1
					c-2.9-0.7-5.4-0.7-11,4.2c-3.6,3.2-7.8,2.9-10.8,3.2C554.2,288.8,555,290.4,555,290.4z"/>
				<path style="opacity:0.4;fill:#C9DEE1;" d="M556.1,282.7c-0.7,3.9-1.3,7.5-1.3,7.5c0,0.1,0.1,0.2,0.2,0.2l29.1,2.4
					c0.1,0,0.2-0.1,0.2-0.2l0.8-4.9L556.1,282.7z"/>
			</g>
			<g>
				<g>
					<g>
						<path style="fill:#FFBE9A;" d="M567.8,286.9l0,2.5c0,0.8,0.3,1.6,0.9,2.2l1.6,1.6c0.7,0.7,1.6,1.1,2.6,1.1l2.4,0l0-0.5
							c0-1.5-0.6-2.9-1.6-3.9l-0.1-0.1c-0.5-0.5-1.3-0.9-2-0.9l-1.4,0l0-2.1c0-0.7-0.5-1.2-1.2-1.2l0,0
							C568.3,285.7,567.8,286.2,567.8,286.9z"/>
					</g>
				</g>
			</g>
		</g>
	</g>
	<g>
		<g>
			<path style="fill:#E3BE9A;" d="M514,369.3c-0.3,1.6,0.7,3.4,2.3,3.7l54.5-4.9l1.2-6.3l-54.5,4.9
				C515.8,366.5,514.3,367.8,514,369.3z"/>
		</g>
		<g>
			<g>
				<path style="fill:#E3BE9A;" d="M570.8,360.3l0-0.4l1.8-0.1c0.6,0,1-0.5,0.9-1.1l0,0c0-0.6-0.5-1-1.1-0.9l-2.2,0.2
					c-0.7,0.1-1.4,0.4-1.8,0.9l-1.3,1.5c-0.4,0.4-0.6,1-0.7,1.5c0.6-0.7,1.6-1.2,2.6-1.3L570.8,360.3z"/>
			</g>
			<g>
				<g>
					<g>
						<path style="fill:#BFBFC7;" d="M585.1,369.4c1.4,0.5,2.4,2.1,3.3,3.4c0.5,0.8,1.1,1.5,1.6,2.3c0.1,0.2,0.1,0.4,0,0.5l0,0
							c-0.1,0.1-0.4,0.1-0.5,0l-2.6-2.9c-0.1-0.1-0.3-0.2-0.5-0.1l0,0c-0.2,0.1-0.2,0.4,0,0.6l1,1.4l1.5,1.9c0.1,0.1,0.1,0.3,0,0.5
							l0,0c-0.1,0.1-0.3,0.1-0.4,0l-2.9-2.8c-0.1-0.1-0.3-0.1-0.4,0c-0.1,0.1-0.1,0.3,0.1,0.4l2.6,3c0.2,0.2,0.2,0.4,0,0.6l0,0
							c-0.1,0.1-0.3,0.1-0.5,0c-0.8-0.7-1.6-1.3-2.3-2c-0.7-0.6-1.3-1.3-1.9-2c-0.5-0.5-1-1.1-1.1-1.9c0-0.4,0.1-1,0.2-1.4
							c0-0.1,0-0.3-0.1-0.4c-2.3-2.4-4.1-4.2-4.9-5.1c-1-1-2-2-2.9-3c-0.5-0.5-1-1-1.5-1.5c-0.5-0.6-1.1-1.2-1.4-2
							c-0.3-0.8-0.2-1.6,0.6-1.6c1.4-0.1,2.6,1.8,3.5,3c1.2,1.4,2.4,2.8,3.5,4.2c1.4,1.7,2.8,3.3,4.1,5c0.1,0.1,0.2,0.2,0.3,0.1
							c0.4,0,0.9-0.2,1.3-0.1C584.9,369.4,585,369.4,585.1,369.4z"/>
					</g>
				</g>
			</g>
			<path style="fill:#E3BE9A;" d="M580.1,367.9L580.1,367.9c-0.1-0.7-0.6-1.2-1.3-1.1l-1.2,0.2l0-0.2l-0.1,0l1.3-0.1
				c0.6,0,1-0.5,0.9-1.1l0,0c0-0.6-0.5-1-1.1-0.9l-1.2,0.1l0-0.3l1.2-0.1c0.6,0,1-0.5,0.9-1.1l0,0c0-0.6-0.5-1-1.1-0.9l-1.7,0.2l0,0
				l0.5,0l0-0.3l2.3-0.3c0.7-0.1,1.2-0.6,1.1-1.3l0,0c-0.1-0.7-0.6-1.2-1.3-1.1l-2.3,0.3v0l-6.5,0.5l-1.8,0.1c-1,0.1-2,0.6-2.6,1.3
				c0,0.3-0.1,0.5,0,0.8l0,0l-0.5,0l-7.5,0.6l0.5,5.9l7.5-0.6c0.7,1,2,1.5,3.4,1.4l8.2-0.6l1.2-0.2
				C579.6,368.8,580.1,368.6,580.1,367.9z M576.8,364.7L576.8,364.7l0.5-0.1L576.8,364.7z"/>
		</g>
	</g>
</g>
<g id="Lampara">
	<g>
		<g>
			<path style="fill:#AEC5CA;" d="M668.9,184.7L668.9,184.7l-21-12.1c-1.2-0.8-1.9-2-1.9-3.3v-1.4c0-0.9-2.3-1.2-2.9-1.9l0,0
				c-0.7-0.9,0.3-3.3-0.9-3.5l-2.6-0.4l-2.6,0.4c-1.2,0.2-0.2,2.6-0.9,3.5l-0.1,0c-0.6,0.7-3.1,1-3.1,1.9v1.4c0,1.3-0.6,2.6-1.8,3.3
				l-20.9,12.1l-0.1,0c-0.7,0.7-1.2,1.6-1.2,2.5v0.7h30.7H670v-0.7C670,186.3,669.7,185.4,668.9,184.7z"/>
			<g>
				<g>
					<g>
						<g>
							<path style="fill:#9B969E;" d="M639,162.1h1.4V0.7c0-0.4-0.3-0.7-0.7-0.7h0c-0.4,0-0.7,0.3-0.7,0.7V162.1z"/>
						</g>
					</g>
				</g>
			</g>
		</g>
		<g style="opacity:0.2;">
			<g>
				<g>
					<path style="fill:#AEC5CA;" d="M639.7,162.1v25.9h30.5v-0.8c0-1-0.4-1.9-1.2-2.5l0,0l-21-12.1c-1.2-0.8-1.9-2-1.9-3.3v-1.4
						c0-0.9-2.4-1.2-3-1.9l0,0c-0.7-0.9,0.3-3.3-0.9-3.5L639.7,162.1z"/>
				</g>
			</g>
		</g>
		<g>
			<g>
				<g>
					<path style="fill:#85A7AF;" d="M609.2,187.8c-0.2,2,12,3.5,30.5,3.5c16.8,0,30.5-1.6,30.5-3.5c0-2-13.7-3.5-30.5-3.5
						S609.4,185.9,609.2,187.8z"/>
				</g>
			</g>
		</g>
	</g>
</g>
<g id="Mesa">
	<g>
		<g>
			<g>
				<rect x="640" y="389.9" style="fill:#AEC5CA;" width="8" height="92"/>
				<rect x="644" y="389.9" style="opacity:0.3;fill:#AEC5CA;" width="4" height="92"/>
			</g>
			<g>
				<path style="fill:#AEC5CA;" d="M677,483.4c0-0.8-0.7-1.5-1.5-1.5h-64.9c-0.8,0-1.5,0.7-1.5,1.5v0.9c0,0.8,0.7,1.5,1.5,1.5h64.9
					c0.8,0,1.5-0.7,1.5-1.5V483.4z"/>
				<path style="opacity:0.5;fill:#AEC5CA;" d="M676.1,481.9H644v3h32.1c0.8,0,1.5-0.7,1.5-1.5C677.6,482.5,677,481.9,676.1,481.9z"
					/>
			</g>
			<g>
				<path style="fill:#897558;" d="M714,388c0-1.4-0.9-2.1-2.3-2.1H576.2c-1.3,0-2.2,0.7-2.2,2.1v0.1c0,1.4,0.9,2.8,2.2,2.8h135.5
					C713.1,390.9,714,389.5,714,388L714,388z"/>
				<path style="fill:#897558;" d="M714,388c0-1.4-0.9-2.1-2.3-2.1H576.2c-1.3,0-2.2,0.7-2.2,2.1v0.1c0,1.4,0.9,2.8,2.2,2.8h135.5
					C713.1,390.9,714,389.5,714,388L714,388z"/>
				<path style="opacity:0.25;fill:#897558;" d="M576.9,389L576.9,389c0,0.6,0.2,1.1,0.5,1.6h134.4c1.3,0,0.7-1.1,0.7-2.5
					c0,0-0.1-0.4-1.2-0.4h-132C578,387.7,576.9,387.6,576.9,389z"/>
			</g>
		</g>
		<g>
			<g>
				<g>
					<g>
						<path style="fill:#9FD1C9;" d="M584,474.8c0,0.2,0.1,0.4,0.3,0.4l7.9,0.8c0.2,0,0.4-0.1,0.3-0.4l-0.6-4.6
							c0-0.2-0.2-0.4-0.5-0.4h-6.6c-0.2,0-0.4,0.2-0.4,0.4L584,474.8z"/>
					</g>
					<path style="fill:#3C3541;" d="M582.7,473.6l-1.4,8.7h31.6c0,0,0.3-5.2-4-5.7c-11.1-1-15.2-6.1-15.2-6.1s-2.6,3-5.8,3.1
						C584.6,473.6,582.7,473.6,582.7,473.6z"/>
					<rect x="581.3" y="482.3" style="fill:#4C4452;" width="31.6" height="3.6"/>
					<g>
						<path style="fill:#7F6C50;" d="M596.6,475.7c-0.1,0.2,0,0.4,0.2,0.5l0.4,0.2c0.2,0.1,0.4,0,0.5-0.2l1-2.1
							c0.1-0.2,0-0.4-0.2-0.5l-0.4-0.2c-0.2-0.1-0.4,0-0.5,0.2L596.6,475.7z"/>
					</g>
					<g>
						<path style="fill:#7F6C50;" d="M594.1,474.1c-0.1,0.2-0.1,0.4,0.1,0.6l0.4,0.3c0.2,0.1,0.4,0.1,0.5-0.1l1.3-1.9
							c0.1-0.2,0.1-0.4-0.1-0.6l-0.4-0.3c-0.2-0.1-0.4-0.1-0.5,0.1L594.1,474.1z"/>
					</g>
					<g>
						<path style="fill:#7F6C50;" d="M599.4,477c-0.1,0.2,0,0.4,0.2,0.5l0.4,0.2c0.2,0.1,0.4,0,0.5-0.2l0.8-2.2
							c0.1-0.2,0-0.4-0.2-0.5l-0.4-0.2c-0.2-0.1-0.4,0-0.5,0.2L599.4,477z"/>
					</g>
					<g>
						<path style="fill:#7F6C50;" d="M602.2,477.9c0,0.2,0.1,0.4,0.3,0.5l0.4,0.1c0.2,0.1,0.4-0.1,0.5-0.3l0.5-2.3
							c0-0.2-0.1-0.4-0.3-0.5l-0.4-0.1c-0.2-0.1-0.4,0.1-0.5,0.3L602.2,477.9z"/>
					</g>
				</g>
			</g>
		</g>
	</g>
</g>
</svg>
