<?xml version="1.0" encoding="utf-8"?>
<!-- Generator: Adobe Illustrator 16.0.0, SVG Export Plug-In . SVG Version: 6.00 Build 0)  -->
<!DOCTYPE svg PUBLIC "-//W3C//DTD SVG 1.1//EN" "http://www.w3.org/Graphics/SVG/1.1/DTD/svg11.dtd">
<svg version="1.1" id="Back_to_Top" xmlns="http://www.w3.org/2000/svg" xmlns:xlink="http://www.w3.org/1999/xlink" x="0px"
	 y="0px" width="1280px" height="102px" viewBox="0 0 1280 102" enable-background="new 0 0 1280 102" xml:space="preserve">
<g>
	<g>
		<path fill="#585858" d="M630.71,39.692l6.062-6.002v16.576c0,0.336,0.273,0.607,0.609,0.607c0.334,0,0.607-0.271,0.607-0.607
			V33.702l6.047,5.99c0.119,0.117,0.275,0.176,0.43,0.176c0.156,0,0.314-0.061,0.432-0.18c0.236-0.24,0.234-0.625-0.006-0.859
			l-7.089-7.023c-0.236-0.234-0.62-0.234-0.854,0l-7.092,7.023c-0.24,0.234-0.242,0.619-0.008,0.859
			C630.087,39.927,630.472,39.929,630.71,39.692z"/>
	</g>
</g>
<g>
	<g>
		<g>
			<circle fill="#5BA4C2" cx="637.374" cy="41.473" r="16.355"/>
			<path fill="#7BB6CE" d="M637.375,57.827L637.375,57.827c-9.033,0-16.356-7.323-16.356-16.354c0-9.033,7.323-16.356,16.356-16.356
				l0,0V57.827z"/>
		</g>
		<path fill="#E1D7C5" d="M630.71,39.912l6.062-6.002v16.576c0,0.336,0.273,0.607,0.609,0.607c0.335,0,0.607-0.271,0.607-0.607
			V33.922l6.048,5.99c0.118,0.117,0.274,0.176,0.429,0.176c0.156,0,0.314-0.06,0.433-0.18c0.236-0.239,0.233-0.624-0.007-0.859
			l-7.089-7.022c-0.237-0.235-0.619-0.235-0.854,0l-7.092,7.022c-0.239,0.235-0.241,0.62-0.007,0.859
			C630.086,40.146,630.472,40.149,630.71,39.912z"/>
	</g>
	<g>
		<text transform="matrix(1 0 0 1 599.0996 76.6328)"><tspan x="0" y="0" fill="#5BA4C2" font-family="'LoveloBlack'" font-size="12">BACK TO</tspan><tspan x="49.896" y="0" fill="#5BA4C2" font-family="'LoveloBlack'" font-size="12"> </tspan><tspan x="52.583" y="0" fill="#5BA4C2" font-family="'LoveloBlack'" font-size="12">TOP</tspan></text>
	</g>
</g>
</svg>
