<?xml version="1.0" encoding="utf-8"?>
<!-- Generator: Adobe Illustrator 16.0.0, SVG Export Plug-In . SVG Version: 6.00 Build 0)  -->
<!DOCTYPE svg PUBLIC "-//W3C//DTD SVG 1.1//EN" "http://www.w3.org/Graphics/SVG/1.1/DTD/svg11.dtd">
<svg version="1.1" xmlns="http://www.w3.org/2000/svg" xmlns:xlink="http://www.w3.org/1999/xlink" x="0px" y="0px" width="1280px"
	 height="700px" viewBox="0 0 1280 700" enable-background="new 0 0 1280 700" xml:space="preserve">
<g id="Globa">
	<g>
		<g>
			<g>
				<path fill="#72ADC8" d="M505.632,127c-1.65,0-3,1.35-3,3v184.336c0,1.65,1.35,2.998,3,2.995l119.484-0.178
					c1.65-0.003,3.959,0.945,5.132,2.105l6.989,6.916c1.173,1.16,3.085,1.154,4.25-0.014l7.016-7.037
					c1.165-1.168,3.468-2.124,5.118-2.124h123.01c1.65,0,3-1.35,3-3V130c0-1.65-1.35-3-3-3H505.632z M520.467,145.456
					c-2.761,0-5-2.238-5-5s2.239-5,5-5s5,2.238,5,5S523.228,145.456,520.467,145.456z M758.467,145.456c-2.761,0-5-2.238-5-5
					s2.239-5,5-5s5,2.238,5,5S761.228,145.456,758.467,145.456z"/>
			</g>
		</g>
		<path opacity="0.2" fill="#F5E5E5" d="M639,127H505.632c-1.65,0-2.632,1.35-2.632,3v184.336c0,1.65,1.166,2.998,2.816,2.995
			l119.392-0.178c1.651-0.003,3.914,0.945,5.087,2.105l7.149,6.916c0.398,0.394,0.556,0.642,1.556,0.768V127z M520.467,145.456
			c-2.761,0-5-2.238-5-5s2.239-5,5-5s5,2.238,5,5S523.228,145.456,520.467,145.456z"/>
	</g>
</g>
<g id="Texto">
	<g>
		<g>
			<text transform="matrix(1 0 0 1 554.791 190.5488)"><tspan x="0" y="0" fill="#E2D4D5" font-family="'NeoSansStd-Medium'" font-size="16.8">Beber buena cantidad</tspan><tspan x="-20.319" y="25.6" fill="#E2D4D5" font-family="'NeoSansStd-Medium'" font-size="16.8">de agua antes de la comida</tspan><tspan x="-29.996" y="51.2" fill="#E2D4D5" font-family="'NeoSansStd-Medium'" font-size="16.8">se asocia a la pérdida de peso</tspan><tspan x="-0.772" y="76.8" fill="#E2D4D5" font-family="'NeoSansStd-Medium'" font-size="16.8">en adultos y en chicos</tspan></text>
		</g>
		<g>
			<g>
				<g>
					<g>
						<path fill="#E2D4D5" d="M530.527,190.014c2.408,0,4.311-1.951,4.311-4.359c0-2.409-1.978-4.363-4.386-4.363
							c-0.023,0-0.06,0.005-0.084,0.005c0.951-0.757,2.146-1.214,3.457-1.214c0.602,0,1.086-0.488,1.086-1.091
							c0-0.602-0.387-1.09-0.99-1.09c-4.275,0-7.651,3.478-7.651,7.753v0.001C526.27,188.062,528.12,190.014,530.527,190.014
							L530.527,190.014z"/>
						<path fill="#E2D4D5" d="M540.741,190.014c2.408,0,4.314-1.951,4.314-4.359c0-2.409-1.979-4.363-4.387-4.363
							c-0.023,0-0.06,0.005-0.084,0.005c0.954-0.757,2.151-1.214,3.46-1.214c0.601,0,1.087-0.488,1.087-1.091
							c0-0.602-0.394-1.09-0.997-1.09c-4.274,0-7.657,3.478-7.657,7.753v0.001C536.478,188.062,538.334,190.014,540.741,190.014
							L540.741,190.014z"/>
					</g>
				</g>
				<g>
					<g>
						<path fill="#E2D4D5" d="M751.334,255.479c-2.408,0-4.309,1.953-4.309,4.36c0,2.409,1.978,4.361,4.386,4.361
							c0.023,0,0.061-0.003,0.084-0.003c-0.951,0.757-2.147,1.215-3.457,1.215c-0.602,0-1.086,0.487-1.086,1.09
							s0.386,1.09,0.99,1.09c4.274,0,7.651-3.479,7.651-7.753v-0.003C755.594,257.433,753.741,255.479,751.334,255.479
							L751.334,255.479z"/>
						<path fill="#E2D4D5" d="M741.122,255.479c-2.407,0-4.314,1.953-4.314,4.36c0,2.409,1.978,4.361,4.387,4.361
							c0.023,0,0.06-0.003,0.083-0.003c-0.953,0.757-2.149,1.215-3.459,1.215c-0.603,0-1.086,0.487-1.086,1.09
							s0.393,1.09,0.997,1.09c4.273,0,7.656-3.479,7.656-7.753v-0.003C745.386,257.433,743.528,255.479,741.122,255.479
							L741.122,255.479z"/>
					</g>
				</g>
			</g>
		</g>
	</g>
</g>
<g id="Hilos">
	<line fill="none" stroke="#FFFFFF" stroke-miterlimit="10" x1="519.92" y1="140.456" x2="519.92" y2="0"/>
	<line fill="none" stroke="#FFFFFF" stroke-miterlimit="10" x1="757.92" y1="140.456" x2="757.92" y2="0"/>
</g>
</svg>
