<?xml version="1.0" encoding="utf-8"?>
<!-- Generator: Adobe Illustrator 16.0.0, SVG Export Plug-In . SVG Version: 6.00 Build 0)  -->
<!DOCTYPE svg PUBLIC "-//W3C//DTD SVG 1.1//EN" "http://www.w3.org/Graphics/SVG/1.1/DTD/svg11.dtd">
<svg version="1.1" id="cerebro" xmlns="http://www.w3.org/2000/svg" xmlns:xlink="http://www.w3.org/1999/xlink" x="0px" y="0px"
	 width="1280px" height="700px" viewBox="0 0 1280 700" style="enable-background:new 0 0 1280 700;" xml:space="preserve">
<g>
	<path style="fill:#C3E1D5;" d="M634.8,204.5c1,15.7,14,28.1,29.9,28.1s29-12.5,29.9-28.1c0-0.6,0.1-1.2,0.1-1.9
		c0-16.5-13.5-30-30-30c-16.5,0-30,13.5-30,30C634.8,203.2,634.8,203.9,634.8,204.5z"/>
	<g>
		<defs>
			<path id="SVGID_1_" d="M634.8,204.5c1,15.7,14,28.1,29.9,28.1s29-12.5,29.9-28.1c0-0.6,0.1-1.2,0.1-1.9c0-16.5-13.5-30-30-30
				c-16.5,0-30,13.5-30,30C634.8,203.2,634.8,203.9,634.8,204.5z"/>
		</defs>
		<clipPath id="SVGID_2_">
			<use xlink:href="#SVGID_1_"  style="overflow:visible;"/>
		</clipPath>
		<g style="clip-path:url(#SVGID_2_);">
			<g>
				<g>
					<path style="fill:#F9AD95;" d="M649.1,205c0-2,1-3.7,2.5-4.8c-0.1-0.4-0.2-0.9-0.2-1.4c0-3,2.3-5.5,5.2-5.8
						c0.1-3.2,2.7-5.7,5.9-5.7c0.8,0,1.5,0.2,2.2,0.4c0.7-2.4,3-4.2,5.6-4.2c1.4,0,2.7,0.5,3.8,1.4c1-1.7,2.9-2.8,5-2.8
						c2,0,3.8,1,4.8,2.5c1-0.7,2.1-1.1,3.4-1.1c2.7,0,5,1.9,5.7,4.4c0.8-0.4,1.7-0.7,2.7-0.7c3.3,0,5.9,2.6,5.9,5.9
						c0,0.1,0,0.1,0,0.2c3.1,0.2,5.5,2.7,5.5,5.9c0,0.9-0.2,1.7-0.6,2.5c1.2,1.1,2,2.7,2,4.4c0,3.3-2.7,5.9-5.9,5.9
						c-0.1,0-0.1,0-0.2,0c-0.9,2.1-3,3.6-5.5,3.6c-1.9,0-3.5-0.9-4.6-2.2c-1.1,1.3-2.7,2.2-4.6,2.2s-3.5-0.9-4.6-2.2
						c-1.1,1.3-2.7,2.2-4.6,2.2c-1.9,0-3.5-0.9-4.6-2.2c-1.1,1.3-2.7,2.2-4.6,2.2c-1.9,0-3.5-0.9-4.6-2.2c-1.1,1.3-2.7,2.2-4.6,2.2
						c-2.9,0-5.3-2.1-5.8-4.8C651.5,210.6,649.1,208.1,649.1,205z"/>
				</g>
			</g>
			<path style="opacity:0.35;fill:#F9AD95;" d="M651.6,200.2c-0.1-0.4-0.2-0.9-0.2-1.4c0-3,2.3-5.5,5.2-5.8c0.1-3.2,2.7-5.7,5.9-5.7
				c0.8,0,1.5,0.2,2.2,0.4c0.7-2.4,3-4.2,5.6-4.2c1.4,0,2.7,0.5,3.8,1.4c1-1.7,3-2.8,5.1-2.8c0.1,0,0.4,0,0.4,0v33.5
				c0,0-0.6,0.1-0.8,0.1c-1.9,0-3.5-0.9-4.6-2.2c-1.1,1.3-2.7,2.2-4.6,2.2c-1.9,0-3.5-0.9-4.6-2.2c-1.1,1.3-2.7,2.2-4.6,2.2
				c-2.9,0-5.3-2.1-5.8-4.8c-3-0.2-5.5-2.8-5.5-5.9C649.1,203,650.1,201.3,651.6,200.2z"/>
			<g>
				<path style="fill:#E05D38;" d="M677.2,194.6c-0.1,0.4-0.4,0.7-0.8,0.7c-0.1,0-0.1,0-0.2,0c-0.5-0.1-0.8-0.5-0.7-1
					c0.3-1.4,1.6-4,4.8-4c2,0,3.2,1,4,2.1c0.7-1.1,2-2.1,4-2.1c3.1,0,4.5,2.6,4.8,4c0.1,0.5-0.2,0.9-0.7,1c-0.5,0.1-0.9-0.2-1-0.7
					c0-0.1-0.5-2.6-3.1-2.6c-2.5,0-3,2.3-3.1,2.6c-0.1,0.4-0.4,0.7-0.8,0.7c-0.1,0-0.1,0-0.2,0c0,0,0,0,0,0c-0.4,0-0.7-0.3-0.8-0.7
					c-0.1-0.3-0.6-2.6-3.1-2.6C677.8,192.1,677.2,194.4,677.2,194.6z"/>
				<path style="fill:#E05D38;" d="M669.2,198.2c3,0,4.4,2.8,4.7,3.8c0,0,0,0,0,0c3.1,0,4.5,2.6,4.8,4c0.1,0.5-0.2,0.9-0.7,1
					c-0.5,0.1-0.9-0.2-1-0.7c0-0.1-0.5-2.6-3.1-2.6c-2.5,0-3,2.3-3.1,2.6c-0.1,0.4-0.4,0.7-0.8,0.7c-0.1,0-0.1,0-0.2,0
					c-0.5-0.1-0.8-0.5-0.7-1c0.2-1.1,1.1-2.9,3.1-3.6c-0.2-0.6-0.8-2.4-3-2.4c-2.5,0-3,2.3-3.1,2.6c-0.1,0.4-0.4,0.7-0.8,0.7
					c-0.1,0-0.1,0-0.2,0c-0.5-0.1-0.8-0.6-0.7-1C664.7,200.8,666,198.2,669.2,198.2z"/>
			</g>
		</g>
		
			<path style="clip-path:url(#SVGID_2_);fill:none;stroke:#5BA4C2;stroke-width:3;stroke-linecap:round;stroke-linejoin:round;stroke-miterlimit:10;" d="
			M617.6,668.5h37.3h9.9h39.3v-22.4V498.9c5-2.6,10.5-7.2,10.5-15.4c0,0-0.7-86.5-0.5-131.8l7.2,65.6l0.1,72.2c-1,0.5-2,1.1-2.7,1.9
			c-1.3,0.3-2.5,1-3.5,2l-3.4,3.4c-1.2,1.2-1.9,3-1.9,4.7l0,5.3c0,1.4,1.1,2.7,2.5,2.7l0.1,0.3c1.4,0,2.5-0.6,2.5-2l0-3.3h1l0,2.1
			l0-1l0,15.5c0,1.6,1.3,3.1,3,3.1l0.1,0.3c1.6,0,3-0.8,3-2.5l0-14.4h0.7l0,17.3c0,1.4,1.1,2.7,2.4,2.7h0c1.4,0,2.5-1.4,2.5-2.7
			l0-17.3h0.8l0,15.7c0,1.4,1.1,1.5,2.5,1.6l0,0.3c1.4,0,2.5-0.6,2.5-1.9l0-15.5h0.6l0,11.6c0,1.6,1.3,1.9,3,1.9l0.1,0
			c1.6,0,2.1-1.3,2.1-3l0-12.6l0-7.5c0-3.6-1.6-6.8-4.4-8.3l-0.1-74.4c0-0.6-0.1-1.1-0.3-1.7l-10.5-94.7c-0.3-2.8-3.2-4.6-6-4.3
			l-1.7,0.2c-1.4,0.2-2.8,0.8-3.8,1.7c-4.3-9.1-15.3-15.5-25.6-17.3l0-11.7c10.7-3.4,18.5-13.4,18.5-25.2l0-4.8c0.3,0,0.6,0,0.9,0
			c7.7,0,13.9-6.2,13.9-13.9c0-6-3.8-11.1-9.1-13c5.3-1.9,9.1-7,9.1-13c0-2.3-0.6-4.4-1.5-6.3c3.9-2.3,6.6-6.9,6.6-11.7
			c0-6.7-5.1-12.1-11.4-12.1c-1.1,0-2.2,0.3-3.2,0.6c0.6-1.5,0.9-3,0.9-4.7c0-0.4,0-0.4-0.1-0.8c-0.6-6.8-5.9-10.2-12.4-10.2
			c-3.1,0-6,0-6,0s-1.8-11.7-14.2-11.7c-13.4,0-14.2,11.7-14.2,11.7s-2.9,0-6,0c-6.5,0-11.9,3.4-12.4,10.2c0,0.4-0.1,0-0.1,0.4
			c0,1.7,0.3,3.4,0.9,4.9c-1-0.3-2.1-0.5-3.2-0.5c-6.3,0-11.4,5.5-11.4,12.2c0,4.8,2.8,9.4,6.6,11.7c-1,1.9-1.5,4-1.5,6.3
			c0,6,3.8,11.1,9.1,13c-5.3,1.9-9.1,7-9.1,13c0,7.7,6.2,13.9,13.9,13.9c0.3,0,0.6,0,1,0l0,4.7c0,11.5,7.3,21.3,17.6,25l0,12.5
			c-9.5,2.3-19.1,8.4-23.2,16.7c-1-0.8-2.2-1.4-3.5-1.5l-1.7-0.2c-2.8-0.3-5.7,1.4-6,4.3l-10.5,94.8c-0.2,0.5-0.3,1.1-0.3,1.7
			l-0.1,73.8c-3.5,1.2-5.6,4.7-5.6,8.9l0,7.5l0,12.7c0,1.6,0.4,3.1,2.1,3.1l0.1,0.3c1.6,0,3-0.8,3-2.5l0-11.6h0.6l0,15.7
			c0,1.4,1.1,1.6,2.4,1.6l0,0.3c1.4,0,2.5-0.6,2.5-1.9l0-15.6h0.8l0,17.3c0,1.3,1.1,2.7,2.4,2.7h0c1.4,0,2.5-1.4,2.4-2.7l0-17.3h0.7
			l0,14.4c0,1.6,1.3,2,3,2l0.1,0.1c1.6,0,3-1.2,3-2.8l0-15.1l0,0.5l0-2.1h1l0,3.3c0,1.4,1.1,1.4,2.5,1.4l0.1,0
			c1.4,0,2.5-1.1,2.5-2.5l0-5.3c0-1.7-0.7-3.4-1.9-4.7l-3.4-3.4c-1-1-2.2-1.6-3.5-2c-0.5-0.5-0.9-0.9-1.5-1.2l0.2-72.9l6.8-60.2
			c0,45.8,0.4,122.7,0.4,124.3c0,7.5,4,12.4,9,15.5v154.8c-1,2.9-11,3.7-29.2,5.4C616,658,617.6,668.5,617.6,668.5z M665.1,655.9
			v-9.9V500.9c4,0.7,9.8,1,14.8,1c3.9,0,7.2-0.1,12.2-0.5v150.3C688.1,654.4,681.1,654.5,665.1,655.9z"/>
	</g>
</g>
</svg>
