<?xml version="1.0" encoding="utf-8"?>
<!-- Generator: Adobe Illustrator 16.0.0, SVG Export Plug-In . SVG Version: 6.00 Build 0)  -->
<!DOCTYPE svg PUBLIC "-//W3C//DTD SVG 1.1//EN" "http://www.w3.org/Graphics/SVG/1.1/DTD/svg11.dtd">
<svg version="1.1" xmlns="http://www.w3.org/2000/svg" xmlns:xlink="http://www.w3.org/1999/xlink" x="0px" y="0px" width="52.8px"
	 height="52.8px" viewBox="0 0 52.8 52.8" style="enable-background:new 0 0 52.8 52.8;" xml:space="preserve">
<g id="clock">
	<g>
		<g>
			<g>
				<g style="opacity:0.15;">
					<circle style="fill:#918C96;" cx="28.8" cy="28.6" r="23"/>
				</g>
				<g>
					<circle style="fill:#4D4553;" cx="24.2" cy="24" r="23"/>
				</g>
				<g>
					<path style="fill:#595959;" d="M1.2,24c0,12.7,10.3,23,23,23V1C11.5,1,1.2,11.3,1.2,24z"/>
				</g>
			</g>
			<g>
				<circle style="fill:#F4E4E4;" cx="24.2" cy="24" r="21.4"/>
			</g>
		</g>
		<g>
			<g>
				<g>
					<circle style="fill:#D1E1DC;" cx="24.2" cy="24" r="20.4"/>
				</g>
				<g style="opacity:0.5;">
					<path style="fill:#F4E4E4;" d="M9.9,9.7c-8,8-8,20.9,0,28.8L38.7,9.7C30.8,1.7,17.9,1.7,9.9,9.7z"/>
				</g>
			</g>
			<g>
				<g>
					<path style="fill:#595959;" d="M22.6,8l-0.4,0.1c0,0-0.1,0-0.1,0c-0.2,0-0.3-0.1-0.3-0.3c0-0.1,0.1-0.2,0.2-0.3l0.5-0.2
						c0.1,0,0.2-0.1,0.3-0.1h0c0.2,0,0.3,0.1,0.3,0.3v3.1c0,0.2-0.1,0.3-0.3,0.3c-0.2,0-0.3-0.1-0.3-0.3V8z"/>
					<path style="fill:#595959;" d="M24.1,10.4l1.1-0.9c0.5-0.4,0.7-0.7,0.7-1c0-0.4-0.3-0.6-0.6-0.6c-0.3,0-0.5,0.1-0.7,0.4
						c0,0.1-0.1,0.1-0.2,0.1c-0.2,0-0.3-0.1-0.3-0.3c0-0.1,0-0.1,0.1-0.2c0.3-0.4,0.6-0.6,1.2-0.6c0.7,0,1.2,0.4,1.2,1.1v0
						c0,0.6-0.3,0.9-0.9,1.4l-0.7,0.6h1.5c0.2,0,0.3,0.1,0.3,0.3c0,0.2-0.1,0.3-0.3,0.3h-2c-0.2,0-0.3-0.1-0.3-0.3
						C23.9,10.6,24,10.5,24.1,10.4z"/>
				</g>
				<g>
					<path style="fill:#595959;" d="M38.3,25.4c-0.1,0-0.1-0.1-0.1-0.2c0-0.2,0.1-0.3,0.3-0.3c0.1,0,0.2,0,0.2,0.1
						c0.2,0.2,0.5,0.3,0.8,0.3c0.4,0,0.6-0.2,0.6-0.5v0c0-0.4-0.3-0.6-0.8-0.6h-0.1c-0.2,0-0.3-0.1-0.3-0.3c0-0.1,0-0.2,0.1-0.3
						l0.8-0.9h-1.3c-0.2,0-0.3-0.1-0.3-0.3c0-0.2,0.1-0.3,0.3-0.3h1.8c0.2,0,0.3,0.1,0.3,0.3c0,0.1-0.1,0.2-0.2,0.3l-0.9,0.9
						c0.5,0.1,1.1,0.3,1.1,1v0c0,0.7-0.5,1.1-1.3,1.1C39,25.9,38.6,25.7,38.3,25.4z"/>
				</g>
				<g>
					<path style="fill:#595959;" d="M23.2,40.4c-0.3-0.3-0.4-0.6-0.4-1.4v0c0-1.1,0.5-2,1.5-2c0.4,0,0.7,0.1,0.9,0.3
						c0.1,0.1,0.2,0.1,0.2,0.3c0,0.2-0.1,0.3-0.3,0.3c-0.1,0-0.1,0-0.2,0c-0.2-0.1-0.4-0.2-0.6-0.2c-0.5,0-0.8,0.5-0.9,1.1
						c0.2-0.2,0.4-0.4,0.9-0.4c0.7,0,1.3,0.4,1.3,1.1v0c0,0.7-0.6,1.2-1.3,1.2C23.8,40.7,23.5,40.6,23.2,40.4z M24.9,39.5L24.9,39.5
						c0-0.4-0.3-0.6-0.7-0.6c-0.4,0-0.7,0.3-0.7,0.6v0c0,0.4,0.3,0.6,0.7,0.6C24.7,40.2,24.9,39.9,24.9,39.5z"/>
				</g>
				<g>
					<path style="fill:#595959;" d="M7.6,25.6c-0.1-0.1-0.1-0.1-0.1-0.3c0-0.2,0.1-0.3,0.3-0.3c0.1,0,0.1,0,0.2,0.1
						c0.2,0.1,0.4,0.2,0.7,0.2c0.5,0,0.9-0.5,0.9-1.1c-0.2,0.2-0.5,0.4-0.8,0.4c-0.8,0-1.3-0.5-1.3-1.1v0c0-0.7,0.5-1.2,1.3-1.2
						c0.5,0,0.8,0.1,1,0.4c0.3,0.3,0.4,0.7,0.4,1.4v0c0,1.2-0.6,2-1.5,2C8.2,25.9,7.9,25.8,7.6,25.6z M9.5,23.4L9.5,23.4
						c0-0.4-0.3-0.7-0.8-0.7C8.3,22.7,8,23,8,23.4v0c0,0.4,0.3,0.6,0.7,0.6C9.2,24.1,9.5,23.8,9.5,23.4z"/>
				</g>
				<path style="fill:#595959;" d="M6.2,24c0,0.2-0.1,0.3-0.3,0.3H4.8c-0.2,0-0.3-0.1-0.3-0.3V24c0-0.2,0.1-0.3,0.3-0.3h1.1
					C6.1,23.7,6.2,23.8,6.2,24L6.2,24z"/>
				<path style="fill:#595959;" d="M24.6,6c0,0.1-0.1,0.2-0.3,0.2h-0.1c-0.2,0-0.3-0.1-0.3-0.2V4.9c0-0.1,0.1-0.2,0.3-0.2h0.1
					c0.2,0,0.3,0.1,0.3,0.2V6z"/>
				<path style="fill:#595959;" d="M43.6,24c0,0.2-0.1,0.3-0.3,0.3h-1.1c-0.2,0-0.3-0.1-0.3-0.3V24c0-0.2,0.1-0.3,0.3-0.3h1.1
					C43.5,23.7,43.6,23.8,43.6,24L43.6,24z"/>
				<path style="fill:#595959;" d="M24.6,43.4c0,0.2-0.1,0.3-0.3,0.3h-0.1c-0.2,0-0.3-0.1-0.3-0.3v-1.1c0-0.2,0.1-0.3,0.3-0.3h0.1
					c0.2,0,0.3,0.1,0.3,0.3V43.4z"/>
				<g>
					<path style="fill:#595959;" d="M14.5,40.3c-0.1,0.1,0,0.3,0.1,0.4l0,0c0.1,0.1,0.3,0,0.4-0.1l0.4-0.6c0.1-0.1,0-0.3-0.1-0.4
						l0,0c-0.1-0.1-0.3,0-0.4,0.1L14.5,40.3z"/>
					<path style="fill:#595959;" d="M7.7,33.2c-0.1,0.1-0.2,0.2-0.1,0.3l0,0c0.1,0.1,0.2,0.2,0.3,0.1l0.7-0.4
						c0.1-0.1,0.2-0.2,0.1-0.3l0,0c-0.1-0.1-0.2-0.2-0.3-0.1L7.7,33.2z"/>
					<path style="fill:#595959;" d="M7.9,14.2c-0.1-0.1-0.3,0-0.4,0.1l0,0c-0.1,0.1,0,0.3,0.1,0.4l0.6,0.4c0.1,0.1,0.3,0,0.4-0.1
						l0,0c0.1-0.1,0-0.3-0.1-0.4L7.9,14.2z"/>
					<path style="fill:#595959;" d="M15,7.4c-0.1-0.1-0.2-0.2-0.3-0.1l0,0c-0.1,0.1-0.2,0.2-0.1,0.3l0.4,0.7
						c0.1,0.1,0.2,0.2,0.3,0.1l0,0c0.1-0.1,0.2-0.2,0.1-0.4L15,7.4z"/>
					<path style="fill:#595959;" d="M34,7.8c0.1-0.1,0-0.3-0.1-0.4l0,0c-0.1-0.1-0.3,0-0.4,0.1l-0.4,0.6c-0.1,0.1,0,0.3,0.1,0.4l0,0
						c0.1,0.1,0.3,0,0.4-0.1L34,7.8z"/>
					<path style="fill:#595959;" d="M40.8,14.8c0.1-0.1,0.2-0.2,0.1-0.3l0,0c-0.1-0.1-0.2-0.2-0.4-0.1l-0.7,0.4
						c-0.1,0.1-0.2,0.2-0.1,0.4l0,0c0.1,0.1,0.2,0.2,0.3,0.1L40.8,14.8z"/>
					<path style="fill:#595959;" d="M40.5,33.8c0.1,0.1,0.3,0,0.4-0.1l0,0c0.1-0.1,0-0.3-0.1-0.4l-0.6-0.4c-0.1-0.1-0.3,0-0.4,0.1
						l0,0c-0.1,0.1,0,0.3,0.1,0.4L40.5,33.8z"/>
					<path style="fill:#595959;" d="M33.5,40.6c0.1,0.1,0.2,0.2,0.3,0.1l0,0c0.1-0.1,0.2-0.2,0.1-0.3l-0.4-0.7
						c-0.1-0.1-0.2-0.2-0.3-0.1l0,0c-0.1,0.1-0.2,0.2-0.1,0.4L33.5,40.6z"/>
				</g>
			</g>
		</g>
	</g>
</g>
<g id="seconds">
	<rect x="23.8" y="2.6" style="fill:#CD6670;" width="0.5" height="19.5"/>
</g>
<g id="hours">
	
		<rect x="22.8" y="26.9" transform="matrix(-0.7089 -0.7053 0.7053 -0.7089 27.6752 66.1068)" style="fill:#595959;" width="9.5" height="0.9"/>
</g>
<g id="minutes">
	
		<rect x="23.9" y="23.5" transform="matrix(-1 -6.233771e-04 6.233771e-04 -1 61.8971 48.0193)" style="fill:#595959;" width="14.1" height="0.9"/>
</g>
<g id="circle">
	<circle style="fill:#595959;" cx="24.1" cy="24" r="1.8"/>
</g>
</svg>
