<?xml version="1.0" encoding="utf-8"?>
<!-- Generator: Adobe Illustrator 16.0.0, SVG Export Plug-In . SVG Version: 6.00 Build 0)  -->
<!DOCTYPE svg PUBLIC "-//W3C//DTD SVG 1.1//EN" "http://www.w3.org/Graphics/SVG/1.1/DTD/svg11.dtd">
<svg version="1.1" xmlns="http://www.w3.org/2000/svg" xmlns:xlink="http://www.w3.org/1999/xlink" x="0px" y="0px" width="1280px"
	 height="700px" viewBox="0 0 1280 700" enable-background="new 0 0 1280 700" xml:space="preserve">
<g id="Miscelaneas">
	<g>
		<g>
			<g>
				<path fill="none" stroke="#5BA4C2" stroke-width="0.75" stroke-miterlimit="10" d="M786.671,111.752
					c0-3.376-0.331-6.255-0.331-10.017c0-3.598,0.941-5.368,3.32-6.031v-0.222c-2.379-0.665-3.32-2.49-3.32-6.032
					c0-3.763,0.331-9.641,0.331-13.016c0-3.597-0.774-5.035-3.763-5.035c0,0-136.262,0-138.926,0s-3.666-0.98-3.666-4.066"/>
			</g>
			<g>
				<path fill="none" stroke="#5BA4C2" stroke-width="0.75" stroke-miterlimit="10" d="M640.313,67.333
					c0,3.086-1.002,4.066-3.666,4.066s-140.864,0-140.864,0c-2.988,0-3.763,1.438-3.763,5.035c0,3.375,0.331,9.253,0.331,13.016
					c0,3.542-0.941,5.367-3.32,6.032v0.222c2.379,0.663,3.32,2.434,3.32,6.031c0,3.762-0.331,6.641-0.331,10.017"/>
			</g>
		</g>
	</g>
</g>
<g id="Texto">
	<g>
		<text transform="matrix(1 0 0 1 510.9404 104.8613)"><tspan x="0" y="0" fill="#5BA4C2" font-family="'NeoSansStd-Medium'" font-size="14">¿Tomarias </tspan><tspan x="68.823" y="0" fill="#AAE0DE" font-family="'NeoSansStd-Bold'" font-size="16">12 cucharadas de Azucar</tspan><tspan x="63.05" y="18" fill="#5BA4C2" font-family="'NeoSansStd-Medium'" font-size="14">para quitarte la sed?</tspan></text>
	</g>
</g>
</svg>
