<?xml version="1.0" encoding="utf-8"?>
<!-- Generator: Adobe Illustrator 16.0.0, SVG Export Plug-In . SVG Version: 6.00 Build 0)  -->
<!DOCTYPE svg PUBLIC "-//W3C//DTD SVG 1.1//EN" "http://www.w3.org/Graphics/SVG/1.1/DTD/svg11.dtd">
<svg version="1.1" xmlns="http://www.w3.org/2000/svg" xmlns:xlink="http://www.w3.org/1999/xlink" x="0px" y="0px" width="1280px"
	 height="700px" viewBox="0 0 1280 700" enable-background="new 0 0 1280 700" xml:space="preserve">
<g id="Estomago">
	<g>
		<g>
			<g>
				<g>
					<g>
						<g>
							<path fill="#7F6C50" d="M686.336,549.741c-16.612,0-30.379-4.793-41.028-14.305c-19.284-17.228-19.838-42.701-19.838-45.547
								h29.435h-14.717l14.717-0.112c0.004,0.152,0.355,15.22,10.157,23.833c6.353,5.588,16.032,7.687,28.774,6.249l3.302,29.249
								C693.415,549.528,689.811,549.741,686.336,549.741z"/>
						</g>
						<g>
							<rect x="625.47" y="311.16" fill="#7F6C50" width="29.311" height="181.014"/>
						</g>
					</g>
					<path opacity="0.2" fill="#897558" d="M678.946,519.884c-12.742,1.438-22.422-0.646-28.774-6.234
						c-9.375-8.239-10.104-22.682-10.153-23.682H640v-179h-15l0.526,181c0.348,6.964,2.813,28.35,19.781,43.508
						c9.065,8.097,20.397,12.742,33.813,13.954c1.033-0.085,2.074-0.193,3.127-0.312L678.946,519.884z"/>
				</g>
				<g>
					<path fill="#EE959B" d="M654.604,311.155c0,5.142-6.547,9.306-14.629,9.306c-8.076,0-14.624-4.164-14.624-9.306
						c0-5.142,6.548-9.307,14.624-9.307C648.057,301.849,654.604,306.013,654.604,311.155z"/>
					<ellipse fill="#CC656F" cx="639.975" cy="311.155" rx="7.512" ry="4.452"/>
				</g>
			</g>
		</g>
		<g>
			<g>
				<g>
					<path fill="#7F6C50" d="M623.686,698.986c-16.093,0-40.029-12.74-40.029-47.837c0-16.45,6.752-26.16,12.411-31.41
						c11.334-10.515,26.025-10.717,29.946-10.569h45.506v32.219h-45.885c-0.614-0.004-0.611,0.02-1.215-0.047
						c-1.113-0.054-4.769,0.398-6.503,2.074c-1.779,1.714-2.042,5.578-2.042,7.733c0,9.642,2.777,15.026,8.035,15.606l90.508,0.048
						L715.424,699l-91.235-0.021C624.018,698.982,623.852,698.986,623.686,698.986z"/>
				</g>
			</g>
			<path opacity="0.2" fill="#897558" d="M610.451,631.29c-4.164,3.535-9.131,10.177-9.131,21.254
				c0,23.634,17.611,32.265,29.451,32.265c0.122,0,0.245,0.022,0.371,0.02l82.982,0.354l-0.628-18.357l-89.587-0.073
				c-5.258-0.58-8.035-5.963-8.035-15.605c0-2.155,0.263-6.019,2.042-7.733c1.734-1.676,5.39-2.338,6.503-2.284
				c0.604,0.066,0.601-0.163,1.215-0.163H666v-17h-33.514C629.601,623.968,618.791,624.209,610.451,631.29z"/>
			<g>
				<path fill="#EE959B" d="M714.508,666.476c5.706,0,10.333,7.27,10.333,16.241c0,8.967-4.627,16.237-10.333,16.237
					s-10.334-7.27-10.334-16.237C704.174,673.745,708.802,666.476,714.508,666.476z"/>
			</g>
			<path fill="#CC656F" d="M714.508,674.375c2.731,0,4.944,3.734,4.944,8.341c0,4.603-2.213,8.338-4.944,8.338
				c-2.73,0-4.944-3.735-4.944-8.338C709.563,678.109,711.777,674.375,714.508,674.375z"/>
		</g>
		<g>
			<g>
				<path fill="#7F6C50" d="M669,662.098c-28.018,0-50.727-22.713-50.727-50.727c0-25.723,19.141-46.974,43.964-50.283v-18.202
					c0-28.017,22.711-50.726,50.727-50.726c28.019,0,50.728,22.709,50.728,50.726v24.52c0,1.942-0.111,3.885-0.332,5.815
					C758.264,617.388,724.215,662.098,669,662.098z"/>
			</g>
			<path opacity="0.2" fill="#897558" d="M662,542.887v18.202c-25,3.309-43.846,24.56-43.846,50.283
				c0,10.319,3.148,19.913,8.442,27.923c54.903-0.285,88.374-44.846,93.452-88.87c0.221-1.931-0.049-3.873-0.049-5.815v-24.52
				c0-10.316-2.795-19.907-8.084-27.916C684.141,492.455,662,515.044,662,542.887z"/>
		</g>
	</g>
</g>
<g id="Pulmon">
	<g>
		<g>
			<g>
				<g>
					<g>
						<rect x="625.346" y="211.266" fill="#485766" width="29.311" height="128.256"/>
						<g>
							
								<rect x="610.692" y="320.799" transform="matrix(0.7853 0.6191 -0.6191 0.7853 347.8249 -309.9635)" fill="#485766" width="20.351" height="51.537"/>
							
								<rect x="648.958" y="320.798" transform="matrix(-0.7854 0.619 -0.619 -0.7854 1391.343 210.7786)" fill="#485766" width="20.354" height="51.539"/>
						</g>
					</g>
					<g>
						<g>
							<g>
								<path fill="#5BA4C2" d="M597.023,259.736c10.586,0,18.82,7.324,19.637,20.351c2.082,33.318,0,72.462,0,108.664
									c-2.99,27.628-59.912,42.127-82.525,62.403C488.026,492.485,512.35,284.16,597.023,259.736z"/>
							</g>
							<g>
								<g>
									<path fill="#5BA4C2" d="M683.344,258.847c-10.579-0.024-18.836,7.284-19.678,20.311
										c-2.154,33.311-0.16,72.459-0.24,108.664c2.923,27.632,59.812,42.26,82.381,62.584
										C791.819,491.844,767.965,283.459,683.344,258.847z"/>
								</g>
							</g>
						</g>
					</g>
				</g>
			</g>
			<polygon opacity="0.1" fill="#485766" points="639.686,339.522 625.346,324.522 625.346,211.266 639.686,211.266 			"/>
			<path opacity="0.25" fill="#5BA4C2" d="M616.702,379.843c0.012-1.477,0.023-2.953,0.04-4.436c0.01-0.875,0.022-1.754,0.034-2.631
				c0.018-1.39,0.035-2.778,0.056-4.172c0.014-0.874,0.027-1.749,0.042-2.624c0.023-1.444,0.046-2.888,0.071-4.335
				c0.013-0.743,0.026-1.487,0.04-2.231c0.087-4.853,0.179-9.714,0.267-14.568c0.014-0.782,0.027-1.564,0.041-2.346
				c0.025-1.414,0.049-2.825,0.071-4.236c0.015-0.901,0.028-1.802,0.042-2.702c0.02-1.323,0.038-2.643,0.056-3.962
				c0.013-0.949,0.023-1.896,0.034-2.844c0.016-1.272,0.028-2.543,0.039-3.811c0.01-0.971,0.016-1.938,0.021-2.906
				c0.009-1.246,0.016-2.491,0.02-3.731c0.004-0.973,0.004-1.941,0.004-2.911c0-1.223,0-2.444-0.004-3.66
				c-0.004-0.982-0.012-1.956-0.02-2.934c-0.009-1.192-0.017-2.387-0.031-3.571c-0.012-0.985-0.03-1.961-0.046-2.94
				c-0.02-1.166-0.036-2.334-0.062-3.491c-0.021-0.989-0.053-1.966-0.079-2.948c-0.03-1.13-0.058-2.266-0.096-3.386
				c-0.035-1.044-0.078-2.073-0.12-3.109c-0.042-1.04-0.123-2.088-0.123-3.119c0-0.002,0-0.005,0-0.007
				c-47,19.743-46.298,92.586-46.017,142.731c21.941-11.379,43.853-23.35,45.679-40.212c0-2.202,0.007-4.415,0.021-6.636
				C616.688,381.36,616.695,380.6,616.702,379.843z"/>
			<path opacity="0.25" fill="#5BA4C2" d="M714.766,431.13c0.199-52.78-1.87-122.675-51.526-143.978
				c-1.418,31.482,0.261,67.319,0.187,100.669C665.366,406.165,691.089,418.778,714.766,431.13z"/>
		</g>
		<g>
			<path fill="#EE959B" d="M654.604,211.274c0,5.142-6.547,9.306-14.629,9.306c-8.076,0-14.624-4.165-14.624-9.306
				s6.548-9.307,14.624-9.307C648.057,201.968,654.604,206.133,654.604,211.274z"/>
			<ellipse fill="#CC656F" cx="639.975" cy="211.274" rx="7.512" ry="4.453"/>
		</g>
	</g>
	
		<path opacity="0.8" fill="#93D5D9" stroke="#93D5D9" stroke-width="3" stroke-linecap="round" stroke-linejoin="round" stroke-miterlimit="10" d="
		M665.3,272.838c-3.197,9.192-2.223,20.632-2.537,30.254c-0.355,10.891-0.472,21.789-0.331,32.685
		c-2.907-3.444-5.814-6.888-8.722-10.332l1.103-114.977l0,0c-0.018-12.634-29.233-12.634-29.251,0l-1.852,114.978l-7,10.053
		c0.199-13.607,0.674-27.259,0.439-40.867c-0.186-10.868,0.492-25.277-10.455-31.455c-10.346-5.838-22.23,1.939-30.708,8.063
		c-9.782,7.067-17.952,16.201-24.878,26.031c-14.756,20.945-24.646,45.295-31.414,69.897c-3.516,12.777-6.2,25.806-7.741,38.972
		c-1.448,12.371-2.339,25.435,0.198,37.729c1.003,4.864,3.209,11.872,8.629,13.417c6.16,1.754,11.445-4.261,15.723-7.65
		c5.032-3.988,10.484-7.411,16.067-10.568c3.013-1.704,6.067-3.332,9.134-4.938c0.879-0.46,8.006-3.498,8.006-4.167
		c12.446-6.368,25.123-11.842,35.736-21.221c4.678-4.135,8.947-9.167,10.703-15.274c1.07-3.726,0.744-7.663,0.814-11.499
		c0.075-4.15,0.158-8.302,0.081-12.453c0.001,0.191,0.003,0.383,0.005,0.575c7.513-9.207,15.025-18.415,22.538-27.622h1.246
		l22.682,27.804c0.147,11.842-1.453,23.129,6.72,32.748c7.377,8.681,17.895,14.723,27.739,20.149
		c11.147,6.145,22.757,11.479,33.694,18c5.084,3.031,9.89,6.41,14.395,10.25c3.974,3.387,9.898,7.726,15.064,3.982
		c8.865-6.424,8.129-23.688,7.949-33.245c-0.248-13.224-2.12-26.457-4.799-39.394c-5.254-25.357-13.774-50.48-26.61-73.04
		c-9.069-15.939-20.654-31.253-36.146-41.437c-6.789-4.463-15.525-9.807-23.875-7.809
		C671.272,262.002,667.381,266.854,665.3,272.838C663.523,277.946,668.062,264.897,665.3,272.838z"/>
</g>
<g id="Corazon">
	<g>
		<g>
			<g>
				<g>
					<path fill="#485766" d="M649.279,520.566h24.641c0,0,0-167.446,0-167.461h-24.641
						C648.86,372.928,649.279,520.566,649.279,520.566z"/>
				</g>
				<g>
					<g>
						<path fill="#E28E94" d="M661.674,451.986h-7.486c-5.115,0-8.189-2.33-9.863-4.274c-3.945-4.601-3.566-10.979-3.317-13.094
							c0.052-2.814,0.374-21.985,0-33.96c-0.079-2.546-0.648-4.49-1.562-5.323c-0.668-0.614-1.594-0.668-1.891-0.668l-0.477,0.091
							l-0.197-0.062h-8.654v-12.359h8.425c1.668-0.111,6.56-0.052,10.774,3.55c3.739,3.208,5.745,8.046,5.937,14.387
							c0.414,13.195,0.018,34.051,0,34.935l-0.006,0.419l-0.064,0.398c-0.164,1.203,0.025,2.968,0.365,3.551
							c0.09,0.02,0.266,0.048,0.531,0.048h7.486V451.986L661.674,451.986z"/>
						<path fill="#E28E94" d="M637.077,416.398l0.477-0.094c0.297,0.003,1.223,0.057,1.891,0.662
							c0.914,0.841,1.483,2.778,1.562,5.334c0.052,1.67,0.089,3.485,0.113,5.367h12.371c-0.033-2.019-0.073-3.954-0.13-5.752
							c-0.191-6.348-2.197-11.186-5.937-14.396c-4.215-3.599-9.106-3.652-10.774-3.551h-8.425v12.363h8.654L637.077,416.398z"/>
					</g>
				</g>
			</g>
			<path opacity="0.1" fill="#485766" d="M663,352.968h-13.721c-0.396,19-0.044,151.448-0.004,166.179
				c-0.048,0.282-0.076,0.602-0.076,0.891c0,4.345,5.539,8.087,12.373,8.087c0.484,0,0.959-0.022,1.428-0.056V352.968z"/>
			<g>
				<path fill="#EE959B" d="M673.943,353.979c0,4.345-5.541,7.87-12.371,7.87c-6.834,0-12.373-3.524-12.373-7.87
					c0-4.349,5.539-7.874,12.373-7.874C668.402,346.105,673.943,349.63,673.943,353.979z"/>
				<path fill="#CC656F" d="M667.924,353.979c0,2.077-2.846,3.764-6.352,3.764c-3.511,0-6.354-1.688-6.354-3.764
					c0-2.082,2.843-3.769,6.354-3.769C665.078,350.21,667.924,351.897,667.924,353.979z"/>
			</g>
		</g>
		<path fill="#485766" d="M702.618,413.968h-22.447c-0.255,28,0.567,98.85,0.654,106.168c-0.007,0.1-0.023,0.1-0.023,0.201
			c0,3.698,4.709,6.844,10.518,6.844c5.632,0,10.217-3.213,10.487-6.213h0.138L702.618,413.968z"/>
		<g>
			<path fill="#E28E94" d="M721.282,392.009l7.888-15.308l-10.998-5.658l-6.866,13.339c-1.205-0.603-2.45-1.135-3.73-1.588
				l1.653-15.287l-12.292-1.322l-1.585,14.642c-1.145,0.021-2.303,0.082-3.478,0.201c-0.743,0.073-1.473,0.17-2.194,0.277
				l-2.363-14.483l-12.195,1.987l2.621,16.114c-14.69,7.117-20.424,21.708-21.357,30.046l18.424,2.074
				c0-0.042,0.584-4.039,3.087-8.161c3.408-5.589,8.595-8.669,15.851-9.399c15.572-1.579,19.275,13.605,19.684,15.492l17.416-4.357
				c-0.184-0.881-0.725-6.472-6.104-14.265C723.66,394.792,722.512,393.345,721.282,392.009z"/>
			<path opacity="0.2" fill="#E28E94" d="M718.172,371.043l-6.866,13.339c-1.205-0.603-2.45-1.135-3.73-1.588l1.653-15.287
				l-12.292-1.322l-1.585,14.642c-1.145,0.021-2.303,0.082-3.478,0.201c-0.743,0.073-1.473,0.17-2.194,0.277l-2.363-14.483
				l-12.195,1.987l2.621,16.114c-14.69,7.117-20.424,21.708-21.357,30.046l6.635,0.747l3.053-1.18c0,0,5.414-25.279,27.524-25.279
				s24.967,15.711,24.967,15.711h10.781c-0.88-2.335-2.294-5.271-4.603-8.615c-1.082-1.561-2.23-3.008-3.46-4.344l7.888-15.308
				L718.172,371.043z"/>
		</g>
		<g>
			<path fill="#485766" d="M748.562,404.769l8.096-8.091l-7.361-7.367l-6.793,6.799c0,0-41.004,0.281-48.167,0.281
				c-9.161,0-14.062,1.528-14.098,10.129c-0.003,1.549-0.119,4.459-0.147,8.317h63.83l5.752,5.762l7.361-7.357L748.562,404.769z"/>
			<path opacity="0.2" fill="#485766" d="M749.297,389.311l-6.793,6.799c0,0-41.004,0.281-48.167,0.281
				c-8.579,0-13.421,1.341-14.031,8.576h68.456l-0.199-0.199l8.096-8.091L749.297,389.311z"/>
		</g>
		<g>
			<path fill="#CC656F" d="M756.217,457.762c0.584,22.409,0.453,30.569,0.314,39.149c-0.065,4.014-6.719,6.183-6.719,6.183
				s-23.545-0.908-46.721-0.908c-23.174,0-47.318-15.044-47.318-51.185c0-20.28,0.47-36.313,0.47-36.313l56.509-0.387
				C712.752,414.301,755.248,421.062,756.217,457.762z"/>
			<path opacity="0.2" fill="#CC656F" d="M719.15,458.231c-0.969-36.701-43.465-43.461-43.465-43.461l-19.448,0.133
				c-0.055,1.945-0.464,17.169-0.464,36.098c0,36.141,24.145,51.185,47.318,51.185c5.588,0,11.195,0.053,16.49,0.133
				C719.573,487.656,719.467,470.371,719.15,458.231z"/>
		</g>
	</g>
	
		<path opacity="0.75" fill="#93D5D9" stroke="#93D5D9" stroke-width="3" stroke-linecap="round" stroke-linejoin="round" stroke-miterlimit="10" d="
		M715.346,416.468h28.576l5.752,5.447l7.361-7.515l-8.473-8.552l8.096-8.13l-7.361-7.386l-6.793,6.79c0,0-8.171,0.051-17.854,0.113
		c-1.057-1.512-2.172-2.922-3.368-4.222l7.888-15.309l-10.998-5.659l-6.866,13.339c-1.205-0.603-2.45-1.136-3.73-1.588l1.653-15.288
		l-12.292-1.322l-1.585,14.642c-1.145,0.021-2.303,0.083-3.478,0.202c-0.743,0.073-1.473,0.17-2.194,0.277l-2.363-14.483
		l-12.195,1.987l2.411,16.114c-1.357,0.658-3.032,1.398-4.032,2.172c0-16.579,0-29.072,0-32.822c0-0.099,0.023-0.196,0.023-0.295
		c0-0.1-0.023-0.197-0.023-0.295c0-0.376,0-0.216,0-0.216h0.363c-0.684-4-5.926-6.931-12.291-6.931
		c-6.295,0-11.479,2.931-12.26,6.931h-0.033c0,0-0.002-0.146-0.003-0.1c-0.048,0.283-0.077,0.445-0.077,0.736
		c0,0.22-0.301,0.374-0.273,0.589c-0.043,3.02-0.426,7.599-0.426,13.443c0,0.104,0,0.209,0,0.314c0,0.636,0.318,1.287,0.316,1.95
		c0,0.174,0.161,0.347,0.16,0.523c-0.002,0.639,0.077,1.291,0.075,1.953c-0.001,0.219,0.228,0.436,0.228,0.657
		c-0.002,0.536,0.221,1.081,0.221,1.631c0,0.37,0,0.736,0,1.112c0,0.507,0,1.025,0,1.543c0,0.39,0,0.776,0,1.172
		c0,0.473-0.193,0.957-0.195,1.438c0,0.5-0.098,0.998-0.098,1.507c-0.001,0.251-0.353,0.509-0.353,0.762
		c-0.002,0.713-0.354,1.428-0.354,2.158c0,0.062,0,0.126,0,0.188c0,0.845,0.301,1.694,0.3,2.56c-0.519-0.611-0.915-1.13-1.526-1.655
		c-4.215-3.601-8.955-3.483-10.623-3.483h-9.15v13h9.38l0.197-0.324l0.477-0.283c0.297,0,1.223-0.043,1.891,0.571
		c0.914,0.833,1.483,2.729,1.562,5.275c0.036,1.172,0.066,2.64,0.091,3.928c-1.965-0.454-3.611-0.166-4.447-0.166h-9.15v12h9.38
		l0.197-0.002l0.477-0.127c0.297,0.003,1.223,0.04,1.891,0.645c0.914,0.841,1.483,2.77,1.562,5.326
		c0.048,1.538,0.081,3.203,0.106,4.926c-0.042,3.694-0.09,6.448-0.106,7.385c-0.249,2.115-0.628,8.492,3.317,13.093
		c1.025,1.191,2.584,2.521,4.808,3.378c0.048,32.262,0.126,61.438,0.144,68.056c-0.048,0.282-0.076,0.601-0.076,0.891
		c0,4.345,5.289,8.087,12.123,8.087c0.484,0-8.799-0.056,1.178-0.056s11-6.602,11-6.602s0-12.083,0-28.666
		c2,1.599,4.546,2.979,6.864,4.156c0.119,11.926,0.327,20.829,0.356,23.178c-0.008,0.1,0.028,0.1,0.028,0.201
		c0,3.698,4.735,7.094,10.544,7.094c5.632,0,10.243-2.963,10.514-5.963h0.138l0.118-19.054c0.344,0.007,0.687,0.033,1.029,0.033
		c1.36,0,2.723,0.021,4.08,0.021c0.051,0,0.103,0,0.154,0c1.324,0,2.645-0.122,3.958-0.111c0.081,0.001,0.161-0.067,0.241-0.066
		c1.332,0.011,2.656-0.009,3.967,0.006c0.033,0,0.068-0.016,0.102-0.016c1.346,0.017,2.677,0.026,3.988,0.046l0,0
		c16.668,0.252,30.23,0.771,30.23,0.771s6.653-2.171,6.719-6.185c0.139-8.58,0.27-16.426-0.314-38.835
		C755.394,427.886,724.578,418.468,715.346,416.468z M680.273,406.711c-0.012,0.269-0.033,0.525-0.034,0.809
		c-0.003,1.505-0.112,4.305-0.145,8.004l-4.7,0.032c0.457-1.526,1.23-3.583,2.501-5.675
		C678.607,408.714,679.402,407.662,680.273,406.711z"/>
</g>
</svg>
