<?xml version="1.0" encoding="utf-8"?>
<!-- Generator: Adobe Illustrator 16.0.0, SVG Export Plug-In . SVG Version: 6.00 Build 0)  -->
<!DOCTYPE svg PUBLIC "-//W3C//DTD SVG 1.1//EN" "http://www.w3.org/Graphics/SVG/1.1/DTD/svg11.dtd">
<svg id="estomago"
    





     version="1.1" id="Layer_1" xmlns="http://www.w3.org/2000/svg" xmlns:xlink="http://www.w3.org/1999/xlink" x="0px" y="0px"
	 width="1280px" height="700px" viewBox="0 0 1280 700" style="enable-background:new 0 0 1280 700;" xml:space="preserve">
<g id="EstomagoBig">
	<g>
		<g>
			<g>
				<g>
					<g>
						<g>
							<path style="fill:#7F6C50;" d="M686.3,285.3c-16.6,0-30.4-4.8-41-14.3c-19.3-17.2-19.8-42.7-19.8-45.5h29.4h-14.7l14.7-0.1
								c0,0.2,0.4,15.2,10.2,23.8c6.4,5.6,16,7.7,28.8,6.2l3.3,29.2C693.4,285.1,689.8,285.3,686.3,285.3z"/>
						</g>
						<g>
							<rect x="625.5" y="46.7" style="fill:#7F6C50;" width="29.3" height="181"/>
						</g>
					</g>
					<path style="opacity:0.2;fill:#897558;enable-background:new    ;" d="M678.9,255.4c-12.7,1.4-22.4-0.6-28.8-6.2
						c-9.4-8.2-10.1-22.7-10.2-23.7l0,0v-179h-15l0.5,181c0.3,7,2.8,28.3,19.8,43.5c9.1,8.1,20.4,12.7,33.8,14
						c1-0.1,2.1-0.2,3.1-0.3L678.9,255.4z"/>
				</g>
				<g>
					<path style="fill:#EE959B;" d="M654.6,46.7c0,5.1-6.5,9.3-14.6,9.3s-14.6-4.2-14.6-9.3s6.5-9.3,14.6-9.3S654.6,41.5,654.6,46.7
						z"/>
					<ellipse style="fill:#CC656F;" cx="640" cy="46.7" rx="7.5" ry="4.5"/>
				</g>
			</g>
		</g>
		<g>
			<g>
				<g>
					<path style="fill:#7F6C50;" d="M623.7,434.5c-16.1,0-40-12.7-40-47.8c0-16.5,6.8-26.2,12.4-31.4c11.3-10.5,26-10.7,29.9-10.6
						h45.5v32.2h-45.9c-0.6,0-0.6,0-1.2,0c-1.1-0.1-4.8,0.4-6.5,2.1c-1.8,1.7-2,5.6-2,7.7c0,9.6,2.8,15,8,15.6h90.5l1,32.2h-91.2
						C624,434.5,623.9,434.5,623.7,434.5z"/>
				</g>
			</g>
			<path style="opacity:0.2;fill:#897558;enable-background:new    ;" d="M610.5,366.8c-4.2,3.5-9.1,10.2-9.1,21.3
				c0,23.6,17.6,32.3,29.5,32.3c0.1,0,0.2,0,0.4,0l83,0.4l-0.6-18.4l-89.6-0.1c-5.3-0.6-8-6-8-15.6c0-2.2,0.3-6,2-7.7
				c1.7-1.7,5.4-2.3,6.5-2.3c0.6,0.1,0.6-0.2,1.2-0.2H666v-17h-33.5C629.6,359.5,618.8,359.7,610.5,366.8z"/>
			<g>
				<path style="fill:#EE959B;" d="M714.5,402c5.7,0,10.3,7.3,10.3,16.2c0,9-4.6,16.2-10.3,16.2s-10.3-7.3-10.3-16.2
					S708.8,402,714.5,402z"/>
			</g>
			<path style="fill:#CC656F;" d="M714.5,409.9c2.7,0,4.9,3.7,4.9,8.3s-2.2,8.3-4.9,8.3s-4.9-3.7-4.9-8.3S711.8,409.9,714.5,409.9z"
				/>
		</g>
		<g>
			<g>
				<path style="fill:#7F6C50;" d="M669,397.6c-28,0-50.7-22.7-50.7-50.7c0-25.7,19.1-47,44-50.3v-18.2c0-28,22.7-50.7,50.7-50.7
					s50.7,22.7,50.7,50.7v24.5c0,1.9-0.1,3.9-0.3,5.8C758.3,352.9,724.2,397.6,669,397.6z"/>
			</g>
			<path style="opacity:0.2;fill:#897558;enable-background:new    ;" d="M662,278.4v18.2c-25,3.3-43.8,24.6-43.8,50.3
				c0,10.3,3.1,19.9,8.4,27.9c54.9-0.3,88.4-44.8,93.5-88.9c0.2-1.9,0-3.9,0-5.8v-24.5c0-10.3-2.8-19.9-8.1-27.9
				C684.1,228,662,250.6,662,278.4z"/>
		</g>
	</g>
</g>
<g id="Circulo_Comida">
	<g>
		<g>
			<circle style="fill:none;stroke:#D4EAE1;stroke-miterlimit:10;" cx="351.3" cy="503.6" r="37.8"/>
		</g>
	</g>
</g>
<g id="Comida_Atras">
	<g>
		<path style="fill:#6A9159;" d="M384.6,474.5c4-22.2-12.9-42.2-17-42.8c-3.9-0.6-5.2,1.5-6.7,1.4c-1.9-0.2-1.7-2.5-6.3-3.2
			c-4.3-0.6-26.8,13.6-29.4,34.2c-1.9,15.2,6.1,26.4,18.5,30.8l-0.8,4.8l6.9-1.7l5.9,4l0.9-4.9C369.8,497,381.9,489.4,384.6,474.5z"
			/>
		<path style="fill:#899C60;" d="M360.8,433c-2-0.4-1.7-2.5-6.1-3.2c-4.3-0.6-26.6,13.7-29.2,34.2c-2.2,17.2,8.4,29.3,24.1,32.2
			L360.8,433z"/>
		<g>
			<g>
				<path style="fill:#D6D6D6;" d="M350.7,492.1c-14.8-2.6-22.8-13.2-21-27.5c2.2-17.5,19-28.4,22.7-29.2c1.5-0.7,2.8,0,4.1,0.3
					c1,0.2,2.4,1.4,3.8,1.6c1.4,0.2,2.8-0.4,3.8-0.5c1.2-0.1,3.9,0.1,5,1.5c2.9,3,14.6,16.7,11.2,35.5
					C377.3,489.5,363.3,494.3,350.7,492.1z"/>
			</g>
		</g>
		<path style="fill:#F5E5E5;" d="M360,437.2c-1-0.3-2.6-1.3-3.5-1.5c-1.3-0.3-2.6-0.9-4.1-0.3c-3.8,0.8-20.5,11.7-22.7,29.2
			c-1.8,14.2,5.8,24.6,20.6,27.4L360,437.2z"/>
		<g>
			<g>
				
					<ellipse transform="matrix(0.177 -0.9842 0.9842 0.177 -177.7253 713.0672)" style="fill:#E4CA9A;" cx="337.5" cy="462.8" rx="1.6" ry="2.2"/>
				<path style="fill:#E4CA9A;" d="M341.5,454.2c0.9,0.9,2.1,1,2.7,0.3c0.6-0.7,0.3-1.9-0.6-2.8c-0.9-0.9-2.1-1-2.7-0.3
					C340.3,452.1,340.6,453.4,341.5,454.2z"/>
				<path style="fill:#E4CA9A;" d="M353.2,450.5c0.8-0.2,1.3-1.4,1.1-2.6c-0.2-1.3-1.1-2.1-2-1.9c-0.8,0.2-1.3,1.4-1.1,2.6
					C351.5,449.8,352.4,450.7,353.2,450.5z"/>
				<path style="fill:#E4CA9A;" d="M348.4,451.8c0.8-0.4,0.9-1.7,0.3-2.9c-0.6-1.1-1.7-1.7-2.4-1.2c-0.8,0.4-0.9,1.7-0.3,2.9
					C346.6,451.7,347.6,452.3,348.4,451.8z"/>
				<path style="fill:#E4CA9A;" d="M338.5,459c1.1,0.6,2.3,0.5,2.7-0.3c0.4-0.8-0.1-1.9-1.2-2.6c-1.1-0.6-2.3-0.5-2.7,0.3
					C336.9,457.2,337.4,458.4,338.5,459z"/>
				<path style="fill:#E4CA9A;" d="M339.6,468.4c-0.1-0.9-1.1-1.5-2.4-1.4c-1.2,0.2-2.1,1-2.1,1.9c0.1,0.9,1.1,1.5,2.4,1.4
					C338.7,470.2,339.6,469.3,339.6,468.4z"/>
				<path style="fill:#E4CA9A;" d="M338.3,472.7c-1.1,0.6-1.7,1.7-1.3,2.5c0.4,0.8,1.6,1,2.7,0.4c1.1-0.6,1.7-1.7,1.3-2.5
					S339.4,472.1,338.3,472.7z"/>
				<path style="fill:#E4CA9A;" d="M341.4,477.8c-1,0.8-1.3,2.1-0.8,2.8s1.8,0.6,2.7-0.3c1-0.8,1.3-2.1,0.8-2.8
					C343.6,476.9,342.3,477,341.4,477.8z"/>
				<path style="fill:#E4CA9A;" d="M347.8,480.3c-0.7-0.4-1.8,0.1-2.5,1.3c-0.6,1.1-0.5,2.4,0.2,2.9c0.7,0.4,1.8-0.1,2.5-1.3
					C348.6,482,348.5,480.7,347.8,480.3z"/>
				<path style="fill:#E4CA9A;" d="M358.2,450.4c0.9,0.1,1.8-0.8,2-2c0.3-1.3-0.2-2.4-1.1-2.5c-0.9-0.1-1.8,0.8-2,2
					C356.8,449.1,357.3,450.2,358.2,450.4z"/>
				<path style="fill:#E4CA9A;" d="M351.6,486c0.9,0.1,1.7-0.8,2-2.1c0.2-1.3-0.3-2.4-1.1-2.5c-0.9-0.1-1.7,0.8-2,2.1
					C350.2,484.7,350.7,485.9,351.6,486z"/>
				
					<ellipse transform="matrix(-0.1709 0.9853 -0.9853 -0.1709 898.865 181.6768)" style="fill:#E4CA9A;" cx="373" cy="469" rx="1.6" ry="2.2"/>
				<path style="fill:#E4CA9A;" d="M372.2,459.7c-1.1,0.5-2.3,0.2-2.6-0.6c-0.3-0.8,0.4-1.9,1.5-2.4c1.1-0.5,2.3-0.2,2.6,0.6
					C374.1,458.1,373.4,459.2,372.2,459.7z"/>
				<path style="fill:#E4CA9A;" d="M362.5,452.1c-0.7-0.5-0.8-1.8-0.1-2.9c0.7-1.1,1.8-1.6,2.5-1.2c0.7,0.5,0.8,1.8,0.1,2.9
					C364.4,452.1,363.2,452.6,362.5,452.1z"/>
				<path style="fill:#E4CA9A;" d="M366.6,455c-0.6-0.7-0.3-1.9,0.7-2.8c0.9-0.9,2.1-1,2.7-0.3c0.6,0.7,0.3,1.9-0.7,2.8
					S367.1,455.7,366.6,455z"/>
				<path style="fill:#E4CA9A;" d="M373.4,465.2c-1.2,0.2-2.3-0.3-2.4-1.2s0.8-1.8,2-2c1.2-0.2,2.3,0.3,2.4,1.2
					C375.5,464,374.7,464.9,373.4,465.2z"/>
				<path style="fill:#E4CA9A;" d="M369.2,473.7c0.4-0.8,1.6-1,2.7-0.5c1.1,0.6,1.7,1.7,1.3,2.5c-0.4,0.8-1.6,1-2.7,0.5
					C369.4,475.6,368.8,474.5,369.2,473.7z"/>
				<path style="fill:#E4CA9A;" d="M368.9,478.1c0.8,0.9,1,2.2,0.4,2.8c-0.6,0.6-1.8,0.4-2.7-0.5c-0.8-0.9-1-2.2-0.4-2.8
					C366.8,477,368.1,477.2,368.9,478.1z"/>
				<path style="fill:#E4CA9A;" d="M364.2,481.9c0.6,1.1,0.5,2.4-0.2,2.9s-1.8-0.1-2.5-1.2c-0.6-1.1-0.5-2.4,0.2-2.9
					C362.5,480.2,363.6,480.7,364.2,481.9z"/>
				<path style="fill:#E4CA9A;" d="M357.1,481.8c0.9-0.2,1.7,0.8,1.9,2c0.2,1.3-0.4,2.4-1.2,2.6c-0.9,0.2-1.7-0.8-1.9-2
					C355.7,483.1,356.3,482,357.1,481.8z"/>
			</g>
		</g>
	</g>
</g>
<g id="Banner_Estomago">
	<g>
		<g>
			<path style="fill:#E2D4D5;" d="M293.9,473c2.6,2.5,5.2,5.1,7.7,7.7c0.5,3.6,1,7.2,1.7,10.7c3.4-1.8,7-3.3,10.5-4.7
				c-2.4-6.4-4.9-12.9-7.3-19.3C302.3,469,298.1,470.9,293.9,473z"/>
			<path style="fill:#DBDBDB;" d="M397.9,464.2c-29.9-11.4-63-11.4-92.9,0c2.5,6.4,4.9,12.9,7.4,19.3c25.2-9.6,53-9.6,78.2,0
				C393,477,395.5,470.6,397.9,464.2z"/>
			<path style="fill:#E2D4D5;" d="M408.5,474.1c-2.6,2.5-5.2,5.1-7.7,7.8c-0.5,3.6-1.1,7.1-1.7,10.7c-3.4-1.7-6.9-3.3-10.4-4.6
				c2.4-6.4,4.9-12.9,7.3-19.3C400.3,470.2,404.4,472,408.5,474.1z"/>
		</g>
		<path style="fill:#F5E5E5;" d="M352.1,455.1c-15.8-0.1-31.7,2.7-46.7,8.4c2.5,6.6,4.9,13.1,7.4,19.7c12.6-4.8,25.9-7.1,39.2-7
			C352.1,469.1,352.1,462.1,352.1,455.1z"/>
		<g>
			<path style="fill:#7F6C50;" d="M335,470.6c-0.3,0.1-0.7,0.2-1.8,0.4c-1.3,0.2-2.3,0-2.6-1.7c-0.2-1.2-0.4-2.3-0.6-3.5
				c-0.3-1.7,0.7-2.2,2-2.5c1.2-0.2,1.7-0.2,2-0.2c0.2,0,0.2,0,0.2,0.2c0,0.2,0.1,0.4,0.1,0.6c0,0.1-0.1,0.2-0.2,0.2
				c-0.7,0.1-1.4,0.2-2.1,0.3c-0.6,0.1-0.8,0.3-0.7,1c0.1,0.4,0.1,0.7,0.2,1.1c0.9-0.2,1.8-0.3,2.8-0.4c0.1,0,0.2,0.1,0.2,0.2
				c0,0.2,0.1,0.5,0.1,0.7c0,0.1-0.1,0.2-0.2,0.2c-0.9,0.1-1.8,0.3-2.7,0.4c0.1,0.4,0.1,0.9,0.2,1.3c0.1,0.7,0.4,0.8,0.9,0.7
				c0.7-0.1,1.3-0.2,2-0.3c0.1,0,0.2,0.1,0.2,0.2c0,0.2,0.1,0.4,0.1,0.6C335.2,470.5,335.1,470.6,335,470.6z"/>
			<path style="fill:#7F6C50;" d="M337.8,470.4c-0.4,0-1.2,0.1-1.8,0c-0.1,0-0.2-0.1-0.2-0.2c0-0.2-0.1-0.4-0.1-0.6
				c0-0.1,0-0.2,0.1-0.2l0,0c0.5,0,1.4-0.1,1.7-0.1c0.6-0.1,0.7-0.3,0.7-0.6c0-0.2-0.2-0.3-0.5-0.5c-0.5-0.2-1-0.5-1.5-0.7
				c-0.5-0.2-1-0.7-1-1.3c-0.1-1,0.4-1.6,1.8-1.8c0.8-0.1,1.3-0.1,1.9,0c0.1,0,0.2,0.1,0.2,0.2c0,0.2,0,0.4,0.1,0.6
				c0,0.1,0,0.2-0.1,0.2l0,0c-0.3,0-1.1,0-1.7,0.1c-0.5,0.1-0.7,0.2-0.7,0.5c0,0.2,0.2,0.2,0.5,0.4c0.5,0.2,1,0.4,1.4,0.7
				c0.9,0.4,1.1,0.9,1.1,1.4C339.7,469.5,339.1,470.3,337.8,470.4z"/>
			<path style="fill:#7F6C50;" d="M343.3,469.8c-0.2,0.1-0.5,0.1-0.7,0.1c-1.1,0.1-1.6-0.1-1.7-1.5c-0.1-1.1-0.2-2.1-0.3-3.2
				c-0.3,0-0.7,0-1-0.1c-0.1,0-0.2-0.1-0.2-0.2c0-0.2,0-0.3,0-0.5c0-0.1,0.1-0.2,0.2-0.2c0.3,0,0.6-0.1,1-0.1c0-0.3-0.1-0.6-0.1-0.8
				c0-0.1,0.1-0.2,0.2-0.2c0.3-0.1,0.6-0.2,1-0.2l0,0c0.1,0,0.2,0,0.2,0.1c0,0.3,0.1,0.7,0.1,1c0.3,0,0.6,0,0.9-0.1
				c0.1,0,0.2,0.1,0.2,0.2c0,0.2,0,0.4,0,0.6c0,0.1-0.1,0.2-0.2,0.2c-0.3,0-0.6,0-0.9,0.1c0.1,1.1,0.2,2.1,0.3,3.2
				c0,0.5,0.1,0.6,0.4,0.5c0.2,0,0.4,0,0.5,0c0.1,0,0.2,0,0.2,0.1c0,0.2,0,0.4,0,0.6C343.5,469.7,343.4,469.8,343.3,469.8z"/>
			<path style="fill:#7F6C50;" d="M346.1,469.7c-1.5,0.1-2.4-0.9-2.5-2.4c0-0.3,0-0.5-0.1-0.8c-0.1-1.4,0.7-2.6,2.3-2.7
				c1.6-0.1,2.5,1,2.6,2.4c0,0.3,0,0.6,0,0.8C348.4,468.6,347.6,469.7,346.1,469.7z M347,466.3c0-0.8-0.4-1.4-1.2-1.3
				c-0.7,0-1.1,0.6-1,1.4c0,0.3,0,0.5,0,0.8c0,0.8,0.4,1.4,1.1,1.3c0.7,0,1-0.6,1-1.4C347,466.9,347,466.6,347,466.3z M347.3,461.8
				c-0.4,0.4-0.8,0.9-1.2,1.3c-0.1,0.1-0.1,0.1-0.2,0.1c-0.3,0-0.6,0-0.9,0c-0.1,0-0.1,0-0.1-0.1V463c0.3-0.4,0.6-0.8,0.9-1.3
				c0.1-0.1,0.1-0.2,0.3-0.2c0.4,0,0.7,0,1.1,0C347.3,461.7,347.3,461.7,347.3,461.8C347.3,461.7,347.3,461.8,347.3,461.8z"/>
			<path style="fill:#7F6C50;" d="M356.1,469.6c-0.3,0-0.6,0-0.9,0c-0.1,0-0.2-0.1-0.2-0.2c0-1.2,0.1-2.3,0.1-3.5c0-0.8-0.1-1-0.7-1
				c-0.2,0-0.6,0.1-1,0.2c0,0.2,0,0.5,0,0.7c0,1.2,0,2.3-0.1,3.5c0,0.1-0.1,0.2-0.2,0.2c-0.3,0-0.6,0-0.9,0c-0.1,0-0.2-0.1-0.2-0.2
				c0-1.2,0-2.3,0-3.5c0-0.8-0.1-1-0.7-1c-0.2,0-0.5,0.1-0.9,0.3c0,1.4,0,2.7,0,4.1c0,0.1-0.1,0.2-0.2,0.2c-0.3,0-0.6,0-0.9,0
				c-0.1,0-0.2-0.1-0.2-0.2c0-1.8-0.1-3.6-0.1-5.3c0-0.1,0.1-0.2,0.2-0.2c0.3,0,0.6,0,0.9,0c0.1,0,0.2,0.1,0.2,0.2
				c0,0.1,0,0.1,0,0.2c0.4-0.3,0.9-0.5,1.5-0.5c0.6,0,1,0.2,1.2,0.5c0.5-0.3,1-0.4,1.7-0.4c1.4,0,1.7,1,1.6,2.2
				c0,1.2-0.1,2.3-0.1,3.5C356.3,469.5,356.2,469.6,356.1,469.6z"/>
			<path style="fill:#7F6C50;" d="M361.1,469.9c-0.3,0-0.6,0-0.8-0.1c-0.1,0-0.2-0.1-0.2-0.2s0-0.1,0-0.2c-0.5,0.3-1,0.4-1.4,0.4
				c-0.8-0.1-1.7-0.4-1.6-1.8l0,0c0.1-1.2,0.8-1.7,2.6-1.6c0.2,0,0.4,0,0.6,0c0-0.1,0-0.3,0-0.4c0-0.7-0.2-0.8-0.8-0.9
				c-0.7,0-1.3,0-1.7,0c0,0,0,0-0.1,0c-0.1,0-0.2,0-0.2-0.2c0-0.2,0-0.4,0-0.7c0-0.1,0.1-0.2,0.2-0.2c0.4-0.1,1-0.1,1.7-0.1
				c1.5,0.1,2.2,0.8,2.1,2.1c-0.1,1.2-0.2,2.4-0.3,3.7C361.3,469.8,361.2,469.9,361.1,469.9z M360.2,467.3c-0.2,0-0.4,0-0.6,0
				c-0.9-0.1-1.1,0.2-1.2,0.8l0,0c0,0.5,0.2,0.6,0.7,0.7c0.4,0,0.7-0.1,1-0.2C360.1,468.1,360.1,467.7,360.2,467.3z"/>
			<path style="fill:#7F6C50;" d="M367.5,465.8c-0.1,0-0.2,0.1-0.4,0.1c0.1,0.3,0.2,0.5,0.1,0.8c0,0,0,0,0,0.1
				c-0.2,1.3-1.1,1.7-2.6,1.6c-0.5-0.1-0.9-0.2-1.1-0.3c-0.1,0.1-0.2,0.2-0.2,0.2c0,0.2,0.1,0.3,0.3,0.4c0.4,0.1,0.8,0.3,1.1,0.4
				c1.3,0.5,2.2,0.8,2,1.9c0,0,0,0,0,0.1c-0.1,1-0.9,1.5-2.6,1.3c-1.6-0.2-2.3-0.9-2.3-1.9v-0.1c0-0.4,0.3-0.8,0.6-1.1
				c-0.3-0.2-0.4-0.6-0.4-1l0,0c0-0.3,0.2-0.6,0.5-0.8c-0.3-0.3-0.4-0.7-0.3-1.2c0,0,0,0,0-0.1c0.1-1,0.8-1.8,2.6-1.6
				c0.8,0.1,1.6,0.2,2.4,0.3c0.2,0,0.3,0.2,0.2,0.3c0,0.1,0,0.3-0.1,0.4C367.7,465.7,367.6,465.7,367.5,465.8z M365.6,470.8
				c0-0.2-0.1-0.4-1.1-0.7c-0.3-0.1-0.6-0.2-0.9-0.3c-0.2,0.2-0.3,0.3-0.3,0.7v0.1c0,0.4,0.2,0.7,1.1,0.8
				C365.3,471.4,365.5,471.2,365.6,470.8C365.5,470.8,365.6,470.8,365.6,470.8z M366,466.5c0.1-0.5-0.1-0.9-1-1s-1.1,0.3-1.2,0.7
				v0.1c0,0.4,0.1,0.8,1,0.9C365.6,467.4,365.9,467.1,366,466.5C365.9,466.6,366,466.6,366,466.5z"/>
			<path style="fill:#7F6C50;" d="M369.7,471c-1.5-0.2-2.2-1.4-2-2.9c0-0.3,0.1-0.5,0.1-0.8c0.2-1.4,1.2-2.4,2.8-2.2
				c1.6,0.3,2.3,1.5,2,2.9c0,0.3-0.1,0.5-0.1,0.8C372.2,470.4,371.2,471.3,369.7,471z M371.3,467.9c0.1-0.8-0.2-1.4-0.9-1.5
				c-0.7-0.1-1.2,0.4-1.3,1.2c0,0.3-0.1,0.5-0.1,0.8c-0.1,0.8,0.2,1.4,0.9,1.5c0.7,0.1,1.1-0.4,1.3-1.2
				C371.2,468.4,371.3,468.2,371.3,467.9z"/>
		</g>
	</g>
</g>
<g id="Comida_Adelante">
	<g>
		<g>
			<circle style="fill:#FFA74F;" cx="342.4" cy="509.6" r="25.2"/>
			<polygon style="fill:#809159;" points="341,487.2 343.9,487.2 343.9,475.3 341,473.3 			"/>
			<g>
				
					<rect x="337.7" y="476" transform="matrix(-0.7068 -0.7074 0.7074 -0.7068 237.1948 1061.4146)" style="fill:#809159;" width="1.7" height="11.1"/>
				<g>
					<path style="fill:#899C60;" d="M320.8,486.9c6.8-6.8,13.1-7.3,16.6-3.8l-24.5,24.5C312.3,502.1,314,493.7,320.8,486.9z"/>
					<path style="fill:#809159;" d="M312.9,507.6l24.5-24.5c3.5,3.5,3,9.8-3.8,16.6C326.8,506.5,319.3,508,312.9,507.6z"/>
				</g>
			</g>
		</g>
		<path style="opacity:0.35;fill:#F5A95B;enable-background:new    ;" d="M342,484.5v50.3c15-0.2,24.7-11.4,24.7-25.2
			S357,484.7,342,484.5z"/>
	</g>
	<g>
		<g>
			<path style="fill:#76994D;" d="M390.4,503.5c-0.1-0.6,0.3-1.1,0.9-1.1c1,0,2.1-0.4,2.8-1.3c0.8-0.9,1-2.1,0.8-3.2
				c-0.1-0.5,0.3-1.1,0.8-1.1c1,0,1.9-0.5,2.6-1.3c0.9-1.1,1.1-2.5,0.6-3.7c-0.2-0.5,0.1-1.2,0.7-1.2c1.5-0.2,3-1.4,3.2-3.6
				c0-0.2,0-0.3,0-0.5c-0.4-1.6-1.4-2.6-2.6-3l0,0c1.8,0.1,3.7-1.2,3.9-3.7c0-0.2,0-0.3,0-0.5c-0.5-2-2-3-3.5-3.1c0,0,0,0,0-0.1
				c0.9-0.6,1.7-1.7,1.7-3.3c0-0.2,0-0.3-0.1-0.5c-1-3.3-4.6-3.7-6.4-1.6c-0.2,0.3-0.4,0.6-0.6,0.9c0,0,0,0-0.1,0
				c-0.3-1.5-1.5-2.8-3.6-3c-0.2,0-0.3,0-0.5,0c-2.4,0.6-3.4,2.6-3,4.4l0,0c-0.5-1.1-1.6-1.9-3.3-2.1c-0.2,0-0.3,0-0.5,0
				c-2.1,0.6-3.1,2.1-3.1,3.7c0,0.6-0.6,1-1.1,0.8c-1.3-0.3-2.7,0.1-3.6,1.2c-0.7,0.8-1,1.8-0.9,2.8c0.1,0.6-0.4,1-1,1
				c-1.1-0.1-2.2,0.3-3,1.3c-0.7,0.9-1,1.9-0.8,3c0.1,0.6-0.3,1.1-0.9,1.1c-1,0-2.1,0.4-2.8,1.3c-0.9,1-1.1,2.4-0.7,3.6
				c0.2,0.6-0.2,1.1-0.7,1.2c-1.5,0.2-2.8,1.3-3.2,3.2c0,0.2,0,0.3,0,0.5c0.2,1.8,1.1,2.7,2.1,3.2l0,0c-1.9-0.4-4.1,0.8-4.4,3.5
				c0,0.2,0,0.3,0,0.5c0.2,1,0.7,1.8,1.3,2.3c0.5,0.4,0.4,1.1,0,1.4c-0.8,0.6-1.3,1.6-1.5,2.9c0,0.2,0,0.3,0,0.5c0.5,2,2,3,3.4,3.1
				c0.4,0,0.7,0.3,0.8,0.7c0.3,1.4,1.5,2.7,3.6,2.9c0.2,0,0.3,0,0.5,0c1.3-0.3,2.2-1,2.6-1.9c0.3-0.5,1-0.6,1.4-0.2
				c0.6,0.5,1.4,0.9,2.5,1c0.2,0,0.3,0,0.5,0c2.6-0.7,3.5-3,2.8-4.9l0,0c0.6,0.9,1.7,1.7,3.5,1.6c0.2,0,0.3,0,0.5-0.1
				c1.8-0.6,2.7-2.1,2.7-3.6c0-0.6,0.5-1,1.1-0.9c1.2,0.2,2.6-0.2,3.5-1.2C390.3,505.6,390.5,504.5,390.4,503.5z"/>
			<polygon style="fill:#93B372;" points="357.6,523.7 354.9,521.5 394.1,477.5 395.2,478.4 			"/>
			<g>
				<g>
					
						<rect x="379.7" y="482.6" transform="matrix(0.1746 -0.9846 0.9846 0.1746 -157.2786 778.6724)" style="fill:#93B372;" width="12.2" height="1.2"/>
					
						<rect x="372.1" y="491.4" transform="matrix(0.1748 -0.9846 0.9846 0.1748 -172.2657 778.356)" style="fill:#93B372;" width="12.2" height="1.2"/>
					
						<rect x="364.6" y="500.2" transform="matrix(0.1747 -0.9846 0.9846 0.1747 -187.123 778.2693)" style="fill:#93B372;" width="12.2" height="1.2"/>
				</g>
				<g>
					
						<rect x="390.4" y="481.5" transform="matrix(-0.3206 -0.9472 0.9472 -0.3206 54.5088 1014.2148)" style="fill:#93B372;" width="1.2" height="12.2"/>
					
						<rect x="382.8" y="490.3" transform="matrix(-0.3213 -0.947 0.947 -0.3213 36.5831 1018.936)" style="fill:#93B372;" width="1.2" height="12.2"/>
					
						<rect x="375.3" y="499.2" transform="matrix(-0.3187 -0.9479 0.9479 -0.3187 16.7043 1022.5829)" style="fill:#93B372;" width="1.2" height="12.2"/>
				</g>
			</g>
		</g>
		<path style="opacity:0.3;fill:#7FB842;enable-background:new    ;" d="M355.8,522.2l45.4-51.6c-1.3-1.9-4.1-1.2-5.3,0.2
			c-0.2,0.3-0.4,0.6-0.6,0.9c0,0,0,0-0.1,0c-0.3-1.5-1.5-2.8-3.6-3c-0.2,0-0.3,0-0.5,0c-2.4,0.6-3.4,2.6-3,4.4l0,0
			c-0.5-1.1-1.6-1.9-3.3-2.1c-0.2,0-0.3,0-0.5,0c-2.1,0.6-3.1,2.1-3.1,3.7c0,0.6-0.6,1-1.1,0.8c-1.3-0.3-2.7,0.1-3.6,1.2
			c-0.7,0.8-1,1.8-0.9,2.8c0.1,0.6-0.4,1-1,1c-1.1-0.1-2.2,0.3-3,1.3c-0.7,0.9-1,1.9-0.8,3c0.1,0.6-0.3,1.1-0.9,1.1
			c-1,0-2.1,0.4-2.8,1.3c-0.9,1-1.1,2.4-0.7,3.6c0.2,0.6-0.2,1.1-0.7,1.2c-1.5,0.2-2.8,1.3-3.2,3.2c0,0.2,0,0.3,0,0.5
			c0.2,1.8,1.1,2.7,2.1,3.2l0,0c-1.9-0.4-4.1,0.8-4.4,3.5c0,0.2,0,0.3,0,0.5c0.2,1,0.7,1.8,1.3,2.3c0.5,0.4,0.4,1.1,0,1.4
			c-0.8,0.6-1.3,1.6-1.5,2.9c0,0.2,0,0.3,0,0.5c0.4,1.5,1.3,2.4,2.3,2.8l-7.6,8.5L355.8,522.2z"/>
	</g>
	<g>
		<g>
			<g>
				
					<rect x="394.6" y="500.3" transform="matrix(-0.9012 0.4335 -0.4335 -0.9012 976.8097 780.275)" style="fill:#899C60;" width="9.7" height="2.4"/>
			</g>
		</g>
		<path style="fill:#809159;" d="M385.3,507l-36.4,17.5l-10.9,5.2c0,0,2.6,0.8,3.2,1.6c0.6,0.8,4,5.3,5.8,6.6
			c1.8,1.3,5.7,2.3,8.8,0.8l35.4-17c4.7-2.3,4.9-7.4,5.3-9.2c0.3-1.8,2.2-11.9,2.2-11.9L385.3,507z"/>
		<path style="fill:#899C60;" d="M396.9,510c0.7-3.6,1.7-9.4,1.7-9.4l-13.3,6.4l-36.4,17.5l-10.9,5.2c0,0,2.6,0.8,3.2,1.6
			c0.4,0.5,1.9,2.4,3.3,4.1L396.9,510z"/>
		<g>
			<circle style="fill:#A2B182;" cx="353.8" cy="531" r="5"/>
			<circle style="fill:#A2B182;" cx="365" cy="525.6" r="5"/>
			<circle style="fill:#A2B182;" cx="376.3" cy="520.2" r="5"/>
			<circle style="fill:#A2B182;" cx="387.5" cy="514.8" r="5"/>
		</g>
		<g>
			<path style="fill:#80AF68;" d="M355.9,535.4c2.5-1.2,3.5-4.2,2.4-6.7l-9,4.4C350.5,535.6,353.5,536.6,355.9,535.4z"/>
			<path style="fill:#80AF68;" d="M367.1,530.1c2.5-1.2,3.4-4.1,2.2-6.6l0,0l-8.8,4.3C361.7,530.2,364.6,531.3,367.1,530.1z"/>
			<path style="fill:#80AF68;" d="M371.7,522.3c1.2,2.5,4.2,3.6,6.7,2.4c2.5-1.2,3.5-4.2,2.3-6.7c0,0,0,0,0-0.1L371.7,522.3
				L371.7,522.3z"/>
			<path style="fill:#80AF68;" d="M383,516.9c1.2,2.5,4.2,3.6,6.7,2.3c2.5-1.2,3.5-4.2,2.3-6.7c0,0,0-0.1-0.1-0.1L383,516.9
				C382.9,516.8,382.9,516.8,383,516.9z"/>
		</g>
	</g>
	<g>
		<g>
			<path style="fill:#FFA74F;" d="M354.2,519.8c-0.6,13-11.6,23.3-25.1,23.3s-24.5-10.3-25.1-23.3H354.2z"/>
			<path style="fill:#FFC270;" d="M348.4,519.8c-0.5,10.2-9,18.3-19.3,18.3c-10.3,0-18.8-8.1-19.3-18.3H348.4z"/>
			<g>
				<polygon style="fill:#F5E5E5;" points="332,519.8 344.5,532.3 342.8,534 330.3,521.5 330.3,539.1 327.9,539.1 327.9,521.5 
					315.4,534 313.7,532.3 326.2,519.8 				"/>
			</g>
			<path style="fill:#F5E5E5;" d="M309.7,519.8c1.1,9.8,9.4,17.3,19.4,17.3s18.3-7.5,19.4-17.3h2.4c-1.1,11.1-10.5,19.6-21.8,19.6
				c-11.3,0-20.6-8.5-21.8-19.6H309.7z"/>
		</g>
		<path style="opacity:0.75;fill:#E2E2E2;enable-background:new    ;" d="M329,543.1c0,0,0.1-0.1,0.2-0.1c13.5,0,24.4-9.5,25.1-23.5
			H329V543.1z"/>
	</g>
</g>
<g id="Globa_Estomago">
	<g>
		<path style="fill:#D4EAE1;" d="M358.2,631.6c3.4,0,55.6,0.4,58.7,0.4c3.2,0,4.2-0.6,4.2-3.3v-67.9c0-2.7-1-3.4-4.2-3.4
			c-3,0-55.4,0.2-58.8,0.2c-3.2,0-4.6-0.1-5.2-3.1h-0.2c-0.6,3-2.2,3.1-5.4,3.1c-3.4,0-53.3-0.3-56.3-0.3c-3.2,0-4.8,0.7-4.8,3.4
			v67.9c0,2.7,1.6,3.4,4.8,3.4c3,0,52.8-0.4,56.1-0.4c3.2,0,5,1.9,5.6,2.9h0.2C353.4,633.5,354.9,631.6,358.2,631.6z"/>
		<g>
			<text transform="matrix(1 0 0 1 321.2197 585.7263)" style="fill:#5BA4C2; font-family:'NeoSansStd-Medium'; font-size:10;">El agua ayuda</text>
			<text transform="matrix(1 0 0 1 305.5195 597.7263)" style="fill:#5BA4C2; font-family:'NeoSansStd-Medium'; font-size:10;">a convertir la comida</text>
			<text transform="matrix(1 0 0 1 328.8198 609.7263)" style="fill:#5BA4C2; font-family:'NeoSansStd-Medium'; font-size:10;">en energía</text>
		</g>
	</g>
	<g>
		<polyline style="fill:none;stroke:#D4EAE1;stroke-miterlimit:10;" points="657,332.1 351.5,392.1 351.5,421.5 		"/>
		<g>
			<path style="fill:none;stroke:#D4EAE1;stroke-miterlimit:10;" d="M663.8,328.5c1.3,1.3,1.3,3.5,0,4.8c-1.3,1.3-3.5,1.3-4.8,0
				c-1.3-1.3-1.3-3.5,0-4.8C660.2,327.2,662.4,327.2,663.8,328.5z"/>
		</g>
	</g>
</g>
</svg>
