<?xml version="1.0" encoding="utf-8"?>
<!-- Generator: Adobe Illustrator 16.0.0, SVG Export Plug-In . SVG Version: 6.00 Build 0)  -->
<!DOCTYPE svg PUBLIC "-//W3C//DTD SVG 1.1//EN" "http://www.w3.org/Graphics/SVG/1.1/DTD/svg11.dtd">
<svg version="1.1" id="Globa_x5F_vasos_x5F_03" xmlns="http://www.w3.org/2000/svg" xmlns:xlink="http://www.w3.org/1999/xlink"
	 x="0px" y="0px" width="1280px" height="700px" viewBox="0 0 1280 700" style="enable-background:new 0 0 1280 700;"
	 xml:space="preserve">
<g>
	<g>
		<g>
			<path style="fill:#5BA4C2;" d="M301,418.3c0-0.7-0.3-1.5-0.9-1.9l-3.3-2.2c-0.6-0.4-0.5-1,0-1.3l3.3-2.2c0.6-0.4,0.9-1.2,0.9-1.9
				v-4c0-0.7,0.9-0.8,1.6-0.8h38.6c0.7,0,0.9,0.1,0.9,0.8v19.3c0,0.7-0.2,0.9-0.9,0.9h-38.6c-0.7,0-1.6-0.2-1.6-0.9V418.3z"/>
		</g>
		<g>
			<text transform="matrix(1 0 0 1 306.0605 421.3066)"><tspan x="0" y="0" style="fill:#F1DEAE; font-family:'Gotham-Bold'; font-size:14.2157;">x</tspan><tspan x="8.5" y="0" style="fill:#E9D9DA; font-family:'Gotham-Bold'; font-size:17.2312; letter-spacing:-1;">0</tspan><tspan x="20" y="0" style="fill:#E9D9DA; font-family:'Gotham-Bold'; font-size:17.2312;">3</tspan></text>
		</g>
	</g>
	<g>
		<path style="fill:#5BA4C2;" d="M302.1,418.3c0.6,0.4,0.9,1.2,0.9,1.9v4.7h-0.4c-0.7,0-1.6-0.2-1.6-0.9v-5.8c0-0.2,0-0.4-0.1-0.7
			L302.1,418.3z"/>
		<path style="opacity:0.3;fill:#C9DEE1;" d="M299.8,413.8l1.3-1.2c0.6-0.4,0.9-1.2,0.9-1.9v-4c0-0.7,0.9-1.8,1.6-1.8h35.5
			c0.7,0,0.9,1.1,0.9,1.8v0.2h-34.4c-0.7,0-1.6,1.1-1.6,1.8v3c0,0.7,1-0.2-0.9,1.9s-3.3,1.5-3.3,1.5
			C299.2,414.8,299.3,414.2,299.8,413.8z"/>
	</g>
</g>
</svg>
