<?xml version="1.0" encoding="utf-8"?>
<!-- Generator: Adobe Illustrator 16.0.0, SVG Export Plug-In . SVG Version: 6.00 Build 0)  -->
<!DOCTYPE svg PUBLIC "-//W3C//DTD SVG 1.1//EN" "http://www.w3.org/Graphics/SVG/1.1/DTD/svg11.dtd">
<svg version="1.1" xmlns="http://www.w3.org/2000/svg" xmlns:xlink="http://www.w3.org/1999/xlink" x="0px" y="0px" width="1280px"
	 height="700px" viewBox="0 0 1280 700" enable-background="new 0 0 1280 700" xml:space="preserve">
<g id="Copywright">
	<g>
		<g>
			<text transform="matrix(1 0 0 1 581.376 669)"><tspan x="0" y="0" fill="#5BA4C2" font-family="'NeoSansStd-Regular'" font-size="8">COPYRIGHT</tspan><tspan x="43.048" y="1" fill="#5BA4C2" font-family="'NeoSansStd-Regular'" font-size="10">©</tspan><tspan x="50.798" y="0" fill="#5BA4C2" font-family="'NeoSansStd-Regular'" font-size="8"> 2015, MONTOTO</tspan></text>
		</g>
	</g>
</g>
<g id="Comparti_Links">
	<g>
		<text transform="matrix(1 0 0 1 559.2734 491.8379)"><tspan x="0" y="0" fill="#5BA4C2" font-family="'NeoSansStd-Medium'" font-size="16.44">COMPARTI</tspan><tspan x="79.371" y="0" fill="#5BA4C2" font-family="'NeoSansStd-Medium'" font-size="16.44"> </tspan><tspan x="82.824" y="0" fill="#5BA4C2" font-family="'NeoSansStd-Medium'" font-size="16.44">ESTE</tspan><tspan x="120.651" y="0" fill="#5BA4C2" font-family="'NeoSansStd-Medium'" font-size="16.44"> </tspan><tspan x="124.104" y="0" fill="#5BA4C2" font-family="'NeoSansStd-Medium'" font-size="16.44">LINK</tspan></text>
	</g>
</g>
<g id="Miscelaneas">
	<g>
		<path fill="none" stroke="#5BA4C2" stroke-width="1.391" stroke-miterlimit="10" d="M826.739,208.812h-38.506
			c-4.582,0-8.3-3.717-8.3-8.303v-2.683c0-1.057,0.857-1.914,1.915-1.914c1.057,0,1.914,0.857,1.914,1.914v2.683
			c0,4.586-3.719,8.303-8.3,8.303"/>
		<g>
			<path fill="none" stroke="#5BA4C2" stroke-width="1.391" stroke-miterlimit="10" d="M875.002,350.496
				c0-5.747-0.563-10.646-0.563-17.049c0-6.124,1.604-9.137,5.651-10.266v-0.377c-4.048-1.133-5.651-4.239-5.651-10.268
				c0-6.404,0.563-89.409,0.563-95.154c0-6.122-1.317-8.57-6.403-8.57c0,0-37.325,0-41.86,0"/>
		</g>
		<g>
			<g>
				<g>
					<path fill="#5BA4C2" d="M879.404,358.29l-0.002-0.011l-4.629-9.117v-0.021l-0.005,0.01l-0.005-0.01l-0.004,0.027l-4.856,8.992
						l-0.008,0.034c-0.455,0.787-0.726,1.699-0.739,2.671c-0.039,3.02,2.379,5.5,5.399,5.54c3.02,0.036,5.496-2.381,5.536-5.4
						C880.101,360.021,879.851,359.093,879.404,358.29z"/>
					<g>
						<g>
							<path fill="#72ADC8" d="M872.967,365.123c-0.028,0-0.06-0.003-0.091-0.01c-2.691-0.545-3.084-3.43-2.92-4.883
								c0.03-0.265,0.268-0.451,0.535-0.424c0.265,0.031,0.456,0.271,0.425,0.535c-0.014,0.14-0.337,3.32,2.152,3.823
								c0.262,0.052,0.43,0.309,0.378,0.569C873.399,364.969,873.193,365.126,872.967,365.123z"/>
						</g>
					</g>
				</g>
				<path fill="#72ADC8" d="M880.09,361.005c0.011-0.984-0.239-1.912-0.686-2.715l-0.002-0.011l-4.629-9.117v-0.021l-0.005,0.01
					l-0.005-0.01v17.254C877.685,366.32,880.051,363.955,880.09,361.005z"/>
				<g>
					<g>
						<path fill="#E2D4D5" d="M876.907,357.718l-1.005-2.694c-0.081-0.181-0.146-0.508,0.034-0.588s0.37,0.174,0.449,0.353
							l1.303,2.526c0.079,0.181,0.034,0.527-0.145,0.606C877.207,358.072,876.966,357.86,876.907,357.718z"/>
					</g>
					
						<ellipse transform="matrix(0.9969 -0.0787 0.0787 0.9969 -25.5269 70.2339)" fill="#E2D4D5" cx="877.833" cy="358.809" rx="0.521" ry="0.551"/>
				</g>
			</g>
			<g>
				<g>
					<path fill="#5BA4C2" d="M879.674,374.194l-0.001-0.005l-2.555-5.033v-0.013l-0.003,0.007l-0.002-0.007l-0.002,0.015
						l-2.681,4.963l-0.004,0.021c-0.251,0.433-0.4,0.937-0.408,1.473c-0.022,1.667,1.313,3.035,2.98,3.058
						c1.667,0.021,3.033-1.313,3.055-2.981C880.06,375.148,879.92,374.638,879.674,374.194z"/>
					<g>
						<g>
							<path fill="#72ADC8" d="M876.122,377.965c-0.017,0-0.034-0.002-0.051-0.004c-1.485-0.301-1.703-1.895-1.611-2.697
								c0.015-0.145,0.147-0.248,0.295-0.232c0.145,0.018,0.251,0.149,0.233,0.295c-0.008,0.078-0.185,1.833,1.189,2.111
								c0.144,0.028,0.237,0.168,0.208,0.313C876.36,377.881,876.246,377.967,876.122,377.965z"/>
						</g>
					</g>
				</g>
				<path fill="#72ADC8" d="M880.053,375.691c0.007-0.543-0.132-1.054-0.378-1.497l-0.001-0.005l-2.555-5.033v-0.013l-0.003,0.007
					l-0.002-0.007v9.524C878.725,378.626,880.032,377.32,880.053,375.691z"/>
				<g>
					<g>
						<path fill="#E2D4D5" d="M878.296,373.879l-0.556-1.488c-0.044-0.1-0.08-0.279,0.02-0.324c0.099-0.044,0.205,0.096,0.247,0.196
							l0.719,1.394c0.044,0.1,0.019,0.289-0.081,0.334C878.462,374.074,878.329,373.956,878.296,373.879z"/>
					</g>
					
						<ellipse transform="matrix(0.9969 -0.0781 0.0781 0.9969 -26.55 69.7414)" fill="#E2D4D5" cx="878.807" cy="374.479" rx="0.288" ry="0.304"/>
				</g>
			</g>
		</g>
	</g>
	<g>
		<path fill="none" stroke="#5BA4C2" stroke-width="1.391" stroke-miterlimit="10" d="M449.593,208.812h38.506
			c4.582,0,8.3-3.717,8.3-8.303v-2.683c0-1.057-0.857-1.914-1.915-1.914c-1.057,0-1.914,0.857-1.914,1.914v2.683
			c0,4.586,3.719,8.303,8.3,8.303"/>
		<g>
			<path fill="none" stroke="#5BA4C2" stroke-width="1.391" stroke-miterlimit="10" d="M449.593,208.812c-4.535,0-41.86,0-41.86,0
				c-5.086,0-6.403,2.448-6.403,8.57c0,5.745,0.563,88.75,0.563,95.154c0,6.028-1.604,9.135-5.651,10.268v0.377
				c4.048,1.129,5.651,4.142,5.651,10.266c0,6.402-0.563,11.302-0.563,17.049"/>
		</g>
		<g>
			<g>
				<g>
					<path fill="#5BA4C2" d="M396.928,358.29l0.002-0.011l4.629-9.117v-0.021l0.005,0.01l0.005-0.01l0.004,0.027l4.856,8.992
						l0.008,0.034c0.455,0.787,0.726,1.699,0.739,2.671c0.039,3.02-2.379,5.5-5.399,5.54c-3.02,0.036-5.496-2.381-5.536-5.4
						C396.231,360.021,396.481,359.093,396.928,358.29z"/>
					<g>
						<g>
							<path fill="#72ADC8" d="M403.365,365.123c0.028,0,0.06-0.003,0.091-0.01c2.691-0.545,3.084-3.43,2.92-4.883
								c-0.03-0.265-0.268-0.451-0.535-0.424c-0.265,0.031-0.456,0.271-0.425,0.535c0.014,0.14,0.337,3.32-2.152,3.823
								c-0.262,0.052-0.43,0.309-0.378,0.569C402.933,364.969,403.139,365.126,403.365,365.123z"/>
						</g>
					</g>
				</g>
				<path fill="#72ADC8" d="M396.242,361.005c-0.011-0.984,0.239-1.912,0.686-2.715l0.002-0.011l4.629-9.117v-0.021l0.005,0.01
					l0.005-0.01v17.254C398.647,366.32,396.281,363.955,396.242,361.005z"/>
				<g>
					<g>
						<path fill="#E2D4D5" d="M399.425,357.718l1.005-2.694c0.081-0.181,0.146-0.508-0.034-0.588s-0.37,0.174-0.449,0.353
							l-1.303,2.526c-0.079,0.181-0.034,0.527,0.145,0.606C399.125,358.072,399.366,357.86,399.425,357.718z"/>
					</g>
					
						<ellipse transform="matrix(-0.9969 -0.0787 0.0787 -0.9969 767.509 747.8807)" fill="#E2D4D5" cx="398.499" cy="358.809" rx="0.521" ry="0.551"/>
				</g>
			</g>
			<g>
				<g>
					<path fill="#5BA4C2" d="M396.658,374.194l0.001-0.005l2.555-5.033v-0.013l0.003,0.007l0.002-0.007l0.002,0.015l2.681,4.963
						l0.004,0.021c0.251,0.433,0.4,0.937,0.408,1.473c0.022,1.667-1.313,3.035-2.98,3.058c-1.667,0.021-3.033-1.313-3.055-2.981
						C396.272,375.148,396.412,374.638,396.658,374.194z"/>
					<g>
						<g>
							<path fill="#72ADC8" d="M400.21,377.965c0.017,0,0.034-0.002,0.051-0.004c1.485-0.301,1.703-1.895,1.611-2.697
								c-0.015-0.145-0.147-0.248-0.295-0.232c-0.145,0.018-0.251,0.149-0.233,0.295c0.008,0.078,0.185,1.833-1.189,2.111
								c-0.144,0.028-0.237,0.168-0.208,0.313C399.972,377.881,400.086,377.967,400.21,377.965z"/>
						</g>
					</g>
				</g>
				<path fill="#72ADC8" d="M396.279,375.691c-0.007-0.543,0.132-1.054,0.378-1.497l0.001-0.005l2.555-5.033v-0.013l0.003,0.007
					l0.002-0.007v9.524C397.607,378.626,396.3,377.32,396.279,375.691z"/>
				<g>
					<g>
						<path fill="#E2D4D5" d="M398.036,373.879l0.556-1.488c0.044-0.1,0.08-0.279-0.02-0.324c-0.099-0.044-0.205,0.096-0.247,0.196
							l-0.719,1.394c-0.044,0.1-0.019,0.289,0.081,0.334C397.87,374.074,398.003,373.956,398.036,373.879z"/>
					</g>
					
						<ellipse transform="matrix(-0.9969 -0.0781 0.0781 -0.9969 764.6049 778.8467)" fill="#E2D4D5" cx="397.525" cy="374.479" rx="0.288" ry="0.304"/>
				</g>
			</g>
		</g>
	</g>
</g>
<g id="Muchas_Gracias">
	<g>
		<g>
			<text transform="matrix(1 0 0 1 515.3828 211.0215)"><tspan x="0" y="0" fill="#2B4E6B" font-family="'LoveloBlack'" font-size="31.0728">MUCHAS</tspan><tspan x="118.448" y="0" fill="#2B4E6B" font-family="'LoveloBlack'" font-size="31.0728" letter-spacing="-2"> </tspan><tspan x="124.787" y="0" fill="#2B4E6B" font-family="'LoveloBlack'" font-size="31.0728">GRACIAS</tspan></text>
		</g>
	</g>
</g>
</svg>
