<?xml version="1.0" encoding="utf-8"?>
<!-- Generator: Adobe Illustrator 16.0.0, SVG Export Plug-In . SVG Version: 6.00 Build 0)  -->
<!DOCTYPE svg PUBLIC "-//W3C//DTD SVG 1.1//EN" "http://www.w3.org/Graphics/SVG/1.1/DTD/svg11.dtd">
<svg version="1.1" xmlns="http://www.w3.org/2000/svg" xmlns:xlink="http://www.w3.org/1999/xlink" x="0px" y="0px" width="1280px"
	 height="700px" viewBox="0 0 1280 700" style="enable-background:new 0 0 1280 700;" xml:space="preserve">
<g id="Intestino">
	<g>
		<g>
			<g>
				<g>
					<g>
						<g>
							<path style="fill:#CEAD8D;" d="M552,556c-9.4-0.6-17.9-3.7-18.5-14.2c0-0.5-0.3-5.4-0.4-16.7c-0.1-10.9,8.7-19.8,19.6-19.9
								c0.1,0,0.1,0,0.2,0c10.8,0,19.6,8.7,19.7,19.6c0.1,10.3,0.3,14.7,0.3,14.8C572,556.7,552.3,556,552,556z"/>
							<path style="fill:#CEAD8D;" d="M561.9,514.9c-5.2,0-10.5-2.1-14.3-6.2c-7.5-7.9-7.1-20.4,0.8-27.9
								c14.4-13.6,33.5-15.5,35.7-15.7c0.5,0,1-0.1,1.4-0.1l6-0.1c6.7,0.1,12.6,3.2,16.2,8.3c3.5-5.1,9.4-8.5,16.1-8.6l32.3-0.3
								c0.1,0,0.1,0,0.2,0c6.4,0,12.2,3.1,15.8,7.9c2.8-4.3,7.2-7.5,12.6-8.6c5.5-1.1,9-3.3,10.2-6.5c1.1-2.9,2.9-5.4,5.1-7.4
								c-2.3-1.5-4.3-3.4-5.8-5.9c-2.4-3.8-9-5.1-12.2-5.3c-6.2-0.3-11.7-3.5-15-8.3c-3.5,5.1-9.4,8.5-16.1,8.6l-32.3,0.3
								c-0.1,0-0.1,0-0.2,0c-6.6,0-12.5-3.3-16-8.3c-3.5,5.1-9.4,8.5-16,8.6l-0.4,0c-0.6,0-1.2,0-1.8-0.1
								c-2.8-0.2-27.3-2.7-41.8-22.3c-5.9-7.9-4.9-18.8,1.8-25.6c-7.9-4.7-11.7-14.5-8.5-23.5c5.7-16.1,19.5-27.9,37.9-32.3
								c7.9-1.9,15.8,1.3,20.4,7.4c3.5-5.3,9.6-8.9,16.5-8.9h32.3c6.7,0,12.6,3.3,16.2,8.4c3.6-5.1,9.5-8.4,16.2-8.4h7.5
								c1.8-0.2,6.6-1.1,9.5-3.7c8.1-7.3,20.5-6.7,27.8,1.4c7.3,8.1,6.7,20.5-1.4,27.8c-14.3,13-32.7,13.8-34.8,13.9
								c-0.2,0-0.4,0-0.6,0h-8.1c-6.7,0-12.6-3.3-16.2-8.4c-3.6,5.1-9.5,8.4-16.2,8.4h-32.3c-6.5,0-12.2-3.1-15.8-7.9
								c-2.7,4-6.8,7.1-11.9,8.3c-5.4,1.3-8.7,3.7-9.9,7c-1,2.8-2.6,5.3-4.6,7.3c2.2,1.3,4.2,3,5.8,5.2c3.1,4.2,10.1,6,13,6.4
								c6.3,0.3,11.8,3.4,15.2,8.3c3.5-5.1,9.4-8.5,16.1-8.6l32.3-0.3c0.1,0,0.1,0,0.2,0c6.6,0,12.5,3.3,16.1,8.3
								c3.8-5.5,10.2-8.9,17.3-8.5c6.9,0.4,30.2,3.1,43.2,23.4c5.3,8.2,3.7,18.9-3.3,25.2c7.7,5,11.1,14.8,7.6,23.7
								c-6.3,16-20.2,26.9-39.1,30.7c-7.7,1.6-15.2-1.6-19.7-7.5c-3.5,5.3-9.5,8.9-16.3,9l-32.3,0.3c-6.6,0.1-12.6-3.2-16.2-8.3
								c-3.5,5.1-9.4,8.5-16.1,8.6l-5,0c-2.2,0.3-8,1.8-11.4,5C571.6,513.1,566.7,514.9,561.9,514.9z"/>
							<path style="fill:#CEAD8D;" d="M714.6,335.1c-10.9,0-19.7-8.8-19.7-19.7v-15.8c0-10.9,8.8-19.7,19.7-19.7
								c10.9,0,19.7,8.8,19.7,19.7v15.8C734.3,326.3,725.5,335.1,714.6,335.1z"/>
						</g>
					</g>
				</g>
			</g>
		</g>
		<path style="fill:#E3BE9A;" d="M676.3,488.4c19-3.8,32.9-14.7,39.1-30.7c3.5-8.9,0.1-18.7-7.6-23.7c7-6.4,8.6-17,3.3-25.2
			c-0.5-0.7-1-1.4-1.5-2.1c-10.6-5.8-21.4-7-25.7-7.2c-7.1-0.4-13.5,3.3-17.3,8.7c-3.6-5-9.4-8.1-16.1-8.1h-0.2l-32.3,0.1
			c-6.7,0.1-12.6,3.3-16.1,8.5c-3.4-4.8-9-8-15.2-8.3c-2.9-0.4-9.9-2.3-13-6.4c-1.6-2.2-3.6-3.9-5.8-5.2c0.7-0.7,1.4-1.6,2-2.5
			c-3.2-0.6-9.5-2.4-12.3-6.3c-1.6-2.2-3.6-3.9-5.8-5.2c2-2,3.6-4.5,4.6-7.3c1.2-3.4,4.5-5.8,9.9-7c5.1-1.2,9.2-4.2,11.9-8.2
			c3.6,4.8,9.3,8,15.8,8h32.3c6.7,0,12.6-3.3,16.2-8.4c3.6,5.1,9.5,8.4,16.2,8.4h8.1c0.2,0,0.4-0.1,0.6-0.1c2.1-0.1,20.5-1,34.8-14
			c7.4-6.8,8.4-17.9,2.8-25.9c7.6-2.7,12.9-10,12.9-18.6v-15.8c0-1.9-0.3-3.7-0.8-5.5c-0.9-0.1-1.8-0.2-2.7-0.2
			c-10.9,0-19.5,8.8-19.5,19.7v15.8c0,4.2,1.3,8.1,3.5,11.3c-2.4,0.8-4.6,2-6.6,3.8c-2.9,2.6-7.7,3.5-9.5,3.5h-7.5
			c-6.7,0-12.6,3.3-16.2,8.4c-3.6-5.1-9.5-8.4-16.2-8.4h-32.3c-6.9,0-12.9,3.7-16.5,9c-4.6-6.1-12.5-9.2-20.4-7.3
			c-18.4,4.4-32.2,16.2-37.9,32.3c-3.2,9,0.6,18.8,8.5,23.5c-6.7,6.8-7.7,17.7-1.8,25.6c0,0,0.1,0.1,0.1,0.1
			c11.9,6.8,23.8,8,25.6,8.2c0.6,0.1,1.2,0.1,1.8,0.1l0.4,0c6.7-0.1,12.5-3.6,16-8.7c3.6,5,9.4,8.1,16,8.1h0.2l32.3-0.2
			c6.7-0.1,12.6-3.4,16.1-8.5c3.4,4.7,8.8,8,15,8.3c3.1,0.2,9.7,1.5,12.2,5.3c1.6,2.4,3.6,4.4,5.8,5.9c-0.9,0.8-1.8,1.8-2.5,2.8
			c0.2,0,0.4,0,0.6,0.1c3.1,0.2,9.7,1.5,12.2,5.3c1.6,2.4,3.6,4.4,5.8,5.9c-2.2,2-3.9,4.5-5.1,7.4c-1.3,3.2-4.7,5.4-10.2,6.5
			c-5.4,1.1-9.9,4.1-12.6,8.4c-3.6-4.8-9.3-8.1-15.8-8.1h-0.2l-32.3,0.5c-6.7,0.1-12.6,3.6-16.1,8.7c-3.6-5.1-9.5-8.2-16.2-8.2
			l-6,0.1c-0.5,0-1,0-1.4,0.1c-2.1,0.2-21.3,2.1-35.7,15.7c-7.2,6.8-8.1,17.8-2.5,25.7c-7.5,2.8-12.8,10.1-12.8,18.6
			c0.1,10.9,0.3,15.8,0.4,16.7c0.8,0.1,1.6,0.2,2.5,0.2c0.4,0,20.1,0.6,20.8-16.4c0,0-0.2-4.5-0.3-14.8c0-4.2-1.4-8-3.6-11.2
			c2.4-0.9,4.6-2.3,6.6-4.1c3.4-3.2,9.2-4.6,11.4-5l5,0c6.7-0.1,12.6-3.4,16.1-8.6c3.6,5.1,9.6,8.4,16.2,8.3l32.3-0.3
			c6.9-0.1,12.9-3.6,16.3-9C661.1,486.7,668.7,489.9,676.3,488.4z"/>
	</g>
</g>
<g id="Circulo_Gota_Intestino">
	<g>
		<g>
			<g>
				<circle style="fill:none;stroke:#D4EAE1;stroke-miterlimit:10;" cx="916.3" cy="187.1" r="37.8"/>
			</g>
		</g>
	</g>
</g>
<g id="Gota_Intestino">
	<g>
		<g>
			<g>
				<g>
					<g>
						<path style="fill:#76B3CC;" d="M889.7,172.6L889.7,172.6l26.1-51.5V121l0,0.1l0-0.1l0,0.2l27.4,50.7l0,0.2
							c2.6,4.4,4.1,9.6,4.2,15.1c0.2,17-13.4,31-30.5,31.3c-17,0.2-31-13.4-31.2-30.5C885.8,182.4,887.2,177.2,889.7,172.6z"/>
					</g>
				</g>
			</g>
			<path style="fill:#8BBFD4;" d="M885.9,188c-0.1-5.6,1.4-10.8,3.9-15.3l0-0.1l26.1-51.4V121l0,0.1l0-0.1v97.3
				C899.4,217.9,886.1,204.6,885.9,188z"/>
		</g>
		<g>
			<g>
				<g>
					<g>
						<path style="fill:#D4EAE1;" d="M898.6,200.9c-0.7,0-1.7-0.1-2.1-0.2c-0.2,0-0.3-0.1-0.3-0.3c-0.2-2.3-0.4-4.7-0.5-7
							c0-0.2,0.1-0.3,0.3-0.3c0.3,0,1.3-0.1,2.1-0.1c2.1,0,3.4,1.2,3.5,3.3c0,0.5,0.1,1,0.1,1.6C901.8,199.9,900.7,201,898.6,200.9z
							 M900.1,196.2c-0.1-1.6-0.9-2-2-2c-0.4,0-0.7,0-0.9,0c0.1,1.8,0.2,3.6,0.4,5.4c0.2,0,0.5,0.1,0.9,0.1c1,0,1.8-0.3,1.7-1.9
							C900.2,197.2,900.1,196.7,900.1,196.2z"/>
						<path style="fill:#D4EAE1;" d="M907.6,201c-0.3,0-0.7,0.1-2,0.1c-1.4,0-2.4-0.4-2.5-2.2c-0.1-1.2-0.1-2.5-0.2-3.7
							c-0.1-1.8,1-2.2,2.4-2.2c1.3,0,1.7,0.1,2,0.2c0.2,0,0.2,0.1,0.2,0.2c0,0.2,0,0.5,0,0.7c0,0.1-0.1,0.2-0.2,0.2
							c-0.7,0-1.5,0-2.2,0c-0.6,0-0.8,0.2-0.8,0.9c0,0.4,0,0.8,0,1.2c1,0,1.9,0,2.9,0c0.1,0,0.2,0.1,0.2,0.2c0,0.3,0,0.5,0,0.8
							c0,0.1-0.1,0.2-0.2,0.2c-1,0-1.9,0-2.9-0.1c0,0.5,0,0.9,0.1,1.4c0,0.7,0.3,0.9,0.9,0.9c0.7,0,1.4,0,2.1,0
							c0.1,0,0.2,0.1,0.2,0.2c0,0.2,0,0.5,0,0.7C907.8,200.9,907.8,201,907.6,201z"/>
						<path style="fill:#D4EAE1;" d="M917.4,201.2c-0.4,0-0.7,0-1.1,0c-0.1,0-0.2-0.1-0.2-0.2c-0.2-0.7-0.3-1.4-0.5-2.1
							c-0.8,0-1.6,0-2.4,0c-0.2,0.7-0.3,1.4-0.4,2c0,0.1-0.1,0.2-0.2,0.2c-0.4,0-0.7,0-1.1,0c-0.1,0-0.2-0.1-0.2-0.2c0,0,0,0,0-0.1
							c0.5-2.2,1-4.5,1.6-6.7c0.2-1,1-1.1,1.5-1.1c0.5,0,1.2,0.1,1.5,1.1c0.6,2.3,1.2,4.5,1.7,6.8c0,0,0,0,0,0.1
							C917.6,201.1,917.5,201.2,917.4,201.2z M914.5,194.5c0-0.1-0.1-0.2-0.2-0.2c-0.1,0-0.1,0-0.2,0.2c-0.2,1.1-0.5,2.1-0.7,3.2
							c0.6,0,1.2,0,1.9,0C915.1,196.6,914.8,195.6,914.5,194.5z"/>
						<path style="fill:#D4EAE1;" d="M923.2,201c-0.5,0.1-1.2,0.2-2.3,0.2c-1.1,0-2.8-0.8-2.8-3.3c0-0.5,0-1,0-1.6
							c0-2.6,1.6-3.3,2.9-3.3c1,0,1.9,0.1,2.3,0.2c0.1,0,0.2,0.1,0.2,0.2c0,0.2,0,0.5,0,0.7c0,0.1,0,0.2-0.2,0.2c0,0,0,0,0,0
							c-0.5,0-1.2-0.1-2.3-0.1c-0.7,0-1.4,0.5-1.4,2c0,0.5,0,1,0,1.6c0,1.5,0.7,2,1.3,2c0.4,0,0.7,0,1,0c0-0.9,0-1.8,0.1-2.7
							c0-0.1,0.1-0.2,0.2-0.2c0.4,0,0.7,0,1.1,0c0.1,0,0.2,0.1,0.2,0.2c0,1.2-0.1,2.4-0.1,3.6C923.4,200.9,923.4,201,923.2,201z"/>
						<path style="fill:#D4EAE1;" d="M927.8,201.1c-1.7,0-2.8-0.7-2.8-3c0-1.6,0.1-3.2,0.1-4.8c0-0.1,0.1-0.2,0.2-0.2
							c0.4,0,0.7,0,1.1,0c0.1,0,0.2,0.1,0.2,0.2c0,1.6-0.1,3.2-0.1,4.8c0,1.2,0.2,1.8,1.4,1.8c1.1,0,1.5-0.6,1.5-1.8
							c0.1-1.6,0.1-3.2,0.2-4.8c0-0.1,0.1-0.2,0.2-0.2c0.4,0,0.7,0,1.1,0c0.1,0,0.2,0.1,0.2,0.2c0,1.6-0.1,3.2-0.2,4.8
							C930.7,200.3,929.5,201.1,927.8,201.1z"/>
						<path style="fill:#D4EAE1;" d="M937.5,200.7c-0.4,0-0.7,0-1.1,0c-0.1,0-0.2-0.1-0.2-0.2c-0.1-0.7-0.2-1.3-0.3-2
							c-0.8,0-1.6,0.1-2.4,0.1c-0.2,0.7-0.4,1.3-0.6,2c0,0.1-0.1,0.2-0.2,0.2c-0.4,0-0.7,0-1.1,0c-0.1,0-0.2-0.1-0.2-0.2
							c0,0,0,0,0-0.1c0.7-2.2,1.4-4.5,2.1-6.7c0.3-1,1.1-1.1,1.5-1.1c0.5,0,1.2,0.1,1.4,1c0.5,2.2,0.9,4.4,1.3,6.5c0,0,0,0,0,0.1
							C937.7,200.6,937.6,200.7,937.5,200.7z M935.2,194.3c0-0.1-0.1-0.2-0.2-0.2c-0.1,0-0.1,0-0.2,0.2c-0.3,1-0.6,2.1-0.9,3.2
							c0.6,0,1.2,0,1.9-0.1C935.6,196.4,935.4,195.4,935.2,194.3z"/>
					</g>
				</g>
				<g>
					<g>
						<path style="fill:#D4EAE1;" d="M906.4,176.3c-2.2,4.4-4.3,8.8-6.3,13.1c-0.1,0.3-0.3,0.4-0.6,0.4c-1.1,0-2.1,0-3.2,0
							c-0.3,0-0.4-0.1-0.4-0.3c0-0.1,0-0.2,0.1-0.2c2-4.3,4.3-8.6,6.6-13c0,0,0-0.1,0-0.1c0-0.1-0.1-0.1-0.2-0.1
							c-2.1,0.1-4.2,0.1-6.3,0.2c-0.2,0-0.5-0.2-0.4-0.4c0.1-0.7,0.1-1.5,0.2-2.2c0-0.2,0.3-0.4,0.5-0.4c3.2-0.1,6.5-0.3,9.7-0.3
							c0.4,0,0.7,0.3,0.7,0.7c0,0.6-0.1,1.1-0.1,1.7C906.8,175.5,906.6,175.8,906.4,176.3z"/>
						<path style="fill:#D4EAE1;" d="M913.8,190.1c-1.5,0-3.2-0.3-4.6-0.7c-0.2-0.1-0.5-0.2-0.5-0.5c0-0.6,0-1.2,0-1.8
							c0-0.3,0.2-0.4,0.4-0.4c0,0,0,0,0,0c1.5,0.2,3.3,0.3,4.2,0.3c2.2,0,2.7-0.9,2.7-2.5c0-0.1,0-0.1,0-0.2c0-1.6-0.7-2.1-3.3-2.1
							c-1.2,0-2.4,0-3.6,0c-0.2,0-0.3-0.2-0.3-0.3c0,0,0,0,0,0c0.3-2.9,0.6-5.7,0.9-8.6c0-0.2,0.2-0.4,0.5-0.4c2.9,0,5.8-0.1,8.7,0
							c0.2,0,0.5,0.2,0.5,0.4c0,0.8,0,1.5,0,2.3c0,0.3-0.2,0.4-0.5,0.4c-2.1,0-4.1,0-6.2,0c-0.1,1.1-0.2,2.1-0.3,3.2
							c0.2,0,0.4,0,0.7,0c4,0,6.8,1.1,6.9,5.2c0,0.1,0,0.1,0,0.2C920.1,188.1,917.9,190.1,913.8,190.1z"/>
						<path style="fill:#D4EAE1;" d="M924.8,182.2c-2.2,0-3.4-1.3-3.5-4c0-0.6,0-1.2,0-1.7c0-2.7,1.1-4,3.2-3.9c2.1,0,3.4,1.3,3.5,4
							c0,0.6,0,1.1,0.1,1.7C928.2,181,927,182.2,924.8,182.2z M925.8,176.6c0-1.6-0.5-2-1.1-2c-0.7,0-1.1,0.4-1,1.9
							c0,0.6,0,1.2,0,1.7c0,1.6,0.5,2,1.1,2c0.7,0,1.1-0.4,1-2C925.8,177.7,925.8,177.1,925.8,176.6z M936,173.5
							c-2.6,5.2-5.8,10.5-9,15.9c-0.2,0.3-0.3,0.5-0.5,0.5c-0.8,0-1.6,0-2.4,0c-0.2,0-0.3-0.1-0.3-0.3c0-0.1,0-0.1,0.1-0.2
							c3.2-5.4,6.4-10.8,9.1-16c0.2-0.3,0.3-0.4,0.5-0.4c0.8,0,1.5,0.1,2.3,0.1c0.2,0,0.2,0.1,0.2,0.2
							C936.1,173.3,936.1,173.4,936,173.5z M935.6,189.9c-2.2,0-3.4-1.2-3.4-3.9c0-0.6,0-1.1,0-1.7c0-2.6,1.1-3.9,3.3-3.9
							c2.2,0,3.5,1.3,3.5,3.9c0,0.6,0,1.1,0,1.7C939.1,188.6,937.8,189.9,935.6,189.9z M936.7,184.4c0-1.5-0.5-1.9-1.1-1.9
							c-0.7,0-1.1,0.4-1.1,1.9c0,0.6,0,1.1,0,1.7c0,1.5,0.4,1.9,1.1,1.9c0.7,0,1.1-0.4,1.1-1.9C936.8,185.5,936.8,184.9,936.7,184.4
							z"/>
					</g>
				</g>
			</g>
		</g>
	</g>
</g>
<g id="Banner_Intestino">
	<g>
		<g>
			<path style="fill:#E2D4D5;" d="M858.9,159.5c2.6,2.5,5.2,5.1,7.7,7.7c0.5,3.6,1,7.2,1.7,10.7c3.4-1.8,7-3.3,10.5-4.7
				c-2.4-6.4-4.9-12.9-7.3-19.3C867.3,155.5,863.1,157.4,858.9,159.5z"/>
			<path style="fill:#DBDBDB;" d="M962.9,150.7c-29.9-11.4-63-11.4-92.9,0c2.5,6.4,4.9,12.9,7.4,19.3c25.2-9.6,53-9.6,78.2,0
				C958,163.5,960.5,157.1,962.9,150.7z"/>
			<path style="fill:#E2D4D5;" d="M973.5,160.6c-2.6,2.5-5.2,5.1-7.7,7.8c-0.5,3.6-1.1,7.1-1.7,10.7c-3.4-1.7-6.9-3.3-10.4-4.6
				c2.4-6.4,4.9-12.9,7.3-19.3C965.3,156.7,969.4,158.5,973.5,160.6z"/>
		</g>
		<path style="fill:#F5E5E5;" d="M917.1,142.1c-15.7-0.1-32.2,2.9-47.1,8.6c2.5,6.6,4.9,12.8,7.4,19.3c12.5-4.7,26.5-7.3,39.6-7.2
			C917.1,155.8,917.1,149.1,917.1,142.1z"/>
		<g>
			<path style="fill:#C8A37F;" d="M897.4,157.5c-0.3,0.1-0.7,0.3-1.8,0.5c-1.3,0.2-2.3,0.1-2.7-1.6c-0.2-1.2-0.5-2.3-0.7-3.5
				c-0.4-1.7,0.6-2.3,2-2.5c1.2-0.2,1.7-0.2,2-0.2c0.2,0,0.2,0,0.2,0.2c0,0.2,0.1,0.4,0.1,0.6c0,0.1-0.1,0.2-0.2,0.2
				c-0.7,0.1-1.4,0.2-2.1,0.4c-0.6,0.1-0.8,0.4-0.7,1c0.1,0.4,0.1,0.7,0.2,1.1c0.9-0.2,1.8-0.3,2.8-0.5c0.1,0,0.2,0.1,0.2,0.2
				c0,0.2,0.1,0.5,0.1,0.7c0,0.1-0.1,0.2-0.2,0.2c-0.9,0.2-1.8,0.3-2.7,0.5c0.1,0.4,0.2,0.9,0.2,1.3c0.1,0.7,0.4,0.8,0.9,0.7
				c0.7-0.1,1.3-0.2,2-0.4c0.1,0,0.2,0.1,0.2,0.2c0,0.2,0.1,0.4,0.1,0.6C897.6,157.4,897.6,157.5,897.4,157.5z"/>
			<path style="fill:#C8A37F;" d="M899.6,157.3c-0.3,0-0.6,0.1-0.9,0.1c-0.1,0-0.2-0.1-0.2-0.2c-0.4-2.4-0.8-4.8-1.1-7.3
				c0-0.1,0.1-0.2,0.2-0.2c0.3,0,0.6-0.1,1-0.1c0.1,0,0.2,0.1,0.2,0.2c0.3,2.4,0.7,4.8,1.1,7.3C899.8,157.1,899.8,157.2,899.6,157.3
				z"/>
			<path style="fill:#C8A37F;" d="M904.1,156.7c-0.3,0-0.7,0.1-1,0.1c-0.1,0-0.2-0.1-0.2-0.2c-0.3-2.4-0.6-4.8-0.8-7.1
				c0-0.1,0.1-0.2,0.2-0.2c0.3,0,0.7-0.1,1-0.1c0.1,0,0.2,0.1,0.2,0.2c0.3,2.4,0.5,4.8,0.8,7.1C904.3,156.6,904.2,156.7,904.1,156.7
				z"/>
			<path style="fill:#C8A37F;" d="M909.7,156.2c-0.3,0-0.6,0-0.9,0.1c-0.1,0-0.2-0.1-0.2-0.2c-0.1-1.1-0.2-2.2-0.2-3.3
				c-0.1-0.9-0.2-1.1-1-1.1c-0.4,0-0.7,0.2-1.1,0.5c0.1,1.4,0.2,2.7,0.3,4.1c0,0.1-0.1,0.2-0.2,0.2c-0.3,0-0.6,0.1-0.9,0.1
				c-0.1,0-0.2-0.1-0.2-0.2c-0.2-1.8-0.3-3.5-0.5-5.3c0-0.1,0.1-0.2,0.2-0.2c0.3,0,0.6-0.1,0.9-0.1c0.1,0,0.2,0.1,0.2,0.2
				c0,0.1,0,0.1,0,0.2c0.6-0.4,1-0.6,1.6-0.6c1.5-0.1,1.9,0.9,1.9,2.2c0.1,1.1,0.1,2.2,0.2,3.3C909.8,156.1,909.8,156.2,909.7,156.2
				z"/>
			<path style="fill:#C8A37F;" d="M913.5,156.1c-0.2,0-0.5,0.1-0.7,0.1c-1.1,0-1.6-0.2-1.6-1.6c0-1.1-0.1-2.1-0.1-3.2
				c-0.3,0-0.6-0.1-1-0.1c-0.1,0-0.2-0.1-0.2-0.2c0-0.2,0-0.3,0-0.5c0-0.1,0.1-0.2,0.2-0.2c0.3,0,0.7,0,1,0c0-0.3,0-0.6,0-0.8
				c0-0.1,0.1-0.2,0.2-0.2c0.3-0.1,0.6-0.1,1-0.2c0,0,0,0,0,0c0.1,0,0.2,0,0.2,0.1c0,0.4,0,0.7,0,1c0.3,0,0.6,0,0.9,0
				c0.1,0,0.2,0.1,0.2,0.2c0,0.2,0,0.4,0,0.6c0,0.1-0.1,0.2-0.2,0.2c-0.3,0-0.6,0-0.9,0c0,1.1,0.1,2.1,0.1,3.2c0,0.5,0,0.6,0.4,0.6
				c0.2,0,0.4,0,0.5,0c0.1,0,0.2,0,0.2,0.1c0,0.2,0,0.4,0,0.6C913.7,156,913.6,156,913.5,156.1z"/>
			<path style="fill:#C8A37F;" d="M918.6,153.6c-1.1,0-2.2,0-3.3,0c0,0,0,0,0,0c0,0.6,0.3,1.3,1.2,1.3c0.7,0,1.4-0.1,1.8-0.1
				c0,0,0,0,0,0c0.1,0,0.2,0.1,0.2,0.2c0,0.2,0,0.4,0,0.7c0,0.2,0,0.2-0.2,0.3c-0.6,0.1-1,0.2-1.9,0.2c-1,0-2.4-0.5-2.4-2.5
				c0-0.3,0-0.5,0-0.8c0-1.6,0.8-2.6,2.4-2.6c1.6,0,2.5,1.1,2.4,2.6c0,0.2,0,0.4,0,0.6C918.8,153.5,918.7,153.6,918.6,153.6z
				 M917.4,152.6c0-0.8-0.4-1.3-1.1-1.3c-0.6,0-1.1,0.5-1.1,1.3c0,0,0,0,0,0C916,152.7,916.7,152.7,917.4,152.6
				C917.4,152.6,917.4,152.6,917.4,152.6z"/>
			<path style="fill:#C8A37F;" d="M921.3,156.2c-0.4,0-1.2-0.1-1.8-0.3c-0.1,0-0.2-0.1-0.2-0.2c0-0.2,0-0.4,0-0.6
				c0-0.1,0.1-0.2,0.2-0.2c0,0,0,0,0,0c0.5,0.1,1.4,0.2,1.7,0.2c0.6,0,0.7-0.2,0.7-0.5c0-0.2-0.1-0.3-0.4-0.5
				c-0.4-0.3-0.9-0.6-1.4-0.9c-0.5-0.3-0.8-0.8-0.8-1.4c0-1,0.7-1.5,2-1.5c0.8,0,1.3,0.1,1.8,0.3c0.1,0,0.2,0.1,0.2,0.2
				c0,0.2,0,0.4,0,0.6c0,0.1-0.1,0.2-0.2,0.2c0,0,0,0,0,0c-0.3-0.1-1.1-0.2-1.7-0.2c-0.5,0-0.7,0.1-0.7,0.4c0,0.2,0.1,0.3,0.4,0.4
				c0.4,0.3,0.9,0.6,1.3,0.9c0.8,0.6,0.9,1.1,0.9,1.6C923.2,155.6,922.5,156.3,921.3,156.2z"/>
			<path style="fill:#C8A37F;" d="M926.7,156.5c-0.2,0-0.5,0-0.7,0c-1.1-0.1-1.6-0.4-1.5-1.7c0.1-1.1,0.1-2.1,0.2-3.2
				c-0.3-0.1-0.6-0.1-1-0.2c-0.1,0-0.2-0.1-0.2-0.2c0-0.2,0-0.3,0-0.5c0-0.1,0.1-0.2,0.2-0.2c0.3,0,0.6,0,1,0.1c0-0.3,0-0.6,0.1-0.8
				c0-0.1,0.1-0.2,0.2-0.2c0.3,0,0.7-0.1,1-0.1c0,0,0,0,0,0c0.1,0,0.2,0.1,0.2,0.2c0,0.3-0.1,0.7-0.1,1c0.3,0,0.6,0.1,0.9,0.1
				c0.1,0,0.2,0.1,0.2,0.2c0,0.2,0,0.4-0.1,0.6c0,0.1-0.1,0.2-0.2,0.2c-0.3,0-0.6-0.1-0.9-0.1c-0.1,1.1-0.2,2.1-0.3,3.2
				c0,0.5,0,0.6,0.3,0.6c0.2,0,0.4,0,0.5,0c0.1,0,0.2,0.1,0.2,0.2c0,0.2,0,0.4-0.1,0.6C926.9,156.4,926.8,156.5,926.7,156.5z"/>
			<path style="fill:#C8A37F;" d="M929.2,150.2c-0.3,0-0.7-0.1-1-0.1c-0.1,0-0.2-0.1-0.2-0.2c0-0.3,0.1-0.6,0.1-0.9
				c0-0.1,0.1-0.2,0.2-0.2c0.3,0,0.7,0.1,1,0.1c0.1,0,0.2,0.1,0.2,0.2c0,0.3-0.1,0.6-0.1,0.9C929.5,150.1,929.4,150.2,929.2,150.2z
				 M928.5,156.6c-0.3,0-0.6-0.1-0.9-0.1c-0.1,0-0.2-0.1-0.2-0.2c0.2-1.8,0.3-3.5,0.5-5.3c0-0.1,0.1-0.2,0.2-0.2
				c0.3,0,0.6,0.1,1,0.1c0.1,0,0.2,0.1,0.2,0.2c-0.2,1.8-0.4,3.5-0.6,5.3C928.7,156.6,928.6,156.7,928.5,156.6z"/>
			<path style="fill:#C8A37F;" d="M934,157.3c-0.3,0-0.6-0.1-0.9-0.1c-0.1,0-0.2-0.1-0.2-0.2c0.2-1.1,0.3-2.2,0.5-3.3
				c0.1-0.9,0.1-1.1-0.7-1.3c-0.3,0-0.7,0-1.2,0.2c-0.2,1.4-0.3,2.7-0.5,4.1c0,0.1-0.1,0.2-0.2,0.2c-0.3,0-0.6-0.1-0.9-0.1
				c-0.1,0-0.2-0.1-0.2-0.2c0.2-1.8,0.4-3.5,0.6-5.3c0-0.1,0.1-0.2,0.2-0.2c0.3,0,0.6,0.1,0.9,0.1c0.1,0,0.2,0.1,0.2,0.2
				c0,0.1,0,0.1,0,0.2c0.6-0.3,1.1-0.4,1.7-0.3c1.5,0.2,1.6,1.2,1.4,2.5c-0.2,1.1-0.3,2.2-0.5,3.3
				C934.2,157.3,934.1,157.4,934,157.3z"/>
			<path style="fill:#C8A37F;" d="M937.2,158c-1.5-0.3-2.2-1.5-1.9-2.9c0-0.3,0.1-0.5,0.1-0.8c0.2-1.4,1.2-2.4,2.9-2.1
				c1.6,0.3,2.2,1.5,1.9,3c-0.1,0.3-0.1,0.5-0.2,0.8C939.8,157.4,938.8,158.2,937.2,158z M938.9,154.9c0.2-0.8-0.1-1.4-0.8-1.6
				c-0.7-0.1-1.2,0.3-1.3,1.2c0,0.3-0.1,0.5-0.1,0.8c-0.1,0.8,0.1,1.4,0.8,1.5c0.7,0.1,1.2-0.3,1.3-1.2
				C938.8,155.4,938.9,155.1,938.9,154.9z"/>
		</g>
	</g>
</g>
<g id="Globa_Intestino">
	<g>
		<path style="fill:#D4EAE1;" d="M920.2,110.1c3.4,0,77.6,0.4,80.7,0.4c3.2,0,4.2-0.6,4.2-3.3V52.2c0-2.7-1-3.4-4.2-3.4
			c-3,0-77.4,0.2-80.8,0.2c-3.2,0-4.6-0.1-5.2-3.1h-0.2c-0.6,3-2.2,3.1-5.4,3.1c-3.4,0-75.3-0.3-78.3-0.3c-3.2,0-4.8,0.7-4.8,3.4
			v54.9c0,2.7,1.6,3.4,4.8,3.4c3,0,74.8-0.4,78.1-0.4c3.2,0,5,1.9,5.6,2.9h0.2C915.3,112,916.9,110.1,920.2,110.1z"/>
		<g>
			<text transform="matrix(1 0 0 1 859.5703 77.2275)"><tspan x="0" y="0" style="fill:#5BA4C2; font-family:'NeoSansStd-Medium'; font-size:10;">El agua ayuda al cuerpo </tspan><tspan x="-2.1" y="12" style="fill:#5BA4C2; font-family:'NeoSansStd-Medium'; font-size:10;">a absorber los nutrientes</tspan></text>
		</g>
	</g>
	<g>
		<g>
			<path style="fill:none;stroke:#D4EAE1;stroke-miterlimit:10;" d="M719.5,322c-1.3-1.3-1.3-3.5,0-4.8c1.3-1.3,3.5-1.3,4.8,0
				c1.3,1.3,1.3,3.5,0,4.8C723,323.3,720.8,323.3,719.5,322z"/>
		</g>
		<polyline style="fill:none;stroke:#D4EAE1;stroke-miterlimit:10;" points="915.5,235 915.5,269.2 724.9,318.5 		"/>
	</g>
</g>
</svg>
