<?xml version="1.0" encoding="utf-8"?>
<!-- Generator: Adobe Illustrator 16.0.0, SVG Export Plug-In . SVG Version: 6.00 Build 0)  -->
<!DOCTYPE svg PUBLIC "-//W3C//DTD SVG 1.1//EN" "http://www.w3.org/Graphics/SVG/1.1/DTD/svg11.dtd">
<svg version="1.1" id="Layer_1" xmlns="http://www.w3.org/2000/svg" xmlns:xlink="http://www.w3.org/1999/xlink" x="0px" y="0px"
	 width="255.221px" height="282.088px" viewBox="0 0 255.221 282.088" enable-background="new 0 0 255.221 282.088"
	 xml:space="preserve">
<g>
	<g>
		<g>
			<g opacity="0.4">
				<path fill="#90CDC9" d="M170.487,62.932c-25.805,0-46.972,20.197-48.548,45.611c-0.063-1.008-0.106-2.021-0.106-3.041
					c0-26.826,21.826-48.65,48.654-48.65c26.826,0,48.65,21.824,48.65,48.65c0,1.02-0.044,2.033-0.105,3.041
					C217.46,83.129,196.292,62.932,170.487,62.932z"/>
			</g>
			<g opacity="0.2">
				<path fill="#B5DACF" d="M219.032,108.543c-1.572-25.414-22.74-45.611-48.545-45.611s-46.972,20.197-48.548,45.611
					c1.576,25.412,22.743,45.61,48.548,45.61S217.46,133.955,219.032,108.543z"/>
			</g>
		</g>
		<g>
			<g>
				<path fill="#E3D4D5" d="M34.17,226.25l4.301,4.299l4.301,4.302l4.3,4.301l4.301,4.301c-4.75,4.75-12.452,4.748-17.201-0.002
					C29.422,238.701,29.42,230.998,34.17,226.25z"/>
			</g>
			<g>
				<path fill="#E3D4D5" d="M216.774,65.146c-0.676-0.748-1.375-1.484-2.096-2.205c-23.753-23.752-62.255-23.75-86.006,0
					c-23.75,23.75-23.751,62.254,0.001,86.003c0.722,0.722,1.458,1.418,2.204,2.099c23.87,21.629,60.771,20.935,83.803-2.097
					C237.71,125.918,238.403,89.016,216.774,65.146z M208.155,73.768c16.854,19.082,16.17,48.332-2.078,66.578
					c-18.246,18.246-47.494,18.932-66.578,2.076c-0.758-0.668-1.506-1.354-2.227-2.074c-18.969-18.969-18.967-49.836,0.002-68.805
					c18.971-18.971,49.834-18.971,68.803-0.002C206.8,72.264,207.485,73.01,208.155,73.768z"/>
			</g>
			<g>
				<polygon fill="#3C3541" points="107.172,161.849 124.374,144.646 128.675,148.944 132.975,153.246 115.771,170.449 
					111.472,166.147 				"/>
			</g>
			<g>
				<polygon fill="#4C4452" points="102.924,174.694 94.323,166.097 102.871,157.547 107.172,161.849 111.472,166.147 				"/>
			</g>
			<g>
				<polygon fill="#4C4452" points="98.624,178.996 42.771,234.851 38.47,230.549 34.17,226.25 90.023,170.396 				"/>
			</g>
			<g>
				<polygon fill="#3C3541" points="102.924,174.694 111.472,166.147 115.771,170.449 120.072,174.75 111.524,183.297 				"/>
			</g>
			<g>
				<polygon fill="#3C3541" points="42.771,234.851 98.624,178.996 107.225,187.599 51.371,243.451 47.07,239.149 				"/>
			</g>
			<g>
				<polygon fill="#E3D4D5" points="98.624,178.996 90.023,170.396 94.323,166.097 102.924,174.694 111.524,183.297 
					107.225,187.599 				"/>
			</g>
		</g>
	</g>
	<path opacity="0.44" fill="#B5DACF" enable-background="new    " d="M182.728,81.176c-6.72,0-12.166,5.445-12.166,12.162
		c0,6.717,5.446,12.162,12.166,12.162c6.715,0,12.158-5.445,12.158-12.162C194.886,86.621,189.442,81.176,182.728,81.176z"/>
	<circle opacity="0.44" fill="#B5DACF" enable-background="new    " cx="196.407" cy="79.404" r="3.938"/>
</g>
</svg>
