<?xml version="1.0" encoding="utf-8"?>
<!-- Generator: Adobe Illustrator 16.0.0, SVG Export Plug-In . SVG Version: 6.00 Build 0)  -->
<!DOCTYPE svg PUBLIC "-//W3C//DTD SVG 1.1//EN" "http://www.w3.org/Graphics/SVG/1.1/DTD/svg11.dtd">
<svg version="1.1" xmlns="http://www.w3.org/2000/svg" xmlns:xlink="http://www.w3.org/1999/xlink" x="0px" y="0px" width="1280px"
	 height="700px" viewBox="0 0 1280 700" enable-background="new 0 0 1280 700" xml:space="preserve">
<g id="Miscelaneas">
	<g>
		<g>
			<g>
				<path fill="none" stroke="#5BA4C2" stroke-width="0.75" stroke-miterlimit="10" d="M640.316,634c0,0,0-14.333,0-19.333
					c0-3.086,1.002-4.066,3.666-4.066s136.926,0,136.926,0c2.988,0,3.763-1.438,3.763-5.035c0-3.375-0.331-9.253-0.331-13.016
					c0-3.542,0.941-5.367,3.32-6.032v-0.222c-2.379-0.663-3.32-2.434-3.32-6.031c0-3.762,0.331-6.641,0.331-10.017"/>
			</g>
			<g>
				<path fill="none" stroke="#5BA4C2" stroke-width="0.75" stroke-miterlimit="10" d="M496.021,570.248
					c0,3.376,0.331,6.255,0.331,10.017c0,3.598-0.941,5.368-3.32,6.031v0.222c2.379,0.665,3.32,2.49,3.32,6.032
					c0,3.763-0.331,9.641-0.331,13.016c0,3.597,0.774,5.035,3.763,5.035c0,0,134.2,0,136.864,0s3.666,0.98,3.666,4.066
					c0,5,0,19.333,0,19.333"/>
			</g>
		</g>
		<g>
			<g>
				<path fill="#5BA4C2" d="M643.808,633.881l-0.002-0.008l-3.49-6.875v-0.017l-0.004,0.008l-0.004-0.008l-0.003,0.021l-3.662,6.781
					l-0.006,0.025c-0.343,0.594-0.547,1.281-0.558,2.014c-0.029,2.277,1.794,4.147,4.071,4.178c2.277,0.027,4.145-1.795,4.175-4.072
					C644.333,635.186,644.145,634.486,643.808,633.881z"/>
				<g>
					<g>
						<path fill="#72ADC8" d="M638.954,639.033c-0.021,0-0.045-0.002-0.068-0.008c-2.029-0.41-2.326-2.586-2.202-3.682
							c0.022-0.199,0.202-0.34,0.403-0.319c0.2,0.023,0.344,0.204,0.32,0.403c-0.011,0.105-0.254,2.504,1.623,2.883
							c0.197,0.039,0.324,0.232,0.285,0.43C639.28,638.916,639.125,639.035,638.954,639.033z"/>
					</g>
				</g>
			</g>
			<path fill="#72ADC8" d="M644.325,635.928c0.008-0.742-0.181-1.441-0.518-2.047l-0.002-0.008l-3.49-6.875v-0.017l-0.004,0.008
				l-0.004-0.008v13.011C642.512,639.936,644.296,638.152,644.325,635.928z"/>
			<g>
				<g>
					<path fill="#E2D4D5" d="M641.925,633.449l-0.758-2.032c-0.061-0.136-0.11-0.382,0.025-0.442s0.279,0.131,0.339,0.266
						l0.982,1.905c0.06,0.136,0.025,0.396-0.109,0.457C642.151,633.717,641.97,633.557,641.925,633.449z"/>
				</g>
				
					<ellipse transform="matrix(0.9968 -0.0795 0.0795 0.9968 -48.4183 53.1291)" fill="#E2D4D5" cx="642.623" cy="634.271" rx="0.393" ry="0.415"/>
			</g>
		</g>
		<g>
			<g>
				<path fill="#5BA4C2" d="M644.012,645.873l-0.001-0.004l-1.927-3.795v-0.01l-0.002,0.005l-0.002-0.005l-0.002,0.012l-2.021,3.742
					l-0.003,0.015c-0.189,0.327-0.302,0.707-0.308,1.111c-0.017,1.257,0.99,2.289,2.247,2.306c1.257,0.016,2.287-0.99,2.304-2.248
					C644.302,646.593,644.197,646.207,644.012,645.873z"/>
				<g>
					<g>
						<path fill="#72ADC8" d="M641.333,648.717c-0.013,0-0.025-0.002-0.038-0.004c-1.12-0.227-1.284-1.428-1.215-2.033
							c0.012-0.109,0.111-0.188,0.223-0.176c0.109,0.014,0.189,0.113,0.176,0.223c-0.006,0.059-0.14,1.382,0.896,1.592
							c0.108,0.021,0.179,0.127,0.157,0.236C641.513,648.652,641.427,648.718,641.333,648.717z"/>
					</g>
				</g>
			</g>
			<path fill="#72ADC8" d="M644.297,647.002c0.005-0.409-0.1-0.795-0.285-1.129l-0.001-0.004l-1.927-3.795v-0.01l-0.002,0.005
				l-0.002-0.005v7.182C643.296,649.215,644.281,648.23,644.297,647.002z"/>
			<g>
				<g>
					<path fill="#E2D4D5" d="M642.973,645.635l-0.419-1.122c-0.033-0.075-0.061-0.21,0.015-0.244
						c0.074-0.033,0.154,0.072,0.187,0.147l0.542,1.051c0.033,0.075,0.015,0.219-0.061,0.252
						C643.098,645.782,642.997,645.693,642.973,645.635z"/>
				</g>
				
					<ellipse transform="matrix(0.9971 -0.0765 0.0765 0.9971 -47.5549 51.1271)" fill="#E2D4D5" cx="643.358" cy="646.088" rx="0.217" ry="0.229"/>
			</g>
		</g>
	</g>
</g>
<g id="Texto">
	<g>
		<text transform="matrix(1 0 0 1 513.2666 572.1387)"><tspan x="0" y="0" fill="#5BA4C2" font-family="'NeoSansStd-Medium'" font-size="14">Los expertos en Nutrición recomiendan</tspan><tspan x="1.942" y="18" fill="#5BA4C2" font-family="'NeoSansStd-Medium'" font-size="14">consumir </tspan><tspan x="64.325" y="18" fill="#AAE0DE" font-family="'NeoSansStd-Bold'" font-size="16">8 Vasos de Agua por día </tspan></text>
	</g>
	<g>
		<text transform="matrix(1 0 0 1 421.1641 680)" fill="#2B4E6B" font-family="'NeoSansStd-Light'" font-size="9">USAPEEC México. Consejo de Exportadores de Carne y Huevo de Estados Unidos. Todos los derechos reservados 2013.</text>
	</g>
</g>
</svg>
