<?xml version="1.0" encoding="utf-8"?>
<!-- Generator: Adobe Illustrator 16.0.0, SVG Export Plug-In . SVG Version: 6.00 Build 0)  -->
<!DOCTYPE svg PUBLIC "-//W3C//DTD SVG 1.1//EN" "http://www.w3.org/Graphics/SVG/1.1/DTD/svg11.dtd">
<svg version="1.1" id="Losteau" xmlns="http://www.w3.org/2000/svg" xmlns:xlink="http://www.w3.org/1999/xlink" x="0px" y="0px"
	 width="1280px" height="700px" viewBox="0 0 1280 700" style="enable-background:new 0 0 1280 700;" xml:space="preserve">
<path style="fill:#9CCDBB;" d="M712,517.1c0,2.2-38.2,4-59,4c-20.8,0-37.7-1.8-37.7-4c0-2.2,16.9-4,37.7-4
	C673.9,513.1,712,514.9,712,517.1z"/>
<g>
	<g>
		<g>
			<path style="fill:#E3BE9A;" d="M675,510c-12.1-1.1-18-1.1-19-3V385h-8v118.3V517h31.4C679.4,517,680.9,510.6,675,510z"/>
			<path style="opacity:0.1;fill:#FFBE9A;stroke:#D8B791;stroke-miterlimit:10;" d="M655.8,511c-0.9-1.2-2.5-2.9-5.5-3.2
				c-1-0.1-1.8-0.5-2.8-0.5v11.3h9.9C657.5,516.5,657.7,513.5,655.8,511z"/>
			<path style="fill:#FFBE9A;" d="M650.1,510c-12.1-1.1-17.1-1.1-19.1-3V385h-8v118.3V517h31.6C654.6,517,656,510.6,650.1,510z"/>
		</g>
		<g>
			<g>
				<g>
					<g>
						<g>
							<g>
								<g>
									<path style="fill:#FDB78F;" d="M613.9,282.7l-1.1-0.1c-1.9-0.2-3.8,0.9-4,2.8l-7.2,64.7c-0.2,2.2,1.7,4.2,3.9,4.5
										c2.2,0.2,4.6-1.3,4.8-3.5l7.1-64.7C617.7,284.5,615.8,283,613.9,282.7z"/>
								</g>
							</g>
						</g>
					</g>
				</g>
				<g>
					<g>
						<g>
							<g>
								<g>
									<path style="fill:#E3BE9A;" d="M662.5,282.7l1.1-0.1c1.9-0.2,3.8,0.9,4,2.8l7.2,64.7c0.2,2.2-1.7,4.2-3.9,4.5
										c-2.2,0.2-4.6-1.3-4.8-3.5l-7.1-64.7C658.7,284.5,660.6,283,662.5,282.7z"/>
								</g>
							</g>
						</g>
					</g>
				</g>
			</g>
			<g>
				<g>
					<g>
						<path style="fill:#FFBE9A;" d="M615.2,289.4c0-10.2,12.5-17.3,22.1-17.4c0.3,0,2.1,0,2.3,0c9.6,0,22,7.5,22,17.5
							s-0.1,102.8-0.1,104.2c0,11-10.3,13.7-22.9,13.7c-12.1,0-23.2-1.7-23.2-12.2C615.4,395.1,615.2,289.4,615.2,289.4z"/>
					</g>
					<path style="fill:#E3BE9A;" d="M640,272c0,0,0.2,0,0.3,0c9.6,0,21.7,7.5,21.7,17.5s0.5,102.8,0.5,104.2
						c0,11-10.4,13.7-22.4,13.7V272z"/>
					<g>
						<circle style="opacity:0.5;fill:#D76A74;" cx="627.7" cy="303.3" r="1.9"/>
						<circle style="opacity:0.5;fill:#D76A74;" cx="648.4" cy="303.3" r="1.9"/>
					</g>
				</g>
			</g>
		</g>
		<g>
			<g>
				<path style="fill-rule:evenodd;clip-rule:evenodd;fill:#4C4452;" d="M617.4,226.7c-3.5-1.3-6.1-4.7-6.1-8.7
					c0-5.1,4.1-9.2,9.2-9.2c5.1,0,9.2,4.1,9.2,9.2c0,4-2.5,7.4-6.1,8.7c3.5,1.3,6.1,4.7,6.1,8.7c0,5.1-4.1,9.2-9.2,9.2
					c-5.1,0-9.2-4.1-9.2-9.2C611.3,231.4,613.8,228,617.4,226.7z"/>
				<path style="fill-rule:evenodd;clip-rule:evenodd;fill:#3C3541;" d="M653.9,226.7c-3.5-1.3-6.1-4.7-6.1-8.7
					c0-5.1,4.1-9.2,9.2-9.2c5.1,0,9.2,4.1,9.2,9.2c0,4-2.5,7.4-6.1,8.7c3.5,1.3,6.1,4.7,6.1,8.7c0,5.1-4.1,9.2-9.2,9.2
					c-5.1,0-9.2-4.1-9.2-9.2C647.8,231.4,650.4,228,653.9,226.7z"/>
			</g>
			<g>
				<path style="fill:#FFBE9A;" d="M644.7,261.1l0,11.9c0,3.1-2.5,5.6-5.6,5.6c-3.1,0-5.6-2.5-5.6-5.6l0-11.9L644.7,261.1z"/>
				<path style="opacity:0.8;fill:#CEAD8D;" d="M644.7,261.1l0,11.9c0,3.1-2.5,5.6-6.1,5.6l0-17.5L644.7,261.1z"/>
			</g>
			<g>
				<path style="fill:#E3BE9A;" d="M660,231c0-1.6-1.3-3-3-3H649c-1.6,0-3,1.3-3,3v4c0,1.6,1.3,3,3,3h8.1c1.6,0,3-1.3,3-3V231z"/>
				<path style="fill:#FFBE9A;" d="M631,231c0-1.6-1.3-3-3-3H620c-1.6,0-3,1.3-3,3v4c0,1.6,1.3,3,3,3h8.1c1.6,0,3-1.3,3-3V231z"/>
			</g>
			<g>
				<g>
					<g>
						<g>
							<path style="fill:#FFBE9A;" d="M656.4,198.5l-35.3,0.1l0.1,49.2c0,9.7,7.9,17.6,17.7,17.6c9.7,0,17.6-7.9,17.6-17.7
								L656.4,198.5z"/>
						</g>
					</g>
					<path style="fill:#E3BE9A;" d="M656.4,198.5l0.1,49.2c0,9.7-7.9,17.7-18,17.7l-0.1-66.8L656.4,198.5z"/>
				</g>
			</g>
			<g>
				<path style="fill:#4C4452;" d="M630.5,210.7c-2.7,2.7-4.7,4.1-8.6,4.6c-1.8,0.2-4.6,0.1-6.1-0.5c0,0-0.1,0-0.1,0
					c-4.2,0-7.8-4.3-7.8-8.8c0-4.5,3.4-8.1,7.6-8.1c0.7,0,1.5,0.1,2.1,0.3c-0.4-1-0.6-2.1-0.6-3.3c0-0.3,0-0.5,0-0.8
					c0.4-4.5,3.9-7.3,8.3-7.3c2,0,4,0,4,0s1.2-7.8,9.5-7.8c0.1,0,0,33.3,0,33.3c-0.1,0-0.1,0-0.2,0
					C635.7,212.3,633,211.7,630.5,210.7z"/>
				<path style="fill:#3C3541;" d="M647.1,210.7c2.7,2.7,4.7,4.1,8.6,4.6c1.8,0.2,4.6,0.1,6-0.5c0,0,0.1,0,0.1,0
					c4.2,0,7.8-4.3,7.8-8.8c0-4.5-3.4-8.1-7.6-8.1c-0.7,0-1.5,0.1-2.1,0.3c0.4-1,0.6-2.1,0.6-3.3c0-0.3,0-0.5,0-0.8
					c-0.4-4.5-3.9-7.3-8.3-7.3c-2,0-4,0-4,0s-0.5-7.8-9.5-7.8c-0.1,0,0,33.3,0,33.3c0.1,0,0.1,0,0.2,0
					C641.8,212.3,644.6,211.7,647.1,210.7z"/>
			</g>
			<g>
				<g>
					<g>
						<path style="fill:#4C4452;" d="M649,232.1c0,1.1-0.9,2-2,2c-1.1,0-2-0.9-2-2c0-1.1,0.9-2,2-2C648.1,230.1,649,231,649,232.1z"
							/>
					</g>
				</g>
				<g>
					<g>
						<path style="fill:#4C4452;" d="M632.5,232.1c0,1.1-0.9,2-2,2c-1.1,0-2-0.9-2-2c0-1.1,0.9-2,2-2
							C631.7,230.1,632.5,231,632.5,232.1z"/>
					</g>
				</g>
			</g>
			<path style="fill:#E3BE9A;" d="M638.8,236.8"/>
		</g>
		<g>
			<path style="fill:#FDB78F;" d="M606,345.7c-2.2,0-4.4,1.8-4.4,4l-0.1,51.9l8.8,0l0.1-51.9C610.4,347.5,608.2,345.7,606,345.7z"/>
			<g>
				<g>
					<g>
						<g>
							<path style="fill:#FDB78F;" d="M618,410.5l0-3.5c0-1.2-0.5-2.3-1.3-3.1l-2.2-2.2c-1-1-2.3-1.5-3.6-1.5l-3.4,0l0,0.7
								c0,2,0.8,4,2.2,5.4l0.2,0.2c0.7,0.7,1.8,1.2,2.8,1.2h1.9l0,2.9c0,0.9,0.8,1.7,1.7,1.7l0,0C617.2,412.2,618,411.5,618,410.5z"
								/>
						</g>
					</g>
				</g>
				<g>
					<g>
						<path style="fill:#FDB78F;" d="M611.9,421.9L611.9,421.9c-1.1,0-2-0.9-2-2l0-10.3l-8,0l0,8.4c0,1.1-0.9,2-2,2l0,0
							c-1.1,0-1.4-0.9-1.4-2l0-8.4l0-5c0-3.4,2.2-6.2,5.6-6.2l3.6,0c3.4,0,6.2,2.8,6.2,6.2l0,5l0,0l0,10.3
							C613.9,421,613,421.9,611.9,421.9z"/>
					</g>
					<g>
						<path style="fill:#FDB78F;" d="M607.8,422.6L607.8,422.6c0.9,0,1.7-0.7,1.7-1.6l0-12.1l-3.3,0l0,12.1
							C606.2,421.9,606.9,422.6,607.8,422.6z"/>
					</g>
					<g>
						<path style="fill:#FDB78F;" d="M604,422.3L604,422.3c0.9,0,1.7-0.7,1.7-1.6l0-12.1l-3.3,0l0,12.1
							C602.3,421.6,603.1,422.3,604,422.3z"/>
					</g>
				</g>
			</g>
		</g>
		<g>
			<path style="fill:#E3BE9A;" d="M670.4,345.7c2.2,0,4.4,1.8,4.4,4l0.1,51.9l-8.8,0l-0.1-51.9C666,347.5,668.2,345.7,670.4,345.7z"
				/>
			<g>
				<g>
					<g>
						<g>
							<path style="fill:#E3BE9A;" d="M659.2,410.5l0-3.5c0-1.2,0.5-2.3,1.3-3.1l2.2-2.2c1-1,2.3-1.5,3.6-1.5l3.4,0l0,0.7
								c0,2-0.8,4-2.2,5.4l-0.2,0.2c-0.7,0.7-1.8,1.2-2.8,1.2h-1.9l0,2.9c0,0.9-0.8,1.7-1.7,1.7l0,0
								C660,412.2,659.2,411.5,659.2,410.5z"/>
						</g>
					</g>
				</g>
				<g>
					<g>
						<path style="fill:#E3BE9A;" d="M665.3,421.9L665.3,421.9c1.1,0,2-0.9,2-2l0-10.3l8,0l0,8.4c0,1.1,0.9,2,2,2l0,0
							c1.1,0,1.4-0.9,1.4-2l0-8.4l0-5c0-3.4-2.2-6.2-5.6-6.2l-3.5,0c-3.4,0-6.2,2.8-6.2,6.2l0,5l0,0l0,10.3
							C663.3,421,664.2,421.9,665.3,421.9z"/>
					</g>
					<g>
						<path style="fill:#E3BE9A;" d="M669.4,422.6L669.4,422.6c-0.9,0-1.7-0.7-1.7-1.6l0-12.1l3.3,0l0,12.1
							C671.1,421.9,670.3,422.6,669.4,422.6z"/>
					</g>
					<g>
						<path style="fill:#E3BE9A;" d="M673.3,422.3L673.3,422.3c-0.9,0-1.7-0.7-1.7-1.6l0-12.1l3.3,0l0,12.1
							C674.9,421.6,674.2,422.3,673.3,422.3z"/>
					</g>
				</g>
			</g>
		</g>
	</g>
	<g>
		<path style="fill-rule:evenodd;clip-rule:evenodd;fill:#E2D4D5;" d="M645.6,245H638v11.4c6-0.3,10.2-6.8,10.2-6.8
			C649.5,247.1,648.4,245,645.6,245z"/>
		<path style="fill-rule:evenodd;clip-rule:evenodd;fill:#F5E5E5;" d="M630,245h8v11.4c-6-0.3-10.6-6.8-10.6-6.8
			C626.1,247.1,627.2,245,630,245z"/>
	</g>
</g>
<g>
</g>
<g>
</g>
<g>
</g>
<g>
</g>
<g>
</g>
<g>
</g>
<g>
</g>
<g>
</g>
<g>
</g>
<g>
</g>
<g>
</g>
<g>
</g>
<g>
</g>
<g>
</g>
<g>
</g>
</svg>
