<?xml version="1.0" encoding="utf-8"?>
<!-- Generator: Adobe Illustrator 16.0.0, SVG Export Plug-In . SVG Version: 6.00 Build 0)  -->
<!DOCTYPE svg PUBLIC "-//W3C//DTD SVG 1.1//EN" "http://www.w3.org/Graphics/SVG/1.1/DTD/svg11.dtd">
<svg version="1.1" id="Lousteau_x5F_plaza" xmlns="http://www.w3.org/2000/svg" xmlns:xlink="http://www.w3.org/1999/xlink" x="0px"
	 y="0px" width="1280px" height="700px" viewBox="0 0 1280 700" style="enable-background:new 0 0 1280 700;" xml:space="preserve">
<g>
	<g>
		<g>
			<g>
				<g>
					<polygon style="fill:#A1CFBE;" points="568.3,461 723.2,468.9 720.5,461.5 567.1,458 					"/>
				</g>
			</g>
		</g>
		<g>
			<g>
				<g>
					<ellipse style="fill:#A1CFBE;" cx="720.5" cy="465.2" rx="13.9" ry="3.7"/>
				</g>
			</g>
			<g>
				<g>
					<circle style="fill:#F5E5E5;" cx="720.4" cy="451.8" r="13.4"/>
					<path style="fill:#E2D4D5;" d="M720.7,440.8c0.1,0,0.2,0.1,0.2,0.2v5.1c0,0.1-0.1,0.2-0.2,0.2h-0.4c-0.1,0-0.2-0.1-0.2-0.2V441
						c0-0.1,0.1-0.2,0.2-0.2H720.7z"/>
					<rect x="720.3" y="441" style="opacity:0.2;fill:#4C4452;" width="0.4" height="5.1"/>
					<path style="fill:#E2D4D5;" d="M711.3,447.2l4.8,1.5c0.1,0,0.1,0.1,0.1,0.2l-0.1,0.4c0,0,0,0.1-0.1,0.1c0,0-0.1,0-0.1,0
						l-4.8-1.5c-0.1,0-0.1-0.1-0.1-0.2l0.1-0.4c0,0,0-0.1,0.1-0.1C711.3,447.1,711.3,447.1,711.3,447.2z"/>
					<polygon style="opacity:0.2;fill:#4C4452;" points="716,449.2 716.1,448.8 711.3,447.3 711.2,447.7 					"/>
					<path style="fill:#E2D4D5;" d="M730.1,447.6l0.1,0.4c0,0,0,0.1,0,0.1c0,0-0.1,0.1-0.1,0.1l-4.9,1.3c-0.1,0-0.2,0-0.2-0.1
						l-0.1-0.4c0,0,0-0.1,0-0.1c0,0,0.1-0.1,0.1-0.1l4.9-1.3C729.9,447.5,730,447.5,730.1,447.6z"/>
					
						<rect x="727.3" y="446" transform="matrix(0.2516 0.9678 -0.9678 0.2516 978.5206 -368.404)" style="opacity:0.2;fill:#4C4452;" width="0.4" height="5.1"/>
					<path style="fill:#E2D4D5;" d="M717.8,454l0.3,0.2c0.1,0.1,0.1,0.2,0,0.2l-3.4,4.8c0,0-0.1,0.1-0.1,0.1c0,0-0.1,0-0.1,0
						l-0.3-0.2c-0.1-0.1-0.1-0.2,0-0.2l3.4-4.8c0,0,0.1-0.1,0.1-0.1C717.7,454,717.8,454,717.8,454z"/>
					<polygon style="opacity:0.2;fill:#4C4452;" points="718,454.4 717.7,454.2 714.3,459 714.6,459.2 					"/>
					<path style="fill:#E2D4D5;" d="M723.5,454c0,0,0.1,0,0.1,0.1l2.9,4.7c0,0.1,0,0.2-0.1,0.2l-0.3,0.2c0,0-0.1,0-0.1,0
						c-0.1,0-0.1,0-0.1-0.1l-2.9-4.7c0-0.1,0-0.2,0-0.2l0.3-0.2C723.4,454,723.5,454,723.5,454z"/>
					<polygon style="opacity:0.2;fill:#4C4452;" points="723.2,454.5 723.5,454.2 726.4,458.9 726.1,459.2 					"/>
					<path style="fill:#4C4452;" d="M717.5,454.3l-1.6-5c-0.1-0.2,0-0.4,0.2-0.5l4.2-3.1c0.2-0.1,0.4-0.1,0.5,0l4.2,3.1
						c0.2,0.1,0.2,0.3,0.2,0.5l-1.6,5c-0.1,0.2-0.2,0.3-0.4,0.3h-5.2C717.7,454.6,717.5,454.5,717.5,454.3z"/>
					<path style="fill:#4C4452;" d="M725.3,464c-0.8-0.1-2.2-1.3-2.2-1.3c1.5-0.7,3-3.9,3-3.9c2.2,0.1,4.4-1.2,4.4-1.2
						s0.1,2.3,0,2.9c0,0.1-0.1,0.1-0.1,0.2c-1.2,1.3-2.6,2.4-4.2,3.1C725.8,464,725.5,464.1,725.3,464z"/>
					<path style="fill:#4C4452;" d="M732.3,452.3c-0.4-2-2.7-4.3-2.7-4.3c0.7-1.7,0.2-4.4,0.2-4.4s1.5,0.4,2.8,2.5
						c0.6,1.4,1,2.8,1.2,4.4C733.5,451.9,732.3,452.3,732.3,452.3z"/>
					<path style="fill:#4C4452;" d="M708.6,451.9c0,0-2.2-0.8-0.9-4.4s3.6-4.3,3.6-4.3s-0.6,2.6,0.2,4.4
						C711.5,447.6,709,450,708.6,451.9z"/>
					<path d="M720.8,438.4c1,0,1.8,0.1,2.4,0.3c-0.9-0.2-1.8-0.3-2.8-0.3C720.5,438.4,720.6,438.4,720.8,438.4z"/>
					<path style="fill:#4C4452;" d="M725.1,440.1c-2.1-0.4-4.6,1-4.6,1c-1.3-1.3-4-1.4-4-1.4s-0.3-1.4,3.9-1.4
						c0.9,0,1.9,0.1,2.8,0.3C725.2,439.2,725.1,440.1,725.1,440.1z"/>
					<path style="fill:#4C4452;" d="M710.2,460.6C710.2,460.6,710.2,460.5,710.2,460.6c-0.2-0.6,0.1-3,0.1-3s2,1.4,4.2,1.3
						c0,0,1.5,3.2,3,3.9c0,0-1.4,1.2-2.2,1.3c-0.2,0-0.4,0-0.7-0.1C713,463.2,711.5,462,710.2,460.6z"/>
				</g>
				<path style="fill:#E1E1E1;" d="M720.4,438.4c0.1,0,0.1,0,0.1,0v26.8c0,0-0.1,0-0.1,0c-7.4,0-13.4-6-13.4-13.4
					C706.9,444.4,713,438.4,720.4,438.4z"/>
			</g>
		</g>
		<g>
			<g>
				<g>
					<g>
						<path style="fill:#FFBE9A;" d="M623.6,414.1c1.4-1.8,2.9-4.2,3.7-7.4l11.5-42.8c0.2-0.9,0-1.8-0.6-2.5
							c-1.7-2.4-5.1-1.2-5.1,0.2v0l-11.6,43.5c0,0,0,0.1,0,0.1c-0.5,2.1-1.5,3.5-2.6,5c-0.9,1.1-3.4,2.4-5,2.9c0,0-0.1,0-0.1,0
							l-49.8,19.4c-1.5,0.6-2.1,2.5-1.5,4c0.6,1.5,2.4,2.5,3.8,1.9l49.8-19.4C616.9,418.9,621.4,416.9,623.6,414.1z"/>
						<path style="fill:#1F4463;" d="M618.8,400.5c0,0,6.8-24.3,7.5-27.3l2.4-9.5c0.6-2.3,3.3-4.1,6.1-4.1c2.2,0,4.4,1.1,5.9,3.1
							c0.4,0.5,0.7,1.1,1,1.7c0.6,1.4,0.6,2.9,0.2,4.4l-8.7,36.1L618.8,400.5z"/>
						<path style="opacity:0.35;fill:#2B4E6B;" d="M635.3,385.4c-0.7-0.4-1.3-0.9-2-1.4l-0.3-0.2l-7.9-5.6l0.2-1
							c0.4-1.7,0.7-3.1,0.9-4l2.4-9.5c0.6-2.3,3.3-4.1,6.1-4.1c2.2,0,4.4,1.1,5.9,3.1c0.4,0.5,0.7,1.1,1,1.7
							c0.6,1.4,0.6,2.9,0.2,4.4l-4.8,17.8L635.3,385.4z"/>
					</g>
					<g>
						<g>
							<g>
								<g>
									<g>
										<path style="fill:#CC656F;" d="M567,430.3c-0.2,0.1-0.3,0.3-0.3,0.5l2.1,7.7c0.1,0.2,0.3,0.3,0.5,0.2l6.7-3.3
											c0.2-0.1,0.3-0.3,0.2-0.6l-2.4-6.2c-0.1-0.2-0.3-0.3-0.5-0.3L567,430.3z"/>
									</g>
									<path style="fill:#1F4463;" d="M569.1,428.2l-10.1,2.5l11.5,29.5c0,0,5-1.7,3.8-5.8c-3.1-10.7,0.2-16.5,0.2-16.5
										s-3.8-1.3-5-4.3C568.3,430.6,569.1,428.2,569.1,428.2z"/>
									
										<rect x="547.8" y="444.6" transform="matrix(-0.3627 -0.9319 0.9319 -0.3627 352.6901 1132.861)" style="fill:#F1DEAE;" width="31.7" height="2.4"/>
									<g>
										<path style="fill:#E2D4D5;" d="M570.7,442.5c-0.2,0-0.4,0.1-0.4,0.4l-0.1,0.4c0,0.2,0.1,0.4,0.4,0.4l2.3,0.2
											c0.2,0,0.4-0.1,0.4-0.4l0.1-0.4c0-0.2-0.1-0.4-0.4-0.4L570.7,442.5z"/>
									</g>
									<g>
										<path style="fill:#E2D4D5;" d="M571.4,439.6c-0.2,0-0.4,0.1-0.5,0.3l-0.1,0.4c-0.1,0.2,0.1,0.4,0.3,0.5l2.3,0.5
											c0.2,0,0.4-0.1,0.5-0.3l0.1-0.4c0.1-0.2-0.1-0.4-0.3-0.5L571.4,439.6z"/>
									</g>
									<g>
										<path style="fill:#E2D4D5;" d="M570.5,445.6c-0.2,0-0.4,0.2-0.4,0.4l0,0.4c0,0.2,0.2,0.4,0.4,0.4l2.3-0.1
											c0.2,0,0.4-0.2,0.4-0.4v-0.4c0-0.2-0.2-0.4-0.4-0.4L570.5,445.6z"/>
									</g>
									<g>
										<path style="fill:#E2D4D5;" d="M570.7,448.6c-0.2,0-0.4,0.2-0.3,0.5l0.1,0.4c0,0.2,0.2,0.4,0.4,0.3l2.3-0.4
											c0.2,0,0.4-0.2,0.3-0.5l-0.1-0.4c0-0.2-0.2-0.4-0.4-0.3L570.7,448.6z"/>
									</g>
								</g>
							</g>
						</g>
					</g>
				</g>
				<g>
					<g>
						<path style="fill:#E3BE9A;" d="M678.1,396.8c-1.2-2-2.8-4.2-5.5-6.1l-35.7-26.2c-0.7-0.5-1.7-0.6-2.5-0.4
							c-2.9,0.8-2.7,3.8-1.6,4.8h0l36.3,26.5c0,0,0.1,0,0.1,0c1.8,1.2,2.8,2.6,3.7,4.3c0.7,1.2,1,4,1,5.7c0,0,0,0.1,0,0.1V459
							c0,1.6,1.4,2.9,3,2.9c1.6,0,3-1.3,3-2.9v-53.4C680,404.9,679.9,399.9,678.1,396.8z"/>
						<path style="fill:#2B4E6B;" d="M662.4,396c-8.6-6.9-21.5-16.5-24.7-18.6l-8-5.7c-1.5-1.1-2.3-3.5-1.9-5.8
							c0.5-2.8,2.4-4.9,5.4-5.8c0.6-0.2,1.3-0.3,2-0.3c1.5,0,3,0.5,4.2,1.4l32.7,24l-8.3,11.8L662.4,396z"/>
						<g>
							<g>
								<g>
									
										<line style="fill:none;stroke:#CC656F;stroke-width:1.6;stroke-linecap:round;stroke-linejoin:round;stroke-miterlimit:10;" x1="634.6" y1="366.3" x2="666.4" y2="389.7"/>
								</g>
							</g>
						</g>
					</g>
					<g>
						<g>
							<g>
								<g>
									<path style="fill:#CC656F;" d="M672.9,455.5c0,0.2,0.1,0.4,0.4,0.4l7.9,0.8c0.2,0,0.4-0.1,0.4-0.4l-0.7-7.4
										c0-0.2-0.2-0.4-0.4-0.4h-6.6c-0.2,0-0.4,0.2-0.4,0.4L672.9,455.5z"/>
								</g>
								<path style="fill:#1F4463;" d="M671.6,452.7l-1.4,10.3H702c0,0,0.3-5.3-4-5.7c-11.1-1-15.3-6.2-15.3-6.2s-2.6,3-5.9,3.1
									S671.6,452.7,671.6,452.7z"/>
								<rect x="670.3" y="463" style="fill:#F1DEAE;" width="31.7" height="2.4"/>
								<g>
									<path style="fill:#E2D4D5;" d="M685.6,456.4c-0.1,0.2,0,0.4,0.2,0.5l0.4,0.2c0.2,0.1,0.4,0,0.5-0.2l1-2.1
										c0.1-0.2,0-0.4-0.2-0.5l-0.4-0.2c-0.2-0.1-0.4,0-0.5,0.2L685.6,456.4z"/>
								</g>
								<g>
									<path style="fill:#E2D4D5;" d="M683.1,454.8c-0.1,0.2-0.1,0.4,0.1,0.6l0.4,0.3c0.2,0.1,0.4,0.1,0.5-0.1l1.3-1.9
										c0.1-0.2,0.1-0.4-0.1-0.6l-0.4-0.3c-0.2-0.1-0.4-0.1-0.5,0.1L683.1,454.8z"/>
								</g>
								<g>
									<path style="fill:#E2D4D5;" d="M688.4,457.7c-0.1,0.2,0,0.4,0.2,0.5l0.4,0.2c0.2,0.1,0.4,0,0.5-0.2l0.8-2.2
										c0.1-0.2,0-0.4-0.2-0.5l-0.4-0.2c-0.2-0.1-0.4,0-0.5,0.2L688.4,457.7z"/>
								</g>
								<g>
									<path style="fill:#E2D4D5;" d="M691.2,458.6c0,0.2,0.1,0.4,0.3,0.5l0.4,0.1c0.2,0.1,0.4-0.1,0.5-0.3l0.5-2.3
										c0-0.2-0.1-0.4-0.3-0.5l-0.4-0.1c-0.2-0.1-0.4,0.1-0.5,0.3L691.2,458.6z"/>
								</g>
							</g>
						</g>
					</g>
				</g>
			</g>
			<g>
				<g>
					<g>
						<g>
							<g>
								<g>
									<g>
										<path style="fill:#FFBE9A;" d="M637,302.3l0.1,0.8c0.2,1.4,1.6,3.1,3,2.9l34.9-4.3c1.6-0.2,2.7-1.7,2.5-3.3
											c-0.2-1.6-1.7-2.8-3.3-2.6l-34.9,4.3C638,300.3,636.9,301,637,302.3z"/>
									</g>
								</g>
							</g>
							<g>
								<path style="fill:#FFBE9A;" d="M674.9,300.6c1.6,0,2.9-1.3,2.9-2.9l1.2-26.8l-5.8-0.1l-1.2,26.8
									C672,299.2,673.3,300.6,674.9,300.6z"/>
								<g>
									<g>
										<g>
											<path style="fill:#FFBE9A;" d="M672,256.1L672,256.1c0.8,0,1.5,0.7,1.5,1.5l-0.1,7.4l5.8,0.1l0.1-6.1
												c0-0.8,0.7-1.4,1.4-1.4l0,0c0.8,0,1,0.7,1,1.4l-0.1,6.1l0,3.6c0,2.5-1.6,4.5-4.1,4.5l-2.6,0c-2.5,0-4.5-2.1-4.5-4.5
												l0-3.6h0l0.1-7.4C670.6,256.7,671.2,256.1,672,256.1z"/>
										</g>
										<g>
											<path style="fill:#FFBE9A;" d="M675,255.6L675,255.6c-0.7,0-1.2,0.5-1.2,1.2l-0.1,8.7l2.4,0l0.1-8.8
												C676.2,256.1,675.7,255.6,675,255.6z"/>
										</g>
										<g>
											<path style="fill:#FFBE9A;" d="M677.8,255.8L677.8,255.8c-0.7,0-1.2,0.5-1.2,1.2l-0.1,8.7l2.4,0l0.1-8.7
												C679,256.4,678.5,255.8,677.8,255.8z"/>
										</g>
									</g>
								</g>
							</g>
						</g>
						<g>
							<circle style="fill:#E3BE9A;" cx="640.4" cy="302" r="6.2"/>
						</g>
					</g>
				</g>
				<g>
					<g>
						<g>
							<g>
								<path style="fill:#F1DEAE;" d="M656.1,297.6c-1.2-7.6-7.8-13.5-15.8-13.5c-8.3,0-15.1,6.3-15.9,14.4c0,0.3-0.1,0.7-0.1,1
									l-1.6,71.8c0,1.3,1.1,2.7,2.4,2.7h30.4c1.3,0,2.4-1.4,2.4-2.7l-1.6-71.6C656.3,299,656.2,298.2,656.1,297.6z"/>
								<path style="opacity:0.8;fill:#E4CA9A;" d="M640,284.1c0,0,0.1,0,0.1,0c-8.3,0-15,6.3-15.8,14.4c0,0.3,0,0.7,0,1l-1.6,71.8
									c0,1.3,1.1,2.7,2.4,2.7H640V284.1z"/>
							</g>
						</g>
					</g>
				</g>
				<g>
					<path style="opacity:0.5;fill:#E4CA9A;" d="M648.4,301.8c-0.1,0.6-0.8,1-1,1.5c-1.8,4.2-6.6,6.1-10.7,4.4
						c-2.3-1-3.9-2.9-4.6-5.1c-0.6,3.7-2.2,14.7,3.2,17c5.4,2.3,8.8,0.3,10.7-4.4C646.8,313.4,649,303.6,648.4,301.8z"/>
					<g>
						<g>
							<g>
								<g>
									<circle style="fill:#E3BE9A;" cx="640.6" cy="302.1" r="6.2"/>
									<path style="opacity:0.2;fill:#E3BE9A;" d="M646.5,300.2c-0.1,0.4-0.2,0.9-0.4,1.3c-1.3,3.2-5,4.6-8.1,3.3
										c-1.7-0.7-3-2.2-3.5-3.9c-0.5,2.8,1,5.7,3.7,6.8c3.2,1.3,6.8-0.1,8.1-3.3C646.9,303.1,647,301.5,646.5,300.2z"/>
								</g>
								<g>
									<g>
										<path style="fill:#E3BE9A;" d="M641.9,299.1l-0.8-0.3c-1.3-0.5-2.8-0.1-3.4,1.1l-18.4,43.5c-0.6,1.5,0.3,3.3,1.8,3.9
											c1.5,0.6,3.5,0,4.1-1.4l18.4-43.5C644.2,301.2,643.2,299.7,641.9,299.1z"/>
										<path style="opacity:0.2;fill:#E3BE9A;" d="M641.9,299.1l-0.8-0.3c-1.3-0.5-2.8-0.1-3.4,1.1l-2.9,6.8l4.5,5.7l4.2-10.1
											C644.2,301.2,643.2,299.7,641.9,299.1z"/>
									</g>
								</g>
							</g>
							<g>
								<path style="fill:#E3BE9A;" d="M619.5,343.7c-0.6,1.5,0,3.5,1.5,4.1l34.7,14.5l2.5-5.9l-34.7-14.5
									C621.9,341.2,620.1,342.2,619.5,343.7z"/>
								<g>
									<g>
										<g>
											<g>
												<path style="fill:#E3BE9A;" d="M666.1,354l-2.3-1c-0.8-0.3-1.7-0.3-2.4,0l-2.1,0.9c-0.9,0.4-1.6,1.1-2,2l-0.9,2.2
													l0.5,0.2c1.3,0.6,2.9,0.6,4.2,0l0.2-0.1c0.7-0.3,1.3-0.8,1.6-1.6l0.5-1.3l2,0.8c0.6,0.3,1.3,0,1.6-0.7l0,0
													C667,355,666.8,354.3,666.1,354z"/>
											</g>
										</g>
									</g>
									<g>
										<g>
											<path style="fill:#E3BE9A;" d="M672.1,361.2L672.1,361.2c-0.3,0.8-1.2,1.1-1.9,0.8l-6.9-2.9l-2.2,5.3l5.6,2.3
												c0.7,0.3,1.1,1.1,0.8,1.9l0,0c-0.3,0.7-1,0.7-1.7,0.4l-5.6-2.3l-3.3-1.4c-2.3-1-3.5-3.2-2.6-5.5l1-2.4
												c1-2.3,3.6-3.4,5.9-2.4l3.3,1.4l0,0l6.9,2.9C672,359.7,672.4,360.5,672.1,361.2z"/>
										</g>
										<g>
											<path style="fill:#E3BE9A;" d="M671.4,364.2L671.4,364.2c0.3-0.6,0-1.3-0.6-1.6l-8.1-3.4l-0.9,2.2l8.1,3.4
												C670.4,365.1,671.1,364.8,671.4,364.2z"/>
										</g>
										<g>
											<path style="fill:#E3BE9A;" d="M670.1,366.7L670.1,366.7c0.3-0.6,0-1.3-0.6-1.6l-8.1-3.4l-0.9,2.2l8.1,3.4
												C669.2,367.6,669.9,367.3,670.1,366.7z"/>
										</g>
									</g>
								</g>
							</g>
						</g>
						<path style="fill:#F1DEAE;" d="M629.1,316.3l8.8,3.7c0,0,8.8-12.6,9.8-15c1.7-4-0.2-8.6-4.2-10.2s-8.6,0.2-10.2,4.2
							C632.5,301.2,629.1,316.3,629.1,316.3z"/>
						<path style="opacity:0.5;fill:#E4CA9A;" d="M643.5,294.8c-3.9-1.5-8.4,0.3-10,4.2c-0.9,2.2-4.3,17.3-4.3,17.3l4.4,1.9
							L643.5,294.8z"/>
						<path style="opacity:0.25;fill:#FFDA88;" d="M640.5,302.2c2.9,1.2,4.7,4.1,4.8,7.1c1.2-1.9,2.2-3.5,2.5-4.2
							c1.7-4-0.2-8.6-4.2-10.2s-8.6,0.2-10.2,4.2C633.1,299.7,637.6,301,640.5,302.2z"/>
						<polygon style="fill:#2B4E6B;" points="628.7,317.9 637.1,321.4 638,320.1 629.1,316.3 						"/>
					</g>
				</g>
			</g>
			<g>
				<g>
					<path style="fill:#DFB48A;" d="M636.6,276.2l0,8.6c0,2.2,1.8,4.1,4.1,4.1c2.2,0,4.1-1.8,4.1-4.1l0-8.6L636.6,276.2z"/>
					<path style="fill:#CEAD8D;" d="M636.6,276.2l0,8.6c0,2.2,1.8,4.1,4.1,4.1l0-12.7L636.6,276.2z"/>
				</g>
				<g>
					<g>
						<g>
							<g>
								<g>
									<g>
										<path style="fill:#FFBE9A;" d="M627.6,239.8l0,26.6c0,7.1,5.7,12.8,12.8,12.8c7.1,0,12.8-5.7,12.8-12.8l0-26.6
											L627.6,239.8z"/>
									</g>
								</g>
								<path style="fill:#E3BE9A;" d="M627.6,239.8l0,26.6c0,7.1,5.7,12.8,12.8,12.8l0.1-39.4L627.6,239.8z"/>
							</g>
						</g>
						<g>
							<g>
								<circle style="fill:#4C4452;" cx="648.2" cy="255.1" r="1.4"/>
							</g>
						</g>
					</g>
					<path style="fill:#F5E5E5;" d="M650.8,265.5c-2.8,0.2-5.1,0.9-5.1,1.5c0,0.6,2.5,2,5.3,1.8c0.2,0,0.3,0,0.5-0.1
						c0.3-1.1,0.5-2.2,0.5-3.3C651.6,265.5,651.2,265.5,650.8,265.5z"/>
					<path style="fill:#E3BE9A;" d="M647,256.8c0,1.2-1,2.2-2.2,2.2h-5.7c-1.2,0-2.2-1-2.2-2.2v-2.7c0-1.2,1-2.2,2.2-2.2h5.7
						c1.2,0,2.2,1,2.2,2.2V256.8z"/>
				</g>
				<path style="fill:#4C4452;" d="M664.3,231.7c0-6-5.8-9.7-10.1-9.7c-2,0-4,0-4,0s-1.2-2-2-2.8c-3.3-2.9-8.6-2.7-11.5,0.6
					c-0.7,0.7-1.2,1.6-1.6,2.5c-0.2,0.4-0.3,2-0.7,2c-1.3,0-2.7,0-4,0c-1.5,0-2.9,0.1-4.3,0.7c-1.9,0.8-3.5,2.3-4.4,4.2
					c-1.9,4.1,0,9.2,4.1,11.1c0.4,0.2,0.7,0.1,0.7,0.5c0,0.4,0,0.7,0,1.1c0,1.3,0,2.5,0,3.8c0,2.8,0,5.7,0,8.6c0,0.5,0,1,0,1.5
					c0,0.1,1.6,0,1.7,0c2.1,0,4.1,0,6.2,0c3.6,0,7-1.8,9-4.7c1-1.4,1.7-3.1,1.9-4.9c0.2-1.1,0.1-2.2,0-3.2c-0.1-0.5-0.2-1.1-0.4-1.6
					c-0.1-0.3-0.2-0.6-0.3-0.9c0.1-0.2,0.3-0.5,0.3-0.7c1.3,3.5,4.8,4.9,7.8,4.9c0,0.1,0,0.2,0,0.3l0,0v6.8c4-0.1,5.7-3,5.8-6.6
					c0-1.1-0.2-2.1-0.6-3.1C658,241.7,664.3,240.8,664.3,231.7z"/>
				<path style="fill:#3C3541;" d="M634.5,224.3l-5.2,0c-4.6,0-8.1,3.8-8.1,8.4c0,3.7,2.9,6.8,5.9,7.9v0.1
					c-7,0.4-10.9,5.5-10.8,11.8c0,6.5,4.8,11.8,11.8,11.8V261h-0.5c0-1,0-1.1,0-1.6c0-2.8,1.1-3.4,5.6-3.4c5.2,0,6.9-1.3,8.9-3.2
					v-35.7C639,217.4,635,220.5,634.5,224.3z"/>
			</g>
		</g>
	</g>
	<g>
		<g>
			<g>
				<g>
					<g>
						<path style="fill:#F5E5E5;" d="M685.8,259.8l-1.9,10.9c0,0.1-0.1,0.2-0.2,0.2l-30.5-2.6c-0.1,0-0.2-0.1-0.2-0.2
							c0-0.1,2.7-15.8,2.7-15.9c0-0.1,0.1-0.2,0.3-0.2l29.6,7.5C685.8,259.6,685.8,259.7,685.8,259.8z"/>
					</g>
				</g>
			</g>
			<path style="fill:#72ADC8;" d="M654,267.9l26,1.7c1.3,0.1,2.6-0.9,2.9-2.2l0.8-4.7c0.2-1.3-0.7-2.7-2-3c0,0-0.8-0.2-3.6-1
				s-5.4-0.7-11,4.2c-3.6,3.2-7.9,2.9-10.9,3.2S654,267.9,654,267.9z"/>
			<path style="opacity:0.4;fill:#C9DEE1;" d="M655.1,260.2c-0.7,3.9-1.3,7.5-1.3,7.5c0,0.1,0.1,0.2,0.2,0.2l29.2,2.4
				c0.1,0,0.2-0.1,0.2-0.2l0.8-4.9L655.1,260.2z"/>
		</g>
		<g>
			<g>
				<g>
					<path style="fill:#FFBE9A;" d="M666.8,264.4l0,2.5c0,0.8,0.3,1.7,0.9,2.3l1.6,1.6c0.7,0.7,1.6,1.1,2.6,1.1l2.4,0l0-0.5
						c0-1.5-0.6-2.9-1.6-3.9l-0.1-0.1c-0.5-0.5-1.3-0.9-2-0.9l-1.4,0l0-2.1c0-0.7-0.5-1.2-1.2-1.2l0,0
						C667.3,263.2,666.8,263.7,666.8,264.4z"/>
				</g>
			</g>
		</g>
	</g>
</g>
</svg>
