<?xml version="1.0" encoding="utf-8"?>
<!-- Generator: Adobe Illustrator 16.0.0, SVG Export Plug-In . SVG Version: 6.00 Build 0)  -->
<!DOCTYPE svg PUBLIC "-//W3C//DTD SVG 1.1//EN" "http://www.w3.org/Graphics/SVG/1.1/DTD/svg11.dtd">
<svg version="1.1" id="personaje_x5F_mask" xmlns="http://www.w3.org/2000/svg" xmlns:xlink="http://www.w3.org/1999/xlink" x="0px"
	 y="0px" width="80.3px" height="337px" viewBox="0 0 80.3 337" style="enable-background:new 0 0 80.3 337;" xml:space="preserve">
<path style="fill-rule:evenodd;clip-rule:evenodd;fill:#231F20;" d="M24,337V226l0-0.1c-5-1.8-7.3-5.1-7.3-10c0,0-0.2-87.7-0.2-87.7
	l-0.6,0l-4.8,43.7l-0.1,48.3l0.2,0.1c0.7,0.3,1.2,0.7,1.7,1.2l0.1,0.1l0.1,0c0.8,0.2,1.6,0.7,2.2,1.2l2.2,2.3
	c0.8,0.8,1.2,1.8,1.2,2.9l0,3.1c0,0.8-0.6,1-1.4,1h-0.2l0,0.5c-0.7-0.1-1.2-0.7-1.2-1.4l0-3.1h-1.3l0,2h0l0,10.5
	c0,0.5-0.2,0.8-0.5,1.1c-0.3,0.3-0.7,0.4-1.2,0.4H13l0,0.3c-0.9-0.1-1.6-0.9-1.6-1.8l0-10.6h-1.1l0,11.9c0,0.4-0.1,0.8-0.4,1.1
	c-0.3,0.3-0.6,0.5-0.9,0.5c-0.4,0-0.7-0.1-1-0.4c-0.3-0.3-0.4-0.9-0.4-1.2l0-11.9H6.5l0,11c0,0.7-0.5,1-1.3,1H5l0,0.5
	c-0.7-0.1-1.2-0.6-1.2-1.3l0-11.2h-1l0,8.8c0,0.9-0.7,1.7-1.7,1.7c-0.4,0-0.6,0-0.8-0.2c-0.3-0.3-0.4-0.7-0.4-1.4l0-13.3
	c0-2.3,1-4.3,2.8-5.2l0.2-0.1L3,170.6c0-0.3,0.1-0.6,0.2-1l7-63.1c0.2-1.7,1.8-2.6,3.3-2.6c0.1,0,0.3,0,0.4,0l1.1,0.1
	c0.9,0.1,1.7,0.5,2.4,1.1l0.3,0.3l0.2-0.4c3-6.3,10.6-10.3,16.8-11.4l0.2,0l0-8.3l-0.2-0.1c-7.3-2.3-12.1-8.9-12.1-16.5l0-3.5
	l-0.3,0c-0.2,0-0.4,0-0.6,0c-4.9,0-8.9-4-8.9-8.9c0-3.7,2.4-7.1,5.9-8.4l0.8-0.3l-0.8-0.3c-3.5-1.3-5.9-4.7-5.9-8.4
	c0-1.4,0.3-2.8,1-4l0.1-0.3l-0.2-0.1C11.1,33,9.4,30,9.4,27c0-4.3,3.3-7.8,7.3-7.8c0.7,0,1.4,0.1,2,0.3l0.6,0.2l-0.2-0.6
	c-0.4-1-0.6-2.1-0.6-3.1c0-0.3,0-1.1,0-1.4c0.4-4.2,3.6-7.6,8-7.6h4.2l0,0.3c0-0.3,1.3-7.2,9.2-7.2c8.6,0,9.2,6.8,9.2,7.1l0-0.2h4.2
	c4.4,0,7.6,3.4,8,7.6c0,0.3,0,0.8,0,1c0,1.1-0.2,2.3-0.6,3.3l-0.2,0.7l0.6-0.1c0.7-0.2,1.4-0.3,2-0.3c4,0,7.3,3.5,7.3,7.8
	c0,3-1.7,6-4.3,7.5L66,34.6l0.1,0.3c0.6,1.3,1,2.6,1,4c0,3.7-2.4,7.1-5.9,8.4l-0.8,0.3l0.8,0.3c3.5,1.3,5.9,4.6,5.9,8.4
	c0,4.9-4,8.9-8.9,8.9c-0.2,0-0.4,0-0.5,0l-0.3,0l-0.1,0.3l0,3.1c0,0.5,0,1-0.1,1.6c0,0.1,0,0.2,0,0.3l0,0.2c0,0.4-0.1,0.7-0.2,1.1
	c0,0.2-0.1,0.4-0.1,0.6c-0.1,0.3-0.2,0.6-0.2,0.9l-0.1,0.2c0,0.1-0.1,0.3-0.1,0.4c-0.1,0.3-0.2,0.6-0.3,0.9
	c-0.2,0.5-0.4,0.9-0.6,1.4l-0.1,0.3c-0.2,0.4-0.4,0.7-0.6,1.1l0,0v0c-2.1,3.4-5.3,6.1-9,7.4L45.5,85l0,8.6l0.2,0.1
	c6.8,1.5,12.9,5.7,15.6,10.9l0.2,0.3l0.3-0.2c0.6-0.4,1.3-0.7,1.9-0.7l1.1-0.1c0.1,0,0.3,0,0.4,0c1.5,0,3.1,0.9,3.3,2.6l7,63.1
	c0.1,0.5,0.2,0.8,0.2,1.1l0.1,49.4L76,220c2.2,0.7,3.6,2.9,3.6,5.6l0,13.4c0,0.7-0.1,0.9-0.4,1.1c-0.2,0.2-0.4-0.1-0.7-0.1h-0.1
	l0,0.4c-0.9-0.1-1.6-0.9-1.6-1.7l0-8.7h-1l0,11c0,0.7-0.5,1-1.3,1h-0.2l0,0.5c-0.7-0.1-1.2-0.6-1.2-1.3l0-11.2h-1.2l0,11.9
	c0,0.4-0.1,0.8-0.4,1.1c-0.3,0.3-0.6,0.5-0.9,0.5c-0.4,0-0.7-0.1-1-0.4c-0.3-0.3-0.4-0.9-0.4-1.2l0-11.9h-1.1l0,10.4
	c0,0.9-0.7,1.6-1.7,1.6h0l-0.1,0.3c-0.4,0-0.8-0.1-1.1-0.4c-0.3-0.3-0.5-0.7-0.5-1.1l0-10.1l0-0.3l0-2.5h-1.3l0,3.3
	c0,0.8-0.7,1.3-1.4,1.3c-0.8,0-1.4-0.5-1.4-1.3l0-3.5c0-1.1,0.4-2.1,1.2-2.9l2.2-2.2c0.6-0.6,1.3-1,2.2-1.2l0.1,0l0.1-0.1
	c0.3-0.3,0.6-0.6,1-0.8l0.1-0.1l-0.1-48.7l-4-36l-0.6,0c0.1,18.9,0.2,43.7,0.3,60.4c0.1,10.6,0.1,17.8,0.1,18.2
	c0,4.9-2,8.3-6.2,10.5l-0.1,0.1V328l0,0.1c0.9,1.6,4.3,1.9,12,2.5c2.1,0.2,4.5,0.4,7.1,0.6c1.5,0.1,2.7,0.4,3.4,1.4
	c1.2,1.6,0.9,3.3,0.8,4.3H24z M32,328.1L32,328.1c1.7,1.7,5,2,12.3,2.6c1.2,0.1,2.2,0.2,3.6,0.3l0.1,0v-2.6c1,0,0.7,0,0.8,0l0,0
	l0.2,0.1V227.3l-0.3,0c-2.2,0.3-4.7,0.5-7.7,0.5v0l-0.1,0c-0.5,0-0.8,0-1.3,0c-2.9,0-5.3-0.1-7.5-0.3l-0.2,0V328.1z"/>
</svg>
