<?xml version="1.0" encoding="utf-8"?>
<!-- Generator: Adobe Illustrator 16.0.0, SVG Export Plug-In . SVG Version: 6.00 Build 0)  -->
<!DOCTYPE svg PUBLIC "-//W3C//DTD SVG 1.1//EN" "http://www.w3.org/Graphics/SVG/1.1/DTD/svg11.dtd">
<svg version="1.1" xmlns="http://www.w3.org/2000/svg" xmlns:xlink="http://www.w3.org/1999/xlink" x="0px" y="0px" width="1280px"
	 height="700px" viewBox="0 0 1280 700" style="enable-background:new 0 0 1280 700;" xml:space="preserve">
<g id="Nubes">
	<g id="nube02">
		<path style="fill:#CDE6DC;" d="M845.9,122.9C845.9,122.9,845.9,122.9,845.9,122.9c0-5.3,4.3-9.5,9.5-9.5c0-13.6,11-24.6,24.6-24.6
			c13.3,0,24.1,10.5,24.6,23.7c2.3,0.2,4.3,1,6.1,2.2c1.8-5.4,6.8-9.2,12.8-9.2c6.2,0,11.3,4.1,13,9.8c1.6-1.1,3.5-1.8,5.5-1.8
			c5.3,0,9.5,4.3,9.5,9.5c0,0,0,0,0,0H845.9z"/>
		<path style="fill:#ACD5C7;" d="M920.3,114.2c0-8.3,3.2-8.7,3.2-8.7c-5.7,0-11,3.8-12.8,9.2c2.4,1.7,3.3,4.6,3.3,7.3
			c0,0.3,0,0.7,0,1h9.5C923.5,122.9,920.3,122.9,920.3,114.2C920.3,105.9,920.3,122.9,920.3,114.2z"/>
		<path style="fill:#ACD5C7;" d="M888.1,106.5c0-17.8-7.8-17.8-7.8-17.8c-0.1,0-0.1,0-0.2,0c-13.6,0-24.6,11-24.6,24.6
			c-5.3,0-9.5,4.3-9.5,9.5c0,0,0,0,0,0h34.4C880.3,122.9,888.1,115.4,888.1,106.5z"/>
	</g>
	<g id="nube01">
		<path style="fill:#D9D9DA;" d="M612.1,168C612.1,168,612.1,168,612.1,168c0-8.1-6.5-14.6-14.6-14.6c0-20.9-16.9-37.8-37.8-37.8
			c-20.4,0-36.9,16.1-37.7,36.3c-3.5,0.4-6.7,1.6-9.4,3.4c-2.7-8.2-10.5-14.2-19.6-14.2c-9.5,0-17.4,6.3-19.9,15
			c-2.4-1.7-5.3-2.8-8.5-2.8c-8.1,0-14.6,6.5-14.6,14.6c0,0,0,0,0,0H612.1z"/>
		<path style="fill:#D5D6D1;" d="M597.5,153.3c0-20.9-16.9-37.8-37.8-37.8c-0.1,0-0.2,0-0.3,0c0,0-12,0-12,27.3
			c0,13.5,12,25.2,12,25.2h52.7c0,0,0,0,0,0C612.1,159.9,605.6,153.3,597.5,153.3z"/>
		<path style="opacity:0.4;fill:#E9D9DA;" d="M492.9,168h14.6c0-0.5-0.1-1-0.1-1.5c0-4.2,1.5-8.6,5.1-11.2c-0.2-0.9-0.5-1.3-0.8-2.1
			c-3.3-7.1-10.5-12-18.8-12c0,0,4.9,0.7,4.9,13.4C497.9,168,492.9,168,492.9,168z"/>
	</g>
</g>
<g id="Sol">
	<g>
		<g>
			<g>
				<g>
					<g>
						<path style="fill:#F0BD93;" d="M862.3,111.5l0.2-8.6l-6.2,5.8C858.4,109.4,860.4,110.4,862.3,111.5z"/>
						<path style="fill:#F0BD93;" d="M883.2,138.9l-7.9-4.3c0,0.1,0,0.1,0,0.2c0,2.3-0.3,4.5-0.8,6.7L883.2,138.9z"/>
						<path style="fill:#F0BD93;" d="M875,130.1l6.7-5.8l-8.7-0.7C873.9,125.6,874.6,127.8,875,130.1z"/>
						<path style="fill:#F0BD93;" d="M870.6,119.4l3.7-7.9l-8.1,2.9C867.9,115.9,869.4,117.6,870.6,119.4z"/>
						<path style="fill:#F0BD93;" d="M850.1,162.1l5.4,7.7l1.7-9.2C854.9,161.4,852.6,161.9,850.1,162.1z"/>
						<path style="fill:#F0BD93;" d="M869.5,151.7l9.2,1.2l-5.5-7.3C872.2,147.8,871,149.9,869.5,151.7z"/>
						<path style="fill:#F0BD93;" d="M860.9,159l8,4.9l-2.1-9C865,156.4,863,157.8,860.9,159z"/>
					</g>
				</g>
			</g>
			<path style="fill:#EDAE7C;" d="M817.5,152.9l9.2-1.2c-1.5-1.8-2.7-3.9-3.6-6.1L817.5,152.9z M823.2,123.6l-8.7,0.7l6.7,5.8
				C821.6,127.8,822.3,125.6,823.2,123.6z M848.1,99.9l-3.3,7.9c1.1-0.1,2.2-0.2,3.3-0.2l0,0L848.1,99.9L848.1,99.9z M839.9,108.8
				l-6.2-5.8l0.2,8.6C835.8,110.4,837.8,109.4,839.9,108.8z M820.8,134.8c0-0.1,0-0.1,0-0.2l-7.9,4.3l8.7,2.6
				C821.1,139.4,820.8,137.1,820.8,134.8z M840.7,169.8l5.4-7.7c-2.5-0.2-4.8-0.7-7.1-1.5L840.7,169.8z M830,114.4l-8.1-2.9l3.7,7.9
				C826.8,117.6,828.3,115.9,830,114.4z M827.3,163.8l8-4.9c-2.1-1.1-4.1-2.5-5.8-4.2L827.3,163.8z"/>
		</g>
		<path style="fill:#F0BD93;" d="M848.1,99.9L848.1,99.9l0,7.7c1.1,0,2.2,0.1,3.3,0.2L848.1,99.9z"/>
		<path style="fill:#F0BD93;" d="M848.1,110.7V159c13.3,0,24.1-10.8,24.1-24.1C872.2,121.5,861.4,110.7,848.1,110.7z"/>
		<path style="fill:#EDAE7C;" d="M823.9,134.8c0,13.3,10.8,24.1,24.1,24.1l0,0v-48.3l0,0C834.8,110.7,823.9,121.5,823.9,134.8z"/>
	</g>
</g>
<g id="Plaza">
	<g style="opacity:0.85;">
		<g id="fondo" style="opacity:0.75;">
			<g>
				<path style="fill:#899C60;" d="M701.6,371.2c0-3.9,3.2-7.1,7.1-7.1h122.2c3.9,0,7.1,3.2,7.1,7.1v38.6H701.6V371.2z"/>
			</g>
			<g>
				<polygon style="fill:#809159;" points="821.4,364.1 836.9,409.8 780.6,409.8 765,364.1 				"/>
			</g>
		</g>
		<g id="arbol02">
			<g>
				<g>
					<polygon style="fill:#897558;" points="772.9,356.2 774.1,355.1 783,365.4 791.9,355.1 793.2,356.2 785,368.7 786.5,409.8 
						779.5,409.8 781.1,368.7 					"/>
					<g>
						<path style="fill:#649463;" d="M813.3,350.2c-0.4,0-0.7,0-1,0.1c0.1-0.3,0.1-0.5,0.1-0.8c0.1-2.2-2.2-4-5.1-4.2
							c-0.8,0-1.6,0.1-2.3,0.3c-0.6-0.6-1.3-1.1-2.2-1.2c-0.1-2.6-2.2-4.7-4.9-4.8c-0.5,0-0.9,0-1.3,0.1c-0.7-2.3-3.2-4.1-6.1-4.3
							c-2.3-0.1-4.4,0.8-5.6,2.3c-0.4-0.5-1-0.9-1.7-0.9c-0.9,0-1.7,0.4-2.1,1.2c-0.6-0.4-1.3-0.6-2.1-0.7c-1.9-0.1-3.6,1.1-4.2,2.8
							c-0.9-1-2.2-1.7-3.7-1.8c-2.3-0.1-4.3,1.3-5.1,3.4c-0.9-0.5-1.8-0.8-2.9-0.9c-3.5-0.2-6.5,2.6-6.7,6.1c0,0.4,0,0.9,0.1,1.3
							c-0.5-0.2-1-0.3-1.6-0.4c-2.7-0.1-5,2-5.1,4.7c-0.1,2.7,2,5,4.7,5.1c0.8,0,1.5-0.1,2.2-0.4c1.3,1.8,3.7,3.1,6.5,3.2
							c2.6,0.1,4.9-0.8,6.4-2.2c0.8,0.5,1.8,0.8,2.8,0.9c2.1,0.1,3.8-0.8,4.6-2.2c0.7,0.8,1.7,1.3,2.8,1.3c1.7,0.1,3.2-0.9,3.8-2.3
							c1,2.5,4.3,4.5,8.4,4.7c3.8,0.2,7.2-1.3,8.6-3.5c1,1.3,2.8,2.3,5,2.4c3,0.1,5.6-1.4,6.1-3.5c0.4,0.2,0.8,0.4,1.3,0.4
							c1.7,0.1,3.1-1.3,3.2-3C816.3,351.8,815,350.3,813.3,350.2z"/>
					</g>
				</g>
			</g>
			<g style="opacity:0.25;">
				<path style="fill:#649463;" d="M814,354.9c-0.5,0-0.9-0.2-1.3-0.4c-0.1,0.6-0.5,1.2-1,1.7c0.4,0.2,0.8,0.4,1.3,0.4
					c1.5,0.1,2.7-1,3.1-2.4C815.6,354.6,814.8,354.9,814,354.9z"/>
			</g>
			<path style="opacity:0.75;fill:#537F53;" d="M784,337.1c-0.2-0.1-0.5-0.2-0.8-0.2c-0.9,0-1.7,0.4-2.1,1.2
				c-0.6-0.4-1.3-0.6-2.1-0.7c-1.9-0.1-3.6,1.1-4.2,2.8c-0.9-1-2.2-1.7-3.7-1.8c-2.3-0.1-4.3,1.3-5.1,3.4c-0.9-0.5-1.8-0.8-2.9-0.9
				c-3.5-0.2-6.5,2.6-6.7,6.1c0,0.4,0,0.9,0.1,1.3c-0.5-0.2-1-0.3-1.6-0.4c-2.7-0.1-5,2-5.1,4.7c-0.1,2.7,2,5,4.7,5.1
				c0.8,0,1.5-0.1,2.2-0.4c1.3,1.8,3.7,3.1,6.5,3.2c2.6,0.1,4.9-0.8,6.4-2.2c0.8,0.5,1.8,0.8,2.8,0.9c2.1,0.1,3.8-0.8,4.6-2.2
				c0.7,0.8,1.7,1.3,2.8,1.3c1.7,0.1,3.2-0.9,3.8-2.3c0.1,0.2,0.2,0.4,0.3,0.6V337.1z"/>
			<polygon style="opacity:0.75;fill:#7F6C50;" points="783,409.5 783,365.4 774.1,355.1 772.9,356.2 781.1,368.8 779.5,409.8 			
				"/>
			<path style="opacity:0.5;fill:#537F53;" d="M806.6,357.9c-2.2-0.1-4-1-5-2.4c-1.4,2.2-4.7,3.7-8.6,3.5c-4-0.2-7.4-2.2-8.4-4.7
				c-0.7,1.4-2.2,2.4-3.8,2.3c-1.1-0.1-2.1-0.5-2.8-1.3c-0.7,1.4-2.5,2.3-4.6,2.2c-1.1-0.1-2.1-0.4-2.8-0.9
				c-1.5,1.5-3.8,2.4-6.4,2.2c-2.8-0.1-5.2-1.4-6.5-3.2c-0.7,0.3-1.4,0.5-2.2,0.4c-2.7-0.1-4.8-2.4-4.7-5.1c0-0.5,0.1-0.9,0.3-1.3
				c-0.7,0.8-1.2,1.8-1.2,3c-0.1,2.7,2,5,4.7,5.1c0.8,0,1.5-0.1,2.2-0.4c1.3,1.8,3.7,3.1,6.5,3.2c2.6,0.1,4.9-0.8,6.4-2.2
				c0.8,0.5,1.8,0.8,2.8,0.9c2.1,0.1,3.8-0.8,4.6-2.2c0.7,0.8,1.7,1.3,2.8,1.3c1.7,0.1,3.2-0.9,3.8-2.3c1,2.5,4.3,4.5,8.4,4.7
				c3.8,0.2,7.2-1.3,8.6-3.5c1,1.3,2.8,2.3,5,2.4c3,0.1,5.6-1.4,6.1-3.4C810.6,357.3,808.7,358,806.6,357.9z"/>
		</g>
		<g id="arbol01">
			<g>
				<g>
					<polygon style="fill:#897558;" points="740.8,324 742.6,322.4 755.4,337.3 768.2,322.4 769.9,324 758.2,342 760.9,409.8 
						749.8,409.8 752.5,341.9 					"/>
					<g>
						<path style="fill:#649463;" d="M798.2,319.2c-0.5,0-1,0.1-1.5,0.3c0.1-0.4,0.2-0.8,0.2-1.1c0.1-3.1-3.3-5.7-7.5-5.7
							c-0.4,0-0.7,0-1.1,0c-0.2-1.4-1.4-2.6-2.8-2.7c0-0.2,0-0.5,0-0.7c0-6.3-5.1-11.4-11.4-11.4c-1,0-1.9,0.1-2.8,0.4
							c-1-1.9-2.8-3.3-5.1-3.6c-0.6-3.9-4-7-8.1-7c-3.8,0-7,2.6-7.9,6c-0.3,0-0.6,0-0.9,0c-5.9,0-10.6,4.7-10.8,10.6
							c-0.4-0.1-0.8-0.1-1.2-0.1c-3.3-0.1-6.2,2.1-7.2,5.1c-1.3-0.7-2.7-1.1-4.2-1.1c-4.8-0.1-8.8,3.5-9.3,8.2
							c-1.3,0.2-2.3,1.1-2.7,2.3c-3.7,0.2-6.7,3.2-6.7,6.9c-0.1,3.9,3,7.1,6.9,7.2c1.1,0,2.2-0.2,3.2-0.7c1.9,2.6,5.4,4.3,9.4,4.4
							c3.7,0.1,7-1.3,9.1-3.5c1.1,0.7,2.6,1.1,4.1,1.1c2.9,0.1,5.5-1.3,6.5-3.3c1,1.1,2.5,1.7,4.1,1.8c2.4,0,4.5-1.4,5.4-3.5
							c1.5,3.6,6.4,6.3,12.2,6.4c5.5,0.1,10.3-2.2,12.2-5.4c1.5,1.8,4.2,3.1,7.3,3.2c4.4,0.1,8-2.2,8.6-5.2c0.6,0.3,1.2,0.5,1.9,0.5
							c2.4,0,4.3-1.9,4.4-4.5C802.5,321.3,800.6,319.3,798.2,319.2z"/>
					</g>
				</g>
			</g>
			<path style="fill:#649463;" d="M798.2,319.2c-0.5,0-1,0.1-1.5,0.3c0.1-0.4,0.2-0.8,0.2-1.1c0.1-3.1-3.3-5.7-7.5-5.7
				c-0.4,0-0.7,0-1.1,0c-0.2-1.4-1.4-2.6-2.8-2.7c0-0.2,0-0.5,0-0.7c0-6.3-5.1-11.4-11.4-11.4c-1,0-1.9,0.1-2.8,0.4
				c-1-1.9-2.8-3.3-5.1-3.6c-0.6-3.9-4-7-8.1-7c-0.7,0-1.3,0.1-1.9,0.2c-1.3,1.1-2.3,2.5-2.8,4.2c-0.3,0-0.6,0-0.9,0
				c-0.6,0-1.2,0.1-1.8,0.2c-0.2,0.5-0.4,1-0.6,1.5c-0.3,0-0.6,0-0.9,0c-1.1,0-2.1,0.2-3,0.4c-2.6,1.9-4.4,5-4.5,8.5
				c-0.4-0.1-0.8-0.1-1.2-0.1c-0.7,0-1.3,0.1-1.9,0.2c-0.1,0.5-0.1,1-0.1,1.5c-0.4-0.1-0.8-0.1-1.2-0.1c-0.6,0-1.1,0.1-1.7,0.2
				c-1,0.9-1.8,2-2.2,3.3c-0.6-0.3-1.2-0.6-1.9-0.8c-0.6,0.7-1,1.5-1.3,2.4c-1.3-0.7-2.7-1.1-4.2-1.1c-0.9,0-1.7,0.1-2.5,0.3
				c-1.9,1.5-3.3,3.7-3.5,6.3c-1.3,0.2-2.3,1.1-2.7,2.3c-1,0-2,0.3-2.8,0.7c-0.2,0.3-0.3,0.6-0.4,0.9c-0.4,0-0.7,0.1-1.1,0.1
				c-1.4,1.3-2.4,3.1-2.4,5.2c-0.1,3.9,3,7.1,6.9,7.2c1.1,0,2.2-0.2,3.2-0.7c1.9,2.6,5.4,4.3,9.4,4.4c1.5,0,3-0.2,4.4-0.6
				c0.5-0.4,1-0.8,1.5-1.2c0.2,0.1,0.4,0.2,0.7,0.3c1-0.5,1.9-1.2,2.6-1.9c1.1,0.7,2.6,1.1,4.1,1.1c0.7,0,1.4-0.1,2.1-0.2
				c0.5-0.4,0.9-0.9,1.2-1.5c0.3,0.3,0.6,0.5,0.9,0.7c1.1-0.6,1.9-1.4,2.4-2.3c1,1.1,2.5,1.7,4.1,1.8c0.3,0,0.6,0,0.9-0.1
				c0.5-0.5,1-1.1,1.3-1.8c0.2,0.4,0.4,0.8,0.6,1.2c1.1-0.6,2.1-1.6,2.6-2.8c1.5,3.6,6.4,6.3,12.2,6.4c2.2,0,4.3-0.3,6.1-0.9
				c1.2-0.8,2.1-1.8,2.8-2.9c0.3,0.3,0.6,0.6,0.9,0.9c1-0.7,1.8-1.6,2.3-2.5c1.5,1.8,4.2,3.1,7.3,3.2c1.1,0,2.2-0.1,3.2-0.4
				c1.1-0.9,1.9-2,2.1-3.2c0.6,0.3,1.2,0.5,1.9,0.5c0.1,0,0.2,0,0.3,0c0.5-0.6,0.8-1.4,1-2.1c0.6,0.3,1.2,0.5,1.9,0.5
				c0,0,0.1,0,0.1,0c0.6-0.8,1-1.7,1-2.8C802.5,321.3,800.6,319.3,798.2,319.2z"/>
			<path style="fill:#537F53;" d="M756,287.9c-2.8,0.7-5,3-5.8,5.8c-0.3,0-0.6,0-0.9,0c-5.9,0-10.6,4.7-10.8,10.6
				c-0.4-0.1-0.8-0.1-1.2-0.1c-3.3-0.1-6.2,2.1-7.2,5.1c-1.3-0.7-2.7-1.1-4.2-1.1c-4.8-0.1-8.8,3.5-9.3,8.2
				c-1.3,0.2-2.3,1.1-2.7,2.3c-3.7,0.2-6.7,3.2-6.7,6.9c-0.1,3.9,3,7.1,6.9,7.2c1.1,0,2.2-0.2,3.2-0.7c1.9,2.6,5.4,4.3,9.4,4.4
				c3.7,0.1,7-1.3,9.1-3.5c1.1,0.7,2.6,1.1,4.1,1.1c2.9,0.1,5.5-1.3,6.5-3.3c1,1.1,2.5,1.7,4.1,1.8c2.4,0,4.5-1.4,5.4-3.5
				c0,0.1,0.1,0.2,0.1,0.3V287.9z"/>
			<g>
				<path style="fill:#537F53;" d="M713.9,318.4c-0.4,0-0.7,0.1-1.1,0.1C713.2,318.5,713.6,318.4,713.9,318.4z"/>
				<path style="fill:#537F53;" d="M713.9,318.4c0-0.2,0.1-0.3,0.2-0.5C714.1,318.1,714,318.3,713.9,318.4z"/>
				<path style="fill:#537F53;" d="M734.3,333.9c-1.3,0.4-2.8,0.7-4.4,0.6c-4-0.1-7.5-1.8-9.4-4.4c-1,0.5-2,0.7-3.2,0.7
					c-3.9-0.1-7-3.3-6.9-7.2c0-2.1,1-3.9,2.4-5.2c-3.2,0.6-5.6,3.4-5.6,6.8c-0.1,3.9,3,7.1,6.9,7.2c1.1,0,2.2-0.2,3.2-0.7
					c1.9,2.6,5.4,4.3,9.4,4.4c3.3,0.1,6.3-1,8.4-2.8C734.8,333.6,734.6,333.8,734.3,333.9z"/>
				<path style="fill:#537F53;" d="M795.8,328.7c-0.1,0.3-0.3,0.5-0.4,0.8C795.5,329.2,795.7,329,795.8,328.7z"/>
				<path style="fill:#537F53;" d="M796.1,327.7c-0.1,0.3-0.1,0.6-0.3,0.8C796,328.3,796,328,796.1,327.7z"/>
				<path style="fill:#537F53;" d="M790.8,331.4c-3.1-0.1-5.8-1.3-7.3-3.2c-0.5,0.9-1.3,1.8-2.3,2.5c-0.2-0.1-0.3-0.3-0.5-0.4
					c1.5,1.6,4,2.6,6.8,2.7c2.6,0,4.9-0.7,6.5-2C793,331.2,791.9,331.4,790.8,331.4z"/>
				<path style="fill:#537F53;" d="M794,331c0.5-0.4,1-0.9,1.3-1.4C795,330,794.5,330.5,794,331z"/>
				<path style="fill:#537F53;" d="M801.8,326c0.1-0.2,0.2-0.4,0.3-0.6C802,325.6,801.9,325.8,801.8,326z"/>
				<path style="fill:#537F53;" d="M802.2,325.1c0-0.2,0.1-0.3,0.1-0.5C802.3,324.8,802.3,325,802.2,325.1z"/>
				<path style="fill:#537F53;" d="M801.4,326.7c0,0-0.1,0-0.1,0c-0.7,0-1.4-0.2-1.9-0.5c-0.1,0.8-0.5,1.5-1,2.1
					c1.5-0.1,2.7-0.9,3.4-2.2C801.7,326.3,801.5,326.5,801.4,326.7z"/>
				<path style="fill:#537F53;" d="M746.4,330.5c0.3,0.3,0.6,0.5,0.9,0.7C746.9,331.1,746.7,330.8,746.4,330.5z"/>
				<path style="fill:#537F53;" d="M754.6,330.6c-0.3,0-0.6,0.1-0.9,0.1c-1.6,0-3-0.7-4.1-1.8c-0.5,0.9-1.3,1.8-2.4,2.3
					c0.9,0.6,2,1,3.2,1c2,0,3.7-0.9,4.8-2.4C755.1,330.1,754.8,330.4,754.6,330.6z"/>
				<path style="fill:#537F53;" d="M745.2,332c-0.6,0.1-1.3,0.2-2.1,0.2c-1.6,0-3-0.5-4.1-1.1c-0.7,0.8-1.6,1.4-2.6,1.9
					c1,0.5,2.2,0.8,3.5,0.8c2.5,0,4.7-1,5.9-2.5C745.7,331.6,745.5,331.8,745.2,332z"/>
				<path style="fill:#537F53;" d="M746.4,330.5c-0.1,0.3-0.3,0.5-0.5,0.8C746.1,331.1,746.3,330.8,746.4,330.5z"/>
				<path style="fill:#537F53;" d="M780.2,329.8c-0.1,0.2-0.3,0.5-0.5,0.7C779.9,330.3,780.1,330,780.2,329.8z"/>
				<path style="fill:#537F53;" d="M779.6,330.7c-0.2,0.2-0.3,0.4-0.5,0.6C779.3,331.1,779.5,330.9,779.6,330.7z"/>
				<path style="fill:#537F53;" d="M755.9,328.8c-0.1,0.3-0.3,0.6-0.5,0.9C755.5,329.5,755.7,329.2,755.9,328.8z"/>
				<path style="fill:#537F53;" d="M777.5,332.7c-1.8,0.6-3.9,1-6.1,0.9c-5.8-0.1-10.7-2.8-12.2-6.4c-0.5,1.2-1.5,2.2-2.6,2.8
					c-0.1-0.2-0.2-0.4-0.3-0.6c1.8,3.3,6.4,5.7,11.9,5.8c4.6,0.1,8.6-1.5,10.9-3.8C778.6,331.8,778,332.3,777.5,332.7z"/>
			</g>
			<polygon style="fill:#7F6C50;" points="755,409.5 755,336.8 742.6,322.4 740.8,324 752.5,342.4 749.8,409.8 			"/>
		</g>
		<g style="opacity:0.75;">
			<g>
				<g>
					<rect x="792" y="400.6" style="fill:#E1D7C2;" width="3.1" height="9.1"/>
					<rect x="793.3" y="388.5" style="fill:#F0EBE1;" width="1.8" height="10.7"/>
					<rect x="825" y="400.6" style="fill:#E1D7C2;" width="3.1" height="9.1"/>
					<rect x="825" y="388.5" style="fill:#F0EBE1;" width="1.8" height="10.7"/>
				</g>
			</g>
			<g>
				<path style="fill:#F0EBE1;" d="M830.6,399H810v3h20.6c0.5,0,1.4-0.6,1.4-1.2v-1.2C832,399,831.2,399,830.6,399z"/>
				<path style="fill:#E6DECD;" d="M789.5,399c-0.5,0-1.5,0-1.5,0.6v1.2c0,0.5,0.9,1.2,1.5,1.2H810v-3H789.5z"/>
			</g>
			<g>
				<path style="fill:#F0EBE1;" d="M827.5,397c0.5,0,0.5,0,0.5-0.5v-2.2c0-0.5,0-1.3-0.5-1.3H810v4H827.5z"/>
				<path style="fill:#E6DECD;" d="M792,394.3v2.2c0,0.5,0,0.5,0.6,0.5H810v-4h-17.4C792,393,792,393.8,792,394.3z"/>
			</g>
			<path style="fill:#F0EBE1;" d="M791.6,390c0,0.5,0.5,1,1,1h34.9c0.5,0,1-0.5,1-1v-2.2c0-0.5-0.5-1-1-1h-34.9c-0.5,0-1,0.5-1,1
				V390z"/>
			<path style="fill:#E6DECD;" d="M792,387.8v2.2c0,0.5,0,1,0.6,1H810v-4h-17.4C792,387,792,387.2,792,387.8z"/>
		</g>
		<g>
			<g>
				<g>
					<polygon style="fill:#897558;" points="579.6,340.9 578.1,339.6 567.5,351.8 557,339.6 555.5,340.9 565.2,355.8 563.4,404.3 
						571.7,404.3 569.9,355.7 					"/>
				</g>
				<g>
					<g>
						<g>
							<g>
								<path style="fill:#649463;" d="M528.3,337.8c0.1,2.1,1.8,3.7,3.7,3.6c0.6,0,1.1-0.2,1.6-0.5c0.6,2.5,3.6,4.3,7.2,4.1
									c2.6-0.1,4.8-1.2,5.9-2.8c1.6,2.6,5.6,4.4,10.2,4.2c4.8-0.2,8.7-2.6,9.9-5.5c0.8,1.7,2.6,2.8,4.6,2.7
									c1.3-0.1,2.5-0.6,3.3-1.5c0.9,1.6,3,2.7,5.4,2.6c1.3-0.1,2.4-0.4,3.4-1c1.8,1.7,4.5,2.8,7.6,2.7c3.3-0.2,6.1-1.7,7.7-3.8
									c0.8,0.4,1.7,0.5,2.6,0.5c3.2-0.2,5.7-2.9,5.5-6.1c-0.2-3.2-2.9-5.7-6.1-5.5c-0.7,0-1.3,0.2-1.9,0.4c0.1-0.5,0.1-1,0.1-1.5
									c-0.2-4.2-3.8-7.4-7.9-7.2c-1.2,0.1-2.4,0.4-3.4,1c-0.9-2.4-3.3-4.1-6-4c-1.7,0.1-3.3,0.9-4.3,2.1c-0.7-2-2.7-3.4-4.9-3.3
									c-0.9,0-1.8,0.3-2.5,0.8c-0.5-0.9-1.4-1.5-2.5-1.4c-0.8,0-1.6,0.5-2,1.1c-1.5-1.8-3.9-2.8-6.7-2.7c-3.5,0.2-6.4,2.3-7.2,5.1
									c-0.5-0.1-1-0.2-1.6-0.1c-3.1,0.1-5.6,2.6-5.8,5.7c-1,0.2-1.9,0.7-2.6,1.5c-0.8-0.3-1.8-0.4-2.8-0.3
									c-3.5,0.2-6.2,2.4-6.1,4.9c0,0.3,0.1,0.6,0.2,0.9c-0.4-0.1-0.8-0.2-1.2-0.2C529.7,334,528.2,335.7,528.3,337.8z"/>
							</g>
						</g>
						<path style="opacity:0.75;fill:#537F53;" d="M567,318.1c-0.7,0.1-1.4,0.5-1.8,1.1c-1.5-1.8-3.9-2.8-6.7-2.7
							c-3.5,0.2-6.4,2.3-7.2,5.1c-0.5-0.1-1-0.2-1.6-0.1c-3.1,0.1-5.6,2.6-5.8,5.7c-1,0.2-1.9,0.7-2.6,1.5c-0.8-0.3-1.8-0.4-2.8-0.3
							c-3.5,0.2-6.2,2.4-6.1,4.9c0,0.3,0.1,0.6,0.2,0.9c-0.4-0.1-0.8-0.2-1.2-0.2c-2,0.1-3.5,1.8-3.4,3.9c0.1,2.1,1.8,3.7,3.7,3.6
							c0.6,0,1.1-0.2,1.6-0.5c0.6,2.5,3.6,4.3,7.2,4.1c2.6-0.1,4.8-1.2,5.9-2.8c1.6,2.6,5.6,4.4,10.2,4.2c4.8-0.2,8.7-2.6,9.9-5.5
							c0,0,0,0,0,0l0.2-0.6V318.1z"/>
					</g>
					<g>
						<path style="opacity:0.5;fill:#537F53;" d="M560,343.7c-4.6,0.2-8.5-1.5-10.2-4.2c-1.2,1.6-3.4,2.7-5.9,2.8
							c-3.6,0.2-6.6-1.6-7.2-4.1c-0.5,0.3-1,0.5-1.6,0.5c-2,0.1-3.6-1.5-3.7-3.6c0-0.5,0-0.9,0.2-1.3c-1.9,0.1-3.4,1.8-3.3,3.9
							c0.1,2.1,1.8,3.7,3.7,3.6c0.6,0,1.1-0.2,1.6-0.5c0.6,2.5,3.6,4.3,7.2,4.1c2.6-0.1,4.8-1.2,5.9-2.8c1.6,2.6,5.6,4.4,10.2,4.2
							c4-0.2,7.4-1.9,9.1-4.1C564.3,343.1,562.3,343.6,560,343.7z"/>
						<path style="opacity:0.5;fill:#537F53;" d="M594.1,343.5c-3,0.1-5.8-0.9-7.6-2.7c-0.9,0.6-2.1,1-3.4,1c-2.4,0.1-4.5-1-5.4-2.6
							c-0.8,0.9-2,1.5-3.3,1.5c-2,0.1-3.7-1-4.6-2.7c-0.5,1.2-1.5,2.4-2.8,3.3c0.9,1.3,2.5,2.1,4.2,2c1.3-0.1,2.5-0.6,3.3-1.5
							c0.9,1.6,3,2.7,5.4,2.6c1.3-0.1,2.4-0.4,3.4-1c1.8,1.7,4.5,2.8,7.6,2.7c3.2-0.2,6-1.6,7.6-3.7
							C597.2,343,595.7,343.5,594.1,343.5z"/>
					</g>
				</g>
				<polygon style="fill:#7F6C50;" points="568,404 568,351.3 567.5,351.8 557,339.6 555.5,340.9 565.2,355.6 563.4,404 				"/>
			</g>
			<g>
				<g>
					<path style="fill:#899C60;" d="M444.8,403.7c-1.2,0-2.3,0.3-3.3,0.8c0-0.1,0-0.2,0-0.2c0-3-2.5-5.5-5.5-5.5
						c-0.6,0-1.2,0.1-1.7,0.3c-0.3-3.2-3-5.8-6.3-5.8c-2.7,0-4.9,1.6-5.9,4c-0.7-1-1.8-1.7-3.2-1.7c-1.1-3.2-4.2-5.5-7.8-5.5
						c-4.1,0-7.5,3-8.1,6.9c-1-0.5-2.2-0.8-3.4-0.8c-4.3,0-7.7,3.4-7.7,7.7c0,0.4,0.1,0.8,0.1,1.2c-0.5-0.1-1-0.1-1.5-0.1
						c-3.7,0-6.8,2.3-8,5.6h69.9C452,406.6,448.7,403.7,444.8,403.7z"/>
				</g>
				<path style="fill:#809159;" d="M419,395.4C419,395.4,419,395.4,419,395.4c-1.2-3.2-4.2-5.5-7.8-5.5c-4.1,0-7.5,3-8.1,6.9
					c-1-0.5-2.2-0.8-3.4-0.8c-4.3,0-7.7,3.4-7.7,7.7c0,0.4,0.1,0.8,0.1,1.2c-0.5-0.1-1-0.3-1.5-0.3c-3.7,0-6.8,2.4-8,5.4H419V395.4z
					"/>
			</g>
			<g>
				<g>
					<g>
						<g>
							<rect x="477.6" y="326" style="fill:#4C4452;" width="2.1" height="22.8"/>
						</g>
					</g>
					<g>
						<g>
							<path style="fill:#CC656F;" d="M478.5,364.8c-4.7,0-8.5-3.8-8.5-8.5c0-4.7,3.8-8.5,8.5-8.5s8.5,3.8,8.5,8.5
								C487.1,361,483.2,364.8,478.5,364.8z M478.5,350.9c-3,0-5.4,2.4-5.4,5.4s2.4,5.4,5.4,5.4c3,0,5.4-2.4,5.4-5.4
								S481.5,350.9,478.5,350.9z"/>
						</g>
						<path style="opacity:0.5;fill:#CC656F;" d="M470,356.3c0,4.7,3.9,8.5,8.6,8.5c0.1,0,0.4,0,0.4,0v-3.1c0,0-0.3,0-0.4,0
							c-3,0-5.5-2.4-5.5-5.4s2.5-5.4,5.5-5.4c0.1,0,0.4,0,0.4,0v-3.1c0,0-0.3,0-0.4,0C473.9,347.8,470,351.6,470,356.3z"/>
					</g>
				</g>
				<g>
					<g>
						<g>
							<rect x="498.4" y="326" style="fill:#4C4452;" width="2.1" height="22.8"/>
						</g>
					</g>
					<g>
						<g>
							<path style="fill:#CC656F;" d="M499.3,364.8c-4.7,0-8.5-3.8-8.5-8.5c0-4.7,3.8-8.5,8.5-8.5c4.7,0,8.5,3.8,8.5,8.5
								C507.8,361,504,364.8,499.3,364.8z M499.3,350.9c-3,0-5.4,2.4-5.4,5.4s2.4,5.4,5.4,5.4s5.4-2.4,5.4-5.4
								S502.3,350.9,499.3,350.9z"/>
						</g>
						<path style="opacity:0.5;fill:#CC656F;" d="M491.1,356.3c0,4.7,3.8,8.5,8.5,8.5c0.1,0,0.2,0,0.3,0v-3.1c-0.1,0-0.2,0-0.3,0
							c-3,0-5.4-2.4-5.4-5.4s2.4-5.4,5.4-5.4c0.1,0,0.2,0,0.3,0v-3.1c-0.1,0-0.2,0-0.3,0C494.9,347.8,491.1,351.6,491.1,356.3z"/>
					</g>
				</g>
				<g>
					<g>
						<g>
							<rect x="456.8" y="326" style="fill:#4C4452;" width="2.1" height="31.1"/>
						</g>
					</g>
					<g>
						<g>
							<path style="fill:#EDD47E;" d="M457.8,373.1c-4.7,0-8.5-3.8-8.5-8.5c0-4.7,3.8-8.5,8.5-8.5c4.7,0,8.5,3.8,8.5,8.5
								C466.3,369.3,462.5,373.1,457.8,373.1z M457.8,359.2c-3,0-5.4,2.4-5.4,5.4c0,3,2.4,5.4,5.4,5.4c3,0,5.4-2.4,5.4-5.4
								C463.2,361.6,460.7,359.2,457.8,359.2z"/>
						</g>
						<path style="opacity:0.5;fill:#EDD47E;" d="M449.2,364.6c0,4.7,3.8,8.5,8.5,8.5c0.1,0,0.2,0,0.2,0V370c-0.1,0-0.2,0-0.2,0
							c-3,0-5.4-2.4-5.4-5.4c0-3,2.4-5.4,5.4-5.4c0.1,0,0.2,0,0.2,0v-3.1c-0.1,0-0.2,0-0.2,0C453.1,356.1,449.2,359.9,449.2,364.6z"
							/>
					</g>
				</g>
				<g>
					<g>
						<g>
							<g>
								<g>
									<g>
										<rect x="519.1" y="326" style="fill:#4C4452;" width="2.1" height="31.1"/>
									</g>
								</g>
							</g>
						</g>
					</g>
					<g>
						<g>
							<path style="fill:#EDD47E;" d="M520.1,373.1c-4.7,0-8.5-3.8-8.5-8.5c0-4.7,3.8-8.5,8.5-8.5c4.7,0,8.5,3.8,8.5,8.5
								C528.6,369.3,524.8,373.1,520.1,373.1z M520.1,359.2c-3,0-5.4,2.4-5.4,5.4c0,3,2.4,5.4,5.4,5.4c3,0,5.4-2.4,5.4-5.4
								C525.5,361.6,523.1,359.2,520.1,359.2z"/>
						</g>
						<path style="opacity:0.5;fill:#EDD47E;" d="M511.6,364.6c0,4.7,3.7,8.5,8.4,8.5c0.1,0,0.1,0,0.1,0V370c0,0,0,0-0.1,0
							c-3,0-5.3-2.4-5.3-5.4c0-3,2.3-5.4,5.3-5.4c0.1,0,0.1,0,0.1,0v-3.1c0,0,0,0-0.1,0C515.2,356.1,511.6,359.9,511.6,364.6z"/>
					</g>
				</g>
			</g>
			<g>
				<g>
					<path style="fill:#EDD47E;" d="M534.1,337l-0.1-0.3c-0.8-5.5-1-6.8-7.2-6.8v-4.6c10.2,0,10.9,5.2,11.7,10.7l9,74.5H543
						L534.1,337z"/>
					<path style="fill:#EDD47E;" d="M437.5,336.4l0-0.3c0.8-5.5,1.5-10.7,11.7-10.7v4.6c-6.2,0-6.4,1.3-7.2,6.8l-9,73.8h-4.6
						L437.5,336.4z"/>
				</g>
				<g>
					<g>
						<rect x="447.6" y="324.3" style="fill:#CC656F;" width="81" height="6.3"/>
					</g>
				</g>
			</g>
			<g>
				<g>
					<path style="fill:#899C60;" d="M598.7,403.7c-1.2,0-2.3,0.3-3.3,0.8c0-0.1,0-0.2,0-0.2c0-3-2.5-5.5-5.5-5.5
						c-0.6,0-1.2,0.1-1.7,0.3c-0.3-3.2-3-5.8-6.3-5.8c-2.7,0-4.9,1.6-5.9,4c-0.7-1-1.8-1.7-3.2-1.7c-1.1-3.2-4.2-5.5-7.8-5.5
						c-4.1,0-7.5,3-8.1,6.9c-1-0.5-2.2-0.8-3.4-0.8c-4.3,0-7.7,3.4-7.7,7.7c0,0.4,0.1,0.8,0.1,1.2c-0.5-0.1-1-0.1-1.5-0.1
						c-3.7,0-6.8,2.3-8,5.6h69.9C605.8,406.6,602.6,403.7,598.7,403.7z"/>
				</g>
				<path style="fill:#809159;" d="M573,395.4c-0.1,0-0.1,0-0.2,0c-1.1-3.2-4.2-5.5-7.8-5.5c-4.1,0-7.5,3-8.1,6.9
					c-1-0.5-2.2-0.8-3.4-0.8c-4.3,0-7.7,3.4-7.7,7.7c0,0.4,0.1,0.8,0.1,1.2c-0.5-0.1-1-0.4-1.5-0.4c-3.7,0-6.8,2.4-8,5.4H573V395.4z
					"/>
			</g>
		</g>
	</g>
</g>
</svg>
