<?xml version="1.0" encoding="utf-8"?>
<!-- Generator: Adobe Illustrator 16.0.0, SVG Export Plug-In . SVG Version: 6.00 Build 0)  -->
<!DOCTYPE svg PUBLIC "-//W3C//DTD SVG 1.1//EN" "http://www.w3.org/Graphics/SVG/1.1/DTD/svg11.dtd">
<svg version="1.1" xmlns="http://www.w3.org/2000/svg" xmlns:xlink="http://www.w3.org/1999/xlink" x="0px" y="0px" width="1280px"
	 height="700px" viewBox="0 0 1280 700" style="enable-background:new 0 0 1280 700;" xml:space="preserve">
<g id="Pulmon">
	<g>
		<g>
			<g>
				<g>
					<g>
						<rect x="625.3" y="241.3" style="fill:#485766;" width="29.3" height="128.3"/>
						<g>
							
								<rect x="610.7" y="350.8" transform="matrix(0.7853 0.6191 -0.6191 0.7853 366.4102 -303.5145)" style="fill:#485766;" width="20.4" height="51.5"/>
							
								<rect x="649" y="350.8" transform="matrix(-0.7854 0.619 -0.619 -0.7854 1409.9331 264.405)" style="fill:#485766;" width="20.4" height="51.5"/>
						</g>
					</g>
					<g>
						<g>
							<g>
								<path style="fill:#5BA4C2;" d="M597,289.8c10.6,0,18.8,7.3,19.6,20.4c2.1,33.3,0,72.5,0,108.7c-3,27.6-59.9,42.1-82.5,62.4
									C488,522.5,512.3,314.2,597,289.8z"/>
							</g>
							<g>
								<g>
									<path style="fill:#5BA4C2;" d="M683.3,288.9c-10.6,0-18.8,7.3-19.7,20.3c-2.2,33.3-0.2,72.5-0.2,108.7
										c2.9,27.6,59.8,42.3,82.4,62.6C791.8,521.9,768,313.5,683.3,288.9z"/>
								</g>
							</g>
						</g>
					</g>
				</g>
			</g>
			<polygon style="opacity:0.1;fill:#485766;" points="639.7,369.6 625.3,354.6 625.3,241.3 639.7,241.3 			"/>
			<path style="opacity:0.25;fill:#5BA4C2;" d="M616.7,409.9c0-1.5,0-3,0-4.4c0-0.9,0-1.8,0-2.6c0-1.4,0-2.8,0.1-4.2
				c0-0.9,0-1.7,0-2.6c0-1.4,0-2.9,0.1-4.3c0-0.7,0-1.5,0-2.2c0.1-4.9,0.2-9.7,0.3-14.6c0-0.8,0-1.6,0-2.3c0-1.4,0-2.8,0.1-4.2
				c0-0.9,0-1.8,0-2.7c0-1.3,0-2.6,0.1-4c0-0.9,0-1.9,0-2.8c0-1.3,0-2.5,0-3.8c0-1,0-1.9,0-2.9c0-1.2,0-2.5,0-3.7c0-1,0-1.9,0-2.9
				c0-1.2,0-2.4,0-3.7c0-1,0-2,0-2.9c0-1.2,0-2.4,0-3.6c0-1,0-2,0-2.9c0-1.2,0-2.3-0.1-3.5c0-1-0.1-2-0.1-2.9c0-1.1-0.1-2.3-0.1-3.4
				c0-1-0.1-2.1-0.1-3.1c0-1-0.1-2.1-0.1-3.1c0,0,0,0,0,0c-47,19.7-46.3,92.6-46,142.7c21.9-11.4,43.9-23.4,45.7-40.2
				c0-2.2,0-4.4,0-6.6C616.7,411.4,616.7,410.6,616.7,409.9z"/>
			<path style="opacity:0.25;fill:#5BA4C2;" d="M714.8,461.2c0.2-52.8-1.9-122.7-51.5-144c-1.4,31.5,0.3,67.3,0.2,100.7
				C665.4,436.2,691.1,448.8,714.8,461.2z"/>
		</g>
		<g>
			<path style="fill:#EE959B;" d="M654.6,241.3c0,5.1-6.5,9.3-14.6,9.3c-8.1,0-14.6-4.2-14.6-9.3c0-5.1,6.5-9.3,14.6-9.3
				C648.1,232,654.6,236.2,654.6,241.3z"/>
			<ellipse style="fill:#CC656F;" cx="640" cy="241.3" rx="7.5" ry="4.5"/>
		</g>
	</g>
</g>
<g id="Globa_Pulmon">
	<g>
		<path style="fill:#D4EAE1;" d="M888.2,235.1c3.4,0,77.6,0.4,80.7,0.4c3.2,0,4.2-0.6,4.2-3.3v-67.9c0-2.7-1-3.4-4.2-3.4
			c-3,0-77.4,0.2-80.8,0.2c-3.2,0-4.6-0.1-5.2-3.1h-0.2c-0.6,3-2.2,3.1-5.4,3.1c-3.4,0-75.3-0.3-78.3-0.3c-3.2,0-4.8,0.7-4.8,3.4
			v67.9c0,2.7,1.6,3.4,4.8,3.4c3,0,74.8-0.4,78.1-0.4c3.2,0,5,1.9,5.6,2.9h0.2C883.3,237,884.9,235.1,888.2,235.1z"/>
		<g>
			<text transform="matrix(1 0 0 1 812.9102 189.2275)"><tspan x="0" y="0" style="fill:#5BA4C2; font-family:'NeoSansStd-Medium'; font-size:10;">Se necesita agua para exhalar,</tspan><tspan x="2" y="12" style="fill:#5BA4C2; font-family:'NeoSansStd-Medium'; font-size:10;">además humedece el oxígeno</tspan><tspan x="41.1" y="24" style="fill:#5BA4C2; font-family:'NeoSansStd-Medium'; font-size:10;">para respirar</tspan></text>
		</g>
	</g>
	<g>
		<g>
			<path style="fill:none;stroke:#D4EAE1;stroke-miterlimit:10;" d="M698.5,366.3c-1.3-1.3-1.3-3.5,0-4.8c1.3-1.3,3.5-1.3,4.8,0
				c1.3,1.3,1.3,3.5,0,4.8C702,367.6,699.8,367.6,698.5,366.3z"/>
		</g>
		<polyline style="fill:none;stroke:#D4EAE1;stroke-miterlimit:10;" points="881.5,249 881.5,283.5 703.1,362.4 		"/>
	</g>
</g>
<g id="Circulo_Gota_Pulmon">
	<g>
		<g>
			<circle style="fill:none;stroke:#D4EAE1;stroke-miterlimit:10;" cx="883.3" cy="111.1" r="37.8"/>
		</g>
	</g>
</g>
<g id="Gota_Pulmon">
	<g>
		<g>
			<g>
				<g>
					<g>
						<path style="fill:#76B3CC;" d="M856.7,96.6L856.7,96.6l26.1-51.5V45l0,0.1l0-0.1l0,0.2l27.4,50.7l0,0.2
							c2.6,4.4,4.1,9.6,4.2,15.1c0.2,17-13.4,31-30.5,31.3c-17,0.2-31-13.4-31.2-30.5C852.8,106.4,854.2,101.2,856.7,96.6z"/>
					</g>
				</g>
			</g>
			<path style="fill:#8BBFD4;" d="M852.9,112c-0.1-5.6,1.4-10.8,3.9-15.3l0-0.1l26.1-51.4V45l0,0.1l0-0.1v97.4
				C866.4,141.9,853.1,128.6,852.9,112z"/>
		</g>
		<g>
			<g>
				<g>
					<g>
						<path style="fill:#D4EAE1;" d="M865.6,124.9c-0.7,0-1.7-0.1-2.1-0.2c-0.2,0-0.3-0.1-0.3-0.3c-0.2-2.3-0.4-4.7-0.5-7
							c0-0.2,0.1-0.3,0.3-0.3c0.3,0,1.3-0.1,2.1-0.1c2.2,0,3.4,1.2,3.5,3.3c0,0.5,0.1,1,0.1,1.6C868.8,123.9,867.7,125,865.6,124.9z
							 M867.1,120.2c-0.1-1.6-0.9-2-2-2c-0.4,0-0.7,0-0.9,0c0.1,1.8,0.2,3.6,0.4,5.4c0.2,0,0.5,0.1,0.9,0.1c1,0,1.8-0.4,1.7-1.9
							C867.2,121.2,867.1,120.7,867.1,120.2z"/>
						<path style="fill:#D4EAE1;" d="M874.6,125c-0.3,0-0.7,0.1-2,0.1c-1.4,0-2.4-0.4-2.5-2.2c-0.1-1.2-0.1-2.5-0.2-3.7
							c-0.1-1.8,1-2.2,2.4-2.2c1.3,0,1.7,0.1,2,0.2c0.2,0,0.2,0.1,0.2,0.2c0,0.2,0,0.5,0,0.7c0,0.1-0.1,0.2-0.2,0.2
							c-0.7,0-1.5,0-2.2,0c-0.6,0-0.8,0.2-0.8,0.9c0,0.4,0,0.8,0,1.2c1,0,1.9,0,2.9,0c0.1,0,0.2,0.1,0.2,0.2c0,0.3,0,0.5,0,0.8
							c0,0.1-0.1,0.2-0.2,0.2c-1,0-1.9,0-2.9,0c0,0.5,0,0.9,0.1,1.4c0,0.7,0.3,0.9,0.9,0.9c0.7,0,1.4,0,2.1,0c0.1,0,0.2,0.1,0.2,0.2
							c0,0.2,0,0.5,0,0.7C874.8,124.9,874.8,125,874.6,125z"/>
						<path style="fill:#D4EAE1;" d="M884.4,125.2c-0.4,0-0.7,0-1.1,0c-0.1,0-0.2-0.1-0.2-0.2c-0.2-0.7-0.3-1.4-0.5-2.1
							c-0.8,0-1.6,0-2.4,0c-0.2,0.7-0.3,1.4-0.4,2c0,0.1-0.1,0.2-0.2,0.2c-0.4,0-0.7,0-1.1,0c-0.1,0-0.2-0.1-0.2-0.2c0,0,0,0,0-0.1
							c0.5-2.2,1.1-4.5,1.6-6.7c0.2-1,1-1.1,1.5-1.1c0.5,0,1.2,0.1,1.5,1.1c0.6,2.3,1.2,4.5,1.7,6.8c0,0,0,0,0,0.1
							C884.6,125.1,884.5,125.2,884.4,125.2z M881.5,118.5c0-0.1-0.1-0.2-0.2-0.2c-0.1,0-0.1,0-0.2,0.2c-0.2,1.1-0.5,2.1-0.7,3.2
							c0.6,0,1.2,0,1.9,0C882.1,120.6,881.8,119.6,881.5,118.5z"/>
						<path style="fill:#D4EAE1;" d="M890.2,125c-0.5,0.1-1.2,0.2-2.3,0.2c-1.1,0-2.8-0.7-2.8-3.3c0-0.5,0-1,0-1.6
							c0-2.6,1.6-3.3,2.9-3.3c1,0,1.9,0.1,2.3,0.2c0.1,0,0.2,0.1,0.2,0.2c0,0.2,0,0.5,0,0.7c0,0.2,0,0.2-0.2,0.2c0,0,0,0,0,0
							c-0.5,0-1.2-0.1-2.3-0.1c-0.7,0-1.4,0.5-1.4,2c0,0.5,0,1,0,1.6c0,1.5,0.7,2,1.3,2c0.4,0,0.7,0,1,0c0-0.9,0-1.8,0.1-2.7
							c0-0.1,0.1-0.2,0.2-0.2c0.4,0,0.7,0,1.1,0c0.1,0,0.2,0.1,0.2,0.2c0,1.2-0.1,2.4-0.1,3.6C890.4,124.9,890.4,125,890.2,125z"/>
						<path style="fill:#D4EAE1;" d="M894.8,125.1c-1.7,0-2.8-0.7-2.8-3c0-1.6,0.1-3.2,0.1-4.8c0-0.1,0.1-0.2,0.2-0.2
							c0.4,0,0.7,0,1.1,0c0.1,0,0.2,0.1,0.2,0.2c0,1.6-0.1,3.2-0.1,4.8c0,1.2,0.2,1.8,1.4,1.8c1.1,0,1.5-0.6,1.5-1.8
							c0.1-1.6,0.1-3.2,0.2-4.8c0-0.1,0.1-0.2,0.2-0.2c0.4,0,0.7,0,1.1,0c0.1,0,0.2,0.1,0.2,0.2c0,1.6-0.1,3.2-0.2,4.8
							C897.7,124.3,896.5,125.1,894.8,125.1z"/>
						<path style="fill:#D4EAE1;" d="M904.5,124.7c-0.4,0-0.7,0-1.1,0c-0.1,0-0.2-0.1-0.2-0.2c-0.1-0.7-0.2-1.3-0.3-2
							c-0.8,0-1.6,0.1-2.4,0.1c-0.2,0.7-0.4,1.3-0.6,2c0,0.1-0.1,0.2-0.2,0.2c-0.4,0-0.7,0-1.1,0c-0.1,0-0.2-0.1-0.2-0.2
							c0,0,0,0,0-0.1c0.7-2.2,1.4-4.5,2.1-6.7c0.3-1,1.1-1.1,1.5-1.1c0.5,0,1.2,0.1,1.4,1c0.5,2.2,0.9,4.4,1.2,6.5c0,0,0,0,0,0.1
							C904.7,124.6,904.6,124.7,904.5,124.7z M902.2,118.3c0-0.1-0.1-0.2-0.2-0.2c-0.1,0-0.1,0-0.2,0.2c-0.3,1-0.6,2.1-0.9,3.2
							c0.6,0,1.2,0,1.9-0.1C902.6,120.4,902.4,119.4,902.2,118.3z"/>
					</g>
				</g>
				<g>
					<g>
						<path style="fill:#D4EAE1;" d="M867.7,114c-2.1,0-3.6-0.3-4.6-0.5c-0.4-0.1-0.5-0.2-0.5-0.5c0-0.7,0-1.3,0-2
							c0-0.3,0.2-0.5,0.4-0.5c0,0,0.1,0,0.1,0c1.1,0.2,2.9,0.3,4.2,0.3c2,0,2.9-0.8,2.9-3.3c0-0.1,0-0.1,0-0.2
							c-0.6,0.1-1.8,0.3-2.7,0.3c-3.1,0-5.7-1.2-5.5-4.9c0-0.1,0-0.1,0-0.2c0.2-3.4,2.6-5.8,6.4-5.9c3.6-0.1,5.9,2,5.8,6.6
							c0,1.2,0,2.3-0.1,3.5C874,112,871.6,114,867.7,114z M870.3,103.4c0.1-3.1-0.8-3.7-2.1-3.7c-1.2,0-2.2,0.6-2.4,2.9
							c0,0.1,0,0.1,0,0.2c-0.1,1.9,1,2.3,2.4,2.3c0.6,0,1.6-0.2,2.1-0.3C870.3,104.3,870.3,103.8,870.3,103.4z"/>
						<path style="fill:#D4EAE1;" d="M881.4,114.1c-3.9,0-6.3-2.3-6.2-7.8c0-0.7,0-1.3,0-2c0.1-5.5,2.5-7.8,6.3-7.9
							c3.8,0,6.1,2.3,6.1,7.8c0,0.7,0,1.3,0,2C887.7,111.8,885.4,114.1,881.4,114.1z M883.7,104.3c0-3.7-1-4.5-2.2-4.5
							c-1.3,0-2.2,0.9-2.3,4.5c0,0.7,0,1.3,0,2c0,3.7,1,4.5,2.3,4.5c1.3,0,2.3-0.9,2.3-4.5C883.7,105.6,883.7,104.9,883.7,104.3z"/>
						<path style="fill:#D4EAE1;" d="M891.8,106.2c-2.2,0-3.4-1.3-3.5-4c0-0.6,0-1.2,0-1.7c0-2.7,1.1-3.9,3.2-3.9
							c2.1,0,3.4,1.3,3.5,4c0,0.6,0,1.1,0.1,1.7C895.2,105,894,106.2,891.8,106.2z M892.8,100.6c0-1.6-0.5-2-1.1-2
							c-0.7,0-1.1,0.4-1,1.9c0,0.6,0,1.2,0,1.7c0,1.6,0.5,2,1.1,2c0.7,0,1.1-0.4,1-2C892.8,101.7,892.8,101.1,892.8,100.6z
							 M903,97.5c-2.6,5.2-5.8,10.5-9,15.9c-0.2,0.3-0.3,0.5-0.5,0.5c-0.8,0-1.6,0-2.4,0c-0.2,0-0.3-0.1-0.3-0.3
							c0-0.1,0-0.1,0.1-0.2c3.2-5.4,6.4-10.8,9.1-16c0.2-0.3,0.3-0.4,0.5-0.4c0.8,0,1.5,0.1,2.3,0.1c0.2,0,0.2,0.1,0.2,0.2
							C903.1,97.3,903.1,97.4,903,97.5z M902.7,113.9c-2.2,0-3.4-1.2-3.4-3.9c0-0.6,0-1.1,0-1.7c0-2.6,1.2-3.9,3.3-3.9
							c2.2,0,3.5,1.3,3.5,3.9c0,0.6,0,1.1,0,1.7C906.1,112.6,904.8,113.9,902.7,113.9z M903.8,108.4c0-1.5-0.5-1.9-1.1-1.9
							c-0.7,0-1.1,0.4-1.1,1.9c0,0.6,0,1.1,0,1.7c0,1.5,0.4,1.9,1.1,1.9c0.7,0,1.1-0.4,1.1-1.9C903.8,109.5,903.8,108.9,903.8,108.4
							z"/>
					</g>
				</g>
			</g>
		</g>
	</g>
</g>
<g id="Banner_Pulmon">
	<g>
		<g>
			<path style="fill:#E2D4D5;" d="M821.9,83.5c2.6,2.5,5.2,5.1,7.7,7.7c0.5,3.6,1.1,7.1,1.7,10.7c3.5-1.8,7.1-3.4,10.8-4.8
				c-2.5-6.4-5-12.9-7.4-19.3C830.4,79.5,826.1,81.4,821.9,83.5z"/>
			<path style="fill:#DBDBDB;" d="M932.9,75.1c-31.9-12.4-67.4-12.5-99.4-0.2c2.4,6.3,4.8,12.6,7.3,18.9
				c27.3-10.5,57.5-10.5,84.8,0.2C928.1,87.7,930.5,81.4,932.9,75.1z"/>
			<path style="fill:#E2D4D5;" d="M943.5,84.6c-2.6,2.5-5.2,5.1-7.6,7.8c-0.5,3.6-1.1,7.1-1.7,10.7c-3.4-1.7-6.9-3.3-10.4-4.7
				c2.5-6.4,5-12.8,7.5-19.3C935.4,80.7,939.5,82.6,943.5,84.6z"/>
		</g>
		<path style="fill:#F5E5E5;" d="M884.3,65.7c-17.2-0.2-34.4,2.9-50.7,9.2c2.4,6.2,4.8,12.4,7.2,18.7c13.9-5.4,28.6-8,43.3-7.9
			C884.1,79.1,884.2,72.4,884.3,65.7z"/>
		<g>
			<path style="fill:#485766;" d="M850.5,83.4c-0.3,0.1-1.1,0.4-1.6,0.6c-1.2,0.4-2.3,0.3-2.8-1.3c-0.5-1.7-1-3.4-1.6-5.1
				c0-0.1,0-0.2,0.1-0.3c0.3-0.1,0.7-0.2,1-0.3c0.1,0,0.2,0,0.3,0.1c0.5,1.7,1,3.4,1.5,5.1c0.2,0.6,0.4,0.8,1,0.6
				c0.6-0.2,1.2-0.3,1.8-0.5c0.1,0,0.2,0,0.2,0.1c0.1,0.2,0.1,0.4,0.2,0.6C850.7,83.3,850.7,83.4,850.5,83.4z"/>
			<path style="fill:#485766;" d="M853.2,82.9c-1.5,0.4-2.6-0.5-2.9-1.9c-0.1-0.3-0.1-0.5-0.2-0.8c-0.4-1.4,0.2-2.7,1.7-3.1
				c1.6-0.4,2.7,0.5,3,1.9c0.1,0.3,0.1,0.5,0.2,0.8C855.3,81.3,854.7,82.5,853.2,82.9z M853.4,79.4c-0.2-0.8-0.7-1.3-1.4-1.1
				c-0.7,0.2-0.9,0.8-0.7,1.6c0.1,0.3,0.1,0.5,0.2,0.8c0.2,0.8,0.7,1.2,1.4,1.1c0.7-0.2,0.9-0.8,0.7-1.6
				C853.6,79.9,853.5,79.6,853.4,79.4z"/>
			<path style="fill:#485766;" d="M858,81.8c-0.4,0.1-1.2,0.2-1.8,0.2c-0.1,0-0.2-0.1-0.2-0.2c0-0.2-0.1-0.4-0.1-0.6
				c0-0.1,0-0.2,0.1-0.2c0,0,0,0,0,0c0.5,0,1.4-0.2,1.7-0.2c0.6-0.1,0.7-0.4,0.6-0.6c0-0.2-0.2-0.3-0.5-0.4c-0.5-0.2-1-0.4-1.5-0.6
				c-0.5-0.2-1-0.6-1.1-1.2c-0.2-1,0.3-1.6,1.6-1.9c0.8-0.2,1.3-0.2,1.8-0.2c0.1,0,0.2,0.1,0.2,0.2c0,0.2,0.1,0.4,0.1,0.6
				c0,0.1,0,0.2-0.1,0.2c0,0,0,0,0,0c-0.3,0-1.1,0.1-1.7,0.2c-0.5,0.1-0.7,0.3-0.6,0.6c0,0.2,0.2,0.2,0.5,0.3c0.5,0.2,1,0.4,1.5,0.5
				c0.9,0.3,1.1,0.8,1.2,1.3C859.7,80.8,859.2,81.6,858,81.8z"/>
			<path style="fill:#485766;" d="M864.5,77.7c-0.3,0-0.7,0.1-0.9,0.1c0.1,0.9,0.3,1.8,0.4,2.6c0,0.1,0,0.2-0.2,0.2
				c-0.3,0.1-0.7,0.1-1,0.2c-0.1,0-0.2-0.1-0.2-0.2c-0.4-2.3-0.8-4.6-1.1-6.9c0-0.2,0.1-0.3,0.3-0.4c0.5-0.2,1.2-0.3,2-0.4
				c1.6-0.2,3.1,0.1,3.3,1.9c0,0,0,0.1,0,0.1C867.3,76.8,866,77.5,864.5,77.7z M865.6,75.1c-0.1-0.8-0.7-1.1-1.7-1
				c-0.2,0-0.7,0.1-0.9,0.2c0.1,0.8,0.2,1.6,0.4,2.4c0.2,0,0.7-0.1,0.9-0.1C865.4,76.4,865.8,76,865.6,75.1
				C865.7,75.1,865.6,75.1,865.6,75.1z"/>
			<path style="fill:#485766;" d="M872.6,79.6c-0.3,0-0.6,0.1-0.9,0.1c-0.1,0-0.2-0.1-0.2-0.2c0-0.1,0-0.2,0-0.2
				c-0.5,0.4-0.9,0.6-1.5,0.7c-0.5,0.1-0.9,0-1.3-0.3c-0.4-0.3-0.6-0.9-0.7-1.8c-0.1-1.1-0.3-2.2-0.4-3.3c0-0.1,0.1-0.2,0.2-0.2
				c0.3,0,0.6-0.1,0.9-0.1c0.1,0,0.2,0.1,0.2,0.2c0.1,1.1,0.2,2.2,0.4,3.3c0.1,0.5,0.1,0.8,0.3,0.9c0.2,0.1,0.3,0.2,0.6,0.1
				c0.4,0,0.8-0.3,1.1-0.5c-0.1-1.4-0.3-2.7-0.4-4.1c0-0.1,0.1-0.2,0.2-0.2c0.3,0,0.6-0.1,0.9-0.1c0.1,0,0.2,0.1,0.2,0.2
				c0.1,1.8,0.3,3.5,0.4,5.3C872.8,79.5,872.7,79.6,872.6,79.6z"/>
			<path style="fill:#485766;" d="M874.9,79.5c-0.3,0-0.6,0-0.9,0.1c-0.1,0-0.2-0.1-0.2-0.2c-0.2-2.4-0.4-4.9-0.5-7.3
				c0-0.1,0.1-0.2,0.2-0.2c0.3,0,0.6,0,1-0.1c0.1,0,0.2,0.1,0.2,0.2c0.2,2.4,0.3,4.9,0.5,7.3C875,79.3,875,79.4,874.9,79.5z"/>
			<path style="fill:#485766;" d="M882.8,79.2c-0.3,0-0.6,0-0.9,0c-0.1,0-0.2-0.1-0.2-0.2c0-1.2,0-2.3,0-3.5c0-0.8-0.2-1-0.7-1
				c-0.2,0-0.6,0.1-0.9,0.3c0,0.2,0.1,0.5,0.1,0.7c0,1.2,0.1,2.3,0.1,3.5c0,0.1-0.1,0.2-0.2,0.2c-0.3,0-0.6,0-0.9,0
				c-0.1,0-0.2-0.1-0.2-0.2c0-1.2-0.1-2.3-0.1-3.5c0-0.8-0.2-1-0.7-1c-0.2,0-0.5,0.1-0.9,0.4c0.1,1.4,0.1,2.7,0.2,4.1
				c0,0.1-0.1,0.2-0.2,0.2c-0.3,0-0.6,0-0.9,0c-0.1,0-0.2-0.1-0.2-0.2c-0.1-1.8-0.2-3.5-0.3-5.3c0-0.1,0.1-0.2,0.2-0.2
				c0.3,0,0.6,0,0.9,0c0.1,0,0.2,0.1,0.2,0.2c0,0.1,0,0.1,0,0.2c0.4-0.3,0.8-0.5,1.4-0.5c0.6,0,1,0.1,1.2,0.4c0.5-0.3,1-0.5,1.7-0.5
				c1.4,0,1.7,0.9,1.7,2.1c0,1.2,0,2.3,0,3.5C883,79.1,882.9,79.2,882.8,79.2z"/>
			<path style="fill:#485766;" d="M886.1,79.3c-1.5,0-2.3-1.1-2.3-2.6c0-0.3,0-0.6,0-0.8c0-1.5,0.9-2.5,2.5-2.5
				c1.6,0,2.4,1.2,2.3,2.6c0,0.3,0,0.5,0,0.8C888.5,78.3,887.6,79.3,886.1,79.3z M887.3,76c0-0.8-0.3-1.4-1-1.4
				c-0.7,0-1.1,0.5-1.1,1.4c0,0.3,0,0.6,0,0.8c0,0.8,0.3,1.4,1,1.4c0.7,0,1.1-0.5,1.1-1.3C887.3,76.5,887.3,76.2,887.3,76z"/>
			<path style="fill:#485766;" d="M893.5,79.6c-0.3,0-0.6-0.1-0.9-0.1c-0.1,0-0.2-0.1-0.2-0.2c0.1-1.1,0.2-2.2,0.3-3.3
				c0.1-0.9,0-1.1-0.8-1.2c-0.3,0-0.7,0.1-1.2,0.3c-0.1,1.4-0.2,2.7-0.2,4.1c0,0.1-0.1,0.2-0.2,0.2c-0.3,0-0.6,0-0.9,0
				c-0.1,0-0.2-0.1-0.2-0.2c0.1-1.8,0.2-3.5,0.3-5.3c0-0.1,0.1-0.2,0.2-0.2c0.3,0,0.6,0,0.9,0c0.1,0,0.2,0.1,0.2,0.2
				c0,0.1,0,0.1,0,0.2c0.6-0.3,1-0.4,1.7-0.4c1.5,0.1,1.7,1.1,1.6,2.4c-0.1,1.1-0.2,2.2-0.3,3.3C893.7,79.5,893.6,79.6,893.5,79.6z"
				/>
			<path style="fill:#485766;" d="M899.2,77.8c-1.1-0.1-2.2-0.3-3.3-0.4c0,0,0,0,0,0c-0.1,0.6,0.1,1.3,1.1,1.4
				c0.7,0.1,1.4,0.1,1.8,0.1c0,0,0,0,0,0c0.1,0,0.2,0.1,0.2,0.2c0,0.2-0.1,0.4-0.1,0.7c0,0.2-0.1,0.2-0.2,0.2c-0.7,0-1,0-1.9-0.1
				c-1-0.1-2.3-0.8-2.1-2.8c0-0.3,0-0.5,0.1-0.8c0.1-1.6,1.1-2.5,2.7-2.3c1.6,0.2,2.3,1.4,2.1,2.9c0,0.2,0,0.4-0.1,0.6
				C899.4,77.8,899.4,77.8,899.2,77.8z M898.2,76.7c0.1-0.8-0.3-1.3-0.9-1.4c-0.6-0.1-1.1,0.3-1.2,1.1c0,0,0,0,0,0
				C896.8,76.6,897.5,76.6,898.2,76.7C898.2,76.7,898.2,76.7,898.2,76.7z"/>
			<path style="fill:#485766;" d="M901.6,80.7c-0.4-0.1-1.2-0.2-1.7-0.5c-0.1,0-0.2-0.1-0.2-0.3c0-0.2,0.1-0.4,0.1-0.6
				c0-0.1,0.1-0.2,0.2-0.1c0,0,0,0,0,0c0.5,0.1,1.3,0.3,1.6,0.3c0.6,0.1,0.7-0.1,0.8-0.4c0-0.2-0.1-0.3-0.4-0.6
				c-0.4-0.4-0.8-0.7-1.2-1c-0.4-0.4-0.7-0.9-0.7-1.5c0.1-1,0.8-1.4,2.1-1.2c0.8,0.1,1.3,0.3,1.8,0.5c0.1,0.1,0.2,0.1,0.1,0.3
				c0,0.2-0.1,0.4-0.1,0.6c0,0.1-0.1,0.2-0.2,0.2c0,0,0,0,0,0c-0.3-0.1-1.1-0.3-1.6-0.4c-0.5-0.1-0.7,0-0.8,0.3
				c0,0.2,0.1,0.3,0.3,0.5c0.4,0.3,0.8,0.7,1.2,1c0.8,0.6,0.8,1.2,0.7,1.7C903.6,80.3,902.9,80.9,901.6,80.7z"/>
			<path style="fill:#485766;" d="M908,81.8c-0.4-0.1-1.2-0.3-1.7-0.5c-0.1-0.1-0.2-0.1-0.1-0.3c0-0.2,0.1-0.4,0.1-0.6
				c0-0.1,0.1-0.1,0.2-0.1c0,0,0,0,0,0c0.5,0.2,1.3,0.4,1.6,0.4c0.6,0.1,0.7-0.1,0.8-0.3c0-0.2-0.1-0.3-0.3-0.6
				c-0.4-0.4-0.8-0.7-1.2-1.1c-0.4-0.4-0.7-1-0.6-1.5c0.2-1,0.9-1.4,2.2-1.1c0.8,0.2,1.3,0.4,1.8,0.6c0.1,0.1,0.2,0.1,0.1,0.3
				c0,0.2-0.1,0.4-0.1,0.6c0,0.1-0.1,0.2-0.2,0.2c0,0,0,0,0,0c-0.3-0.1-1.1-0.4-1.6-0.5c-0.5-0.1-0.7,0-0.8,0.3
				c0,0.2,0.1,0.3,0.3,0.5c0.4,0.4,0.8,0.7,1.1,1.1c0.7,0.7,0.7,1.2,0.6,1.7C910,81.5,909.3,82.1,908,81.8z"/>
			<path style="fill:#485766;" d="M912.7,82.9c-1.5-0.4-2.1-1.6-1.7-3c0.1-0.3,0.1-0.5,0.2-0.8c0.3-1.4,1.4-2.3,3-1.9
				c1.6,0.4,2.1,1.7,1.7,3.1c-0.1,0.3-0.1,0.5-0.2,0.8C915.3,82.4,914.2,83.2,912.7,82.9z M914.6,79.9c0.2-0.8,0-1.4-0.7-1.6
				c-0.7-0.2-1.2,0.3-1.4,1.1c-0.1,0.3-0.1,0.5-0.2,0.8c-0.2,0.8,0,1.4,0.7,1.6c0.7,0.2,1.2-0.3,1.4-1.1
				C914.4,80.4,914.5,80.1,914.6,79.9z"/>
			<path style="fill:#485766;" d="M919.9,84.8c-0.3-0.1-0.6-0.2-0.9-0.3c-0.1,0-0.2-0.2-0.1-0.3c0.3-1.1,0.6-2.1,1-3.2
				c0.3-0.8,0.2-1.1-0.5-1.3c-0.3-0.1-0.7-0.1-1.2,0c-0.4,1.3-0.7,2.6-1.1,3.9c0,0.1-0.1,0.2-0.2,0.2c-0.3-0.1-0.6-0.2-0.9-0.2
				c-0.1,0-0.2-0.2-0.1-0.3c0.5-1.7,0.9-3.4,1.4-5.1c0-0.1,0.1-0.2,0.3-0.1c0.3,0.1,0.6,0.2,0.9,0.2c0.1,0,0.2,0.1,0.1,0.3
				c0,0.1,0,0.1-0.1,0.2c0.7-0.2,1.1-0.2,1.8,0c1.4,0.4,1.4,1.5,1,2.7c-0.3,1.1-0.7,2.1-1,3.2C920.1,84.8,920,84.8,919.9,84.8z"/>
		</g>
	</g>
</g>
</svg>
