<?xml version="1.0" encoding="utf-8"?>
<!-- Generator: Adobe Illustrator 16.0.0, SVG Export Plug-In . SVG Version: 6.00 Build 0)  -->
<!DOCTYPE svg PUBLIC "-//W3C//DTD SVG 1.1//EN" "http://www.w3.org/Graphics/SVG/1.1/DTD/svg11.dtd">
<svg version="1.1" id="Layer_1" xmlns="http://www.w3.org/2000/svg" xmlns:xlink="http://www.w3.org/1999/xlink" x="0px" y="0px"
	 width="57.5px" height="309.7px" viewBox="0 0 57.5 309.7" style="enable-background:new 0 0 57.5 309.7;" xml:space="preserve">
<g>
	<path style="fill:#5CA5C3;" d="M13.3,16.9c-0.4-1.1-1.7-4.2-1.9-4.7c-0.1-0.3-0.3-0.6-0.6-0.5c-0.3,0-0.5,0.3-0.6,0.5
		c-0.2,0.5-1.5,3.7-1.9,4.7c-0.4,1-0.9,1.9-0.7,3c0.2,1.1,1,1.9,2,2.3c0.4,0.1,0.8,0.2,1.1,0.2c0.4,0,0.7,0,1.1-0.2
		c1-0.4,1.8-1.3,2-2.3C14.1,18.8,13.7,17.8,13.3,16.9z"/>
	<path style="opacity:0.35;fill:#5CA5C3;enable-background:new    ;" d="M10.3,12.1c-0.2,0.5-1.5,3.7-1.9,4.7c-0.4,1-0.9,1.9-0.7,3
		c0.2,1.1,1,1.9,2,2.3c0.4,0.1,0.8,0.2,1.1,0.2V11.6C10.5,11.6,10.4,11.9,10.3,12.1z"/>
</g>
<g>
	<path style="fill:#5CA5C3;" d="M38.7,16.9c-0.4-1.1-1.7-4.2-1.9-4.7c-0.1-0.3-0.3-0.6-0.6-0.5c-0.3,0-0.5,0.3-0.6,0.5
		c-0.2,0.5-1.5,3.7-1.9,4.7c-0.4,1-0.9,1.9-0.7,3c0.2,1.1,1,1.9,2,2.3c0.4,0.1,0.8,0.2,1.1,0.2c0.4,0,0.7,0,1.1-0.2
		c1-0.4,1.8-1.3,2-2.3C39.5,18.8,39,17.8,38.7,16.9z"/>
	<path style="opacity:0.35;fill:#5CA5C3;enable-background:new    ;" d="M35.6,12.1c-0.2,0.5-1.5,3.7-1.9,4.7c-0.4,1-0.9,1.9-0.7,3
		c0.2,1.1,1,1.9,2,2.3c0.4,0.1,0.8,0.2,1.1,0.2V11.6C35.9,11.6,35.7,11.9,35.6,12.1z"/>
</g>
<g>
	<path style="fill:#5CA5C3;" d="M38.7-0.1c-0.4-1.1-1.7-4.2-1.9-4.7c-0.1-0.3-0.3-0.6-0.6-0.5c-0.3,0-0.5,0.3-0.6,0.5
		c-0.2,0.5-1.5,3.7-1.9,4.7c-0.4,1-0.9,1.9-0.7,3c0.2,1.1,1,1.9,2,2.3c0.4,0.1,0.8,0.2,1.1,0.2c0.4,0,0.7,0,1.1-0.2
		c1-0.4,1.8-1.3,2-2.3C39.5,1.8,39,0.9,38.7-0.1z"/>
	<path style="opacity:0.35;fill:#5CA5C3;enable-background:new    ;" d="M35.6-4.8c-0.2,0.5-1.5,3.7-1.9,4.7c-0.4,1-0.9,1.9-0.7,3
		c0.2,1.1,1,1.9,2,2.3c0.4,0.1,0.8,0.2,1.1,0.2V-5.4C35.9-5.4,35.7-5.1,35.6-4.8z"/>
</g>
<g>
	<path style="fill:#5CA5C3;" d="M25.7,27.4c-0.4-1.1-1.7-4.2-1.9-4.7c-0.1-0.3-0.3-0.6-0.6-0.5c-0.3,0-0.5,0.3-0.6,0.5
		c-0.2,0.5-1.5,3.7-1.9,4.7c-0.4,1-0.9,1.9-0.7,3c0.2,1.1,1,1.9,2,2.3c0.4,0.1,0.8,0.2,1.1,0.2c0.4,0,0.7,0,1.1-0.2
		c1-0.4,1.8-1.3,2-2.3C26.6,29.3,26.1,28.4,25.7,27.4z"/>
	<path style="opacity:0.35;fill:#5CA5C3;enable-background:new    ;" d="M22.7,22.7c-0.2,0.5-1.5,3.7-1.9,4.7c-0.4,1-0.9,1.9-0.7,3
		c0.2,1.1,1,1.9,2,2.3c0.4,0.1,0.8,0.2,1.1,0.2V22.1C23,22.1,22.8,22.4,22.7,22.7z"/>
</g>
<g>
	<path style="fill:#5CA5C3;" d="M51.1,27.4c-0.4-1.1-1.7-4.2-1.9-4.7c-0.1-0.3-0.3-0.6-0.6-0.5c-0.3,0-0.5,0.3-0.6,0.5
		c-0.2,0.5-1.5,3.7-1.9,4.7c-0.4,1-0.9,1.9-0.6,3c0.2,1.1,1,1.9,2,2.3c0.4,0.1,0.8,0.2,1.1,0.2c0.4,0,0.7,0,1.1-0.2
		c1-0.4,1.8-1.3,2-2.3C52,29.3,51.5,28.4,51.1,27.4z"/>
	<path style="opacity:0.35;fill:#5CA5C3;enable-background:new    ;" d="M48.1,22.7c-0.2,0.5-1.5,3.7-1.9,4.7c-0.4,1-0.9,1.9-0.6,3
		c0.2,1.1,1,1.9,2,2.3c0.4,0.1,0.8,0.2,1.1,0.2V22.1C48.4,22.1,48.2,22.4,48.1,22.7z"/>
</g>
<g>
	<path style="fill:#5CA5C3;" d="M13.3,37.9c-0.4-1.1-1.7-4.2-1.9-4.7c-0.1-0.3-0.3-0.6-0.6-0.5c-0.3,0-0.5,0.3-0.6,0.5
		c-0.2,0.5-1.5,3.7-1.9,4.7c-0.4,1-0.9,1.9-0.6,3c0.2,1.1,1,1.9,2,2.3c0.4,0.1,0.8,0.2,1.1,0.2c0.4,0,0.7,0,1.1-0.2
		c1-0.4,1.8-1.3,2-2.3C14.1,39.8,13.7,38.9,13.3,37.9z"/>
	<path style="opacity:0.35;fill:#5CA5C3;enable-background:new    ;" d="M10.3,33.2c-0.2,0.5-1.5,3.7-1.9,4.7c-0.4,1-0.9,1.9-0.7,3
		c0.2,1.1,1,1.9,2,2.3c0.4,0.1,0.8,0.2,1.1,0.2V32.6C10.5,32.6,10.4,32.9,10.3,33.2z"/>
</g>
<g>
	<path style="fill:#5CA5C3;" d="M38.7,37.9c-0.4-1.1-1.7-4.2-1.9-4.7c-0.1-0.3-0.3-0.6-0.6-0.5c-0.3,0-0.5,0.3-0.6,0.5
		c-0.2,0.5-1.5,3.7-1.9,4.7c-0.4,1-0.9,1.9-0.7,3c0.2,1.1,1,1.9,2,2.3c0.4,0.1,0.8,0.2,1.1,0.2c0.4,0,0.7,0,1.1-0.2
		c1-0.4,1.8-1.3,2-2.3C39.5,39.8,39,38.9,38.7,37.9z"/>
	<path style="opacity:0.35;fill:#5CA5C3;enable-background:new    ;" d="M35.6,33.2c-0.2,0.5-1.5,3.7-1.9,4.7c-0.4,1-0.9,1.9-0.7,3
		c0.2,1.1,1,1.9,2,2.3c0.4,0.1,0.8,0.2,1.1,0.2V32.6C35.9,32.6,35.7,32.9,35.6,33.2z"/>
</g>
<g>
	<path style="fill:#5CA5C3;" d="M25.7,48.4c-0.4-1.1-1.7-4.2-1.9-4.7c-0.1-0.3-0.3-0.6-0.6-0.5c-0.3,0-0.5,0.3-0.6,0.5
		c-0.2,0.5-1.5,3.7-1.9,4.7c-0.4,1-0.9,1.9-0.7,3c0.2,1.1,1,1.9,2,2.3c0.4,0.1,0.8,0.2,1.1,0.2c0.4,0,0.7,0,1.1-0.2
		c1-0.4,1.8-1.3,2-2.3C26.6,50.3,26.1,49.4,25.7,48.4z"/>
	<path style="opacity:0.35;fill:#5CA5C3;enable-background:new    ;" d="M22.7,43.7c-0.2,0.5-1.5,3.7-1.9,4.7c-0.4,1-0.9,1.9-0.7,3
		c0.2,1.1,1,1.9,2,2.3c0.4,0.1,0.8,0.2,1.1,0.2V43.2C23,43.1,22.8,43.4,22.7,43.7z"/>
</g>
<g>
	<path style="fill:#5CA5C3;" d="M51.1,48.4c-0.4-1.1-1.7-4.2-1.9-4.7c-0.1-0.3-0.3-0.6-0.6-0.5c-0.3,0-0.5,0.3-0.6,0.5
		c-0.2,0.5-1.5,3.7-1.9,4.7c-0.4,1-0.9,1.9-0.6,3c0.2,1.1,1,1.9,2,2.3c0.4,0.1,0.8,0.2,1.1,0.2c0.4,0,0.7,0,1.1-0.2
		c1-0.4,1.8-1.3,2-2.3C52,50.3,51.5,49.4,51.1,48.4z"/>
	<path style="opacity:0.35;fill:#5CA5C3;enable-background:new    ;" d="M48.1,43.7c-0.2,0.5-1.5,3.7-1.9,4.7c-0.4,1-0.9,1.9-0.6,3
		c0.2,1.1,1,1.9,2,2.3c0.4,0.1,0.8,0.2,1.1,0.2V43.2C48.4,43.1,48.2,43.4,48.1,43.7z"/>
</g>
<g>
	<path style="fill:#5CA5C3;" d="M13.3,59c-0.4-1.1-1.7-4.2-1.9-4.7c-0.1-0.3-0.3-0.6-0.6-0.5c-0.3,0-0.5,0.3-0.6,0.5
		C10,54.7,8.8,57.9,8.4,59c-0.4,1-0.9,1.9-0.7,3c0.2,1.1,1,1.9,2,2.3c0.4,0.1,0.8,0.2,1.1,0.2c0.4,0,0.7,0,1.1-0.2
		c1-0.4,1.8-1.3,2-2.3C14.1,60.9,13.7,59.9,13.3,59z"/>
	<path style="opacity:0.35;fill:#5CA5C3;enable-background:new    ;" d="M10.3,54.2C10,54.7,8.8,57.9,8.4,59c-0.4,1-0.9,1.9-0.7,3
		c0.2,1.1,1,1.9,2,2.3c0.4,0.1,0.8,0.2,1.1,0.2V53.7C10.5,53.7,10.4,54,10.3,54.2z"/>
</g>
<g>
	<path style="fill:#5CA5C3;" d="M38.7,59c-0.4-1.1-1.7-4.2-1.9-4.7c-0.1-0.3-0.3-0.6-0.6-0.5c-0.3,0-0.5,0.3-0.6,0.5
		c-0.2,0.5-1.5,3.7-1.9,4.7c-0.4,1-0.9,1.9-0.7,3c0.2,1.1,1,1.9,2,2.3c0.4,0.1,0.8,0.2,1.1,0.2c0.4,0,0.7,0,1.1-0.2
		c1-0.4,1.8-1.3,2-2.3C39.5,60.9,39,59.9,38.7,59z"/>
	<path style="opacity:0.35;fill:#5CA5C3;enable-background:new    ;" d="M35.6,54.2c-0.2,0.5-1.5,3.7-1.9,4.7c-0.4,1-0.9,1.9-0.7,3
		c0.2,1.1,1,1.9,2,2.3c0.4,0.1,0.8,0.2,1.1,0.2V53.7C35.9,53.7,35.7,54,35.6,54.2z"/>
</g>
<g>
	<path style="fill:#5CA5C3;" d="M25.7,69.7c-0.4-1.1-1.7-4.2-1.9-4.7c-0.1-0.3-0.3-0.6-0.6-0.5c-0.3,0-0.5,0.3-0.6,0.5
		c-0.2,0.5-1.5,3.7-1.9,4.7c-0.4,1-0.9,1.9-0.7,3c0.2,1.1,1,1.9,2,2.3c0.4,0.1,0.8,0.2,1.1,0.2c0.4,0,0.7,0,1.1-0.2
		c1-0.4,1.8-1.3,2-2.3C26.6,71.6,26.1,70.7,25.7,69.7z"/>
	<path style="opacity:0.35;fill:#5CA5C3;enable-background:new    ;" d="M22.7,65c-0.2,0.5-1.5,3.7-1.9,4.7c-0.4,1-0.9,1.9-0.7,3
		c0.2,1.1,1,1.9,2,2.3c0.4,0.1,0.8,0.2,1.1,0.2V64.5C23,64.4,22.8,64.7,22.7,65z"/>
</g>
<g>
	<path style="fill:#5CA5C3;" d="M51.1,69.7c-0.4-1.1-1.7-4.2-1.9-4.7c-0.1-0.3-0.3-0.6-0.6-0.5c-0.3,0-0.5,0.3-0.6,0.5
		c-0.2,0.5-1.5,3.7-1.9,4.7c-0.4,1-0.9,1.9-0.6,3c0.2,1.1,1,1.9,2,2.3c0.4,0.1,0.8,0.2,1.1,0.2c0.4,0,0.7,0,1.1-0.2
		c1-0.4,1.8-1.3,2-2.3C52,71.6,51.5,70.7,51.1,69.7z"/>
	<path style="opacity:0.35;fill:#5CA5C3;enable-background:new    ;" d="M48.1,65c-0.2,0.5-1.5,3.7-1.9,4.7c-0.4,1-0.9,1.9-0.6,3
		c0.2,1.1,1,1.9,2,2.3c0.4,0.1,0.8,0.2,1.1,0.2V64.5C48.4,64.4,48.2,64.7,48.1,65z"/>
</g>
<g>
	<path style="fill:#5CA5C3;" d="M13.3,80.3c-0.4-1.1-1.7-4.2-1.9-4.7c-0.1-0.3-0.3-0.6-0.6-0.5c-0.3,0-0.5,0.3-0.6,0.5
		C10,76,8.8,79.2,8.4,80.3c-0.4,1-0.9,1.9-0.7,3c0.2,1.1,1,1.9,2,2.3c0.4,0.1,0.8,0.2,1.1,0.2c0.4,0,0.7,0,1.1-0.2
		c1-0.4,1.8-1.3,2-2.3C14.1,82.2,13.7,81.2,13.3,80.3z"/>
	<path style="opacity:0.35;fill:#5CA5C3;enable-background:new    ;" d="M10.3,75.5C10,76,8.8,79.2,8.4,80.3c-0.4,1-0.9,1.9-0.7,3
		c0.2,1.1,1,1.9,2,2.3c0.4,0.1,0.8,0.2,1.1,0.2V75C10.5,74.9,10.4,75.3,10.3,75.5z"/>
</g>
<g>
	<path style="fill:#5CA5C3;" d="M38.7,80.3c-0.4-1.1-1.7-4.2-1.9-4.7c-0.1-0.3-0.3-0.6-0.6-0.5c-0.3,0-0.5,0.3-0.6,0.5
		c-0.2,0.5-1.5,3.7-1.9,4.7c-0.4,1-0.9,1.9-0.7,3c0.2,1.1,1,1.9,2,2.3c0.4,0.1,0.8,0.2,1.1,0.2c0.4,0,0.7,0,1.1-0.2
		c1-0.4,1.8-1.3,2-2.3C39.5,82.2,39,81.2,38.7,80.3z"/>
	<path style="opacity:0.35;fill:#5CA5C3;enable-background:new    ;" d="M35.6,75.5c-0.2,0.5-1.5,3.7-1.9,4.7c-0.4,1-0.9,1.9-0.7,3
		c0.2,1.1,1,1.9,2,2.3c0.4,0.1,0.8,0.2,1.1,0.2V75C35.9,74.9,35.7,75.3,35.6,75.5z"/>
</g>
<g>
	<path style="fill:#5CA5C3;" d="M25.7,90.8c-0.4-1.1-1.7-4.2-1.9-4.7c-0.1-0.3-0.3-0.6-0.6-0.5c-0.3,0-0.5,0.3-0.6,0.5
		c-0.2,0.5-1.5,3.7-1.9,4.7c-0.4,1-0.9,1.9-0.7,3c0.2,1.1,1,1.9,2,2.3c0.4,0.1,0.8,0.2,1.1,0.2c0.4,0,0.7,0,1.1-0.2
		c1-0.4,1.8-1.3,2-2.3C26.6,92.7,26.1,91.7,25.7,90.8z"/>
	<path style="opacity:0.35;fill:#5CA5C3;enable-background:new    ;" d="M22.7,86c-0.2,0.5-1.5,3.7-1.9,4.7c-0.4,1-0.9,1.9-0.7,3
		c0.2,1.1,1,1.9,2,2.3c0.4,0.1,0.8,0.2,1.1,0.2V85.5C23,85.5,22.8,85.8,22.7,86z"/>
</g>
<g>
	<path style="fill:#5CA5C3;" d="M51.1,90.8c-0.4-1.1-1.7-4.2-1.9-4.7c-0.1-0.3-0.3-0.6-0.6-0.5c-0.3,0-0.5,0.3-0.6,0.5
		c-0.2,0.5-1.5,3.7-1.9,4.7c-0.4,1-0.9,1.9-0.6,3c0.2,1.1,1,1.9,2,2.3c0.4,0.1,0.8,0.2,1.1,0.2c0.4,0,0.7,0,1.1-0.2
		c1-0.4,1.8-1.3,2-2.3C52,92.7,51.5,91.7,51.1,90.8z"/>
	<path style="opacity:0.35;fill:#5CA5C3;enable-background:new    ;" d="M48.1,86c-0.2,0.5-1.5,3.7-1.9,4.7c-0.4,1-0.9,1.9-0.6,3
		c0.2,1.1,1,1.9,2,2.3c0.4,0.1,0.8,0.2,1.1,0.2V85.5C48.4,85.5,48.2,85.8,48.1,86z"/>
</g>
<g>
	<path style="fill:#5CA5C3;" d="M13.3,101.3c-0.4-1.1-1.7-4.2-1.9-4.7c-0.1-0.3-0.3-0.6-0.6-0.5c-0.3,0-0.5,0.3-0.6,0.5
		c-0.2,0.5-1.5,3.7-1.9,4.7c-0.4,1-0.9,1.9-0.7,3c0.2,1.1,1,2,2,2.3c0.4,0.1,0.8,0.2,1.1,0.2c0.4,0,0.7,0,1.1-0.2
		c1-0.4,1.8-1.3,2-2.3C14.1,103.2,13.7,102.3,13.3,101.3z"/>
	<path style="opacity:0.35;fill:#5CA5C3;enable-background:new    ;" d="M10.3,96.6c-0.2,0.5-1.5,3.7-1.9,4.7c-0.4,1-0.9,1.9-0.7,3
		c0.2,1.1,1,2,2,2.3c0.4,0.1,0.8,0.2,1.1,0.2V96C10.5,96,10.4,96.3,10.3,96.6z"/>
</g>
<g>
	<path style="fill:#5CA5C3;" d="M38.7,101.3c-0.4-1.1-1.7-4.2-1.9-4.7c-0.1-0.3-0.3-0.6-0.6-0.5c-0.3,0-0.5,0.3-0.6,0.5
		c-0.2,0.5-1.5,3.7-1.9,4.7c-0.4,1-0.9,1.9-0.7,3c0.2,1.1,1,2,2,2.3c0.4,0.1,0.8,0.2,1.1,0.2c0.4,0,0.7,0,1.1-0.2
		c1-0.4,1.8-1.3,2-2.3C39.5,103.2,39,102.3,38.7,101.3z"/>
	<path style="opacity:0.35;fill:#5CA5C3;enable-background:new    ;" d="M35.6,96.6c-0.2,0.5-1.5,3.7-1.9,4.7c-0.4,1-0.9,1.9-0.7,3
		c0.2,1.1,1,2,2,2.3c0.4,0.1,0.8,0.2,1.1,0.2V96C35.9,96,35.7,96.3,35.6,96.6z"/>
</g>
<g>
	<path style="fill:#5CA5C3;" d="M25.7,112.1c-0.4-1.1-1.7-4.2-1.9-4.7c-0.1-0.3-0.3-0.6-0.6-0.5c-0.3,0-0.5,0.3-0.6,0.5
		c-0.2,0.5-1.5,3.7-1.9,4.7c-0.4,1-0.9,1.9-0.7,3c0.2,1.1,1,1.9,2,2.3c0.4,0.1,0.8,0.2,1.1,0.2c0.4,0,0.7,0,1.1-0.2
		c1-0.4,1.8-1.3,2-2.3C26.6,114,26.1,113,25.7,112.1z"/>
	<path style="opacity:0.35;fill:#5CA5C3;enable-background:new    ;" d="M22.7,107.3c-0.2,0.5-1.5,3.7-1.9,4.7c-0.4,1-0.9,1.9-0.7,3
		c0.2,1.1,1,1.9,2,2.3c0.4,0.1,0.8,0.2,1.1,0.2v-10.8C23,106.8,22.8,107.1,22.7,107.3z"/>
</g>
<g>
	<path style="fill:#5CA5C3;" d="M51.1,112.1c-0.4-1.1-1.7-4.2-1.9-4.7c-0.1-0.3-0.3-0.6-0.6-0.5c-0.3,0-0.5,0.3-0.6,0.5
		c-0.2,0.5-1.5,3.7-1.9,4.7c-0.4,1-0.9,1.9-0.6,3c0.2,1.1,1,1.9,2,2.3c0.4,0.1,0.8,0.2,1.1,0.2c0.4,0,0.7,0,1.1-0.2
		c1-0.4,1.8-1.3,2-2.3C52,114,51.5,113,51.1,112.1z"/>
	<path style="opacity:0.35;fill:#5CA5C3;enable-background:new    ;" d="M48.1,107.3c-0.2,0.5-1.5,3.7-1.9,4.7c-0.4,1-0.9,1.9-0.6,3
		c0.2,1.1,1,1.9,2,2.3c0.4,0.1,0.8,0.2,1.1,0.2v-10.8C48.4,106.8,48.2,107.1,48.1,107.3z"/>
</g>
<g>
	<path style="fill:#5CA5C3;" d="M13.3,122.6c-0.4-1.1-1.7-4.2-1.9-4.7c-0.1-0.3-0.3-0.6-0.6-0.5c-0.3,0-0.5,0.3-0.6,0.5
		c-0.2,0.5-1.5,3.7-1.9,4.7c-0.4,1-0.9,1.9-0.7,3c0.2,1.1,1,1.9,2,2.3c0.4,0.1,0.8,0.2,1.1,0.2c0.4,0,0.7,0,1.1-0.2
		c1-0.4,1.8-1.3,2-2.3C14.1,124.5,13.7,123.6,13.3,122.6z"/>
	<path style="opacity:0.35;fill:#5CA5C3;enable-background:new    ;" d="M10.3,117.9c-0.2,0.5-1.5,3.7-1.9,4.7c-0.4,1-0.9,1.9-0.7,3
		c0.2,1.1,1,1.9,2,2.3c0.4,0.1,0.8,0.2,1.1,0.2v-10.8C10.5,117.3,10.4,117.6,10.3,117.9z"/>
</g>
<g>
	<path style="fill:#5CA5C3;" d="M38.7,122.6c-0.4-1.1-1.7-4.2-1.9-4.7c-0.1-0.3-0.3-0.6-0.6-0.5c-0.3,0-0.5,0.3-0.6,0.5
		c-0.2,0.5-1.5,3.7-1.9,4.7c-0.4,1-0.9,1.9-0.7,3c0.2,1.1,1,1.9,2,2.3c0.4,0.1,0.8,0.2,1.1,0.2c0.4,0,0.7,0,1.1-0.2
		c1-0.4,1.8-1.3,2-2.3C39.5,124.5,39,123.6,38.7,122.6z"/>
	<path style="opacity:0.35;fill:#5CA5C3;enable-background:new    ;" d="M35.6,117.9c-0.2,0.5-1.5,3.7-1.9,4.7c-0.4,1-0.9,1.9-0.7,3
		c0.2,1.1,1,1.9,2,2.3c0.4,0.1,0.8,0.2,1.1,0.2v-10.8C35.9,117.3,35.7,117.6,35.6,117.9z"/>
</g>
<g>
	<path style="fill:#5CA5C3;" d="M25.7,133.1c-0.4-1.1-1.7-4.2-1.9-4.7c-0.1-0.3-0.3-0.6-0.6-0.5c-0.3,0-0.5,0.3-0.6,0.5
		c-0.2,0.5-1.5,3.7-1.9,4.7c-0.4,1-0.9,1.9-0.7,3c0.2,1.1,1,1.9,2,2.3c0.4,0.1,0.8,0.2,1.1,0.2c0.4,0,0.7,0,1.1-0.2
		c1-0.4,1.8-1.3,2-2.3C26.6,135,26.1,134.1,25.7,133.1z"/>
	<path style="opacity:0.35;fill:#5CA5C3;enable-background:new    ;" d="M22.7,128.4c-0.2,0.5-1.5,3.7-1.9,4.7c-0.4,1-0.9,1.9-0.7,3
		c0.2,1.1,1,1.9,2,2.3c0.4,0.1,0.8,0.2,1.1,0.2v-10.8C23,127.8,22.8,128.1,22.7,128.4z"/>
</g>
<g>
	<path style="fill:#5CA5C3;" d="M51.1,133.1c-0.4-1.1-1.7-4.2-1.9-4.7c-0.1-0.3-0.3-0.6-0.6-0.5c-0.3,0-0.5,0.3-0.6,0.5
		c-0.2,0.5-1.5,3.7-1.9,4.7c-0.4,1-0.9,1.9-0.6,3c0.2,1.1,1,1.9,2,2.3c0.4,0.1,0.8,0.2,1.1,0.2c0.4,0,0.7,0,1.1-0.2
		c1-0.4,1.8-1.3,2-2.3C52,135,51.5,134.1,51.1,133.1z"/>
	<path style="opacity:0.35;fill:#5CA5C3;enable-background:new    ;" d="M48.1,128.4c-0.2,0.5-1.5,3.7-1.9,4.7c-0.4,1-0.9,1.9-0.6,3
		c0.2,1.1,1,1.9,2,2.3c0.4,0.1,0.8,0.2,1.1,0.2v-10.8C48.4,127.8,48.2,128.1,48.1,128.4z"/>
</g>
<g>
	<path style="fill:#5CA5C3;" d="M13.3,143.6c-0.4-1.1-1.7-4.2-1.9-4.7c-0.1-0.3-0.3-0.6-0.6-0.5c-0.3,0-0.5,0.3-0.6,0.5
		c-0.2,0.5-1.5,3.7-1.9,4.7c-0.4,1-0.9,1.9-0.7,3c0.2,1.1,1,1.9,2,2.3c0.4,0.1,0.8,0.2,1.1,0.2c0.4,0,0.7,0,1.1-0.2
		c1-0.4,1.8-1.3,2-2.3C14.1,145.5,13.7,144.6,13.3,143.6z"/>
	<path style="opacity:0.35;fill:#5CA5C3;enable-background:new    ;" d="M10.3,138.9c-0.2,0.5-1.5,3.7-1.9,4.7c-0.4,1-0.9,1.9-0.7,3
		c0.2,1.1,1,1.9,2,2.3c0.4,0.1,0.8,0.2,1.1,0.2v-10.8C10.5,138.3,10.4,138.6,10.3,138.9z"/>
</g>
<g>
	<path style="fill:#5CA5C3;" d="M38.7,143.6c-0.4-1.1-1.7-4.2-1.9-4.7c-0.1-0.3-0.3-0.6-0.6-0.5c-0.3,0-0.5,0.3-0.6,0.5
		c-0.2,0.5-1.5,3.7-1.9,4.7c-0.4,1-0.9,1.9-0.7,3c0.2,1.1,1,1.9,2,2.3c0.4,0.1,0.8,0.2,1.1,0.2c0.4,0,0.7,0,1.1-0.2
		c1-0.4,1.8-1.3,2-2.3C39.5,145.5,39,144.6,38.7,143.6z"/>
	<path style="opacity:0.35;fill:#5CA5C3;enable-background:new    ;" d="M35.6,138.9c-0.2,0.5-1.5,3.7-1.9,4.7c-0.4,1-0.9,1.9-0.7,3
		c0.2,1.1,1,1.9,2,2.3c0.4,0.1,0.8,0.2,1.1,0.2v-10.8C35.9,138.3,35.7,138.6,35.6,138.9z"/>
</g>
<g>
	<path style="fill:#5CA5C3;" d="M25.7,154.4c-0.4-1.1-1.7-4.2-1.9-4.7c-0.1-0.3-0.3-0.6-0.6-0.5c-0.3,0-0.5,0.3-0.6,0.5
		c-0.2,0.5-1.5,3.7-1.9,4.7c-0.4,1-0.9,1.9-0.7,3c0.2,1.1,1,1.9,2,2.3c0.4,0.1,0.8,0.2,1.1,0.2c0.4,0,0.7,0,1.1-0.2
		c1-0.4,1.8-1.3,2-2.3C26.6,156.3,26.1,155.4,25.7,154.4z"/>
	<path style="opacity:0.35;fill:#5CA5C3;enable-background:new    ;" d="M22.7,149.7c-0.2,0.5-1.5,3.7-1.9,4.7c-0.4,1-0.9,1.9-0.7,3
		c0.2,1.1,1,1.9,2,2.3c0.4,0.1,0.8,0.2,1.1,0.2v-10.8C23,149.1,22.8,149.4,22.7,149.7z"/>
</g>
<g>
	<path style="fill:#5CA5C3;" d="M51.1,154.4c-0.4-1.1-1.7-4.2-1.9-4.7c-0.1-0.3-0.3-0.6-0.6-0.5c-0.3,0-0.5,0.3-0.6,0.5
		c-0.2,0.5-1.5,3.7-1.9,4.7c-0.4,1-0.9,1.9-0.6,3c0.2,1.1,1,1.9,2,2.3c0.4,0.1,0.8,0.2,1.1,0.2c0.4,0,0.7,0,1.1-0.2
		c1-0.4,1.8-1.3,2-2.3C52,156.3,51.5,155.4,51.1,154.4z"/>
	<path style="opacity:0.35;fill:#5CA5C3;enable-background:new    ;" d="M48.1,149.7c-0.2,0.5-1.5,3.7-1.9,4.7c-0.4,1-0.9,1.9-0.6,3
		c0.2,1.1,1,1.9,2,2.3c0.4,0.1,0.8,0.2,1.1,0.2v-10.8C48.4,149.1,48.2,149.4,48.1,149.7z"/>
</g>
<g>
	<path style="fill:#5CA5C3;" d="M13.3,164.9c-0.4-1.1-1.7-4.2-1.9-4.7c-0.1-0.3-0.3-0.6-0.6-0.5c-0.3,0-0.5,0.3-0.6,0.5
		c-0.2,0.5-1.5,3.7-1.9,4.7c-0.4,1-0.9,1.9-0.7,3c0.2,1.1,1,2,2,2.3c0.4,0.1,0.8,0.2,1.1,0.2c0.4,0,0.7,0,1.1-0.2
		c1-0.4,1.8-1.3,2-2.3C14.1,166.8,13.7,165.9,13.3,164.9z"/>
	<path style="opacity:0.35;fill:#5CA5C3;enable-background:new    ;" d="M10.3,160.2c-0.2,0.5-1.5,3.7-1.9,4.7c-0.4,1-0.9,1.9-0.7,3
		c0.2,1.1,1,1.9,2,2.3c0.4,0.1,0.8,0.2,1.1,0.2v-10.8C10.5,159.6,10.4,159.9,10.3,160.2z"/>
</g>
<g>
	<path style="fill:#5CA5C3;" d="M38.7,164.9c-0.4-1.1-1.7-4.2-1.9-4.7c-0.1-0.3-0.3-0.6-0.6-0.5c-0.3,0-0.5,0.3-0.6,0.5
		c-0.2,0.5-1.5,3.7-1.9,4.7c-0.4,1-0.9,1.9-0.7,3c0.2,1.1,1,2,2,2.3c0.4,0.1,0.8,0.2,1.1,0.2c0.4,0,0.7,0,1.1-0.2
		c1-0.4,1.8-1.3,2-2.3C39.5,166.8,39,165.9,38.7,164.9z"/>
	<path style="opacity:0.35;fill:#5CA5C3;enable-background:new    ;" d="M35.6,160.2c-0.2,0.5-1.5,3.7-1.9,4.7c-0.4,1-0.9,1.9-0.7,3
		c0.2,1.1,1,1.9,2,2.3c0.4,0.1,0.8,0.2,1.1,0.2v-10.8C35.9,159.6,35.7,159.9,35.6,160.2z"/>
</g>
<g>
	<path style="fill:#5CA5C3;" d="M25.7,175.4c-0.4-1.1-1.7-4.2-1.9-4.7c-0.1-0.3-0.3-0.6-0.6-0.5c-0.3,0-0.5,0.3-0.6,0.5
		c-0.2,0.5-1.5,3.7-1.9,4.7c-0.4,1-0.9,1.9-0.7,3c0.2,1.1,1,1.9,2,2.3c0.4,0.1,0.8,0.2,1.1,0.2c0.4,0,0.7,0,1.1-0.2
		c1-0.4,1.8-1.3,2-2.3C26.6,177.4,26.1,176.4,25.7,175.4z"/>
	<path style="opacity:0.35;fill:#5CA5C3;enable-background:new    ;" d="M22.7,170.7c-0.2,0.5-1.5,3.7-1.9,4.7c-0.4,1-0.9,1.9-0.7,3
		c0.2,1.1,1,1.9,2,2.3c0.4,0.1,0.8,0.2,1.1,0.2v-10.8C23,170.1,22.8,170.5,22.7,170.7z"/>
</g>
<g>
	<path style="fill:#5CA5C3;" d="M51.1,175.4c-0.4-1.1-1.7-4.2-1.9-4.7c-0.1-0.3-0.3-0.6-0.6-0.5c-0.3,0-0.5,0.3-0.6,0.5
		c-0.2,0.5-1.5,3.7-1.9,4.7c-0.4,1-0.9,1.9-0.6,3c0.2,1.1,1,1.9,2,2.3c0.4,0.1,0.8,0.2,1.1,0.2c0.4,0,0.7,0,1.1-0.2
		c1-0.4,1.8-1.3,2-2.3C52,177.4,51.5,176.4,51.1,175.4z"/>
	<path style="opacity:0.35;fill:#5CA5C3;enable-background:new    ;" d="M48.1,170.7c-0.2,0.5-1.5,3.7-1.9,4.7c-0.4,1-0.9,1.9-0.6,3
		c0.2,1.1,1,1.9,2,2.3c0.4,0.1,0.8,0.2,1.1,0.2v-10.8C48.4,170.1,48.2,170.5,48.1,170.7z"/>
</g>
<g>
	<path style="fill:#5CA5C3;" d="M13.3,186c-0.4-1.1-1.7-4.2-1.9-4.7c-0.1-0.3-0.3-0.6-0.6-0.5c-0.3,0-0.5,0.3-0.6,0.5
		c-0.2,0.5-1.5,3.7-1.9,4.7c-0.4,1-0.9,1.9-0.7,3c0.2,1.1,1,1.9,2,2.3c0.4,0.1,0.8,0.2,1.1,0.2c0.4,0,0.7,0,1.1-0.2
		c1-0.4,1.8-1.3,2-2.3C14.1,187.9,13.7,186.9,13.3,186z"/>
	<path style="opacity:0.35;fill:#5CA5C3;enable-background:new    ;" d="M10.3,181.2c-0.2,0.5-1.5,3.7-1.9,4.7c-0.4,1-0.9,1.9-0.7,3
		c0.2,1.1,1,1.9,2,2.3c0.4,0.1,0.8,0.2,1.1,0.2v-10.8C10.5,180.7,10.4,181,10.3,181.2z"/>
</g>
<g>
	<path style="fill:#5CA5C3;" d="M38.7,186c-0.4-1.1-1.7-4.2-1.9-4.7c-0.1-0.3-0.3-0.6-0.6-0.5c-0.3,0-0.5,0.3-0.6,0.5
		c-0.2,0.5-1.5,3.7-1.9,4.7c-0.4,1-0.9,1.9-0.7,3c0.2,1.1,1,1.9,2,2.3c0.4,0.1,0.8,0.2,1.1,0.2c0.4,0,0.7,0,1.1-0.2
		c1-0.4,1.8-1.3,2-2.3C39.5,187.9,39,186.9,38.7,186z"/>
	<path style="opacity:0.35;fill:#5CA5C3;enable-background:new    ;" d="M35.6,181.2c-0.2,0.5-1.5,3.7-1.9,4.7c-0.4,1-0.9,1.9-0.7,3
		c0.2,1.1,1,1.9,2,2.3c0.4,0.1,0.8,0.2,1.1,0.2v-10.8C35.9,180.7,35.7,181,35.6,181.2z"/>
</g>
<g>
	<path style="fill:#5CA5C3;" d="M25.7,196.7c-0.4-1.1-1.7-4.2-1.9-4.7c-0.1-0.3-0.3-0.6-0.6-0.5c-0.3,0-0.5,0.3-0.6,0.5
		c-0.2,0.5-1.5,3.7-1.9,4.7c-0.4,1-0.9,1.9-0.7,3c0.2,1.1,1,1.9,2,2.3c0.4,0.1,0.8,0.2,1.1,0.2c0.4,0,0.7,0,1.1-0.2
		c1-0.4,1.8-1.3,2-2.3C26.6,198.7,26.1,197.7,25.7,196.7z"/>
	<path style="opacity:0.35;fill:#5CA5C3;enable-background:new    ;" d="M22.7,192c-0.2,0.5-1.5,3.7-1.9,4.7c-0.4,1-0.9,1.9-0.7,3
		c0.2,1.1,1,1.9,2,2.3c0.4,0.1,0.8,0.2,1.1,0.2v-10.8C23,191.4,22.8,191.8,22.7,192z"/>
</g>
<g>
	<path style="fill:#5CA5C3;" d="M51.1,196.7c-0.4-1.1-1.7-4.2-1.9-4.7c-0.1-0.3-0.3-0.6-0.6-0.5c-0.3,0-0.5,0.3-0.6,0.5
		c-0.2,0.5-1.5,3.7-1.9,4.7c-0.4,1-0.9,1.9-0.6,3c0.2,1.1,1,1.9,2,2.3c0.4,0.1,0.8,0.2,1.1,0.2c0.4,0,0.7,0,1.1-0.2
		c1-0.4,1.8-1.3,2-2.3C52,198.7,51.5,197.7,51.1,196.7z"/>
	<path style="opacity:0.35;fill:#5CA5C3;enable-background:new    ;" d="M48.1,192c-0.2,0.5-1.5,3.7-1.9,4.7c-0.4,1-0.9,1.9-0.6,3
		c0.2,1.1,1,1.9,2,2.3c0.4,0.1,0.8,0.2,1.1,0.2v-10.8C48.4,191.4,48.2,191.8,48.1,192z"/>
</g>
<g>
	<path style="fill:#5CA5C3;" d="M13.3,207.3c-0.4-1.1-1.7-4.2-1.9-4.7c-0.1-0.3-0.3-0.6-0.6-0.5c-0.3,0-0.5,0.3-0.6,0.5
		c-0.2,0.5-1.5,3.7-1.9,4.7c-0.4,1-0.9,1.9-0.7,3c0.2,1.1,1,1.9,2,2.3c0.4,0.1,0.8,0.2,1.1,0.2c0.4,0,0.7,0,1.1-0.2
		c1-0.4,1.8-1.3,2-2.3C14.1,209.2,13.7,208.2,13.3,207.3z"/>
	<path style="opacity:0.35;fill:#5CA5C3;enable-background:new    ;" d="M10.3,202.5c-0.2,0.5-1.5,3.7-1.9,4.7c-0.4,1-0.9,1.9-0.7,3
		c0.2,1.1,1,1.9,2,2.3c0.4,0.1,0.8,0.2,1.1,0.2V202C10.5,202,10.4,202.3,10.3,202.5z"/>
</g>
<g>
	<path style="fill:#5CA5C3;" d="M38.7,207.3c-0.4-1.1-1.7-4.2-1.9-4.7c-0.1-0.3-0.3-0.6-0.6-0.5c-0.3,0-0.5,0.3-0.6,0.5
		c-0.2,0.5-1.5,3.7-1.9,4.7c-0.4,1-0.9,1.9-0.7,3c0.2,1.1,1,1.9,2,2.3c0.4,0.1,0.8,0.2,1.1,0.2c0.4,0,0.7,0,1.1-0.2
		c1-0.4,1.8-1.3,2-2.3C39.5,209.2,39,208.2,38.7,207.3z"/>
	<path style="opacity:0.35;fill:#5CA5C3;enable-background:new    ;" d="M35.6,202.5c-0.2,0.5-1.5,3.7-1.9,4.7c-0.4,1-0.9,1.9-0.7,3
		c0.2,1.1,1,1.9,2,2.3c0.4,0.1,0.8,0.2,1.1,0.2V202C35.9,202,35.7,202.3,35.6,202.5z"/>
</g>
<g>
	<path style="fill:#5CA5C3;" d="M25.7,217.8c-0.4-1.1-1.7-4.2-1.9-4.7c-0.1-0.3-0.3-0.6-0.6-0.5c-0.3,0-0.5,0.3-0.6,0.5
		c-0.2,0.5-1.5,3.7-1.9,4.7c-0.4,1-0.9,1.9-0.7,3c0.2,1.1,1,1.9,2,2.3c0.4,0.1,0.8,0.2,1.1,0.2c0.4,0,0.7,0,1.1-0.2
		c1-0.4,1.8-1.3,2-2.3C26.6,219.7,26.1,218.8,25.7,217.8z"/>
	<path style="opacity:0.35;fill:#5CA5C3;enable-background:new    ;" d="M22.7,213.1c-0.2,0.5-1.5,3.7-1.9,4.7c-0.4,1-0.9,1.9-0.7,3
		c0.2,1.1,1,1.9,2,2.3c0.4,0.1,0.8,0.2,1.1,0.2v-10.8C23,212.5,22.8,212.8,22.7,213.1z"/>
</g>
<g>
	<path style="fill:#5CA5C3;" d="M51.1,217.8c-0.4-1.1-1.7-4.2-1.9-4.7c-0.1-0.3-0.3-0.6-0.6-0.5c-0.3,0-0.5,0.3-0.6,0.5
		c-0.2,0.5-1.5,3.7-1.9,4.7c-0.4,1-0.9,1.9-0.6,3c0.2,1.1,1,1.9,2,2.3c0.4,0.1,0.8,0.2,1.1,0.2c0.4,0,0.7,0,1.1-0.2
		c1-0.4,1.8-1.3,2-2.3C52,219.7,51.5,218.8,51.1,217.8z"/>
	<path style="opacity:0.35;fill:#5CA5C3;enable-background:new    ;" d="M48.1,213.1c-0.2,0.5-1.5,3.7-1.9,4.7c-0.4,1-0.9,1.9-0.6,3
		c0.2,1.1,1,1.9,2,2.3c0.4,0.1,0.8,0.2,1.1,0.2v-10.8C48.4,212.5,48.2,212.8,48.1,213.1z"/>
</g>
<g>
	<path style="fill:#5CA5C3;" d="M13.3,228.3c-0.4-1.1-1.7-4.2-1.9-4.7c-0.1-0.3-0.3-0.6-0.6-0.5c-0.3,0-0.5,0.3-0.6,0.5
		c-0.2,0.5-1.5,3.7-1.9,4.7c-0.4,1-0.9,1.9-0.7,3c0.2,1.1,1,1.9,2,2.3c0.4,0.1,0.8,0.2,1.1,0.2c0.4,0,0.7,0,1.1-0.2
		c1-0.4,1.8-1.3,2-2.3C14.1,230.2,13.7,229.3,13.3,228.3z"/>
	<path style="opacity:0.35;fill:#5CA5C3;enable-background:new    ;" d="M10.3,223.6c-0.2,0.5-1.5,3.7-1.9,4.7c-0.4,1-0.9,1.9-0.7,3
		c0.2,1.1,1,1.9,2,2.3c0.4,0.1,0.8,0.2,1.1,0.2V223C10.5,223,10.4,223.3,10.3,223.6z"/>
</g>
<g>
	<path style="fill:#5CA5C3;" d="M38.7,228.3c-0.4-1.1-1.7-4.2-1.9-4.7c-0.1-0.3-0.3-0.6-0.6-0.5c-0.3,0-0.5,0.3-0.6,0.5
		c-0.2,0.5-1.5,3.7-1.9,4.7c-0.4,1-0.9,1.9-0.7,3c0.2,1.1,1,1.9,2,2.3c0.4,0.1,0.8,0.2,1.1,0.2c0.4,0,0.7,0,1.1-0.2
		c1-0.4,1.8-1.3,2-2.3C39.5,230.2,39,229.3,38.7,228.3z"/>
	<path style="opacity:0.35;fill:#5CA5C3;enable-background:new    ;" d="M35.6,223.6c-0.2,0.5-1.5,3.7-1.9,4.7c-0.4,1-0.9,1.9-0.7,3
		c0.2,1.1,1,1.9,2,2.3c0.4,0.1,0.8,0.2,1.1,0.2V223C35.9,223,35.7,223.3,35.6,223.6z"/>
</g>
<g>
	<path style="fill:#5CA5C3;" d="M25.7,239.1c-0.4-1.1-1.7-4.2-1.9-4.7c-0.1-0.3-0.3-0.6-0.6-0.5c-0.3,0-0.5,0.3-0.6,0.5
		c-0.2,0.5-1.5,3.7-1.9,4.7c-0.4,1-0.9,1.9-0.7,3c0.2,1.1,1,1.9,2,2.3c0.4,0.1,0.8,0.2,1.1,0.2c0.4,0,0.7,0,1.1-0.2
		c1-0.4,1.8-1.3,2-2.3C26.6,241,26.1,240.1,25.7,239.1z"/>
	<path style="opacity:0.35;fill:#5CA5C3;enable-background:new    ;" d="M22.7,234.4c-0.2,0.5-1.5,3.7-1.9,4.7c-0.4,1-0.9,1.9-0.7,3
		c0.2,1.1,1,1.9,2,2.3c0.4,0.1,0.8,0.2,1.1,0.2v-10.8C23,233.8,22.8,234.1,22.7,234.4z"/>
</g>
<g>
	<path style="fill:#5CA5C3;" d="M51.1,239.1c-0.4-1.1-1.7-4.2-1.9-4.7c-0.1-0.3-0.3-0.6-0.6-0.5c-0.3,0-0.5,0.3-0.6,0.5
		c-0.2,0.5-1.5,3.7-1.9,4.7c-0.4,1-0.9,1.9-0.6,3c0.2,1.1,1,1.9,2,2.3c0.4,0.1,0.8,0.2,1.1,0.2c0.4,0,0.7,0,1.1-0.2
		c1-0.4,1.8-1.3,2-2.3C52,241,51.5,240.1,51.1,239.1z"/>
	<path style="opacity:0.35;fill:#5CA5C3;enable-background:new    ;" d="M48.1,234.4c-0.2,0.5-1.5,3.7-1.9,4.7c-0.4,1-0.9,1.9-0.6,3
		c0.2,1.1,1,1.9,2,2.3c0.4,0.1,0.8,0.2,1.1,0.2v-10.8C48.4,233.8,48.2,234.1,48.1,234.4z"/>
</g>
<g>
	<path style="fill:#5CA5C3;" d="M13.3,249.6c-0.4-1.1-1.7-4.2-1.9-4.7c-0.1-0.3-0.3-0.6-0.6-0.5c-0.3,0-0.5,0.3-0.6,0.5
		c-0.2,0.5-1.5,3.7-1.9,4.7c-0.4,1-0.9,1.9-0.7,3c0.2,1.1,1,1.9,2,2.3c0.4,0.1,0.8,0.2,1.1,0.2c0.4,0,0.7,0,1.1-0.2
		c1-0.4,1.8-1.3,2-2.3C14.1,251.5,13.7,250.6,13.3,249.6z"/>
	<path style="opacity:0.35;fill:#5CA5C3;enable-background:new    ;" d="M10.3,244.9c-0.2,0.5-1.5,3.7-1.9,4.7c-0.4,1-0.9,1.9-0.7,3
		c0.2,1.1,1,1.9,2,2.3c0.4,0.1,0.8,0.2,1.1,0.2v-10.8C10.5,244.3,10.4,244.6,10.3,244.9z"/>
</g>
<g>
	<path style="fill:#5CA5C3;" d="M38.7,249.6c-0.4-1.1-1.7-4.2-1.9-4.7c-0.1-0.3-0.3-0.6-0.6-0.5c-0.3,0-0.5,0.3-0.6,0.5
		c-0.2,0.5-1.5,3.7-1.9,4.7c-0.4,1-0.9,1.9-0.7,3c0.2,1.1,1,1.9,2,2.3c0.4,0.1,0.8,0.2,1.1,0.2c0.4,0,0.7,0,1.1-0.2
		c1-0.4,1.8-1.3,2-2.3C39.5,251.5,39,250.6,38.7,249.6z"/>
	<path style="opacity:0.35;fill:#5CA5C3;enable-background:new    ;" d="M35.6,244.9c-0.2,0.5-1.5,3.7-1.9,4.7c-0.4,1-0.9,1.9-0.7,3
		c0.2,1.1,1,1.9,2,2.3c0.4,0.1,0.8,0.2,1.1,0.2v-10.8C35.9,244.3,35.7,244.6,35.6,244.9z"/>
</g>
<g>
	<path style="fill:#5CA5C3;" d="M25.7,260.1c-0.4-1.1-1.7-4.2-1.9-4.7c-0.1-0.3-0.3-0.6-0.6-0.5c-0.3,0-0.5,0.3-0.6,0.5
		c-0.2,0.5-1.5,3.7-1.9,4.7c-0.4,1-0.9,1.9-0.7,3c0.2,1.1,1,1.9,2,2.3c0.4,0.1,0.8,0.2,1.1,0.2c0.4,0,0.7,0,1.1-0.2
		c1-0.4,1.8-1.3,2-2.3C26.6,262,26.1,261.1,25.7,260.1z"/>
	<path style="opacity:0.35;fill:#5CA5C3;enable-background:new    ;" d="M22.7,255.4c-0.2,0.5-1.5,3.7-1.9,4.7c-0.4,1-0.9,1.9-0.7,3
		c0.2,1.1,1,1.9,2,2.3c0.4,0.1,0.8,0.2,1.1,0.2v-10.8C23,254.8,22.8,255.1,22.7,255.4z"/>
</g>
<g>
	<path style="fill:#5CA5C3;" d="M51.1,260.1c-0.4-1.1-1.7-4.2-1.9-4.7c-0.1-0.3-0.3-0.6-0.6-0.5c-0.3,0-0.5,0.3-0.6,0.5
		c-0.2,0.5-1.5,3.7-1.9,4.7c-0.4,1-0.9,1.9-0.6,3c0.2,1.1,1,1.9,2,2.3c0.4,0.1,0.8,0.2,1.1,0.2c0.4,0,0.7,0,1.1-0.2
		c1-0.4,1.8-1.3,2-2.3C52,262,51.5,261.1,51.1,260.1z"/>
	<path style="opacity:0.35;fill:#5CA5C3;enable-background:new    ;" d="M48.1,255.4c-0.2,0.5-1.5,3.7-1.9,4.7c-0.4,1-0.9,1.9-0.6,3
		c0.2,1.1,1,1.9,2,2.3c0.4,0.1,0.8,0.2,1.1,0.2v-10.8C48.4,254.8,48.2,255.1,48.1,255.4z"/>
</g>
<g>
	<path style="fill:#5CA5C3;" d="M13.3,270.6c-0.4-1.1-1.7-4.2-1.9-4.7c-0.1-0.3-0.3-0.6-0.6-0.5c-0.3,0-0.5,0.3-0.6,0.5
		c-0.2,0.5-1.5,3.7-1.9,4.7c-0.4,1-0.9,1.9-0.7,3c0.2,1.1,1,2,2,2.3c0.4,0.1,0.8,0.2,1.1,0.2c0.4,0,0.7,0,1.1-0.2
		c1-0.4,1.8-1.3,2-2.3C14.1,272.6,13.7,271.6,13.3,270.6z"/>
	<path style="opacity:0.35;fill:#5CA5C3;enable-background:new    ;" d="M10.3,265.9c-0.2,0.5-1.5,3.7-1.9,4.7c-0.4,1-0.9,1.9-0.7,3
		c0.2,1.1,1,2,2,2.3c0.4,0.1,0.8,0.2,1.1,0.2v-10.8C10.5,265.3,10.4,265.7,10.3,265.9z"/>
</g>
<g>
	<path style="fill:#5CA5C3;" d="M38.7,270.6c-0.4-1.1-1.7-4.2-1.9-4.7c-0.1-0.3-0.3-0.6-0.6-0.5c-0.3,0-0.5,0.3-0.6,0.5
		c-0.2,0.5-1.5,3.7-1.9,4.7c-0.4,1-0.9,1.9-0.7,3c0.2,1.1,1,2,2,2.3c0.4,0.1,0.8,0.2,1.1,0.2c0.4,0,0.7,0,1.1-0.2
		c1-0.4,1.8-1.3,2-2.3C39.5,272.6,39,271.6,38.7,270.6z"/>
	<path style="opacity:0.35;fill:#5CA5C3;enable-background:new    ;" d="M35.6,265.9c-0.2,0.5-1.5,3.7-1.9,4.7c-0.4,1-0.9,1.9-0.7,3
		c0.2,1.1,1,2,2,2.3c0.4,0.1,0.8,0.2,1.1,0.2v-10.8C35.9,265.3,35.7,265.7,35.6,265.9z"/>
</g>
<g>
	<path style="fill:#5CA5C3;" d="M25.7,281.4c-0.4-1.1-1.7-4.2-1.9-4.7c-0.1-0.3-0.3-0.6-0.6-0.5c-0.3,0-0.5,0.3-0.6,0.5
		c-0.2,0.5-1.5,3.7-1.9,4.7c-0.4,1-0.9,1.9-0.7,3c0.2,1.1,1,1.9,2,2.3c0.4,0.1,0.8,0.2,1.1,0.2c0.4,0,0.7,0,1.1-0.2
		c1-0.4,1.8-1.3,2-2.3C26.6,283.3,26.1,282.4,25.7,281.4z"/>
	<path style="opacity:0.35;fill:#5CA5C3;enable-background:new    ;" d="M22.7,276.7c-0.2,0.5-1.5,3.7-1.9,4.7c-0.4,1-0.9,1.9-0.7,3
		c0.2,1.1,1,1.9,2,2.3c0.4,0.1,0.8,0.2,1.1,0.2v-10.8C23,276.1,22.8,276.4,22.7,276.7z"/>
</g>
<g>
	<path style="fill:#5CA5C3;" d="M51.1,281.4c-0.4-1.1-1.7-4.2-1.9-4.7c-0.1-0.3-0.3-0.6-0.6-0.5c-0.3,0-0.5,0.3-0.6,0.5
		c-0.2,0.5-1.5,3.7-1.9,4.7c-0.4,1-0.9,1.9-0.6,3c0.2,1.1,1,1.9,2,2.3c0.4,0.1,0.8,0.2,1.1,0.2c0.4,0,0.7,0,1.1-0.2
		c1-0.4,1.8-1.3,2-2.3C52,283.3,51.5,282.4,51.1,281.4z"/>
	<path style="opacity:0.35;fill:#5CA5C3;enable-background:new    ;" d="M48.1,276.7c-0.2,0.5-1.5,3.7-1.9,4.7c-0.4,1-0.9,1.9-0.6,3
		c0.2,1.1,1,1.9,2,2.3c0.4,0.1,0.8,0.2,1.1,0.2v-10.8C48.4,276.1,48.2,276.4,48.1,276.7z"/>
</g>
<g>
	<path style="fill:#5CA5C3;" d="M13.3,291.9c-0.4-1.1-1.7-4.2-1.9-4.7c-0.1-0.3-0.3-0.6-0.6-0.5c-0.3,0-0.5,0.3-0.6,0.5
		c-0.2,0.5-1.5,3.7-1.9,4.7c-0.4,1-0.9,1.9-0.7,3c0.2,1.1,1,1.9,2,2.3c0.4,0.1,0.8,0.2,1.1,0.2c0.4,0,0.7,0,1.1-0.2
		c1-0.4,1.8-1.3,2-2.3C14.1,293.9,13.7,292.9,13.3,291.9z"/>
	<path style="opacity:0.35;fill:#5CA5C3;enable-background:new    ;" d="M10.3,287.2c-0.2,0.5-1.5,3.7-1.9,4.7c-0.4,1-0.9,1.9-0.7,3
		c0.2,1.1,1,1.9,2,2.3c0.4,0.1,0.8,0.2,1.1,0.2v-10.8C10.5,286.6,10.4,287,10.3,287.2z"/>
</g>
<g>
	<path style="fill:#5CA5C3;" d="M38.7,291.9c-0.4-1.1-1.7-4.2-1.9-4.7c-0.1-0.3-0.3-0.6-0.6-0.5c-0.3,0-0.5,0.3-0.6,0.5
		c-0.2,0.5-1.5,3.7-1.9,4.7c-0.4,1-0.9,1.9-0.7,3c0.2,1.1,1,1.9,2,2.3c0.4,0.1,0.8,0.2,1.1,0.2c0.4,0,0.7,0,1.1-0.2
		c1-0.4,1.8-1.3,2-2.3C39.5,293.9,39,292.9,38.7,291.9z"/>
	<path style="opacity:0.35;fill:#5CA5C3;enable-background:new    ;" d="M35.6,287.2c-0.2,0.5-1.5,3.7-1.9,4.7c-0.4,1-0.9,1.9-0.7,3
		c0.2,1.1,1,1.9,2,2.3c0.4,0.1,0.8,0.2,1.1,0.2v-10.8C35.9,286.6,35.7,287,35.6,287.2z"/>
</g>
<g>
	<path style="fill:#5CA5C3;" d="M25.7,302.5c-0.4-1.1-1.7-4.2-1.9-4.7c-0.1-0.3-0.3-0.6-0.6-0.5c-0.3,0-0.5,0.3-0.6,0.5
		c-0.2,0.5-1.5,3.7-1.9,4.7c-0.4,1-0.9,1.9-0.7,3c0.2,1.1,1,2,2,2.3c0.4,0.1,0.8,0.2,1.1,0.2c0.4,0,0.7,0,1.1-0.2
		c1-0.4,1.8-1.3,2-2.3C26.6,304.4,26.1,303.4,25.7,302.5z"/>
	<path style="opacity:0.35;fill:#5CA5C3;enable-background:new    ;" d="M22.7,297.7c-0.2,0.5-1.5,3.7-1.9,4.7c-0.4,1-0.9,1.9-0.7,3
		c0.2,1.1,1,2,2,2.3c0.4,0.1,0.8,0.2,1.1,0.2v-10.8C23,297.2,22.8,297.5,22.7,297.7z"/>
</g>
<g>
	<path style="fill:#5CA5C3;" d="M51.1,302.5c-0.4-1.1-1.7-4.2-1.9-4.7c-0.1-0.3-0.3-0.6-0.6-0.5c-0.3,0-0.5,0.3-0.6,0.5
		c-0.2,0.5-1.5,3.7-1.9,4.7c-0.4,1-0.9,1.9-0.6,3c0.2,1.1,1,2,2,2.3c0.4,0.1,0.8,0.2,1.1,0.2c0.4,0,0.7,0,1.1-0.2
		c1-0.4,1.8-1.3,2-2.3C52,304.4,51.5,303.4,51.1,302.5z"/>
	<path style="opacity:0.35;fill:#5CA5C3;enable-background:new    ;" d="M48.1,297.7c-0.2,0.5-1.5,3.7-1.9,4.7c-0.4,1-0.9,1.9-0.6,3
		c0.2,1.1,1,2,2,2.3c0.4,0.1,0.8,0.2,1.1,0.2v-10.8C48.4,297.2,48.2,297.5,48.1,297.7z"/>
</g>
<g>
	<path style="fill:#5CA5C3;" d="M25.7,7c-0.4-1.1-1.7-4.2-1.9-4.7c-0.1-0.3-0.3-0.6-0.6-0.5c-0.3,0-0.5,0.3-0.6,0.5
		C22.5,2.8,21.3,6,20.8,7c-0.4,1-0.9,1.9-0.6,3c0.2,1.1,1,2,2,2.3c0.4,0.1,0.8,0.2,1.1,0.2c0.4,0,0.7,0,1.1-0.2c1-0.4,1.8-1.3,2-2.3
		C26.6,8.9,26.1,8,25.7,7z"/>
	<path style="opacity:0.35;fill:#5CA5C3;enable-background:new    ;" d="M22.7,2.3C22.5,2.8,21.3,6,20.8,7c-0.4,1-0.9,1.9-0.6,3
		c0.2,1.1,1,2,2,2.3c0.4,0.1,0.8,0.2,1.1,0.2V1.7C23,1.7,22.8,2,22.7,2.3z"/>
</g>
<g>
	<path style="fill:#5CA5C3;" d="M13.3-0.1c-0.4-1.1-1.7-4.2-1.9-4.7c-0.1-0.3-0.3-0.6-0.6-0.5c-0.3,0-0.5,0.3-0.6,0.5
		C10-4.3,8.8-1.2,8.4-0.1c-0.4,1-0.9,1.9-0.6,3c0.2,1.1,1,2,2,2.3c0.4,0.1,0.8,0.2,1.1,0.2c0.4,0,0.7,0,1.1-0.2c1-0.4,1.8-1.3,2-2.3
		C14.1,1.8,13.7,0.9,13.3-0.1z"/>
	<path style="opacity:0.35;fill:#5CA5C3;enable-background:new    ;" d="M10.3-4.8C10-4.3,8.8-1.2,8.4-0.1c-0.4,1-0.9,1.9-0.6,3
		c0.2,1.1,1,2,2,2.3c0.4,0.1,0.8,0.2,1.1,0.2V-5.4C10.5-5.4,10.4-5.1,10.3-4.8z"/>
</g>
<g>
	<path style="fill:#5CA5C3;" d="M13.3,309.6c-0.4-1.1-1.7-4.2-1.9-4.7c-0.1-0.3-0.3-0.6-0.6-0.5c-0.3,0-0.5,0.3-0.6,0.5
		c-0.2,0.5-1.5,3.7-1.9,4.7c-0.4,1-0.9,1.9-0.6,3c0.2,1.1,1,2,2,2.3c0.4,0.1,0.8,0.2,1.1,0.2c0.4,0,0.7,0,1.1-0.2
		c1-0.4,1.8-1.3,2-2.3C14.1,311.5,13.7,310.6,13.3,309.6z"/>
	<path style="opacity:0.35;fill:#5CA5C3;enable-background:new    ;" d="M10.3,304.9c-0.2,0.5-1.5,3.7-1.9,4.7c-0.4,1-0.9,1.9-0.6,3
		c0.2,1.1,1,2,2,2.3c0.4,0.1,0.8,0.2,1.1,0.2v-10.8C10.5,304.3,10.4,304.6,10.3,304.9z"/>
</g>
<g>
	<path style="fill:#5CA5C3;" d="M38.7,309.6c-0.4-1.1-1.7-4.2-1.9-4.7c-0.1-0.3-0.3-0.6-0.6-0.5c-0.3,0-0.5,0.3-0.6,0.5
		c-0.2,0.5-1.5,3.7-1.9,4.7c-0.4,1-0.9,1.9-0.6,3c0.2,1.1,1,2,2,2.3c0.4,0.1,0.8,0.2,1.1,0.2c0.4,0,0.7,0,1.1-0.2
		c1-0.4,1.8-1.3,2-2.3C39.5,311.5,39,310.6,38.7,309.6z"/>
	<path style="opacity:0.35;fill:#5CA5C3;enable-background:new    ;" d="M35.6,304.9c-0.2,0.5-1.5,3.7-1.9,4.7c-0.4,1-0.9,1.9-0.6,3
		c0.2,1.1,1,2,2,2.3c0.4,0.1,0.8,0.2,1.1,0.2v-10.8C35.9,304.3,35.7,304.6,35.6,304.9z"/>
</g>
<g>
	<path style="fill:#5CA5C3;" d="M51.1,7c-0.4-1.1-1.7-4.2-1.9-4.7C49.1,2,49,1.7,48.7,1.7c-0.3,0-0.5,0.3-0.6,0.5
		C47.9,2.8,46.6,6,46.2,7c-0.4,1-0.9,1.9-0.6,3c0.2,1.1,1,2,2,2.3c0.4,0.1,0.8,0.2,1.1,0.2c0.4,0,0.7,0,1.1-0.2c1-0.4,1.8-1.3,2-2.3
		C52,8.9,51.5,8,51.1,7z"/>
	<path style="opacity:0.35;fill:#5CA5C3;enable-background:new    ;" d="M48.1,2.3C47.9,2.8,46.6,6,46.2,7c-0.4,1-0.9,1.9-0.6,3
		c0.2,1.1,1,2,2,2.3c0.4,0.1,0.8,0.2,1.1,0.2V1.7C48.4,1.7,48.2,2,48.1,2.3z"/>
</g>
</svg>
