<?xml version="1.0" encoding="utf-8"?>
<!-- Generator: Adobe Illustrator 16.0.0, SVG Export Plug-In . SVG Version: 6.00 Build 0)  -->
<!DOCTYPE svg PUBLIC "-//W3C//DTD SVG 1.1//EN" "http://www.w3.org/Graphics/SVG/1.1/DTD/svg11.dtd">
<svg version="1.1" xmlns="http://www.w3.org/2000/svg" xmlns:xlink="http://www.w3.org/1999/xlink" x="0px" y="0px" width="1280px"
	 height="700px" viewBox="0 0 1280 700" style="enable-background:new 0 0 1280 700;" xml:space="preserve">
<g id="Titular">
	<g>
		<g>
			<path style="fill:#968670;" d="M587.1,636.5c-0.6,0.1-2.1,0.1-3.1,0.1c-2.2,0-3.3-0.8-3.3-2.9v-6c0-2.1,1.1-2.9,3.3-2.9
				c0.9,0,2.4,0,3.1,0.1c0.1,0,0.2,0.1,0.2,0.2v0.8c0,0.1-0.1,0.2-0.2,0.2h-3c-1.7,0-1.9,0.4-1.9,1.6v2.2h4.8c0.2,0,0.3,0.1,0.3,0.3
				v0.6c0,0.2-0.1,0.3-0.3,0.3h-4.8v2.6c0,1.2,0.3,1.6,1.9,1.6h3c0.1,0,0.2,0.1,0.2,0.2v0.8C587.2,636.4,587.2,636.5,587.1,636.5z"
				/>
			<path style="fill:#968670;" d="M597.1,636.5h-1c-0.3,0-0.4-0.1-0.5-0.3l-4.8-9.2c0,0,0,0,0,0c0,0,0,0,0,0v9.2
				c0,0.2-0.1,0.3-0.3,0.3h-0.8c-0.2,0-0.3,0-0.3-0.2v-11c0-0.3,0.2-0.4,0.5-0.4h0.9c0.4,0,0.5,0.1,0.6,0.3l4.8,9.2l0,0c0,0,0,0,0,0
				v-9.2c0-0.2,0.1-0.3,0.3-0.3h0.8c0.2,0,0.3,0.1,0.3,0.3V636C597.5,636.3,597.3,636.5,597.1,636.5z"/>
			<path style="fill:#968670;" d="M610.7,636.4c-0.8,0.1-1.6,0.2-3.1,0.2c-2,0-4.1-1.3-4.1-4.9v-2.1c0-3.8,2.2-4.9,4.2-4.9
				c1.5,0,2.4,0.1,3,0.2c0.1,0,0.3,0.1,0.3,0.2v0.8c0,0.1-0.1,0.2-0.2,0.2c0,0,0,0-0.1,0c-0.9-0.1-1.6-0.1-3-0.1
				c-1.5,0-2.8,0.8-2.8,3.6v2.1c0,2.6,1.2,3.6,2.6,3.6c1,0,1.6-0.1,2-0.1v-4.5c0-0.2,0.1-0.3,0.3-0.3h0.8c0.2,0,0.3,0.1,0.3,0.3v5.3
				C611,636.2,610.9,636.3,610.7,636.4z"/>
			<path style="fill:#968670;" d="M621.2,636.5h-1c-0.2,0-0.3,0-0.4-0.2l-2.8-4.7c0,0-0.1,0-0.1,0c-0.1,0-0.2,0-0.3,0
				c-0.5,0-0.9,0-1.7,0v4.6c0,0.2-0.1,0.3-0.3,0.3h-0.8c-0.2,0-0.3-0.1-0.3-0.3v-11c0-0.2,0.1-0.3,0.4-0.3c0.7-0.1,1.9-0.1,2.8-0.1
				c2.5,0,4.4,0.8,4.4,3.4v0.1c0,1.8-1,2.8-2.5,3.2l2.9,4.8c0,0,0,0.1,0,0.1C621.4,636.4,621.3,636.5,621.2,636.5z M619.6,628.1
				c0-1.6-1-2.1-3-2.1c-0.5,0-1.3,0-1.7,0v4.3c0.7,0,1.4,0,1.7,0c1.9,0,3-0.5,3-2.2V628.1z"/>
			<path style="fill:#968670;" d="M631.2,636.5h-0.9c-0.1,0-0.2-0.1-0.3-0.2l-1-3.6h-4.1l-1,3.6c0,0.1-0.2,0.2-0.3,0.2h-0.9
				c-0.2,0-0.3-0.1-0.3-0.3c0,0,0-0.1,0-0.1l2.9-10.2c0.3-1,1-1.2,1.6-1.2c0.6,0,1.3,0.2,1.6,1.2l2.9,10.2c0,0,0,0.1,0,0.1
				C631.5,636.4,631.4,636.5,631.2,636.5z M627.3,626.3c0-0.2-0.1-0.3-0.3-0.3c-0.2,0-0.3,0.1-0.3,0.3l-1.4,5.2h3.5L627.3,626.3z"/>
			<path style="fill:#968670;" d="M640.9,636.5h-1c-0.3,0-0.4-0.1-0.5-0.3l-4.8-9.2c0,0,0,0,0,0s0,0,0,0v9.2c0,0.2-0.1,0.3-0.3,0.3
				h-0.8c-0.2,0-0.3,0-0.3-0.2v-11c0-0.3,0.2-0.4,0.5-0.4h0.9c0.4,0,0.5,0.1,0.6,0.3l4.8,9.2l0,0c0,0,0,0,0,0v-9.2
				c0-0.2,0.1-0.3,0.3-0.3h0.8c0.2,0,0.3,0.1,0.3,0.3V636C641.4,636.3,641.2,636.5,640.9,636.5z"/>
			<path style="fill:#968670;" d="M656.9,636.5h-0.8c-0.2,0-0.3-0.1-0.3-0.3v-9.3c0,0,0,0,0,0s0,0,0,0l-2.2,4.6
				c-0.2,0.3-0.3,0.5-0.7,0.5h-0.7c-0.4,0-0.5-0.1-0.7-0.5l-2.2-4.6c0,0,0,0,0,0c0,0,0,0,0,0v9.3c0,0.2-0.1,0.3-0.3,0.3H648
				c-0.2,0-0.3-0.1-0.3-0.3v-10.9c0-0.3,0.2-0.5,0.5-0.5h1c0.3,0,0.4,0.1,0.5,0.3l2.6,5.4c0.1,0.1,0.1,0.2,0.2,0.2
				c0.1,0,0.1,0,0.2-0.2l2.6-5.4c0.1-0.2,0.2-0.3,0.5-0.3h1c0.3,0,0.5,0.2,0.5,0.5v10.9C657.2,636.4,657.1,636.5,656.9,636.5z"/>
			<path style="fill:#968670;" d="M666,636.5c-0.6,0.1-2.1,0.1-3.1,0.1c-2.2,0-3.3-0.8-3.3-2.9v-6c0-2.1,1.1-2.9,3.3-2.9
				c0.9,0,2.4,0,3.1,0.1c0.1,0,0.2,0.1,0.2,0.2v0.8c0,0.1-0.1,0.2-0.2,0.2h-3c-1.7,0-1.9,0.4-1.9,1.6v2.2h4.8c0.2,0,0.3,0.1,0.3,0.3
				v0.6c0,0.2-0.1,0.3-0.3,0.3h-4.8v2.6c0,1.2,0.3,1.6,1.9,1.6h3c0.1,0,0.2,0.1,0.2,0.2v0.8C666.2,636.4,666.1,636.5,666,636.5z"/>
			<path style="fill:#968670;" d="M671.5,636.6c-1.2,0-2.4-0.1-2.9-0.2c-0.2,0-0.3-0.2-0.3-0.4v-10.8c0-0.2,0.1-0.4,0.3-0.4
				c0.5-0.1,1.7-0.2,2.9-0.2c2.9,0,4.8,1.5,4.8,4.9v2.1C676.2,635.1,674.4,636.6,671.5,636.6z M674.8,629.6c0-2.8-1.4-3.7-3.3-3.7
				c-0.7,0-1.2,0-1.7,0v9.3c0.5,0,1,0,1.7,0c1.9,0,3.3-0.8,3.3-3.7V629.6z"/>
			<path style="fill:#968670;" d="M679.6,636.5h-0.9c-0.2,0-0.3-0.1-0.3-0.3v-11c0-0.2,0.1-0.3,0.3-0.3h0.9c0.2,0,0.3,0.1,0.3,0.3
				v11C679.9,636.3,679.8,636.5,679.6,636.5z"/>
			<path style="fill:#968670;" d="M685.7,636.6c-1.2,0-2.4-0.1-2.9-0.2c-0.2,0-0.3-0.2-0.3-0.4v-10.8c0-0.2,0.1-0.4,0.3-0.4
				c0.5-0.1,1.7-0.2,2.9-0.2c2.9,0,4.8,1.5,4.8,4.9v2.1C690.4,635.1,688.6,636.6,685.7,636.6z M689,629.6c0-2.8-1.4-3.7-3.3-3.7
				c-0.7,0-1.2,0-1.7,0v9.3c0.5,0,1,0,1.7,0c1.9,0,3.3-0.8,3.3-3.7V629.6z"/>
			<path style="fill:#968670;" d="M700.2,636.5h-0.9c-0.1,0-0.2-0.1-0.3-0.2l-1-3.6h-4.1l-1,3.6c0,0.1-0.2,0.2-0.3,0.2h-0.9
				c-0.2,0-0.3-0.1-0.3-0.3c0,0,0-0.1,0-0.1l2.9-10.2c0.3-1,1-1.2,1.6-1.2c0.6,0,1.3,0.2,1.6,1.2l2.9,10.2c0,0,0,0.1,0,0.1
				C700.5,636.4,700.4,636.5,700.2,636.5z M696.2,626.3c0-0.2-0.1-0.3-0.3-0.3c-0.2,0-0.3,0.1-0.3,0.3l-1.4,5.2h3.5L696.2,626.3z"/>
		</g>
	</g>
	<g>
		<path style="fill:#72ADC8;" d="M539.7,601.3l-4.9-2.6c-1.5-0.8-1.9-1.2-1.9-1.8c0-0.8,0.5-1.2,1.8-1.2c2.6,0,6.9,0.4,8.4,0.5
			c0.6,0,0.9-0.3,0.9-0.7v-4.5c0-0.4-0.5-0.6-0.8-0.7c-1.5-0.4-5.4-0.9-8.3-0.9c-7.3,0-9.5,3.2-9.5,7.2c0,2.8,0.9,5.2,4.3,7.2
			l5.2,3.1c1.3,0.8,1.7,1.2,1.7,1.9c0,1.2-0.5,1.8-2.3,1.8c-1.9,0-5.9-0.4-7.4-0.5c-0.5,0-0.9,0.2-0.9,0.7v4.4
			c0,0.4,0.5,0.6,0.9,0.7c1.9,0.5,4.4,0.9,7.3,0.9c7.4,0,10.2-4.2,10.2-8.2C544.4,605.5,543.2,603.2,539.7,601.3z"/>
		<path style="fill:#72ADC8;" d="M559,589.4c-6,0-11,3.1-11,11.9v3.7c0,8.8,5,11.8,11,11.8c6,0,11-3.1,11-11.8v-3.7
			C570,592.4,565,589.4,559,589.4z M562,604.9c0,3.8-1,5.4-3.5,5.4s-3.5-1.5-3.5-5.4v-3.7c0-3.8,1-5.4,3.5-5.4s3.5,1.6,3.5,5.4
			V604.9z"/>
		<path style="fill:#72ADC8;" d="M597.8,590h-4c-0.9,0-1.4,0.3-1.8,0.9l-5.2,9c-0.1,0.3-0.3,0.4-0.4,0.4s-0.3-0.2-0.4-0.4l-5.2-9
			c-0.4-0.7-0.9-0.9-1.8-0.9h-4c-0.7,0-0.9,0.3-0.9,1v24.8c0,0.6-0.1,0.2,0.2,0.2h5.9c0.3,0,0.9,0.1,0.9-0.2v-13.3
			c0-0.3-0.2-0.4,0-0.4c0.1,0,0.1,0.1,0.3,0.4l2.9,4.8c0.3,0.5,0.6,0.6,1,0.6h2.5c0.4,0,0.8-0.1,1-0.6l2.9-4.9
			c0.2-0.3,0.2-0.4,0.3-0.4c0.1,0,0.1,0.1,0.1,0.4v13.3c0,0.5,0.4,0.2,0.7,0.2h5.9c0.3,0,0.4,0.2,0.4-0.2V591
			C599,590.3,598.6,590,597.8,590z"/>
		<path style="fill:#72ADC8;" d="M614,589.4c-6,0-11,3.1-11,11.9v3.7c0,8.8,5,11.8,11,11.8c6,0,11-3.1,11-11.8v-3.7
			C625,592.4,620,589.4,614,589.4z M618,604.9c0,3.8-1,5.4-3.5,5.4s-3.5-1.5-3.5-5.4v-3.7c0-3.8,1-5.4,3.5-5.4s3.5,1.6,3.5,5.4
			V604.9z"/>
		<path style="fill:#72ADC8;" d="M642.7,601.3l-4.9-2.6c-1.5-0.8-1.9-1.2-1.9-1.8c0-0.8,0.5-1.2,1.8-1.2c2.6,0,6.9,0.4,8.4,0.5
			c0.6,0,0.9-0.3,0.9-0.7v-4.5c0-0.4-0.5-0.6-0.8-0.7c-1.5-0.4-5.4-0.9-8.3-0.9c-7.3,0-9.5,3.2-9.5,7.2c0,2.8,0.9,5.2,4.3,7.2
			l5.2,3.1c1.3,0.8,1.7,1.2,1.7,1.9c0,1.2-0.5,1.8-2.3,1.8c-1.9,0-5.9-0.4-7.4-0.5c-0.5,0-0.9,0.2-0.9,0.7v4.4
			c0,0.4,0.5,0.6,0.9,0.7c1.9,0.5,4.4,0.9,7.3,0.9c7.4,0,10.2-4.2,10.2-8.2C647.4,605.5,646.1,603.2,642.7,601.3z"/>
		<path style="fill:#72ADC8;" d="M677.2,593.7c-0.8-3.6-3.5-4.3-6.9-4.3c-3.4,0-6.1,0.7-6.9,4.3l-4.8,21.8c-0.1,0.4,0,0.5,0.6,0.5
			h6.2c0.5,0,0.6,0,0.7-0.3l1-4.7h6.4l1,4.7c0.1,0.4,0.2,0.3,0.7,0.3h6.3c0.5,0,0.6-0.1,0.5-0.5L677.2,593.7z M668.1,605l1.8-9.1
			c0.1-0.3,0.1-0.5,0.4-0.5c0.3,0,0.3,0.2,0.4,0.5l1.8,9.1H668.1z"/>
		<path style="fill:#72ADC8;" d="M703.5,590.3c-1.5-0.4-4.2-1-8-1c-5,0-11.5,2-11.5,11.8v3.8c0,9.7,6.7,11.8,11,11.8
			c3.5,0,6.2-0.4,8.3-0.9c0.6-0.1,0.7-0.3,0.7-0.8v-12c0-0.4,0-1-0.4-1h-5.7c-0.4,0-0.9,0.6-0.9,1v7.4c0,0.1-1.1,0.1-1.8,0.1
			c-1.4,0-3.2-0.7-3.2-5.5v-3.8c0-4.4,1.4-5.4,4.8-5.4c2.7,0,5.4,0.2,6.7,0.3c0.4,0,0.4-0.1,0.4-0.6V591
			C704,590.5,704,590.5,703.5,590.3z"/>
		<path style="fill:#72ADC8;" d="M729.6,590h-5.8c-0.4,0-0.8,0-0.8,0.4v15.9c0,3.3-1,4.3-3.5,4.3c-2.6,0-3.5-1-3.5-4.3v-15.9
			c0-0.4-0.4-0.4-0.8-0.4h-5.8c-0.4,0-0.4,0-0.4,0.4v15.9c0,8.7,4.8,10.5,10.5,10.5S730,615,730,606.3v-15.9
			C730,590,730,590,729.6,590z"/>
		<path style="fill:#72ADC8;" d="M756.8,615.5l-4.8-21.9c-0.8-3.6-3.5-4.2-6.9-4.2c-3.4,0-6.1,0.7-6.9,4.3l-4.8,21.8
			c-0.1,0.4,0,0.6,0.6,0.6h6.2c0.5,0,0.6,0,0.7-0.3l1-4.7h6.4l1,4.7c0.1,0.4,0.2,0.3,0.7,0.3h6.3C756.8,616,756.9,615.9,756.8,615.5
			z M742.9,605l1.8-9.1c0.1-0.3,0.1-0.5,0.4-0.5c0.3,0,0.3,0.2,0.4,0.5l1.8,9.1H742.9z"/>
	</g>
</g>
<g id="Miscelaneas">
	<g>
		<g>
			<g>
				<rect x="553.7" y="629.5" style="fill:#569EC6;" width="17.9" height="2.7"/>
				<rect x="709.8" y="629.5" style="fill:#569EC6;" width="17.9" height="2.7"/>
			</g>
		</g>
	</g>
	<g>
	</g>
	<g>
	</g>
	<g>
	</g>
	<g>
	</g>
	<g>
	</g>
	<g>
	</g>
	<g>
	</g>
	<g>
	</g>
	<g>
	</g>
	<g>
	</g>
	<g>
	</g>
	<g>
	</g>
	<g>
	</g>
	<g>
	</g>
	<g>
	</g>
</g>
</svg>
