<?xml version="1.0" encoding="utf-8"?>
<!-- Generator: Adobe Illustrator 16.0.0, SVG Export Plug-In . SVG Version: 6.00 Build 0)  -->
<!DOCTYPE svg PUBLIC "-//W3C//DTD SVG 1.1//EN" "http://www.w3.org/Graphics/SVG/1.1/DTD/svg11.dtd">
<svg version="1.1" id="Texto" xmlns="http://www.w3.org/2000/svg" xmlns:xlink="http://www.w3.org/1999/xlink" x="0px" y="0px"
	 width="1280px" height="700px" viewBox="0 0 1280 700" style="enable-background:new 0 0 1280 700;" xml:space="preserve">
<g>
	<g>
		<g>
			<path style="fill:none;stroke:#5BA4C2;stroke-width:0.75;stroke-miterlimit:10;" d="M640.3,654c0,0,0-14.3,0-19.3
				c0-3.1,1-4.1,3.7-4.1s92.9,0,92.9,0c3,0,3.8-1.4,3.8-5c0-3.4-0.3-9.3-0.3-13c0-3.5,0.9-5.4,3.3-6v-0.2c-2.4-0.7-3.3-2.4-3.3-6
				c0-3.8,0.3-6.6,0.3-10"/>
		</g>
		<g>
			<path style="fill:none;stroke:#5BA4C2;stroke-width:0.75;stroke-miterlimit:10;" d="M541,590.2c0,3.4,0.3,6.3,0.3,10
				c0,3.6-0.9,5.4-3.3,6v0.2c2.4,0.7,3.3,2.5,3.3,6c0,3.8-0.3,9.6-0.3,13c0,3.6,0.8,5,3.8,5c0,0,89.2,0,91.8,0s3.7,1,3.7,4.1
				c0,5,0,19.3,0,19.3"/>
		</g>
	</g>
	<g>
		<g>
			<path style="fill:#5BA4C2;" d="M643.8,653.9L643.8,653.9l-3.5-6.9v0l0,0l0,0l0,0l-3.7,6.8l0,0c-0.3,0.6-0.5,1.3-0.6,2
				c0,2.3,1.8,4.1,4.1,4.2c2.3,0,4.1-1.8,4.2-4.1C644.3,655.2,644.1,654.5,643.8,653.9z"/>
			<g>
				<g>
					<path style="fill:#72ADC8;" d="M639,659C638.9,659,638.9,659,639,659c-2.1-0.4-2.4-2.6-2.3-3.7c0-0.2,0.2-0.3,0.4-0.3
						c0.2,0,0.3,0.2,0.3,0.4c0,0.1-0.3,2.5,1.6,2.9c0.2,0,0.3,0.2,0.3,0.4C639.3,658.9,639.1,659,639,659z"/>
				</g>
			</g>
		</g>
		<path style="fill:#72ADC8;" d="M644.3,655.9c0-0.7-0.2-1.4-0.5-2l0,0l-3.5-6.9v0l0,0l0,0v13C642.5,659.9,644.3,658.2,644.3,655.9z
			"/>
		<g>
			<g>
				<path style="fill:#E2D4D5;" d="M641.9,653.4l-0.8-2c-0.1-0.1-0.1-0.4,0-0.4s0.3,0.1,0.3,0.3l1,1.9c0.1,0.1,0,0.4-0.1,0.5
					C642.2,653.7,642,653.6,641.9,653.4z"/>
			</g>
			
				<ellipse transform="matrix(0.9967 -8.078250e-02 8.078250e-02 0.9967 -50.7535 54.051)" style="fill:#E2D4D5;" cx="642.6" cy="654.3" rx="0.4" ry="0.4"/>
		</g>
	</g>
	<g>
		<g>
			<path style="fill:#5BA4C2;" d="M644,665.9L644,665.9l-1.9-3.8v0l0,0l0,0l0,0l-2,3.7l0,0c-0.2,0.3-0.3,0.7-0.3,1.1
				c0,1.3,1,2.3,2.2,2.3c1.3,0,2.3-1,2.3-2.2C644.3,666.6,644.2,666.2,644,665.9z"/>
			<g>
				<g>
					<path style="fill:#72ADC8;" d="M641.3,668.7C641.3,668.7,641.3,668.7,641.3,668.7c-1.2-0.2-1.3-1.4-1.3-2
						c0-0.1,0.1-0.2,0.2-0.2c0.1,0,0.2,0.1,0.2,0.2c0,0.1-0.1,1.4,0.9,1.6c0.1,0,0.2,0.1,0.2,0.2
						C641.5,668.7,641.4,668.7,641.3,668.7z"/>
				</g>
			</g>
		</g>
		<path style="fill:#72ADC8;" d="M644.3,667c0-0.4-0.1-0.8-0.3-1.1l0,0l-1.9-3.8v0l0,0l0,0v7.2C643.3,669.2,644.3,668.2,644.3,667z"
			/>
		<g>
			<g>
				<path style="fill:#E2D4D5;" d="M643,665.6l-0.4-1.1c0-0.1-0.1-0.2,0-0.2c0.1,0,0.2,0.1,0.2,0.1l0.5,1.1c0,0.1,0,0.2-0.1,0.3
					C643.1,665.8,643,665.7,643,665.6z"/>
			</g>
			
				<ellipse transform="matrix(0.9967 -8.099710e-02 8.099710e-02 0.9967 -51.8375 54.2986)" style="fill:#E2D4D5;" cx="643.4" cy="666.1" rx="0.2" ry="0.2"/>
		</g>
	</g>
</g>
<g>
	<text transform="matrix(1 0 0 1 560.7119 592.1387)"><tspan x="0" y="0" style="fill:#5BA4C2; font-family:'NeoSansStd-Medium'; font-size:14;">El Agua ayuda a eliminar</tspan><tspan x="17.5" y="18" style="fill:#5BA4C2; font-family:'NeoSansStd-Medium'; font-size:14;">desechos y toxinas</tspan></text>
</g>
</svg>
