<?xml version="1.0" encoding="utf-8"?>
<!-- Generator: Adobe Illustrator 16.0.0, SVG Export Plug-In . SVG Version: 6.00 Build 0)  -->
<!DOCTYPE svg PUBLIC "-//W3C//DTD SVG 1.1//EN" "http://www.w3.org/Graphics/SVG/1.1/DTD/svg11.dtd">
<svg version="1.1" id="textoJarraNivel06" xmlns="http://www.w3.org/2000/svg" xmlns:xlink="http://www.w3.org/1999/xlink" x="0px"
	 y="0px" width="1280px" height="700px" viewBox="0 0 1280 700" enable-background="new 0 0 1280 700" xml:space="preserve">
<g>
	<g>
		<g>
			<polyline fill="none" stroke="#E2D4D5" stroke-miterlimit="10" points="479.595,95.167 560,212.167 610.595,212.167 			"/>
			<circle fill="none" stroke="#E2D4D5" stroke-miterlimit="10" cx="613.595" cy="212.167" r="3.205"/>
		</g>
		<g>
			<g>
				<text transform="matrix(1 0 0 1 429.2451 96.167)" fill="#D0E9EF" font-family="'NeoSansStd-Bold'" font-size="10">NIVEL 06</text>
			</g>
			<g>
				<text transform="matrix(1 0 0 1 397.1572 112.7021)"><tspan x="0" y="0" fill="#D76A74" font-family="'NeoSansStd-Medium'" font-size="14">REFRESCOS</tspan><tspan x="-29.988" y="16" fill="#D76A74" font-family="'NeoSansStd-Medium'" font-size="14">AGUA DE SABOR</tspan></text>
			</g>
			<g>
				<text transform="matrix(1 0 0 1 396.6387 150.167)" fill="#E28E94" font-family="'NeoSansStd-Medium'" font-size="21">0 Vasos</text>
			</g>
			<g>
				<g>
					<g>
						<g>
							<polygon fill="#E6FFE5" points="471.177,168.062 472.104,159.968 468.191,159.968 468.191,156.84 472.994,156.84 
								472.686,159.539 471.622,168.84 468.191,168.84 468.191,168.062 							"/>
							<polygon fill="#D0E9EF" points="468.191,156.84 468.191,159.968 464.28,159.968 465.206,168.062 468.191,168.062 
								468.191,168.84 464.762,168.84 463.698,159.539 463.389,156.84 							"/>
							<polygon fill="#D0E9EF" points="465.206,168.062 464.28,159.968 468.191,159.968 468.191,168.062 							"/>
							<polygon fill="#E6FFE5" points="471.177,168.062 468.191,168.062 468.191,159.968 472.104,159.968 							"/>
						</g>
					</g>
				</g>
			</g>
		</g>
	</g>
</g>
</svg>
