<?xml version="1.0" encoding="utf-8"?>
<!-- Generator: Adobe Illustrator 16.0.0, SVG Export Plug-In . SVG Version: 6.00 Build 0)  -->
<!DOCTYPE svg PUBLIC "-//W3C//DTD SVG 1.1//EN" "http://www.w3.org/Graphics/SVG/1.1/DTD/svg11.dtd">
<svg version="1.1" id="textoJarraNivel05" xmlns="http://www.w3.org/2000/svg" xmlns:xlink="http://www.w3.org/1999/xlink" x="0px"
	 y="0px" width="1280px" height="700px" viewBox="0 0 1280 700" enable-background="new 0 0 1280 700" xml:space="preserve">
<g>
	<g>
		<polyline fill="none" stroke="#E2D4D5" stroke-miterlimit="10" points="772.999,157.504 719.689,230.504 661.999,230.504 		"/>
		<circle fill="none" stroke="#E2D4D5" stroke-miterlimit="10" cx="658.999" cy="230.504" r="3.205"/>
	</g>
	<g>
		<g>
			<text transform="matrix(1 0 0 1 779.5996 153.5039)" fill="#D0E9EF" font-family="'NeoSansStd-Bold'" font-size="10">NIVEL 05</text>
		</g>
		<g>
			<text transform="matrix(1 0 0 1 779.5996 170.0391)"><tspan x="0" y="0" fill="#F5A85B" font-family="'NeoSansStd-Medium'" font-size="14">JUGO 100% DE FRUTAS,</tspan><tspan x="0" y="16" fill="#F5A85B" font-family="'NeoSansStd-Medium'" font-size="14">LECHE ENTERA, BEBIDAS </tspan><tspan x="0" y="32" fill="#F5A85B" font-family="'NeoSansStd-Medium'" font-size="14">DEPORTIVAS Ó BEBIDAS</tspan><tspan x="0" y="48" fill="#F5A85B" font-family="'NeoSansStd-Medium'" font-size="14">ALCOHÓLICAS</tspan></text>
		</g>
		<g>
			<text transform="matrix(1 0 0 1 779.5996 239.5039)" fill="#F7BC81" font-family="'NeoSansStd-Medium'" font-size="21">de 0 a 1/2 Vaso</text>
		</g>
		<g>
			<g>
				<g>
					<g>
						<polygon fill="#E6FFE5" points="781.417,257.398 780.49,249.305 784.402,249.305 784.402,246.177 779.6,246.177 
							779.908,248.876 780.972,258.177 784.402,258.177 784.402,257.398 						"/>
						<polygon fill="#D0E9EF" points="784.402,246.177 784.402,249.305 788.313,249.305 787.388,257.398 784.402,257.398 
							784.402,258.177 787.832,258.177 788.896,248.876 789.205,246.177 						"/>
						<polygon fill="#F7BC81" points="787.388,257.398 788.313,249.305 784.402,249.305 784.402,257.398 						"/>
						<polygon fill="#F5A85B" points="781.417,257.398 784.402,257.398 784.402,249.305 780.49,249.305 						"/>
					</g>
				</g>
			</g>
			<g>
				<g>
					<g>
						<polygon fill="#E6FFE5" points="793.931,257.398 793.004,249.305 796.916,249.305 796.916,246.177 792.113,246.177 
							792.422,248.876 793.485,258.177 796.916,258.177 796.916,257.398 						"/>
						<polygon fill="#D0E9EF" points="796.916,246.177 796.916,249.305 800.827,249.305 799.901,257.398 796.916,257.398 
							796.916,258.177 800.346,258.177 801.409,248.876 801.719,246.177 						"/>
						<polygon fill="#F7BC81" points="799.901,257.398 800.827,249.305 796.916,249.305 796.916,257.398 						"/>
						<polygon fill="#F5A85B" points="793.931,257.398 796.916,257.398 796.916,249.305 793.004,249.305 						"/>
					</g>
				</g>
			</g>
		</g>
	</g>
</g>
</svg>
