<?xml version="1.0" encoding="utf-8"?>
<!-- Generator: Adobe Illustrator 16.0.0, SVG Export Plug-In . SVG Version: 6.00 Build 0)  -->
<!DOCTYPE svg PUBLIC "-//W3C//DTD SVG 1.1//EN" "http://www.w3.org/Graphics/SVG/1.1/DTD/svg11.dtd">
<svg version="1.1" id="textoJarraNivel04" xmlns="http://www.w3.org/2000/svg" xmlns:xlink="http://www.w3.org/1999/xlink" x="0px"
	 y="0px" width="1280px" height="700px" viewBox="0 0 1280 700" enable-background="new 0 0 1280 700" xml:space="preserve">
<g>
	<g>
		<g>
			<polyline fill="none" stroke="#E2D4D5" stroke-miterlimit="10" points="479.595,205.5 560,255.5 610.595,255.5 			"/>
			<circle fill="none" stroke="#E2D4D5" stroke-miterlimit="10" cx="613.595" cy="255.5" r="3.205"/>
		</g>
		<g>
			<g>
				<text transform="matrix(1 0 0 1 429.2451 206.5)" fill="#D0E9EF" font-family="'NeoSansStd-Bold'" font-size="10">NIVEL 04</text>
			</g>
			<g>
				<text transform="matrix(1 0 0 1 288.8965 223.0352)"><tspan x="0" y="0" fill="#F7B777" font-family="'NeoSansStd-Medium'" font-size="14">LECHE SEMI Y DESCREMADA,</tspan><tspan x="42.378" y="16" fill="#F7B777" font-family="'NeoSansStd-Medium'" font-size="14">BEBIDAS DE SOYA SIN</tspan><tspan x="46.325" y="32" fill="#F7B777" font-family="'NeoSansStd-Medium'" font-size="14">AZÚCAR ADICIONADA</tspan></text>
			</g>
			<g>
				<text transform="matrix(1 0 0 1 331.9805 275.5)" fill="#F9CEA2" font-family="'NeoSansStd-Medium'" font-size="21">de 0 a 2 Vasos</text>
			</g>
			<g>
				<g>
					<g>
						<g>
							<polygon fill="#E6FFE5" points="471.177,293.395 472.104,285.301 468.191,285.301 468.191,282.173 472.994,282.173 
								472.686,284.872 471.622,294.173 468.191,294.173 468.191,293.395 							"/>
							<polygon fill="#D0E9EF" points="468.191,282.173 468.191,285.301 464.28,285.301 465.206,293.395 468.191,293.395 
								468.191,294.173 464.762,294.173 463.698,284.872 463.389,282.173 							"/>
							<polygon fill="#F7B777" points="465.206,293.395 464.28,285.301 468.191,285.301 468.191,293.395 							"/>
							<polygon fill="#F9CEA2" points="471.177,293.395 468.191,293.395 468.191,285.301 472.104,285.301 							"/>
						</g>
					</g>
				</g>
				<g>
					<g>
						<g>
							<polygon fill="#E6FFE5" points="458.663,293.395 459.59,285.301 455.678,285.301 455.678,282.173 460.48,282.173 
								460.172,284.872 459.108,294.173 455.678,294.173 455.678,293.395 							"/>
							<polygon fill="#D0E9EF" points="455.678,282.173 455.678,285.301 451.767,285.301 452.692,293.395 455.678,293.395 
								455.678,294.173 452.248,294.173 451.185,284.872 450.875,282.173 							"/>
							<polygon fill="#F7B777" points="452.692,293.395 451.767,285.301 455.678,285.301 455.678,293.395 							"/>
							<polygon fill="#F9CEA2" points="458.663,293.395 455.678,293.395 455.678,285.301 459.59,285.301 							"/>
						</g>
					</g>
				</g>
			</g>
		</g>
	</g>
</g>
</svg>
