<?xml version="1.0" encoding="utf-8"?>
<!-- Generator: Adobe Illustrator 16.0.0, SVG Export Plug-In . SVG Version: 6.00 Build 0)  -->
<!DOCTYPE svg PUBLIC "-//W3C//DTD SVG 1.1//EN" "http://www.w3.org/Graphics/SVG/1.1/DTD/svg11.dtd">
<svg version="1.1" id="textoJarraNivel02" xmlns="http://www.w3.org/2000/svg" xmlns:xlink="http://www.w3.org/1999/xlink" x="0px"
	 y="0px" width="1280px" height="700px" viewBox="0 0 1280 700" enable-background="new 0 0 1280 700" xml:space="preserve">
<g>
	<g>
		<line fill="none" stroke="#E2D4D5" stroke-miterlimit="10" x1="479.595" y1="331.5" x2="610.595" y2="331.5"/>
		<circle fill="none" stroke="#E2D4D5" stroke-miterlimit="10" cx="613.595" cy="331.5" r="3.205"/>
	</g>
	<g>
		<g>
			<text transform="matrix(1 0 0 1 429.2451 332.5)" fill="#D0E9EF" font-family="'NeoSansStd-Bold'" font-size="10">NIVEL 02</text>
		</g>
		<g>
			<text transform="matrix(1 0 0 1 288.8965 349.0352)"><tspan x="0" y="0" fill="#E9D4A9" font-family="'NeoSansStd-Medium'" font-size="14">LECHE SEMI Y DESCREMADA,</tspan><tspan x="42.378" y="16" fill="#E9D4A9" font-family="'NeoSansStd-Medium'" font-size="14">BEBIDAS DE SOYA SIN</tspan><tspan x="46.325" y="32" fill="#E9D4A9" font-family="'NeoSansStd-Medium'" font-size="14">AZÚCAR ADICIONADA</tspan></text>
		</g>
		<g>
			<text transform="matrix(1 0 0 1 331.9805 401.5)" fill="#F7EBCF" font-family="'NeoSansStd-Medium'" font-size="21">de 0 a 2 Vasos</text>
		</g>
		<g>
			<g>
				<g>
					<g>
						<polygon fill="#E6FFE5" points="471.177,419.395 472.104,411.301 468.191,411.301 468.191,408.173 472.994,408.173 
							472.686,410.872 471.622,420.173 468.191,420.173 468.191,419.395 						"/>
						<polygon fill="#D0E9EF" points="468.191,408.173 468.191,411.301 464.28,411.301 465.206,419.395 468.191,419.395 
							468.191,420.173 464.762,420.173 463.698,410.872 463.389,408.173 						"/>
						<polygon fill="#E4CA95" points="465.206,419.395 464.28,411.301 468.191,411.301 468.191,419.395 						"/>
						<polygon fill="#F7EBCF" points="471.177,419.395 468.191,419.395 468.191,411.301 472.104,411.301 						"/>
					</g>
				</g>
			</g>
			<g>
				<g>
					<g>
						<polygon fill="#E6FFE5" points="458.663,419.395 459.59,411.301 455.678,411.301 455.678,408.173 460.48,408.173 
							460.172,410.872 459.108,420.173 455.678,420.173 455.678,419.395 						"/>
						<polygon fill="#D0E9EF" points="455.678,408.173 455.678,411.301 451.767,411.301 452.692,419.395 455.678,419.395 
							455.678,420.173 452.248,420.173 451.185,410.872 450.875,408.173 						"/>
						<polygon fill="#E4CA95" points="452.692,419.395 451.767,411.301 455.678,411.301 455.678,419.395 						"/>
						<polygon fill="#F7EBCF" points="458.663,419.395 455.678,419.395 455.678,411.301 459.59,411.301 						"/>
					</g>
				</g>
			</g>
		</g>
	</g>
</g>
</svg>
