<?xml version="1.0" encoding="utf-8"?>
<!-- Generator: Adobe Illustrator 16.0.0, SVG Export Plug-In . SVG Version: 6.00 Build 0)  -->
<!DOCTYPE svg PUBLIC "-//W3C//DTD SVG 1.1//EN" "http://www.w3.org/Graphics/SVG/1.1/DTD/svg11.dtd">
<svg version="1.1" id="textoJarraNivel01" xmlns="http://www.w3.org/2000/svg" xmlns:xlink="http://www.w3.org/1999/xlink" x="0px"
	 y="0px" width="1280px" height="700px" viewBox="0 0 1280 700" enable-background="new 0 0 1280 700" xml:space="preserve">
<g>
	<g>
		<line fill="none" stroke="#E2D4D5" stroke-miterlimit="10" x1="772.999" y1="418.5" x2="661.999" y2="418.5"/>
		<circle fill="none" stroke="#E2D4D5" stroke-miterlimit="10" cx="658.999" cy="418.5" r="3.205"/>
	</g>
	<g>
		<g>
			<text transform="matrix(1 0 0 1 779.5996 419.5)" fill="#D0E9EF" font-family="'NeoSansStd-Bold'" font-size="10">NIVEL 01</text>
		</g>
		<g>
			<text transform="matrix(1 0 0 1 779.5996 436.0352)" fill="#5BA4C2" font-family="'NeoSansStd-Medium'" font-size="14">AGUA POTABLE</text>
		</g>
		<g>
			<text transform="matrix(1 0 0 1 779.5996 455.5)" fill="#5BA4C2" font-family="'NeoSansStd-Medium'" font-size="21">de 6 a 8 Vasos</text>
		</g>
		<g>
			<g>
				<g>
					<g>
						<polygon fill="#E6FFE5" points="781.417,473.395 780.49,465.301 784.402,465.301 784.402,462.173 779.6,462.173 
							779.908,464.872 780.972,474.173 784.402,474.173 784.402,473.395 						"/>
						<polygon fill="#D0E9EF" points="784.402,462.173 784.402,465.301 788.313,465.301 787.388,473.395 784.402,473.395 
							784.402,474.173 787.832,474.173 788.896,464.872 789.205,462.173 						"/>
						<polygon fill="#76CDD7" points="787.388,473.395 788.313,465.301 784.402,465.301 784.402,473.395 						"/>
						<polygon fill="#AAE0DE" points="781.417,473.395 784.402,473.395 784.402,465.301 780.49,465.301 						"/>
					</g>
				</g>
			</g>
			<g>
				<g>
					<g>
						<polygon fill="#E6FFE5" points="793.931,473.395 793.004,465.301 796.916,465.301 796.916,462.173 792.113,462.173 
							792.422,464.872 793.485,474.173 796.916,474.173 796.916,473.395 						"/>
						<polygon fill="#D0E9EF" points="796.916,462.173 796.916,465.301 800.827,465.301 799.901,473.395 796.916,473.395 
							796.916,474.173 800.346,474.173 801.409,464.872 801.719,462.173 						"/>
						<polygon fill="#76CDD7" points="799.901,473.395 800.827,465.301 796.916,465.301 796.916,473.395 						"/>
						<polygon fill="#AAE0DE" points="793.931,473.395 796.916,473.395 796.916,465.301 793.004,465.301 						"/>
					</g>
				</g>
			</g>
			<g>
				<g>
					<g>
						<polygon fill="#E6FFE5" points="806.443,473.395 805.518,465.301 809.43,465.301 809.43,462.173 804.627,462.173 
							804.936,464.872 805.998,474.173 809.43,474.173 809.43,473.395 						"/>
						<polygon fill="#D0E9EF" points="809.43,462.173 809.43,465.301 813.34,465.301 812.414,473.395 809.43,473.395 
							809.43,474.173 812.859,474.173 813.922,464.872 814.232,462.173 						"/>
						<polygon fill="#76CDD7" points="812.414,473.395 813.34,465.301 809.43,465.301 809.43,473.395 						"/>
						<polygon fill="#AAE0DE" points="806.443,473.395 809.43,473.395 809.43,465.301 805.518,465.301 						"/>
					</g>
				</g>
			</g>
			<g>
				<g>
					<g>
						<polygon fill="#E6FFE5" points="818.957,473.395 818.03,465.301 821.942,465.301 821.942,462.173 817.14,462.173 
							817.448,464.872 818.512,474.173 821.942,474.173 821.942,473.395 						"/>
						<polygon fill="#D0E9EF" points="821.942,462.173 821.942,465.301 825.854,465.301 824.928,473.395 821.942,473.395 
							821.942,474.173 825.372,474.173 826.436,464.872 826.745,462.173 						"/>
						<polygon fill="#76CDD7" points="824.928,473.395 825.854,465.301 821.942,465.301 821.942,473.395 						"/>
						<polygon fill="#AAE0DE" points="818.957,473.395 821.942,473.395 821.942,465.301 818.03,465.301 						"/>
					</g>
				</g>
			</g>
			<g>
				<g>
					<g>
						<polygon fill="#E6FFE5" points="831.471,473.395 830.544,465.301 834.456,465.301 834.456,462.173 829.653,462.173 
							829.962,464.872 831.025,474.173 834.456,474.173 834.456,473.395 						"/>
						<polygon fill="#D0E9EF" points="834.456,462.173 834.456,465.301 838.367,465.301 837.441,473.395 834.456,473.395 
							834.456,474.173 837.886,474.173 838.949,464.872 839.259,462.173 						"/>
						<polygon fill="#76CDD7" points="837.441,473.395 838.367,465.301 834.456,465.301 834.456,473.395 						"/>
						<polygon fill="#AAE0DE" points="831.471,473.395 834.456,473.395 834.456,465.301 830.544,465.301 						"/>
					</g>
				</g>
			</g>
			<g>
				<g>
					<g>
						<polygon fill="#E6FFE5" points="843.984,473.395 843.058,465.301 846.97,465.301 846.97,462.173 842.167,462.173 
							842.476,464.872 843.539,474.173 846.97,474.173 846.97,473.395 						"/>
						<polygon fill="#D0E9EF" points="846.97,462.173 846.97,465.301 850.881,465.301 849.955,473.395 846.97,473.395 
							846.97,474.173 850.399,474.173 851.463,464.872 851.772,462.173 						"/>
						<polygon fill="#76CDD7" points="849.955,473.395 850.881,465.301 846.97,465.301 846.97,473.395 						"/>
						<polygon fill="#AAE0DE" points="843.984,473.395 846.97,473.395 846.97,465.301 843.058,465.301 						"/>
					</g>
				</g>
			</g>
			<g>
				<g>
					<g>
						<polygon fill="#E6FFE5" points="856.498,473.395 855.57,465.301 859.482,465.301 859.482,462.173 854.68,462.173 
							854.988,464.872 856.053,474.173 859.482,474.173 859.482,473.395 						"/>
						<polygon fill="#D0E9EF" points="859.482,462.173 859.482,465.301 863.395,465.301 862.469,473.395 859.482,473.395 
							859.482,474.173 862.912,474.173 863.977,464.872 864.285,462.173 						"/>
						<polygon fill="#76CDD7" points="862.469,473.395 863.395,465.301 859.482,465.301 859.482,473.395 						"/>
						<polygon fill="#AAE0DE" points="856.498,473.395 859.482,473.395 859.482,465.301 855.57,465.301 						"/>
					</g>
				</g>
			</g>
			<g>
				<g>
					<g>
						<polygon fill="#E6FFE5" points="869.011,473.395 868.084,465.301 871.996,465.301 871.996,462.173 867.193,462.173 
							867.502,464.872 868.565,474.173 871.996,474.173 871.996,473.395 						"/>
						<polygon fill="#D0E9EF" points="871.996,462.173 871.996,465.301 875.908,465.301 874.982,473.395 871.996,473.395 
							871.996,474.173 875.426,474.173 876.49,464.872 876.799,462.173 						"/>
						<polygon fill="#76CDD7" points="874.982,473.395 875.908,465.301 871.996,465.301 871.996,473.395 						"/>
						<polygon fill="#AAE0DE" points="869.011,473.395 871.996,473.395 871.996,465.301 868.084,465.301 						"/>
					</g>
				</g>
			</g>
		</g>
	</g>
</g>
</svg>
