<?xml version="1.0" encoding="utf-8"?>
<!-- Generator: Adobe Illustrator 16.0.0, SVG Export Plug-In . SVG Version: 6.00 Build 0)  -->
<!DOCTYPE svg PUBLIC "-//W3C//DTD SVG 1.1//EN" "http://www.w3.org/Graphics/SVG/1.1/DTD/svg11.dtd">
<svg version="1.1" xmlns="http://www.w3.org/2000/svg" xmlns:xlink="http://www.w3.org/1999/xlink" x="0px" y="0px" width="1280px"
	 height="700px" viewBox="0 0 1280 700" style="enable-background:new 0 0 1280 700;" xml:space="preserve">
<g id="Miscelaneas">
	<g>
		<g>
			<g>
				<path style="fill:none;stroke:#5BA4C2;stroke-width:0.75;stroke-miterlimit:10;" d="M640.4,652c0,0,0-14.3,0-19.3
					c0-3.1,1-4.1,3.7-4.1s181.8,0,181.8,0c3,0,3.8-1.4,3.8-5c0-3.4-0.3-8.3-0.3-12c0-3.5,0.9-5.4,3.3-6v-0.2c-2.4-0.7-3.3-2.4-3.3-6
					c0-3.8,0.3-6.6,0.3-10"/>
			</g>
			<g>
				<path style="fill:none;stroke:#5BA4C2;stroke-width:0.75;stroke-miterlimit:10;" d="M451,589.2c0,3.4,0.3,6.3,0.3,10
					c0,3.6-0.9,5.4-3.3,6v0.2c2.4,0.7,3.3,2.5,3.3,6c0,3.8-0.3,8.6-0.3,12c0,3.6,0.8,5,3.8,5c0,0,179.1,0,181.8,0s3.7,1,3.7,4.1
					c0,5,0,19.3,0,19.3"/>
			</g>
		</g>
		<g>
			<g>
				<path style="fill:#5BA4C2;" d="M643.7,651.9L643.7,651.9l-3.5-6.9v0l0,0l0,0l0,0l-3.7,6.8l0,0c-0.3,0.6-0.5,1.3-0.6,2
					c0,2.3,1.8,4.1,4.1,4.2c2.3,0,4.1-1.8,4.2-4.1C644.2,653.2,644,652.5,643.7,651.9z"/>
				<g>
					<g>
						<path style="fill:#72ADC8;" d="M638.8,657C638.8,657,638.8,657,638.8,657c-2.1-0.4-2.4-2.6-2.3-3.7c0-0.2,0.2-0.3,0.4-0.3
							c0.2,0,0.3,0.2,0.3,0.4c0,0.1-0.3,2.5,1.6,2.9c0.2,0,0.3,0.2,0.3,0.4C639.1,656.9,639,657,638.8,657z"/>
					</g>
				</g>
			</g>
			<path style="fill:#72ADC8;" d="M644.2,653.9c0-0.7-0.2-1.4-0.5-2l0,0l-3.5-6.9v0l0,0l0,0v13C642.4,657.9,644.2,656.2,644.2,653.9
				z"/>
			<g>
				<g>
					<path style="fill:#E2D4D5;" d="M641.8,651.4l-0.8-2c-0.1-0.1-0.1-0.4,0-0.4s0.3,0.1,0.3,0.3l1,1.9c0.1,0.1,0,0.4-0.1,0.5
						C642,651.7,641.8,651.6,641.8,651.4z"/>
				</g>
				
					<ellipse transform="matrix(0.9967 -8.078250e-02 8.078250e-02 0.9967 -50.5923 54.0332)" style="fill:#E2D4D5;" cx="642.5" cy="652.3" rx="0.4" ry="0.4"/>
			</g>
		</g>
	</g>
</g>
<g id="Texto">
	<g>
		<text transform="matrix(1 0 0 1 520.8125 592.1387)"><tspan x="0" y="0" style="fill:#5BA4C2; font-family:'NeoSansStd-Medium'; font-size:14;">Cuando sudas pierdes mucho líquido,</tspan><tspan x="-50.7" y="18" style="fill:#5BA4C2; font-family:'NeoSansStd-Medium'; font-size:14;">toma </tspan><tspan x="-14" y="18" style="fill:#2B4E6B; font-family:'NeoSansStd-Bold'; font-size:14;">dos Vasos de Agua </tspan><tspan x="114.8" y="18" style="fill:#5BA4C2; font-family:'NeoSansStd-Medium'; font-size:14;">por la tarde, antes de jugar</tspan></text>
	</g>
</g>
</svg>
