<?xml version="1.0" encoding="utf-8"?>
<!-- Generator: Adobe Illustrator 16.0.0, SVG Export Plug-In . SVG Version: 6.00 Build 0)  -->
<!DOCTYPE svg PUBLIC "-//W3C//DTD SVG 1.1//EN" "http://www.w3.org/Graphics/SVG/1.1/DTD/svg11.dtd">
<svg version="1.1" xmlns="http://www.w3.org/2000/svg" xmlns:xlink="http://www.w3.org/1999/xlink" x="0px" y="0px" width="1280px"
	 height="700px" viewBox="0 0 1280 700" style="enable-background:new 0 0 1280 700;" xml:space="preserve">
<g id="Cama_Atras">
	<ellipse style="fill:#DDD2BD;" cx="657.9" cy="434.3" rx="140.8" ry="2.8"/>
	<g>
		<g>
			<g>
				<path style="fill:#6C5636;" d="M667.9,346.3H601c-6.9,0-12.5,5.6-12.5,12.5v75.4h6v-13.3h75.2v7.3c0,3.3,2.7,6,6,6h4.6v-75.4
					C680.3,351.9,674.8,346.3,667.9,346.3z"/>
			</g>
			<g>
				<path style="fill:#897558;" d="M668.4,346.3h-62.1c-6.9,0-12.5,5.6-12.5,12.5v75.4h0.1c3.3,0,6-2.7,6-5.9v-7.3h75.7v8
					c0,2.9,2.4,5.2,5.3,5.2h0.1v-75.4C680.9,351.9,675.3,346.3,668.4,346.3z"/>
			</g>
			<g>
				<g>
					<path style="fill:#EE959B;" d="M727.7,384.6H604.1c-2.4,0-4.3,1.9-4.3,4.3v6.3c0,0.4,0,0.7,0.1,1.1h127.7V384.6z"/>
				</g>
				<g>
					<path style="fill:#CC656F;" d="M600,396.2c0.5,1.8,2.1,3.2,4.1,3.2h123.6v-3.2H600z"/>
				</g>
			</g>
		</g>
		<g>
			<rect x="599.8" y="399.4" style="fill:#735E40;" width="89.5" height="21.5"/>
		</g>
	</g>
</g>
<g id="Lousteau">
	<path style="fill:#DDD2BD;" d="M656.9,451.8c0,1.3-29.4,2.3-45.5,2.3s-29.1-1-29.1-2.3c0-1.2,13-2.3,29.1-2.3
		S656.9,450.6,656.9,451.8z"/>
	<g>
		<g>
			<g>
				<path style="fill:#FFBE9A;" d="M585.4,446c10.4-1,15.6-1,16.6-2.6v-44c0-11.9,10-21.4,21.9-21.4H671v-7h19.9
					c-1.7,4-6.3,12-11.6,12h-52.9c-8.6,0-17.1,6.6-17.4,16.4V452h-27.7C581.3,452,580.3,446.5,585.4,446z"/>
				<path style="fill:#CEAD8D;" d="M603.5,452h5.5v-7.6c0,0.5-2.9,1.1-3.9,1.9C603,447.8,603.4,451.1,603.5,452z"/>
				<path style="fill:#E3BE9A;" d="M610.8,446c10.4-1,15.2-1,16.2-2.6v-38.1c0-11.9,10.2-22.3,22.1-22.3H685v-12h20v6.4
					c0,6.8-7,12.6-13.8,12.6h-42.1c-8.6,0-14.1,6.7-14.1,15.3V452h-28C607,452,605.7,446.5,610.8,446z"/>
			</g>
			<g>
				<path style="fill:#8BC4B3;" d="M623,373h40.7c3.2,0,3.2-2.2,3.2-3v0h27v1.4c0,8.8-7.2,16.6-16,16.6H625c-6.6,0-11,4.6-11,11.3
					V433h-15v-33.7C599,385.4,609.1,373,623,373z"/>
				<path style="fill:#7FBEAB;" d="M630.6,378.9l41.6,0c3.2,0,4.7-3.3,4.7-4.1V370h17v1.7c0,8.6-7.4,16.3-16,16.3H625
					c-6.6,0-11,4.6-11,11.3V433h-8v-31.3C606,387.8,616.7,378.9,630.6,378.9z"/>
			</g>
			<g>
				<g>
					<path style="fill:#8FC6B6;" d="M648.4,380h28.5c3.2,0,3.1-1.9,3.1-2.7V370h27v7.4c0,8.8-7,16.6-15.8,16.6h-42.9
						c-6.6,0-9.4,4.7-9.4,11.3V433h-15v-27.7C624,391.4,634.5,380,648.4,380z"/>
					<path style="fill:#7FBEAB;" d="M654.4,383H681c3.2,0,5-2.4,5-5.3V370h21v7.4c0,8.8-7,16.6-15.8,16.6h-42.9
						c-6.6,0-9.4,4.7-9.4,11.3V433h-10v-24.1C629,395,640.5,383,654.4,383z"/>
				</g>
			</g>
		</g>
		<g>
			<g>
				<g>
					<g>
						<g>
							<g>
								<g>
									<path style="fill:#FFBE9A;" d="M675.4,284.8l-0.6,0.8c-1.1,1.3-3.6,2.1-4.9,1l-39.1-17.1c-1.5-1.2-1.6-3.5-0.4-5
										c1.3-1.5,3.5-1.8,5-0.5l39.1,17.1C675.7,282.1,676.4,283.6,675.4,284.8z"/>
								</g>
							</g>
						</g>
						<g>
							<path style="fill:#FFBE9A;" d="M630.1,266.2c-1-1.7-0.5-3.8,1.2-4.8l37.4-23.9l3.6,6l-37.4,23.9
								C633.2,268.4,631.1,267.9,630.1,266.2z"/>
						</g>
					</g>
				</g>
			</g>
			<path style="fill:#99CBBC;" d="M673.5,276.4l-18.1-6.1l-4.4,11.9l17.1,7.8h0l0.4,0.2l0-0.1c0.7,0.3,1.6,0.5,2.5,0.6
				c4,0.2,7.4-2.9,7.6-6.9C678.8,280.4,676.6,277.4,673.5,276.4z"/>
		</g>
		<g>
			<g>
				<g>
					<g>
						<g>
							<g>
								<path style="fill:#B4D9CE;" d="M668.8,278.3c1.4-9.2,9.4-16.3,19-16.3c10,0,20.6,7.6,21.6,17.4c0.1,0.4,0.1,0.8,0.1,1.2
									l-0.5,98.6c0,1.6-1.3,3.3-2.9,3.3l-36.7-12.1c-1.6,0-2.9-1.7-2.9-3.3l1.9-86.4C668.5,280,668.6,279,668.8,278.3z"/>
							</g>
						</g>
					</g>
				</g>
			</g>
		</g>
		<path style="fill:#96CABA;" d="M708.4,279.4c-0.9-9.7-11.5-17.3-21.4-17.4v114.6l18.2,6c1.6,0,2.9-1.7,2.9-3.3l0.5-98.6
			C708.5,280.2,708.5,279.8,708.4,279.4z"/>
		<g>
			<defs>
				<path id="SVGID_1_" d="M668.8,278.3c1.4-9.2,9.4-16.3,19-16.3c10,0,20.6,7.6,21.6,17.4c0.1,0.4,0.1,0.8,0.1,1.2l-0.5,98.6
					c0,1.6-1.3,3.3-2.9,3.3l-36.7-12.1c-1.6,0-2.9-1.7-2.9-3.3l1.9-86.4C668.5,280,668.6,279,668.8,278.3z"/>
			</defs>
			<clipPath id="SVGID_2_">
				<use xlink:href="#SVGID_1_"  style="overflow:visible;"/>
			</clipPath>
			<g style="clip-path:url(#SVGID_2_);">
				
					<line style="fill:#8BC4B3;stroke:#CDE3D8;stroke-width:2.2705;stroke-miterlimit:10;" x1="684" y1="269.8" x2="683.2" y2="384.1"/>
				
					<line style="fill:#8BC4B3;stroke:#CDE3D8;stroke-width:2.2705;stroke-miterlimit:10;" x1="677.9" y1="263.7" x2="677.1" y2="378"/>
				
					<line style="fill:#8BC4B3;stroke:#CDE3D8;stroke-width:2.2705;stroke-miterlimit:10;" x1="671.9" y1="259.2" x2="671.1" y2="373.5"/>
				<line style="fill:none;stroke:#B5D9C7;stroke-width:2.2705;stroke-miterlimit:10;" x1="692.3" y1="269.8" x2="693" y2="384.1"/>
				
					<line style="fill:none;stroke:#B5D9C7;stroke-width:2.2705;stroke-miterlimit:10;" x1="698.3" y1="263.7" x2="699.6" y2="387.2"/>
				
					<line style="fill:none;stroke:#B5D9C7;stroke-width:2.2705;stroke-miterlimit:10;" x1="704.4" y1="259.2" x2="705.3" y2="387.7"/>
			</g>
		</g>
		<g>
			<line style="opacity:0.5;fill:none;stroke:#9FD1C9;stroke-miterlimit:10;" x1="687.5" y1="277" x2="687.5" y2="376"/>
			<circle style="fill:#5397B2;" cx="690.5" cy="299.7" r="1.6"/>
			<circle style="fill:#5397B2;" cx="690.5" cy="317.4" r="1.6"/>
			<circle style="fill:#5397B2;" cx="690.5" cy="335.1" r="1.6"/>
			<circle style="fill:#5397B2;" cx="690.5" cy="352.7" r="1.6"/>
		</g>
		<g>
			<path style="fill:#5397B2;" d="M687.6,280.4c6.5,0,12.2-8,13.6-14.1c0,0,2.4-6.3-13.6-6.3c-17,0-13.3,7.6-13.3,7.6
				C676.1,273.1,681.4,280.4,687.6,280.4L687.6,280.4z"/>
			<path style="fill:#FFBE9A;" d="M676.2,266.9c3.2-2.6,7.2-4.2,11.7-4.2c3.8,0,9.3,1.2,12.6,3.2c-0.6,2.7-2.5,5.1-5,6.7l-7.7,11.9
				l-8-12.2C678.1,270.9,676.8,269,676.2,266.9z"/>
			<g>
				<path style="fill:#99CBBC;" d="M677.5,267.9c-0.7-0.5-1.3-1.1-1.4-1.6c-1.2-4.8,7.5-6.4,1.9-5.5c-8.4,1.3-10.3,10.2-10.3,10.2
					l8.3,0.4l-2.2,5.4c0,0,10.8,3.3,13.8,7.4C685.4,275.6,679.7,269.8,677.5,267.9z"/>
			</g>
			<path style="fill:#DFB48A;" d="M688,262.7c5,0.1,9.1,1.2,12.4,3.2c-0.6,2.7-2.5,5.1-5,6.7L688,284V262.7z"/>
			<g>
				<path style="fill:#7FBEAB;" d="M698.1,267.9c0.7-0.5,1.3-1.1,1.4-1.6c1.2-4.8-7.4-6.1-1.8-5.3c8.4,1.2,10.2,9.9,10.2,9.9
					l-8.3,1.9l2.2,3.9c0,0-10.8,3.3-13.9,7.3C690.2,275.6,696,269.8,698.1,267.9z"/>
			</g>
		</g>
		<g>
			<g>
				<g>
					<g>
						<path style="fill:#E3BE9A;" d="M674.6,225.6L674.6,225.6c-1-0.1-1.8,0.6-1.9,1.5l-1.1,8l-6.9-0.7l0.9-6.4
							c0.1-1-0.6-1.8-1.5-1.9l0,0c-1-0.1-1.3,0.7-1.4,1.6l-0.7,7.3l-0.4,4.3c-0.3,3,1.3,5.6,4.3,5.9l3.1,0.3c3,0.3,5.7-1.9,6-4.8
							l0.4-4.3l0,0l0.9-8.9C676.2,226.5,675.5,225.7,674.6,225.6z"/>
					</g>
					<g>
						<path style="fill:#E3BE9A;" d="M671.2,223.1L671.2,223.1c0.8,0.1,1.4,0.8,1.3,1.6l-1.1,10.5l-2.9-0.3l1.1-10.5
							C669.7,223.6,670.4,223,671.2,223.1z"/>
					</g>
					<g>
						<path style="fill:#E3BE9A;" d="M667.8,223L667.8,223c0.8,0.1,1.4,0.8,1.3,1.6l-1.1,10.5l-2.9-0.3l1.1-10.5
							C666.3,223.5,667,223,667.8,223z"/>
					</g>
				</g>
			</g>
			<g>
				<g>
					<g>
						<g>
							<path style="fill:#E3BE9A;" d="M679.7,236.2l-0.3,3c-0.1,1-0.6,1.9-1.4,2.6l-2.2,1.8c-0.9,0.8-2.1,1.1-3.3,1l-2.9-0.3
								l0.1-0.6c0.2-1.8,1.1-3.4,2.4-4.5l0.2-0.1c0.7-0.6,1.6-0.9,2.5-0.8l1.6,0.2l0.3-2.6c0.1-0.8,0.8-1.4,1.6-1.3l0,0
								C679.2,234.7,679.8,235.4,679.7,236.2z"/>
						</g>
					</g>
				</g>
			</g>
		</g>
		<g>
			<g>
				<g>
					<path style="fill:#FFBE9A;" d="M692.3,252.5l0,10.4c0,2.7-2.2,4.9-4.9,4.9c-2.7,0-4.9-2.2-4.9-4.9l0-10.4L692.3,252.5z"/>
					<path style="fill:#CEAD8D;" d="M692.3,252.5l0,10.4c0,2.7-2.2,4.9-4.9,4.9l0-15.3L692.3,252.5z"/>
				</g>
				<g>
					<g>
						<g>
							<g>
								<g>
									<path style="fill:#FFBE9A;" d="M703.2,208.6l-30.9,0l0,32.1c0,8.5,6.9,15.4,15.5,15.4c8.5,0,15.4-6.9,15.4-15.5
										L703.2,208.6z"/>
								</g>
							</g>
							<path style="fill:#E3BE9A;" d="M703.2,208.6l0.1,32.1c0,8.5-6.9,15.4-15.4,15.5l-0.1-47.6L703.2,208.6z"/>
						</g>
					</g>
					<path style="fill:#FFBE9A;" d="M681,227.1c0,1.4,1.5,2.9,2.9,2.9h6.2c1.4,0,2.9-1.5,2.9-2.9v-1.6c0-1.4-1.5-2.5-2.9-2.5h-6.2
						c-1.4,0-2.9,1-2.9,2.5V227.1z"/>
				</g>
				<path style="fill:#4C4452;" d="M658.9,198.7c0-7.3,7-11.7,12.1-11.7c2.5,0,4.8,0,4.8,0s1.4-2.4,2.5-3.3c4-3.5,10.3-3.2,13.9,0.8
					c0.8,0.9,1.5,1.9,1.9,3.1c0.2,0.5,0.4,2.4,0.8,2.4c1.6,0,3.2,0,4.8,0c1.8,0,3.5,0.1,5.2,0.8c2.3,1,4.2,2.8,5.3,5.1
					c2.3,5,0.3,11.1-4.7,13.4c-0.5,0.2-0.6,0.1-0.6,0.6c0,0.4,0,0.9,0,1.3c0,1.5-0.3,3-0.3,4.6c0,3.4-0.2,6.9-0.2,10.3
					c0,0.6-0.1,1.2-0.1,1.8c0,0.1-2,0-2.1,0c-2.5,0-5,0-7.5,0c-4.3,0-8.4-2.1-10.9-5.6c-1.2-1.7-2-3.8-2.3-5.9
					c-0.2-1.3-0.2-2.6,0-3.9c0.1-0.6,0.3-1.3,0.4-1.9c0.1-0.4,0.2-0.7,0.4-1.1c-0.1-0.3-0.7-0.6-0.8-0.8c-1.6,4.3-4.9,6-9.2,6
					c0,0.1,0,8.5,0,8.5c-4.4-0.2-7.3-3.7-7.5-7.9c0-1.3,0.5-2.6,1-3.8C666.2,210.8,658.9,209.7,658.9,198.7z"/>
				<path style="fill:#3C3541;" d="M694.5,189.9l6.5,0c5.6,0,10.5,4.6,10.5,10.1c0,4.4-4.4,8.1-6.4,9.5v0.1
					c8,0.5,12.4,6.7,12.4,14.2c0,7.9-5.1,14.2-13.8,14.2l-0.2-2.6c0-1.5-0.1-2-0.1-2.5c0-3.4-1.8-4.4-7.2-4.4
					c-6.3,0-8.1-2.5-11.1-4.8v-42.5C690,181.6,693.9,185.2,694.5,189.9z"/>
			</g>
			
				<ellipse transform="matrix(-0.9948 0.1014 -0.1014 -0.9948 1375.6984 412.9163)" style="fill:#F5E5E5;" cx="677.4" cy="241.4" rx="3.2" ry="4.7"/>
			<path style="fill:#4C4452;" d="M676.7,228c0-1,0-0.5,0-0.6c0-1,0.8-1.9,1.7-1.9c0.9,0,1.7,1,1.7,1.9c0,0.1,0-0.4,0,0.6H676.7z"/>
		</g>
	</g>
</g>
<g id="Cama_Adelante">
	<g>
		<g>
			<path style="fill:#6C5636;" d="M743.5,381.7h-50.4c-6.9,0-12.5,5.6-12.5,12.5v40h6v-13.3h58.7v6.1c0,4,3.2,7.2,7.2,7.2h3.4v-40
				C756,387.3,750.4,381.7,743.5,381.7z"/>
		</g>
		<g>
			<g>
				<path style="fill:#897558;" d="M744,381.7h-45.6c-6.9,0-12.5,5.6-12.5,12.5v40h0.1c3.3,0,6-2.7,6-5.9v-7.3h59.3v8
					c0,2.9,2.4,5.2,5.3,5.2h0.1v-40C756.5,387.3,750.9,381.7,744,381.7z"/>
			</g>
		</g>
	</g>
</g>
<g id="Brazo_Lousteau">
	<g>
		<g>
			<g>
				<g>
					<g>
						<g>
							<g>
								<g>
									<path style="fill:#E3BE9A;" d="M708.2,279.1l1,0.1c1.7,0.1,3.8,1.7,3.7,3.3l9.5,41.6c-0.1,1.9-1.9,3.4-3.8,3.3
										c-1.9-0.1-3.5-1.8-3.4-3.7l-9.5-41.6C705.8,280.5,706.5,279,708.2,279.1z"/>
								</g>
							</g>
						</g>
						<g>
							<path style="fill:#E3BE9A;" d="M719.3,322.2c1.9,0.2,3.4,1.9,3.2,3.8l-3.3,44.3l-7-0.7l3.3-44.3
								C715.7,323.4,717.4,322,719.3,322.2z"/>
						</g>
					</g>
				</g>
			</g>
			<g>
				<g>
					<g>
						<g>
							<path style="fill:#E3BE9A;" d="M709,387.2L709,387.2c1,0.1,1.8-0.6,1.9-1.6l1-8l6.9,0.7l-0.9,6.4c-0.1,1,0.6,1.8,1.6,1.9l0,0
								c1,0.1,1.3-0.7,1.4-1.6l0.7-7.3l0.4-4.3c0.3-3-1.4-5.6-4.4-5.9l-3.1-0.3c-3-0.3-5.6,1.9-5.9,4.9l-0.4,4.3l0,0l-0.9,8.9
								C707.3,386.3,708,387.1,709,387.2z"/>
						</g>
						<g>
							<path style="fill:#E3BE9A;" d="M712.4,389.7L712.4,389.7c-0.8-0.1-1.4-0.8-1.3-1.6l1-10.5l2.9,0.3l-1,10.5
								C713.8,389.2,713.1,389.7,712.4,389.7z"/>
						</g>
						<g>
							<path style="fill:#E3BE9A;" d="M715.7,389.7L715.7,389.7c-0.8-0.1-1.4-0.8-1.3-1.6l1-10.5l2.9,0.3l-1,10.5
								C717.2,389.2,716.5,389.8,715.7,389.7z"/>
						</g>
					</g>
				</g>
				<g>
					<g>
						<g>
							<g>
								<path style="fill:#E3BE9A;" d="M704.5,376.7l0.3-3.1c0.1-1,0.6-1.9,1.4-2.6l2.1-1.8c0.9-0.8,2.1-1.1,3.3-1l2.9,0.3l-0.1,0.6
									c-0.2,1.8-1,3.4-2.4,4.5l-0.2,0.1c-0.7,0.6-1.6,0.9-2.5,0.8l-1.6-0.2l-0.2,2.6c-0.1,0.8-0.8,1.4-1.6,1.3l0,0
									C705,378.2,704.4,377.5,704.5,376.7z"/>
							</g>
						</g>
					</g>
				</g>
			</g>
		</g>
		<g>
			<path style="fill:#7FBEAB;" d="M702.5,285.6l5.8,18.2l12-3.5l-4-18.4h0l0-0.3l0,0c-0.2-0.8-0.5-1.6-1-2.4
				c-2.2-3.4-6.7-4.3-10.1-2.1C702.6,279.1,701.5,282.5,702.5,285.6z"/>
		</g>
	</g>
</g>
<g id="Mesa_de_Luz">
	<g>
		<g>
			<g>
				<path style="fill:#6C5636;" d="M517.7,399.7v34.5h5v-8h28.3v3.3c0,2.6,2.1,4.7,4.7,4.7h2v-34.5H517.7z"/>
			</g>
			<g>
				<path style="fill:#897558;" d="M521.1,399.7v34.5h0.1c2.8,0,5-2.2,5-5v-3h28.3v4.7c0,1.8,1.5,3.3,3.3,3.3h0v-34.5H521.1z"/>
			</g>
		</g>
		<g>
			<g>
				<path style="fill:#6C5636;" d="M539.5,399.7v34.5h5v-8h28.3v3.9c0,2.2,1.8,4.1,4.1,4.1h2.6v-34.5H539.5z"/>
			</g>
			<g>
				<path style="fill:#927F64;" d="M542.9,399.7v34.5h0c2.8,0,5-2.2,5-5v-3h28.3v4.7c0,1.8,1.5,3.3,3.3,3.3h0v-34.5H542.9z"/>
			</g>
		</g>
		<g>
			<rect x="521.1" y="399.7" style="fill:#735E40;" width="18.4" height="26.5"/>
		</g>
		<g>
			<rect x="547.2" y="404.3" style="fill:#735E40;" width="29" height="17.5"/>
		</g>
		<g>
			<path style="fill:#6C5636;" d="M541,399.7h-23.3c-1.2,0-2.1-1-2.1-2.1v0c0-1.2,1-2.1,2.1-2.1H541V399.7z"/>
		</g>
		<g>
			<path style="fill:#897558;" d="M580.1,399.7h-39.7c-1.2,0-2.1-1-2.1-2.1v0c0-1.2,1-2.1,2.1-2.1h39.7c1.2,0,2.1,1,2.1,2.1v0
				C582.2,398.7,581.3,399.7,580.1,399.7z"/>
		</g>
	</g>
</g>
<g id="Lampara">
	<g>
		<g>
			<g>
				<g>
					<path style="fill:none;" d="M546,350.1C546,350.1,546,350.2,546,350.1C546,350.2,546,350.1,546,350.1z"/>
					<path style="fill:none;" d="M546.5,349.3C546.5,349.3,546.5,349.3,546.5,349.3C546.5,349.3,546.5,349.3,546.5,349.3z"/>
					<path style="fill:none;" d="M539.8,391.3L539.8,391.3L539.8,391.3z"/>
					<path style="fill:none;" d="M546.2,349.7C546.2,349.7,546.2,349.7,546.2,349.7C546.2,349.7,546.2,349.7,546.2,349.7z"/>
					<path style="fill:none;" d="M546.7,348.9C546.7,348.9,546.7,348.9,546.7,348.9C546.7,348.9,546.7,348.9,546.7,348.9z"/>
					<path style="fill:none;" d="M547.8,347.3C547.8,347.3,547.8,347.3,547.8,347.3C547.8,347.3,547.8,347.3,547.8,347.3z"/>
					<path style="fill:none;" d="M548.8,346.3C548.8,346.3,548.8,346.3,548.8,346.3C548.8,346.3,548.8,346.3,548.8,346.3z"/>
					<path style="fill:none;" d="M547,348.5C547,348.5,546.9,348.5,547,348.5C546.9,348.5,547,348.5,547,348.5z"/>
					<path style="fill:none;" d="M548.5,346.6C548.5,346.6,548.5,346.6,548.5,346.6C548.5,346.6,548.5,346.6,548.5,346.6z"/>
					<path style="fill:none;" d="M549.6,345.7C549.6,345.7,549.6,345.7,549.6,345.7C549.6,345.7,549.6,345.7,549.6,345.7z"/>
					<path style="fill:none;" d="M549.2,346C549.2,346,549.2,346,549.2,346C549.2,346,549.2,346,549.2,346z"/>
					<path style="fill:none;" d="M548.2,346.9C548.2,347,548.1,347,548.2,346.9C548.1,347,548.2,347,548.2,346.9z"/>
					<path style="fill:none;" d="M547.2,348.1C547.2,348.1,547.2,348.1,547.2,348.1C547.2,348.1,547.2,348.1,547.2,348.1z"/>
					<path style="fill:#6A7E3C;" d="M542.2,349.3c-0.2-0.4-0.2-0.8,0-1.1c0,0,0,0,0,0c1.1,0.9,2.2,1.7,3.3,2.6c0,0,0,0,0,0.1
						c-0.2,0.3-0.6,0.3-1.1,0.2c-0.4-0.1-0.8-0.3-1.2-0.6C542.7,350.2,542.4,349.7,542.2,349.3z"/>
					<path style="fill:#899C60;" d="M546,350.1c0.1-0.1,0.1-0.3,0.2-0.4c0,0,0,0,0,0c0.1-0.1,0.1-0.3,0.2-0.4c0,0,0,0,0,0
						c0.1-0.1,0.1-0.3,0.2-0.4c0,0,0,0,0,0c0.1-0.1,0.2-0.2,0.2-0.4c0,0,0,0,0-0.1c0.1-0.1,0.2-0.2,0.2-0.3c0,0,0,0,0-0.1
						c0.1-0.1,0.2-0.2,0.3-0.4c0.1-0.1,0.2-0.2,0.3-0.3c0,0,0,0,0-0.1c0.1-0.1,0.2-0.2,0.3-0.3c0,0,0,0,0-0.1
						c0.1-0.1,0.2-0.2,0.3-0.3c0,0,0,0,0,0c0.1-0.1,0.2-0.2,0.3-0.3c0,0,0,0,0,0c0.1-0.1,0.2-0.2,0.3-0.3c0,0,0,0,0,0
						c0.1-0.1,0.2-0.2,0.4-0.3c0,0,0,0,0,0c0.2-0.2,0.5-0.4,0.8-0.5l0,0c3.8-2.4,8.9-2.2,12.6,0.7l-4.5,5.7l0,0l-1,1.3l-8.2,10.3
						c-3.7-3-5-7.9-3.5-12.2C545.8,350.7,545.9,350.4,546,350.1C546,350.2,546,350.1,546,350.1z"/>
					<path style="fill:#899C60;" d="M542.3,348.3c-0.1-0.1-0.2-0.2-0.3-0.3c-3.9-3.1,0.8-8.9,4.6-5.8c1.3,1,2.5,2,3.8,3l0,0
						c-0.3,0.2-0.5,0.3-0.8,0.5c0,0,0,0,0,0c-0.1,0.1-0.2,0.2-0.4,0.3c0,0,0,0,0,0c-0.1,0.1-0.2,0.2-0.3,0.3c0,0,0,0,0,0
						c-0.1,0.1-0.2,0.2-0.3,0.3c0,0,0,0,0,0c-0.1,0.1-0.2,0.2-0.3,0.3c0,0,0,0,0,0.1c-0.1,0.1-0.2,0.2-0.3,0.3c0,0,0,0,0,0.1
						c-0.1,0.1-0.2,0.2-0.3,0.3c-0.1,0.1-0.2,0.2-0.3,0.4c0,0,0,0,0,0.1c-0.1,0.1-0.2,0.2-0.2,0.3c0,0,0,0,0,0.1
						c-0.1,0.1-0.2,0.2-0.2,0.4c0,0,0,0,0,0c-0.1,0.1-0.2,0.3-0.2,0.4c0,0,0,0,0,0c-0.1,0.1-0.1,0.3-0.2,0.4c0,0,0,0,0,0
						c-0.1,0.1-0.1,0.3-0.2,0.4c0,0,0,0,0,0c-0.1,0.3-0.2,0.6-0.3,0.9c0,0,0,0,0,0c-0.1,0-0.1-0.1-0.2-0.1
						C544.5,350,543.4,349.1,542.3,348.3z"/>
					<path style="fill:#F1DEAE;" d="M558.4,351.6C558.4,351.6,558.4,351.6,558.4,351.6c1,0.8,0.7,2.9-0.8,4.7
						c-1.4,1.8-3.4,2.6-4.4,1.8l4.2-5.2L558.4,351.6L558.4,351.6z"/>
				</g>
			</g>
			<g>
				<path style="fill:#AEC5CA;" d="M539.4,361.3l0.3,29.7c-0.1-0.1-0.2-0.1-0.4-0.1l0,0c0,0-0.1,0-0.1,0c0,0,0,0,0,0
					c0,0-0.1,0-0.1,0c0,0,0,0,0,0c0,0-0.1,0-0.1,0c0,0,0,0-0.1,0c0,0,0,0-0.1,0c0,0-0.1,0-0.1,0c0,0-0.1,0-0.1,0c0,0,0,0,0,0
					c0,0-0.1,0-0.1,0c0,0,0,0-0.1,0c0,0-0.1,0-0.1,0c0,0,0,0-0.1,0c0,0-0.1,0-0.1,0c0,0,0,0,0,0c0,0-0.1,0-0.1,0c0,0,0,0,0,0
					c0,0-0.1,0-0.1,0c0,0,0,0,0,0c0,0-0.1,0-0.1,0c0,0,0,0,0,0c0,0-0.1,0-0.1,0c0,0,0,0,0,0c0,0-0.1,0-0.1,0c0,0,0,0,0,0
					c0,0-0.1,0-0.1,0c0,0,0,0,0,0c0,0-0.1,0-0.1,0.1c0,0,0,0,0,0c0,0-0.1,0-0.1,0.1c0,0,0,0,0,0c0,0-0.1,0-0.1,0.1c0,0,0,0,0,0
					c0,0-0.1,0.1-0.1,0.1c0,0,0,0,0,0c0,0-0.1,0.1-0.1,0.1c0,0,0,0,0,0c0,0-0.1,0.1-0.1,0.1l0,0l-0.1-29.4c0.2,0.1,0.5,0.1,0.7,0.1
					C538.1,362.3,538.9,361.9,539.4,361.3z"/>
				<path style="fill:#CAD9DC;" d="M538,362.1c0-0.2,0.9-0.5,1.2-0.8l0.4,29.8c-0.1-0.1-0.2,0-0.3,0h0c0,0-0.1-0.1-0.1-0.1
					c0,0,0,0,0,0c0,0-0.1,0-0.1,0c0,0,0,0,0,0c0,0-0.1,0-0.1,0c0,0,0,0-0.1,0c0,0,0,0-0.1,0c0,0-0.1,0-0.1,0c0,0-0.1,0-0.1,0
					c0,0-0.2,0-0.2,0c0,0-0.2,0-0.2,0V362.1z"/>
			</g>
			<g>
				<path style="fill:#AEC5CA;" d="M537.7,357.3c-0.1,0-0.3,0-0.4,0l4.9-8c0.2,0.4,0.5,0.8,0.9,1.2c0.4,0.3,0.9,0.5,1.2,0.6
					l-4.4,7.4C539.5,357.8,538.7,357.3,537.7,357.3z"/>
				<path style="fill:#CAD9DC;" d="M543.3,350.6c0.4,0.3,0.7,0.4,1.1,0.5l-4.4,7.4c-0.3-0.4-0.6-0.7-1.1-1L543.3,350.6z"/>
			</g>
			<path style="fill:#809159;" d="M537.3,357.3c0.1,0,0.3,0,0.4,0c1,0,1.8,0.5,2.3,1.3c0.3,0.4,0.4,0.9,0.4,1.5
				c0,0.6-0.2,1.2-0.6,1.7c-0.5,0.6-1.3,1-2.2,1c-0.2,0-0.5,0-0.7-0.1c-1.2-0.3-2.1-1.4-2.1-2.7C534.9,358.7,536,357.5,537.3,357.3z
				"/>
			<path style="fill:#899C60;" d="M536.3,390.4C536.3,390.4,536.3,390.4,536.3,390.4C536.3,390.4,536.4,390.3,536.3,390.4
				c0.1-0.1,0.1-0.1,0.1-0.1c0,0,0.1-0.1,0.1-0.1c0,0,0,0,0,0c0,0,0.1,0,0.1-0.1c0,0,0,0,0,0c0,0,0.1,0,0.1-0.1c0,0,0,0,0,0
				c0,0,0.1,0,0.1-0.1c0,0,0,0,0,0c0,0,0.1,0,0.1,0c0,0,0,0,0,0c0,0,0.1,0,0.1,0c0,0,0,0,0,0c0,0,0.1,0,0.1,0c0,0,0,0,0,0
				c0,0,0.1,0,0.1,0c0,0,0,0,0,0c0,0,0.1,0,0.1,0c0,0,0,0,0,0c0,0,0.1,0,0.1,0c0,0,0,0,0.1,0c0,0,0.1,0,0.1,0c0,0,0,0,0.1,0
				c0,0,0.1,0,0.1,0c0,0,0,0,0.1,0c0,0,0.1,0,0.1,0c0,0,0,0,0,0c0,0,0.1,0,0.1,0c0,0,0.1,0,0.1,0c0,0,0,0,0.1,0c0,0,0,0,0.1,0
				c0,0,0.1,0,0.1,0c0,0,0,0,0,0c0,0,0.1,0,0.1,0c0,0,0,0,0,0c0,0,0.1,0,0.1,0l0,0c0.1,0,0.3,0.1,0.4,0.1c1,0.4,1.7,1.4,1.7,2.5
				c0,0.1,0,0.1,0,0.2c4.6,0.6,8,2.4,8,3.4c0,0,0,0-10.8,0c-10.7,0-10.7,0-10.7,0c0-0.9,3.4-2.8,8-3.4c0-0.1,0-0.1,0-0.2
				C535.5,391.6,535.8,391,536.3,390.4C536.2,390.5,536.3,390.4,536.3,390.4z"/>
			<path style="fill:#809159;" d="M535.5,392.6c0-0.1,0-0.1,0-0.2c0-0.7,0.3-1.4,0.7-1.9c0,0,0.1-0.1,0.1-0.1c0,0,0,0,0,0
				c0,0,0.1-0.1,0.1-0.1c0,0,0,0,0,0c0,0,0.1-0.1,0.1-0.1c0,0,0,0,0,0c0,0,0.1,0,0.1-0.1c0,0,0,0,0,0c0,0,0.1,0,0.1-0.1c0,0,0,0,0,0
				c0,0,0.1,0,0.1-0.1c0,0,0,0,0,0c0,0,0.1,0,0.1,0c0,0,0,0,0,0c0,0,0.1,0,0.1,0c0,0,0,0,0,0c0,0,0.1,0,0.1,0c0,0,0,0,0,0
				c0,0,0.1,0,0.1,0c0,0,0,0,0,0c0,0,0.1,0,0.1,0c0,0,0,0,0,0c0,0,0.1,0,0.1,0c0,0,0,0,0.1,0c0,0,0.1,0,0.1,0c0,0,0,0,0.1,0
				c0,0,0.1,0,0.1,0c0,0,0,0,0.1,0c0,0,0.1,0,0.1,0c0,0,0,0,0,0c0,0-0.1,0,0,0c0,0-0.1,0-0.1,0v6.4c0,0,0.3,0,0.2,0
				c-10.7,0-10.7,0-10.7,0C527.5,395,530.9,393.2,535.5,392.6z"/>
			<path style="fill:#899C60;" d="M537,357.3c0,0,0.4,0,0.4,0c1,0,2,0.5,2.5,1.3c0.3,0.4,0.5,0.9,0.5,1.5c0,0.6-0.2,1.2-0.6,1.7
				c-0.5,0.6-1.6,1-2.5,1l-0.3,0V357.3z"/>
			<path style="fill:#809159;" d="M545.7,351c0.1-0.3,0.2-0.6,0.3-0.9l0,0c0.1-0.1,0.1-0.3,0.2-0.4c0,0,0,0,0,0
				c0.1-0.1,0.1-0.3,0.2-0.4c0,0,0,0,0,0c0.1-0.1,0.1-0.3,0.2-0.4c0,0,0,0,0,0c0.1-0.1,0.2-0.2,0.2-0.4c0,0,0,0,0-0.1
				c0.1-0.1,0.2-0.2,0.2-0.3c0,0,0,0,0-0.1c0,0,0.1-0.1,0.1-0.1l8.6,6.8l-6.7,8.4C545.5,360.2,544.2,355.3,545.7,351z"/>
			<path style="fill:#788A4F;" d="M541.9,348c-1.5-1.2-1.7-2.7-1.3-4c0.5,0.2,1.1,0.5,1.6,1c1.5,1.2,3,2.4,4.6,3.6
				c-0.1,0.1-0.1,0.2-0.2,0.3c0,0,0,0,0,0c-0.1,0.1-0.2,0.3-0.2,0.4c0,0,0,0,0,0c-0.1,0.1-0.1,0.3-0.2,0.4c0,0,0,0,0,0
				c-0.1,0.1-0.1,0.3-0.2,0.4c0,0,0.1,0,0.1,0c-0.1,0.3-0.2,0.6-0.2,0.9c0,0,0,0,0,0c0,0-0.2-0.1-0.3-0.1c-1.1-0.9-2.3-1.7-3.4-2.6
				C542.2,348.2,542,348.1,541.9,348z"/>
		</g>
	</g>
</g>
<g id="Despertador">
	<g>
		<g>
			<g>
				<path style="fill:#899C60;" d="M560.7,381.1c0,0.4,0.3,0.8,0.8,0.8h2c0.4,0,0.8-0.3,0.8-0.8v-1.5c0-0.4-0.3-0.8-0.8-0.8h-2
					c-0.4,0-0.8,0.3-0.8,0.8V381.1z"/>
				<path style="fill:#CC656F;" d="M554.5,392.4c0,4.1,3.6,3.8,8,3.8s8,0.4,8-3.8c0-4.1,0-12.4-8-12.4
					C554.4,380,554.5,388.2,554.5,392.4z"/>
				<path style="fill:#EE959B;" d="M562,380c0,0,0.2,0,0.3,0c8,0,8.1,8.2,8.1,12.3s-3.5,3.7-7.9,3.7c0,0-0.4,0-0.4,0V380z"/>
			</g>
			<g>
				<circle style="fill:#809159;" cx="562.4" cy="387.5" r="6.5"/>
				<g>
					<defs>
						<circle id="SVGID_3_" cx="562.4" cy="387.4" r="5.8"/>
					</defs>
					<clipPath id="SVGID_4_">
						<use xlink:href="#SVGID_3_"  style="overflow:visible;"/>
					</clipPath>
					<rect x="552.5" y="377" style="clip-path:url(#SVGID_4_);fill:#E2D4D5;" width="22.1" height="10.4"/>
					<rect x="551" y="387.4" style="clip-path:url(#SVGID_4_);fill:#F5E5E5;" width="28.6" height="9.7"/>
				</g>
				<g>
					<g>
						<circle style="fill:#3C3541;" cx="562.4" cy="382.2" r="0.3"/>
						<circle style="fill:#3C3541;" cx="557.5" cy="387.4" r="0.3"/>
						<circle style="fill:#3C3541;" cx="567.4" cy="387.4" r="0.3"/>
						<circle style="fill:#3C3541;" cx="558.1" cy="385" r="0.2"/>
						<circle style="fill:#3C3541;" cx="566.8" cy="385" r="0.2"/>
						<circle style="fill:#3C3541;" cx="560" cy="383.1" r="0.2"/>
						<circle style="fill:#3C3541;" cx="564.9" cy="383.1" r="0.2"/>
					</g>
					<g>
						<circle style="fill:#3C3541;" cx="562.4" cy="392.5" r="0.3"/>
						<circle style="fill:#3C3541;" cx="566.8" cy="389.8" r="0.2"/>
						<circle style="fill:#3C3541;" cx="558.1" cy="389.8" r="0.2"/>
						<circle style="fill:#3C3541;" cx="564.9" cy="391.7" r="0.2"/>
						<circle style="fill:#3C3541;" cx="560" cy="391.7" r="0.2"/>
					</g>
				</g>
			</g>
		</g>
		<g>
			<line style="fill:none;stroke:#809159;stroke-width:0.8;stroke-miterlimit:10;" x1="562.4" y1="387.4" x2="564.9" y2="388.8"/>
			<line style="fill:none;stroke:#809159;stroke-width:0.8;stroke-miterlimit:10;" x1="562.4" y1="387.4" x2="562.4" y2="383.1"/>
			<g>
				<circle style="fill:#809159;" cx="562.4" cy="387.4" r="0.8"/>
				<circle style="fill:#F5E5E5;" cx="562.4" cy="387.4" r="0.3"/>
			</g>
		</g>
	</g>
</g>
<g id="Ventana">
	<g>
		<rect x="743.2" y="222" style="fill:#BCD9CB;" width="63.2" height="89.6"/>
		<g>
			<g>
				<g>
					<g>
						<path style="fill:#F0BD93;" d="M803.4,225v22c-2.6,1.3-5.5,2.1-8.6,2.1c-10.5,0-19-8.5-19-18.9c0-1.8,0.2-3.5,0.7-5.1H803.4z"
							/>
					</g>
				</g>
				<g>
					<polygon style="fill:#CDE3D8;" points="803,270.3 785.8,270.3 785.8,253.4 772.3,253.4 772.3,265.1 760.6,265.1 760.6,238.3 
						752.3,238.3 752.3,272.3 745.8,272.3 745.8,310.9 803,310.9 					"/>
				</g>
				<g>
					<polygon style="fill:#DBEBE3;" points="789,284.1 776.8,284.1 776.8,295.4 758.3,295.4 758.3,305.3 747.6,305.3 747.6,311.5 
						803,311.5 803,300.1 794.8,300.1 794.8,290.8 789,290.8 					"/>
				</g>
				<g>
					<path style="fill:#968670;" d="M741.3,220.4v95h66.2v-95H741.3z M803,310.9h-26.5v-31.6H803V310.9z M745.8,279.3h26.4v31.6
						h-26.4V279.3z M745.8,224.9H803v49.8h-26.5V225h-4.3v49.7h-26.4V224.9z"/>
				</g>
			</g>
		</g>
	</g>
</g>
<g id="Miscelaneas">
	<g>
		<g>
			<g>
				<rect x="553.7" y="629.5" style="fill:#569EC6;" width="17.9" height="2.7"/>
				<rect x="709.8" y="629.5" style="fill:#569EC6;" width="17.9" height="2.7"/>
			</g>
		</g>
	</g>
</g>
<g id="Titular">
	<g>
		<g>
			
				<text transform="matrix(1 0 0 1 579.6641 636.4922)" style="fill:#968670; font-family:'NeoSansStd-Medium'; font-size:15.6813;">DURANTE EL DÍA</text>
		</g>
		<g>
			<text transform="matrix(1 0 0 1 527.8496 616.437)" style="fill:#72ADC8; font-family:'NeoSansStd-Black'; font-size:35.9599;">BEBER AGUA</text>
		</g>
	</g>
</g>
</svg>
