<?xml version="1.0" encoding="utf-8"?>
<!-- Generator: Adobe Illustrator 16.0.0, SVG Export Plug-In . SVG Version: 6.00 Build 0)  -->
<!DOCTYPE svg PUBLIC "-//W3C//DTD SVG 1.1//EN" "http://www.w3.org/Graphics/SVG/1.1/DTD/svg11.dtd">
<svg version="1.1" xmlns="http://www.w3.org/2000/svg" xmlns:xlink="http://www.w3.org/1999/xlink" x="0px" y="0px" width="1280px"
	 height="700px" viewBox="0 0 1280 700" style="enable-background:new 0 0 1280 700;" xml:space="preserve">
<g id="Contenedor_Reloj_Vasos">
	<g>
		<path style="opacity:0.1;fill:#E3BE9A;" d="M314.2,144.9c0-17.6-14.3-31.9-31.9-31.9s-31.9,14.3-31.9,31.9
			c0,10.3,4.9,19.5,12.6,25.3v347.2c0,8.9,8.5,16.1,17.4,16.1h6.5c8.9,0,15.8-7.2,15.8-16.1v-348
			C309.7,163.6,314.2,154.8,314.2,144.9z"/>
		<path style="opacity:0.25;fill:#E3BE9A;" d="M265,519.5V172.2c-0.7-0.5-1.4-1.1-2-1.7v346.9c0,4.7,2.3,8.8,5.8,11.8
			C266.4,526.5,265,523.1,265,519.5z"/>
		<path style="opacity:0.25;fill:#E3BE9A;" d="M252.4,146.9c0-17.6,14.3-31.9,31.9-31.9c8.3,0,15.8,3.2,21.5,8.4
			C300,117,291.6,113,282.3,113c-17.6,0-31.9,14.3-31.9,31.9c0,9.3,4,17.6,10.3,23.5C255.6,162.7,252.4,155.2,252.4,146.9z"/>
		<g style="opacity:0.1;">
			<path style="opacity:0.5;fill:#E3BE9A;" d="M301,516c0,8.9-7.2,16-15.8,16H279c-8.6,0-16-7.1-16-16v1.5c0,8.9,8,16.5,17,16.5h6.5
				c8.9,0,16.5-7.6,16.5-16.5v-348c0,0,0.1-0.1,0.1-0.1l-2.1-0.1V516z"/>
			<path style="opacity:0.5;fill:#E3BE9A;" d="M314.2,144.9c0-17.6-14.6-31.9-32.2-31.9c-0.2,0-0.4,0-0.6,0
				c16.7,0.3,30.4,14.4,30.4,31.8c0,9.9-3.8,18.7-10.8,24.5v0l2.1,0.1C310,163.5,314.2,154.7,314.2,144.9z"/>
		</g>
	</g>
</g>
<g id="Vasos_Vacios">
	<g id="_x30_1_2_">
		<g>
			<g>
				<g>
					<path style="fill:#F5E5E5;" d="M291.3,386.8h-15.9c-0.1,0-0.2-0.1-0.2-0.2l-2-29.1c0-0.1,0.1-0.2,0.2-0.2c0.1,0,19.7,0,19.8,0
						c0.1,0,0.2,0.1,0.2,0.2l-1.9,29.2C291.5,386.8,291.4,386.8,291.3,386.8z"/>
				</g>
			</g>
		</g>
		<path style="opacity:0.25;fill:#F5E5E5;" d="M274.8,362l1.3,19.8c0.1,1.2,0.9,2.2,1.8,2.2h9.4c0.9,0,1.7-1,1.8-2.2l1.3-19.8H274.8
			z"/>
		<path style="opacity:0.4;fill:#C9DEE1;" d="M282,358.7c-3,0-6.7,0-6.7,0c-0.1,0-1.1,0-1.1,1.5l1.3,25.1c0,0.1,6.6,0,6.6,0V358.7z"
			/>
	</g>
	<g id="_x30_2_2_">
		<g>
			<g>
				<g>
					<path style="fill:#F5E5E5;" d="M291.3,343.8h-15.9c-0.1,0-0.2-0.1-0.2-0.2l-2-29.1c0-0.1,0.1-0.2,0.2-0.2c0.1,0,19.7,0,19.8,0
						c0.1,0,0.2,0.1,0.2,0.2l-1.9,29.2C291.5,343.8,291.4,343.8,291.3,343.8z"/>
				</g>
			</g>
		</g>
		<path style="opacity:0.25;fill:#F5E5E5;" d="M274.8,319l1.3,19.8c0.1,1.2,0.9,2.2,1.8,2.2h9.4c0.9,0,1.7-1,1.8-2.2l1.3-19.8H274.8
			z"/>
		<path style="opacity:0.4;fill:#C9DEE1;" d="M282,315.7c-3,0-6.7,0-6.7,0c-0.1,0-1.1,0-1.1,1.5l1.3,25.1c0,0.1,6.6,0,6.6,0V315.7z"
			/>
	</g>
	<g id="_x30_3_2_">
		<g>
			<g>
				<g>
					<path style="fill:#F5E5E5;" d="M291.3,301.8h-15.9c-0.1,0-0.2-0.1-0.2-0.2l-2-29.1c0-0.1,0.1-0.2,0.2-0.2c0.1,0,19.7,0,19.8,0
						c0.1,0,0.2,0.1,0.2,0.2l-1.9,29.2C291.5,301.8,291.4,301.8,291.3,301.8z"/>
				</g>
			</g>
		</g>
		<path style="opacity:0.25;fill:#F5E5E5;" d="M274.8,277l1.3,19.8c0.1,1.2,0.9,2.2,1.8,2.2h9.4c0.9,0,1.7-1,1.8-2.2l1.3-19.8H274.8
			z"/>
		<path style="opacity:0.4;fill:#C9DEE1;" d="M282,273.7c-3,0-6.7,0-6.7,0c-0.1,0-1.1,0-1.1,1.5l1.3,25.1c0,0.1,6.6,0,6.6,0V273.7z"
			/>
	</g>
	<g id="_x30_4_2_">
		<g>
			<g>
				<g>
					<path style="fill:#F5E5E5;" d="M291.3,258.4h-15.9c-0.1,0-0.2-0.1-0.2-0.2l-2-29.1c0-0.1,0.1-0.2,0.2-0.2c0.1,0,19.7,0,19.8,0
						c0.1,0,0.2,0.1,0.2,0.2l-1.9,29.2C291.5,258.3,291.4,258.4,291.3,258.4z"/>
				</g>
			</g>
		</g>
		<path style="opacity:0.25;fill:#F5E5E5;" d="M274.8,234l1.3,19.8c0.1,1.2,0.9,2.2,1.8,2.2h9.4c0.9,0,1.7-1,1.8-2.2l1.3-19.8H274.8
			z"/>
		<path style="opacity:0.4;fill:#C9DEE1;" d="M282,230.2c-3,0-6.7,0-6.7,0c-0.1,0-1.1,0-1.1,1.5l1.3,25.1c0,0.1,6.6,0,6.6,0V230.2z"
			/>
	</g>
	<g id="_x30_5_1_">
		<g>
			<g>
				<g>
					<path style="fill:#F5E5E5;" d="M291.3,216.4h-15.9c-0.1,0-0.2-0.1-0.2-0.2l-2-29.1c0-0.1,0.1-0.2,0.2-0.2c0.1,0,19.7,0,19.8,0
						c0.1,0,0.2,0.1,0.2,0.2l-1.9,29.2C291.5,216.3,291.4,216.4,291.3,216.4z"/>
				</g>
			</g>
		</g>
		<path style="opacity:0.25;fill:#F5E5E5;" d="M274.8,192l1.3,19.8c0.1,1.2,0.9,2.2,1.8,2.2h9.4c0.9,0,1.7-1,1.8-2.2l1.3-19.8H274.8
			z"/>
		<path style="opacity:0.4;fill:#C9DEE1;" d="M282,188.2c-3,0-6.7,0-6.7,0c-0.1,0-1.1,0-1.1,1.5l1.3,25.1c0,0.1,6.6,0,6.6,0V188.2z"
			/>
	</g>
	<g id="_x30_6_1_">
		<g>
			<g>
				<g>
					<path style="fill:#F5E5E5;" d="M291.3,428.5h-15.9c-0.1,0-0.2-0.1-0.2-0.2l-2-29.1c0-0.1,0.1-0.2,0.2-0.2c0.1,0,19.7,0,19.8,0
						c0.1,0,0.2,0.1,0.2,0.2l-1.9,29.2C291.5,428.5,291.4,428.5,291.3,428.5z"/>
				</g>
			</g>
		</g>
		<path style="opacity:0.25;fill:#F5E5E5;" d="M274.8,405l1.3,18.8c0.1,1.2,0.9,1.2,1.8,1.2h9.4c0.9,0,1.7,0,1.8-1.2l1.3-18.8H274.8
			z"/>
		<path style="opacity:0.4;fill:#C9DEE1;" d="M282,400.4c-3,0-6.7,0-6.7,0c-0.1,0-1.1,0-1.1,1.5l1.3,25.1c0,0.1,6.6,0,6.6,0V400.4z"
			/>
	</g>
	<g id="_x30_7_1_">
		<g>
			<g>
				<g>
					<path style="fill:#F5E5E5;" d="M291.3,471.6h-15.9c-0.1,0-0.2-0.1-0.2-0.2l-2-29.2c0-0.1,0.1-0.2,0.2-0.2c0.1,0,19.7,0,19.8,0
						c0.1,0,0.2,0.1,0.2,0.2l-1.9,29.2C291.5,471.6,291.4,471.6,291.3,471.6z"/>
				</g>
			</g>
		</g>
		<path style="opacity:0.25;fill:#F5E5E5;" d="M274.8,448l1.3,19.3c0.1,1.2,0.9,1.7,1.8,1.7h9.4c0.9,0,1.7-0.5,1.8-1.7l1.3-19.3
			H274.8z"/>
		<path style="opacity:0.4;fill:#C9DEE1;" d="M282,443.5c-3,0-6.7,0-6.7,0c-0.1,0-1.1,0-1.1,1.5l1.3,25.1c0,0.1,6.6,0,6.6,0V443.5z"
			/>
	</g>
	<g id="_x30_8_1_">
		<g>
			<g>
				<g>
					<path style="fill:#F5E5E5;" d="M291.3,513.3h-15.9c-0.1,0-0.2-0.1-0.2-0.2l-2-29.2c0-0.1,0.1-0.2,0.2-0.2c0.1,0,19.7,0,19.8,0
						c0.1,0,0.2,0.1,0.2,0.2l-1.9,29.2C291.5,513.3,291.4,513.3,291.3,513.3z"/>
				</g>
			</g>
		</g>
		<path style="opacity:0.25;fill:#F5E5E5;" d="M274.8,489l1.3,19.3c0.1,1.2,0.9,1.7,1.8,1.7h9.4c0.9,0,1.7-0.5,1.8-1.7l1.3-19.3
			H274.8z"/>
		<path style="opacity:0.4;fill:#C9DEE1;" d="M282,485.2c-3,0-6.7,0-6.7,0c-0.1,0-1.1,0-1.1,1.5l1.3,25.1c0,0.1,6.6,0,6.6,0V485.2z"
			/>
	</g>
</g>
<g id="Vasos_Llenandose">
	<g id="_x30_1_1_">
		<g>
			<g>
				<g>
					<path style="fill:#F5E5E5;" d="M291.3,216.4h-15.9c-0.1,0-0.2-0.1-0.2-0.2l-2-29.1c0-0.1,0.1-0.2,0.2-0.2c0.1,0,19.7,0,19.8,0
						c0.1,0,0.2,0.1,0.2,0.2l-1.9,29.2C291.5,216.3,291.4,216.4,291.3,216.4z"/>
				</g>
			</g>
		</g>
		<path style="fill:#72ADC8;" d="M275.7,206l0.5,5.6c0.1,1.2,0.9,2.4,1.8,2.4h9.4c0.9,0,1.7-1.3,1.8-2.4l0.6-5.6H275.7z"/>
		<path style="opacity:0.4;fill:#C9DEE1;" d="M282,188.2c-3,0-6.7,0-6.7,0c-0.1,0-1.1,0-1.1,1.5l1.3,25.1c0,0.1,6.6,0,6.6,0V188.2z"
			/>
	</g>
	<g id="_x30_2_1_">
		<g>
			<g>
				<g>
					<path style="fill:#F5E5E5;" d="M291.3,258.4h-15.9c-0.1,0-0.2-0.1-0.2-0.2l-2-29.1c0-0.1,0.1-0.2,0.2-0.2c0.1,0,19.7,0,19.8,0
						c0.1,0,0.2,0.1,0.2,0.2l-1.9,29.2C291.5,258.3,291.4,258.4,291.3,258.4z"/>
				</g>
			</g>
		</g>
		<path style="fill:#72ADC8;" d="M275.7,248l0.5,5.6c0.1,1.2,0.9,2.4,1.8,2.4h9.4c0.9,0,1.7-1.3,1.8-2.4l0.6-5.6H275.7z"/>
		<path style="opacity:0.4;fill:#C9DEE1;" d="M282,230.2c-3,0-6.7,0-6.7,0c-0.1,0-1.1,0-1.1,1.5l1.3,25.1c0,0.1,6.6,0,6.6,0V230.2z"
			/>
	</g>
	<g id="_x30_3_1_">
		<g>
			<g>
				<g>
					<path style="fill:#F5E5E5;" d="M291.3,301.7h-15.9c-0.1,0-0.2-0.1-0.2-0.2l-2-29.1c0-0.1,0.1-0.2,0.2-0.2c0.1,0,19.7,0,19.8,0
						c0.1,0,0.2,0.1,0.2,0.2l-1.9,29.2C291.5,301.7,291.4,301.7,291.3,301.7z"/>
				</g>
			</g>
		</g>
		<path style="fill:#72ADC8;" d="M275.7,291l0.5,5.6c0.1,1.2,0.9,2.4,1.8,2.4h9.4c0.9,0,1.7-1.3,1.8-2.4l0.6-5.6H275.7z"/>
		<path style="opacity:0.4;fill:#C9DEE1;" d="M282,273.6c-3,0-6.7,0-6.7,0c-0.1,0-1.1,0-1.1,1.5l1.3,25.1c0,0.1,6.6,0,6.6,0V273.6z"
			/>
	</g>
	<g id="_x30_4_1_">
		<g>
			<g>
				<g>
					<path style="fill:#F5E5E5;" d="M291.3,343.7h-15.9c-0.1,0-0.2-0.1-0.2-0.2l-2-29.1c0-0.1,0.1-0.2,0.2-0.2c0.1,0,19.7,0,19.8,0
						c0.1,0,0.2,0.1,0.2,0.2l-1.9,29.2C291.5,343.7,291.4,343.7,291.3,343.7z"/>
				</g>
			</g>
		</g>
		<path style="fill:#72ADC8;" d="M275.7,333l0.5,5.6c0.1,1.2,0.9,2.4,1.8,2.4h9.4c0.9,0,1.7-1.3,1.8-2.4l0.6-5.6H275.7z"/>
		<path style="opacity:0.4;fill:#C9DEE1;" d="M282,315.6c-3,0-6.7,0-6.7,0c-0.1,0-1.1,0-1.1,1.5l1.3,25.1c0,0.1,6.6,0,6.6,0V315.6z"
			/>
	</g>
	<g id="_x30_507">
		<g>
			<g>
				<g>
					<g>
						<path style="fill:#F5E5E5;" d="M291.3,386.8h-15.9c-0.1,0-0.2-0.1-0.2-0.2l-2-29.1c0-0.1,0.1-0.2,0.2-0.2c0.1,0,19.7,0,19.8,0
							c0.1,0,0.2,0.1,0.2,0.2l-1.9,29.2C291.5,386.8,291.4,386.8,291.3,386.8z"/>
					</g>
				</g>
			</g>
			<path style="fill:#72ADC8;" d="M275.7,376l0.5,5.6c0.1,1.2,0.9,2.4,1.8,2.4h9.4c0.9,0,1.7-1.3,1.8-2.4l0.6-5.6H275.7z"/>
			<path style="opacity:0.4;fill:#C9DEE1;" d="M282,358.8c-3,0-6.7,0-6.7,0c-0.1,0-1.1,0-1.1,1.5l1.3,25.1c0,0.1,6.6,0,6.6,0V358.8z
				"/>
		</g>
		<g>
			<g>
				<g>
					<g>
						<path style="fill:#F5E5E5;" d="M291.3,428.5h-15.9c-0.1,0-0.2-0.1-0.2-0.2l-2-29.1c0-0.1,0.1-0.2,0.2-0.2c0.1,0,19.7,0,19.8,0
							c0.1,0,0.2,0.1,0.2,0.2l-1.9,29.2C291.5,428.5,291.4,428.5,291.3,428.5z"/>
					</g>
				</g>
			</g>
			<path style="fill:#72ADC8;" d="M275.7,418l0.5,5.6c0.1,1.2,0.9,2.4,1.8,2.4h9.4c0.9,0,1.7-1.3,1.8-2.4l0.6-5.6H275.7z"/>
			<path style="opacity:0.4;fill:#C9DEE1;" d="M282,400.5c-3,0-6.7,0-6.7,0c-0.1,0-1.1,0-1.1,1.5l1.3,25.1c0,0.1,6.6,0,6.6,0V400.5z
				"/>
		</g>
		<g>
			<g>
				<g>
					<g>
						<path style="fill:#F5E5E5;" d="M291.3,471.6h-15.9c-0.1,0-0.2-0.1-0.2-0.2l-2-29.1c0-0.1,0.1-0.2,0.2-0.2c0.1,0,19.7,0,19.8,0
							c0.1,0,0.2,0.1,0.2,0.2l-1.9,29.2C291.5,471.6,291.4,471.6,291.3,471.6z"/>
					</g>
				</g>
			</g>
			<path style="fill:#72ADC8;" d="M275.7,461l0.5,5.6c0.1,1.2,0.9,2.4,1.8,2.4h9.4c0.9,0,1.7-1.3,1.8-2.4l0.6-5.6H275.7z"/>
			<path style="opacity:0.4;fill:#C9DEE1;" d="M282,443.6c-3,0-6.7,0-6.7,0c-0.1,0-1.1,0-1.1,1.5l1.3,25.1c0,0.1,6.6,0,6.6,0V443.6z
				"/>
		</g>
	</g>
</g>
<g id="Vasos_LLenos">
	<g id="_x30_1">
		<g>
			<g>
				<g>
					<g>
						<path style="fill:#F5E5E5;" d="M291.3,216.4h-15.9c-0.1,0-0.2-0.1-0.2-0.2l-2-29.1c0-0.1,0.1-0.2,0.2-0.2c0.1,0,19.7,0,19.8,0
							c0.1,0,0.2,0.1,0.2,0.2l-1.9,29.2C291.5,216.3,291.4,216.4,291.3,216.4z"/>
					</g>
				</g>
			</g>
			<path style="fill:#72ADC8;" d="M274.8,192l1.3,19.8c0.1,1.2,0.9,2.2,1.8,2.2h10.8c0.9,0,1.7-1,1.8-2.2l1.3-19.8H274.8z"/>
			<path style="opacity:0.4;fill:#C9DEE1;" d="M284,188.2c-3,0-8.4,0-8.4,0c-0.1,0-1.2,0-1.2,1.5l1.5,25.1c0,0.1,8.2,0,8.2,0V188.2z
				"/>
		</g>
		<g>
			<text transform="matrix(1 0 0 1 277.501 206.3789)" style="fill:#FFFFFF; font-family:'NeoSansStd-Bold'; font-size:9.7339;">01</text>
		</g>
	</g>
	<g id="_x30_2">
		<g>
			<g>
				<g>
					<g>
						<path style="fill:#F5E5E5;" d="M291.3,258.4h-15.9c-0.1,0-0.2-0.1-0.2-0.2l-2-29.1c0-0.1,0.1-0.2,0.2-0.2c0.1,0,19.7,0,19.8,0
							c0.1,0,0.2,0.1,0.2,0.2l-1.9,29.2C291.5,258.3,291.4,258.4,291.3,258.4z"/>
					</g>
				</g>
			</g>
			<path style="fill:#72ADC8;" d="M274.8,234l1.3,19.8c0.1,1.2,0.9,2.2,1.8,2.2h10.8c0.9,0,1.7-1,1.8-2.2l1.3-19.8H274.8z"/>
			<path style="opacity:0.4;fill:#C9DEE1;" d="M284,230.2c-3,0-8.4,0-8.4,0c-0.1,0-1.2,0-1.2,1.5l1.5,25.1c0,0.1,8.2,0,8.2,0V230.2z
				"/>
		</g>
		<g>
			<text transform="matrix(1 0 0 1 277.501 248.3789)" style="fill:#FFFFFF; font-family:'NeoSansStd-Bold'; font-size:9.7339;">02</text>
		</g>
	</g>
	<g id="_x30_3">
		<g>
			<g>
				<g>
					<g>
						<path style="fill:#F5E5E5;" d="M291.3,301.4h-15.9c-0.1,0-0.2-0.1-0.2-0.2l-2-29.1c0-0.1,0.1-0.2,0.2-0.2c0.1,0,19.7,0,19.8,0
							c0.1,0,0.2,0.1,0.2,0.2l-1.9,29.2C291.5,301.3,291.4,301.4,291.3,301.4z"/>
					</g>
				</g>
			</g>
			<path style="fill:#72ADC8;" d="M274.8,277l1.3,19.8c0.1,1.2,0.9,2.2,1.8,2.2h10.8c0.9,0,1.7-1,1.8-2.2l1.3-19.8H274.8z"/>
			<path style="opacity:0.4;fill:#C9DEE1;" d="M284,273.2c-3,0-8.4,0-8.4,0c-0.1,0-1.2,0-1.2,1.5l1.5,25.1c0,0.1,8.2,0,8.2,0V273.2z
				"/>
		</g>
		<g>
			<text transform="matrix(1 0 0 1 277.501 291.3789)" style="fill:#FFFFFF; font-family:'NeoSansStd-Bold'; font-size:9.7339;">03</text>
		</g>
	</g>
	<g id="_x30_4">
		<g>
			<g>
				<g>
					<g>
						<path style="fill:#F5E5E5;" d="M291.3,343.7h-15.9c-0.1,0-0.2-0.1-0.2-0.2l-2-29.1c0-0.1,0.1-0.2,0.2-0.2c0.1,0,19.7,0,19.8,0
							c0.1,0,0.2,0.1,0.2,0.2l-1.9,29.2C291.5,343.7,291.4,343.7,291.3,343.7z"/>
					</g>
				</g>
			</g>
			<path style="fill:#72ADC8;" d="M274.8,319l1.3,19.8c0.1,1.2,0.9,2.2,1.8,2.2h10.8c0.9,0,1.7-1,1.8-2.2l1.3-19.8H274.8z"/>
			<path style="opacity:0.4;fill:#C9DEE1;" d="M284,315.6c-3,0-8.4,0-8.4,0c-0.1,0-1.2,0-1.2,1.5l1.5,25.1c0,0.1,8.2,0,8.2,0V315.6z
				"/>
		</g>
		<text transform="matrix(1 0 0 1 277.501 333.7217)" style="fill:#FFFFFF; font-family:'NeoSansStd-Bold'; font-size:9.7339;">04</text>
	</g>
	<g id="_x30_5">
		<g>
			<g>
				<g>
					<g>
						<path style="fill:#F5E5E5;" d="M291.3,386.7h-15.9c-0.1,0-0.2-0.1-0.2-0.2l-2-29.1c0-0.1,0.1-0.2,0.2-0.2c0.1,0,19.7,0,19.8,0
							c0.1,0,0.2,0.1,0.2,0.2l-1.9,29.2C291.5,386.7,291.4,386.7,291.3,386.7z"/>
					</g>
				</g>
			</g>
			<path style="fill:#72ADC8;" d="M274.8,362l1.3,19.8c0.1,1.2,0.9,2.2,1.8,2.2h10.8c0.9,0,1.7-1,1.8-2.2l1.3-19.8H274.8z"/>
			<path style="opacity:0.4;fill:#C9DEE1;" d="M284,358.6c-3,0-8.4,0-8.4,0c-0.1,0-1.2,0-1.2,1.5l1.5,25.1c0,0.1,8.2,0,8.2,0V358.6z
				"/>
		</g>
		<g>
			<text transform="matrix(1 0 0 1 277.501 376.7217)" style="fill:#FFFFFF; font-family:'NeoSansStd-Bold'; font-size:9.7339;">05</text>
		</g>
	</g>
	<g id="_x30_6">
		<g>
			<g>
				<g>
					<g>
						<path style="fill:#F5E5E5;" d="M291.3,428.7h-15.9c-0.1,0-0.2-0.1-0.2-0.2l-2-29.1c0-0.1,0.1-0.2,0.2-0.2c0.1,0,19.7,0,19.8,0
							c0.1,0,0.2,0.1,0.2,0.2l-1.9,29.2C291.5,428.7,291.4,428.7,291.3,428.7z"/>
					</g>
				</g>
			</g>
			<path style="fill:#72ADC8;" d="M274.8,404l1.3,19.8c0.1,1.2,0.9,2.2,1.8,2.2h10.8c0.9,0,1.7-1,1.8-2.2l1.3-19.8H274.8z"/>
			<path style="opacity:0.4;fill:#C9DEE1;" d="M284,400.6c-3,0-8.4,0-8.4,0c-0.1,0-1.2,0-1.2,1.5l1.5,25.1c0,0.1,8.2,0,8.2,0V400.6z
				"/>
		</g>
		<g>
			<text transform="matrix(1 0 0 1 277.501 418.7217)" style="fill:#FFFFFF; font-family:'NeoSansStd-Bold'; font-size:9.7339;">06</text>
		</g>
	</g>
	<g id="_x30_7">
		<g>
			<g>
				<g>
					<g>
						<path style="fill:#F5E5E5;" d="M291.3,471.7h-15.9c-0.1,0-0.2-0.1-0.2-0.2l-2-29.1c0-0.1,0.1-0.2,0.2-0.2c0.1,0,19.7,0,19.8,0
							c0.1,0,0.2,0.1,0.2,0.2l-1.9,29.2C291.5,471.7,291.4,471.7,291.3,471.7z"/>
					</g>
				</g>
			</g>
			<path style="fill:#72ADC8;" d="M274.8,447l1.3,19.8c0.1,1.2,0.9,2.2,1.8,2.2h10.8c0.9,0,1.7-1,1.8-2.2l1.3-19.8H274.8z"/>
			<path style="opacity:0.4;fill:#C9DEE1;" d="M284,443.6c-3,0-8.4,0-8.4,0c-0.1,0-1.2,0-1.2,1.5l1.5,25.1c0,0.1,8.2,0,8.2,0V443.6z
				"/>
		</g>
		<text transform="matrix(1 0 0 1 277.501 461.7217)" style="fill:#FFFFFF; font-family:'NeoSansStd-Bold'; font-size:9.7339;">07</text>
	</g>
	<g id="_x30_8">
		<g>
			<g>
				<g>
					<g>
						<path style="fill:#F5E5E5;" d="M291.3,513.3h-15.9c-0.1,0-0.2-0.1-0.2-0.2l-2-29.1c0-0.1,0.1-0.2,0.2-0.2c0.1,0,19.7,0,19.8,0
							c0.1,0,0.2,0.1,0.2,0.2l-1.9,29.2C291.5,513.3,291.4,513.3,291.3,513.3z"/>
					</g>
				</g>
			</g>
			<path style="fill:#72ADC8;" d="M274.8,489l1.3,19.8c0.1,1.2,0.9,2.2,1.8,2.2h10.8c0.9,0,1.7-1,1.8-2.2l1.3-19.8H274.8z"/>
			<path style="opacity:0.4;fill:#C9DEE1;" d="M284,485.2c-3,0-8.4,0-8.4,0c-0.1,0-1.2,0-1.2,1.5l1.5,25.1c0,0.1,8.2,0,8.2,0V485.2z
				"/>
		</g>
		<g>
			<text transform="matrix(1 0 0 1 277.501 503.3037)" style="fill:#FFFFFF; font-family:'NeoSansStd-Bold'; font-size:9.7339;">08</text>
		</g>
	</g>
</g>
</svg>
