<?xml version="1.0" encoding="utf-8"?>
<!-- Generator: Adobe Illustrator 16.0.0, SVG Export Plug-In . SVG Version: 6.00 Build 0)  -->
<!DOCTYPE svg PUBLIC "-//W3C//DTD SVG 1.1//EN" "http://www.w3.org/Graphics/SVG/1.1/DTD/svg11.dtd">
<svg version="1.1" id="Ventana" xmlns="http://www.w3.org/2000/svg" xmlns:xlink="http://www.w3.org/1999/xlink" x="0px" y="0px"
	 width="1280px" height="700px" viewBox="0 0 1280 700" style="enable-background:new 0 0 1280 700;" xml:space="preserve">
<g>
	<rect x="743.2" y="222" style="fill:#BCD9CB;" width="63.2" height="89.6"/>
	<g>
		<g>
			<g>
				<g>
					<path style="fill:#F0BD93;" d="M803.4,225v22c-2.6,1.3-5.5,2.1-8.6,2.1c-10.5,0-19-8.5-19-18.9c0-1.8,0.2-3.5,0.7-5.1H803.4z"
						/>
				</g>
			</g>
			<g>
				<polygon style="fill:#CDE3D8;" points="803,270.3 785.8,270.3 785.8,253.4 772.3,253.4 772.3,265.1 760.6,265.1 760.6,238.3 
					752.3,238.3 752.3,272.3 745.8,272.3 745.8,310.9 803,310.9 				"/>
			</g>
			<g>
				<polygon style="fill:#DBEBE3;" points="789,284.1 776.8,284.1 776.8,295.4 758.3,295.4 758.3,305.3 747.6,305.3 747.6,311.5 
					803,311.5 803,300.1 794.8,300.1 794.8,290.8 789,290.8 				"/>
			</g>
			<g>
				<path style="fill:#968670;" d="M741.3,220.4v95h66.2v-95H741.3z M803,310.9h-26.5v-31.6H803V310.9z M745.8,279.3h26.4v31.6
					h-26.4V279.3z M745.8,224.9H803v49.8h-26.5V225h-4.3v49.7h-26.4V224.9z"/>
			</g>
		</g>
	</g>
</g>
</svg>
