<?xml version="1.0" encoding="utf-8"?>
<!-- Generator: Adobe Illustrator 16.0.0, SVG Export Plug-In . SVG Version: 6.00 Build 0)  -->
<!DOCTYPE svg PUBLIC "-//W3C//DTD SVG 1.1//EN" "http://www.w3.org/Graphics/SVG/1.1/DTD/svg11.dtd">
<svg version="1.1" xmlns="http://www.w3.org/2000/svg" xmlns:xlink="http://www.w3.org/1999/xlink" x="0px" y="0px" width="1280px"
	 height="700px" viewBox="0 0 1280 700" enable-background="new 0 0 1280 700" xml:space="preserve">
<g id="Miscelaneas">
</g>
<g id="Textos">
	<path fill="#4C4452" d="M832.894,231.5H445.046c-6.109,0-11.223,4.814-11.223,10.926V447.43c0,6.111,5.113,11.07,11.225,11.07
		h387.848c6.109,0,10.928-4.959,10.928-11.07V242.426C843.824,236.314,839.005,231.5,832.894,231.5z"/>
	<g>
		<circle fill="#3C3541" cx="638.327" cy="350.275" r="30.825"/>
	</g>
	<path fill="#5BA4C2" d="M630.431,362.645c-0.096,0-0.189-0.025-0.273-0.074c-0.166-0.096-0.27-0.275-0.27-0.467v-23.654
		c0-0.193,0.104-0.371,0.27-0.469s0.371-0.098,0.541-0.002l20.695,11.826c0.17,0.096,0.274,0.275,0.274,0.47
		s-0.104,0.374-0.274,0.47l-20.695,11.829C630.613,362.621,630.523,362.645,630.431,362.645z"/>
</g>
</svg>
