<?xml version="1.0" encoding="utf-8"?>
<!-- Generator: Adobe Illustrator 16.0.0, SVG Export Plug-In . SVG Version: 6.00 Build 0)  -->
<!DOCTYPE svg PUBLIC "-//W3C//DTD SVG 1.1//EN" "http://www.w3.org/Graphics/SVG/1.1/DTD/svg11.dtd">
<svg version="1.1" id="_x38_VasosBanner" xmlns="http://www.w3.org/2000/svg" xmlns:xlink="http://www.w3.org/1999/xlink" x="0px"
	 y="0px" width="1280px" height="700px" viewBox="0 0 1280 700" style="enable-background:new 0 0 1280 700;" xml:space="preserve">
<g>
	<g>
		<g style="opacity:0.1;">
			<path style="fill:#453C4B;" d="M519.1,97.3c3.7,8.1,7.4,16.1,11,24.3c-1.3,8.8-2.4,17.6-3.5,26.3c15.2-2.3,30.5-4,45.9-5.4
				c-1.5-17-3-34-4.4-50.9C551.7,93,535.4,94.9,519.1,97.3z"/>
			<g>
				<path style="fill:#453C4B;" d="M720.7,83.7c-54.1-5.3-108.6-5.3-162.7,0c1.7,17,3.3,33.9,5,50.9c50.8-5,101.9-5,152.7,0
					C717.4,117.6,719.1,100.6,720.7,83.7z"/>
			</g>
			<path style="fill:#453C4B;" d="M759.4,100.4c-3.7,8.1-7.4,16.2-11,24.3c1.3,8.8,2.4,17.6,3.5,26.3c-15.2-2.2-30.4-4-45.7-5.4
				c1.5-17,3-34,4.4-50.9C727,96.1,743.2,98,759.4,100.4z"/>
		</g>
		<g>
			<path style="fill:#5397B2;" d="M509.5,91.4c3.9,8,7.6,16.1,11.3,24.1c-1.2,8.8-2.3,17.6-3.3,26.4c15.4-2.4,30.8-4.4,46.2-5.9
				c-1.7-17-3.3-33.9-5-50.9C542.3,86.7,525.8,88.8,509.5,91.4z"/>
			<g>
				<path style="fill:#69ACC7;" d="M721.5,76.3c-54.6-5.4-109.6-5.3-164.1,0c1.7,17,3.3,33.9,5,50.9c51.3-5,102.9-5,154.1,0
					C718.1,110.3,719.8,93.3,721.5,76.3z"/>
			</g>
			<path style="fill:#5397B2;" d="M769,94.4c-3.8,8-7.6,16.1-11.3,24.1c1.2,8.8,2.3,17.6,3.3,26.4c-15.3-2.4-30.7-4.4-46.1-5.9
				c1.7-17,3.3-33.9,5-50.9C736.3,89.8,752.7,91.8,769,94.4z"/>
		</g>
		<path style="opacity:0.2;fill:#69ACC7;" d="M640,72.5c-27.7,0-55.5,1.3-83.1,4.1c1.7,16.9,3.3,33.8,5,50.8c26-2.6,52-3.8,78-3.8
			C640,106.5,640,89.5,640,72.5z"/>
		<g style="opacity:0.5;">
			<g>
				<g>
					<g>
						<path style="fill:#69ACC7;" d="M593,113.6c-0.9,0.1-1.8,0.1-2.7,0.2c-0.2,0-0.4-0.2-0.5-0.4c0,0,0,0,0,0
							c-0.1-3.5-0.1-7-0.2-10.5c0-0.2,0.2-0.5,0.4-0.5c0.6,0,1.3-0.1,1.9-0.1c0.2,0,0.5,0.2,0.5,0.4c0.4,3.5,0.7,7,1,10.4
							c0,0,0,0,0,0C593.5,113.4,593.2,113.6,593,113.6z M592.2,101c-0.9,0.1-1.7,0.1-2.6,0.2c-0.2,0-0.4-0.1-0.4-0.4
							c-0.1-0.9-0.1-1.8-0.2-2.6c0-0.2,0.2-0.4,0.4-0.4c0.9-0.1,1.8-0.1,2.6-0.2c0.2,0,0.5,0.2,0.5,0.4c0.1,0.9,0.1,1.8,0.2,2.6
							C592.6,100.8,592.4,101,592.2,101z"/>
						<path style="fill:#69ACC7;" d="M602.9,109.2c-0.1,0-0.2,0-0.2,0c-3.4,0.2-5.9-1.3-6.1-4.4c0-0.1,0-0.2,0-0.3
							c-0.1-1.4,0.6-2.6,1.7-3.5c-1.2-0.7-1.9-1.7-2-3.1c0-0.1,0-0.2,0-0.2c-0.2-2.9,2.1-4.4,5.6-4.6c0.1,0,0.2,0,0.2,0
							c3.5-0.2,5.9,1.1,6,4.1c0,0.1,0,0.2,0,0.2c0.1,1.3-0.5,2.4-1.7,3.2c1.2,0.7,2,1.9,2,3.3c0,0.1,0,0.2,0,0.3
							C608.7,107.3,606.4,109,602.9,109.2z M604.7,97.7c0-1.1-0.7-1.9-2.3-1.8c-0.1,0-0.2,0-0.2,0c-1.6,0.1-2.2,0.9-2.2,2
							c0,0,0,0.1,0,0.1c0.1,1.1,0.7,1.8,2.1,1.7c0.2,0,0.5,0,0.7,0c1.4-0.1,2-0.8,1.9-1.9C604.7,97.7,604.7,97.7,604.7,97.7z
							 M604.9,104.1c0-1-0.6-2-2.1-1.9c-0.2,0-0.5,0-0.7,0c-1.5,0.1-1.9,1.1-1.9,2.1c0,0.1,0,0.1,0,0.2c0.1,1.2,0.9,2.1,2.3,2
							c0.1,0,0.2,0,0.2,0c1.5-0.1,2.2-1,2.1-2.2C604.9,104.3,604.9,104.2,604.9,104.1z"/>
						<path style="fill:#69ACC7;" d="M629.9,93.1c-1.1,4.4-2.1,8.7-3.1,13.1c-0.5,2-2.1,2.4-3.6,2.4c-1.5,0-3.2-0.2-3.7-2.2
							c-1.2-4.3-2.4-8.6-3.7-12.9c0,0,0-0.1,0-0.1c0-0.2,0.2-0.3,0.4-0.3c1,0,2.1-0.1,3.1-0.1c0.2,0,0.4,0.2,0.5,0.4c1,4,2,8,3.1,12
							c0,0.2,0.1,0.3,0.3,0.3c0.2,0,0.3-0.1,0.3-0.3c0.8-4.1,1.7-8.1,2.6-12.2c0-0.2,0.2-0.4,0.4-0.4c1,0,2.1,0,3.1,0
							c0.2,0,0.4,0.1,0.4,0.3C629.9,93,629.9,93,629.9,93.1z"/>
						<path style="fill:#69ACC7;" d="M644.7,108.2c-1,0-2.1,0-3.1,0c-0.2,0-0.4-0.2-0.4-0.4c-0.3-1.1-0.5-2.3-0.8-3.4
							c-1.5,0-3,0-4.5,0c-0.3,1.1-0.5,2.3-0.8,3.4c0,0.2-0.2,0.4-0.4,0.4c-1,0-2.1,0-3.1,0c-0.2,0-0.4-0.1-0.4-0.3c0,0,0-0.1,0-0.1
							c1-4.4,2.1-8.7,3.2-13c0.5-2,2.2-2.3,3.7-2.3c1.5,0,3.2,0.3,3.7,2.3c1.1,4.3,2.2,8.7,3.2,13c0,0,0,0.1,0,0.1
							C645,108.1,644.9,108.2,644.7,108.2z M638.4,95.7c0-0.2-0.1-0.3-0.3-0.3c-0.2,0-0.3,0.1-0.3,0.3c-0.5,1.9-0.9,3.9-1.3,5.8
							c1.1,0,2.2,0,3.3,0C639.3,99.5,638.8,97.6,638.4,95.7z"/>
						<path style="fill:#69ACC7;" d="M651.5,108.5c-1.7,0-3-0.2-4.2-0.5c-0.2-0.1-0.4-0.2-0.4-0.4c0-0.7,0-1.4,0-2.1
							c0-0.3,0.2-0.4,0.4-0.4c0,0,0,0,0.1,0c0.9,0.1,3.3,0.3,4.2,0.3c1.5,0,2-0.4,2-1.4c0-0.6-0.3-0.9-1.4-1.6c-1-0.6-2-1.2-3-1.8
							c-2.1-1.2-2.6-2.5-2.6-4c0-2.3,1.4-4.1,5.8-4c1.6,0,3.9,0.3,4.7,0.5c0.2,0,0.3,0.2,0.3,0.4c0,0.7,0,1.4,0,2.1
							c0,0.2-0.1,0.4-0.4,0.3c0,0,0,0,0,0c-0.6-0.1-3.2-0.3-4.7-0.3c-1.3,0-1.7,0.3-1.8,1.1c0,0.6,0.3,0.9,1.5,1.5
							c0.9,0.5,1.9,1,2.8,1.5c2.3,1.2,2.9,2.6,2.9,4.3C657.5,106.2,655.9,108.5,651.5,108.5z"/>
						<path style="fill:#69ACC7;" d="M666.1,108.8c-3.6-0.1-6.5-2.1-6.3-6.9c0-0.8,0-1.7,0.1-2.5c0.1-4.9,3.1-6.7,6.8-6.5
							c3.7,0.1,6.6,2.1,6.4,7c0,0.8-0.1,1.7-0.1,2.5C672.6,107.2,669.7,108.9,666.1,108.8z M669.1,99.7c0.1-2.5-0.8-3.6-2.6-3.7
							c-1.9-0.1-2.8,1-2.9,3.5c0,0.8,0,1.7-0.1,2.5c-0.1,2.5,0.8,3.6,2.6,3.7c1.8,0.1,2.8-1,2.9-3.5
							C669.1,101.3,669.1,100.5,669.1,99.7z"/>
						<path style="fill:#69ACC7;" d="M679.7,109.4c-1.7-0.1-3-0.3-4.1-0.7c-0.2-0.1-0.4-0.2-0.4-0.4c0-0.7,0.1-1.4,0.1-2.1
							c0-0.3,0.2-0.4,0.4-0.4c0,0,0,0,0.1,0c0.9,0.1,3.3,0.4,4.2,0.5c1.5,0.1,2-0.4,2-1.4c0-0.6-0.3-1-1.4-1.7c-1-0.6-2-1.2-3-1.9
							c-2-1.2-2.5-2.6-2.4-4.1c0.1-2.3,1.6-4,5.9-3.8c1.6,0.1,3.9,0.5,4.7,0.7c0.2,0.1,0.3,0.2,0.3,0.4c0,0.7-0.1,1.4-0.1,2.1
							c0,0.2-0.1,0.4-0.4,0.3c0,0,0,0,0,0c-0.6-0.1-3.2-0.4-4.7-0.5c-1.3-0.1-1.8,0.3-1.8,1c0,0.6,0.2,0.9,1.4,1.5
							c0.9,0.5,1.8,1.1,2.8,1.6c2.2,1.3,2.9,2.7,2.8,4.4C685.9,107.3,684.2,109.6,679.7,109.4z"/>
						<path style="fill:#69ACC7;" d="M693.9,94.3c-0.4,3.5-0.8,7-1.1,10.4c0,0.2-0.2,0.4-0.5,0.4c-0.6,0-1.3-0.1-1.9-0.1
							c-0.2,0-0.5-0.2-0.5-0.5c0.1-3.5,0.1-7,0.2-10.5c0,0,0,0,0,0c0-0.2,0.3-0.4,0.5-0.4c0.9,0.1,1.9,0.1,2.8,0.2
							C693.7,93.9,693.9,94.1,693.9,94.3C693.9,94.3,693.9,94.3,693.9,94.3z M692.3,109.9c-0.9-0.1-1.7-0.1-2.6-0.2
							c-0.2,0-0.4-0.2-0.4-0.4c0.1-0.9,0.1-1.8,0.2-2.6c0-0.2,0.2-0.4,0.5-0.4c0.9,0.1,1.7,0.1,2.6,0.2c0.2,0,0.4,0.2,0.4,0.4
							c-0.1,0.9-0.1,1.8-0.2,2.6C692.7,109.8,692.5,109.9,692.3,109.9z"/>
					</g>
				</g>
			</g>
		</g>
		<g>
			<g>
				<g>
					<g>
						<path style="fill:#F5E5E5;" d="M590.8,112.3c-0.9,0.1-1.8,0.1-2.7,0.2c-0.2,0-0.5-0.2-0.5-0.4c0,0,0,0,0,0
							c-0.1-3.5-0.2-7-0.2-10.5c0-0.2,0.2-0.5,0.4-0.5c0.6,0,1.3-0.1,1.9-0.1c0.2,0,0.5,0.2,0.5,0.4c0.4,3.5,0.7,7,1.1,10.4
							c0,0,0,0,0,0C591.3,112.1,591.1,112.3,590.8,112.3z M590,99.7c-0.9,0.1-1.8,0.1-2.6,0.2c-0.2,0-0.4-0.1-0.4-0.4
							c-0.1-0.9-0.1-1.8-0.2-2.6c0-0.2,0.1-0.4,0.4-0.4c0.9-0.1,1.8-0.1,2.6-0.2c0.2,0,0.5,0.2,0.5,0.4c0.1,0.9,0.1,1.8,0.2,2.6
							C590.4,99.5,590.2,99.6,590,99.7z"/>
						<path style="fill:#F5E5E5;" d="M600.8,107.8c-0.1,0-0.2,0-0.2,0c-3.5,0.2-5.9-1.3-6.1-4.4c0-0.1,0-0.2,0-0.3
							c-0.1-1.4,0.6-2.6,1.7-3.5c-1.2-0.7-1.9-1.7-2-3c0-0.1,0-0.2,0-0.2c-0.2-2.9,2.1-4.4,5.6-4.6c0.1,0,0.2,0,0.2,0
							c3.6-0.2,5.9,1.1,6.1,4c0,0.1,0,0.2,0,0.2c0.1,1.3-0.5,2.4-1.7,3.2c1.2,0.7,2,1.9,2,3.3c0,0.1,0,0.2,0,0.3
							C606.5,106,604.2,107.7,600.8,107.8z M602.5,96.3c0-1.1-0.7-1.9-2.3-1.8c-0.1,0-0.2,0-0.2,0c-1.6,0.1-2.2,0.9-2.2,2
							c0,0,0,0.1,0,0.1c0.1,1.1,0.7,1.8,2.1,1.7c0.2,0,0.5,0,0.7,0c1.4-0.1,2-0.9,1.9-1.9C602.5,96.4,602.5,96.3,602.5,96.3z
							 M602.8,102.8c0-1-0.6-2-2.1-1.9c-0.2,0-0.5,0-0.7,0c-1.5,0.1-1.9,1.1-1.9,2.1c0,0.1,0,0.1,0,0.2c0.1,1.2,0.9,2.1,2.3,2
							c0.1,0,0.2,0,0.2,0c1.5-0.1,2.2-1,2.1-2.2C602.8,102.9,602.8,102.8,602.8,102.8z"/>
						<path style="fill:#F5E5E5;" d="M627.8,91.6c-1.1,4.4-2.1,8.7-3.1,13.1c-0.5,2-2.1,2.4-3.6,2.4c-1.5,0-3.2-0.2-3.7-2.2
							c-1.2-4.3-2.5-8.6-3.7-12.9c0,0,0-0.1,0-0.1c0-0.2,0.2-0.3,0.4-0.3c1,0,2.1-0.1,3.1-0.1c0.2,0,0.4,0.2,0.5,0.4
							c1,4,2.1,8,3.1,12c0.1,0.2,0.1,0.3,0.3,0.3c0.2,0,0.3-0.1,0.3-0.3c0.8-4.1,1.7-8.1,2.5-12.2c0-0.2,0.2-0.4,0.4-0.4
							c1,0,2.1,0,3.1-0.1c0.2,0,0.4,0.1,0.4,0.3C627.8,91.6,627.8,91.6,627.8,91.6z"/>
						<path style="fill:#F5E5E5;" d="M642.6,106.7c-1,0-2.1,0-3.1,0c-0.2,0-0.4-0.2-0.4-0.4c-0.3-1.1-0.5-2.3-0.8-3.4
							c-1.5,0-3,0-4.5,0c-0.3,1.1-0.5,2.3-0.8,3.4c0,0.2-0.2,0.4-0.4,0.4c-1,0-2.1,0-3.1,0c-0.2,0-0.4-0.1-0.4-0.3c0,0,0-0.1,0-0.1
							c1-4.4,2.1-8.7,3.2-13.1c0.5-2,2.2-2.3,3.7-2.4c1.6,0,3.2,0.3,3.7,2.3c1.1,4.3,2.2,8.7,3.3,13c0,0,0,0.1,0,0.1
							C642.9,106.6,642.8,106.7,642.6,106.7z M636.2,94.2c0-0.2-0.1-0.3-0.3-0.3c-0.2,0-0.3,0.1-0.3,0.3c-0.4,1.9-0.9,3.9-1.3,5.8
							c1.1,0,2.2,0,3.3,0C637.2,98.1,636.7,96.2,636.2,94.2z"/>
						<path style="fill:#F5E5E5;" d="M649.4,107c-1.7,0-3-0.2-4.2-0.5c-0.2-0.1-0.4-0.2-0.4-0.4c0-0.7,0-1.4,0-2.1
							c0-0.3,0.2-0.4,0.4-0.4c0,0,0,0,0.1,0c0.9,0.1,3.3,0.3,4.2,0.3c1.5,0,2-0.4,2-1.4c0-0.6-0.3-0.9-1.4-1.6c-1-0.6-2-1.2-3-1.8
							c-2.1-1.2-2.6-2.5-2.6-4c0-2.3,1.4-4.1,5.8-4c1.6,0,3.9,0.3,4.8,0.5c0.2,0,0.3,0.2,0.3,0.4c0,0.7,0,1.4,0,2.1
							c0,0.2-0.1,0.4-0.4,0.3c0,0,0,0,0,0c-0.6-0.1-3.2-0.3-4.7-0.3c-1.3,0-1.8,0.3-1.8,1.1c0,0.6,0.3,0.9,1.5,1.5
							c0.9,0.5,1.9,1,2.8,1.5c2.3,1.2,3,2.6,2.9,4.3C655.4,104.7,653.8,107,649.4,107z"/>
						<path style="fill:#F5E5E5;" d="M664,107.3c-3.6-0.1-6.5-2-6.4-6.9c0-0.8,0-1.7,0.1-2.5c0.1-4.9,3.1-6.7,6.8-6.6
							c3.7,0.1,6.6,2.1,6.4,7c0,0.8-0.1,1.7-0.1,2.5C670.6,105.6,667.6,107.4,664,107.3z M667.1,98.1c0.1-2.5-0.8-3.6-2.7-3.7
							c-1.9-0.1-2.8,1-2.9,3.5c0,0.8,0,1.7-0.1,2.5c-0.1,2.5,0.8,3.6,2.6,3.7c1.9,0.1,2.8-1,2.9-3.5C667,99.8,667,99,667.1,98.1z"/>
						<path style="fill:#F5E5E5;" d="M677.7,107.8c-1.7-0.1-3-0.3-4.1-0.6c-0.2-0.1-0.4-0.2-0.4-0.4c0-0.7,0.1-1.4,0.1-2.1
							c0-0.3,0.2-0.4,0.4-0.4c0,0,0,0,0.1,0c0.9,0.1,3.3,0.4,4.2,0.4c1.5,0.1,2-0.4,2-1.4c0-0.6-0.3-1-1.4-1.7c-1-0.6-2-1.2-3-1.9
							c-2-1.2-2.5-2.6-2.5-4.1c0.1-2.3,1.6-4,5.9-3.8c1.6,0.1,3.9,0.4,4.7,0.7c0.2,0.1,0.3,0.2,0.3,0.4c0,0.7-0.1,1.4-0.1,2.1
							c0,0.2-0.1,0.4-0.4,0.3c0,0,0,0,0,0c-0.6-0.1-3.2-0.4-4.7-0.5c-1.3-0.1-1.8,0.3-1.8,1c0,0.6,0.2,0.9,1.4,1.5
							c0.9,0.5,1.9,1.1,2.8,1.6c2.3,1.3,2.9,2.7,2.8,4.4C683.9,105.8,682.2,108,677.7,107.8z"/>
						<path style="fill:#F5E5E5;" d="M691.8,92.7c-0.4,3.5-0.7,7-1.1,10.4c0,0.2-0.2,0.4-0.5,0.4c-0.6,0-1.3-0.1-1.9-0.1
							c-0.2,0-0.5-0.2-0.5-0.5c0.1-3.5,0.1-7,0.2-10.5c0,0,0,0,0,0c0-0.2,0.3-0.4,0.5-0.4c0.9,0.1,1.9,0.1,2.8,0.2
							C691.7,92.3,691.8,92.5,691.8,92.7C691.8,92.7,691.8,92.7,691.8,92.7z M690.3,108.3c-0.9-0.1-1.7-0.1-2.6-0.2
							c-0.2,0-0.4-0.2-0.4-0.4c0.1-0.9,0.1-1.8,0.2-2.6c0-0.2,0.2-0.4,0.5-0.4c0.9,0.1,1.7,0.1,2.6,0.2c0.2,0,0.4,0.2,0.4,0.4
							c-0.1,0.9-0.1,1.8-0.2,2.6C690.7,108.2,690.5,108.3,690.3,108.3z"/>
					</g>
				</g>
			</g>
		</g>
	</g>
</g>
</svg>
