<?xml version="1.0" encoding="utf-8"?>
<!-- Generator: Adobe Illustrator 16.0.0, SVG Export Plug-In . SVG Version: 6.00 Build 0)  -->
<!DOCTYPE svg PUBLIC "-//W3C//DTD SVG 1.1//EN" "http://www.w3.org/Graphics/SVG/1.1/DTD/svg11.dtd">
<svg version="1.1" id="Back_to_Top" xmlns="http://www.w3.org/2000/svg" xmlns:xlink="http://www.w3.org/1999/xlink" x="0px"
	 y="0px" width="1280px" height="102px" viewBox="0 0 1280 102" enable-background="new 0 0 1280 102" xml:space="preserve">
<g>
	<g>
		<path fill="#585858" d="M630.71,39.692l6.062-6.002v16.576c0,0.336,0.272,0.607,0.608,0.607c0.334,0,0.607-0.271,0.607-0.607
			V33.702l6.047,5.99c0.119,0.117,0.274,0.176,0.43,0.176c0.156,0,0.314-0.061,0.433-0.18c0.235-0.24,0.233-0.625-0.007-0.859
			l-7.089-7.023c-0.235-0.234-0.62-0.234-0.854,0l-7.092,7.023c-0.24,0.234-0.242,0.619-0.009,0.859
			C630.087,39.927,630.472,39.929,630.71,39.692z"/>
	</g>
</g>
<g>
	<g>
		<g>
			<circle fill="#5BA4C2" cx="637.374" cy="41.473" r="16.355"/>
			<path fill="#7BB6CE" d="M637.375,57.827L637.375,57.827c-9.033,0-16.356-7.323-16.356-16.354c0-9.033,7.323-16.356,16.356-16.356
				l0,0V57.827z"/>
		</g>
		<path fill="#E1D7C5" d="M630.71,39.912l6.062-6.002v16.576c0,0.336,0.272,0.607,0.608,0.607c0.335,0,0.607-0.271,0.607-0.607
			V33.922l6.048,5.99c0.118,0.117,0.273,0.176,0.429,0.176c0.156,0,0.314-0.06,0.434-0.18c0.235-0.239,0.232-0.624-0.008-0.859
			l-7.089-7.022c-0.236-0.235-0.619-0.235-0.854,0l-7.092,7.022c-0.239,0.235-0.241,0.62-0.008,0.859
			C630.086,40.146,630.472,40.149,630.71,39.912z"/>
	</g>
	<g>
		<g enable-background="new    ">
			<path fill="#5BA4C2" d="M600.059,68.046h3.394c1.523,0,2.471,1.091,2.435,2.603c-0.024,0.647-0.251,1.319-0.792,1.69
				c0.564,0.384,0.888,1.044,0.888,1.716c0,1.438-1.14,2.578-2.531,2.578h-3.394V68.046z M601.786,71.487h1.031h0.492
				c0.492,0,0.792-0.396,0.792-0.863c0-0.479-0.3-0.863-0.792-0.863h-1.523V71.487z M601.786,74.918h1.031h0.492
				c0.492,0,0.864-0.384,0.864-0.863c0-0.48-0.372-0.852-0.864-0.852h-1.523V74.918z"/>
			<path fill="#5BA4C2" d="M610.353,67.746h0.18l3.61,8.887h-1.931l-0.348-0.924h-2.842l-0.336,0.924h-1.943L610.353,67.746z
				 M611.229,74.103l-0.779-2.231l-0.804,2.231H611.229z"/>
			<path fill="#5BA4C2" d="M619.041,69.677c-3.394,0-3.394,5.229,0,5.229c0.744,0,1.332-0.217,1.655-0.385l0.228,1.775
				c-0.528,0.216-1.284,0.36-1.883,0.36c-5.817,0-5.805-8.708,0-8.708c0.6,0,1.175,0.108,1.691,0.336l-0.204,1.764
				C620.204,69.881,619.784,69.677,619.041,69.677z"/>
			<path fill="#5BA4C2" d="M622.295,68.058h1.715c0,1.14,0,2.278,0,3.418l2.159-3.418h2.003l-2.783,4.233l3.022,4.342h-2.123
				l-2.279-3.358c0,1.104,0,2.255,0,3.358h-1.715V68.058z"/>
			<path fill="#5BA4C2" d="M634.366,76.633v-6.86h-2.135v-1.703h5.985v1.703h-2.135v6.86H634.366z"/>
			<path fill="#5BA4C2" d="M643.364,67.914c5.901,0,5.901,8.839,0,8.839C637.464,76.753,637.464,67.914,643.364,67.914z
				 M643.364,69.677c-3.43,0-3.43,5.301,0,5.301C646.795,74.978,646.795,69.677,643.364,69.677z"/>
		</g>
		<text transform="matrix(1 0 0 1 648.9961 76.6328)" fill="#5BA4C2" font-family="'LoveloBlack'" font-size="12"> </text>
		<g enable-background="new    ">
			<path fill="#5BA4C2" d="M654.057,76.633v-6.86h-2.135v-1.703h5.985v1.703h-2.135v6.86H654.057z"/>
			<path fill="#5BA4C2" d="M663.056,67.914c5.901,0,5.901,8.839,0,8.839C657.155,76.753,657.155,67.914,663.056,67.914z
				 M663.056,69.677c-3.43,0-3.43,5.301,0,5.301C666.486,74.978,666.486,69.677,663.056,69.677z"/>
			<path fill="#5BA4C2" d="M669.094,76.633v-8.563h3.37c3.334,0,3.322,5.289,0,5.289h-1.655v3.274H669.094z M672.32,71.691
				c1.15,0,1.15-1.919,0-1.919h-1.512v1.919H672.32z"/>
		</g>
	</g>
</g>
</svg>
