<?xml version="1.0" encoding="utf-8"?>
<!-- Generator: Adobe Illustrator 16.0.0, SVG Export Plug-In . SVG Version: 6.00 Build 0)  -->
<!DOCTYPE svg PUBLIC "-//W3C//DTD SVG 1.1//EN" "http://www.w3.org/Graphics/SVG/1.1/DTD/svg11.dtd">
<svg version="1.1" xmlns="http://www.w3.org/2000/svg" xmlns:xlink="http://www.w3.org/1999/xlink" x="0px" y="0px" width="1280px"
	 height="700px" viewBox="0 0 1280 700" style="enable-background:new 0 0 1280 700;" xml:space="preserve">
<g id="Inodoro">
	<g>
		<ellipse style="fill:#D0D3CC;" cx="423.7" cy="487.4" rx="65.7" ry="1.8"/>
		<g>
			<g>
				<g>
					<g id="toilet">
						<g>
							<path style="fill:#AEC5CA;" d="M392.2,441v-8.7h-10.9c-7.2,0-13.1-5.9-13.1-13.1V213.7h-8.7l0,205.5
								c0,11.8,8.1,21.8,21.8,21.8H392.2z"/>
						</g>
					</g>
					<path style="fill:#BCCFD3;" d="M368.3,419.3l0-207.3h-4.5l0,207.9c0,11.8,9,17.1,19.1,17.1H394l-0.1-4.7l-12.7,0
						C374,432.3,368.3,426.5,368.3,419.3z"/>
				</g>
				<g>
					<path style="fill:#AEC5CA;" d="M377,480.2c0-8.4,6.8-15.2,15.2-15.2h1.4c-0.9-1.9-1.4-4.1-1.4-6.5v-10.9c-4,0-7.9,0.8-11.5,2.1
						c-12.4,4.6-21.2,16.6-21.2,30.6v6.5l0,0l17.4,0V480.2z"/>
					<path style="fill:#A3BDC3;" d="M392.2,465h1.4c-0.9-2-1.6-4.2-1.6-6.6v-5.3c-2,0.3-5.3,1-7.8,1.9
						c-12.4,4.6-18.2,16.6-18.2,30.6v1.5h11v-6.8C377,471.8,383.8,465,392.2,465z"/>
				</g>
				<g>
					<g>
						<g>
							<path style="fill:#E3BE9A;" d="M396.9,203.8c0,0,14.8,0,15.6,0s2.6-0.6,2.6-2.6c0-2-1.9-2.6-2.6-2.6h-15.6L396.9,203.8z"/>
							<path style="fill:#E9CDB1;" d="M415.1,201c-0.2-2-1.9-2-2.6-2h-15.6l0,2H415.1z"/>
						</g>
						<g>
							<path style="fill:#9B969E;" d="M412.6,200.5c-0.2,0-0.5,0.2-0.5,0.5v0.9v79.6c0,0,0,0,0,0.1c0,0.2,0.2,0.4,0.4,0.4h0
								c0.2,0,0.4-0.2,0.4-0.4c0,0,0,0,0-0.1v-79.7v-0.8C413,200.7,412.8,200.5,412.6,200.5z"/>
							<g>
								<path style="fill:#897558;" d="M413.1,278.1c-0.1,0.4-0.1,0.9-0.5,0.9h0c-0.4,0-0.4-0.6-0.4-1c-0.9,2.2-1.8,8-1.8,9
									c0,1.2,1,2.2,2.2,2.2c1.2,0,2.2-1,2.2-2.2C414.8,286,413.9,280.3,413.1,278.1z"/>
								<path style="fill:#765F3D;" d="M412.6,278.9c-0.4,0-0.4-0.5-0.5-0.8c-0.9,2.2-1.8,7.9-1.8,8.9c0,1.2,1,2.2,2.2,2.2V278.9
									L412.6,278.9z"/>
							</g>
						</g>
					</g>
					<g>
						<path style="fill:#CDDBDE;" d="M392.7,229.9c2.9,0,5.2-2.3,5.2-5.2l0-31.3h-57v31.3c0,1.5,0.6,2.8,1.6,3.8
							c0.9,0.9,2.2,1.5,3.6,1.5L392.7,229.9z"/>
						<path style="fill:#E1E9EB;" d="M363,193h-22v31.6c0,1.5,0.6,2.8,1.6,3.8c0.9,0.9,2,1.5,3.4,1.5l17,0V193z"/>
						<rect x="341" y="195" style="opacity:0.5;fill:#CDDBDE;" width="57" height="3"/>
						<rect x="339" y="193" style="fill:#E4EBED;" width="61" height="4"/>
					</g>
				</g>
			</g>
			<g>
				<g>
					<g>
						<rect x="400.9" y="425.9" style="fill:#AEC5CA;" width="4.4" height="2.2"/>
						<rect x="401" y="427" style="opacity:0.5;fill:#AEC5CA;" width="3" height="1"/>
					</g>
					<g>
						<path style="fill:#E3EBED;" d="M468.5,421.4h-67.5c-1.2,0-2.2,1-2.2,2.2c0,1.2,1,2.2,2.2,2.2h4.4h63.2c1.2,0,2.2-1,2.2-2.2
							C470.6,422.4,469.7,421.4,468.5,421.4z"/>
						<path style="opacity:0.5;fill:#E3EBED;" d="M468.5,424H427v2h41.5c1.2,0,2.2-1,2.2-2S469.7,424,468.5,424z"/>
					</g>
				</g>
				<g>
					<path style="fill:#E3EBED;" d="M393.6,464.9c1.3,2.6,3.6,4.4,7.3,4.4c0.5,0,1.4,0,3,0c5.3,0,9.2,3.9,7.3,8.2
						c-1.1,2.4-2.6,4.9-4.6,7.2c-1,1.2-0.7,2.1,0.8,2.1h36c1.6,0,1.9-0.9,0.8-2.1c-2-2.3-3.5-4.8-4.6-7.3c-1.9-4.4,2.7-8.7,8.2-11
						c13.3-5.6,22.7-18.9,22.7-34.3l0-2c0-1-0.7-1.8-1.5-2.1c-0.2-0.1-0.4-0.1-0.6-0.1h-74.1c-1.2,0-2.2,1-2.2,2.2v17.4v10.9
						C392.2,460.8,392.7,463.1,393.6,464.9z"/>
					<path style="opacity:0.5;fill:#E3EBED;" d="M469.3,428.1c-0.2-0.1-0.6-0.1-0.8-0.1H426v59h17.5c1.6,0,1.9-1.1,0.8-2.2
						c-2-2.3-3.5-4.9-4.6-7.3c-1.9-4.4,2.9-8.7,8.4-11.1c13.3-5.6,22.9-18.9,22.9-34.3v-2C471,429.1,470.2,428.4,469.3,428.1z"/>
					<path style="fill:#E3EBED;" d="M446.2,462.3c12.1-5.1,20-16.9,20-30.1h-4.4c-0.1,13.1-7.9,24.9-20.1,30.1
						C436.6,464.6,440.9,464.6,446.2,462.3z"/>
				</g>
			</g>
		</g>
	</g>
</g>
<g id="Toallla">
	<g>
		<g id="towel">
			<g>
				<polygon style="fill:none;" points="822.6,350.1 822.6,349.1 822.6,355.3 822.6,355.3 				"/>
				<path style="fill:none;" d="M773.6,348.1l5.1,0v1.6h0v-0.6c0-0.3,0-0.7,0.1-1L773.6,348.1L773.6,348.1z"/>
				<rect x="770.9" y="345.4" style="fill:#5DA4A6;" width="0" height="5.4"/>
				<polygon style="fill:#5DA4A6;" points="822.6,355.3 822.6,388.1 822.6,355.3 				"/>
				<path style="fill:#AEC5CA;" d="M767.9,350.1l10.9,0v-0.4v-1.6l-5.1,0h-5.4v0h-4c0-1.1,0.9-2,2-2h1.3c-0.7-1-1.9-1.7-3.3-1.7
					c-2.2,0-4,1.8-4,4c0,1.1,0.5,2.1,1.2,2.9c0.7,0.7,1.7,1.1,2.8,1.1C765.9,352.4,767.2,351.4,767.9,350.1z"/>
				<path style="fill:#AEC5CA;" d="M846.3,348.1l-23.4,0c-0.1,0.3-0.2,0.6-0.2,1l0,1h8v0l12,0c0.6,1.3,2,2.3,3.6,2.3
					c2.2,0,4-1.8,4-4c0-0.8-0.3-1.6-0.7-2.3c-0.7-1-1.9-1.7-3.3-1.7c-1.4,0-2.6,0.7-3.3,1.7h1.3C845.4,346.1,846.2,347,846.3,348.1z
					"/>
				<path style="fill:#AEC5CA;" d="M766.2,346.1c-1.1,0-2,0.9-2,2h4h5.4h5.2c0.2-0.7,0.5-1.4,0.9-2l-12.2,0H766.2z"/>
				<path style="fill:#AEC5CA;" d="M822.8,348.1l23.4,0c0-1.1-0.9-2-2-2H843h-13.3h-4C824.3,346.1,823.2,346.9,822.8,348.1z"/>
				<path style="fill:#C24854;" d="M822.6,350.1l0,38h6c1.1,0,2-0.9,2-2v-36v0H822.6z"/>
			</g>
		</g>
		<g>
			<path style="fill:#D76A74;" d="M820.6,393.9c1.1,0,2-0.9,2-2v-3.7v-39c0-0.4,0.1-0.7,0.2-1c0.4-1.2,1.5-2,2.8-2h4
				c-0.9-1.2-2.3-2-4-2l-41.9,0c-1.6,0-3.1,0.8-4,2c-0.4,0.6-0.8,1.3-0.9,2c-0.1,0.3-0.1,0.7-0.1,1v0.6l0,42.2
				c0,0.6,0.2,1.1,0.6,1.4c0.4,0.3,0.8,0.6,1.4,0.6L820.6,393.9z"/>
			<path style="opacity:0.2;fill:#D76A74;" d="M825.6,344h-25c-0.4,0-0.7,0.7-1,1c-0.5,0.6-0.6,1.3-0.8,2.1
				c-0.1,0.3,0.1,0.7,0.1,1.1v0.6l-0.2,44.1c0,0.4-0.1,1,0.1,1h21.8c1.1,0,2.4-1,2.4-2.1v-42.7c0-0.4-0.1-0.7,0-1.1
				c0.4-1.2,1.3-2.1,2.6-2.1h4C828.7,345,827.3,344,825.6,344z"/>
		</g>
	</g>
</g>
<g id="Bañera">
	<path style="fill:#D0D3CC;" d="M861.3,488.8c0,1.3-125.6,2.3-194.2,2.3s-124.2-1-124.2-2.3c0-1.2,55.6-2.3,124.2-2.3
		S861.3,487.6,861.3,488.8z"/>
	<g>
		<g>
			<path style="fill:#FFFFFF;" d="M607,146.7c-4.4,0-8.6,0.6-12.1,1.6c-3.9,1.2-6.6,2.8-7.6,4.6c0,0,4.9-4.1,19.7-4.1
				C611.3,148.8,611.3,146.7,607,146.7z"/>
			<path style="fill:#AEC5CA;" d="M541.7,421.2V145.6c0-17.1,13.9-31.1,31.1-31.1c17,0,30.8,13.7,31.1,30.7
				c-3.5,0.2-6.7,0.8-9.4,1.6c-5.6,1.7-9.2,4.5-9.2,7.6H607h21.8c0-3.1-3.6-5.9-9.2-7.6c-2.7-0.8-6-1.4-9.4-1.6
				c-0.1-9.8-4-18.6-10.2-25.2c-6.8-7.2-16.4-11.7-27.1-11.7c-20.6,0-37.3,16.7-37.3,37.3v271.6C536,417.6,540.6,420.5,541.7,421.2z
				"/>
			<path style="fill:#BCCFD3;" d="M607,148.8c-14.9,0-19.7,4.1-19.7,4.1c1-1.7,3.8-3.4,7.6-4.6c3.5-1.1,7.7-1.6,12.1-1.6
				C611.3,146.7,611.3,148.8,607,148.8z"/>
			<path style="fill:#BCCFD3;" d="M538.6,145.6c0-18.4,15-33.4,33.4-33.4c0.4,0,0.8-0.1,1-0.3c0.1-0.1,0.2-0.3,0.2-0.4
				c0-0.4-0.4-0.9-1.2-0.9c-19.3,0-35,15.7-35,35v272.6c0.3,0.2,0.7,0.5,1.1,0.7c0.2,0.1,0.3,0.2,0.5,0.3L538.6,145.6z"/>
			<path style="fill:#94B2B9;" d="M630.9,155.1c-0.6-0.6-1.3-1.1-2.2-1.1H607h-21.8c-0.9,0-1.6,0.6-2.2,1.1
				c-0.6,0.6-0.9,1.5-0.9,2.3c0,0.9,0.3,1.9,0.9,2.4c0.6,0.6,1.3,1.1,2.2,1.1h43.5c0.9,0,1.6-0.5,2.2-1.1c0.6-0.6,0.9-1.5,0.9-2.4
				C631.8,156.7,631.5,155.7,630.9,155.1z"/>
			<path style="fill:#7AA0A8;" d="M607,160.7l21.8,0c0.9,0,1.6-0.4,2.2-0.9c0.6-0.6,0.9-1.3,0.9-2.2c0-0.9-0.3-1.6-0.9-2.2
				c-0.6-0.6-1.3-0.9-2.2-0.9H607V160.7z"/>
		</g>
		<g>
			<g>
				<path style="fill:#E3EBED;" d="M576.9,478.8h145.7c7,0,16.1-2.3,16.1-2.3c23.6-7,47.2-57.5,47.2-61c0-1.6-0.6-3.1-1.6-4.2
					c-1.2-1.3-2.8-2.1-4.7-2.1H525.8h-5.9c-3.5,0-6.3,2.8-6.3,6.3c0,1.7,0.7,3.2,1.8,4.4c0,0,0,0.1,0.1,0.1c0,0,0,0,0.1,0.1
					c1.1,1.1,4.5,3.7,4.6,4.6c0.7,14.8,7,28.1,16.9,37.9c6.6,6.5,14.7,11.4,23.8,14C560.8,476.5,570.5,478.8,576.9,478.8z"/>
				<path style="fill:#CDDBDE;" d="M779.6,409.2H649.7v69.7h72.9c7,0,16.1-2.3,16.1-2.3c23.6-7,47.2-57.5,47.2-61
					c0-1.6-0.6-3.1-1.6-4.2C783.1,410,781.4,409.2,779.6,409.2z"/>
			</g>
			<g>
				<path style="opacity:0.5;fill:#E3EBED;" d="M518.7,409h-4.2c-2.5,0-4.5,2.1-4.5,4.6c0,1.2,0.5,2.3,1.2,3.1c0,0,0,0.1,0,0.1
					c0,0,0,0,0,0c0.7,0.7,1.7,1.2,2.8,1.2H650v-9H518.7z"/>
			</g>
			<path style="opacity:0.5;fill:#E3EBED;" d="M515.4,419.9C515.4,419.9,515.4,420,515.4,419.9L784,420c0.8-0.8,1.4-1.8,1.7-3h-272
				C514,418.1,514.6,419.1,515.4,419.9C515.3,419.8,515.3,419.9,515.4,419.9z"/>
			<g>
				<path style="fill:#E3EBED;" d="M511.3,416.8C511.3,416.8,511.3,416.8,511.3,416.8c0.8,0.8,1.8,1.2,2.9,1.3h272.9
					c2.3-0.2,4.2-2.1,4.2-4.4c0-1.1-0.4-2.2-1.2-3c-0.8-0.9-2-1.5-3.3-1.5H518.7h-4.2c-2.5,0-4.5,2-4.5,4.5
					C510,414.8,510.5,415.9,511.3,416.8C511.2,416.7,511.3,416.8,511.3,416.8z"/>
				<path style="opacity:0.5;fill:#E3EBED;" d="M791.3,413.6c0-1.1-0.4-2.2-1.2-3c-0.8-0.9-2-1.6-3.3-1.6H650v9h137.1
					C789.4,418,791.3,416,791.3,413.6z"/>
			</g>
			<g>
				<path style="fill:#E4CA90;" d="M567.9,486.1l8.4-8.4l0.5-0.5c2.5-2.5,2.5-6.5,0-9c-2.5-2.5-6.5-2.5-9,0l-7.2,7.2l-1.8,1.8
					c-1.2,1.2-1.8,2.8-1.8,4.4c0,1.6,0.6,3.3,1.8,4.6c0.3,0.3,0.6,0.6,1,0.8C562.4,488.5,565.8,488.2,567.9,486.1z"/>
				<path style="opacity:0.35;fill:#E4CA9A;" d="M577.7,472.4c-2.1-2.1-5.6-2.1-7.8,0l-6.2,6.2l-1.6,1.6c-1.1,1.1-1.6,2.4-1.6,3.8
					c0,1.4,0.5,2.7,1.5,3.8c2.1,0.5,4.3-0.1,5.9-1.7l8.4-8.4l0.5-0.5c0.9-0.9,1.5-2.1,1.7-3.4C578.4,473.3,578.1,472.8,577.7,472.4z
					"/>
			</g>
			<g>
				<path style="fill:#E4CA90;" d="M722.6,468.1c-2.5,2.5-2.5,6.5,0,9l0.5,0.5l8.4,8.4c2.5,2.5,6.5,2.5,9,0c2.5-2.5,2.5-6.5,0-9
					l-1.8-1.8l-7.2-7.2C729,465.7,725,465.7,722.6,468.1z"/>
				<path style="opacity:0.15;fill:#E4CA9A;" d="M721.5,475.7c0.3,0.5,0.6,1,1,1.4l0.5,0.5l8.4,8.4c2.5,2.5,6.5,2.5,9,0
					c0.2-0.2,0.4-0.5,0.6-0.7c-0.1-1.4-0.6-2.7-1.7-3.7l-1.7-1.7l-6.6-6.6c-2.3-2.3-6-2.3-8.2,0C722.2,474,721.8,474.8,721.5,475.7z
					"/>
			</g>
		</g>
	</g>
</g>
<g id="Miscelaneas">
</g>
</svg>
