<?xml version="1.0" encoding="utf-8"?>
<!-- Generator: Adobe Illustrator 16.0.0, SVG Export Plug-In . SVG Version: 6.00 Build 0)  -->
<!DOCTYPE svg PUBLIC "-//W3C//DTD SVG 1.1//EN" "http://www.w3.org/Graphics/SVG/1.1/DTD/svg11.dtd">
<svg version="1.1" id="Layer_1" xmlns="http://www.w3.org/2000/svg" xmlns:xlink="http://www.w3.org/1999/xlink" x="0px" y="0px"
	 width="1280px" height="700px" viewBox="0 0 1280 700" enable-background="new 0 0 1280 700" xml:space="preserve">
<g id="Miscelaneas">
	<g>
		<g>
			<g>
				<rect x="553.7" y="629.5" fill="#569EC6" width="17.899" height="2.7"/>
				<rect x="709.8" y="629.5" fill="#569EC6" width="17.9" height="2.7"/>
			</g>
		</g>
	</g>
</g>
<g id="Titular">
	<g>
		<g enable-background="new    ">
			<path fill="#968670" d="M584.338,636.617c-1.114,0-2.62-0.109-3.09-0.188c-0.267-0.047-0.408-0.173-0.408-0.486v-10.557
				c0-0.314,0.141-0.439,0.408-0.486c0.47-0.078,1.976-0.188,3.09-0.188c3.137,0,4.925,1.694,4.925,4.8v2.306
				C589.264,634.924,587.476,636.617,584.338,636.617z M587.099,629.511c0-2.353-1.192-2.965-2.761-2.965
				c-0.58,0-0.988,0.031-1.317,0.048v8.141c0.329,0.016,0.737,0.047,1.317,0.047c1.569,0,2.761-0.611,2.761-2.965V629.511z"/>
			<path fill="#968670" d="M595.535,636.617c-2.525,0-4.313-1.098-4.313-4.438v-7.043c0-0.173,0.141-0.298,0.313-0.298h1.553
				c0.172,0,0.313,0.125,0.313,0.298v7.043c0,1.788,0.439,2.635,2.133,2.635c1.694,0,2.133-0.847,2.133-2.635v-7.043
				c0-0.173,0.141-0.298,0.314-0.298h1.553c0.172,0,0.313,0.125,0.313,0.298v7.043C599.849,635.519,598.061,636.617,595.535,636.617
				z"/>
			<path fill="#968670" d="M610.402,636.492h-1.914c-0.172,0-0.235-0.157-0.313-0.313l-2.259-4.188h-0.22
				c-0.408,0-1.035-0.047-1.396-0.062v4.251c0,0.172-0.125,0.313-0.298,0.313h-1.568c-0.173,0-0.314-0.142-0.314-0.313v-10.792
				c0-0.314,0.188-0.424,0.502-0.471c0.816-0.126,1.93-0.204,3.075-0.204c2.416,0,4.518,0.862,4.518,3.545v0.142
				c0,1.662-0.832,2.697-2.118,3.199l2.463,4.581c0.031,0.047,0.031,0.094,0.031,0.125
				C610.59,636.414,610.527,636.492,610.402,636.492z M608.049,628.257c0-1.177-0.785-1.679-2.353-1.679
				c-0.33,0-1.114,0.032-1.396,0.063v3.529c0.251,0.016,1.129,0.047,1.396,0.047c1.616,0,2.353-0.439,2.353-1.819V628.257z"/>
			<path fill="#968670" d="M620.736,636.492h-1.663c-0.141,0-0.267-0.125-0.298-0.267l-0.722-2.98h-3.608l-0.722,2.98
				c-0.031,0.142-0.157,0.267-0.298,0.267h-1.663c-0.157,0-0.283-0.109-0.283-0.267c0-0.016,0.016-0.047,0.016-0.078l2.572-9.836
				c0.376-1.458,1.506-1.6,2.18-1.6c0.675,0,1.804,0.142,2.181,1.6l2.572,9.836c0,0.031,0.016,0.062,0.016,0.078
				C621.018,636.383,620.893,636.492,620.736,636.492z M616.5,626.798c-0.047-0.188-0.094-0.251-0.251-0.251
				c-0.157,0-0.204,0.063-0.251,0.251l-1.129,4.659h2.761L616.5,626.798z"/>
			<path fill="#968670" d="M630.678,636.492h-1.584c-0.376,0-0.706,0-0.957-0.564l-3.482-7.64c-0.047-0.094-0.094-0.125-0.142-0.125
				c-0.047,0-0.078,0.031-0.078,0.125v7.891c0,0.172-0.125,0.313-0.298,0.313h-1.333c-0.172,0-0.314-0.142-0.314-0.313v-10.714
				c0-0.345,0.283-0.627,0.627-0.627h1.694c0.33,0,0.502,0.094,0.69,0.502l3.655,8.062c0.031,0.078,0.078,0.125,0.125,0.125
				c0.032,0,0.079-0.047,0.079-0.141v-8.251c0-0.173,0.125-0.298,0.298-0.298h1.349c0.173,0,0.298,0.125,0.298,0.298v10.729
				C631.305,636.21,631.022,636.492,630.678,636.492z"/>
			<path fill="#968670" d="M640.4,626.657h-2.745v9.521c0,0.172-0.141,0.313-0.314,0.313h-1.553c-0.172,0-0.313-0.142-0.313-0.313
				v-9.521h-2.745c-0.173,0-0.314-0.11-0.314-0.282v-1.239c0-0.173,0.141-0.298,0.314-0.298h7.67c0.172,0,0.313,0.125,0.313,0.298
				v1.239C640.713,626.547,640.572,626.657,640.4,626.657z"/>
			<path fill="#968670" d="M648.491,636.398c-0.502,0.078-1.114,0.219-2.98,0.219c-2.039,0-3.624-0.549-3.624-3.215v-5.475
				c0-2.667,1.585-3.216,3.624-3.216c1.866,0,2.479,0.142,2.98,0.22c0.235,0.031,0.313,0.109,0.313,0.329v1.004
				c0,0.173-0.141,0.313-0.313,0.313h-3.2c-0.91,0-1.238,0.314-1.238,1.35v1.694h4.25c0.173,0,0.314,0.141,0.314,0.313v1.129
				c0,0.173-0.142,0.314-0.314,0.314h-4.25v2.023c0,1.035,0.328,1.349,1.238,1.349h3.2c0.173,0,0.313,0.142,0.313,0.313v1.004
				C648.805,636.288,648.727,636.367,648.491,636.398z"/>
			<path fill="#968670" d="M661.443,636.398c-0.502,0.078-1.113,0.219-2.98,0.219c-2.039,0-3.623-0.549-3.623-3.215v-5.475
				c0-2.667,1.584-3.216,3.623-3.216c1.867,0,2.479,0.142,2.98,0.22c0.236,0.031,0.314,0.109,0.314,0.329v1.004
				c0,0.173-0.142,0.313-0.314,0.313h-3.199c-0.91,0-1.239,0.314-1.239,1.35v1.694h4.251c0.172,0,0.313,0.141,0.313,0.313v1.129
				c0,0.173-0.142,0.314-0.313,0.314h-4.251v2.023c0,1.035,0.329,1.349,1.239,1.349h3.199c0.173,0,0.314,0.142,0.314,0.313v1.004
				C661.758,636.288,661.68,636.367,661.443,636.398z"/>
			<path fill="#968670" d="M670.162,636.398c-0.471,0.109-1.835,0.219-2.666,0.219c-2.039,0-3.624-0.549-3.624-3.215v-8.251
				c0-0.173,0.142-0.313,0.313-0.313h1.553c0.174,0,0.314,0.141,0.314,0.313v8.251c0,1.035,0.313,1.349,1.224,1.349h2.886
				c0.173,0,0.314,0.142,0.314,0.313v1.004C670.477,636.288,670.397,636.35,670.162,636.398z"/>
			<path fill="#968670" d="M679.382,636.617c-1.114,0-2.62-0.109-3.09-0.188c-0.267-0.047-0.408-0.173-0.408-0.486v-10.557
				c0-0.314,0.142-0.439,0.408-0.486c0.47-0.078,1.976-0.188,3.09-0.188c3.138,0,4.926,1.694,4.926,4.8v2.306
				C684.308,634.924,682.52,636.617,679.382,636.617z M682.143,629.511c0-2.353-1.191-2.965-2.761-2.965
				c-0.58,0-0.988,0.031-1.317,0.048v8.141c0.329,0.016,0.737,0.047,1.317,0.047c1.569,0,2.761-0.611,2.761-2.965V629.511z"/>
			<path fill="#968670" d="M689.857,621.888l-1.852,1.945c-0.125,0.141-0.188,0.203-0.376,0.203h-1.349
				c-0.095,0-0.142-0.047-0.142-0.109c0-0.047,0.016-0.109,0.062-0.157l1.49-1.882c0.142-0.173,0.204-0.235,0.407-0.235h1.647
				c0.11,0,0.173,0.047,0.173,0.109C689.92,621.794,689.904,621.842,689.857,621.888z M688.21,636.492h-1.553
				c-0.173,0-0.313-0.142-0.313-0.313v-11.043c0-0.173,0.141-0.298,0.313-0.298h1.553c0.173,0,0.313,0.125,0.313,0.298v11.043
				C688.523,636.35,688.383,636.492,688.21,636.492z"/>
			<path fill="#968670" d="M699.251,636.492h-1.663c-0.141,0-0.266-0.125-0.298-0.267l-0.722-2.98h-3.607l-0.722,2.98
				c-0.031,0.142-0.157,0.267-0.298,0.267h-1.662c-0.158,0-0.283-0.109-0.283-0.267c0-0.016,0.016-0.047,0.016-0.078l2.572-9.836
				c0.377-1.458,1.506-1.6,2.181-1.6s1.804,0.142,2.181,1.6l2.572,9.836c0,0.031,0.016,0.062,0.016,0.078
				C699.533,636.383,699.408,636.492,699.251,636.492z M695.016,626.798c-0.047-0.188-0.094-0.251-0.251-0.251
				s-0.204,0.063-0.251,0.251l-1.129,4.659h2.76L695.016,626.798z"/>
		</g>
		<g enable-background="new    ">
			<path fill="#72ADC8" d="M539.358,616.76c-1.834,0-5.215-0.144-6.905-0.431c-1.69-0.288-2.266-0.792-2.266-2.733v-21.112
				c0-1.941,0.575-2.445,2.229-2.697c1.511-0.251,5.035-0.432,6.833-0.432c7.085,0,11.688,1.655,11.688,7.697v0.611
				c0,2.266-1.151,4.208-2.769,5.106c1.618,0.936,2.913,2.913,2.913,5.215v0.468C551.083,615.394,545.113,616.76,539.358,616.76z
				 M543.89,597.592c0-1.618-0.719-2.302-3.273-2.302c-0.684,0-2.985,0.036-3.237,0.036v5.106h3.489
				c2.374,0,3.021-1.007,3.021-2.266V597.592z M544.034,607.914c0-1.438-0.791-2.59-3.165-2.59h-3.489v5.503h2.949
				c2.805,0,3.704-1.043,3.704-2.59V607.914z"/>
			<path fill="#72ADC8" d="M571.04,616.33c-1.367,0.18-3.597,0.431-7.085,0.431c-4.604,0-9.207-1.078-9.207-8.056v-11.293
				c0-6.941,4.604-8.057,9.207-8.057c3.488,0,5.718,0.252,7.085,0.432c0.468,0.072,0.719,0.288,0.719,0.72v4.388
				c0,0.396-0.324,0.72-0.719,0.72h-7.265c-1.294,0-1.726,0.396-1.726,1.798v2.625h8.847c0.396,0,0.719,0.324,0.719,0.72v4.244
				c0,0.396-0.323,0.719-0.719,0.719h-8.847v2.985c0,1.402,0.432,1.798,1.726,1.798h7.265c0.396,0,0.719,0.324,0.719,0.72v4.388
				C571.759,616.042,571.508,616.258,571.04,616.33z"/>
			<path fill="#72ADC8" d="M585.171,616.76c-1.834,0-5.215-0.144-6.905-0.431c-1.69-0.288-2.266-0.792-2.266-2.733v-21.112
				c0-1.941,0.575-2.445,2.229-2.697c1.511-0.251,5.035-0.432,6.833-0.432c7.085,0,11.688,1.655,11.688,7.697v0.611
				c0,2.266-1.151,4.208-2.769,5.106c1.618,0.936,2.913,2.913,2.913,5.215v0.468C596.896,615.394,590.925,616.76,585.171,616.76z
				 M589.703,597.592c0-1.618-0.719-2.302-3.273-2.302c-0.684,0-2.985,0.036-3.237,0.036v5.106h3.489
				c2.374,0,3.021-1.007,3.021-2.266V597.592z M589.846,607.914c0-1.438-0.791-2.59-3.165-2.59h-3.489v5.503h2.949
				c2.805,0,3.704-1.043,3.704-2.59V607.914z"/>
			<path fill="#72ADC8" d="M616.853,616.33c-1.367,0.18-3.597,0.431-7.085,0.431c-4.604,0-9.207-1.078-9.207-8.056v-11.293
				c0-6.941,4.604-8.057,9.207-8.057c3.488,0,5.718,0.252,7.085,0.432c0.468,0.072,0.719,0.288,0.719,0.72v4.388
				c0,0.396-0.324,0.72-0.719,0.72h-7.265c-1.294,0-1.726,0.396-1.726,1.798v2.625h8.847c0.396,0,0.719,0.324,0.719,0.72v4.244
				c0,0.396-0.323,0.719-0.719,0.719h-8.847v2.985c0,1.402,0.432,1.798,1.726,1.798h7.265c0.396,0,0.719,0.324,0.719,0.72v4.388
				C617.572,616.042,617.32,616.258,616.853,616.33z"/>
			<path fill="#72ADC8" d="M643.067,616.437h-6.617c-0.396,0-0.54-0.359-0.719-0.72l-4.568-8.775c-0.54,0-0.935,0-2.05-0.035v8.811
				c0,0.396-0.324,0.72-0.719,0.72h-5.827c-0.396,0-0.755-0.323-0.755-0.72v-23.521c0-1.727,0.575-2.122,2.086-2.374
				c1.438-0.216,5.035-0.468,7.588-0.468c6.689,0,11.257,2.122,11.257,8.704v0.575c0,3.849-2.122,6.114-4.388,7.085l5.215,9.782
				c0.071,0.145,0.108,0.288,0.108,0.396C643.68,616.221,643.428,616.437,643.067,616.437z M635.479,598.059
				c0-1.69-1.187-2.554-3.597-2.554c-0.251,0-1.726,0-2.769,0.072v5.718c0.18,0.036,2.41,0.036,2.625,0.036
				c2.769,0,3.74-0.971,3.74-2.661V598.059z"/>
			<path fill="#72ADC8" d="M670.647,615.754l-1.007-4.999h-6.402l-1.007,4.999c-0.071,0.36-0.216,0.684-0.72,0.684h-6.221
				c-0.54,0-0.648-0.359-0.576-0.755l4.819-22.011c0.791-3.561,3.489-4.28,6.905-4.28s6.114,0.72,6.905,4.28l4.819,22.011
				c0.107,0.432,0,0.755-0.539,0.755h-6.258C670.863,616.437,670.719,616.114,670.647,615.754z M666.835,595.865
				c-0.071-0.323-0.071-0.503-0.396-0.503s-0.324,0.18-0.396,0.503l-1.763,9.136h4.316L666.835,595.865z"/>
			<path fill="#72ADC8" d="M699.667,615.898c-2.05,0.432-4.819,0.862-8.308,0.862c-4.316,0-10.861-2.05-10.861-11.796v-3.776
				c0-9.854,6.365-11.833,11.365-11.833c3.74,0,6.401,0.576,7.876,0.972c0.503,0.144,0.683,0.216,0.683,0.684v4.531
				c0,0.503-0.18,0.611-0.611,0.575c-1.366-0.107-4.279-0.323-6.941-0.323c-3.416,0-4.963,1.043-4.963,5.395v3.812
				c0,4.819,2.051,5.502,3.453,5.502c0.684,0,1.367-0.035,1.979-0.107v-7.373c0-0.396,0.287-0.719,0.683-0.719h5.683
				c0.396,0,0.719,0.323,0.719,0.719v12.049C700.422,615.61,700.242,615.79,699.667,615.898z"/>
			<path fill="#72ADC8" d="M715.633,616.76c-5.647,0-10.862-1.762-10.862-10.466v-15.86c0-0.396,0.36-0.719,0.755-0.719h5.826
				c0.396,0,0.721,0.323,0.721,0.719v15.86c0,3.273,1.006,4.316,3.561,4.316c2.553,0,3.596-1.043,3.596-4.316v-15.86
				c0-0.396,0.324-0.719,0.719-0.719h5.827c0.396,0,0.755,0.323,0.755,0.719v15.86C726.529,614.999,721.279,616.76,715.633,616.76z"
				/>
			<path fill="#72ADC8" d="M745.443,615.754l-1.008-4.999h-6.401l-1.007,4.999c-0.072,0.36-0.217,0.684-0.72,0.684h-6.222
				c-0.539,0-0.647-0.359-0.576-0.755l4.82-22.011c0.791-3.561,3.488-4.28,6.904-4.28c3.417,0,6.115,0.72,6.906,4.28l4.818,22.011
				c0.108,0.432,0,0.755-0.539,0.755h-6.258C745.658,616.437,745.515,616.114,745.443,615.754z M741.631,595.865
				c-0.072-0.323-0.072-0.503-0.396-0.503c-0.323,0-0.323,0.18-0.395,0.503l-1.763,9.136h4.315L741.631,595.865z"/>
		</g>
	</g>
</g>
</svg>
