<?xml version="1.0" encoding="utf-8"?>
<!-- Generator: Adobe Illustrator 16.0.0, SVG Export Plug-In . SVG Version: 6.00 Build 0)  -->
<!DOCTYPE svg PUBLIC "-//W3C//DTD SVG 1.1//EN" "http://www.w3.org/Graphics/SVG/1.1/DTD/svg11.dtd">
<svg version="1.1" id="Layer_1" xmlns="http://www.w3.org/2000/svg" xmlns:xlink="http://www.w3.org/1999/xlink" x="0px" y="0px"
	 width="130.667px" height="100px" viewBox="0 0 130.667 100" enable-background="new 0 0 130.667 100" xml:space="preserve">
<g>
	<g>
		<path fill="#5BA4C2" d="M35.724,99h-0.49c-0.11,0-0.2-0.09-0.2-0.2v-5.927c0-0.02,0-0.029-0.01-0.029c-0.01,0-0.01,0-0.02,0.02
			l-1.429,2.958c-0.1,0.2-0.2,0.29-0.45,0.29h-0.459c-0.25,0-0.35-0.09-0.45-0.29l-1.429-2.958c-0.01-0.02-0.01-0.02-0.02-0.02
			c-0.01,0-0.01,0.01-0.01,0.029V98.8c0,0.11-0.09,0.2-0.2,0.2h-0.49c-0.11,0-0.2-0.09-0.2-0.2v-6.936c0-0.16,0.13-0.29,0.29-0.29
			h0.65c0.18,0,0.26,0.04,0.32,0.17l1.649,3.428c0.04,0.09,0.07,0.11,0.12,0.11c0.05,0,0.08-0.021,0.12-0.11l1.649-3.428
			c0.06-0.13,0.14-0.17,0.32-0.17h0.649c0.16,0,0.29,0.13,0.29,0.29V98.8C35.924,98.91,35.834,99,35.724,99z"/>
		<path fill="#5BA4C2" d="M42.814,99h-0.589c-0.09,0-0.15-0.07-0.17-0.15l-0.65-2.298h-2.588l-0.64,2.298
			c-0.02,0.08-0.1,0.15-0.18,0.15h-0.589c-0.1,0-0.17-0.07-0.17-0.16c0-0.02,0-0.05,0.01-0.069l1.849-6.507
			c0.17-0.609,0.64-0.76,1.02-0.76c0.37,0,0.839,0.141,1.009,0.75l1.849,6.517c0.01,0.02,0.01,0.05,0.01,0.069
			C42.984,98.93,42.924,99,42.814,99z M40.306,92.474c-0.03-0.11-0.09-0.18-0.19-0.18c-0.11,0-0.17,0.069-0.2,0.18l-0.909,3.288
			h2.208L40.306,92.474z"/>
		<path fill="#5BA4C2" d="M45.137,99h-0.549c-0.1,0-0.18-0.09-0.18-0.2v-7.036c0-0.1,0.07-0.189,0.18-0.189h0.549
			c0.1,0,0.18,0.08,0.18,0.189V98.8C45.317,98.9,45.247,99,45.137,99z"/>
		<path fill="#5BA4C2" d="M52.175,99h-0.62c-0.16,0-0.27-0.06-0.32-0.16l-3.088-5.866c-0.01-0.021-0.02-0.03-0.03-0.03
			c-0.01,0-0.01,0.01-0.01,0.03v5.837c0,0.1-0.08,0.189-0.18,0.189h-0.52c-0.1,0-0.18-0.02-0.18-0.12v-7.026
			c0-0.159,0.13-0.279,0.29-0.279h0.55c0.28,0,0.33,0.05,0.41,0.2l3.068,5.836l0.02,0.03c0.01,0,0.01-0.02,0.01-0.03v-5.847
			c0-0.1,0.08-0.189,0.18-0.189h0.53c0.11,0,0.18,0.09,0.18,0.189v6.946C52.464,98.87,52.334,99,52.175,99z"/>
		<path fill="#5BA4C2" d="M58.746,99.07c-0.7,0-1.22-0.07-1.659-0.141c-0.17-0.029-0.19-0.069-0.19-0.18v-0.399
			c0-0.11,0.08-0.16,0.17-0.16c0.01,0,0.02,0,0.03,0c0.46,0.04,1.189,0.06,1.649,0.06c1.199,0,1.519-0.479,1.519-1.179
			c0-0.5-0.29-0.78-1.199-1.34l-0.97-0.589c-0.919-0.561-1.379-1.07-1.379-1.869c0-1.21,0.87-1.77,2.389-1.77
			c0.59,0,1.359,0.061,1.739,0.12c0.1,0.021,0.17,0.07,0.17,0.17v0.43c0,0.1-0.07,0.16-0.17,0.16c-0.01,0-0.01,0-0.02,0
			c-0.44-0.03-1.139-0.061-1.719-0.061c-1.029,0-1.469,0.221-1.469,0.95c0,0.47,0.33,0.749,1.089,1.209l0.919,0.55
			c1.159,0.689,1.569,1.239,1.569,2.039C61.214,98.03,60.715,99.07,58.746,99.07z"/>
		<path fill="#5BA4C2" d="M64.646,96.042c-0.32,0-0.74-0.03-1-0.051V98.8c0,0.101-0.07,0.2-0.18,0.2h-0.54
			c-0.1,0-0.18-0.09-0.18-0.2v-6.966c0-0.14,0.09-0.229,0.24-0.25c0.43-0.05,1.079-0.08,1.659-0.08c1.62,0,2.798,0.56,2.798,2.169
			v0.13C67.444,95.472,66.266,96.042,64.646,96.042z M66.535,93.673c0-1.01-0.6-1.399-1.889-1.399c-0.31,0-0.76,0.021-1,0.04v2.929
			c0.23,0.01,0.739,0.04,1,0.04c1.37,0,1.889-0.44,1.889-1.479V93.673z"/>
		<path fill="#5BA4C2" d="M71.455,99.07c-1.568,0-2.709-0.92-2.709-3.139v-1.289c0-2.219,1.141-3.139,2.709-3.139
			c1.569,0,2.699,0.92,2.699,3.139v1.289C74.154,98.15,73.024,99.07,71.455,99.07z M73.234,94.643c0-1.68-0.68-2.319-1.779-2.319
			c-1.09,0-1.789,0.64-1.789,2.319v1.289c0,1.679,0.689,2.318,1.789,2.318c1.09,0,1.779-0.64,1.779-2.318V94.643z"/>
		<path fill="#5BA4C2" d="M80.734,99h-0.62c-0.16,0-0.271-0.06-0.319-0.16l-3.089-5.866c-0.011-0.021-0.021-0.03-0.03-0.03
			s-0.01,0.01-0.01,0.03v5.837c0,0.1-0.08,0.189-0.18,0.189h-0.52c-0.101,0-0.18-0.02-0.18-0.12v-7.026
			c0-0.159,0.129-0.279,0.289-0.279h0.55c0.28,0,0.329,0.05,0.409,0.2l3.068,5.836l0.021,0.03c0.01,0,0.01-0.02,0.01-0.03v-5.847
			c0-0.1,0.08-0.189,0.181-0.189h0.529c0.109,0,0.18,0.09,0.18,0.189v6.946C81.023,98.87,80.894,99,80.734,99z"/>
		<path fill="#5BA4C2" d="M84.586,99.07c-0.7,0-1.221-0.07-1.66-0.141c-0.17-0.029-0.189-0.069-0.189-0.18v-0.399
			c0-0.11,0.08-0.16,0.17-0.16c0.01,0,0.02,0,0.029,0c0.461,0.04,1.189,0.06,1.65,0.06c1.199,0,1.519-0.479,1.519-1.179
			c0-0.5-0.29-0.78-1.199-1.34l-0.97-0.589c-0.92-0.561-1.379-1.07-1.379-1.869c0-1.21,0.869-1.77,2.389-1.77
			c0.59,0,1.359,0.061,1.738,0.12c0.101,0.021,0.17,0.07,0.17,0.17v0.43c0,0.1-0.069,0.16-0.17,0.16c-0.01,0-0.01,0-0.02,0
			c-0.439-0.03-1.139-0.061-1.719-0.061c-1.029,0-1.469,0.221-1.469,0.95c0,0.47,0.329,0.749,1.089,1.209l0.919,0.55
			c1.16,0.689,1.569,1.239,1.569,2.039C87.054,98.03,86.555,99.07,84.586,99.07z"/>
		<path fill="#5BA4C2" d="M91.115,99.07c-1.569,0-2.709-0.92-2.709-3.139v-1.289c0-2.219,1.14-3.139,2.709-3.139
			c1.568,0,2.698,0.92,2.698,3.139v1.289C93.813,98.15,92.684,99.07,91.115,99.07z M92.895,94.643c0-1.68-0.68-2.319-1.779-2.319
			c-1.09,0-1.789,0.64-1.789,2.319v1.289c0,1.679,0.689,2.318,1.789,2.318c1.089,0,1.779-0.64,1.779-2.318V94.643z"/>
		<path fill="#5BA4C2" d="M100.394,99h-0.64c-0.12,0-0.18,0-0.26-0.13l-1.789-2.979c-0.03,0-0.061,0-0.09,0c-0.061,0-0.11,0-0.17,0
			c-0.33,0-0.57-0.01-1.1-0.03V98.8c0,0.101-0.07,0.2-0.18,0.2h-0.54c-0.101,0-0.18-0.09-0.18-0.2v-6.996
			c0-0.14,0.06-0.199,0.239-0.22c0.43-0.05,1.18-0.08,1.76-0.08c1.578,0,2.799,0.53,2.799,2.149v0.069c0,1.119-0.66,1.779-1.57,2.02
			l1.819,3.038c0.021,0.03,0.03,0.06,0.03,0.09C100.523,98.94,100.473,99,100.394,99z M99.344,93.653c0-1-0.649-1.33-1.898-1.33
			c-0.311,0-0.859,0-1.1,0.03v2.738c0.439,0.011,0.869,0.021,1.1,0.021c1.229,0,1.898-0.31,1.898-1.39V93.653z"/>
	</g>
</g>
<g>
	<g>
		<path fill-rule="evenodd" clip-rule="evenodd" fill="#187DBA" d="M58.291,18.462c1.009,0.551,2.85,0.953,3.923,0.203
			c1.4-0.979,2.105-2.953,1.94-6.798C64.03,8.989,63.42,8.479,63.42,8.479s4.362,6.354,0.917,11.266
			C62.898,21.796,59.024,20.568,58.291,18.462L58.291,18.462z"/>
		<path fill-rule="evenodd" clip-rule="evenodd" fill="#187DBA" d="M69.499,44.426c0.606,1.614,1.12,2.974,1.371,3.623
			c0.262-1.837,0.429-3.638,0.389-4.868c-0.092-2.84-0.916-8.427-1.19-10.9c-0.275-2.473-0.55-6.686,0.55-15.295
			c1.099-8.609,7.236-17.678,7.236-17.678s-3.572,3.39-6.87,11.998c-3.298,8.609-3.022,12.64-3.298,16.486
			c-0.274,3.847,0.732,8.427,1.282,11.541C69.277,41.078,69.47,42.679,69.499,44.426L69.499,44.426z"/>
		<path fill-rule="evenodd" clip-rule="evenodd" fill="#187DBA" d="M68.939,51.014c-0.6,3.503-1.637,7.499-2.169,9.477
			c-0.641,2.382-1.008,6.961-1.008,6.961c0.184-1.558,1.1-3.022,1.466-4.945c0.367-1.925,1.648-5.862,2.382-8.244
			c0.24-0.78,0.51-1.937,0.761-3.237L68.939,51.014L68.939,51.014z"/>
		<path fill-rule="evenodd" clip-rule="evenodd" fill="#187DBA" d="M43.875,21.29c4.764,1.923,6.229,1.373,9.893,2.931
			c3.665,1.557,4.946,4.487,5.955,7.418c1.008,2.932,0.366,7.511-0.091,10.991c-0.14,1.059-0.21,2.117-0.219,3.163
			c0.782-1.672,1.825-4.022,3.209-7.292c0.09-1.381,0.1-2.789-0.059-4.113c-0.549-4.58-2.748-8.152-5.129-10.076
			c-2.382-1.923-5.313-2.289-11.726-3.571c-6.412-1.282-11.267-5.495-10.351-4.579C36.272,17.075,39.112,19.366,43.875,21.29
			L43.875,21.29z"/>
		<path fill-rule="evenodd" clip-rule="evenodd" fill="#187DBA" d="M64.853,64.888c-0.092-3.664,0.183-4.488-1.191-9.344
			c-1.304-4.603-1.7-5.583-1.815-8.562h-0.047c-0.697,1.582-1.241,2.788-1.411,3.129c-0.137,0.274-0.283,0.525-0.53,0.708
			c0.117,0.613,0.255,1.214,0.414,1.796c0.824,3.021,2.473,7.326,2.748,9.433c0.274,2.107,0.331,3,0.606,7.304
			c0.275,4.305,1.324,9.957,1.324,9.957s0.475-1.408,0.177-3.889C64.853,73.13,64.944,68.551,64.853,64.888L64.853,64.888z"/>
		<path fill-rule="evenodd" clip-rule="evenodd" fill="#FBA476" d="M72.629,11.696c-0.58,1.759-1.039,3.586-1.269,5.383
			c-0.444,3.475-0.664,6.221-0.748,8.438c2.927-1.803,6.149-3.32,8.493-4.02c3.601-1.071,5.941,8.493,7.987,7.802
			c1.228-0.415,4.974-1.602,7.388-2.404c2.432-0.81,9.182,2.274,9.947,2.662c1.077,0.546,2.137,1.046,3.174,1.502
			c-0.055-0.203-0.028-0.421,0.088-0.601c0.138-0.213,0.375-0.342,0.629-0.342h14.73c0.254,0,0.491,0.129,0.629,0.342
			c0.138,0.214,0.196,0.504,0.054,0.714c-0.705,1.036-1.496,1.126-3.167,1.126c-0.816,0-1.914,0.029-2.809-0.014v2.225
			c0.571,0.139,1.123,0.265,1.652,0.376c0.898,0.091,2.328,0.938,3.975,2.19c0.833,2.541,0.902,5.171,0.1,7.828
			c-0.498,1.654-1.312,3.266-2.409,4.822c2.77-2.908,4.619-6.027,5.347-9.271c0.055-0.243,0.101-0.486,0.14-0.728
			c0.001,0.001,0.002,0.001,0.003,0.002C129.193,24.371,105.422,11.997,72.629,11.696L72.629,11.696z"/>
		<path fill-rule="evenodd" clip-rule="evenodd" fill="#FBA476" d="M16.512,31.786c0.018-0.008,0.036-0.016,0.053-0.023
			c-0.018,0.002-0.035,0.002-0.053,0.003V31.786L16.512,31.786z"/>
		<path fill-rule="evenodd" clip-rule="evenodd" fill="#FBA476" d="M56.79,68.817C24.407,66.405,1.728,51.028,6.212,36.168
			c0.042-0.14,0.089-0.278,0.135-0.417c1.566-0.85,3.042-1.625,4.351-2.291c0.522-0.054,1.065-0.15,1.623-0.278v-0.804
			c0-0.236-0.007-0.398-0.015-0.51c-0.606-0.029-1.668-0.217-2.005-1.45c-0.06-0.22-0.017-0.456,0.119-0.64s0.346-0.297,0.575-0.305
			c2.535-0.098,3.723-0.108,5.656-0.108c1.547,0,3.055,0.068,4.369,0.326c3.63-1.819,7.055-3.739,9.335-4.391
			c1.462-0.858,4.152,3.438,6.309,3.367c5.063-0.169,5.57,3.295,6.638,2.88c3.487-1.36,8.016-4.564,10.531-6.479
			c-0.116-0.056-0.234-0.108-0.355-0.16c-1.693-0.72-2.867-0.966-4.228-1.25c-1.46-0.305-3.115-0.65-5.652-1.676
			c-5.013-2.023-7.786-4.377-8.564-5.099C23.32,20.466,13.85,25.666,8.382,31.741c0.005-0.007,0.01-0.015,0.015-0.022
			c-0.065,0.072-0.128,0.146-0.192,0.219c-0.031,0.034-0.062,0.069-0.091,0.104c-0.155,0.177-0.306,0.354-0.454,0.532
			c-0.016,0.02-0.033,0.039-0.049,0.059c-0.51,0.618-0.979,1.245-1.404,1.88c-0.001,0.002-0.002,0.004-0.003,0.005
			c-0.142,0.212-0.279,0.425-0.411,0.638c-0.001,0.003-0.002,0.004-0.003,0.007c-1.056,1.703-1.806,3.46-2.208,5.255
			C0.021,56.293,24.632,69.172,58.553,69.183c1.443,0.001,2.879-0.024,4.308-0.069c0,0,0-0.003,0-0.003
			C60.852,69.064,58.826,68.969,56.79,68.817L56.79,68.817z"/>
		<path fill-rule="evenodd" clip-rule="evenodd" fill="#283674" d="M19.594,38.49c3.519-0.677,5.016-2.414,5.016-4.331
			c0-2.877-2.177-4.045-7.961-4.045c-1.943,0-3.124,0.011-5.627,0.106c0.233,0.856,0.991,0.904,1.544,0.904
			c0.382,0,0.503,0.179,0.503,1.253c0,1.584,0,13.797,0,14.468c0,1.523-0.092,2.971-1.079,3.214v0.233
			c1.859,0.177,4.167,0.236,5.544,0.236c6.328,0,9.402-2.874,9.402-6.696C26.936,40.146,23.398,38.585,19.594,38.49L19.594,38.49z
			 M17.31,49.608c-1.236,0-1.545-0.427-1.545-1.362c0-0.621,0-15.606,0-17.177c3.83-0.359,5.948,0.686,5.948,3.336
			c0.01,2.136-1.487,3.928-5.255,3.801c0.105,0.788,0.631,0.942,1.55,0.979c4.35,0.172,5.885,1.914,5.885,4.861
			C23.892,47.529,21.456,49.608,17.31,49.608L17.31,49.608z"/>
		<path fill-rule="evenodd" clip-rule="evenodd" fill="#283674" d="M35.301,35.491c-4.453,0-7.31,3.311-7.31,7.58
			c0,4.473,3.049,7.579,7.31,7.579c4.286,0,7.312-3.299,7.312-7.579C42.612,38.715,39.74,35.491,35.301,35.491L35.301,35.491z
			 M35.538,49.897c-2.942,0-4.615-3.352-4.746-7.122c-0.13-3.771,1.5-6.532,4.272-6.532c2.69,0,4.607,3.135,4.746,7.124
			C39.941,47.138,38.298,49.897,35.538,49.897L35.538,49.897z"/>
		<path fill-rule="evenodd" clip-rule="evenodd" fill="#283674" d="M88.646,35.491c-4.453,0-7.311,3.311-7.311,7.58
			c0,4.473,3.049,7.579,7.311,7.579c4.286,0,7.312-3.299,7.312-7.579C95.958,38.715,93.086,35.491,88.646,35.491L88.646,35.491z
			 M88.884,49.897c-2.942,0-4.615-3.352-4.745-7.122c-0.131-3.771,1.498-6.532,4.271-6.532c2.689,0,4.606,3.135,4.745,7.124
			C93.286,47.138,91.644,49.897,88.884,49.897L88.884,49.897z"/>
		<path fill-rule="evenodd" clip-rule="evenodd" fill="#283674" d="M55.79,36.497c0,2.91,0,10.381,0,10.381
			c-0.572-0.726-4.713-6.165-7.059-9.26c-1.43-1.885-3.389-2.854-6.398-1.859v0.133c0.416,0.016,0.799,0.119,1.18,0.316
			c0.518,0.269,0.704,0.548,0.704,1.492c0,2.976,0,9.887,0,10.479c0,1.143-0.334,1.885-0.966,1.885v0.229h3.246v-0.235
			c-0.78,0-1.039-0.644-1.039-2.196c0-2.425,0-8.098,0-9.922c0.419,0.491,0.873,1.07,1.388,1.751
			c1.529,2.018,4.926,6.466,6.015,7.92c1.09,1.453,2.319,2.782,4.187,3.124c0-1.686,0-7.233,0-7.92c0-4.78,0.126-6.496,0.271-7.359
			C56.187,35.677,55.79,35.979,55.79,36.497L55.79,36.497z"/>
		<path fill-rule="evenodd" clip-rule="evenodd" fill="#283674" d="M109.214,36.497c0,2.91,0,10.381,0,10.381
			c-0.571-0.726-4.714-6.165-7.06-9.26c-1.429-1.885-3.389-2.854-6.397-1.859v0.133c0.415,0.016,0.8,0.119,1.181,0.316
			c0.518,0.269,0.703,0.548,0.703,1.492c0,2.976,0,9.887,0,10.479c0,1.143-0.334,1.885-0.966,1.885v0.229h3.246v-0.235
			c-0.78,0-1.039-0.644-1.039-2.196c0-2.425,0-8.098,0-9.922c0.419,0.491,0.874,1.07,1.389,1.751
			c1.528,2.018,4.926,6.466,6.015,7.92c1.09,1.453,2.319,2.782,4.188,3.124c0-1.686,0-7.233,0-7.92c0-4.78,0.126-6.496,0.27-7.359
			C109.611,35.677,109.214,35.979,109.214,36.497L109.214,36.497z"/>
		<path fill-rule="evenodd" clip-rule="evenodd" fill="#283674" d="M70.279,48.594c-0.582-1.468-5.125-13.642-5.125-13.642h-0.233
			c-0.952,2.244-6.132,14.988-7.264,15.33c1.686,0.205,1.791,0.038,2.062-0.505c0.185-0.372,0.835-1.819,1.592-3.544
			c0.372,0,1.084,0,1.529,0c1.843,0,2.623-0.103,3.719-0.446c0.274,0.714,0.532,1.396,0.747,1.986
			c0.672,1.849,0.645,1.792,0.711,1.965c0,0,0.085,0.526,0.781,0.526l2.94,0.021V50.06C71.22,50.06,70.783,49.862,70.279,48.594
			L70.279,48.594z M61.767,45.192c0.917-2.099,1.886-4.362,2.348-5.53c0.315,0.749,1.319,3.222,2.215,5.53H61.767L61.767,45.192z"/>
		<path fill-rule="evenodd" clip-rule="evenodd" fill="#283674" d="M76.322,36.797c0,0,2.051,0.2,3.686,0.2
			c1.271,0,1.963-0.435,2.287-1.199c-1.66,0-7.996-0.032-10.113,0.008c0.2,0.733,0.848,0.772,1.32,0.772
			c0.326,0,0.43,0.153,0.43,1.071c0,2.975,0,9.938,0,10.529c0,1.143-0.648,1.885-1.279,1.885v0.229h4.71v-0.235
			c-0.78,0-1.04-0.644-1.04-2.196c0-1.049,0-2.919,0-4.852c2.211,0.207,3.253-0.015,3.781-0.982h-3.781
			C76.322,39.819,76.322,37.699,76.322,36.797L76.322,36.797z"/>
	</g>
	<path fill="#283674" d="M108.001,30.516h15.585c0,0-0.075,1.314-2.178,1.314c-2.104,0-4.244,0-4.244,0v16.487
		c0,0,0,1.727,1.277,1.727v0.188h-5.033v-0.225c0,0,1.202-0.15,1.202-1.615c0-1.464,0-16.749,0-16.749h-4.77
		C109.841,31.643,108.567,31.771,108.001,30.516z"/>
	<path fill-rule="evenodd" clip-rule="evenodd" fill="#187DBA" d="M35.954,58.062c-0.175,0.619-1.385,0.203-2.057,0.325
		c-0.211,0.186-0.234,0.561-0.216,0.974c0.399,0.25,1.261,0.038,1.84,0.109c-0.24,0.445-1.256,0.113-1.84,0.216
		c-0.35,1.461,1.262,1.439,2.273,1.19c-0.335,0.844-2.277,0.407-2.598-0.108c-0.195-0.79-0.202-2.183,0.216-2.706
		C34.366,58.062,35.16,58.062,35.954,58.062z"/>
	<path fill-rule="evenodd" clip-rule="evenodd" fill="#187DBA" d="M37.361,58.062c0.072,0,0.145,0,0.216,0
		c0.684,0.255,0.161,1.716,0.325,2.49c0.134,0.643,1.591,0.354,1.948,0.434c-0.461,0.672-2.061,0.266-2.381-0.218
		C37.343,59.956,37.349,59.013,37.361,58.062z"/>
	<path fill-rule="evenodd" clip-rule="evenodd" fill="#187DBA" d="M46.129,61.31c-0.548,0.006-0.496-0.587-0.65-0.975
		c-0.649,0-1.299,0-1.948,0c-0.371,0.135-0.106,0.904-0.542,0.975c-0.37-1.016,0.714-2.365,1.191-3.248
		C45.593,58.382,45.659,60.048,46.129,61.31z M43.531,60.118c0.579-0.07,1.441,0.143,1.84-0.108
		c-0.369-0.497-0.463-1.269-0.974-1.623C44.013,58.868,43.741,59.462,43.531,60.118z"/>
	<path fill-rule="evenodd" clip-rule="evenodd" fill="#187DBA" d="M50.676,58.603c-2.513-1.881-4.181,3.082-0.542,2.273
		c0.315-0.082-0.098-0.892,0.217-0.974c0.578-0.145,0.232,0.634,0.325,0.974c-1.541,1.168-3.734-0.181-3.139-1.84
		C47.851,58.159,49.884,57.486,50.676,58.603z"/>
	<path fill-rule="evenodd" clip-rule="evenodd" fill="#187DBA" d="M52.191,58.062c0.072,0,0.145,0,0.216,0
		c0.752,0.222,0.025,1.924,0.433,2.49c0.173,0.509,1.189,0.518,1.732,0.324c0.778-0.34,0.201-2.035,0.541-2.814
		c0.658,0.283,0.246,1.958,0.216,2.599C53.802,62.265,51.376,60.775,52.191,58.062z"/>
	<path fill-rule="evenodd" clip-rule="evenodd" fill="#187DBA" d="M60.094,61.31c-0.555,0.013-0.454-0.629-0.649-0.975
		c-0.613,0-1.227,0-1.84,0c-0.469,0.072-0.131,0.951-0.649,0.975c-0.225-1.281,0.732-2.293,1.191-3.248
		C59.555,58.384,59.682,59.989,60.094,61.31z M57.496,60.118c0.614,0,1.227,0,1.84,0c-0.21-0.691-0.444-1.359-0.974-1.731
		C58.022,58.912,57.753,59.51,57.496,60.118z"/>
	<path fill-rule="evenodd" clip-rule="evenodd" fill="#187DBA" d="M71.027,58.062c0.072,0,0.47,0,0.542,0
		c0,0.642,0.018,1.729,0.018,2.599c0.287,0.329,1.247,0.216,1.821,0.216c0.112,0.772-2.055,0.438-2.272-0.108
		C70.975,59.99,71.036,58.991,71.027,58.062z"/>
	<path fill-rule="evenodd" clip-rule="evenodd" fill="#187DBA" d="M74.616,58.062c0.108,0,0.435,0,0.543,0
		c0,0.53-0.013,2.295-0.013,3.243c-0.281,0-0.375,0.005-0.53,0.005C74.616,60.396,74.616,59.149,74.616,58.062z"/>
	<path fill-rule="evenodd" clip-rule="evenodd" fill="#187DBA" d="M80.337,58.603c-0.739-0.587-2.116-0.267-2.599,0.325
		c-0.552,1.444,0.675,2.452,2.058,1.948c0.219-0.133,0.008-0.982,0.139-1.032c0.6-0.132,0.402,0.748,0.402,1.142
		c-1.485,0.9-3.794-0.148-3.031-2.166C77.667,58.151,79.898,57.528,80.337,58.603z"/>
	<path fill-rule="evenodd" clip-rule="evenodd" fill="#187DBA" d="M84.928,58.044c0,0.122,0,0.147,0,0.268
		c-0.432,0-1.447-0.024-1.992,0.075c-0.367,0.066-0.453,0.673-0.23,1.028c0.361,0,1.23,0,1.702,0c0,0.112,0,0.224,0,0.366
		c-0.599,0-1.202-0.007-1.725-0.007c-0.286,1.398,1.429,1.052,2.201,1.043c0,0.12,0.01,0.361-0.13,0.426
		c-2.993,0.609-3.381-1.911-2.118-3.359C83.43,57.884,84.928,57.724,84.928,58.044z"/>
	<path fill-rule="evenodd" clip-rule="evenodd" fill="#187DBA" d="M89.369,59.015c0,0.359-0.421,0.658-0.913,0.671
		c0.584,0.318,0.749,1.055,1.19,1.516c-1.085,0.254-0.89-1.769-2.442-1.407c0,0.548-0.009,0.816-0.009,1.439
		c-0.188,0-0.473,0.009-0.597,0.009c0-0.819-0.005-2.335-0.005-3.202C87.594,57.9,89.369,57.536,89.369,59.015z M87.187,58.329
		c0,0.258,0.009,0.677,0.009,1.06c0.906,0.04,1.657,0.125,1.657-0.579C88.853,58.293,88.291,58.249,87.187,58.329z"/>
	<path fill-rule="evenodd" clip-rule="evenodd" fill="#187DBA" d="M94.302,61.31c-0.555,0.013-0.454-0.629-0.649-0.975
		c-0.614,0-1.228,0-1.841,0c-0.448,0.094-0.185,0.897-0.649,0.975c-0.225-1.281,0.738-2.286,1.191-3.248
		C93.763,58.384,93.89,59.989,94.302,61.31z M91.812,60.118c0.577,0,1.155,0,1.732,0c-0.211-0.691-0.445-1.359-0.975-1.731
		C92.296,58.942,91.88,59.356,91.812,60.118z"/>
	<g>
		<path fill="#253871" d="M119.808,47.91c0.194,0,0.384,0.049,0.569,0.149c0.185,0.1,0.328,0.242,0.432,0.427
			c0.104,0.187,0.154,0.379,0.154,0.581c0,0.199-0.051,0.391-0.152,0.574s-0.244,0.327-0.428,0.429s-0.375,0.152-0.575,0.152
			s-0.392-0.051-0.575-0.152s-0.326-0.245-0.429-0.429s-0.153-0.375-0.153-0.574c0-0.202,0.052-0.395,0.155-0.581
			c0.104-0.185,0.248-0.327,0.434-0.427C119.424,47.959,119.613,47.91,119.808,47.91z M119.808,48.102
			c-0.162,0-0.32,0.041-0.475,0.125c-0.153,0.083-0.273,0.202-0.36,0.356c-0.087,0.155-0.131,0.316-0.131,0.484
			c0,0.166,0.043,0.326,0.129,0.479c0.085,0.153,0.204,0.271,0.357,0.357c0.153,0.085,0.312,0.128,0.479,0.128
			s0.326-0.043,0.479-0.128c0.153-0.086,0.272-0.204,0.357-0.357c0.085-0.152,0.127-0.312,0.127-0.479
			c0-0.168-0.043-0.329-0.129-0.484c-0.087-0.154-0.207-0.273-0.361-0.356C120.127,48.143,119.969,48.102,119.808,48.102z
			 M119.301,49.706v-1.244h0.428c0.146,0,0.251,0.012,0.316,0.034c0.065,0.023,0.117,0.063,0.156,0.12s0.059,0.118,0.059,0.183
			c0,0.091-0.032,0.17-0.098,0.237c-0.064,0.067-0.15,0.105-0.258,0.113c0.044,0.02,0.079,0.041,0.105,0.066
			c0.051,0.049,0.111,0.131,0.184,0.246l0.152,0.244h-0.245l-0.11-0.196c-0.087-0.153-0.157-0.251-0.21-0.29
			c-0.037-0.028-0.091-0.043-0.161-0.043h-0.118v0.529H119.301z M119.501,49.005h0.243c0.117,0,0.196-0.017,0.239-0.051
			c0.042-0.035,0.063-0.082,0.063-0.139c0-0.037-0.01-0.069-0.031-0.099c-0.02-0.029-0.049-0.051-0.085-0.065
			c-0.036-0.014-0.104-0.021-0.201-0.021h-0.229V49.005z"/>
	</g>
</g>
</svg>
