<?xml version="1.0" encoding="utf-8"?>
<!-- Generator: Adobe Illustrator 16.0.0, SVG Export Plug-In . SVG Version: 6.00 Build 0)  -->
<!DOCTYPE svg PUBLIC "-//W3C//DTD SVG 1.1//EN" "http://www.w3.org/Graphics/SVG/1.1/DTD/svg11.dtd">
<svg version="1.1" id="Layer_1" xmlns="http://www.w3.org/2000/svg" xmlns:xlink="http://www.w3.org/1999/xlink" x="0px" y="0px"
	 width="1280px" height="700px" viewBox="0 0 1280 700" enable-background="new 0 0 1280 700" xml:space="preserve">
<g id="Globa">
	<g>
		<g>
			<g>
				<path fill="#72ADC8" d="M505.632,127c-1.649,0-3,1.351-3,3v184.336c0,1.65,1.351,2.998,3,2.995l119.484-0.178
					c1.649-0.003,3.959,0.945,5.132,2.104l6.989,6.916c1.173,1.16,3.085,1.154,4.25-0.014l7.016-7.037
					c1.165-1.168,3.468-2.124,5.118-2.124h123.01c1.65,0,3-1.35,3-3V130c0-1.649-1.35-3-3-3H505.632z M520.467,145.456
					c-2.761,0-5-2.237-5-5c0-2.762,2.239-5,5-5s5,2.238,5,5C525.467,143.219,523.228,145.456,520.467,145.456z M758.467,145.456
					c-2.761,0-5-2.237-5-5c0-2.762,2.239-5,5-5s5,2.238,5,5C763.467,143.219,761.228,145.456,758.467,145.456z"/>
			</g>
		</g>
		<path opacity="0.2" fill="#F5E5E5" enable-background="new    " d="M639,127H505.632c-1.649,0-2.632,1.351-2.632,3v184.336
			c0,1.65,1.166,2.998,2.816,2.995l119.392-0.178c1.651-0.003,3.914,0.945,5.087,2.104l7.149,6.916
			c0.397,0.395,0.556,0.643,1.556,0.769V127z M520.467,145.456c-2.761,0-5-2.237-5-5c0-2.762,2.239-5,5-5s5,2.238,5,5
			C525.467,143.219,523.228,145.456,520.467,145.456z"/>
	</g>
</g>
<g id="Texto">
	<g>
		<g enable-background="new    ">
			<path fill="#EEE9E3" d="M559.764,190.683c-1.361,0-2.385-0.084-2.906-0.186c-0.554-0.101-0.807-0.285-0.807-0.907v-10.584
				c0-0.604,0.219-0.823,0.756-0.907c0.437-0.066,1.495-0.168,2.806-0.168c3.041,0,5.174,0.874,5.174,3.411v0.336
				c0,1.108-0.521,2.1-1.546,2.536c1.025,0.438,1.63,1.294,1.63,2.554v0.286C564.871,189.725,562.889,190.683,559.764,190.683z
				 M562.519,181.476c0-1.176-0.756-1.612-2.906-1.612c-0.403,0-0.874,0.017-1.227,0.033v3.41h2.134
				c1.562,0,1.999-0.738,1.999-1.596V181.476z M562.586,186.802c0-0.924-0.487-1.781-2.066-1.781h-2.134v3.696
				c0.403,0,1.025,0.033,1.377,0.033c2.15,0,2.822-0.554,2.822-1.73V186.802z"/>
			<path fill="#EEE9E3" d="M574.212,186.584h-5.477v0.051c0,0.974,0.403,2.133,2.016,2.133c1.227,0,2.386-0.101,3.091-0.168
				c0.017,0,0.033,0,0.05,0c0.168,0,0.302,0.084,0.302,0.252v1.109c0,0.269-0.05,0.387-0.353,0.437
				c-1.092,0.202-1.748,0.286-3.259,0.286c-1.68,0-4.065-0.907-4.065-4.217v-1.243c0-2.621,1.461-4.268,4.032-4.268
				c2.587,0,3.999,1.764,3.999,4.268v0.94C574.548,186.432,574.447,186.584,574.212,186.584z M572.313,184.937
				c0-1.311-0.723-2.066-1.764-2.066s-1.797,0.739-1.797,2.066v0.067h3.562V184.937z"/>
			<path fill="#EEE9E3" d="M580.276,190.683c-1.075,0-2.335-0.168-3.377-0.438c-0.386-0.101-0.454-0.201-0.454-0.453v-11.693
				c0-0.185,0.151-0.336,0.336-0.336h1.545c0.185,0,0.336,0.151,0.336,0.336v2.974c0.622-0.084,1.209-0.117,1.613-0.117
				c2.705,0,4.015,1.596,4.015,4.217v1.294C584.292,189.087,582.981,190.683,580.276,190.683z M582.074,185.173
				c0-1.378-0.353-2.402-1.798-2.402c-0.403,0-1.143,0.051-1.613,0.117v5.863c0.319,0.067,1.008,0.118,1.613,0.118
				c1.445,0,1.798-1.025,1.798-2.402V185.173z"/>
			<path fill="#EEE9E3" d="M593.548,186.584h-5.477v0.051c0,0.974,0.403,2.133,2.016,2.133c1.227,0,2.386-0.101,3.091-0.168
				c0.017,0,0.033,0,0.05,0c0.168,0,0.302,0.084,0.302,0.252v1.109c0,0.269-0.05,0.387-0.353,0.437
				c-1.092,0.202-1.748,0.286-3.259,0.286c-1.68,0-4.066-0.907-4.066-4.217v-1.243c0-2.621,1.462-4.268,4.032-4.268
				c2.587,0,3.999,1.764,3.999,4.268v0.94C593.884,186.432,593.783,186.584,593.548,186.584z M591.65,184.937
				c0-1.311-0.723-2.066-1.764-2.066s-1.797,0.739-1.797,2.066v0.067h3.562V184.937z"/>
			<path fill="#EEE9E3" d="M600.318,182.838c-0.907,0-1.613,0.235-2.318,0.604v6.754c0,0.185-0.151,0.353-0.336,0.353h-1.545
				c-0.185,0-0.336-0.168-0.336-0.353v-8.786c0-0.186,0.151-0.337,0.336-0.337h1.461c0.185,0,0.336,0.151,0.336,0.337v0.353
				c0.823-0.639,1.73-0.807,2.402-0.807c0.185,0,0.336,0.151,0.336,0.336v1.21C600.654,182.686,600.503,182.838,600.318,182.838z"/>
			<path fill="#EEE9E3" d="M610.113,190.683c-1.075,0-2.335-0.168-3.377-0.438c-0.386-0.101-0.454-0.201-0.454-0.453v-11.693
				c0-0.185,0.151-0.336,0.336-0.336h1.545c0.185,0,0.336,0.151,0.336,0.336v2.974c0.622-0.084,1.209-0.117,1.613-0.117
				c2.705,0,4.015,1.596,4.015,4.217v1.294C614.128,189.087,612.817,190.683,610.113,190.683z M611.91,185.173
				c0-1.378-0.353-2.402-1.797-2.402c-0.403,0-1.143,0.051-1.613,0.117v5.863c0.319,0.067,1.008,0.118,1.613,0.118
				c1.445,0,1.797-1.025,1.797-2.402V185.173z"/>
			<path fill="#EEE9E3" d="M623.401,190.549h-1.545c-0.185,0-0.336-0.151-0.336-0.336v-0.387c-0.874,0.571-1.562,0.84-2.637,0.84
				c-0.84,0-1.58-0.218-2.066-0.705c-0.622-0.622-0.84-1.663-0.84-3.058v-5.477c0-0.186,0.151-0.354,0.336-0.354h1.545
				c0.185,0,0.336,0.168,0.336,0.354v5.477c0,0.84,0.067,1.327,0.386,1.612c0.235,0.202,0.521,0.303,1.042,0.303
				c0.622,0,1.428-0.42,1.898-0.672v-6.72c0-0.186,0.151-0.354,0.336-0.354h1.545c0.185,0,0.336,0.168,0.336,0.354v8.786
				C623.737,190.397,623.586,190.549,623.401,190.549z"/>
			<path fill="#EEE9E3" d="M633.331,186.584h-5.477v0.051c0,0.974,0.403,2.133,2.016,2.133c1.227,0,2.386-0.101,3.091-0.168
				c0.017,0,0.033,0,0.05,0c0.168,0,0.302,0.084,0.302,0.252v1.109c0,0.269-0.05,0.387-0.353,0.437
				c-1.092,0.202-1.748,0.286-3.259,0.286c-1.68,0-4.066-0.907-4.066-4.217v-1.243c0-2.621,1.462-4.268,4.032-4.268
				c2.587,0,3.999,1.764,3.999,4.268v0.94C633.667,186.432,633.565,186.584,633.331,186.584z M631.432,184.937
				c0-1.311-0.723-2.066-1.764-2.066s-1.797,0.739-1.797,2.066v0.067h3.562V184.937z"/>
			<path fill="#EEE9E3" d="M642.99,190.549h-1.545c-0.186,0-0.337-0.168-0.337-0.353v-5.477c0-1.462-0.134-1.882-1.428-1.882
				c-0.571,0-1.193,0.235-1.898,0.604v6.754c0,0.185-0.151,0.353-0.336,0.353h-1.545c-0.185,0-0.336-0.168-0.336-0.353v-8.786
				c0-0.186,0.151-0.337,0.336-0.337h1.461c0.185,0,0.336,0.151,0.336,0.337v0.353c0.975-0.622,1.613-0.807,2.722-0.807
				c2.419,0,2.906,1.63,2.906,3.764v5.477C643.326,190.381,643.175,190.549,642.99,190.549z"/>
			<path fill="#EEE9E3" d="M652.196,190.549h-1.428c-0.185,0-0.337-0.151-0.337-0.336v-0.269c-0.771,0.47-1.562,0.739-2.368,0.739
				c-1.395,0-2.906-0.538-2.906-2.806v-0.067c0-1.915,1.176-2.906,4.099-2.906h1.059v-0.739c0-1.092-0.486-1.361-1.479-1.361
				c-1.074,0-2.184,0.067-2.738,0.135c-0.033,0-0.066,0-0.084,0c-0.168,0-0.303-0.051-0.303-0.285v-1.075
				c0-0.186,0.102-0.303,0.32-0.354c0.672-0.134,1.646-0.269,2.805-0.269c2.387,0,3.696,1.059,3.696,3.209v6.048
				C652.532,190.397,652.381,190.549,652.196,190.549z M650.314,186.383h-1.059c-1.528,0-1.864,0.487-1.864,1.428v0.067
				c0,0.823,0.37,1.041,1.21,1.041c0.604,0,1.227-0.201,1.713-0.47V186.383z"/>
			<path fill="#EEE9E3" d="M664.578,190.465c-0.387,0.101-1.143,0.219-2.168,0.219c-2.184,0-3.83-1.345-3.83-4.083v-1.562
				c0-2.738,1.646-4.082,3.83-4.082c1.025,0,1.781,0.117,2.168,0.219c0.285,0.066,0.353,0.168,0.353,0.437v1.092
				c0,0.168-0.134,0.252-0.302,0.252c-0.018,0-0.034,0-0.051,0c-0.672-0.084-1.076-0.117-2.168-0.117
				c-0.789,0-1.612,0.453-1.612,2.2v1.562c0,1.747,0.823,2.201,1.612,2.201c1.092,0,1.496-0.034,2.168-0.118
				c0.017,0,0.033,0,0.051,0c0.168,0,0.302,0.084,0.302,0.252v1.093C664.931,190.297,664.863,190.397,664.578,190.465z"/>
			<path fill="#EEE9E3" d="M673.465,190.549h-1.428c-0.186,0-0.336-0.151-0.336-0.336v-0.269c-0.773,0.47-1.562,0.739-2.369,0.739
				c-1.395,0-2.906-0.538-2.906-2.806v-0.067c0-1.915,1.176-2.906,4.1-2.906h1.059v-0.739c0-1.092-0.488-1.361-1.479-1.361
				c-1.076,0-2.185,0.067-2.738,0.135c-0.034,0-0.068,0-0.084,0c-0.168,0-0.303-0.051-0.303-0.285v-1.075
				c0-0.186,0.101-0.303,0.318-0.354c0.672-0.134,1.646-0.269,2.807-0.269c2.385,0,3.695,1.059,3.695,3.209v6.048
				C673.801,190.397,673.65,190.549,673.465,190.549z M671.584,186.383h-1.059c-1.529,0-1.865,0.487-1.865,1.428v0.067
				c0,0.823,0.369,1.041,1.209,1.041c0.605,0,1.227-0.201,1.715-0.47V186.383z"/>
			<path fill="#EEE9E3" d="M683.41,190.549h-1.545c-0.186,0-0.337-0.168-0.337-0.353v-5.477c0-1.462-0.134-1.882-1.428-1.882
				c-0.571,0-1.192,0.235-1.898,0.604v6.754c0,0.185-0.151,0.353-0.336,0.353h-1.546c-0.185,0-0.336-0.168-0.336-0.353v-8.786
				c0-0.186,0.151-0.337,0.336-0.337h1.462c0.185,0,0.336,0.151,0.336,0.337v0.353c0.975-0.622,1.612-0.807,2.722-0.807
				c2.419,0,2.906,1.63,2.906,3.764v5.477C683.746,190.381,683.595,190.549,683.41,190.549z"/>
			<path fill="#EEE9E3" d="M690.567,190.565c-0.403,0.067-0.772,0.118-1.143,0.118c-1.898,0-2.671-0.42-2.671-2.672v-5.274
				l-1.58-0.235c-0.184-0.034-0.336-0.151-0.336-0.336v-0.756c0-0.186,0.152-0.337,0.336-0.337h1.58v-1.377
				c0-0.185,0.15-0.303,0.336-0.336l1.562-0.27c0.017,0,0.051,0,0.066,0c0.152,0,0.27,0.084,0.27,0.253v1.729h1.512
				c0.185,0,0.336,0.151,0.336,0.337v0.99c0,0.186-0.151,0.337-0.336,0.337h-1.512v5.274c0,0.84,0.051,0.941,0.654,0.941h0.891
				c0.219,0,0.354,0.084,0.354,0.252v1.059C690.887,190.431,690.785,190.532,690.567,190.565z"/>
			<path fill="#EEE9E3" d="M694.381,179.813h-1.63c-0.185,0-0.353-0.151-0.353-0.336v-1.479c0-0.185,0.168-0.336,0.353-0.336h1.63
				c0.185,0,0.336,0.151,0.336,0.336v1.479C694.717,179.662,694.565,179.813,694.381,179.813z M694.33,190.549h-1.545
				c-0.186,0-0.336-0.168-0.336-0.353v-8.786c0-0.186,0.15-0.337,0.336-0.337h1.545c0.186,0,0.336,0.151,0.336,0.337v8.786
				C694.666,190.381,694.516,190.549,694.33,190.549z"/>
			<path fill="#EEE9E3" d="M703.957,190.246c-1.042,0.27-2.303,0.438-3.377,0.438c-2.705,0-4.016-1.597-4.016-4.217v-1.294
				c0-2.621,1.311-4.217,4.016-4.217c0.402,0,0.99,0.033,1.612,0.117v-2.974c0-0.185,0.151-0.336,0.336-0.336h1.546
				c0.185,0,0.336,0.151,0.336,0.336v11.693C704.41,190.045,704.343,190.145,703.957,190.246z M702.192,182.887
				c-0.47-0.066-1.21-0.117-1.612-0.117c-1.445,0-1.798,1.024-1.798,2.402v1.294c0,1.377,0.353,2.402,1.798,2.402
				c0.604,0,1.293-0.051,1.612-0.118V182.887z"/>
			<path fill="#EEE9E3" d="M713.28,190.549h-1.428c-0.185,0-0.337-0.151-0.337-0.336v-0.269c-0.771,0.47-1.562,0.739-2.368,0.739
				c-1.395,0-2.906-0.538-2.906-2.806v-0.067c0-1.915,1.176-2.906,4.099-2.906h1.059v-0.739c0-1.092-0.486-1.361-1.479-1.361
				c-1.074,0-2.184,0.067-2.738,0.135c-0.033,0-0.066,0-0.084,0c-0.168,0-0.303-0.051-0.303-0.285v-1.075
				c0-0.186,0.102-0.303,0.32-0.354c0.672-0.134,1.646-0.269,2.805-0.269c2.387,0,3.696,1.059,3.696,3.209v6.048
				C713.616,190.397,713.465,190.549,713.28,190.549z M711.398,186.383h-1.059c-1.528,0-1.864,0.487-1.864,1.428v0.067
				c0,0.823,0.37,1.041,1.21,1.041c0.604,0,1.227-0.201,1.713-0.47V186.383z"/>
			<path fill="#EEE9E3" d="M722.855,190.246c-1.041,0.27-2.301,0.438-3.377,0.438c-2.704,0-4.015-1.597-4.015-4.217v-1.294
				c0-2.621,1.311-4.217,4.015-4.217c0.404,0,0.992,0.033,1.613,0.117v-2.974c0-0.185,0.151-0.336,0.336-0.336h1.546
				c0.185,0,0.336,0.151,0.336,0.336v11.693C723.31,190.045,723.242,190.145,722.855,190.246z M721.092,182.887
				c-0.471-0.066-1.209-0.117-1.613-0.117c-1.444,0-1.797,1.024-1.797,2.402v1.294c0,1.377,0.353,2.402,1.797,2.402
				c0.605,0,1.295-0.051,1.613-0.118V182.887z"/>
		</g>
		<g enable-background="new    ">
			<path fill="#EEE9E3" d="M542.62,215.846c-1.042,0.27-2.302,0.438-3.377,0.438c-2.705,0-4.015-1.597-4.015-4.217v-1.294
				c0-2.621,1.311-4.217,4.015-4.217c0.403,0,0.991,0.033,1.613,0.117V203.7c0-0.185,0.151-0.336,0.336-0.336h1.546
				c0.185,0,0.336,0.151,0.336,0.336v11.693C543.074,215.645,543.006,215.746,542.62,215.846z M540.856,208.488
				c-0.47-0.066-1.209-0.117-1.613-0.117c-1.445,0-1.797,1.024-1.797,2.402v1.294c0,1.377,0.353,2.402,1.797,2.402
				c0.605,0,1.294-0.051,1.613-0.118V208.488z"/>
			<path fill="#EEE9E3" d="M552.667,212.184h-5.477v0.051c0,0.974,0.403,2.133,2.016,2.133c1.227,0,2.386-0.101,3.091-0.168
				c0.017,0,0.033,0,0.05,0c0.168,0,0.302,0.084,0.302,0.252v1.109c0,0.269-0.05,0.387-0.353,0.437
				c-1.092,0.202-1.748,0.286-3.259,0.286c-1.68,0-4.065-0.907-4.065-4.217v-1.243c0-2.621,1.461-4.268,4.032-4.268
				c2.587,0,3.999,1.764,3.999,4.268v0.94C553.002,212.033,552.901,212.184,552.667,212.184z M550.768,210.538
				c0-1.311-0.723-2.066-1.764-2.066s-1.797,0.739-1.797,2.066v0.067h3.562V210.538z"/>
			<path fill="#EEE9E3" d="M565.787,216.149h-1.428c-0.185,0-0.336-0.151-0.336-0.336v-0.269c-0.772,0.47-1.562,0.739-2.369,0.739
				c-1.395,0-2.906-0.538-2.906-2.806v-0.067c0-1.915,1.176-2.906,4.099-2.906h1.059v-0.739c0-1.092-0.487-1.361-1.479-1.361
				c-1.075,0-2.184,0.067-2.738,0.135c-0.034,0-0.067,0-0.084,0c-0.168,0-0.303-0.051-0.303-0.285v-1.075
				c0-0.186,0.101-0.303,0.319-0.354c0.672-0.134,1.646-0.269,2.806-0.269c2.386,0,3.696,1.059,3.696,3.209v6.048
				C566.123,215.998,565.972,216.149,565.787,216.149z M563.906,211.983h-1.059c-1.529,0-1.865,0.487-1.865,1.428v0.067
				c0,0.823,0.37,1.041,1.209,1.041c0.605,0,1.227-0.201,1.714-0.47V211.983z"/>
			<path fill="#EEE9E3" d="M576.287,208.203l-0.554,0.219c0.269,0.386,0.42,0.756,0.42,1.344v0.117c0,2.101-1.445,3.058-3.981,3.058
				c-0.891,0-1.495-0.151-1.831-0.285c-0.202,0.134-0.286,0.285-0.286,0.437c0,0.336,0.185,0.471,0.571,0.555l1.982,0.47
				c2.285,0.538,3.763,0.891,3.763,2.688v0.117c0,1.714-1.26,2.638-4.116,2.638c-2.722,0-4.167-1.024-4.167-2.788v-0.151
				c0-0.689,0.319-1.361,0.857-1.849c-0.471-0.353-0.756-0.94-0.756-1.545v-0.018c0-0.521,0.218-1.041,0.672-1.36
				c-0.504-0.521-0.689-1.126-0.689-1.966v-0.117c0-1.681,1.092-3.092,3.999-3.092h3.931c0.252,0,0.454,0.202,0.454,0.454v0.705
				C576.556,208.085,576.488,208.119,576.287,208.203z M574.153,216.804c0-0.37-0.218-0.588-1.982-1.008l-1.495-0.354
				c-0.252,0.354-0.42,0.571-0.42,1.177v0.151c0,0.688,0.42,1.108,1.999,1.108c1.613,0,1.898-0.353,1.898-0.958V216.804z
				 M573.968,209.799c0-0.807-0.353-1.428-1.797-1.428c-1.428,0-1.814,0.639-1.814,1.428v0.135c0,0.621,0.252,1.327,1.814,1.327
				c1.395,0,1.797-0.487,1.797-1.327V209.799z"/>
			<path fill="#EEE9E3" d="M585.543,216.149h-1.545c-0.185,0-0.336-0.151-0.336-0.336v-0.387c-0.874,0.571-1.562,0.84-2.637,0.84
				c-0.84,0-1.58-0.218-2.066-0.705c-0.622-0.622-0.84-1.663-0.84-3.058v-5.477c0-0.186,0.151-0.354,0.336-0.354H580
				c0.185,0,0.336,0.168,0.336,0.354v5.477c0,0.84,0.067,1.327,0.386,1.612c0.235,0.202,0.521,0.303,1.042,0.303
				c0.622,0,1.428-0.42,1.898-0.672v-6.72c0-0.186,0.151-0.354,0.336-0.354h1.545c0.185,0,0.336,0.168,0.336,0.354v8.786
				C585.879,215.998,585.728,216.149,585.543,216.149z"/>
			<path fill="#EEE9E3" d="M594.75,216.149h-1.428c-0.185,0-0.336-0.151-0.336-0.336v-0.269c-0.772,0.47-1.562,0.739-2.369,0.739
				c-1.395,0-2.906-0.538-2.906-2.806v-0.067c0-1.915,1.176-2.906,4.099-2.906h1.059v-0.739c0-1.092-0.487-1.361-1.479-1.361
				c-1.075,0-2.184,0.067-2.738,0.135c-0.034,0-0.067,0-0.084,0c-0.168,0-0.303-0.051-0.303-0.285v-1.075
				c0-0.186,0.101-0.303,0.319-0.354c0.672-0.134,1.646-0.269,2.806-0.269c2.386,0,3.696,1.059,3.696,3.209v6.048
				C595.086,215.998,594.935,216.149,594.75,216.149z M592.869,211.983h-1.059c-1.529,0-1.865,0.487-1.865,1.428v0.067
				c0,0.823,0.37,1.041,1.209,1.041c0.605,0,1.227-0.201,1.714-0.47V211.983z"/>
			<path fill="#EEE9E3" d="M608.156,216.149h-1.428c-0.185,0-0.336-0.151-0.336-0.336v-0.269c-0.772,0.47-1.562,0.739-2.369,0.739
				c-1.395,0-2.906-0.538-2.906-2.806v-0.067c0-1.915,1.176-2.906,4.099-2.906h1.059v-0.739c0-1.092-0.487-1.361-1.479-1.361
				c-1.075,0-2.184,0.067-2.738,0.135c-0.034,0-0.067,0-0.084,0c-0.168,0-0.303-0.051-0.303-0.285v-1.075
				c0-0.186,0.101-0.303,0.319-0.354c0.672-0.134,1.646-0.269,2.806-0.269c2.386,0,3.696,1.059,3.696,3.209v6.048
				C608.492,215.998,608.341,216.149,608.156,216.149z M606.275,211.983h-1.059c-1.529,0-1.865,0.487-1.865,1.428v0.067
				c0,0.823,0.37,1.041,1.209,1.041c0.605,0,1.227-0.201,1.714-0.47V211.983z"/>
			<path fill="#EEE9E3" d="M618.102,216.149h-1.545c-0.185,0-0.336-0.168-0.336-0.353v-5.477c0-1.462-0.134-1.882-1.428-1.882
				c-0.571,0-1.193,0.235-1.898,0.604v6.754c0,0.185-0.151,0.353-0.336,0.353h-1.545c-0.185,0-0.336-0.168-0.336-0.353v-8.786
				c0-0.186,0.151-0.337,0.336-0.337h1.461c0.185,0,0.336,0.151,0.336,0.337v0.353c0.975-0.622,1.613-0.807,2.722-0.807
				c2.419,0,2.906,1.63,2.906,3.764v5.477C618.438,215.981,618.286,216.149,618.102,216.149z"/>
			<path fill="#EEE9E3" d="M625.259,216.166c-0.403,0.067-0.773,0.118-1.143,0.118c-1.898,0-2.671-0.42-2.671-2.672v-5.274
				l-1.579-0.235c-0.185-0.034-0.336-0.151-0.336-0.336v-0.756c0-0.186,0.151-0.337,0.336-0.337h1.579v-1.377
				c0-0.185,0.151-0.303,0.336-0.336l1.562-0.27c0.017,0,0.051,0,0.067,0c0.151,0,0.269,0.084,0.269,0.253v1.729h1.512
				c0.185,0,0.336,0.151,0.336,0.337v0.99c0,0.186-0.151,0.337-0.336,0.337h-1.512v5.274c0,0.84,0.051,0.941,0.655,0.941h0.891
				c0.218,0,0.353,0.084,0.353,0.252v1.059C625.578,216.032,625.477,216.133,625.259,216.166z"/>
			<path fill="#EEE9E3" d="M634.499,212.184h-5.477v0.051c0,0.974,0.403,2.133,2.016,2.133c1.227,0,2.386-0.101,3.091-0.168
				c0.017,0,0.033,0,0.05,0c0.168,0,0.302,0.084,0.302,0.252v1.109c0,0.269-0.05,0.387-0.353,0.437
				c-1.092,0.202-1.748,0.286-3.259,0.286c-1.68,0-4.065-0.907-4.065-4.217v-1.243c0-2.621,1.461-4.268,4.032-4.268
				c2.587,0,3.999,1.764,3.999,4.268v0.94C634.834,212.033,634.733,212.184,634.499,212.184z M632.6,210.538
				c0-1.311-0.723-2.066-1.764-2.066s-1.797,0.739-1.797,2.066v0.067h3.562V210.538z"/>
			<path fill="#EEE9E3" d="M639.807,216.284c-0.655,0-2.066-0.084-3.007-0.336c-0.202-0.051-0.319-0.186-0.319-0.387v-1.008
				c0-0.135,0.118-0.27,0.286-0.27c0.034,0,0.05,0,0.067,0c0.806,0.102,2.318,0.186,2.822,0.186c1.042,0,1.193-0.354,1.193-0.807
				c0-0.319-0.202-0.521-0.739-0.856l-2.302-1.411c-0.823-0.505-1.411-1.345-1.411-2.319c0-1.68,1.059-2.52,3.192-2.52
				c1.361,0,2.134,0.151,2.991,0.336c0.202,0.051,0.302,0.185,0.302,0.387v0.975c0,0.201-0.1,0.318-0.268,0.318
				c-0.034,0-0.051,0-0.068,0c-0.47-0.066-1.814-0.201-2.771-0.201c-0.807,0-1.159,0.185-1.159,0.705
				c0,0.27,0.252,0.438,0.672,0.689l2.2,1.344c1.412,0.856,1.613,1.697,1.613,2.554C643.1,215.125,642.008,216.284,639.807,216.284z
				"/>
			<path fill="#EEE9E3" d="M656.203,215.846c-1.041,0.27-2.301,0.438-3.377,0.438c-2.704,0-4.015-1.597-4.015-4.217v-1.294
				c0-2.621,1.311-4.217,4.015-4.217c0.404,0,0.992,0.033,1.613,0.117V203.7c0-0.185,0.151-0.336,0.336-0.336h1.546
				c0.185,0,0.336,0.151,0.336,0.336v11.693C656.657,215.645,656.59,215.746,656.203,215.846z M654.439,208.488
				c-0.471-0.066-1.209-0.117-1.613-0.117c-1.444,0-1.797,1.024-1.797,2.402v1.294c0,1.377,0.353,2.402,1.797,2.402
				c0.605,0,1.295-0.051,1.613-0.118V208.488z"/>
			<path fill="#EEE9E3" d="M666.25,212.184h-5.477v0.051c0,0.974,0.403,2.133,2.016,2.133c1.227,0,2.387-0.101,3.092-0.168
				c0.017,0,0.033,0,0.051,0c0.168,0,0.302,0.084,0.302,0.252v1.109c0,0.269-0.05,0.387-0.353,0.437
				c-1.092,0.202-1.748,0.286-3.26,0.286c-1.68,0-4.064-0.907-4.064-4.217v-1.243c0-2.621,1.461-4.268,4.031-4.268
				c2.588,0,3.998,1.764,3.998,4.268v0.94C666.586,212.033,666.485,212.184,666.25,212.184z M664.352,210.538
				c0-1.311-0.723-2.066-1.764-2.066s-1.797,0.739-1.797,2.066v0.067h3.561V210.538z"/>
			<path fill="#EEE9E3" d="M674.666,216.149h-1.562c-0.185,0-0.337-0.168-0.337-0.353V203.7c0-0.185,0.152-0.336,0.337-0.336h1.562
				c0.186,0,0.32,0.151,0.32,0.336v12.097C674.986,215.981,674.852,216.149,674.666,216.149z"/>
			<path fill="#EEE9E3" d="M683.939,216.149h-1.428c-0.185,0-0.336-0.151-0.336-0.336v-0.269c-0.772,0.47-1.562,0.739-2.369,0.739
				c-1.395,0-2.906-0.538-2.906-2.806v-0.067c0-1.915,1.176-2.906,4.1-2.906h1.059v-0.739c0-1.092-0.487-1.361-1.479-1.361
				c-1.075,0-2.184,0.067-2.738,0.135c-0.033,0-0.067,0-0.084,0c-0.168,0-0.303-0.051-0.303-0.285v-1.075
				c0-0.186,0.102-0.303,0.319-0.354c0.672-0.134,1.646-0.269,2.806-0.269c2.386,0,3.695,1.059,3.695,3.209v6.048
				C684.275,215.998,684.125,216.149,683.939,216.149z M682.059,211.983H681c-1.529,0-1.865,0.487-1.865,1.428v0.067
				c0,0.823,0.37,1.041,1.21,1.041c0.604,0,1.227-0.201,1.714-0.47V211.983z"/>
			<path fill="#EEE9E3" d="M696.321,216.065c-0.386,0.101-1.142,0.219-2.167,0.219c-2.184,0-3.83-1.345-3.83-4.083v-1.562
				c0-2.738,1.646-4.082,3.83-4.082c1.025,0,1.781,0.117,2.167,0.219c0.286,0.066,0.353,0.168,0.353,0.437v1.092
				c0,0.168-0.134,0.252-0.302,0.252c-0.017,0-0.034,0-0.051,0c-0.672-0.084-1.075-0.117-2.167-0.117
				c-0.789,0-1.613,0.453-1.613,2.2v1.562c0,1.747,0.824,2.201,1.613,2.201c1.092,0,1.495-0.034,2.167-0.118
				c0.017,0,0.034,0,0.051,0c0.168,0,0.302,0.084,0.302,0.252v1.093C696.674,215.897,696.607,215.998,696.321,216.065z"/>
			<path fill="#EEE9E3" d="M702,216.284c-2.638,0-4.016-1.781-4.016-4.184v-1.36c0-2.402,1.378-4.184,4.016-4.184
				c2.637,0,4.016,1.781,4.016,4.184v1.36C706.016,214.503,704.637,216.284,702,216.284z M703.797,210.74
				c0-1.378-0.621-2.269-1.797-2.269s-1.798,0.891-1.798,2.269v1.36c0,1.378,0.622,2.268,1.798,2.268s1.797-0.89,1.797-2.268V210.74
				z"/>
			<path fill="#EEE9E3" d="M719.64,216.149h-1.546c-0.185,0-0.336-0.168-0.336-0.353v-5.712c0-1.294-0.269-1.63-1.209-1.63
				c-0.32,0-0.958,0.101-1.562,0.42c0.051,0.37,0.066,0.79,0.066,1.21v5.712c0,0.185-0.15,0.353-0.336,0.353h-1.545
				c-0.186,0-0.336-0.168-0.336-0.353v-5.712c0-1.294-0.219-1.63-1.16-1.63c-0.352,0-0.855,0.185-1.545,0.555v6.787
				c0,0.185-0.151,0.353-0.336,0.353h-1.545c-0.186,0-0.337-0.168-0.337-0.353v-8.786c0-0.186,0.151-0.337,0.337-0.337h1.461
				c0.185,0,0.336,0.151,0.336,0.337v0.353c0.705-0.454,1.411-0.807,2.402-0.807c0.957,0,1.579,0.285,1.966,0.756
				c0.856-0.471,1.612-0.756,2.772-0.756c2.284,0,2.788,1.562,2.788,3.528v5.712C719.976,215.981,719.824,216.149,719.64,216.149z"
				/>
			<path fill="#EEE9E3" d="M724.142,205.414h-1.63c-0.185,0-0.353-0.151-0.353-0.336v-1.479c0-0.185,0.168-0.336,0.353-0.336h1.63
				c0.185,0,0.336,0.151,0.336,0.336v1.479C724.478,205.262,724.326,205.414,724.142,205.414z M724.092,216.149h-1.546
				c-0.185,0-0.336-0.168-0.336-0.353v-8.786c0-0.186,0.151-0.337,0.336-0.337h1.546c0.185,0,0.336,0.151,0.336,0.337v8.786
				C724.428,215.981,724.276,216.149,724.092,216.149z"/>
			<path fill="#EEE9E3" d="M733.718,215.846c-1.042,0.27-2.302,0.438-3.377,0.438c-2.704,0-4.015-1.597-4.015-4.217v-1.294
				c0-2.621,1.311-4.217,4.015-4.217c0.403,0,0.991,0.033,1.612,0.117V203.7c0-0.185,0.152-0.336,0.336-0.336h1.547
				c0.184,0,0.336,0.151,0.336,0.336v11.693C734.172,215.645,734.104,215.746,733.718,215.846z M731.953,208.488
				c-0.47-0.066-1.209-0.117-1.612-0.117c-1.444,0-1.798,1.024-1.798,2.402v1.294c0,1.377,0.354,2.402,1.798,2.402
				c0.604,0,1.294-0.051,1.612-0.118V208.488z"/>
			<path fill="#EEE9E3" d="M743.041,216.149h-1.428c-0.185,0-0.336-0.151-0.336-0.336v-0.269c-0.772,0.47-1.562,0.739-2.369,0.739
				c-1.395,0-2.906-0.538-2.906-2.806v-0.067c0-1.915,1.176-2.906,4.1-2.906h1.059v-0.739c0-1.092-0.487-1.361-1.479-1.361
				c-1.075,0-2.184,0.067-2.738,0.135c-0.033,0-0.067,0-0.084,0c-0.168,0-0.303-0.051-0.303-0.285v-1.075
				c0-0.186,0.102-0.303,0.319-0.354c0.672-0.134,1.646-0.269,2.806-0.269c2.386,0,3.695,1.059,3.695,3.209v6.048
				C743.377,215.998,743.227,216.149,743.041,216.149z M741.16,211.983h-1.059c-1.529,0-1.865,0.487-1.865,1.428v0.067
				c0,0.823,0.37,1.041,1.21,1.041c0.604,0,1.227-0.201,1.714-0.47V211.983z"/>
		</g>
		<g enable-background="new    ">
			<path fill="#EEE9E3" d="M528.961,241.884c-0.655,0-2.066-0.084-3.007-0.336c-0.202-0.051-0.319-0.186-0.319-0.387v-1.008
				c0-0.135,0.118-0.27,0.286-0.27c0.034,0,0.05,0,0.067,0c0.806,0.102,2.318,0.186,2.822,0.186c1.042,0,1.193-0.354,1.193-0.807
				c0-0.319-0.202-0.521-0.739-0.856l-2.302-1.411c-0.823-0.505-1.411-1.345-1.411-2.319c0-1.68,1.059-2.52,3.192-2.52
				c1.361,0,2.134,0.151,2.991,0.336c0.202,0.051,0.302,0.185,0.302,0.387v0.975c0,0.201-0.101,0.318-0.269,0.318
				c-0.034,0-0.051,0-0.067,0c-0.47-0.066-1.814-0.201-2.772-0.201c-0.807,0-1.159,0.185-1.159,0.705
				c0,0.27,0.252,0.438,0.672,0.689l2.201,1.344c1.412,0.856,1.613,1.697,1.613,2.554
				C532.254,240.724,531.162,241.884,528.961,241.884z"/>
			<path fill="#EEE9E3" d="M541.511,237.784h-5.477v0.051c0,0.974,0.403,2.133,2.016,2.133c1.227,0,2.386-0.101,3.091-0.168
				c0.017,0,0.033,0,0.05,0c0.168,0,0.302,0.084,0.302,0.252v1.109c0,0.269-0.05,0.387-0.353,0.437
				c-1.092,0.202-1.748,0.286-3.259,0.286c-1.68,0-4.066-0.907-4.066-4.217v-1.243c0-2.621,1.462-4.268,4.032-4.268
				c2.587,0,3.999,1.764,3.999,4.268v0.94C541.847,237.633,541.746,237.784,541.511,237.784z M539.613,236.137
				c0-1.311-0.723-2.066-1.764-2.066s-1.797,0.739-1.797,2.066v0.067h3.562V236.137z"/>
			<path fill="#EEE9E3" d="M554.631,241.749h-1.428c-0.185,0-0.336-0.151-0.336-0.336v-0.269c-0.772,0.47-1.562,0.739-2.369,0.739
				c-1.395,0-2.906-0.538-2.906-2.806v-0.067c0-1.915,1.176-2.906,4.099-2.906h1.059v-0.739c0-1.092-0.487-1.361-1.479-1.361
				c-1.075,0-2.184,0.067-2.738,0.135c-0.034,0-0.067,0-0.084,0c-0.168,0-0.303-0.051-0.303-0.285v-1.075
				c0-0.186,0.101-0.303,0.319-0.354c0.672-0.134,1.646-0.269,2.806-0.269c2.386,0,3.696,1.059,3.696,3.209v6.048
				C554.967,241.597,554.816,241.749,554.631,241.749z M552.75,237.583h-1.059c-1.529,0-1.865,0.487-1.865,1.428v0.067
				c0,0.823,0.37,1.041,1.209,1.041c0.605,0,1.227-0.201,1.714-0.47V237.583z"/>
			<path fill="#EEE9E3" d="M560.226,241.884c-0.655,0-2.066-0.084-3.007-0.336c-0.202-0.051-0.319-0.186-0.319-0.387v-1.008
				c0-0.135,0.118-0.27,0.286-0.27c0.034,0,0.05,0,0.067,0c0.806,0.102,2.318,0.186,2.822,0.186c1.042,0,1.193-0.354,1.193-0.807
				c0-0.319-0.202-0.521-0.739-0.856l-2.302-1.411c-0.823-0.505-1.411-1.345-1.411-2.319c0-1.68,1.059-2.52,3.192-2.52
				c1.361,0,2.134,0.151,2.991,0.336c0.202,0.051,0.302,0.185,0.302,0.387v0.975c0,0.201-0.101,0.318-0.269,0.318
				c-0.034,0-0.051,0-0.067,0c-0.47-0.066-1.814-0.201-2.772-0.201c-0.807,0-1.159,0.185-1.159,0.705
				c0,0.27,0.252,0.438,0.672,0.689l2.201,1.344c1.411,0.856,1.613,1.697,1.613,2.554
				C563.518,240.724,562.426,241.884,560.226,241.884z"/>
			<path fill="#EEE9E3" d="M569.096,241.884c-2.638,0-4.015-1.781-4.015-4.184v-1.36c0-2.402,1.377-4.184,4.015-4.184
				c2.637,0,4.015,1.781,4.015,4.184v1.36C573.111,240.102,571.733,241.884,569.096,241.884z M570.894,236.34
				c0-1.378-0.622-2.269-1.797-2.269c-1.176,0-1.798,0.891-1.798,2.269v1.36c0,1.378,0.622,2.268,1.798,2.268
				c1.176,0,1.797-0.89,1.797-2.268V236.34z"/>
			<path fill="#EEE9E3" d="M580.671,241.665c-0.386,0.101-1.142,0.219-2.167,0.219c-2.184,0-3.831-1.345-3.831-4.083v-1.562
				c0-2.738,1.646-4.082,3.831-4.082c1.025,0,1.781,0.117,2.167,0.219c0.286,0.066,0.353,0.168,0.353,0.437v1.092
				c0,0.168-0.134,0.252-0.302,0.252c-0.017,0-0.034,0-0.051,0c-0.672-0.084-1.075-0.117-2.167-0.117c-0.79,0-1.613,0.453-1.613,2.2
				v1.562c0,1.747,0.823,2.201,1.613,2.201c1.092,0,1.495-0.034,2.167-0.118c0.017,0,0.034,0,0.051,0
				c0.168,0,0.302,0.084,0.302,0.252v1.093C581.024,241.497,580.957,241.597,580.671,241.665z"/>
			<path fill="#EEE9E3" d="M584.854,231.013h-1.629c-0.185,0-0.353-0.151-0.353-0.336v-1.479c0-0.185,0.168-0.336,0.353-0.336h1.629
				c0.185,0,0.336,0.151,0.336,0.336v1.479C585.19,230.862,585.039,231.013,584.854,231.013z M584.804,241.749h-1.545
				c-0.185,0-0.336-0.168-0.336-0.353v-8.786c0-0.186,0.151-0.337,0.336-0.337h1.545c0.185,0,0.336,0.151,0.336,0.337v8.786
				C585.14,241.581,584.989,241.749,584.804,241.749z"/>
			<path fill="#EEE9E3" d="M594.06,241.749h-1.428c-0.185,0-0.336-0.151-0.336-0.336v-0.269c-0.772,0.47-1.562,0.739-2.369,0.739
				c-1.395,0-2.906-0.538-2.906-2.806v-0.067c0-1.915,1.176-2.906,4.099-2.906h1.059v-0.739c0-1.092-0.487-1.361-1.479-1.361
				c-1.075,0-2.184,0.067-2.738,0.135c-0.034,0-0.067,0-0.084,0c-0.168,0-0.303-0.051-0.303-0.285v-1.075
				c0-0.186,0.101-0.303,0.319-0.354c0.672-0.134,1.646-0.269,2.806-0.269c2.386,0,3.696,1.059,3.696,3.209v6.048
				C594.396,241.597,594.245,241.749,594.06,241.749z M592.179,237.583h-1.059c-1.529,0-1.865,0.487-1.865,1.428v0.067
				c0,0.823,0.37,1.041,1.209,1.041c0.605,0,1.227-0.201,1.714-0.47V237.583z"/>
			<path fill="#EEE9E3" d="M607.466,241.749h-1.428c-0.185,0-0.336-0.151-0.336-0.336v-0.269c-0.772,0.47-1.562,0.739-2.369,0.739
				c-1.395,0-2.906-0.538-2.906-2.806v-0.067c0-1.915,1.176-2.906,4.099-2.906h1.059v-0.739c0-1.092-0.487-1.361-1.479-1.361
				c-1.075,0-2.184,0.067-2.738,0.135c-0.034,0-0.067,0-0.084,0c-0.168,0-0.303-0.051-0.303-0.285v-1.075
				c0-0.186,0.101-0.303,0.319-0.354c0.672-0.134,1.646-0.269,2.806-0.269c2.386,0,3.696,1.059,3.696,3.209v6.048
				C607.802,241.597,607.651,241.749,607.466,241.749z M605.585,237.583h-1.059c-1.529,0-1.865,0.487-1.865,1.428v0.067
				c0,0.823,0.37,1.041,1.209,1.041c0.605,0,1.227-0.201,1.714-0.47V237.583z"/>
			<path fill="#EEE9E3" d="M616.168,241.749h-1.562c-0.185,0-0.336-0.168-0.336-0.353V229.3c0-0.185,0.151-0.336,0.336-0.336h1.562
				c0.185,0,0.319,0.151,0.319,0.336v12.097C616.488,241.581,616.354,241.749,616.168,241.749z"/>
			<path fill="#EEE9E3" d="M625.442,241.749h-1.428c-0.185,0-0.336-0.151-0.336-0.336v-0.269c-0.772,0.47-1.562,0.739-2.369,0.739
				c-1.395,0-2.906-0.538-2.906-2.806v-0.067c0-1.915,1.176-2.906,4.099-2.906h1.059v-0.739c0-1.092-0.487-1.361-1.479-1.361
				c-1.075,0-2.184,0.067-2.738,0.135c-0.034,0-0.067,0-0.084,0c-0.168,0-0.303-0.051-0.303-0.285v-1.075
				c0-0.186,0.101-0.303,0.319-0.354c0.672-0.134,1.646-0.269,2.806-0.269c2.386,0,3.696,1.059,3.696,3.209v6.048
				C625.778,241.597,625.627,241.749,625.442,241.749z M623.561,237.583h-1.059c-1.529,0-1.865,0.487-1.865,1.428v0.067
				c0,0.823,0.37,1.041,1.209,1.041c0.605,0,1.227-0.201,1.714-0.47V237.583z"/>
			<path fill="#EEE9E3" d="M635.992,241.884c-0.403,0-0.991-0.034-1.613-0.118v2.974c0,0.185-0.151,0.336-0.336,0.336h-1.545
				c-0.185,0-0.336-0.151-0.336-0.336v-11.692c0-0.252,0.067-0.353,0.454-0.454c1.042-0.269,2.302-0.437,3.377-0.437
				c2.705,0,4.015,1.596,4.015,4.217v1.294C640.007,240.287,638.697,241.884,635.992,241.884z M637.79,236.373
				c0-1.378-0.353-2.402-1.798-2.402c-0.605,0-1.293,0.051-1.613,0.117v5.863c0.47,0.067,1.209,0.118,1.613,0.118
				c1.445,0,1.798-1.025,1.798-2.402V236.373z"/>
			<path fill="#EEE9E3" d="M649.265,237.784h-5.478v0.051c0,0.974,0.404,2.133,2.017,2.133c1.227,0,2.386-0.101,3.091-0.168
				c0.018,0,0.033,0,0.051,0c0.168,0,0.303,0.084,0.303,0.252v1.109c0,0.269-0.051,0.387-0.354,0.437
				c-1.092,0.202-1.747,0.286-3.259,0.286c-1.681,0-4.065-0.907-4.065-4.217v-1.243c0-2.621,1.461-4.268,4.031-4.268
				c2.588,0,3.999,1.764,3.999,4.268v0.94C649.601,237.633,649.5,237.784,649.265,237.784z M647.366,236.137
				c0-1.311-0.723-2.066-1.765-2.066c-1.041,0-1.797,0.739-1.797,2.066v0.067h3.562V236.137z M648.357,228.914l-1.982,2.083
				c-0.135,0.151-0.201,0.219-0.403,0.219h-1.444c-0.102,0-0.152-0.051-0.152-0.118c0-0.05,0.018-0.117,0.068-0.168l1.596-2.016
				c0.15-0.185,0.219-0.252,0.437-0.252h1.765c0.117,0,0.184,0.05,0.184,0.117C648.424,228.813,648.408,228.863,648.357,228.914z"/>
			<path fill="#EEE9E3" d="M656.034,234.038c-0.907,0-1.612,0.235-2.318,0.604v6.754c0,0.185-0.151,0.353-0.336,0.353h-1.546
				c-0.185,0-0.336-0.168-0.336-0.353v-8.786c0-0.186,0.151-0.337,0.336-0.337h1.462c0.185,0,0.336,0.151,0.336,0.337v0.353
				c0.823-0.639,1.73-0.807,2.402-0.807c0.185,0,0.336,0.151,0.336,0.336v1.21C656.37,233.886,656.219,234.038,656.034,234.038z"/>
			<path fill="#EEE9E3" d="M664.553,241.446c-1.042,0.27-2.303,0.438-3.377,0.438c-2.705,0-4.016-1.597-4.016-4.217v-1.294
				c0-2.621,1.311-4.217,4.016-4.217c0.402,0,0.99,0.033,1.612,0.117V229.3c0-0.185,0.151-0.336,0.336-0.336h1.546
				c0.185,0,0.336,0.151,0.336,0.336v11.693C665.006,241.245,664.938,241.345,664.553,241.446z M662.788,234.088
				c-0.47-0.066-1.21-0.117-1.612-0.117c-1.445,0-1.798,1.024-1.798,2.402v1.294c0,1.377,0.353,2.402,1.798,2.402
				c0.604,0,1.293-0.051,1.612-0.118V234.088z"/>
			<path fill="#EEE9E3" d="M669.172,231.013h-1.629c-0.186,0-0.354-0.151-0.354-0.336v-1.479c0-0.185,0.168-0.336,0.354-0.336h1.629
				c0.186,0,0.336,0.151,0.336,0.336v1.479C669.508,230.862,669.357,231.013,669.172,231.013z M669.121,241.749h-1.545
				c-0.186,0-0.336-0.168-0.336-0.353v-8.786c0-0.186,0.15-0.337,0.336-0.337h1.545c0.186,0,0.336,0.151,0.336,0.337v8.786
				C669.457,241.581,669.307,241.749,669.121,241.749z"/>
			<path fill="#EEE9E3" d="M678.748,241.446c-1.041,0.27-2.302,0.438-3.377,0.438c-2.705,0-4.016-1.597-4.016-4.217v-1.294
				c0-2.621,1.311-4.217,4.016-4.217c0.403,0,0.991,0.033,1.613,0.117V229.3c0-0.185,0.15-0.336,0.336-0.336h1.545
				c0.186,0,0.336,0.151,0.336,0.336v11.693C679.201,241.245,679.135,241.345,678.748,241.446z M676.984,234.088
				c-0.471-0.066-1.21-0.117-1.613-0.117c-1.445,0-1.797,1.024-1.797,2.402v1.294c0,1.377,0.352,2.402,1.797,2.402
				c0.605,0,1.294-0.051,1.613-0.118V234.088z"/>
			<path fill="#EEE9E3" d="M688.072,241.749h-1.428c-0.186,0-0.337-0.151-0.337-0.336v-0.269c-0.772,0.47-1.562,0.739-2.368,0.739
				c-1.395,0-2.906-0.538-2.906-2.806v-0.067c0-1.915,1.176-2.906,4.099-2.906h1.059v-0.739c0-1.092-0.487-1.361-1.479-1.361
				c-1.075,0-2.185,0.067-2.738,0.135c-0.034,0-0.067,0-0.084,0c-0.168,0-0.303-0.051-0.303-0.285v-1.075
				c0-0.186,0.101-0.303,0.319-0.354c0.672-0.134,1.646-0.269,2.806-0.269c2.386,0,3.696,1.059,3.696,3.209v6.048
				C688.408,241.597,688.257,241.749,688.072,241.749z M686.19,237.583h-1.059c-1.528,0-1.864,0.487-1.864,1.428v0.067
				c0,0.823,0.369,1.041,1.209,1.041c0.605,0,1.227-0.201,1.714-0.47V237.583z"/>
			<path fill="#EEE9E3" d="M701.848,241.446c-1.041,0.27-2.302,0.438-3.377,0.438c-2.705,0-4.016-1.597-4.016-4.217v-1.294
				c0-2.621,1.311-4.217,4.016-4.217c0.403,0,0.991,0.033,1.613,0.117V229.3c0-0.185,0.15-0.336,0.336-0.336h1.545
				c0.186,0,0.336,0.151,0.336,0.336v11.693C702.301,241.245,702.234,241.345,701.848,241.446z M700.084,234.088
				c-0.471-0.066-1.21-0.117-1.613-0.117c-1.445,0-1.797,1.024-1.797,2.402v1.294c0,1.377,0.352,2.402,1.797,2.402
				c0.605,0,1.294-0.051,1.613-0.118V234.088z"/>
			<path fill="#EEE9E3" d="M711.895,237.784h-5.478v0.051c0,0.974,0.403,2.133,2.017,2.133c1.227,0,2.385-0.101,3.091-0.168
				c0.017,0,0.033,0,0.05,0c0.168,0,0.303,0.084,0.303,0.252v1.109c0,0.269-0.051,0.387-0.353,0.437
				c-1.093,0.202-1.747,0.286-3.259,0.286c-1.681,0-4.066-0.907-4.066-4.217v-1.243c0-2.621,1.462-4.268,4.032-4.268
				c2.587,0,3.999,1.764,3.999,4.268v0.94C712.23,237.633,712.129,237.784,711.895,237.784z M709.996,236.137
				c0-1.311-0.723-2.066-1.765-2.066s-1.798,0.739-1.798,2.066v0.067h3.562V236.137z"/>
			<path fill="#EEE9E3" d="M722.158,241.884c-0.402,0-0.99-0.034-1.612-0.118v2.974c0,0.185-0.151,0.336-0.336,0.336h-1.546
				c-0.185,0-0.336-0.151-0.336-0.336v-11.692c0-0.252,0.067-0.353,0.453-0.454c1.043-0.269,2.303-0.437,3.377-0.437
				c2.705,0,4.016,1.596,4.016,4.217v1.294C726.174,240.287,724.863,241.884,722.158,241.884z M723.956,236.373
				c0-1.378-0.353-2.402-1.798-2.402c-0.604,0-1.293,0.051-1.612,0.117v5.863c0.47,0.067,1.21,0.118,1.612,0.118
				c1.445,0,1.798-1.025,1.798-2.402V236.373z"/>
			<path fill="#EEE9E3" d="M735.431,237.784h-5.478v0.051c0,0.974,0.404,2.133,2.017,2.133c1.227,0,2.386-0.101,3.091-0.168
				c0.018,0,0.033,0,0.051,0c0.168,0,0.303,0.084,0.303,0.252v1.109c0,0.269-0.051,0.387-0.354,0.437
				c-1.092,0.202-1.747,0.286-3.259,0.286c-1.681,0-4.065-0.907-4.065-4.217v-1.243c0-2.621,1.461-4.268,4.031-4.268
				c2.588,0,3.999,1.764,3.999,4.268v0.94C735.767,237.633,735.666,237.784,735.431,237.784z M733.532,236.137
				c0-1.311-0.723-2.066-1.765-2.066c-1.041,0-1.797,0.739-1.797,2.066v0.067h3.562V236.137z"/>
			<path fill="#EEE9E3" d="M740.739,241.884c-0.655,0-2.066-0.084-3.007-0.336c-0.202-0.051-0.32-0.186-0.32-0.387v-1.008
				c0-0.135,0.118-0.27,0.286-0.27c0.034,0,0.05,0,0.067,0c0.807,0.102,2.318,0.186,2.822,0.186c1.041,0,1.193-0.354,1.193-0.807
				c0-0.319-0.202-0.521-0.74-0.856l-2.301-1.411c-0.823-0.505-1.412-1.345-1.412-2.319c0-1.68,1.059-2.52,3.192-2.52
				c1.36,0,2.134,0.151,2.991,0.336c0.201,0.051,0.302,0.185,0.302,0.387v0.975c0,0.201-0.101,0.318-0.269,0.318
				c-0.033,0-0.051,0-0.067,0c-0.47-0.066-1.814-0.201-2.772-0.201c-0.807,0-1.158,0.185-1.158,0.705
				c0,0.27,0.252,0.438,0.672,0.689l2.2,1.344c1.411,0.856,1.612,1.697,1.612,2.554
				C744.031,240.724,742.939,241.884,740.739,241.884z"/>
			<path fill="#EEE9E3" d="M749.609,241.884c-2.637,0-4.015-1.781-4.015-4.184v-1.36c0-2.402,1.378-4.184,4.015-4.184
				c2.638,0,4.016,1.781,4.016,4.184v1.36C753.625,240.102,752.247,241.884,749.609,241.884z M751.407,236.34
				c0-1.378-0.622-2.269-1.798-2.269s-1.797,0.891-1.797,2.269v1.36c0,1.378,0.621,2.268,1.797,2.268s1.798-0.89,1.798-2.268V236.34
				z"/>
		</g>
		<g enable-background="new    ">
			<path fill="#EEE9E3" d="M562.52,263.385h-5.477v0.051c0,0.974,0.403,2.133,2.016,2.133c1.227,0,2.386-0.101,3.091-0.168
				c0.017,0,0.033,0,0.05,0c0.168,0,0.302,0.084,0.302,0.252v1.109c0,0.269-0.05,0.387-0.353,0.437
				c-1.092,0.202-1.748,0.286-3.259,0.286c-1.68,0-4.065-0.907-4.065-4.217v-1.243c0-2.621,1.461-4.268,4.032-4.268
				c2.587,0,3.999,1.764,3.999,4.268v0.94C562.856,263.233,562.755,263.385,562.52,263.385z M560.622,261.738
				c0-1.311-0.723-2.066-1.764-2.066s-1.797,0.739-1.797,2.066v0.067h3.562V261.738z"/>
			<path fill="#EEE9E3" d="M572.18,267.349h-1.545c-0.185,0-0.336-0.168-0.336-0.353v-5.477c0-1.462-0.134-1.882-1.428-1.882
				c-0.571,0-1.193,0.235-1.898,0.604v6.754c0,0.185-0.151,0.353-0.336,0.353h-1.545c-0.185,0-0.336-0.168-0.336-0.353v-8.786
				c0-0.186,0.151-0.337,0.336-0.337h1.461c0.185,0,0.336,0.151,0.336,0.337v0.353c0.975-0.622,1.613-0.807,2.722-0.807
				c2.419,0,2.906,1.63,2.906,3.764v5.477C572.516,267.181,572.364,267.349,572.18,267.349z"/>
			<path fill="#EEE9E3" d="M585.586,267.349h-1.428c-0.185,0-0.336-0.151-0.336-0.336v-0.269c-0.772,0.47-1.562,0.739-2.369,0.739
				c-1.395,0-2.906-0.538-2.906-2.806v-0.067c0-1.915,1.176-2.906,4.099-2.906h1.059v-0.739c0-1.092-0.487-1.361-1.479-1.361
				c-1.075,0-2.184,0.067-2.738,0.135c-0.034,0-0.067,0-0.084,0c-0.168,0-0.303-0.051-0.303-0.285v-1.075
				c0-0.186,0.101-0.303,0.319-0.354c0.672-0.134,1.646-0.269,2.806-0.269c2.386,0,3.696,1.059,3.696,3.209v6.048
				C585.922,267.198,585.771,267.349,585.586,267.349z M583.705,263.183h-1.059c-1.529,0-1.865,0.487-1.865,1.428v0.067
				c0,0.823,0.37,1.041,1.209,1.041c0.605,0,1.227-0.201,1.714-0.47V263.183z"/>
			<path fill="#EEE9E3" d="M595.162,267.047c-1.042,0.27-2.302,0.438-3.377,0.438c-2.705,0-4.015-1.597-4.015-4.217v-1.294
				c0-2.621,1.311-4.217,4.015-4.217c0.403,0,0.991,0.033,1.613,0.117V254.9c0-0.185,0.151-0.336,0.336-0.336h1.545
				c0.185,0,0.336,0.151,0.336,0.336v11.693C595.615,266.845,595.548,266.946,595.162,267.047z M593.397,259.688
				c-0.47-0.066-1.209-0.117-1.613-0.117c-1.445,0-1.797,1.024-1.797,2.402v1.294c0,1.377,0.353,2.402,1.797,2.402
				c0.605,0,1.294-0.051,1.613-0.118V259.688z"/>
			<path fill="#EEE9E3" d="M605.225,267.349h-1.545c-0.185,0-0.336-0.151-0.336-0.336v-0.387c-0.874,0.571-1.562,0.84-2.637,0.84
				c-0.84,0-1.58-0.218-2.066-0.705c-0.622-0.622-0.84-1.663-0.84-3.058v-5.477c0-0.186,0.151-0.354,0.336-0.354h1.545
				c0.185,0,0.336,0.168,0.336,0.354v5.477c0,0.84,0.067,1.327,0.386,1.612c0.235,0.202,0.521,0.303,1.042,0.303
				c0.622,0,1.428-0.42,1.898-0.672v-6.72c0-0.186,0.151-0.354,0.336-0.354h1.545c0.185,0,0.336,0.168,0.336,0.354v8.786
				C605.561,267.198,605.41,267.349,605.225,267.349z"/>
			<path fill="#EEE9E3" d="M609.727,267.349h-1.562c-0.185,0-0.336-0.168-0.336-0.353V254.9c0-0.185,0.151-0.336,0.336-0.336h1.562
				c0.185,0,0.319,0.151,0.319,0.336v12.097C610.046,267.181,609.912,267.349,609.727,267.349z"/>
			<path fill="#EEE9E3" d="M617.287,267.366c-0.403,0.067-0.773,0.118-1.143,0.118c-1.898,0-2.671-0.42-2.671-2.672v-5.274
				l-1.579-0.235c-0.185-0.034-0.336-0.151-0.336-0.336v-0.756c0-0.186,0.151-0.337,0.336-0.337h1.579v-1.377
				c0-0.185,0.151-0.303,0.336-0.336l1.562-0.27c0.017,0,0.051,0,0.067,0c0.151,0,0.269,0.084,0.269,0.253v1.729h1.512
				c0.185,0,0.336,0.151,0.336,0.337v0.99c0,0.186-0.151,0.337-0.336,0.337h-1.512v5.274c0,0.84,0.051,0.941,0.655,0.941h0.891
				c0.218,0,0.353,0.084,0.353,0.252v1.059C617.606,267.232,617.505,267.333,617.287,267.366z"/>
			<path fill="#EEE9E3" d="M622.68,267.484c-2.638,0-4.016-1.781-4.016-4.184v-1.36c0-2.402,1.378-4.184,4.016-4.184
				c2.637,0,4.015,1.781,4.015,4.184v1.36C626.695,265.703,625.317,267.484,622.68,267.484z M624.478,261.94
				c0-1.378-0.622-2.269-1.797-2.269c-1.176,0-1.798,0.891-1.798,2.269v1.36c0,1.378,0.622,2.268,1.798,2.268
				c1.176,0,1.797-0.89,1.797-2.268V261.94z"/>
			<path fill="#EEE9E3" d="M631.668,267.484c-0.655,0-2.066-0.084-3.007-0.336c-0.202-0.051-0.319-0.186-0.319-0.387v-1.008
				c0-0.135,0.118-0.27,0.286-0.27c0.034,0,0.05,0,0.067,0c0.806,0.102,2.318,0.186,2.822,0.186c1.042,0,1.193-0.354,1.193-0.807
				c0-0.319-0.202-0.521-0.739-0.856l-2.302-1.411c-0.823-0.505-1.411-1.345-1.411-2.319c0-1.68,1.059-2.52,3.192-2.52
				c1.361,0,2.134,0.151,2.991,0.336c0.202,0.051,0.302,0.185,0.302,0.387v0.975c0,0.201-0.101,0.318-0.269,0.318
				c-0.034,0-0.051,0-0.067,0c-0.47-0.066-1.814-0.201-2.772-0.201c-0.807,0-1.159,0.185-1.159,0.705
				c0,0.27,0.252,0.438,0.672,0.689l2.201,1.344c1.412,0.856,1.613,1.697,1.613,2.554
				C634.96,266.325,633.869,267.484,631.668,267.484z"/>
			<path fill="#EEE9E3" d="M648.888,258.26l-2.806,9.812c-0.521,1.831-1.143,2.638-3.428,2.638c-0.554,0-1.395-0.102-1.78-0.219
				c-0.185-0.051-0.353-0.117-0.353-0.285v-1.075c0-0.186,0.15-0.303,0.336-0.303c0.017,0,0.017,0,0.033,0
				c0.471,0.017,1.428,0.101,1.898,0.101c0.723,0,1.092-0.201,1.328-1.075l0.134-0.504h-0.252c-0.487,0-1.093-0.117-1.462-1.395
				l-2.201-7.694c-0.017-0.05-0.017-0.084-0.017-0.117c0-0.168,0.101-0.27,0.319-0.27h1.697c0.15,0,0.285,0.151,0.318,0.303
				l1.697,6.838c0.067,0.285,0.135,0.369,0.235,0.369h0.017c0.033,0,0.067,0,0.084,0c0.051,0,0.051,0,0.051,0l1.814-7.224
				c0.033-0.151,0.168-0.286,0.336-0.286h1.713c0.168,0,0.303,0.135,0.303,0.286C648.904,258.193,648.904,258.227,648.888,258.26z"
				/>
			<path fill="#EEE9E3" d="M662.025,263.385h-5.477v0.051c0,0.974,0.402,2.133,2.016,2.133c1.227,0,2.386-0.101,3.092-0.168
				c0.016,0,0.033,0,0.05,0c0.168,0,0.302,0.084,0.302,0.252v1.109c0,0.269-0.05,0.387-0.352,0.437
				c-1.093,0.202-1.748,0.286-3.26,0.286c-1.68,0-4.066-0.907-4.066-4.217v-1.243c0-2.621,1.463-4.268,4.033-4.268
				c2.587,0,3.998,1.764,3.998,4.268v0.94C662.361,263.233,662.26,263.385,662.025,263.385z M660.127,261.738
				c0-1.311-0.723-2.066-1.764-2.066c-1.042,0-1.798,0.739-1.798,2.066v0.067h3.562V261.738z"/>
			<path fill="#EEE9E3" d="M671.686,267.349h-1.546c-0.185,0-0.337-0.168-0.337-0.353v-5.477c0-1.462-0.134-1.882-1.428-1.882
				c-0.57,0-1.192,0.235-1.898,0.604v6.754c0,0.185-0.15,0.353-0.336,0.353h-1.545c-0.186,0-0.336-0.168-0.336-0.353v-8.786
				c0-0.186,0.15-0.337,0.336-0.337h1.461c0.186,0,0.336,0.151,0.336,0.337v0.353c0.975-0.622,1.613-0.807,2.723-0.807
				c2.418,0,2.906,1.63,2.906,3.764v5.477C672.021,267.181,671.869,267.349,671.686,267.349z"/>
			<path fill="#EEE9E3" d="M684.066,267.265c-0.387,0.101-1.143,0.219-2.167,0.219c-2.185,0-3.831-1.345-3.831-4.083v-1.562
				c0-2.738,1.646-4.082,3.831-4.082c1.024,0,1.78,0.117,2.167,0.219c0.285,0.066,0.354,0.168,0.354,0.437v1.092
				c0,0.168-0.135,0.252-0.303,0.252c-0.018,0-0.033,0-0.051,0c-0.672-0.084-1.075-0.117-2.167-0.117c-0.79,0-1.612,0.453-1.612,2.2
				v1.562c0,1.747,0.822,2.201,1.612,2.201c1.092,0,1.495-0.034,2.167-0.118c0.018,0,0.033,0,0.051,0
				c0.168,0,0.303,0.084,0.303,0.252v1.093C684.42,267.097,684.352,267.198,684.066,267.265z"/>
			<path fill="#EEE9E3" d="M693.693,267.349h-1.546c-0.185,0-0.337-0.168-0.337-0.353v-5.527c0-1.462-0.252-1.831-1.377-1.831
				c-0.571,0-1.243,0.201-1.949,0.571v6.787c0,0.185-0.15,0.353-0.336,0.353h-1.545c-0.186,0-0.336-0.168-0.336-0.353V254.9
				c0-0.185,0.15-0.336,0.336-0.336h1.545c0.186,0,0.336,0.151,0.336,0.336v3.479c0.639-0.387,1.345-0.622,2.537-0.622
				c2.318,0,3.008,1.646,3.008,3.713v5.527C694.029,267.181,693.877,267.349,693.693,267.349z"/>
			<path fill="#EEE9E3" d="M698.195,256.614h-1.63c-0.185,0-0.353-0.151-0.353-0.336V254.8c0-0.185,0.168-0.336,0.353-0.336h1.63
				c0.185,0,0.336,0.151,0.336,0.336v1.479C698.531,256.463,698.38,256.614,698.195,256.614z M698.145,267.349H696.6
				c-0.186,0-0.336-0.168-0.336-0.353v-8.786c0-0.186,0.15-0.337,0.336-0.337h1.545c0.186,0,0.336,0.151,0.336,0.337v8.786
				C698.48,267.181,698.33,267.349,698.145,267.349z"/>
			<path fill="#EEE9E3" d="M706.377,267.265c-0.387,0.101-1.143,0.219-2.168,0.219c-2.184,0-3.83-1.345-3.83-4.083v-1.562
				c0-2.738,1.646-4.082,3.83-4.082c1.025,0,1.781,0.117,2.168,0.219c0.285,0.066,0.353,0.168,0.353,0.437v1.092
				c0,0.168-0.134,0.252-0.302,0.252c-0.018,0-0.034,0-0.051,0c-0.672-0.084-1.076-0.117-2.168-0.117
				c-0.789,0-1.612,0.453-1.612,2.2v1.562c0,1.747,0.823,2.201,1.612,2.201c1.092,0,1.496-0.034,2.168-0.118
				c0.017,0,0.033,0,0.051,0c0.168,0,0.302,0.084,0.302,0.252v1.093C706.729,267.097,706.662,267.198,706.377,267.265z"/>
			<path fill="#EEE9E3" d="M712.055,267.484c-2.638,0-4.016-1.781-4.016-4.184v-1.36c0-2.402,1.378-4.184,4.016-4.184
				c2.637,0,4.016,1.781,4.016,4.184v1.36C716.07,265.703,714.691,267.484,712.055,267.484z M713.852,261.94
				c0-1.378-0.621-2.269-1.797-2.269s-1.798,0.891-1.798,2.269v1.36c0,1.378,0.622,2.268,1.798,2.268s1.797-0.89,1.797-2.268V261.94
				z"/>
			<path fill="#EEE9E3" d="M721.043,267.484c-0.656,0-2.066-0.084-3.008-0.336c-0.201-0.051-0.319-0.186-0.319-0.387v-1.008
				c0-0.135,0.118-0.27,0.286-0.27c0.033,0,0.05,0,0.066,0c0.807,0.102,2.318,0.186,2.822,0.186c1.042,0,1.193-0.354,1.193-0.807
				c0-0.319-0.201-0.521-0.739-0.856l-2.302-1.411c-0.822-0.505-1.411-1.345-1.411-2.319c0-1.68,1.059-2.52,3.192-2.52
				c1.36,0,2.133,0.151,2.99,0.336c0.201,0.051,0.303,0.185,0.303,0.387v0.975c0,0.201-0.102,0.318-0.27,0.318
				c-0.033,0-0.051,0-0.066,0c-0.471-0.066-1.814-0.201-2.772-0.201c-0.807,0-1.159,0.185-1.159,0.705
				c0,0.27,0.252,0.438,0.672,0.689l2.201,1.344c1.41,0.856,1.612,1.697,1.612,2.554
				C724.335,266.325,723.243,267.484,721.043,267.484z"/>
		</g>
		<g>
			<g>
				<g>
					<g>
						<path fill="#E2D4D5" d="M530.527,190.014c2.407,0,4.311-1.951,4.311-4.359c0-2.409-1.978-4.363-4.386-4.363
							c-0.023,0-0.061,0.005-0.084,0.005c0.951-0.757,2.146-1.214,3.457-1.214c0.602,0,1.086-0.487,1.086-1.091
							c0-0.602-0.387-1.09-0.99-1.09c-4.275,0-7.651,3.478-7.651,7.753v0.001C526.271,188.062,528.12,190.014,530.527,190.014
							L530.527,190.014z"/>
						<path fill="#E2D4D5" d="M540.741,190.014c2.408,0,4.313-1.951,4.313-4.359c0-2.409-1.979-4.363-4.387-4.363
							c-0.022,0-0.06,0.005-0.084,0.005c0.954-0.757,2.151-1.214,3.46-1.214c0.602,0,1.087-0.487,1.087-1.091
							c0-0.602-0.394-1.09-0.997-1.09c-4.273,0-7.656,3.478-7.656,7.753v0.001C536.478,188.062,538.334,190.014,540.741,190.014
							L540.741,190.014z"/>
					</g>
				</g>
				<g>
					<g>
						<path fill="#E2D4D5" d="M751.334,255.479c-2.408,0-4.309,1.953-4.309,4.359c0,2.409,1.978,4.361,4.386,4.361
							c0.022,0,0.061-0.003,0.084-0.003c-0.951,0.757-2.147,1.215-3.457,1.215c-0.603,0-1.086,0.487-1.086,1.09
							c0,0.604,0.386,1.09,0.99,1.09c4.273,0,7.65-3.479,7.65-7.753v-0.003C755.594,257.433,753.741,255.479,751.334,255.479
							L751.334,255.479z"/>
						<path fill="#E2D4D5" d="M741.122,255.479c-2.407,0-4.314,1.953-4.314,4.359c0,2.409,1.979,4.361,4.388,4.361
							c0.022,0,0.06-0.003,0.083-0.003c-0.953,0.757-2.149,1.215-3.459,1.215c-0.604,0-1.086,0.487-1.086,1.09
							c0,0.604,0.393,1.09,0.997,1.09c4.272,0,7.655-3.479,7.655-7.753v-0.003C745.386,257.433,743.528,255.479,741.122,255.479
							L741.122,255.479z"/>
					</g>
				</g>
			</g>
		</g>
	</g>
</g>
<g id="Hilos">
	<line fill="none" stroke="#FFFFFF" stroke-miterlimit="10" x1="519.92" y1="140.456" x2="519.92" y2="0"/>
	<line fill="none" stroke="#FFFFFF" stroke-miterlimit="10" x1="757.92" y1="140.456" x2="757.92" y2="0"/>
</g>
</svg>
