<?xml version="1.0" encoding="utf-8"?>
<!-- Generator: Adobe Illustrator 16.0.0, SVG Export Plug-In . SVG Version: 6.00 Build 0)  -->
<!DOCTYPE svg PUBLIC "-//W3C//DTD SVG 1.1//EN" "http://www.w3.org/Graphics/SVG/1.1/DTD/svg11.dtd">
<svg version="1.1" xmlns="http://www.w3.org/2000/svg" xmlns:xlink="http://www.w3.org/1999/xlink" x="0px" y="0px" width="1280px"
	 height="698.8px" viewBox="0 0 1280 698.8" style="enable-background:new 0 0 1280 698.8;" xml:space="preserve">
<g id="BG">
	<rect style="fill:#A0D2CA;" width="1280" height="700"/>
</g>
<g id="Lousteau_Outline">
	<g>
		<g>
			<path style="fill:#BFE0D3;" d="M880.1,2531c-83.2-10-130.8-14.4-137.6-27.4l2.1-705.4c27.4-14.4,45.4-36.3,45.4-70.5
				c0-7.2-0.2-357.3-0.1-567.4l33.1,273.7l0.8,334.2c-2.5,1.7-4.6,3.6-6.7,5.7c-6,1.6-11.4,4.6-15.9,9l-15.4,15.5
				c-5.6,5.7-8.8,13.4-8.8,21.3l0,24.1c0,6.4,5.2,11.5,11.6,11.5l0.2,0c6.4,0,11.5-1.7,11.5-8.1l0-16.7h4.7l0,10.9l-0.1-1.7
				l0.1,69.7c0,7.5,6.1,13.2,13.7,13.1l0.3-0.2c7.5,0,13.6-2.4,13.6-9.9l-0.1-66.9h3.1l0.1,77.4c0,6.2,5,10.6,11.2,10.6h0.2
				c6.2,0,11.2-4.4,11.2-10.6l-0.1-77.4h3.8l0.1,72.1c0,6.2,5,9.3,11.2,9.3l0.2-1c6.2,0,11.2-1.6,11.2-7.9l-0.1-72.6h2.7l0.1,53.9
				c0,7.5,6.2,11.7,13.6,11.7l0.3-1c7.5,0,9.5-6.6,9.5-14.1l-0.1-58l-0.1-34.3c0-19-9.8-35-25.9-40.6l-0.4-338.3
				c0-2.7-0.6-5.3-1.5-7.7l-48-434.3c-1.4-13-16.3-22.8-29.3-21.4l-7.8,0.8c-5.7,0.6-11.5,3.2-16,6.9c-19.1-37.7-62.6-68-106-78.5
				l1-53.2c47.1-16.8,80.8-61.7,80.7-114.5l0-21.6c1.5,0.1,2.9,0.2,4.4,0.2c35.1,0,63.5-28.4,63.5-63.5c0-27.5-17.5-50.8-41.9-59.7
				c24.4-8.9,41.9-32.2,41.9-59.7c0-10.4-2.5-20.1-6.9-28.8c17.7-10.5,30.4-31.6,30.4-53.6c0-30.9-23.4-60.4-52.2-60.4
				c-5.1,0-10.1,0.8-14.7,2.3c2.6-6.9,4-10,4-17.9c0-1.9-0.1-1.5-0.3-3.4c-2.6-31.2-27.1-48.3-57-48.3c-14,0-27.3,0-27.3,0
				s-3.6-53.7-65.2-53.7c-56.8,0-65.2,53.7-65.2,53.7s-13.3,0-27.3,0c-29.9,0-54.4,17.1-57,48.4c-0.1,1.9-0.3,2.6-0.3,4.5
				c0,8,1.5,12.1,4,19.1c-4.7-1.5-9.6-2.6-14.7-2.6c-28.8,0-52.2,27.7-52.2,58.6c0,21.9,12.7,43.1,30.4,53.5
				c-4.4,8.6-6.9,18.4-6.9,28.7c0,27.5,17.5,50.8,41.9,59.7c-24.4,8.9-41.9,32.2-41.9,59.7c0,35.1,28.4,63.5,63.5,63.5
				c1.4,0,2.7-0.1,4-0.2l0,21.9c0.1,54.3,35.8,100.2,85,115.7l-1,49.7c-47.3,8.5-96.5,39.1-116.3,80.7c-4.7-4.3-11.1-7.3-17.4-8
				l-7.8-0.8c-13-1.4-26.2,6.5-27.7,19.5l-48,436.9c-0.9,2.5-1.5,5-1.5,7.7l-0.4,340.8c-12.7,7-20.2,21.4-20.2,38l-0.1,34.2
				l-0.1,57.7c0,7.5,1.9,13.6,9.5,13.6l0.3,0c7.5,0,13.6-2.2,13.6-9.7l0.1-53.9h2.7l-0.1,72.1c0,6.2,5,9.3,11.2,9.3l0.2-0.9
				c6.2,0,11.2-1.6,11.2-7.9l0.1-72.6h3.8l-0.1,77.4c0,6.2,5,10.6,11.2,10.6h0.2c6.2,0,11.2-4.4,11.2-10.6l0.1-77.4h3.1l-0.2,66.8
				c0,7.5,3.4,11.7,13.6,11.7l0.3-1c7.5,0,13.7-6.6,13.6-14.1l0.1-70.9l-0.1,3.4l0-11h4.7l0,16.7c0,6.4,5.2,9.8,11.5,9.8l0.3-0.1
				c6.4,0,11.5-6.4,11.6-12.8l0-24.3c0-8-3.2-15.7-8.8-21.4l-15.5-15.5c-4.5-4.5-10-7.5-16-9.1c-3.6-3.6-7.8-6.6-12.5-8.8l0.4-331.1
				l33.2-300.5c0.5,207.6-1.7,603.8-1.7,603.9c0,37.7,18.4,56.6,45.4,68.3v676.1v101.9h397.5C915.2,2583.5,919.9,2535.8,880.1,2531z
				 M574.4,2503.9l-1.6-686.9c20.5,1.6,38.6,4.6,56.7,4.6c23,0,38.3-1.3,60.3-4.5v662.8v45.2
				C621.7,2518.5,588.1,2516.1,574.4,2503.9z"/>
			<path style="fill:none;stroke:#5BA4C2;stroke-width:4;stroke-linecap:round;stroke-linejoin:round;stroke-miterlimit:10;" d="
				M880.8,2529.6c-83.4-7.9-128.8-12.2-135.8-25.3v-709.5c28-14.4,43.2-36.8,43.2-71c0-7.2,2.7-359.5,2.8-569.6l31.7,275.9
				l1.1,334.2c-2.5,1.7-4.5,3.6-6.6,5.7c-6,1.6-11.4,4.6-15.8,9l-15.4,15.5c-5.7,5.7-8.8,13.4-8.7,21.3l0,24.1
				c0,8.7,4.5,14.6,10.9,14.6l0.2,0c6.4,0,12.2-1.9,12.2-8.2l0-17.3h4.7l0,11.5l-0.1-3.1l0.1,69c0,7.5,6.1,13.8,13.7,13.8l-0.1-0.1
				c7.6,0,14-4.7,14-12.2l-0.1-61.9h3.1l0.1,77.9c0,6.2,5,11.1,11.2,11.1h0.2c6.2,0,11.2-4.9,11.2-11.1l-0.1-77.9h3.8l0.1,70.1
				c0,6.2,5,9.9,11.2,9.9h0.2c6.2,0,11.2-3.1,11.2-9.3L885,1846h2.7l0.1,48.8c0,7.5,4.2,13.2,11.6,13.2h0.3
				c7.5,0,11.5-8.1,11.5-15.6l-0.1-58.1l-0.1-34.3c0-19-9.8-35.1-25.9-40.6l-0.4-338.3c0-2.7-0.6-5.3-1.5-7.7l-48-434.3
				c-1.4-13-14.7-21-27.7-19.6l-7.8,0.8c-5.7,0.6-11.5,3.2-16,6.9c-19.1-37.7-63.1-65.9-106.6-76.4l-0.1-57.1
				c47.1-16.8,80.8-61.7,80.8-114.5l0-21.6c1.5,0.1,2.9,0.2,4.4,0.2c35.1,0,63.5-28.4,63.5-63.5c0-27.5-17.5-50.8-41.9-59.7
				c24.4-8.9,41.9-32.2,41.9-59.7c0-10.4-2.5-20.1-6.9-28.8c17.7-10.5,30.4-31.6,30.4-53.6c0-30.9-23.4-55.9-52.2-55.9
				c-5.1,0-10,0.8-14.7,2.3c2.6-6.9,4-14.5,4-22.5c0-1.9-0.1,0.6-0.3-1.3c-2.6-31.2-27.1-46.2-57-46.2c-14,0-27.3,0-27.3,0
				s-3.6-53.7-65.2-53.7c-56.8,0-65.2,53.7-65.2,53.7s-13.3,0-27.3,0c-29.9,0-54.4,15-57,46.2c-0.1,1.9-0.3,1.5-0.3,3.5
				c0,8,1.5,14.4,4,21.4c-4.7-1.5-9.6-2.8-14.7-2.8c-28.8,0-52.2,24.7-52.2,55.6c0,21.9,12.7,43,30.4,53.5
				c-4.4,8.6-6.9,18.3-6.9,28.7c0,27.5,17.5,50.8,41.9,59.7c-24.4,8.9-41.9,32.2-41.9,59.7c0,35.1,28.4,63.5,63.5,63.5
				c1.4,0,2.7-0.1,4-0.2l0,21.9c0.1,54.3,35.8,100.2,85,115.7l0.1,53.7c-47.3,8.5-97.6,37.9-117.4,79.4c-4.7-4.3-11.1-7.3-17.4-8
				l-7.8-0.8c-13-1.4-26.2,6.5-27.7,19.5l-48,434.2c-0.9,2.5-1.5,5-1.5,7.7l-0.4,340.8c-12.7,7-20.2,21.4-20.2,38l-0.1,34.2
				l-0.1,60.7c0,7.5,4,13.6,11.5,13.6l0.3,0c7.5,0,11.6-5.1,11.6-12.6l0.1-49.8h2.7l-0.1,70c0,6.2,5,11,11.2,11h0.2
				c6.2,0,11.2-4.1,11.2-10.3l0.1-70.7h3.8l-0.1,77.9c0,6.2,5,11.1,11.2,11.1h0.2c6.2,0,11.2-4.9,11.2-11.1l0.1-77.9h3.1l-0.2,65.2
				c0,7.5,5.1,10.8,12.6,10.8h0.3c7.5,0,14.7-4.6,14.6-12.1l0.1-75.2l-0.1,6.3l0-8h4.7l0,13.6c0,6.4,5.2,8.2,11.5,8.3l0.3-0.1
				c6.4,0,11.6-7.6,11.6-14l0-24.5c0-8-3.2-15.8-8.8-21.5l-15.5-15.6c-4.5-4.5-10-7.5-16-9.1c-3.6-3.6-7.8-6.7-12.5-8.8l0.4-331.1
				l33.2-300.6c0.5,207.6-3.4,603.8-3.4,603.9c0,37.7,21.2,59,47.2,70.7v674.3V2582h181.9h45.5h170.9
				C916.3,2582,921.5,2533.4,880.8,2529.6z M573,2504.3v-688.7c21,1.6,34.3,2.1,52.4,2.1c23,0,51.6-1.3,64.6-4.6v665.2v45.2
				C622,2517.1,587,2516.6,573,2504.3z"/>
		</g>
	</g>
</g>
<g id="Cerebro">
	<g>
		<g>
			<g>
				<path style="fill:#FBBCA8;" d="M754.5,445.3c0-7.8-3.9-14.6-9.7-18.8c0.4-1.8,0.7-3.6,0.7-5.4c0-11.8-8.9-21.5-20.4-22.8
					c-0.5-12.4-10.5-22.2-23-22.2c-3,0-5.8,0.6-8.5,1.7c-2.9-9.4-11.6-16.3-22-16.3c-5.6,0-10.7,2.1-14.7,5.4
					c-4.1-6.6-11.3-11.1-19.6-11.1c-7.8,0-14.7,3.9-18.9,9.8c-3.8-2.6-8.3-4.2-13.2-4.2c-10.7,0-19.6,7.3-22.3,17.2
					c-3.1-1.6-6.7-2.6-10.4-2.6c-12.8,0-23.1,10.3-23.1,23.1c0,0.2,0.1,0.5,0.1,0.7c-12,0.8-21.5,10.7-21.5,22.9
					c0,3.5,0.8,6.8,2.2,9.8c-4.8,4.2-7.9,10.4-7.9,17.2c0,12.8,10.3,23.1,23.1,23.1c0.2,0,0.4-0.1,0.7-0.1
					c3.5,8.3,11.7,14.1,21.3,14.1c7.3,0,13.7-3.4,17.9-8.6c4.2,5.2,10.6,8.6,17.9,8.6c7.3,0,13.7-3.4,17.9-8.7
					c4.2,5.2,10.6,8.7,17.9,8.7c7.3,0,13.7-3.4,17.9-8.6c4.2,5.2,10.6,8.6,17.9,8.6c7.3,0,13.7-3.4,17.9-8.6
					c4.2,5.2,10.6,8.6,17.9,8.6c11.3,0,20.6-8.1,22.7-18.8C745.1,467.3,754.5,457.4,754.5,445.3z"/>
			</g>
		</g>
		<path style="fill:#F9AD95;" d="M744.7,426.5c0.4-1.8,0.7-3.6,0.7-5.4c0-11.8-8.9-21.5-20.4-22.8c-0.5-12.4-10.5-22.2-23-22.2
			c-3,0-5.8,0.6-8.5,1.7c-2.9-9.4-11.6-16.3-22-16.3c-5.6,0-10.7,2.1-14.7,5.4c-4.1-6.6-11.1-11.1-19.4-11.1c-0.5,0-1.2,0.1-1.2,0.1
			v130.8c0.9,0.1,1.8,0.4,2.9,0.4c7.3,0,13.6-3.4,17.8-8.6c4.2,5.2,10.6,8.6,17.8,8.6c7.3,0,13.6-3.4,17.9-8.6
			c4.2,5.2,10.6,8.6,17.9,8.6c11.3,0,20.6-8.1,22.7-18.8c11.9-0.9,21.3-10.8,21.3-22.9C754.5,437.6,750.6,430.7,744.7,426.5z"/>
		<g>
			<path style="fill:#D76A74;" d="M644.8,404.9c0.3,1.6,1.7,2.7,3.3,2.7c0.2,0,0.4,0,0.7-0.1c1.8-0.4,3-2.1,2.6-4
				c-1.1-5.3-6.3-15.4-18.6-15.4c-7.7,0-12.6,4-15.5,8.2c-2.9-4.3-7.8-8.2-15.5-8.2c-12.3,0-17.5,10.1-18.6,15.4
				c-0.4,1.8,0.8,3.6,2.6,4c1.8,0.4,3.6-0.8,4-2.7c0.1-0.4,2.1-10,12-10c9.6,0,11.7,9,12,10c0.3,1.6,1.7,2.7,3.3,2.7
				c0.2,0,0.4,0,0.7-0.1c0,0,0,0,0,0c1.5-0.1,2.7-1.1,3.1-2.6c0.2-1,2.4-10,12-10C642.4,394.8,644.6,403.8,644.8,404.9z"/>
			<path style="fill:#D76A74;" d="M676.1,419.4c-11.9,0-17.2,9.6-18.5,15.6c0,0,0,0,0,0c-12.3,0-17.5,9.5-18.6,14.8
				c-0.4,1.8,0.8,3.3,2.7,3.7c1.8,0.4,3.6-1,4-2.8c0.1-0.4,2.1-10.1,12-10.1c9.6,0,11.8,9,12,10c0.3,1.6,1.7,2.7,3.3,2.7
				c0.2,0,0.4,0,0.7-0.1c1.8-0.4,3-2.1,2.6-4c-0.8-4.2-4.4-11.4-11.9-14.2c0.6-2.2,3.3-9.4,11.8-9.4c9.6,0,11.7,9,12,10
				c0.3,1.6,1.7,2.7,3.3,2.7c0.2,0,0.4,0,0.7-0.1c1.8-0.4,3-1.8,2.6-3.7C693.6,429.2,688.4,419.4,676.1,419.4z"/>
		</g>
	</g>
</g>
</svg>
