<?xml version="1.0" encoding="utf-8"?>
<!-- Generator: Adobe Illustrator 16.0.0, SVG Export Plug-In . SVG Version: 6.00 Build 0)  -->
<!DOCTYPE svg PUBLIC "-//W3C//DTD SVG 1.1//EN" "http://www.w3.org/Graphics/SVG/1.1/DTD/svg11.dtd">
<svg version="1.1" id="cerebro" xmlns="http://www.w3.org/2000/svg" xmlns:xlink="http://www.w3.org/1999/xlink" x="0px" y="0px"
	 width="1280px" height="700px" viewBox="0 0 1280 700" style="enable-background:new 0 0 1280 700;" xml:space="preserve">
<g>
	<path style="fill:#9FD1C9;" d="M659.5,209.6c0-1.3-0.6-2.5-1.6-3.2c0.1-0.3,0.1-0.6,0.1-0.9c0-2-1.5-3.6-3.4-3.8
		c-0.1-2.1-1.8-3.7-3.9-3.7c-0.5,0-1,0.1-1.4,0.3c-0.5-1.6-1.9-2.7-3.7-2.7c-0.9,0-1.8,0.4-2.5,0.9c-0.7-1.1-1.9-1.9-3.3-1.9
		c-1.3,0-2.5,0.7-3.2,1.7c-0.6-0.4-1.4-0.7-2.2-0.7c-1.8,0-3.3,1.2-3.7,2.9c-0.5-0.3-1.1-0.4-1.8-0.4c-2.1,0-3.9,1.7-3.9,3.9
		c0,0,0,0.1,0,0.1c-2,0.1-3.6,1.8-3.6,3.9c0,0.6,0.1,1.1,0.4,1.6c-0.8,0.7-1.3,1.7-1.3,2.9c0,2.1,1.7,3.9,3.9,3.9c0,0,0.1,0,0.1,0
		c0.6,1.4,2,2.4,3.6,2.4c1.2,0,2.3-0.6,3-1.5c0.7,0.9,1.8,1.5,3,1.5c1.2,0,2.3-0.6,3-1.5c0.7,0.9,1.8,1.5,3,1.5s2.3-0.6,3-1.5
		c0.7,0.9,1.8,1.5,3,1.5s2.3-0.6,3-1.5c0.7,0.9,1.8,1.5,3,1.5c1.9,0,3.5-1.4,3.8-3.2C657.9,213.3,659.5,211.6,659.5,209.6z"/>
	<path style="fill:none;stroke:#5BA4C2;stroke-width:2;stroke-linecap:round;stroke-linejoin:round;stroke-miterlimit:10;" d="
		M659.5,209.6c0-1.3-0.6-2.5-1.6-3.2c0.1-0.3,0.1-0.6,0.1-0.9c0-2-1.5-3.6-3.4-3.8c-0.1-2.1-1.8-3.7-3.9-3.7c-0.5,0-1,0.1-1.4,0.3
		c-0.5-1.6-1.9-2.7-3.7-2.7c-0.9,0-1.8,0.4-2.5,0.9c-0.7-1.1-1.9-1.9-3.3-1.9c-1.3,0-2.5,0.7-3.2,1.7c-0.6-0.4-1.4-0.7-2.2-0.7
		c-1.8,0-3.3,1.2-3.7,2.9c-0.5-0.3-1.1-0.4-1.8-0.4c-2.1,0-3.9,1.7-3.9,3.9c0,0,0,0.1,0,0.1c-2,0.1-3.6,1.8-3.6,3.9
		c0,0.6,0.1,1.1,0.4,1.6c-0.8,0.7-1.3,1.7-1.3,2.9c0,2.1,1.7,3.9,3.9,3.9c0,0,0.1,0,0.1,0c0.6,1.4,2,2.4,3.6,2.4
		c1.2,0,2.3-0.6,3-1.5c0.7,0.9,1.8,1.5,3,1.5c1.2,0,2.3-0.6,3-1.5c0.7,0.9,1.8,1.5,3,1.5s2.3-0.6,3-1.5c0.7,0.9,1.8,1.5,3,1.5
		s2.3-0.6,3-1.5c0.7,0.9,1.8,1.5,3,1.5c1.9,0,3.5-1.4,3.8-3.2C657.9,213.3,659.5,211.6,659.5,209.6z"/>
</g>
</svg>
