<?xml version="1.0" encoding="utf-8"?>
<!-- Generator: Adobe Illustrator 16.0.0, SVG Export Plug-In . SVG Version: 6.00 Build 0)  -->
<!DOCTYPE svg PUBLIC "-//W3C//DTD SVG 1.1//EN" "http://www.w3.org/Graphics/SVG/1.1/DTD/svg11.dtd">
<svg version="1.1" id="Layer_2" xmlns="http://www.w3.org/2000/svg" xmlns:xlink="http://www.w3.org/1999/xlink" x="0px" y="0px"
	 width="1280px" height="700px" viewBox="0 0 1280 700" enable-background="new 0 0 1280 700" xml:space="preserve">
<g>
	<g>
		<path fill="none" stroke="#D4EAE1" stroke-miterlimit="10" d="M801.587,208.852c-1.106-1.108-1.106-2.904,0-4.009
			c1.107-1.109,2.904-1.114,4.013,0c1.107,1.105,1.107,2.901,0,4.009C804.491,209.958,802.697,209.958,801.587,208.852z"/>
	</g>
	<polyline fill="none" stroke="#D4EAE1" stroke-miterlimit="10" points="883.161,156.349 883.161,169.982 805.389,205.679 	"/>
</g>
<g>
	<g>
		<circle fill="none" stroke="#D4EAE1" stroke-miterlimit="10" cx="882.392" cy="111.833" r="21.233"/>
	</g>
</g>
<g>
	<g>
		<g>
			<g>
				<g>
					<path fill="#76B3CC" d="M867.241,103.688l0.008-0.033l14.666-28.889v-0.069l0.017,0.033l0.018-0.033l0.013,0.088l15.388,28.492
						l0.025,0.107c1.439,2.495,2.296,5.385,2.343,8.462c0.122,9.569-7.54,17.428-17.106,17.556
						c-9.569,0.114-17.415-7.544-17.543-17.112C865.033,109.171,865.824,106.234,867.241,103.688z"/>
				</g>
			</g>
		</g>
		<path fill="#8BBFD4" d="M865.066,112.291c-0.033-3.12,0.758-6.057,2.175-8.602l0.008-0.033l14.666-28.889v-0.069l0.017,0.033
			l0.018-0.033v54.67C872.686,129.13,865.189,121.637,865.066,112.291z"/>
	</g>
</g>
<g>
	<g>
		<path fill="#E2D4D5" d="M844.943,96.263c1.622,1.556,3.198,3.146,4.727,4.77c0.298,2.209,0.649,4.402,1.055,6.579
			c2.175-1.108,4.389-2.094,6.639-2.96c-1.526-3.962-3.051-7.923-4.576-11.885C850.128,93.789,847.51,94.955,844.943,96.263z"/>
		<path fill="#DBDBDB" d="M913.326,91.083c-19.682-7.663-41.53-7.7-61.231-0.112c1.492,3.876,2.986,7.753,4.479,11.63
			c16.806-6.473,35.444-6.441,52.232,0.095C910.312,98.826,911.819,94.955,913.326,91.083z"/>
		<path fill="#E2D4D5" d="M919.84,96.947c-1.616,1.558-3.186,3.151-4.708,4.778c-0.303,2.206-0.661,4.396-1.073,6.569
			c-2.1-1.07-4.239-2.026-6.412-2.869c1.534-3.958,3.068-7.916,4.604-11.874C914.821,94.549,917.355,95.681,919.84,96.947z"/>
	</g>
	<path fill="#F5E5E5" d="M883.326,85.312c-10.587-0.095-21.188,1.792-31.231,5.66c1.478,3.833,2.952,7.666,4.43,11.498
		c8.583-3.306,17.644-4.918,26.692-4.837C883.253,93.525,883.29,89.419,883.326,85.312z"/>
</g>
<g>
	<path fill="#EBF4EC" d="M882.392,119.221c-1.118,0-2.167-0.314-3.109-0.908c-0.944-0.63-1.645-1.398-2.099-2.377l-4.577-8.039
		c-0.979,1.712-1.397,3.635-1.397,5.592c0,2.795,0.909,5.242,2.727,7.304c1.816,2.097,4.089,3.321,6.779,3.739l3.25-5.626
		C883.649,119.011,883.09,119.221,882.392,119.221z"/>
	<path fill="#EBF4EC" d="M878.861,108.981c1.049-0.804,2.202-1.084,3.529-1.084c0.175,0,9.61,0,9.61,0
		c-0.979-1.678-2.342-3.11-4.054-4.124c-1.678-0.979-3.53-1.468-5.558-1.468c-1.747,0-3.391,0.385-4.894,1.119
		c-1.502,0.733-2.9,1.817-3.948,3.215l3.25,5.452C877.114,110.833,877.848,109.785,878.861,108.981z"/>
	<path fill="#EBF4EC" d="M892.736,109.295h-6.501c1.118,1.119,1.887,2.586,1.887,4.194c0,1.188-0.349,2.271-1.013,3.285
		l-4.578,7.898c3.075-0.035,5.661-1.118,7.828-3.32c2.132-2.202,3.215-4.788,3.215-7.863
		C893.574,112.057,893.33,110.553,892.736,109.295z"/>
	<circle fill="#EBF4EC" cx="882.392" cy="113.489" r="4.194"/>
</g>
<g>
	<g>
		<path fill="#2B4E6B" d="M863.516,146.745c-0.365,0.176-1.179,0.447-2.213,0.447c-2.326,0-3.84-1.578-3.84-3.935
			c0-2.375,1.625-4.11,4.143-4.11c0.828,0,1.561,0.207,1.942,0.414l-0.319,1.068c-0.334-0.175-0.858-0.366-1.622-0.366
			c-1.77,0-2.726,1.322-2.726,2.915c0,1.784,1.146,2.883,2.676,2.883c0.797,0,1.322-0.191,1.722-0.367L863.516,146.745z"/>
		<path fill="#2B4E6B" d="M865.158,135.707h1.399v4.826h0.032c0.224-0.398,0.574-0.764,1.002-1.004
			c0.415-0.238,0.909-0.381,1.436-0.381c1.033,0,2.69,0.637,2.69,3.281v4.587h-1.4v-4.428c0-1.242-0.461-2.277-1.784-2.277
			c-0.908,0-1.608,0.637-1.88,1.384c-0.079,0.208-0.096,0.415-0.096,0.67v4.65h-1.399V135.707L865.158,135.707z"/>
		<path fill="#2B4E6B" d="M873.996,141.713c0-0.908-0.016-1.69-0.062-2.407h1.227l0.063,1.53h0.048
			c0.352-1.037,1.212-1.689,2.15-1.689c0.144,0,0.254,0.016,0.383,0.031v1.323c-0.145-0.033-0.286-0.033-0.478-0.033
			c-0.988,0-1.69,0.732-1.881,1.783c-0.032,0.192-0.048,0.43-0.048,0.654v4.109h-1.402V141.713L873.996,141.713z"/>
		<path fill="#2B4E6B" d="M886.023,143.098c0,2.851-1.991,4.094-3.839,4.094c-2.07,0-3.694-1.53-3.694-3.967
			c0-2.565,1.704-4.078,3.822-4.078C884.526,139.147,886.023,140.756,886.023,143.098z M879.923,143.177
			c0,1.688,0.956,2.962,2.326,2.962c1.338,0,2.341-1.258,2.341-2.994c0-1.306-0.652-2.948-2.311-2.948
			C880.639,140.199,879.923,141.728,879.923,143.177z"/>
		<path fill="#2B4E6B" d="M887.791,141.393c0-0.812-0.032-1.45-0.062-2.087h1.227l0.062,1.258h0.05
			c0.429-0.732,1.146-1.417,2.437-1.417c1.036,0,1.832,0.637,2.167,1.545h0.03c0.24-0.446,0.559-0.765,0.877-1.003
			c0.462-0.351,0.955-0.542,1.688-0.542c1.035,0,2.55,0.668,2.55,3.345v4.523h-1.37v-4.348c0-1.497-0.559-2.374-1.673-2.374
			c-0.812,0-1.418,0.589-1.673,1.259c-0.063,0.208-0.112,0.446-0.112,0.701v4.762h-1.368v-4.619c0-1.226-0.542-2.103-1.609-2.103
			c-0.858,0-1.514,0.702-1.735,1.401c-0.08,0.193-0.112,0.447-0.112,0.686v4.635h-1.369v-5.622H887.791z"/>
		<path fill="#2B4E6B" d="M901.856,143.417c0.03,1.896,1.227,2.676,2.645,2.676c1.003,0,1.624-0.176,2.133-0.399l0.257,1.003
			c-0.494,0.224-1.354,0.493-2.58,0.493c-2.375,0-3.791-1.577-3.791-3.901c0-2.327,1.368-4.142,3.614-4.142
			c2.533,0,3.187,2.198,3.187,3.615c0,0.286-0.017,0.495-0.048,0.654L901.856,143.417L901.856,143.417z M905.965,142.413
			c0.019-0.876-0.365-2.262-1.941-2.262c-1.435,0-2.04,1.291-2.15,2.262H905.965z"/>
	</g>
</g>
<g>
	<g>
		<path fill="#2B4E6B" d="M859.303,97.371c-0.996,0.315-1.898,0.038-2.333-1.231c-0.108-0.31-0.161-0.465-0.267-0.777
			c-0.434-1.267,0.146-2.061,1.203-2.396c1.054-0.334,1.982-0.017,2.358,1.269c0.092,0.315,0.136,0.472,0.229,0.789
			C860.869,96.31,860.299,97.055,859.303,97.371z M859.388,94.497c-0.235-0.769-0.637-1.023-1.259-0.827
			c-0.621,0.196-0.805,0.639-0.553,1.401c0.104,0.312,0.151,0.466,0.256,0.778c0.251,0.763,0.65,1.01,1.247,0.821
			c0.599-0.189,0.779-0.621,0.546-1.39C859.53,94.968,859.481,94.812,859.388,94.497z"/>
		<path fill="#2B4E6B" d="M863.514,96.166c-0.147,0.038-0.361,0.08-0.594,0.109c0.107,0.417,0.164,0.625,0.273,1.042
			c0.019,0.064-0.022,0.133-0.091,0.15c-0.221,0.059-0.33,0.089-0.551,0.149c-0.064,0.019-0.133-0.021-0.15-0.085
			c-0.452-1.634-0.677-2.449-1.128-4.082c-0.023-0.088-0.01-0.131,0.128-0.207c0.368-0.201,0.831-0.387,1.239-0.491
			c1.029-0.263,1.663,0.187,1.882,1.111c0.044,0.183,0.063,0.273,0.107,0.456C864.847,95.243,864.498,95.914,863.514,96.166z
			 M863.691,94.062c-0.118-0.484-0.344-0.814-0.89-0.674c-0.227,0.059-0.481,0.146-0.595,0.201c0.219,0.822,0.323,1.231,0.543,2.053
			c0.178-0.022,0.453-0.077,0.603-0.113c0.53-0.136,0.57-0.526,0.45-1.01C863.759,94.335,863.737,94.245,863.691,94.062z"/>
		<path fill="#2B4E6B" d="M867.719,95.167c-0.142,0.051-0.273,0.098-0.411,0.126c-0.695,0.142-1.013,0.06-1.186-0.738
			c-0.161-0.747-0.241-1.122-0.405-1.869c-0.247,0.019-0.369,0.029-0.616,0.05c-0.074,0.004-0.14-0.025-0.155-0.089
			c-0.023-0.106-0.038-0.163-0.062-0.269c-0.017-0.064,0.028-0.129,0.101-0.146c0.24-0.055,0.362-0.083,0.603-0.135
			c-0.042-0.195-0.062-0.293-0.105-0.488c-0.015-0.065,0.032-0.12,0.103-0.148c0.232-0.089,0.352-0.134,0.584-0.222
			c0.006,0,0.021-0.004,0.027-0.006c0.059-0.013,0.108,0.009,0.12,0.067c0.052,0.246,0.075,0.368,0.128,0.615
			c0.232-0.047,0.347-0.07,0.579-0.116c0.07-0.015,0.139,0.026,0.151,0.092c0.027,0.141,0.041,0.211,0.07,0.351
			c0.012,0.066-0.036,0.133-0.106,0.146c-0.23,0.045-0.345,0.068-0.574,0.115c0.153,0.75,0.229,1.124,0.385,1.872
			c0.061,0.298,0.089,0.329,0.312,0.284c0.131-0.026,0.194-0.041,0.326-0.066c0.082-0.016,0.141,0.005,0.151,0.065
			c0.029,0.15,0.045,0.226,0.075,0.376C867.829,95.096,867.795,95.139,867.719,95.167z"/>
		<path fill="#2B4E6B" d="M868.825,90.999c-0.252,0.043-0.379,0.066-0.632,0.112c-0.07,0.014-0.144-0.029-0.156-0.096
			c-0.036-0.211-0.059-0.314-0.096-0.525c-0.013-0.066,0.044-0.134,0.114-0.147c0.255-0.047,0.381-0.068,0.636-0.114
			c0.072-0.011,0.141,0.031,0.151,0.098c0.036,0.212,0.059,0.317,0.094,0.528C868.949,90.923,868.897,90.986,868.825,90.999z
			 M869.475,94.833c-0.228,0.041-0.344,0.062-0.57,0.104c-0.066,0.013-0.134-0.037-0.146-0.104
			c-0.231-1.251-0.347-1.879-0.578-3.131c-0.012-0.066,0.039-0.129,0.108-0.143c0.238-0.043,0.359-0.065,0.596-0.106
			c0.071-0.013,0.137,0.032,0.148,0.097c0.217,1.254,0.326,1.881,0.544,3.136C869.59,94.751,869.542,94.821,869.475,94.833z"/>
		<path fill="#2B4E6B" d="M875.141,94.056c-0.229,0.023-0.342,0.036-0.573,0.061c-0.068,0.007-0.13-0.046-0.137-0.113
			c-0.09-0.824-0.133-1.236-0.222-2.057c-0.053-0.467-0.171-0.578-0.534-0.536c-0.123,0.014-0.547,0.129-0.579,0.223
			c-0.021,0.053,0.061,0.281,0.078,0.432c0.102,0.821,0.15,1.233,0.251,2.055c0.008,0.066-0.044,0.132-0.112,0.141
			c-0.229,0.029-0.343,0.043-0.572,0.074c-0.068,0.009-0.131-0.043-0.141-0.109c-0.109-0.819-0.162-1.231-0.272-2.053
			c-0.062-0.464-0.16-0.576-0.522-0.524c-0.134,0.018-0.318,0.112-0.562,0.283c0.144,0.973,0.215,1.459,0.357,2.433
			c0.011,0.067-0.04,0.135-0.108,0.145c-0.229,0.034-0.343,0.05-0.571,0.085c-0.066,0.011-0.132-0.039-0.144-0.105
			c-0.197-1.258-0.299-1.887-0.495-3.146c-0.01-0.065,0.042-0.129,0.111-0.14c0.228-0.036,0.34-0.053,0.566-0.085
			c0.07-0.011,0.135,0.034,0.146,0.1c0.007,0.051,0.013,0.076,0.021,0.127c0.246-0.203,0.5-0.368,0.883-0.419
			c0.37-0.05,0.716,0.168,0.795,0.173c0.146,0.009,0.589-0.349,1.04-0.399c0.885-0.1,1.138,0.45,1.207,1.159
			c0.082,0.824,0.123,1.236,0.203,2.06C875.261,93.984,875.21,94.049,875.141,94.056z"/>
		<path fill="#2B4E6B" d="M876.909,90c-0.255,0.018-0.381,0.029-0.636,0.049c-0.071,0.006-0.139-0.044-0.146-0.111
			c-0.019-0.213-0.026-0.318-0.047-0.532c-0.005-0.067,0.06-0.128,0.132-0.133c0.257-0.022,0.385-0.031,0.642-0.051
			c0.073-0.005,0.137,0.044,0.144,0.111c0.016,0.214,0.021,0.32,0.036,0.533C877.04,89.934,876.982,89.994,876.909,90z
			 M877.177,93.879c-0.229,0.018-0.347,0.026-0.577,0.044c-0.067,0.005-0.128-0.049-0.133-0.118
			c-0.105-1.269-0.158-1.904-0.265-3.172c-0.006-0.066,0.05-0.125,0.121-0.132c0.24-0.019,0.361-0.028,0.602-0.046
			c0.072-0.004,0.133,0.043,0.138,0.11c0.092,1.27,0.142,1.906,0.233,3.176C877.302,93.811,877.245,93.875,877.177,93.879z"/>
		<path fill="#2B4E6B" d="M880.797,93.696c-0.877,0.023-1.317,0.042-2.194,0.091c-0.138,0.007-0.255-0.096-0.264-0.229
			c-0.006-0.104-0.006-0.156-0.012-0.26c-0.005-0.067,0.017-0.124,0.066-0.2c0.565-0.844,0.856-1.264,1.453-2.098
			c0.013-0.019,0.016-0.025,0.016-0.037s-0.019-0.017-0.037-0.016c-0.587,0.022-0.878,0.037-1.463,0.069
			c-0.065,0.003-0.12-0.029-0.124-0.09c-0.012-0.173-0.018-0.259-0.026-0.432c-0.004-0.067,0.056-0.125,0.125-0.129
			c0.889-0.051,1.331-0.069,2.222-0.096c0.144-0.004,0.264,0.108,0.269,0.241c0.004,0.14,0.008,0.209,0.012,0.347
			c0.002,0.03-0.013,0.117-0.031,0.142c-0.583,0.792-0.868,1.19-1.424,1.991c-0.005,0.008-0.007,0.014-0.012,0.022
			c0.001,0.018,0.016,0.022,0.04,0.021c0.552-0.025,0.828-0.036,1.379-0.051c0.064-0.001,0.114,0.034,0.116,0.095
			c0.005,0.198,0.008,0.295,0.013,0.492C880.922,93.638,880.865,93.694,880.797,93.696z"/>
		<path fill="#2B4E6B" d="M884.452,93.681c-0.212-0.004-0.319-0.005-0.533-0.008c-0.068-0.001-0.124-0.055-0.123-0.123
			c0-0.039,0-0.058,0-0.097c-0.291,0.167-0.584,0.263-0.887,0.263c-0.519,0-1.082-0.188-1.094-1.009c0-0.01-0.001-0.015-0.001-0.024
			c-0.011-0.694,0.434-1.066,1.555-1.061c0.16,0.001,0.241,0.001,0.403,0.003c0.001-0.106,0.002-0.162,0.004-0.268
			c0.004-0.396-0.186-0.494-0.568-0.495c-0.415-0.001-0.854,0.039-1.057,0.053c-0.012,0-0.024,0-0.031,0
			c-0.064,0-0.115-0.017-0.116-0.103c-0.003-0.156-0.006-0.231-0.008-0.388c0-0.067,0.041-0.113,0.124-0.131
			c0.258-0.053,0.637-0.103,1.091-0.1c0.93,0.003,1.432,0.399,1.416,1.178c-0.02,0.877-0.028,1.316-0.046,2.193
			C884.577,93.63,884.522,93.682,884.452,93.681z M883.766,92.162c-0.161-0.002-0.24-0.003-0.402-0.004
			c-0.58-0.003-0.708,0.179-0.707,0.52c0,0.009,0,0.012,0,0.021c0.001,0.297,0.141,0.377,0.456,0.377
			c0.227,0,0.46-0.071,0.646-0.168C883.762,92.609,883.763,92.461,883.766,92.162z"/>
		<path fill="#2B4E6B" d="M888.408,93.749c-0.396,0.069-0.868,0.1-1.266,0.079c-1.008-0.055-1.479-0.644-1.445-1.592
			c0.007-0.188,0.011-0.281,0.018-0.469c0.031-0.949,0.562-1.514,1.614-1.457c0.155,0.008,0.384,0.032,0.624,0.077
			c0.026-0.431,0.038-0.645,0.063-1.075c0.004-0.067,0.068-0.118,0.144-0.114c0.244,0.016,0.365,0.024,0.609,0.041
			c0.071,0.005,0.129,0.064,0.123,0.13c-0.123,1.69-0.184,2.536-0.306,4.225C888.58,93.687,888.556,93.721,888.408,93.749z
			 M887.911,91.043c-0.182-0.036-0.464-0.068-0.619-0.078c-0.558-0.03-0.71,0.335-0.732,0.834c-0.008,0.187-0.015,0.28-0.021,0.466
			c-0.022,0.499,0.094,0.874,0.636,0.904c0.228,0.011,0.488,0.01,0.608-0.007C887.835,92.315,887.857,91.892,887.911,91.043z"/>
		<path fill="#2B4E6B" d="M891.137,94.144c-0.978-0.103-1.435-0.785-1.359-1.652c0.019-0.196,0.026-0.295,0.043-0.492
			c0.074-0.868,0.667-1.466,1.689-1.358c1.023,0.108,1.477,0.817,1.368,1.681c-0.024,0.195-0.038,0.294-0.063,0.489
			C892.707,93.674,892.114,94.247,891.137,94.144z M892.033,92.222c0.058-0.496-0.147-0.845-0.598-0.893
			c-0.45-0.049-0.723,0.25-0.77,0.748c-0.021,0.196-0.029,0.295-0.049,0.491c-0.048,0.497,0.15,0.841,0.591,0.887
			s0.713-0.248,0.77-0.743C892.001,92.516,892.012,92.419,892.033,92.222z"/>
		<path fill="#2B4E6B" d="M897.043,94.994c-0.147-0.027-0.363-0.078-0.587-0.147c-0.075,0.425-0.109,0.635-0.185,1.059
			c-0.012,0.066-0.076,0.112-0.144,0.101c-0.227-0.039-0.336-0.059-0.562-0.095c-0.064-0.012-0.111-0.075-0.102-0.142
			c0.276-1.672,0.411-2.507,0.686-4.18c0.016-0.09,0.047-0.124,0.201-0.135c0.417-0.03,0.913-0.003,1.328,0.072
			c1.038,0.19,1.426,0.863,1.237,1.794c-0.037,0.184-0.061,0.275-0.098,0.458C898.632,94.711,898.039,95.175,897.043,94.994z
			 M898.082,93.157c0.096-0.49,0.027-0.881-0.523-0.983c-0.229-0.042-0.499-0.069-0.624-0.066c-0.146,0.836-0.221,1.255-0.365,2.093
			c0.171,0.053,0.442,0.122,0.592,0.148c0.534,0.099,0.737-0.241,0.831-0.731C898.026,93.431,898.046,93.341,898.082,93.157z"/>
		<path fill="#2B4E6B" d="M902.025,96.023c-0.209-0.052-0.312-0.079-0.521-0.129c-0.066-0.016-0.11-0.083-0.096-0.147
			c0.01-0.038,0.016-0.057,0.024-0.094c-0.324,0.096-0.634,0.123-0.929,0.055c-0.51-0.117-1.021-0.428-0.847-1.23
			c0.003-0.01,0.003-0.014,0.005-0.022c0.145-0.679,0.663-0.942,1.759-0.683c0.157,0.038,0.238,0.056,0.396,0.094
			c0.026-0.105,0.039-0.156,0.063-0.261c0.094-0.384-0.068-0.524-0.443-0.613c-0.408-0.095-0.846-0.155-1.048-0.188
			c-0.013-0.002-0.027-0.006-0.032-0.007c-0.064-0.014-0.109-0.042-0.092-0.126c0.033-0.151,0.048-0.228,0.081-0.379
			c0.014-0.065,0.062-0.1,0.149-0.098c0.265,0.005,0.651,0.044,1.091,0.147c0.91,0.214,1.317,0.714,1.126,1.469
			c-0.214,0.85-0.322,1.276-0.536,2.125C902.16,96.001,902.092,96.042,902.025,96.023z M901.693,94.387
			c-0.157-0.039-0.236-0.058-0.394-0.095c-0.57-0.134-0.734,0.013-0.81,0.345c-0.002,0.009-0.004,0.013-0.006,0.022
			c-0.065,0.291,0.051,0.398,0.363,0.471c0.223,0.051,0.467,0.035,0.669-0.017C901.587,94.823,901.622,94.677,901.693,94.387z"/>
		<path fill="#2B4E6B" d="M905.74,94.138c-0.339-0.1-0.628-0.093-0.93-0.038c-0.266,0.942-0.396,1.414-0.662,2.356
			c-0.02,0.064-0.09,0.107-0.156,0.09c-0.223-0.063-0.334-0.094-0.559-0.155c-0.066-0.018-0.107-0.089-0.091-0.155
			c0.331-1.23,0.5-1.846,0.831-3.077c0.018-0.063,0.089-0.101,0.156-0.082c0.221,0.061,0.332,0.09,0.554,0.152
			c0.069,0.02,0.113,0.089,0.095,0.153c-0.014,0.049-0.022,0.076-0.037,0.125c0.373-0.136,0.735-0.095,0.987-0.022
			c0.069,0.021,0.111,0.088,0.095,0.152c-0.05,0.169-0.074,0.254-0.123,0.422C905.879,94.124,905.81,94.158,905.74,94.138z"/>
		<path fill="#2B4E6B" d="M908.215,97.851c-0.203-0.069-0.31-0.105-0.513-0.172c-0.067-0.022-0.105-0.092-0.083-0.155
			c0.012-0.037,0.017-0.056,0.028-0.092c-0.331,0.07-0.64,0.071-0.93-0.021c-0.502-0.16-0.992-0.512-0.754-1.298
			c0.002-0.009,0.005-0.014,0.009-0.022c0.202-0.664,0.743-0.882,1.821-0.532c0.154,0.05,0.233,0.075,0.389,0.127
			c0.034-0.102,0.05-0.152,0.085-0.255c0.123-0.376-0.027-0.528-0.395-0.647c-0.403-0.128-0.836-0.227-1.036-0.277
			c-0.014-0.003-0.025-0.006-0.032-0.008c-0.064-0.02-0.106-0.052-0.08-0.134c0.046-0.148,0.067-0.222,0.112-0.371
			c0.02-0.064,0.068-0.093,0.155-0.084c0.264,0.027,0.649,0.098,1.084,0.237c0.895,0.289,1.26,0.822,1.006,1.56
			c-0.284,0.83-0.426,1.245-0.708,2.075C908.351,97.841,908.282,97.873,908.215,97.851z M908.014,96.192
			c-0.153-0.052-0.229-0.078-0.385-0.129c-0.561-0.182-0.739-0.049-0.841,0.278c-0.003,0.008-0.006,0.011-0.009,0.021
			c-0.09,0.285,0.021,0.403,0.325,0.501c0.219,0.069,0.465,0.072,0.673,0.039C907.872,96.617,907.919,96.476,908.014,96.192z"/>
	</g>
</g>
</svg>
