<?xml version="1.0" encoding="utf-8"?>
<!-- Generator: Adobe Illustrator 16.0.0, SVG Export Plug-In . SVG Version: 6.00 Build 0)  -->
<!DOCTYPE svg PUBLIC "-//W3C//DTD SVG 1.1//EN" "http://www.w3.org/Graphics/SVG/1.1/DTD/svg11.dtd">
<svg version="1.1" id="Layer_1" xmlns="http://www.w3.org/2000/svg" xmlns:xlink="http://www.w3.org/1999/xlink" x="0px" y="0px"
	 width="100px" height="63.667px" viewBox="0 0 100 63.667" enable-background="new 0 0 100 63.667" xml:space="preserve">
<g>
	<g>
		<g>
			<g>
				<polygon fill="#2B4F6B" points="25.285,38.898 30.451,48.147 27.354,59.699 93.832,22.935 86.208,11.971 80.189,3.721 				"/>
			</g>
		</g>
	</g>
	<polygon fill="#1C4160" points="44.125,26.828 86.404,27.017 93.832,22.956 88.844,16.017 61.398,16.017 	"/>
	<g>
		<g>
			<g>
				<polygon fill="#72ADC8" points="2.622,1 2.622,22.941 93.832,22.941 93.812,1 				"/>
			</g>
		</g>
	</g>
	<rect x="2.622" y="2.017" fill="#8ABAD0" width="46" height="21"/>
	<g>
		<g>
			<g>
				<polygon fill="#72ADC8" points="10.538,37.757 10.556,59.699 95.922,59.699 89.117,48.729 95.902,37.757 				"/>
			</g>
		</g>
	</g>
	<rect x="10.622" y="38.833" fill="#8ABAD0" width="45" height="21"/>
	<g enable-background="new    ">
		<path fill="#4C97BB" d="M18.096,16.984c-1.894,0-3.271-1.056-3.271-3.58v-1.549c0-2.524,1.377-3.58,3.271-3.58
			s3.271,1.056,3.271,3.58v1.549C21.366,15.929,19.989,16.984,18.096,16.984z M19.76,11.855c0-1.515-0.54-2.191-1.664-2.191
			s-1.664,0.677-1.664,2.191v1.549c0,1.515,0.54,2.191,1.664,2.191s1.664-0.677,1.664-2.191V11.855z"/>
		<path fill="#4C97BB" d="M25.471,13.714c-0.298,0-0.757-0.034-1.021-0.046v2.995c0,0.126-0.092,0.229-0.218,0.229h-1.147
			c-0.126,0-0.229-0.104-0.229-0.229V8.769c0-0.229,0.138-0.31,0.367-0.345c0.597-0.092,1.412-0.148,2.249-0.148
			c1.768,0,3.305,0.619,3.305,2.65v0.104C28.775,13.061,27.238,13.714,25.471,13.714z M27.192,10.926
			c0-0.964-0.574-1.331-1.722-1.331c-0.241,0-0.814,0.022-1.021,0.046v2.73c0.184,0.012,0.826,0.035,1.021,0.035
			c1.239,0,1.722-0.459,1.722-1.377V10.926z"/>
		<path fill="#4C97BB" d="M35.107,9.698h-2.008v6.965c0,0.126-0.103,0.229-0.229,0.229h-1.136c-0.126,0-0.229-0.104-0.229-0.229
			V9.698h-2.008c-0.126,0-0.229-0.081-0.229-0.207V8.585c0-0.126,0.103-0.218,0.229-0.218h5.611c0.126,0,0.229,0.092,0.229,0.218
			v0.906C35.336,9.617,35.233,9.698,35.107,9.698z"/>
		<path fill="#4C97BB" d="M37.847,16.893h-1.136c-0.126,0-0.229-0.104-0.229-0.229V8.585c0-0.126,0.103-0.218,0.229-0.218h1.136
			c0.126,0,0.229,0.092,0.229,0.218v8.078C38.076,16.789,37.973,16.893,37.847,16.893z"/>
		<path fill="#4C97BB" d="M46.967,16.893h-1.159c-0.104,0-0.184-0.115-0.184-0.229v-5.336c0-0.08-0.012-0.114-0.035-0.114
			c-0.011,0-0.035,0.034-0.057,0.068l-1.102,2.191c-0.069,0.127-0.218,0.195-0.367,0.195h-1.159c-0.149,0-0.298-0.068-0.367-0.195
			l-1.113-2.191c-0.022-0.034-0.046-0.068-0.057-0.068c-0.023,0-0.035,0.034-0.035,0.114v5.336c0,0.114-0.08,0.229-0.184,0.229
			h-1.159c-0.103,0-0.195-0.058-0.195-0.172V8.826c0-0.253,0.206-0.459,0.459-0.459h0.94c0.184,0,0.345,0.114,0.425,0.275
			l1.732,3.511c0.058,0.104,0.081,0.161,0.126,0.161s0.069-0.058,0.126-0.161l1.732-3.511c0.08-0.161,0.241-0.275,0.425-0.275h0.94
			c0.253,0,0.459,0.206,0.459,0.459v7.895C47.162,16.835,47.07,16.893,46.967,16.893z"/>
		<path fill="#4C97BB" d="M50.246,16.893h-1.136c-0.126,0-0.229-0.104-0.229-0.229V8.585c0-0.126,0.104-0.218,0.229-0.218h1.136
			c0.126,0,0.229,0.092,0.229,0.218v8.078C50.475,16.789,50.372,16.893,50.246,16.893z"/>
		<path fill="#4C97BB" d="M57.393,16.893h-5.015c-0.333,0-0.585-0.115-0.585-0.425v-0.631c0-0.138,0.034-0.264,0.149-0.437
			l3.638-5.45c0.022-0.034,0.034-0.068,0.034-0.103c0-0.058-0.034-0.092-0.115-0.092H52.31c-0.126,0-0.218-0.081-0.218-0.207V8.585
			c0-0.126,0.092-0.218,0.218-0.218h4.624c0.333,0,0.608,0.138,0.608,0.436v0.666c0,0.16-0.069,0.332-0.161,0.471l-3.58,5.358
			c-0.034,0.046-0.046,0.092-0.046,0.126c0,0.046,0.023,0.068,0.104,0.068h3.534c0.126,0,0.229,0.081,0.229,0.207v0.964
			C57.622,16.789,57.519,16.893,57.393,16.893z"/>
		<path fill="#4C97BB" d="M65.066,16.893h-1.216c-0.104,0-0.195-0.092-0.218-0.195l-0.528-2.18h-2.64l-0.527,2.18
			c-0.023,0.104-0.115,0.195-0.218,0.195h-1.217c-0.114,0-0.206-0.08-0.206-0.195c0-0.012,0.012-0.034,0.012-0.057l1.881-7.195
			c0.275-1.066,1.102-1.17,1.596-1.17c0.493,0,1.319,0.104,1.595,1.17l1.882,7.195c0,0.022,0.012,0.045,0.012,0.057
			C65.273,16.812,65.182,16.893,65.066,16.893z M61.969,9.801c-0.035-0.137-0.069-0.184-0.184-0.184
			c-0.115,0-0.149,0.047-0.184,0.184l-0.826,3.408h2.02L61.969,9.801z"/>
		<path fill="#4C97BB" d="M68.907,16.984c-0.814,0-1.916-0.08-2.26-0.138c-0.195-0.034-0.299-0.126-0.299-0.355V8.769
			c0-0.229,0.104-0.321,0.299-0.355c0.344-0.058,1.445-0.138,2.26-0.138c2.295,0,3.604,1.239,3.604,3.511v1.687
			C72.511,15.745,71.202,16.984,68.907,16.984z M70.927,11.786c0-1.721-0.871-2.169-2.02-2.169c-0.424,0-0.723,0.023-0.963,0.035
			v5.955c0.24,0.012,0.539,0.034,0.963,0.034c1.148,0,2.02-0.447,2.02-2.169V11.786z"/>
		<path fill="#4C97BB" d="M77.04,16.984c-1.894,0-3.271-1.056-3.271-3.58v-1.549c0-2.524,1.377-3.58,3.271-3.58
			s3.271,1.056,3.271,3.58v1.549C80.311,15.929,78.934,16.984,77.04,16.984z M78.704,11.855c0-1.515-0.539-2.191-1.664-2.191
			s-1.664,0.677-1.664,2.191v1.549c0,1.515,0.539,2.191,1.664,2.191s1.664-0.677,1.664-2.191V11.855z"/>
	</g>
	<g enable-background="new    ">
		<path fill="#4C97BB" d="M22.858,53.642c-0.172,0.045-0.93,0.184-1.813,0.184c-1.377,0-3.248-0.678-3.248-3.512v-1.688
			c0-2.879,1.871-3.51,3.248-3.51c0.883,0,1.641,0.137,1.813,0.184c0.149,0.045,0.252,0.104,0.252,0.264v0.768
			c0,0.139-0.057,0.242-0.229,0.242c0,0-0.011,0-0.023,0c-0.401-0.035-1.182-0.092-1.79-0.092c-0.964,0-1.664,0.516-1.664,2.145
			v1.688c0,1.596,0.7,2.146,1.664,2.146c0.608,0,1.389-0.059,1.79-0.092c0.012,0,0.023,0,0.023,0c0.172,0,0.229,0.104,0.229,0.24
			v0.77C23.111,53.539,23.008,53.595,22.858,53.642z"/>
		<path fill="#4C97BB" d="M30.704,53.734h-1.136c-0.126,0-0.229-0.104-0.229-0.23v-3.51H26.08v3.51c0,0.127-0.104,0.23-0.229,0.23
			h-1.136c-0.126,0-0.229-0.104-0.229-0.23v-8.078c0-0.125,0.103-0.217,0.229-0.217h1.136c0.126,0,0.229,0.092,0.229,0.217v3.168
			h3.259v-3.168c0-0.125,0.104-0.217,0.229-0.217h1.136c0.126,0,0.229,0.092,0.229,0.217v8.078
			C30.934,53.63,30.831,53.734,30.704,53.734z"/>
		<path fill="#4C97BB" d="M38.71,53.734h-1.399c-0.126,0-0.172-0.115-0.229-0.23l-1.652-3.062h-0.161
			c-0.298,0-0.757-0.035-1.021-0.047v3.109c0,0.127-0.092,0.23-0.218,0.23h-1.147c-0.126,0-0.229-0.104-0.229-0.23v-7.895
			c0-0.229,0.138-0.309,0.367-0.344c0.597-0.092,1.412-0.148,2.249-0.148c1.768,0,3.305,0.631,3.305,2.592v0.104
			c0,1.217-0.608,1.975-1.549,2.342l1.802,3.35c0.022,0.035,0.022,0.07,0.022,0.092C38.848,53.675,38.802,53.734,38.71,53.734z
			 M36.989,47.708c0-0.859-0.574-1.227-1.722-1.227c-0.241,0-0.814,0.023-1.021,0.045v2.582c0.184,0.012,0.826,0.035,1.021,0.035
			c1.182,0,1.722-0.322,1.722-1.332V47.708z"/>
		<path fill="#4C97BB" d="M42.954,53.826c-1.893,0-3.27-1.057-3.27-3.58v-1.549c0-2.525,1.377-3.58,3.27-3.58s3.27,1.055,3.27,3.58
			v1.549C46.224,52.769,44.847,53.826,42.954,53.826z M44.617,48.697c0-1.516-0.539-2.191-1.664-2.191s-1.664,0.676-1.664,2.191
			v1.549c0,1.514,0.539,2.191,1.664,2.191s1.664-0.678,1.664-2.191V48.697z"/>
		<path fill="#4C97BB" d="M54.884,53.734h-1.159c-0.104,0-0.184-0.115-0.184-0.23v-5.336c0-0.08-0.012-0.113-0.034-0.113
			c-0.012,0-0.034,0.033-0.058,0.068l-1.102,2.191c-0.068,0.127-0.218,0.195-0.367,0.195h-1.158c-0.149,0-0.299-0.068-0.368-0.195
			l-1.113-2.191c-0.023-0.035-0.046-0.068-0.058-0.068c-0.023,0-0.034,0.033-0.034,0.113v5.336c0,0.115-0.081,0.23-0.184,0.23
			h-1.159c-0.104,0-0.195-0.059-0.195-0.172v-7.895c0-0.254,0.207-0.459,0.459-0.459h0.941c0.184,0,0.344,0.113,0.424,0.275
			l1.733,3.51c0.057,0.104,0.08,0.162,0.126,0.162s0.069-0.059,0.126-0.162l1.732-3.51c0.081-0.162,0.241-0.275,0.425-0.275h0.941
			c0.252,0,0.459,0.205,0.459,0.459v7.895C55.079,53.675,54.987,53.734,54.884,53.734z"/>
		<path fill="#4C97BB" d="M61.627,53.666c-0.367,0.057-0.814,0.16-2.18,0.16c-1.492,0-2.65-0.402-2.65-2.354v-4.004
			c0-1.951,1.158-2.352,2.65-2.352c1.365,0,1.812,0.104,2.18,0.16c0.173,0.023,0.23,0.08,0.23,0.24v0.734
			c0,0.127-0.104,0.23-0.23,0.23h-2.34c-0.666,0-0.907,0.229-0.907,0.986v1.24h3.11c0.126,0,0.229,0.102,0.229,0.229v0.826
			c0,0.127-0.103,0.23-0.229,0.23h-3.11v1.479c0,0.758,0.241,0.988,0.907,0.988h2.34c0.127,0,0.23,0.104,0.23,0.229v0.734
			C61.857,53.583,61.8,53.642,61.627,53.666z"/>
	</g>
	<g>
		<circle fill="#4C97BB" cx="73.373" cy="48.944" r="7.71"/>
		<g>
			<path fill="#E94F3D" d="M74.548,40.761c0,0,4.271-0.191,6.535,4.102c-1.194,0-6.897,0-6.897,0s-1.303-0.043-2.412,1.537
				c-0.32,0.662-0.662,1.346-0.278,2.691c-0.556-0.939-2.947-5.104-2.947-5.104S70.234,40.932,74.548,40.761z"/>
			<path fill="#FCD900" d="M80.861,51.66c0,0-1.971,3.795-6.819,3.608c0.599-1.035,3.45-5.974,3.45-5.974s0.688-1.106-0.124-2.858
				c-0.414-0.608-0.835-1.247-2.192-1.587c1.092-0.012,5.895,0.001,5.895,0.001S82.871,47.839,80.861,51.66z"/>
			<path fill="#65B44A" d="M68.266,51.689c0,0-2.301-3.604,0.285-7.71c0.6,1.035,3.448,5.976,3.448,5.976s0.614,1.149,2.538,1.321
				c0.732-0.054,1.497-0.101,2.47-1.104c-0.536,0.951-2.946,5.104-2.946,5.104S70.57,55.341,68.266,51.689z"/>
			<path fill="#61AB47" d="M74.042,55.304l0.972-4.049c0,0,1.065-0.084,1.961-1.064C76.418,51.166,74.042,55.304,74.042,55.304z"/>
			<circle fill="#FFFFFF" cx="74.531" cy="48.077" r="3.232"/>
			<circle fill="#448CC4" cx="74.531" cy="48.077" r="2.691"/>
			<path fill="#F0CE16" d="M81.068,44.851l-3.994,1.172c0,0-0.604-0.885-1.898-1.173C76.299,44.846,81.068,44.851,81.068,44.851z"/>
			<path fill="#D93227" d="M71.417,48.944c-0.562-0.972-2.87-4.958-2.87-4.958l2.96,2.928c0,0-0.304,0.627-0.188,1.521
				L71.417,48.944z"/>
		</g>
	</g>
</g>
<g enable-background="new    ">
	<path fill="#E2D4D5" d="M18.649,16.021c-1.894,0-3.271-1.056-3.271-3.58v-1.549c0-2.524,1.377-3.58,3.271-3.58
		s3.271,1.056,3.271,3.58v1.549C21.92,14.965,20.543,16.021,18.649,16.021z M20.313,10.892c0-1.515-0.54-2.191-1.664-2.191
		s-1.664,0.677-1.664,2.191v1.549c0,1.515,0.54,2.191,1.664,2.191s1.664-0.677,1.664-2.191V10.892z"/>
	<path fill="#E2D4D5" d="M26.024,12.75c-0.298,0-0.757-0.034-1.021-0.046v2.995c0,0.126-0.092,0.229-0.218,0.229h-1.147
		c-0.126,0-0.229-0.104-0.229-0.229V7.805c0-0.229,0.138-0.31,0.367-0.345c0.597-0.092,1.412-0.148,2.249-0.148
		c1.768,0,3.305,0.619,3.305,2.65v0.104C29.329,12.097,27.792,12.75,26.024,12.75z M27.746,9.962c0-0.964-0.574-1.331-1.722-1.331
		c-0.241,0-0.814,0.022-1.021,0.046v2.73c0.184,0.012,0.826,0.035,1.021,0.035c1.239,0,1.722-0.459,1.722-1.377V9.962z"/>
	<path fill="#E2D4D5" d="M35.661,8.734h-2.008v6.965c0,0.126-0.103,0.229-0.229,0.229h-1.136c-0.126,0-0.229-0.104-0.229-0.229
		V8.734H30.05c-0.126,0-0.229-0.081-0.229-0.207V7.621c0-0.126,0.103-0.218,0.229-0.218h5.611c0.126,0,0.229,0.092,0.229,0.218
		v0.906C35.89,8.653,35.787,8.734,35.661,8.734z"/>
	<path fill="#E2D4D5" d="M38.4,15.929h-1.136c-0.126,0-0.229-0.104-0.229-0.229V7.621c0-0.126,0.103-0.218,0.229-0.218H38.4
		c0.126,0,0.229,0.092,0.229,0.218v8.078C38.63,15.825,38.526,15.929,38.4,15.929z"/>
	<path fill="#E2D4D5" d="M47.521,15.929h-1.159c-0.104,0-0.184-0.115-0.184-0.229v-5.336c0-0.08-0.012-0.114-0.035-0.114
		c-0.011,0-0.035,0.034-0.057,0.068l-1.102,2.191c-0.069,0.127-0.218,0.195-0.367,0.195h-1.159c-0.149,0-0.298-0.068-0.367-0.195
		l-1.113-2.191c-0.022-0.034-0.046-0.068-0.057-0.068c-0.023,0-0.035,0.034-0.035,0.114v5.336c0,0.114-0.08,0.229-0.184,0.229
		h-1.159c-0.103,0-0.195-0.058-0.195-0.172V7.862c0-0.253,0.206-0.459,0.459-0.459h0.94c0.184,0,0.345,0.114,0.425,0.275
		l1.732,3.511c0.058,0.104,0.081,0.161,0.126,0.161s0.069-0.058,0.126-0.161l1.732-3.511c0.08-0.161,0.241-0.275,0.425-0.275h0.94
		c0.253,0,0.459,0.206,0.459,0.459v7.895C47.716,15.871,47.624,15.929,47.521,15.929z"/>
	<path fill="#E2D4D5" d="M50.799,15.929h-1.136c-0.126,0-0.229-0.104-0.229-0.229V7.621c0-0.126,0.104-0.218,0.229-0.218h1.136
		c0.127,0,0.23,0.092,0.23,0.218v8.078C51.029,15.825,50.926,15.929,50.799,15.929z"/>
	<path fill="#E2D4D5" d="M57.946,15.929h-5.015c-0.332,0-0.585-0.115-0.585-0.425v-0.631c0-0.138,0.034-0.264,0.149-0.437
		l3.637-5.45c0.023-0.034,0.035-0.068,0.035-0.103c0-0.058-0.035-0.092-0.115-0.092h-3.189c-0.127,0-0.219-0.081-0.219-0.207V7.621
		c0-0.126,0.092-0.218,0.219-0.218h4.624c0.333,0,0.608,0.138,0.608,0.436v0.666c0,0.16-0.069,0.332-0.161,0.471l-3.58,5.358
		c-0.034,0.046-0.046,0.092-0.046,0.126c0,0.046,0.023,0.068,0.104,0.068h3.534c0.126,0,0.229,0.081,0.229,0.207v0.964
		C58.176,15.825,58.072,15.929,57.946,15.929z"/>
	<path fill="#E2D4D5" d="M65.62,15.929h-1.216c-0.104,0-0.195-0.092-0.219-0.195l-0.527-2.18H61.02l-0.528,2.18
		c-0.022,0.104-0.114,0.195-0.218,0.195h-1.217c-0.114,0-0.206-0.08-0.206-0.195c0-0.012,0.011-0.034,0.011-0.057l1.883-7.195
		c0.275-1.066,1.102-1.17,1.595-1.17s1.319,0.104,1.595,1.17l1.882,7.195c0,0.022,0.012,0.045,0.012,0.057
		C65.827,15.849,65.735,15.929,65.62,15.929z M62.522,8.837c-0.034-0.137-0.069-0.184-0.184-0.184c-0.115,0-0.149,0.047-0.184,0.184
		l-0.826,3.408h2.02L62.522,8.837z"/>
	<path fill="#E2D4D5" d="M69.461,16.021c-0.814,0-1.916-0.08-2.26-0.138c-0.195-0.034-0.299-0.126-0.299-0.355V7.805
		c0-0.229,0.104-0.321,0.299-0.355c0.344-0.058,1.445-0.138,2.26-0.138c2.295,0,3.604,1.239,3.604,3.511v1.687
		C73.064,14.781,71.756,16.021,69.461,16.021z M71.48,10.822c0-1.721-0.871-2.169-2.02-2.169c-0.424,0-0.723,0.023-0.963,0.035
		v5.955c0.24,0.012,0.539,0.034,0.963,0.034c1.148,0,2.02-0.447,2.02-2.169V10.822z"/>
	<path fill="#E2D4D5" d="M77.594,16.021c-1.894,0-3.271-1.056-3.271-3.58v-1.549c0-2.524,1.377-3.58,3.271-3.58
		s3.271,1.056,3.271,3.58v1.549C80.864,14.965,79.487,16.021,77.594,16.021z M79.258,10.892c0-1.515-0.539-2.191-1.664-2.191
		s-1.664,0.677-1.664,2.191v1.549c0,1.515,0.539,2.191,1.664,2.191s1.664-0.677,1.664-2.191V10.892z"/>
</g>
<g enable-background="new    ">
	<path fill="#E2D4D5" d="M23.412,52.677c-0.172,0.047-0.93,0.184-1.813,0.184c-1.377,0-3.248-0.676-3.248-3.512v-1.686
		c0-2.881,1.871-3.512,3.248-3.512c0.883,0,1.641,0.139,1.813,0.184c0.149,0.047,0.252,0.104,0.252,0.264v0.77
		c0,0.137-0.057,0.24-0.229,0.24c0,0-0.011,0-0.023,0c-0.401-0.033-1.182-0.092-1.79-0.092c-0.964,0-1.664,0.518-1.664,2.146v1.686
		c0,1.596,0.7,2.146,1.664,2.146c0.608,0,1.389-0.057,1.79-0.092c0.012,0,0.023,0,0.023,0c0.172,0,0.229,0.104,0.229,0.24v0.77
		C23.665,52.574,23.562,52.632,23.412,52.677z"/>
	<path fill="#E2D4D5" d="M31.258,52.769h-1.136c-0.126,0-0.229-0.104-0.229-0.229v-3.512h-3.259v3.512
		c0,0.125-0.104,0.229-0.229,0.229h-1.136c-0.126,0-0.229-0.104-0.229-0.229v-8.078c0-0.127,0.103-0.219,0.229-0.219h1.136
		c0.126,0,0.229,0.092,0.229,0.219v3.166h3.259v-3.166c0-0.127,0.104-0.219,0.229-0.219h1.136c0.126,0,0.229,0.092,0.229,0.219
		v8.078C31.487,52.666,31.384,52.769,31.258,52.769z"/>
	<path fill="#E2D4D5" d="M39.264,52.769h-1.399c-0.126,0-0.172-0.115-0.229-0.229l-1.652-3.064h-0.161
		c-0.298,0-0.757-0.035-1.021-0.045v3.109c0,0.125-0.092,0.229-0.218,0.229h-1.147c-0.126,0-0.229-0.104-0.229-0.229v-7.895
		c0-0.23,0.138-0.311,0.367-0.346c0.597-0.092,1.412-0.148,2.249-0.148c1.768,0,3.305,0.631,3.305,2.594v0.104
		c0,1.215-0.608,1.973-1.549,2.34l1.802,3.352c0.022,0.033,0.022,0.068,0.022,0.092C39.401,52.712,39.355,52.769,39.264,52.769z
		 M37.543,46.746c0-0.861-0.574-1.229-1.722-1.229c-0.241,0-0.814,0.023-1.021,0.047v2.582c0.184,0.01,0.826,0.033,1.021,0.033
		c1.182,0,1.722-0.32,1.722-1.33V46.746z"/>
	<path fill="#E2D4D5" d="M43.507,52.861c-1.893,0-3.27-1.055-3.27-3.58v-1.549c0-2.523,1.377-3.58,3.27-3.58s3.27,1.057,3.27,3.58
		v1.549C46.777,51.806,45.4,52.861,43.507,52.861z M45.171,47.732c0-1.514-0.539-2.191-1.664-2.191s-1.664,0.678-1.664,2.191v1.549
		c0,1.516,0.539,2.191,1.664,2.191s1.664-0.676,1.664-2.191V47.732z"/>
	<path fill="#E2D4D5" d="M55.438,52.769h-1.159c-0.103,0-0.184-0.115-0.184-0.229v-5.336c0-0.08-0.011-0.115-0.034-0.115
		c-0.012,0-0.034,0.035-0.058,0.068l-1.102,2.191c-0.068,0.127-0.218,0.195-0.367,0.195h-1.159c-0.148,0-0.298-0.068-0.367-0.195
		l-1.112-2.191c-0.023-0.033-0.046-0.068-0.058-0.068c-0.023,0-0.034,0.035-0.034,0.115v5.336c0,0.113-0.081,0.229-0.184,0.229
		h-1.159c-0.104,0-0.195-0.057-0.195-0.172v-7.895c0-0.252,0.207-0.459,0.459-0.459h0.941c0.184,0,0.344,0.115,0.424,0.275
		l1.733,3.512c0.058,0.104,0.08,0.16,0.126,0.16s0.068-0.057,0.126-0.16l1.733-3.512c0.08-0.16,0.24-0.275,0.424-0.275h0.941
		c0.252,0,0.459,0.207,0.459,0.459v7.895C55.633,52.712,55.541,52.769,55.438,52.769z"/>
	<path fill="#E2D4D5" d="M62.182,52.701c-0.367,0.057-0.815,0.16-2.181,0.16c-1.491,0-2.65-0.4-2.65-2.352v-4.006
		c0-1.949,1.159-2.352,2.65-2.352c1.365,0,1.813,0.104,2.181,0.16c0.172,0.023,0.229,0.08,0.229,0.242v0.734
		c0,0.125-0.103,0.229-0.229,0.229H59.84c-0.665,0-0.906,0.23-0.906,0.986v1.24h3.109c0.127,0,0.23,0.104,0.23,0.229v0.826
		c0,0.127-0.104,0.23-0.23,0.23h-3.109v1.48c0,0.758,0.241,0.986,0.906,0.986h2.342c0.126,0,0.229,0.104,0.229,0.23v0.734
		C62.41,52.621,62.354,52.677,62.182,52.701z"/>
</g>
<g>
	<path fill="#E2D4D5" d="M18.747,16.021c-1.894,0-3.271-1.056-3.271-3.58v-1.549c0-2.524,1.377-3.58,3.271-3.58
		s3.271,1.056,3.271,3.58v1.549C22.018,14.965,20.641,16.021,18.747,16.021z M20.411,10.891c0-1.515-0.539-2.191-1.664-2.191
		s-1.664,0.677-1.664,2.191v1.549c0,1.515,0.539,2.191,1.664,2.191s1.664-0.677,1.664-2.191V10.891z"/>
	<path fill="#E2D4D5" d="M26.122,12.75c-0.298,0-0.757-0.034-1.021-0.046v2.995c0,0.126-0.092,0.229-0.218,0.229h-1.147
		c-0.126,0-0.229-0.104-0.229-0.229V7.805c0-0.229,0.138-0.31,0.367-0.344c0.597-0.092,1.411-0.149,2.249-0.149
		c1.768,0,3.305,0.62,3.305,2.651v0.103C29.427,12.096,27.89,12.75,26.122,12.75z M27.844,9.962c0-0.964-0.574-1.331-1.722-1.331
		c-0.24,0-0.814,0.023-1.021,0.046v2.731c0.184,0.011,0.826,0.034,1.021,0.034c1.239,0,1.722-0.459,1.722-1.377V9.962z"/>
	<path fill="#E2D4D5" d="M35.759,8.734H33.75v6.965c0,0.126-0.103,0.229-0.229,0.229h-1.136c-0.126,0-0.229-0.104-0.229-0.229V8.734
		h-2.008c-0.127,0-0.229-0.08-0.229-0.207V7.621c0-0.126,0.103-0.218,0.229-0.218h5.611c0.126,0,0.229,0.092,0.229,0.218v0.906
		C35.987,8.654,35.885,8.734,35.759,8.734z"/>
	<path fill="#E2D4D5" d="M38.499,15.929h-1.137c-0.126,0-0.229-0.104-0.229-0.229V7.621c0-0.126,0.104-0.218,0.229-0.218h1.137
		c0.126,0,0.229,0.092,0.229,0.218v8.078C38.728,15.825,38.625,15.929,38.499,15.929z"/>
	<path fill="#E2D4D5" d="M47.619,15.929H46.46c-0.104,0-0.184-0.115-0.184-0.229v-5.336c0-0.08-0.012-0.115-0.034-0.115
		c-0.012,0-0.034,0.035-0.058,0.069l-1.102,2.192c-0.068,0.126-0.218,0.195-0.367,0.195h-1.158c-0.149,0-0.299-0.069-0.367-0.195
		l-1.113-2.192c-0.023-0.034-0.046-0.069-0.058-0.069c-0.022,0-0.034,0.035-0.034,0.115V15.7c0,0.115-0.08,0.229-0.184,0.229h-1.159
		c-0.104,0-0.195-0.058-0.195-0.172V7.862c0-0.252,0.207-0.459,0.459-0.459h0.941c0.184,0,0.344,0.115,0.425,0.275l1.732,3.511
		c0.057,0.104,0.08,0.161,0.126,0.161s0.069-0.057,0.126-0.161l1.732-3.511c0.081-0.161,0.241-0.275,0.425-0.275h0.941
		c0.252,0,0.459,0.207,0.459,0.459v7.895C47.814,15.871,47.723,15.929,47.619,15.929z"/>
	<path fill="#E2D4D5" d="M50.896,15.929H49.76c-0.126,0-0.229-0.104-0.229-0.229V7.621c0-0.126,0.104-0.218,0.229-0.218h1.137
		c0.127,0,0.229,0.092,0.229,0.218v8.078C51.126,15.825,51.023,15.929,50.896,15.929z"/>
	<path fill="#E2D4D5" d="M58.044,15.929h-5.015c-0.334,0-0.586-0.115-0.586-0.425v-0.631c0-0.138,0.035-0.264,0.149-0.436
		l3.638-5.451c0.022-0.034,0.035-0.069,0.035-0.103c0-0.058-0.035-0.092-0.115-0.092h-3.189c-0.126,0-0.218-0.081-0.218-0.207V7.621
		c0-0.126,0.092-0.218,0.218-0.218h4.624c0.333,0,0.608,0.138,0.608,0.436v0.666c0,0.161-0.069,0.333-0.161,0.471l-3.58,5.358
		c-0.034,0.046-0.046,0.092-0.046,0.126c0,0.046,0.023,0.069,0.104,0.069h3.534c0.126,0,0.229,0.08,0.229,0.207V15.7
		C58.273,15.825,58.17,15.929,58.044,15.929z"/>
	<path fill="#E2D4D5" d="M65.718,15.929h-1.217c-0.104,0-0.194-0.092-0.218-0.195l-0.528-2.18h-2.639l-0.527,2.18
		c-0.022,0.104-0.114,0.195-0.219,0.195h-1.216c-0.115,0-0.207-0.081-0.207-0.195c0-0.011,0.012-0.034,0.012-0.057l1.882-7.195
		c0.275-1.067,1.103-1.17,1.595-1.17c0.494,0,1.319,0.104,1.596,1.17l1.883,7.195c0,0.023,0.011,0.046,0.011,0.057
		C65.924,15.848,65.832,15.929,65.718,15.929z M62.619,8.837c-0.034-0.138-0.068-0.184-0.184-0.184s-0.149,0.046-0.185,0.184
		l-0.826,3.408h2.021L62.619,8.837z"/>
	<path fill="#E2D4D5" d="M69.561,16.021c-0.815,0-1.918-0.081-2.262-0.138C67.104,15.848,67,15.756,67,15.527V7.805
		c0-0.229,0.104-0.321,0.299-0.356c0.344-0.057,1.445-0.138,2.262-0.138c2.295,0,3.603,1.239,3.603,3.511v1.687
		C73.162,14.781,71.854,16.021,69.561,16.021z M71.579,10.822c0-1.721-0.873-2.168-2.021-2.168c-0.425,0-0.724,0.023-0.965,0.034
		v5.956c0.241,0.011,0.54,0.034,0.965,0.034c1.146,0,2.021-0.447,2.021-2.168V10.822z"/>
	<path fill="#E2D4D5" d="M77.691,16.021c-1.895,0-3.271-1.056-3.271-3.58v-1.549c0-2.524,1.377-3.58,3.271-3.58
		c1.894,0,3.271,1.056,3.271,3.58v1.549C80.962,14.965,79.585,16.021,77.691,16.021z M79.355,10.891
		c0-1.515-0.541-2.191-1.664-2.191c-1.125,0-1.664,0.677-1.664,2.191v1.549c0,1.515,0.539,2.191,1.664,2.191
		c1.123,0,1.664-0.677,1.664-2.191V10.891z"/>
</g>
<g>
	<g>
		<path fill="#E2D4D5" d="M23.527,52.678c-0.172,0.046-0.93,0.184-1.813,0.184c-1.377,0-3.247-0.677-3.247-3.511v-1.688
			c0-2.881,1.87-3.512,3.247-3.512c0.884,0,1.642,0.139,1.813,0.184c0.149,0.047,0.253,0.104,0.253,0.265v0.771
			c0,0.137-0.058,0.239-0.23,0.239c0,0-0.011,0-0.022,0c-0.401-0.034-1.182-0.092-1.79-0.092c-0.964,0-1.664,0.517-1.664,2.146
			v1.688c0,1.595,0.7,2.146,1.664,2.146c0.608,0,1.389-0.059,1.79-0.093c0.012,0,0.022,0,0.022,0c0.173,0,0.23,0.104,0.23,0.241
			v0.77C23.78,52.576,23.677,52.632,23.527,52.678z"/>
		<path fill="#E2D4D5" d="M31.374,52.77h-1.137c-0.126,0-0.229-0.103-0.229-0.229V49.03h-3.26v3.511
			c0,0.127-0.103,0.229-0.229,0.229h-1.137c-0.126,0-0.229-0.103-0.229-0.229v-8.078c0-0.125,0.104-0.217,0.229-0.217h1.137
			c0.126,0,0.229,0.092,0.229,0.217v3.168h3.26v-3.168c0-0.125,0.103-0.217,0.229-0.217h1.137c0.126,0,0.229,0.092,0.229,0.217
			v8.078C31.604,52.667,31.5,52.77,31.374,52.77z"/>
		<path fill="#E2D4D5" d="M39.38,52.77h-1.4c-0.126,0-0.173-0.114-0.229-0.229l-1.652-3.062h-0.161
			c-0.298,0-0.757-0.034-1.021-0.046v3.108c0,0.127-0.092,0.229-0.219,0.229h-1.147c-0.126,0-0.229-0.103-0.229-0.229v-7.895
			c0-0.229,0.138-0.311,0.367-0.344c0.597-0.092,1.412-0.149,2.249-0.149c1.768,0,3.305,0.632,3.305,2.595v0.103
			c0,1.217-0.608,1.974-1.549,2.341l1.802,3.352c0.022,0.035,0.022,0.068,0.022,0.092C39.518,52.712,39.472,52.77,39.38,52.77z
			 M37.659,46.746c0-0.861-0.574-1.229-1.722-1.229c-0.241,0-0.814,0.023-1.021,0.046v2.582c0.184,0.013,0.826,0.034,1.021,0.034
			c1.183,0,1.722-0.321,1.722-1.331V46.746z"/>
		<path fill="#E2D4D5" d="M43.623,52.861c-1.894,0-3.271-1.056-3.271-3.58v-1.549c0-2.523,1.377-3.58,3.271-3.58
			s3.271,1.057,3.271,3.58v1.549C46.894,51.806,45.517,52.861,43.623,52.861z M45.287,47.732c0-1.516-0.54-2.191-1.664-2.191
			s-1.664,0.678-1.664,2.191v1.549c0,1.516,0.54,2.192,1.664,2.192s1.664-0.679,1.664-2.192V47.732z"/>
		<path fill="#E2D4D5" d="M55.555,52.77h-1.16c-0.103,0-0.184-0.114-0.184-0.229v-5.334c0-0.082-0.011-0.115-0.034-0.115
			c-0.012,0-0.034,0.033-0.058,0.068l-1.102,2.191c-0.068,0.126-0.219,0.195-0.367,0.195h-1.159c-0.148,0-0.298-0.069-0.367-0.195
			l-1.112-2.191c-0.023-0.035-0.046-0.068-0.058-0.068c-0.023,0-0.034,0.033-0.034,0.115v5.334c0,0.115-0.081,0.229-0.184,0.229
			h-1.159c-0.104,0-0.195-0.058-0.195-0.172v-7.896c0-0.252,0.207-0.459,0.459-0.459h0.941c0.184,0,0.344,0.115,0.424,0.275
			l1.733,3.512c0.058,0.104,0.08,0.16,0.125,0.16c0.047,0,0.068-0.059,0.127-0.16l1.732-3.512c0.08-0.16,0.24-0.275,0.424-0.275
			h0.941c0.252,0,0.459,0.207,0.459,0.459v7.896C55.749,52.712,55.657,52.77,55.555,52.77z"/>
		<path fill="#E2D4D5" d="M62.297,52.701c-0.367,0.059-0.814,0.16-2.181,0.16c-1.491,0-2.65-0.4-2.65-2.352v-4.006
			c0-1.95,1.159-2.353,2.65-2.353c1.366,0,1.813,0.104,2.181,0.161c0.172,0.021,0.229,0.08,0.229,0.24v0.734
			c0,0.127-0.104,0.229-0.229,0.229h-2.341c-0.666,0-0.906,0.229-0.906,0.986v1.24h3.109c0.126,0,0.229,0.104,0.229,0.229v0.83
			c0,0.125-0.104,0.229-0.229,0.229H59.05v1.48c0,0.757,0.24,0.986,0.906,0.986h2.341c0.126,0,0.229,0.104,0.229,0.229v0.734
			C62.525,52.621,62.469,52.678,62.297,52.701z"/>
	</g>
</g>
</svg>
