<svg xmlns="http://www.w3.org/2000/svg" xmlns:xlink="http://www.w3.org/1999/xlink" version="1.1" x="0px" y="0px" width="80.7px" height="337.8px" viewBox="0 0 80.7 337.8" xml:space="preserve" class="style0"><style>.style0{enable-background:	new 0 0 80.7 337.8;}.style1{fill:	#231F20;}</style><path d="M76 330.4c-4.9-0.5-9.9-0.8-14.7-1.6c-1.2-0.2-2.5-0.4-3.7-1c-0.3-0.1-1.1-0.5-1.1-1 c0-1.8 0-3.6 0-5.4c0-10.2 0-20.3 0-30.5c0-13 0-26 0-38.9c0-8.7 0-17.4 0-26c0-0.7 0-1.3 0-2c0 0 0-0.1 0-0.1c0-0.1 1.8-1.1 2-1.3 c1.7-1.3 2.9-3.1 3.5-5.1c0.5-1.8 0.5-3.6 0.5-5.5c0-2 0-3.9 0-5.9c0.1-16.4 0.2-32.7 0.2-49.1c0-8.7 0.1-17.5 0.1-26.2 c1.1 9.8 2.2 19.6 3.3 29.3c0.4 3.6 0.8 7.2 1.2 10.7c0.1 0.7 0 1.5 0 2.2c0 2.1 0 4.2 0 6.3c0 11.9 0.1 23.8 0.1 35.7 c0 1.3 0 2.6 0 3.9c0 0.2 0 0.4 0 0.6c0 0.1-0.9 0.7-1 0.8c-0.6 0.2-1.1 0.4-1.6 0.7c-0.5 0.4-1 0.8-1.4 1.3c-1 1-2.2 2-2.6 3.4 c-0.4 1.2-0.2 2.7-0.2 4c0 0.5-0.1 1 0.2 1.5c0.5 0.9 1.6 1.1 2.5 0.8c1.1-0.3 0.7-2.3 0.7-3.1c0.2 0 0.7-0.1 0.7 0.1 c0 0.4 0 0.8 0 1.3c0-0.1 0-0.2 0-0.3c0 2 0 4 0 6c0 1.7-0.7 5.6 1.7 5.9c1.2 0.1 2.3-0.3 2.3-1.6c0-1 0-2.1 0-3.1 c0-2.1 0-4.2 0-6.3c0.8-0.1 0.5 1 0.5 1.6c0 1.5 0 3 0 4.5c0 1.4 0 2.8 0 4.1c0 1-0.1 2.3 1.1 2.7c2.9 1 2.2-4.5 2.2-5.9 c0-2.4 0-4.7 0-7c0.3 0 0.6-0.1 0.6 0.2c0 0.4 0 0.8 0 1.2c0 1.4 0 2.8 0 4.2c0 1.3 0 2.6 0 3.9c0 1 0 2 1.4 2.2 c0.3 0 0.4-0.1 0.8-0.2c0.4 0 0.9-0.2 1-0.6c0.1-0.3 0.1-0.6 0.1-0.9c0-1.2 0-2.3 0-3.5c0-2.2 0-4.3 0-6.5c0.5-0.2 0.4 0.2 0.4 0.5 c0 0.7 0 1.3 0 2c0 1.5 0 3 0 4.5c0 0.3 0 0.7 0 1c0.1 0.5 0.3 0.9 0.8 1.1c0.2 0.1 0.4 0.2 0.7 0.2c0.2 0 0.3 0 0.5 0 c0-0.1 0-0.1 0-0.2c1.5 0 1.4-1.9 1.4-3c0-2.5 0-5 0-7.5c0-2.5 0.4-5.6-0.6-8c-0.4-0.9-1.1-1.8-2-2.3c-0.2-0.1-1.2-0.5-1.2-0.6 c0-0.3 0-0.7 0-1c0-1.7 0-3.5 0-5.2c0-6 0-12 0-17.9c0-6 0-12.1 0-18.1c0-1.8 0-3.6 0-5.5c0-0.9-0.1-1.6-0.2-2.5 c-1-8.6-1.9-17.2-2.9-25.8c-1.2-11.3-2.5-22.5-3.7-33.8c-0.1-1.1-0.2-2.1-0.4-3.2c-0.4-3.5-5.2-3.7-7.5-1.9 c-2.3-4.5-6.8-7.8-11.4-9.7c-1.1-0.5-2.3-0.9-3.5-1.2c-0.7-0.2-0.6-0.2-0.6-0.8c0-1.5 0-2.9 0-4.4c0-1.1 0-2.2 0-3.2 c0-0.1 2.3-1 2.5-1.2c1-0.6 2-1.2 2.9-2c3.6-3 5.8-7.4 6.2-12c0.1-1.5 0.1-3.1 0.1-4.6c4.4 0.3 8.6-2.7 9.6-7 c1.1-4.5-1.5-9.2-5.8-10.8c2.9-1.1 5.2-3.6 5.9-6.7c0.4-1.7 0.2-3.6-0.4-5.3c-0.2-0.4-0.6-0.8-0.2-1c0.4-0.3 0.8-0.6 1.2-0.9 c0.7-0.6 1.2-1.3 1.7-2.1c1.7-2.8 1.8-6.5 0-9.3c-1.8-2.8-5.2-4.2-8.4-3.2c1.6-4.2-0.4-8.8-4.9-9.9c-2.2-0.6-4.5-0.4-6.7-0.4 c-0.2 0-0.3-1.1-0.3-1.3c-0.7-2.6-2.5-4.8-5-5.8C41-0.6 36.4-0.2 33.6 2.6c-1.1 1.1-2 2.6-2.4 4.1C31 7 30.9 7.4 30.9 7.8 c0 0.2-2.2 0.1-2.5 0.1c-2.8 0-5.7 0.2-7.8 2.3c-2.1 2.1-2.4 5.4-1.4 8.1c-3.1-1-6.4 0.2-8.2 2.9c-2 2.8-1.9 6.6-0.2 9.5 c0.4 0.7 0.9 1.3 1.5 1.9c0.3 0.3 0.6 0.5 0.9 0.8c0.2 0.1 0.3 0.2 0.5 0.3c0.4 0.2 0.1 0.4 0 0.7c-0.7 1.7-0.9 3.5-0.6 5.3 c0.6 3.2 2.9 5.9 5.9 7c-4.4 1.6-6.9 6.3-5.8 10.8c1 4.3 5.1 7.3 9.6 7c0 3.6 0 7 1.5 10.4c1.9 4.2 5.4 7.6 9.8 9.2 c0.6 0.2 1.1 0.1 1.1 0.8c0 0.6 0 1.2 0 1.9c0 1.5 0 3 0 4.6c0 0.3 0 0.6 0 1c0 0-3.2 0.8-3.4 0.9c-2.4 0.8-4.7 1.9-6.8 3.3 c-2.8 1.9-5.3 4.3-6.8 7.4c-2.1-2-7.3-2-7.7 1.7c-0.1 0.9-0.2 1.8-0.3 2.7c-0.5 4.6-1 9.3-1.5 13.9c-1.4 12.3-2.7 24.7-4.1 37 c-0.3 3.1-0.7 6.1-1 9.2c-0.1 0.8-0.2 1.5-0.2 2.2c0 1.7 0 3.3 0 5c0 12 0 24 0 36c0 1.9 0 3.9 0 5.8c0 0.5 0 1 0 1.5 c0 0.1 0 0.2 0 0.3c0 0.1-1.4 1.2-1.6 1.4c-1.9 2.4-1.3 6.1-1.3 9c0 2.4 0 4.8 0 7.1c0 0.9-0.3 2.6 0.7 3.2c0.7 0.4 2.1 0.2 2.5-0.5 c0.2-0.4 0.2-0.9 0.2-1.3c0-1.5 0-3 0-4.4c0-0.7 0-1.4 0-2.1c0-0.3-0.1-0.8 0.4-0.6c0 2.2 0 4.4 0 6.6c0 1.1 0 2.3 0 3.4 c0 0.3 0 0.6 0.1 0.9c0.2 0.4 0.6 0.7 1 0.8c0.5 0.1 0.6-0.1 1.1-0.1c1.2-0.1 1.1-1.1 1.1-2c0-1.3 0-2.6 0-3.9c0-1.4 0-2.8 0-4.1 c0-0.4 0-0.8 0-1.1c0-0.4 0.2-0.2 0.5-0.2c0 2.3 0 4.6 0 6.9c0 1.3 0 2.5 0 3.8c0 1.2 0.4 2.6 1.9 2.3c1.3-0.2 1.4-1.5 1.4-2.5 c0-1.4 0-2.8 0-4.2c0-1.5 0-3 0-4.6c0-0.6-0.3-1.8 0.5-1.7c0 2.1 0 4.2 0 6.4c0 1 0 2 0 3c0 0.5 0.1 0.9 0.4 1.3 c0.7 0.7 1.4 0.5 2.1 0.3c2.2-0.6 1.5-4.5 1.5-6.1c0-2 0-4.1 0-6.1c0 0.2 0 0.5 0 0.7c0-0.4 0-0.8 0-1.2c0-0.4 0.3-0.3 0.7-0.3 c0 1.2-0.4 3.2 1.1 3.5c0.8 0.2 1.9-0.5 2.2-1.3c0.2-0.6 0.1-1.3 0.1-1.8c0-1.7 0.2-3.5-0.9-4.9c-0.7-1-1.8-1.8-2.6-2.7 c-0.8-0.8-1.9-1.1-2.8-1.8c-0.2-0.2-1.4-0.7-1.4-0.9c0-0.4 0-0.7 0-1.1c0-1.8 0-3.6 0-5.3c0-12 0-23.9 0-35.9c0-2.1-0.2-4.2 0.1-6.3 c0.5-4.3 1-8.6 1.4-12.9c1.1-10 2.2-20.1 3.3-30.1c0 0 0 0 0-0.1c0 17 0 34-0.1 51.1c0 11.9-0.1 23.8-0.2 35.7c0 2 0.1 4 1 5.9 c0.9 1.9 2.4 3.4 4.2 4.4c0.4 0.2 1.8 0.6 1.8 1.1c0 2.2 0 4.3 0 6.5c0 10.8 0 21.5 0 32.3c0 12.8 0 25.5 0 38.3 c0 6.9 0 13.7 0 20.6c0 4.1 0 8.3 0 12.4c0 0.8 0 1.6 0 2.4c0 0.1 0.7 0.1 0.8 0.1c2.3 0 4.7 0 7 0c8.7 0 17.4 0 26.1 0 c5.8 0 11.5 0 17.3 0c2 0 4 0 6 0c0.9 0 0-3.7-0.2-4.2C79.7 331.7 78.1 330.6 76 330.4C63.9 329.2 81.9 330.9 76 330.4z M48.5 323.1 c0 2.2 0 4.4 0 6.6c-4.5-0.4-9.2-0.5-13.7-1.5c-0.8-0.2-3.3-0.6-3.3-1.6c0-2.3 0-4.6 0-6.9c0-10.8 0-21.6 0-32.4 c0-12.8 0-25.6 0-38.4c0-7.2 0-14.4 0-21.7c0-0.1 0-0.3 0-0.4c3 0.2 6 0.3 8.9 0.3c2.7 0 5.5 0 8.1-0.7c0 6 0 12 0 18 c0 12.6 0 25.2 0 37.8c0 11.1 0 22.1 0 33.2C48.5 318 48.5 320.6 48.5 323.1z" class="style1"/></svg>