<?xml version="1.0" encoding="utf-8"?>
<!-- Generator: Adobe Illustrator 16.0.0, SVG Export Plug-In . SVG Version: 6.00 Build 0)  -->
<!DOCTYPE svg PUBLIC "-//W3C//DTD SVG 1.1//EN" "http://www.w3.org/Graphics/SVG/1.1/DTD/svg11.dtd">
<svg version="1.1" xmlns="http://www.w3.org/2000/svg" xmlns:xlink="http://www.w3.org/1999/xlink" x="0px" y="0px" width="1280px"
	 height="700px" viewBox="0 0 1280 700" enable-background="new 0 0 1280 700" xml:space="preserve">
<g id="Luz_x5F_Lampara">
	<g>
		<linearGradient id="SVGID_1_" gradientUnits="userSpaceOnUse" x1="641.1494" y1="134.9995" x2="641.1494" y2="403.185">
			<stop  offset="0" style="stop-color:#F5E6D4"/>
			<stop  offset="1" style="stop-color:#F5E6C2"/>
		</linearGradient>
		<path fill="url(#SVGID_1_)" d="M648.364,184.618c-2.728-0.213-6.032-0.338-9.545-0.338c-3.459,0-6.639,0.121-9.278,0.329
			l-50.354,203.907l123.924-0.482L648.364,184.618z"/>
	</g>
</g>
<g id="Sombras">
	<g>
		<polygon id="Sombra_x5F_cocina02" fill="#F3E1B6" points="766.017,277.002 838.703,373 714,373 714,276.808 		"/>
		<polygon id="Sombra_x5F_cocina" fill="#F3E1B6" points="912.297,373.765 982,457 857.787,457 860.525,373.161 		"/>
	</g>
</g>
<g id="Mesada">
	<g>
		<g>
			<g>
				<g>
					<path fill="#BFBFC7" d="M863.538,378.802v-32.195c0-2.979,2.423-5.403,5.401-5.403c2.978,0,5.402,2.424,5.402,5.403v0.982
						c-0.271,0.001-0.49,0.218-0.49,0.491v3.929c0,0.272,0.221,0.492,0.49,0.492l3.929-0.002c0.272,0,0.493-0.217,0.493-0.49v-3.929
						c0-0.271-0.223-0.49-0.493-0.49v-0.983c0-3.544-1.987-6.63-4.901-8.21c-1.32-0.714-2.828-1.121-4.43-1.121
						c-5.145,0-9.33,4.186-9.33,9.332v15.241v16.955L863.538,378.802z"/>
					<path opacity="0.5" fill="#BFBFC7" d="M861.574,346.606c0-4.439,3.483-8.067,7.857-8.324c-0.162-0.008-0.324-0.023-0.492-0.023
						c-4.602,0-8.348,3.743-8.348,8.347v32.196v0.001h0.982l0,0V346.606z"/>
					<path opacity="0.5" fill="#BFBFC7" d="M874.833,348.08v3.929l0.985-0.002v-3.927c0-0.271,0.219-0.49,0.488-0.49h-0.98
						C875.055,347.589,874.833,347.809,874.833,348.08z"/>
					<path opacity="0.5" fill="#BFBFC7" d="M869.432,340.738c3.293,0.251,5.893,3.006,5.893,6.361l0.982-0.002
						c0-3.52-2.865-6.385-6.385-6.385C869.758,340.711,869.594,340.725,869.432,340.738z"/>
				</g>
				<g>
					<path fill="#5BA4C2" d="M875.064,354.134c-0.363,0.735-0.721,1.563-0.723,1.976c0.002,0.457,0.201,0.861,0.512,1.139
						c0.256,0.233,0.592,0.381,0.965,0.38c0.812,0,1.472-0.679,1.473-1.516c0-0.839-1.473-3.393-1.473-3.393
						S875.439,353.377,875.064,354.134z"/>
					<path fill="#72ADC8" d="M875.326,356.112c0-1.244,0.49-2.376,0.49-2.376c-0.594,0.948-0.981,2-0.981,2.376
						c0,0.565,0.439,1.026,0.981,1.025c0.084,0,0.168-0.014,0.248-0.036C875.641,356.986,875.326,356.59,875.326,356.112z"/>
				</g>
			</g>
			<g>
				<path fill="#BFBFC7" d="M849.773,368.138c0.127-0.525,0.264-1.248,0.604-1.59l0.114-0.115c0.332,0.086,0.676,0.086,1.006,0
					c0.039,0.039,0.074,0.075,0.113,0.115c0.342,0.342,0.48,1.062,0.605,1.59c0.081,0.335,0.252,0.656,0.516,0.919
					c0.766,0.767,2.01,0.767,2.777,0c0.767-0.767,0.767-2.011,0-2.778c-0.262-0.263-0.582-0.435-0.918-0.514
					c-0.528-0.127-1.249-0.263-1.589-0.606l-0.117-0.114c0.089-0.329,0.089-0.673,0.002-1.004c0.038-0.038,0.073-0.074,0.115-0.115
					c0.34-0.34,1.061-0.479,1.591-0.605c0.334-0.079,0.654-0.25,0.916-0.515c0.767-0.768,0.767-2.01,0-2.777
					c-0.28-0.28-0.623-0.456-0.984-0.531c-0.627-0.131-1.307,0.043-1.793,0.531c-0.264,0.263-0.435,0.582-0.514,0.917
					c-0.092,0.378-0.189,0.855-0.363,1.221c-0.066,0.145-0.146,0.273-0.244,0.37l-0.113,0.115c-0.033-0.01-0.066-0.022-0.098-0.029
					c-0.301-0.064-0.609-0.048-0.908,0.029c-0.037-0.04-0.072-0.073-0.114-0.115c-0.315-0.316-0.457-0.959-0.577-1.471
					c-0.004-0.027-0.013-0.054-0.02-0.08c-0.002-0.014-0.006-0.027-0.008-0.042c-0.013-0.052-0.031-0.104-0.05-0.158
					c-0.022-0.064-0.048-0.128-0.075-0.191c-0.033-0.068-0.067-0.138-0.107-0.202c-0.02-0.035-0.041-0.066-0.064-0.098
					c-0.062-0.09-0.131-0.177-0.208-0.257c-0.005-0.003-0.005-0.008-0.009-0.01c-0.289-0.29-0.642-0.469-1.015-0.54
					c-0.619-0.121-1.284,0.058-1.765,0.54c-0.576,0.573-0.719,1.418-0.43,2.127c0.095,0.237,0.238,0.458,0.43,0.65
					c0.085,0.083,0.176,0.156,0.273,0.222c0.025,0.02,0.057,0.037,0.084,0.055c0.074,0.046,0.146,0.085,0.225,0.119
					c0.042,0.02,0.084,0.04,0.129,0.053c0.066,0.026,0.138,0.048,0.207,0.066c0.015,0.003,0.031,0.008,0.046,0.01
					c0.024,0.007,0.048,0.014,0.073,0.017c0.512,0.122,1.154,0.261,1.473,0.579l0.114,0.115c-0.078,0.297-0.089,0.608-0.027,0.908
					c0.005,0.032,0.019,0.063,0.027,0.097c-0.038,0.038-0.075,0.073-0.114,0.114c-0.097,0.097-0.225,0.176-0.37,0.245
					c-0.366,0.173-0.841,0.271-1.222,0.362c-0.336,0.081-0.653,0.251-0.918,0.516c-0.766,0.765-0.77,2.009,0,2.776
					c0.538,0.537,1.307,0.689,1.986,0.474c0.289-0.091,0.562-0.245,0.793-0.474C849.521,368.793,849.693,368.475,849.773,368.138z
					 M850.3,363.847c0.382-0.383,1.008-0.383,1.392,0c0.382,0.385,0.382,1.007,0,1.39c-0.384,0.383-1.01,0.383-1.392,0
					C849.916,364.854,849.918,364.231,850.3,363.847z"/>
				<circle fill="#5DA4A6" cx="850.996" cy="364.542" r="0.983"/>
				<path fill="#BFBFC7" d="M853.079,368.709c0.276,0.278,0.647,0.43,1.04,0.43c0.396,0.001,0.766-0.152,1.043-0.43
					c0.575-0.575,0.575-1.509,0-2.083c-0.084-0.085-0.178-0.154-0.277-0.213c0.345,0.568,0.277,1.314-0.213,1.805
					c-0.279,0.276-0.647,0.43-1.043,0.43c-0.273,0-0.535-0.079-0.764-0.218C852.926,368.53,852.992,368.625,853.079,368.709z"/>
				<path fill="#BFBFC7" d="M848.92,366.626c-0.084-0.083-0.178-0.153-0.277-0.213c0.344,0.565,0.275,1.314-0.213,1.804
					c-0.279,0.277-0.65,0.431-1.043,0.431c-0.273,0-0.535-0.08-0.764-0.217c0.06,0.099,0.127,0.193,0.213,0.278
					c0.277,0.278,0.648,0.432,1.043,0.431c0.395,0,0.764-0.153,1.041-0.431C849.495,368.134,849.495,367.2,848.92,366.626z"/>
				<path opacity="0.5" fill="#BFBFC7" d="M847.107,362.67c-0.347-0.569-0.275-1.315,0.211-1.805
					c0.279-0.277,0.647-0.431,1.045-0.431c0.273,0,0.533,0.078,0.762,0.218c-0.059-0.1-0.127-0.193-0.213-0.278
					c-0.277-0.278-0.648-0.431-1.044-0.431c-0.393-0.001-0.761,0.153-1.041,0.431c-0.571,0.575-0.571,1.509,0.001,2.084
					C846.912,362.542,847.006,362.61,847.107,362.67z"/>
				<path opacity="0.5" fill="#BFBFC7" d="M853.079,362.458c0.085,0.083,0.18,0.152,0.276,0.212
					c-0.342-0.566-0.274-1.315,0.216-1.805c0.278-0.277,0.648-0.431,1.041-0.431c0.276,0,0.538,0.079,0.766,0.218
					c-0.058-0.099-0.13-0.192-0.214-0.278c-0.279-0.278-0.648-0.431-1.041-0.431c-0.396,0-0.766,0.153-1.044,0.431
					C852.506,360.949,852.506,361.883,853.079,362.458z"/>
			</g>
			<g>
				<g>
					<path fill="#BFBFC7" d="M875.872,363.319c0.337-0.079,0.653-0.251,0.917-0.515c0.768-0.768,0.768-2.01,0-2.777
						c-0.767-0.766-2.012-0.766-2.777-0.002c-0.264,0.266-0.435,0.584-0.515,0.92c-0.126,0.528-0.263,1.25-0.604,1.591l-0.115,0.116
						c-0.33-0.087-0.676-0.087-1.004,0c-0.039-0.039-0.076-0.074-0.116-0.116c-0.341-0.342-0.478-1.063-0.605-1.591
						c-0.081-0.336-0.251-0.654-0.515-0.917c-0.766-0.766-2.011-0.766-2.777,0c-0.767,0.767-0.767,2.009,0.001,2.777
						c0.265,0.265,0.581,0.435,0.917,0.514c0.527,0.126,1.249,0.265,1.592,0.605l0.115,0.115c-0.088,0.33-0.088,0.675,0,1.004
						c-0.039,0.038-0.074,0.073-0.115,0.114c-0.341,0.344-1.064,0.48-1.592,0.606c-0.336,0.081-0.654,0.251-0.917,0.514
						c-0.768,0.767-0.768,2.012,0,2.778c0.766,0.768,2.011,0.766,2.776,0c0.264-0.263,0.435-0.582,0.516-0.918
						c0.127-0.525,0.264-1.248,0.604-1.59l0.116-0.115c0.328,0.088,0.674,0.086,1.004,0c0.039,0.039,0.074,0.073,0.115,0.115
						c0.342,0.342,0.477,1.062,0.604,1.59c0.081,0.337,0.251,0.656,0.515,0.92c0.766,0.766,2.011,0.765,2.777-0.001
						c0.768-0.766,0.768-2.012-0.001-2.778c-0.263-0.263-0.581-0.433-0.917-0.514c-0.527-0.126-1.249-0.263-1.591-0.606
						l-0.114-0.114c0.086-0.33,0.086-0.674,0-1.004c0.039-0.038,0.074-0.074,0.114-0.115
						C874.622,363.584,875.344,363.445,875.872,363.319z M872.969,365.237c-0.383,0.383-1.006,0.383-1.391,0
						c-0.382-0.384-0.382-1.005,0-1.39c0.386-0.383,1.008-0.383,1.391,0C873.354,364.231,873.354,364.854,872.969,365.237z"/>
					<circle fill="#B0604C" cx="872.273" cy="364.542" r="0.983"/>
				</g>
				<path fill="#BFBFC7" d="M874.358,368.709c0.279,0.278,0.647,0.431,1.042,0.43c0.394,0.001,0.766-0.152,1.042-0.43
					c0.575-0.575,0.575-1.509,0-2.083c-0.083-0.083-0.179-0.153-0.276-0.213c0.342,0.568,0.273,1.314-0.215,1.805
					c-0.279,0.276-0.647,0.429-1.043,0.43c-0.273,0-0.535-0.078-0.764-0.217C874.205,368.53,874.275,368.625,874.358,368.709z"/>
				<path fill="#BFBFC7" d="M869.922,366.414c0.344,0.568,0.277,1.314-0.213,1.805c-0.279,0.276-0.648,0.43-1.043,0.43
					c-0.272,0-0.535-0.079-0.766-0.218c0.061,0.1,0.127,0.194,0.215,0.279c0.278,0.278,0.65,0.43,1.043,0.43
					c0.395,0.001,0.764-0.152,1.043-0.43c0.572-0.575,0.572-1.509,0-2.083C870.115,366.543,870.022,366.473,869.922,366.414z"/>
				<path opacity="0.5" fill="#BFBFC7" d="M870.19,360.374c-0.278-0.278-0.646-0.431-1.04-0.431c-0.396,0-0.766,0.152-1.044,0.431
					c-0.575,0.575-0.573,1.509,0,2.084c0.083,0.083,0.18,0.152,0.278,0.212c-0.345-0.569-0.275-1.315,0.211-1.805
					c0.281-0.277,0.651-0.431,1.045-0.431c0.275,0,0.537,0.079,0.766,0.218C870.346,360.553,870.275,360.459,870.19,360.374z"/>
				<path opacity="0.5" fill="#BFBFC7" d="M874.638,362.67c-0.346-0.566-0.277-1.315,0.212-1.807
					c0.277-0.276,0.647-0.429,1.043-0.429c0.273,0,0.535,0.079,0.766,0.218c-0.061-0.1-0.13-0.192-0.214-0.278
					c-0.278-0.278-0.65-0.431-1.044-0.431c-0.395,0-0.763,0.153-1.042,0.431c-0.573,0.575-0.573,1.509,0,2.083
					C874.443,362.542,874.536,362.61,874.638,362.67z"/>
			</g>
		</g>
		<g>
			<rect x="770.797" y="381.853" fill="#897558" width="135.812" height="75.938"/>
			<rect x="770.797" y="373.821" fill="#AEC5CA" width="141.653" height="8.032"/>
			<rect x="770" y="377" opacity="0.2" fill="#AEC5CA" width="143" height="4"/>
		</g>
	</g>
	<g>
		<g>
			<g>
				<rect x="778.967" y="389.291" opacity="0.25" fill="#897558" width="37.969" height="16.065"/>
				<rect x="778.967" y="405.355" opacity="0.25" fill="#897558" width="37.969" height="16.063"/>
				<rect x="778.967" y="421.418" opacity="0.25" fill="#897558" width="37.969" height="16.064"/>
				<rect x="778.967" y="437.483" opacity="0.25" fill="#897558" width="37.969" height="16.063"/>
			</g>
		</g>
	</g>
	
		<rect x="777.369" y="387.693" fill="#E6E6E6" stroke="#AEC5CA" stroke-width="1.4603" stroke-miterlimit="10" width="37.969" height="16.064"/>
	
		<rect x="777.369" y="403.758" fill="#E6E6E6" stroke="#AEC5CA" stroke-width="1.4603" stroke-miterlimit="10" width="37.969" height="16.063"/>
	
		<rect x="777.369" y="419.821" fill="#E6E6E6" stroke="#AEC5CA" stroke-width="1.4603" stroke-miterlimit="10" width="37.969" height="16.064"/>
	
		<rect x="777.369" y="435.886" fill="#E6E6E6" stroke="#AEC5CA" stroke-width="1.4603" stroke-miterlimit="10" width="37.969" height="16.063"/>
	<g opacity="0.2">
		<rect x="778" y="388" fill="#E6E6E6" width="19" height="16"/>
		<rect x="778" y="404" fill="#E6E6E6" width="19" height="16"/>
		<rect x="778" y="420" fill="#E6E6E6" width="19" height="16"/>
		<rect x="778" y="436" fill="#E6E6E6" width="19" height="16"/>
	</g>
	
		<line fill="none" stroke="#897558" stroke-width="1.4603" stroke-miterlimit="10" x1="791.973" y1="396.456" x2="800.734" y2="396.456"/>
	
		<line fill="none" stroke="#897558" stroke-width="1.4603" stroke-miterlimit="10" x1="791.973" y1="411.79" x2="800.734" y2="411.79"/>
	
		<line fill="none" stroke="#897558" stroke-width="1.4603" stroke-miterlimit="10" x1="791.973" y1="427.853" x2="800.734" y2="427.853"/>
	
		<line fill="none" stroke="#897558" stroke-width="1.4603" stroke-miterlimit="10" x1="791.973" y1="443.187" x2="800.734" y2="443.187"/>
	<g>
		<g>
			<rect x="825.926" y="389.291" opacity="0.25" fill="#897558" width="37.238" height="64.256"/>
			<rect x="863.164" y="389.291" opacity="0.25" fill="#897558" width="37.24" height="64.256"/>
		</g>
		
			<rect x="824.1" y="387.693" fill="#E6E6E6" stroke="#AEC5CA" stroke-width="1.4603" stroke-miterlimit="10" width="37.239" height="64.256"/>
		
			<rect x="861.339" y="387.693" fill="#E6E6E6" stroke="#AEC5CA" stroke-width="1.4603" stroke-miterlimit="10" width="37.239" height="64.256"/>
		<rect x="824.1" y="387.693" opacity="0.2" fill="#E6E6E6" width="18.984" height="64.256"/>
		<rect x="861.339" y="387.693" opacity="0.2" fill="#E6E6E6" width="18.984" height="64.256"/>
		
			<line fill="none" stroke="#897558" stroke-width="1.4603" stroke-miterlimit="10" x1="868.641" y1="399.377" x2="868.641" y2="408.139"/>
		
			<line fill="none" stroke="#897558" stroke-width="1.4603" stroke-miterlimit="10" x1="853.308" y1="399.377" x2="853.308" y2="408.139"/>
	</g>
</g>
<g id="Heladera_1_">
	<g id="Heladera">
		<g>
			<path fill="#AEC5CA" d="M770.795,371.785c0-1.295-1.051-2.346-2.347-2.346H684.79c-1.296,0-2.347,1.05-2.347,2.346v83.66
				c0,1.295,1.051,2.346,2.347,2.346h83.658c1.296,0,2.347-1.051,2.347-2.346V371.785z"/>
			<path fill="#AEC5CA" d="M770.795,287.027c0-5.46-4.286-10.32-9.586-10.32h-69.012c-5.301,0-9.754,4.86-9.754,10.32V436.07
				c0,5.46,4.453,10.038,9.754,10.038h69.012c5.3,0,9.586-4.577,9.586-10.038V287.027z"/>
			<path opacity="0.25" fill="#273C4D" d="M688.266,438.386c0,3.137,2.552,5.896,5.689,5.896h69.147
				c3.136,0,5.137-2.971,5.137-6.107V288.502c0-3.135-2.001-5.589-5.137-5.589h-69.147c-3.138,0-5.689,2.609-5.689,5.743V438.386z"
				/>
		</g>
		<path fill="#CEDCDF" stroke="#AEC5CA" stroke-width="0.9127" stroke-miterlimit="10" d="M686.441,436.561
			c0,3.135,2.551,5.896,5.688,5.896h69.148c3.135,0,5.137-2.971,5.137-6.108V286.678c0-3.136-2.002-5.589-5.137-5.589h-69.148
			c-3.137,0-5.688,2.608-5.688,5.742V436.561z"/>
		<g opacity="0.25">
			<path fill="#E4CA9A" d="M693.109,446c-5.301,0-11.109-4.205-11.109-9.666v12.074c0,1.295,2.406,3.592,3.702,3.592H727v-6H693.109
				z"/>
			<path fill="#E4CA9A" d="M682,287.292V288h4v12h-4v72.049c0-1.295,2.406-2.049,3.702-2.049H686v-82.904
				c0-3.134,3.905-7.096,7.041-7.096H727v-4h-33.891C687.809,276,682,281.831,682,287.292z"/>
			<path fill="#E4CA9A" d="M686,436.826V370h-0.298c-1.296,0-3.702,0.754-3.702,2.049V424h4v12h-4v0.334
				c0,5.46,5.809,9.666,11.109,9.666H727v-3h-33.959C689.905,443,686,439.96,686,436.826z"/>
			<path fill="#E4CA9A" d="M686,287.096V370h41v-90h-33.959C689.905,280,686,283.962,686,287.096z"/>
			<path fill="#E4CA9A" d="M686,370v66.826c0,3.135,3.905,6.174,7.041,6.174H727v-73H686z"/>
			<rect x="682" y="287.569" fill="#E4CA9A" width="0" height="11.865"/>
			<rect x="682" y="288" fill="#E4CA9A" width="4" height="12"/>
			<rect x="682" y="424.477" fill="#E4CA9A" width="0" height="11.865"/>
			<rect x="682" y="424" fill="#E4CA9A" width="4" height="12"/>
		</g>
		
			<rect x="681.713" y="287.66" fill="#CDDBCA" stroke="#AEC5CA" stroke-width="0.9127" stroke-miterlimit="10" width="4.382" height="11.683"/>
		
			<rect x="681.713" y="424.202" fill="#CDDBCA" stroke="#AEC5CA" stroke-width="0.9127" stroke-miterlimit="10" width="4.382" height="11.683"/>
		<g>
			<path fill="#EFE2B9" d="M763.047,344.036c0.045-2.328-1.691-4.251-4.02-4.298c-2.328-0.045-4.426,1.802-4.471,4.13
				c-0.04,2.015,1.233,3.72,3.049,4.173l-0.584,29.544c-0.011,0.504,0.391,0.921,0.895,0.932c0.504,0.009,0.921-0.391,0.932-0.896
				l0.584-29.544C762.178,347.715,763.006,346.052,763.047,344.036z"/>
			
				<line fill="none" stroke="#AEC5CA" stroke-width="1.8254" stroke-linecap="round" stroke-linejoin="round" stroke-miterlimit="10" x1="757.652" y1="376.741" x2="757.652" y2="342.423"/>
			<circle fill="#C9DEE1" cx="758.077" cy="343.078" r="4.218"/>
			<circle fill="#F5E5E5" cx="757.106" cy="342.107" r="3.247"/>
		</g>
	</g>
</g>
<g id="Frutas">
	<g id="frutas">
		<g>
			<path fill="#CEAD8D" d="M803.438,351.508c-1.852-3.84-6.352-5.396-10.287-3.67c-3.935,1.724-5.844,6.089-4.273,10.05
				l-0.008,0.002l3.912,8.926l0.039-0.016c1.98,3.511,6.049,4.348,9.821,2.695c3.772-1.654,5.913-5.212,4.677-9.049l0.037-0.016
				l-3.913-8.926L803.438,351.508z"/>
			<path fill="#536A1E" d="M792.172,346.947c0,0-0.92-0.924-2.352-1.57c-0.414,0.961-1.164,1.777-2.174,2.261
				C790.021,348.023,792.172,346.947,792.172,346.947z"/>
			<path fill="#899C60" d="M788.09,344.842c-2.381-0.39-4.54,0.69-4.54,0.69s1.7,1.714,4.083,2.103
				c0.004,0.002,0.008,0.002,0.008,0.002c1.016-0.483,1.766-1.299,2.18-2.26C789.303,345.144,788.721,344.946,788.09,344.842z"/>
			<path fill="#536A1E" d="M790.867,344.278c0,0-0.762-1.479-2.25-2.471c-0.181,0.78-0.555,1.509-1.113,2.096
				C789.197,344.535,790.867,344.278,790.867,344.278z"/>
			<path fill="#899C60" d="M788.617,341.807c-0.183-0.123-0.375-0.237-0.58-0.341c-1.869-0.949-3.941-0.619-3.941-0.619
				s0.961,1.864,2.832,2.812c0.189,0.097,0.383,0.172,0.576,0.244C788.062,343.316,788.437,342.587,788.617,341.807z"/>
			<path fill="#536A1E" d="M789.041,340.556c0.738,0.991,1.61,1.542,1.61,1.542s0.448-1.819-0.251-3.558
				c-0.172-0.428-0.398-0.808-0.641-1.142C789.922,338.518,789.661,339.64,789.041,340.556z"/>
			<path fill="#899C60" d="M789.76,337.399c-0.746-1.024-1.647-1.593-1.647-1.593s-0.45,1.819,0.249,3.557
				c0.182,0.45,0.424,0.847,0.68,1.193C789.661,339.64,789.922,338.518,789.76,337.399z"/>
			<path fill="#536A1E" d="M792.061,341.37c-0.115,0.05-0.232,0.073-0.35,0.113c0.012,1.284,0.369,2.264,0.369,2.264
				s1.645-1.302,2.215-3.318c0.178-0.625,0.23-1.244,0.221-1.8C794.133,339.808,793.285,340.832,792.061,341.37z"/>
			<path fill="#899C60" d="M794.516,338.629c-0.025-1.247-0.367-2.187-0.367-2.187s-1.646,1.3-2.219,3.319
				c-0.169,0.595-0.223,1.184-0.219,1.722c0.117-0.041,0.234-0.063,0.35-0.113C793.285,340.832,794.133,339.808,794.516,338.629z"/>
			<path fill="#536A1E" d="M793.736,343.691c-0.465,1.537-0.355,2.874-0.355,2.874s2.226-0.939,3.475-3.005
				c0.278-0.459,0.482-0.937,0.635-1.401c-0.424,0.495-0.949,0.911-1.584,1.19C795.195,343.659,794.455,343.751,793.736,343.691z"/>
			<path fill="#899C60" d="M794.435,342.095c-0.319,0.525-0.541,1.073-0.698,1.597c0.719,0.06,1.459-0.033,2.17-0.342
				c0.635-0.279,1.16-0.695,1.584-1.19c0.533-1.615,0.418-3.069,0.418-3.069S795.685,340.03,794.435,342.095z"/>
			<path fill="#CEAD8D" d="M796.443,369.896c1.881,0.669,4.085,0.525,6.198-0.401c3.772-1.655,5.915-5.212,4.677-9.049l0.037-0.016
				l-3.911-8.926l-0.007,0.004c-0.86-1.784-2.296-3.069-3.98-3.766C802.664,355.829,801.276,364.464,796.443,369.896z"/>
		</g>
		<g>
			<path fill="#536A1E" d="M803.413,348.905c-0.03,0-0.062-0.009-0.093-0.009c-0.072,0.804,0.088,1.462,0.088,1.462
				s1.731-0.36,2.542-1.643c0.442-0.701,0.519-1.53,0.495-2.141C806.083,347.916,804.871,348.905,803.413,348.905z"/>
			<path fill="#899C60" d="M803.801,347.357c-0.31,0.49-0.438,1.042-0.48,1.539c0.031,0,0.062,0.009,0.093,0.009
				c1.458,0,2.67-0.99,3.032-2.332c-0.016-0.505-0.103-0.861-0.103-0.861S804.613,346.073,803.801,347.357z"/>
			<path fill="#C6545F" d="M811.234,355.28l-0.006,0.011c-0.031-1.265-0.543-2.409-1.35-3.266
				c-0.427,6.514-5.577,11.735-12.062,12.271c0.605,0.8,1.285,1.438,2.028,1.86c0.54,0.38,1.199,0.604,1.911,0.604
				c0.04,0,0.082-0.004,0.123-0.005c0.048,0.001,0.096,0.005,0.145,0.005l-0.008-0.013c0.432-0.035,0.838-0.148,1.209-0.331
				c0.369,0.182,0.777,0.296,1.21,0.331l-0.009,0.013c0.049,0,0.098-0.004,0.144-0.005c0.042,0.001,0.083,0.005,0.122,0.005
				c0.713,0,1.371-0.224,1.914-0.604c2.656-1.513,4.577-5.713,4.625-10.687c0-0.019,0.004-0.037,0.004-0.057
				c0-0.009-0.002-0.02-0.002-0.03C811.232,355.348,811.234,355.313,811.234,355.28z"/>
			<path fill="#D76A74" d="M809.879,352.025c-0.9-0.953-2.169-1.55-3.583-1.55c-1.161,0-2.229,0.403-3.071,1.073
				c-0.843-0.669-1.908-1.073-3.07-1.073c-2.688,0-4.867,2.144-4.934,4.816l-0.008-0.011c0,0.034,0.003,0.068,0.005,0.103
				c0,0.011-0.005,0.021-0.005,0.03c0,0.02,0.005,0.038,0.005,0.057c0.034,3.584,1.046,6.76,2.599,8.826
				C804.302,363.76,809.452,358.539,809.879,352.025z"/>
		</g>
		<g>
			<path fill="#CEAD8D" d="M801.243,361.946c-2.386-0.856-4.399-2.285-5.946-4.076c-0.039,0.059-0.079,0.121-0.112,0.194
				c-0.712,1.565,1.43,4.354,3.95,5.439c2.803,1.209,6.006,1.562,8.884,0.907c0.06-0.013,0.116-0.032,0.177-0.044
				c0.059-0.016,0.118-0.024,0.178-0.038c2.873-0.674,5.596-2.397,7.586-4.712c0.598-0.698,1.07-1.546,1.391-2.408
				C813.687,361.994,807.219,364.094,801.243,361.946z"/>
			<path fill="#E4DB9A" d="M817.119,352.996c-1.139-0.939-2.211,1.001-3.514,2.263c-2.416,2.342-3.731,3.23-6.461,3.85
				c-0.062,0.014-0.296,0.068-0.354,0.083c-2.727,0.64-4.256,0.407-7.456-0.636c-1.627-0.53-3.338-1.696-4.038-0.685
				c1.547,1.791,3.561,3.219,5.946,4.076c5.976,2.148,12.443,0.048,16.106-4.737C817.982,355.493,818.004,353.724,817.119,352.996z"
				/>
			<path fill="#3C3541" d="M817.221,352.017l-0.037,0.038l1.005,0.987l1.709-1.745l-0.37-0.362
				C818.954,351.616,818.111,352.011,817.221,352.017z"/>
			<path fill="#CEAD8D" d="M819.527,350.935l-0.635-0.623l-1.672,1.705C818.111,352.011,818.954,351.616,819.527,350.935z"/>
		</g>
		<g>
			<path fill="#EE8865" d="M789.5,367.259c-0.116,0.041-0.234,0.077-0.349,0.112c1.388,0.688,3.042,0.843,4.622,0.302
				c3.146-1.077,4.822-4.5,3.744-7.645c-0.365-1.069-1.006-1.961-1.807-2.639C796.217,361.641,793.714,365.816,789.5,367.259z"/>
			<path fill="#F7BC61" d="M795.711,357.389c-1.564-1.323-3.76-1.819-5.839-1.107c-3.146,1.078-4.822,4.501-3.741,7.646
				c0.533,1.563,1.648,2.763,3.021,3.443c0.114-0.035,0.232-0.071,0.349-0.112C793.714,365.816,796.217,361.641,795.711,357.389z"/>
			<path fill="#536A1E" d="M789.513,354.683c0.133,0.507,0.368,0.876,0.368,0.876s1.018-0.604,1.254-1.595
				c0.115-0.481,0.023-0.964-0.102-1.331C790.997,353.537,790.422,354.371,789.513,354.683z"/>
			<path fill="#899C60" d="M790.732,351.975c0,0-1.021,0.604-1.256,1.594c-0.093,0.391-0.049,0.782,0.036,1.114
				c0.909-0.312,1.484-1.146,1.521-2.05C790.9,352.239,790.732,351.975,790.732,351.975z"/>
		</g>
		<g>
			<path fill="#F5E5E5" d="M791.43,373.821h15.223c3.986-2.686,6.654-6.042,6.721-11.411h-28.662
				C784.777,367.779,787.447,371.135,791.43,373.821z"/>
			<path fill="#E2D4D5" d="M799,362h-14.289c0.066,7,2.736,9,6.719,11H799V362z"/>
		</g>
	</g>
</g>
</svg>
