<?xml version="1.0" encoding="utf-8"?>
<!-- Generator: Adobe Illustrator 16.0.0, SVG Export Plug-In . SVG Version: 6.00 Build 0)  -->
<!DOCTYPE svg PUBLIC "-//W3C//DTD SVG 1.1//EN" "http://www.w3.org/Graphics/SVG/1.1/DTD/svg11.dtd">
<svg version="1.1" xmlns="http://www.w3.org/2000/svg" xmlns:xlink="http://www.w3.org/1999/xlink" x="0px" y="0px" width="1280px"
	 height="700px" viewBox="0 0 1280 700" enable-background="new 0 0 1280 700" xml:space="preserve">
<g id="Miscelaneas">
	<g>
		<g>
			<text transform="matrix(1 0 0 1 590.1025 606.5498)" fill="#AAE0DE" font-family="'NeoSansStd-Bold'" font-size="14.3717">(12)</text>
		</g>
	</g>
	<g>
		<g>
			<g>
				<path fill="none" stroke="#5BA4C2" stroke-width="0.75" stroke-miterlimit="10" d="M640.316,654c0,0,0-14.333,0-19.333
					c0-3.086,1.002-4.066,3.666-4.066s101.926,0,101.926,0c2.988,0,3.763-1.438,3.763-5.035c0-3.375-0.331-9.253-0.331-13.016
					c0-3.542,0.941-5.367,3.32-6.032v-0.222c-2.379-0.663-3.32-2.434-3.32-6.031c0-3.762,0.331-6.641,0.331-10.017"/>
			</g>
			<g>
				<path fill="none" stroke="#5BA4C2" stroke-width="0.75" stroke-miterlimit="10" d="M530.959,590.248
					c0,3.376,0.331,6.255,0.331,10.017c0,3.598-0.941,5.368-3.32,6.031v0.222c2.379,0.665,3.32,2.49,3.32,6.032
					c0,3.763-0.331,9.641-0.331,13.016c0,3.597,0.774,5.035,3.763,5.035c0,0,99.262,0,101.926,0s3.666,0.98,3.666,4.066
					c0,5,0,19.333,0,19.333"/>
			</g>
		</g>
		<g>
			<g>
				<path fill="#5BA4C2" d="M643.808,653.881l-0.002-0.008l-3.49-6.875v-0.017l-0.004,0.008l-0.004-0.008l-0.003,0.021l-3.662,6.781
					l-0.006,0.025c-0.343,0.594-0.547,1.281-0.558,2.014c-0.029,2.277,1.794,4.147,4.071,4.178c2.277,0.027,4.145-1.795,4.175-4.072
					C644.333,655.186,644.145,654.486,643.808,653.881z"/>
				<g>
					<g>
						<path fill="#72ADC8" d="M638.954,659.033c-0.021,0-0.045-0.002-0.068-0.008c-2.029-0.41-2.326-2.586-2.202-3.682
							c0.022-0.199,0.202-0.34,0.403-0.319c0.2,0.023,0.344,0.204,0.32,0.403c-0.011,0.105-0.254,2.504,1.623,2.883
							c0.197,0.039,0.324,0.232,0.285,0.43C639.28,658.916,639.125,659.035,638.954,659.033z"/>
					</g>
				</g>
			</g>
			<path fill="#72ADC8" d="M644.325,655.928c0.008-0.742-0.181-1.441-0.518-2.047l-0.002-0.008l-3.49-6.875v-0.017l-0.004,0.008
				l-0.004-0.008v13.011C642.512,659.936,644.296,658.152,644.325,655.928z"/>
			<g>
				<g>
					<path fill="#E2D4D5" d="M641.925,653.449l-0.758-2.032c-0.061-0.136-0.11-0.382,0.025-0.442s0.279,0.131,0.339,0.266
						l0.982,1.905c0.06,0.136,0.025,0.396-0.109,0.457C642.151,653.717,641.97,653.557,641.925,653.449z"/>
				</g>
				
					<ellipse transform="matrix(0.9968 -0.0795 0.0795 0.9968 -50.0093 53.1925)" fill="#E2D4D5" cx="642.623" cy="654.271" rx="0.393" ry="0.415"/>
			</g>
		</g>
		<g>
			<g>
				<path fill="#5BA4C2" d="M644.012,665.873l-0.001-0.004l-1.927-3.795v-0.01l-0.002,0.005l-0.002-0.005l-0.002,0.012l-2.021,3.742
					l-0.003,0.015c-0.189,0.327-0.302,0.707-0.308,1.111c-0.017,1.257,0.99,2.289,2.247,2.306c1.257,0.016,2.287-0.99,2.304-2.248
					C644.302,666.593,644.197,666.207,644.012,665.873z"/>
				<g>
					<g>
						<path fill="#72ADC8" d="M641.333,668.717c-0.013,0-0.025-0.002-0.038-0.004c-1.12-0.227-1.284-1.428-1.215-2.033
							c0.012-0.109,0.111-0.188,0.223-0.176c0.109,0.014,0.189,0.113,0.176,0.223c-0.006,0.059-0.14,1.382,0.896,1.592
							c0.108,0.021,0.179,0.127,0.157,0.236C641.513,668.652,641.427,668.718,641.333,668.717z"/>
					</g>
				</g>
			</g>
			<path fill="#72ADC8" d="M644.297,667.002c0.005-0.409-0.1-0.795-0.285-1.129l-0.001-0.004l-1.927-3.795v-0.01l-0.002,0.005
				l-0.002-0.005v7.182C643.296,669.215,644.281,668.23,644.297,667.002z"/>
			<g>
				<g>
					<path fill="#E2D4D5" d="M642.973,665.635l-0.419-1.122c-0.033-0.075-0.061-0.21,0.015-0.244
						c0.074-0.033,0.154,0.072,0.187,0.147l0.542,1.051c0.033,0.075,0.015,0.219-0.061,0.252
						C643.098,665.782,642.997,665.693,642.973,665.635z"/>
				</g>
				
					<ellipse transform="matrix(0.9971 -0.0765 0.0765 0.9971 -49.0854 51.1857)" fill="#E2D4D5" cx="643.358" cy="666.088" rx="0.217" ry="0.229"/>
			</g>
		</g>
	</g>
</g>
<g id="Cucharita">
	<g>
		<g>
			<path fill="#E2D4D5" d="M578.077,586.052c0,0-9.635-5.833-14.476-5.63c-8.714,0.365-12.004,7.849-13.484,10.004
				C549.669,591.075,578.077,586.052,578.077,586.052z"/>
		</g>
		<path fill="#F5E5E5" d="M563.631,580.422c-8.714,0.365-11.989,7.849-13.47,10.004c-0.225,0.326,15.556,5.616,12.839-1.955
			S563.756,580.417,563.631,580.422z"/>
		<g>
			<path fill="#E2D4D5" d="M623.114,570.468c-5.034,1.372-22.888,4.743-30.342,6.759c-7.866,2.124-12.492,6.405-14.541,8.756
				c-6.255,0.924-26.948,4.097-28.164,4.34c-1.568,0.315,5.573,5.584,15.557,3.95c6.068-0.994,11.798-5.136,13.823-7.265
				c1.753-1.762,6.697-7.236,19.206-9.728c16.102-3.208,22.019-3.952,29.521-6.358c2.311-0.74,3.869-1.531,5.193-3.581
				C634.53,565.543,630.344,568.496,623.114,570.468z"/>
			<path fill="#E2D4D5" d="M623.114,570.468c-5.034,1.372-22.888,4.743-30.342,6.759c-7.866,2.124-12.492,6.405-14.541,8.756
				c-6.255,0.924-26.948,4.097-28.164,4.34c-0.39,0.078-0.239,0.463,0.356,0.972c2.738,1.509,6.963,2.152,13.307,1.114
				c6.302-1.032,13.252-4.333,15.355-6.544c1.82-1.83,6.955-7.516,19.946-10.103c16.722-3.332,22.866-4.104,30.657-6.604
				c1.457-0.467,2.624-0.958,3.625-1.744c0.018-0.026,0.035-0.047,0.053-0.073C634.53,565.543,630.344,568.496,623.114,570.468z"/>
		</g>
	</g>
</g>
<g id="_x28_12_x29_">
</g>
<g id="Igual">
	<g>
		<g>
			<g>
				<path fill="#AAE0DE" d="M646.567,586.396H634.89c-0.202,0-0.367-0.092-0.367-0.294v-1.65c0-0.202,0.165-0.293,0.367-0.293
					h11.678c0.202,0,0.367,0.091,0.367,0.293v1.65C646.935,586.305,646.77,586.396,646.567,586.396z M646.567,591.092H634.89
					c-0.202,0-0.367-0.092-0.367-0.293v-1.65c0-0.203,0.165-0.294,0.367-0.294h11.678c0.202,0,0.367,0.091,0.367,0.294v1.65
					C646.935,591,646.77,591.092,646.567,591.092z"/>
			</g>
		</g>
	</g>
</g>
<g id="Coca">
	<g>
		<g>
			<path fill="#E2D4D5" d="M688.618,544.944l-4.105,0.051c0,3.051,0.733,1.962,0.733,3.43c0,2.896-0.392,5.191-0.978,7.193
				c-0.536,1.838-1.234,3.427-1.946,4.997h6.296V544.944z"/>
			<path fill="#5B2C40" d="M682.322,560.615c-1.173,2.59-2.381,5.13-2.943,8.66h9.239v-8.66H682.322z"/>
			<path fill="#7C5666" d="M688.618,569.275h9.241c-0.562-3.53-1.771-6.07-2.945-8.66h-6.296V569.275z"/>
			<path fill="#F5E5E5" d="M691.992,548.425c0-1.468,0.732-0.379,0.732-3.43l-4.106-0.051v15.671h6.296
				c-0.712-1.57-1.41-3.159-1.947-4.997C692.384,553.616,691.992,551.321,691.992,548.425z"/>
			<g>
				<g>
					<path fill="#7C5666" d="M696.96,584.065h-8.341v25.19l7.85,0.001c0.818,0,1.719-0.489,1.719-1.248c0-0.549,0-1.388,0-1.869
						c0-1.581,0-2.833,0-5.108C698.188,596.435,695.604,592.57,696.96,584.065z"/>
				</g>
				<g>
					<path fill="#5B2C40" d="M680.277,584.065h8.342v25.19l-7.85,0.001c-0.819,0-1.719-0.489-1.719-1.248c0-0.549,0-1.388,0-1.869
						c0-1.581,0-2.833,0-5.108C679.051,596.435,681.636,592.57,680.277,584.065z"/>
				</g>
				<path fill="#D1545F" d="M679.379,569.275c-0.53,3.312-0.494,7.494,0.672,13.41c0.092,0.479,0.16,0.929,0.227,1.38h8.342v-14.79
					H679.379z"/>
				<path fill="#E28E94" d="M697.86,569.275h-9.241v14.79h8.341c0.067-0.451,0.134-0.901,0.229-1.38
					C698.353,576.77,698.389,572.587,697.86,569.275z"/>
			</g>
		</g>
		<g>
			<g>
				<path fill="#D1545F" d="M684.641,544c-0.33,0-0.641,0.247-0.641,0.598V546h5v-2H684.641z"/>
			</g>
			<g>
				<path fill="#D76A74" d="M692.525,544c0.33,0,0.475,0.247,0.475,0.598V546h-4.263l-0.363-2H692.525z"/>
			</g>
		</g>
	</g>
</g>
</svg>
