<?xml version="1.0" encoding="utf-8"?>
<!-- Generator: Adobe Illustrator 16.0.0, SVG Export Plug-In . SVG Version: 6.00 Build 0)  -->
<!DOCTYPE svg PUBLIC "-//W3C//DTD SVG 1.1//EN" "http://www.w3.org/Graphics/SVG/1.1/DTD/svg11.dtd">
<svg version="1.1" id="Layer_1" xmlns="http://www.w3.org/2000/svg" xmlns:xlink="http://www.w3.org/1999/xlink" x="0px" y="0px"
	 width="1280px" height="700px" viewBox="0 0 1280 700" enable-background="new 0 0 1280 700" xml:space="preserve">
<g id="Miscelaneas">
	<g>
		<g>
			<g>
				<path fill="none" stroke="#5BA4C2" stroke-width="0.75" stroke-miterlimit="10" d="M786.671,111.752
					c0-3.376-0.331-6.255-0.331-10.017c0-3.598,0.941-5.368,3.32-6.031v-0.222c-2.379-0.665-3.32-2.49-3.32-6.032
					c0-3.763,0.331-9.641,0.331-13.016c0-3.598-0.773-5.035-3.763-5.035c0,0-136.263,0-138.926,0c-2.664,0-3.666-0.98-3.666-4.066"
					/>
			</g>
			<g>
				<path fill="none" stroke="#5BA4C2" stroke-width="0.75" stroke-miterlimit="10" d="M640.313,67.333
					c0,3.086-1.003,4.066-3.666,4.066c-2.664,0-140.864,0-140.864,0c-2.988,0-3.764,1.438-3.764,5.035
					c0,3.375,0.331,9.253,0.331,13.016c0,3.542-0.94,5.367-3.319,6.032v0.222c2.379,0.663,3.319,2.435,3.319,6.031
					c0,3.762-0.331,6.641-0.331,10.017"/>
			</g>
		</g>
	</g>
</g>
<g id="Texto">
	<g>
		<g enable-background="new    ">
			<path fill="#5BA4C2" d="M516.389,107.27c-0.588,0.154-1.415,0.252-2.143,0.252c-1.807,0-2.885-0.504-2.885-2.185v-0.225
				c0-0.504,0.056-1.051,0.994-2.157l0.854-1.009c0.378-0.447,0.645-0.7,0.645-1.148v-0.532c0-0.14,0.126-0.266,0.28-0.266h1.163
				c0.154,0,0.266,0.111,0.266,0.266v0.532c0,0.883-0.168,1.289-0.827,2.06l-0.896,1.036c-0.336,0.393-0.406,0.771-0.406,1.219
				v0.225c0,0.406,0.238,0.518,0.812,0.518c0.687,0,1.485-0.084,2.101-0.153c0.014,0,0.042,0,0.056,0
				c0.168,0,0.238,0.111,0.238,0.308v0.869C516.642,107.102,516.627,107.215,516.389,107.27z M515.339,99.09h-1.261
				c-0.154,0-0.28-0.126-0.28-0.279v-1.583c0-0.154,0.126-0.267,0.28-0.267h1.261c0.154,0,0.28,0.112,0.28,0.267v1.583
				C515.619,98.964,515.493,99.09,515.339,99.09z"/>
			<path fill="#5BA4C2" d="M524.539,96.078h-2.451v8.503c0,0.154-0.126,0.28-0.28,0.28h-1.387c-0.154,0-0.28-0.126-0.28-0.28v-8.503
				h-2.451c-0.154,0-0.28-0.098-0.28-0.252v-1.106c0-0.154,0.126-0.266,0.28-0.266h6.85c0.154,0,0.28,0.111,0.28,0.266v1.106
				C524.819,95.98,524.693,96.078,524.539,96.078z"/>
			<path fill="#5BA4C2" d="M527.924,104.973c-2.199,0-3.348-1.485-3.348-3.488v-1.135c0-2.003,1.148-3.487,3.348-3.487
				s3.348,1.484,3.348,3.487v1.135C531.272,103.488,530.124,104.973,527.924,104.973z M529.423,100.35
				c0-1.148-0.519-1.891-1.499-1.891s-1.499,0.742-1.499,1.891v1.135c0,1.148,0.518,1.892,1.499,1.892s1.499-0.743,1.499-1.892
				V100.35z"/>
			<path fill="#5BA4C2" d="M542.628,104.861h-1.289c-0.154,0-0.28-0.14-0.28-0.294v-4.763c0-1.079-0.224-1.358-1.009-1.358
				c-0.266,0-0.798,0.084-1.303,0.35c0.042,0.309,0.056,0.658,0.056,1.009v4.763c0,0.154-0.126,0.294-0.28,0.294h-1.289
				c-0.154,0-0.28-0.14-0.28-0.294v-4.763c0-1.079-0.182-1.358-0.966-1.358c-0.294,0-0.714,0.153-1.289,0.462v5.659
				c0,0.154-0.126,0.294-0.28,0.294h-1.289c-0.154,0-0.28-0.14-0.28-0.294v-7.326c0-0.154,0.126-0.28,0.28-0.28h1.219
				c0.154,0,0.28,0.126,0.28,0.28v0.294c0.588-0.378,1.177-0.672,2.003-0.672c0.799,0,1.317,0.238,1.639,0.63
				c0.714-0.392,1.345-0.63,2.311-0.63c1.905,0,2.325,1.303,2.325,2.941v4.763C542.908,104.721,542.782,104.861,542.628,104.861z"/>
			<path fill="#5BA4C2" d="M550.297,104.861h-1.19c-0.154,0-0.28-0.126-0.28-0.28v-0.224c-0.644,0.392-1.303,0.616-1.975,0.616
				c-1.163,0-2.423-0.448-2.423-2.34v-0.056c0-1.597,0.98-2.424,3.418-2.424h0.882v-0.616c0-0.91-0.406-1.134-1.232-1.134
				c-0.896,0-1.821,0.056-2.283,0.111c-0.028,0-0.056,0-0.07,0c-0.14,0-0.252-0.042-0.252-0.238v-0.896
				c0-0.153,0.084-0.252,0.266-0.294c0.56-0.112,1.373-0.224,2.339-0.224c1.989,0,3.082,0.882,3.082,2.675v5.043
				C550.578,104.735,550.452,104.861,550.297,104.861z M548.729,101.387h-0.882c-1.275,0-1.555,0.406-1.555,1.19v0.056
				c0,0.687,0.308,0.869,1.008,0.869c0.504,0,1.022-0.168,1.429-0.393V101.387z"/>
			<path fill="#5BA4C2" d="M556.176,98.431c-0.756,0-1.345,0.196-1.933,0.505v5.631c0,0.154-0.126,0.294-0.28,0.294h-1.289
				c-0.154,0-0.28-0.14-0.28-0.294v-7.326c0-0.154,0.126-0.28,0.28-0.28h1.219c0.154,0,0.28,0.126,0.28,0.28v0.294
				c0.687-0.532,1.443-0.672,2.003-0.672c0.154,0,0.28,0.126,0.28,0.28v1.008C556.457,98.305,556.331,98.431,556.176,98.431z"/>
			<path fill="#5BA4C2" d="M559.297,95.91h-1.359c-0.154,0-0.294-0.126-0.294-0.28v-1.232c0-0.154,0.14-0.28,0.294-0.28h1.359
				c0.154,0,0.28,0.126,0.28,0.28v1.232C559.578,95.784,559.451,95.91,559.297,95.91z M559.255,104.861h-1.289
				c-0.154,0-0.28-0.14-0.28-0.294v-7.326c0-0.154,0.126-0.28,0.28-0.28h1.289c0.154,0,0.28,0.126,0.28,0.28v7.326
				C559.535,104.721,559.409,104.861,559.255,104.861z"/>
			<path fill="#5BA4C2" d="M566.971,104.861h-1.19c-0.154,0-0.28-0.126-0.28-0.28v-0.224c-0.644,0.392-1.303,0.616-1.975,0.616
				c-1.163,0-2.423-0.448-2.423-2.34v-0.056c0-1.597,0.98-2.424,3.418-2.424h0.882v-0.616c0-0.91-0.406-1.134-1.232-1.134
				c-0.896,0-1.821,0.056-2.283,0.111c-0.028,0-0.056,0-0.07,0c-0.14,0-0.252-0.042-0.252-0.238v-0.896
				c0-0.153,0.084-0.252,0.266-0.294c0.56-0.112,1.373-0.224,2.339-0.224c1.989,0,3.082,0.882,3.082,2.675v5.043
				C567.251,104.735,567.125,104.861,566.971,104.861z M565.402,101.387h-0.882c-1.275,0-1.555,0.406-1.555,1.19v0.056
				c0,0.687,0.308,0.869,1.008,0.869c0.504,0,1.022-0.168,1.429-0.393V101.387z"/>
			<path fill="#5BA4C2" d="M571.632,104.973c-0.546,0-1.723-0.07-2.508-0.28c-0.168-0.042-0.266-0.154-0.266-0.322v-0.841
				c0-0.111,0.098-0.224,0.238-0.224c0.028,0,0.042,0,0.056,0c0.672,0.084,1.933,0.154,2.353,0.154c0.869,0,0.995-0.295,0.995-0.673
				c0-0.266-0.168-0.435-0.616-0.714l-1.919-1.177c-0.687-0.421-1.177-1.121-1.177-1.934c0-1.4,0.882-2.101,2.662-2.101
				c1.134,0,1.779,0.126,2.493,0.28c0.168,0.042,0.252,0.153,0.252,0.321v0.812c0,0.169-0.084,0.267-0.224,0.267
				c-0.028,0-0.042,0-0.056,0c-0.393-0.056-1.513-0.168-2.312-0.168c-0.672,0-0.966,0.154-0.966,0.588
				c0,0.225,0.21,0.364,0.56,0.574l1.835,1.121c1.177,0.714,1.345,1.415,1.345,2.129
				C574.377,104.007,573.467,104.973,571.632,104.973z"/>
		</g>
		<g enable-background="new    ">
			<path fill="#AAE0DE" d="M583.829,102.589v-6.883l-2.081,0.896c-0.08,0.032-0.144,0.049-0.192,0.049
				c-0.112,0-0.176-0.08-0.176-0.208v-1.825c0-0.112,0.048-0.176,0.16-0.224l2.897-1.361c0.112-0.048,0.208-0.063,0.368-0.063h1.44
				c0.176,0,0.304,0.128,0.304,0.304v9.316h2.129c0.176,0,0.32,0.128,0.32,0.304v1.648c0,0.176-0.144,0.32-0.32,0.32h-6.979
				c-0.176,0-0.32-0.145-0.32-0.32v-1.648c0-0.176,0.144-0.304,0.32-0.304H583.829z"/>
			<path fill="#AAE0DE" d="M597.366,98.89l-1.36,0.913c-1.36,0.912-2.321,1.601-2.321,2.721v0.064h5.058
				c0.176,0,0.32,0.128,0.32,0.304v1.648c0,0.176-0.144,0.32-0.32,0.32h-7.123c-0.176,0-0.32-0.145-0.32-0.32v-1.633
				c0-1.761,0.96-3.201,2.177-4.065l1.472-1.04c1.393-0.977,1.633-1.104,1.633-1.857c0-0.688-0.4-0.96-1.697-0.96
				c-0.976,0-2.177,0.112-3.153,0.208c-0.016,0-0.016,0-0.032,0c-0.176,0-0.288-0.144-0.288-0.32v-1.248
				c0-0.16,0.144-0.256,0.304-0.305c0.896-0.271,2.225-0.496,3.409-0.496c2.945,0,4.082,1.009,4.082,3.058
				C599.207,97.177,598.551,98.091,597.366,98.89z"/>
			<path fill="#AAE0DE" d="M611.142,104.765c-0.448,0.111-1.168,0.24-2.129,0.24c-2.257,0-3.729-1.441-3.729-4.05v-1.345
				c0-2.609,1.473-4.05,3.729-4.05c0.96,0,1.681,0.128,2.129,0.24c0.24,0.063,0.336,0.128,0.336,0.368v1.425
				c0,0.16-0.145,0.271-0.304,0.271c0,0-0.016,0-0.032,0c-0.592-0.063-1.041-0.111-1.953-0.111c-0.72,0-1.312,0.432-1.312,1.856
				v1.345c0,1.424,0.592,1.856,1.312,1.856c0.912,0,1.36-0.048,1.953-0.112c0.016,0,0.032,0,0.032,0c0.16,0,0.304,0.112,0.304,0.272
				v1.425C611.479,104.637,611.382,104.701,611.142,104.765z"/>
			<path fill="#AAE0DE" d="M620.663,104.861h-1.793c-0.176,0-0.32-0.145-0.32-0.32v-0.384c-0.88,0.624-1.584,0.832-2.609,0.832
				c-2.321,0-2.833-1.616-2.833-3.634v-5.33c0-0.176,0.16-0.336,0.336-0.336h1.937c0.176,0,0.32,0.16,0.32,0.336v5.33
				c0,1.121,0.208,1.489,1.185,1.489c0.464,0,0.96-0.225,1.505-0.513v-6.307c0-0.176,0.144-0.336,0.32-0.336h1.937
				c0.176,0,0.336,0.16,0.336,0.336v8.516C620.983,104.717,620.839,104.861,620.663,104.861z"/>
			<path fill="#AAE0DE" d="M628.518,104.765c-0.448,0.111-1.168,0.24-2.129,0.24c-2.257,0-3.729-1.441-3.729-4.05v-1.345
				c0-2.609,1.473-4.05,3.729-4.05c0.96,0,1.681,0.128,2.129,0.24c0.24,0.063,0.336,0.128,0.336,0.368v1.425
				c0,0.16-0.145,0.271-0.304,0.271c0,0-0.016,0-0.032,0c-0.592-0.063-1.041-0.111-1.953-0.111c-0.72,0-1.312,0.432-1.312,1.856
				v1.345c0,1.424,0.592,1.856,1.312,1.856c0.912,0,1.36-0.048,1.953-0.112c0.016,0,0.032,0,0.032,0c0.16,0,0.304,0.112,0.304,0.272
				v1.425C628.854,104.637,628.758,104.701,628.518,104.765z"/>
			<path fill="#AAE0DE" d="M638.023,104.861h-1.937c-0.176,0-0.32-0.16-0.32-0.336v-5.33c0-1.121-0.208-1.489-1.185-1.489
				c-0.464,0-0.96,0.225-1.505,0.513v6.307c0,0.176-0.144,0.336-0.32,0.336h-1.937c-0.176,0-0.336-0.16-0.336-0.336V92.904
				c0-0.176,0.144-0.32,0.32-0.32h1.953c0.176,0,0.32,0.145,0.32,0.32v3.378c0.816-0.528,1.489-0.721,2.449-0.721
				c2.321,0,2.833,1.616,2.833,3.634v5.33C638.359,104.701,638.199,104.861,638.023,104.861z"/>
			<path fill="#AAE0DE" d="M647.031,104.861h-1.793c-0.177,0-0.32-0.145-0.32-0.32v-0.256c-0.625,0.448-1.265,0.721-2.225,0.721
				c-1.393,0-2.738-0.673-2.738-2.754v-0.144c0-1.873,1.201-2.705,3.937-2.705h0.865v-0.576c0-0.913-0.448-1.104-1.201-1.104
				c-1.023,0-2.16,0.063-2.656,0.112h-0.08c-0.16,0-0.289-0.08-0.289-0.289V96.25c0-0.176,0.113-0.305,0.305-0.353
				c0.592-0.144,1.713-0.336,2.77-0.336c2.305,0,3.745,0.929,3.745,3.266v5.714C647.351,104.717,647.207,104.861,647.031,104.861z
				 M644.806,100.939h-0.913c-1.119,0-1.408,0.385-1.408,1.169v0.144c0,0.673,0.336,0.801,1.009,0.801
				c0.479,0,0.929-0.16,1.312-0.353V100.939z"/>
			<path fill="#AAE0DE" d="M654.053,97.706h-0.127c-0.785,0-1.473,0.24-2.065,0.561v6.259c0,0.176-0.144,0.336-0.319,0.336h-1.938
				c-0.176,0-0.336-0.16-0.336-0.336V96.01c0-0.176,0.145-0.32,0.32-0.32h1.904c0.176,0,0.32,0.145,0.32,0.32v0.32
				c0.592-0.496,1.393-0.769,2.161-0.769c0.176,0,0.319,0.145,0.319,0.32v1.521C654.293,97.546,654.197,97.706,654.053,97.706z"/>
			<path fill="#AAE0DE" d="M661.99,104.861h-1.793c-0.176,0-0.32-0.145-0.32-0.32v-0.256c-0.623,0.448-1.264,0.721-2.225,0.721
				c-1.393,0-2.736-0.673-2.736-2.754v-0.144c0-1.873,1.2-2.705,3.938-2.705h0.864v-0.576c0-0.913-0.448-1.104-1.2-1.104
				c-1.025,0-2.161,0.063-2.658,0.112h-0.08c-0.159,0-0.287-0.08-0.287-0.289V96.25c0-0.176,0.111-0.305,0.304-0.353
				c0.593-0.144,1.713-0.336,2.769-0.336c2.306,0,3.746,0.929,3.746,3.266v5.714C662.311,104.717,662.166,104.861,661.99,104.861z
				 M659.766,100.939h-0.912c-1.121,0-1.408,0.385-1.408,1.169v0.144c0,0.673,0.336,0.801,1.008,0.801
				c0.48,0,0.928-0.16,1.312-0.353V100.939z"/>
			<path fill="#AAE0DE" d="M671.366,104.589c-0.912,0.225-2.177,0.417-3.409,0.417c-2.594,0-4.018-1.505-4.018-4.098v-1.249
				c0-2.513,1.312-4.098,4.018-4.098c0.32,0,0.848,0.048,1.312,0.112v-2.77c0-0.176,0.145-0.32,0.32-0.32h1.937
				c0.177,0,0.337,0.145,0.337,0.32v11.221C671.863,104.381,671.799,104.493,671.366,104.589z M669.27,97.786
				c-0.385-0.048-0.928-0.08-1.312-0.08c-1.137,0-1.425,0.833-1.425,1.953v1.249c0,1.136,0.288,1.969,1.425,1.969
				c0.528,0,1.008-0.049,1.312-0.097V97.786z"/>
			<path fill="#AAE0DE" d="M680.534,104.861h-1.793c-0.177,0-0.32-0.145-0.32-0.32v-0.256c-0.624,0.448-1.265,0.721-2.225,0.721
				c-1.393,0-2.737-0.673-2.737-2.754v-0.144c0-1.873,1.201-2.705,3.938-2.705h0.865v-0.576c0-0.913-0.449-1.104-1.201-1.104
				c-1.024,0-2.16,0.063-2.657,0.112h-0.08c-0.159,0-0.288-0.08-0.288-0.289V96.25c0-0.176,0.112-0.305,0.305-0.353
				c0.592-0.144,1.713-0.336,2.769-0.336c2.306,0,3.745,0.929,3.745,3.266v5.714C680.854,104.717,680.71,104.861,680.534,104.861z
				 M678.309,100.939h-0.912c-1.12,0-1.408,0.385-1.408,1.169v0.144c0,0.673,0.336,0.801,1.008,0.801c0.48,0,0.929-0.16,1.312-0.353
				V100.939z"/>
			<path fill="#AAE0DE" d="M685.764,105.006c-0.88,0-2.096-0.129-2.912-0.353c-0.193-0.048-0.305-0.176-0.305-0.368v-1.297
				c0-0.16,0.111-0.304,0.305-0.304c0.016,0,0.047,0,0.063,0c0.864,0.112,2.209,0.224,2.722,0.224c0.768,0,0.943-0.208,0.943-0.624
				c0-0.24-0.144-0.416-0.592-0.672l-2.081-1.201c-0.896-0.512-1.425-1.328-1.425-2.368c0-1.617,1.072-2.481,3.281-2.481
				c1.266,0,2.033,0.16,2.85,0.368c0.191,0.048,0.305,0.176,0.305,0.368v1.297c0,0.191-0.113,0.304-0.272,0.304
				c-0.017,0-0.032,0-0.048,0c-0.465-0.063-1.842-0.208-2.657-0.208c-0.624,0-0.849,0.096-0.849,0.464
				c0,0.24,0.176,0.368,0.496,0.561l1.984,1.137c1.329,0.768,1.617,1.601,1.617,2.465
				C689.189,103.821,688.102,105.006,685.764,105.006z"/>
			<path fill="#AAE0DE" d="M702.117,104.589c-0.912,0.225-2.176,0.417-3.408,0.417c-2.594,0-4.018-1.505-4.018-4.098v-1.249
				c0-2.513,1.312-4.098,4.018-4.098c0.32,0,0.848,0.048,1.312,0.112v-2.77c0-0.176,0.144-0.32,0.32-0.32h1.936
				c0.177,0,0.337,0.145,0.337,0.32v11.221C702.614,104.381,702.55,104.493,702.117,104.589z M700.021,97.786
				c-0.385-0.048-0.929-0.08-1.312-0.08c-1.137,0-1.426,0.833-1.426,1.953v1.249c0,1.136,0.289,1.969,1.426,1.969
				c0.527,0,1.008-0.049,1.312-0.097V97.786z"/>
			<path fill="#AAE0DE" d="M711.957,101.084h-5.105v0.032c0,0.912,0.385,1.744,1.648,1.744c1.009,0,2.434-0.08,3.074-0.144
				c0.016,0,0.031,0,0.047,0c0.177,0,0.305,0.08,0.305,0.256v1.217c0,0.256-0.064,0.368-0.336,0.432
				c-1.025,0.256-1.889,0.385-3.281,0.385c-1.938,0-4.018-1.024-4.018-4.114v-1.12c0-2.577,1.504-4.21,4.049-4.21
				c2.625,0,3.954,1.793,3.954,4.21v0.928C712.294,100.939,712.166,101.084,711.957,101.084z M709.765,99.419
				c0-1.185-0.544-1.776-1.44-1.776c-0.881,0-1.473,0.608-1.473,1.776v0.064h2.913V99.419z"/>
			<path fill="#AAE0DE" d="M727.303,104.861h-2.242c-0.16,0-0.287-0.128-0.319-0.288l-0.577-2.625h-3.281l-0.576,2.625
				c-0.031,0.16-0.16,0.288-0.319,0.288h-2.241c-0.16,0-0.271-0.096-0.271-0.256c0-0.017,0.016-0.048,0.016-0.08l2.385-9.924
				c0.368-1.537,1.553-1.777,2.657-1.777s2.272,0.24,2.642,1.777l2.385,9.924c0,0.032,0.016,0.063,0.016,0.08
				C727.574,104.765,727.462,104.861,727.303,104.861z M722.74,95.338c-0.032-0.16-0.064-0.24-0.208-0.24s-0.192,0.08-0.224,0.24
				l-0.977,4.417h2.385L722.74,95.338z"/>
			<path fill="#AAE0DE" d="M735.109,104.861h-6.003c-0.288,0-0.544-0.24-0.544-0.528v-1.024c0-0.224,0.064-0.384,0.225-0.608
				l3.473-4.737c0.032-0.049,0.048-0.08,0.048-0.112c0-0.048-0.048-0.08-0.112-0.08h-3.217c-0.16,0-0.271-0.096-0.271-0.256V96.01
				c0-0.176,0.144-0.32,0.319-0.32h5.843c0.287,0,0.527,0.256,0.527,0.544v1.185c0,0.16-0.031,0.353-0.176,0.561l-3.312,4.53
				c-0.033,0.048-0.049,0.08-0.049,0.111c0,0.032,0.049,0.064,0.112,0.064h3.169c0.16,0,0.289,0.096,0.289,0.256v1.601
				C735.43,104.717,735.285,104.861,735.109,104.861z"/>
			<path fill="#AAE0DE" d="M744.63,104.861h-1.793c-0.176,0-0.32-0.145-0.32-0.32v-0.384c-0.88,0.624-1.585,0.832-2.608,0.832
				c-2.321,0-2.834-1.616-2.834-3.634v-5.33c0-0.176,0.16-0.336,0.336-0.336h1.938c0.176,0,0.32,0.16,0.32,0.336v5.33
				c0,1.121,0.208,1.489,1.184,1.489c0.465,0,0.961-0.225,1.506-0.513v-6.307c0-0.176,0.144-0.336,0.319-0.336h1.937
				c0.176,0,0.336,0.16,0.336,0.336v8.516C744.949,104.717,744.806,104.861,744.63,104.861z"/>
			<path fill="#AAE0DE" d="M752.484,104.765c-0.447,0.111-1.168,0.24-2.129,0.24c-2.256,0-3.729-1.441-3.729-4.05v-1.345
				c0-2.609,1.473-4.05,3.729-4.05c0.961,0,1.682,0.128,2.129,0.24c0.24,0.063,0.337,0.128,0.337,0.368v1.425
				c0,0.16-0.145,0.271-0.304,0.271c0,0-0.017,0-0.033,0c-0.592-0.063-1.04-0.111-1.952-0.111c-0.72,0-1.312,0.432-1.312,1.856
				v1.345c0,1.424,0.593,1.856,1.312,1.856c0.912,0,1.36-0.048,1.952-0.112c0.017,0,0.033,0,0.033,0
				c0.159,0,0.304,0.112,0.304,0.272v1.425C752.821,104.637,752.725,104.701,752.484,104.765z"/>
			<path fill="#AAE0DE" d="M761.205,104.861h-1.793c-0.176,0-0.32-0.145-0.32-0.32v-0.256c-0.623,0.448-1.264,0.721-2.225,0.721
				c-1.393,0-2.736-0.673-2.736-2.754v-0.144c0-1.873,1.2-2.705,3.938-2.705h0.864v-0.576c0-0.913-0.448-1.104-1.2-1.104
				c-1.025,0-2.161,0.063-2.658,0.112h-0.08c-0.159,0-0.287-0.08-0.287-0.289V96.25c0-0.176,0.111-0.305,0.304-0.353
				c0.593-0.144,1.713-0.336,2.769-0.336c2.306,0,3.746,0.929,3.746,3.266v5.714C761.525,104.717,761.381,104.861,761.205,104.861z
				 M758.98,100.939h-0.912c-1.121,0-1.408,0.385-1.408,1.169v0.144c0,0.673,0.336,0.801,1.008,0.801c0.48,0,0.928-0.16,1.312-0.353
				V100.939z"/>
			<path fill="#AAE0DE" d="M768.229,97.706H768.1c-0.783,0-1.473,0.24-2.064,0.561v6.259c0,0.176-0.145,0.336-0.32,0.336h-1.937
				c-0.176,0-0.336-0.16-0.336-0.336V96.01c0-0.176,0.144-0.32,0.32-0.32h1.904c0.177,0,0.32,0.145,0.32,0.32v0.32
				c0.593-0.496,1.393-0.769,2.161-0.769c0.176,0,0.32,0.145,0.32,0.32v1.521C768.469,97.546,768.372,97.706,768.229,97.706z"/>
		</g>
		<g enable-background="new    ">
			<path fill="#5BA4C2" d="M578.094,122.973c-0.336,0-0.826-0.028-1.345-0.099v2.479c0,0.154-0.126,0.28-0.28,0.28h-1.289
				c-0.154,0-0.28-0.126-0.28-0.28v-9.749c0-0.21,0.056-0.294,0.378-0.378c0.869-0.225,1.919-0.364,2.815-0.364
				c2.255,0,3.348,1.33,3.348,3.516v1.078C581.442,121.642,580.35,122.973,578.094,122.973z M579.593,118.379
				c0-1.148-0.294-2.003-1.499-2.003c-0.504,0-1.079,0.042-1.345,0.098v4.889c0.393,0.057,1.009,0.099,1.345,0.099
				c1.205,0,1.499-0.854,1.499-2.004V118.379z"/>
			<path fill="#5BA4C2" d="M588.554,122.861h-1.19c-0.154,0-0.28-0.126-0.28-0.28v-0.224c-0.645,0.392-1.303,0.616-1.975,0.616
				c-1.163,0-2.423-0.448-2.423-2.34v-0.056c0-1.597,0.98-2.424,3.418-2.424h0.882v-0.616c0-0.91-0.406-1.134-1.232-1.134
				c-0.896,0-1.821,0.056-2.283,0.111c-0.028,0-0.056,0-0.07,0c-0.14,0-0.252-0.042-0.252-0.238v-0.896
				c0-0.153,0.084-0.252,0.266-0.294c0.561-0.112,1.373-0.224,2.339-0.224c1.989,0,3.082,0.882,3.082,2.675v5.043
				C588.834,122.735,588.708,122.861,588.554,122.861z M586.985,119.387h-0.882c-1.275,0-1.555,0.406-1.555,1.19v0.056
				c0,0.687,0.308,0.869,1.008,0.869c0.504,0,1.022-0.168,1.429-0.393V119.387z"/>
			<path fill="#5BA4C2" d="M594.433,116.431c-0.756,0-1.345,0.196-1.933,0.505v5.631c0,0.154-0.126,0.294-0.28,0.294h-1.289
				c-0.154,0-0.28-0.14-0.28-0.294v-7.326c0-0.154,0.126-0.28,0.28-0.28h1.219c0.154,0,0.28,0.126,0.28,0.28v0.294
				c0.687-0.532,1.443-0.672,2.003-0.672c0.154,0,0.28,0.126,0.28,0.28v1.008C594.713,116.305,594.587,116.431,594.433,116.431z"/>
			<path fill="#5BA4C2" d="M601.14,122.861h-1.19c-0.154,0-0.28-0.126-0.28-0.28v-0.224c-0.645,0.392-1.303,0.616-1.975,0.616
				c-1.163,0-2.423-0.448-2.423-2.34v-0.056c0-1.597,0.98-2.424,3.418-2.424h0.882v-0.616c0-0.91-0.406-1.134-1.232-1.134
				c-0.896,0-1.821,0.056-2.283,0.111c-0.028,0-0.056,0-0.07,0c-0.14,0-0.252-0.042-0.252-0.238v-0.896
				c0-0.153,0.084-0.252,0.266-0.294c0.561-0.112,1.373-0.224,2.339-0.224c1.989,0,3.082,0.882,3.082,2.675v5.043
				C601.42,122.735,601.294,122.861,601.14,122.861z M599.571,119.387h-0.882c-1.275,0-1.555,0.406-1.555,1.19v0.056
				c0,0.687,0.308,0.869,1.008,0.869c0.504,0,1.022-0.168,1.429-0.393V119.387z"/>
			<path fill="#5BA4C2" d="M612.718,125.635h-1.289c-0.154,0-0.28-0.126-0.28-0.28v-2.479c-0.518,0.07-1.008,0.099-1.345,0.099
				c-2.255,0-3.348-1.331-3.348-3.517v-1.078c0-2.186,1.093-3.516,3.348-3.516c0.896,0,1.947,0.14,2.815,0.364
				c0.322,0.084,0.378,0.168,0.378,0.378v9.749C612.998,125.509,612.872,125.635,612.718,125.635z M611.149,116.473
				c-0.266-0.056-0.84-0.098-1.345-0.098c-1.205,0-1.499,0.854-1.499,2.003v1.078c0,1.149,0.294,2.004,1.499,2.004
				c0.336,0,0.953-0.042,1.345-0.099V116.473z"/>
			<path fill="#5BA4C2" d="M621.006,122.861h-1.289c-0.154,0-0.28-0.126-0.28-0.28v-0.322c-0.729,0.477-1.303,0.7-2.199,0.7
				c-0.701,0-1.317-0.182-1.723-0.588c-0.518-0.519-0.7-1.387-0.7-2.55v-4.566c0-0.153,0.126-0.294,0.28-0.294h1.289
				c0.154,0,0.28,0.141,0.28,0.294v4.566c0,0.701,0.056,1.107,0.322,1.345c0.196,0.169,0.435,0.253,0.869,0.253
				c0.518,0,1.19-0.351,1.583-0.561v-5.604c0-0.153,0.126-0.294,0.28-0.294h1.289c0.154,0,0.28,0.141,0.28,0.294v7.326
				C621.286,122.735,621.16,122.861,621.006,122.861z"/>
			<path fill="#5BA4C2" d="M624.755,113.91h-1.359c-0.154,0-0.294-0.126-0.294-0.28v-1.232c0-0.154,0.14-0.28,0.294-0.28h1.359
				c0.154,0,0.28,0.126,0.28,0.28v1.232C625.036,113.784,624.909,113.91,624.755,113.91z M624.713,122.861h-1.289
				c-0.154,0-0.28-0.14-0.28-0.294v-7.326c0-0.154,0.126-0.28,0.28-0.28h1.289c0.154,0,0.28,0.126,0.28,0.28v7.326
				C624.993,122.721,624.867,122.861,624.713,122.861z"/>
			<path fill="#5BA4C2" d="M631,122.875c-0.336,0.057-0.644,0.099-0.953,0.099c-1.583,0-2.227-0.351-2.227-2.228v-4.398
				l-1.317-0.196c-0.154-0.027-0.28-0.126-0.28-0.28v-0.63c0-0.154,0.126-0.28,0.28-0.28h1.317v-1.148
				c0-0.154,0.126-0.252,0.28-0.28l1.303-0.224c0.014,0,0.042,0,0.056,0c0.126,0,0.224,0.069,0.224,0.21v1.442h1.26
				c0.154,0,0.28,0.126,0.28,0.28v0.826c0,0.154-0.126,0.28-0.28,0.28h-1.26v4.398c0,0.7,0.042,0.784,0.546,0.784h0.743
				c0.182,0,0.294,0.07,0.294,0.21v0.883C631.267,122.763,631.183,122.847,631,122.875z"/>
			<path fill="#5BA4C2" d="M638.099,122.861h-1.19c-0.154,0-0.28-0.126-0.28-0.28v-0.224c-0.644,0.392-1.303,0.616-1.975,0.616
				c-1.163,0-2.423-0.448-2.423-2.34v-0.056c0-1.597,0.98-2.424,3.418-2.424h0.882v-0.616c0-0.91-0.406-1.134-1.232-1.134
				c-0.896,0-1.821,0.056-2.283,0.111c-0.028,0-0.056,0-0.07,0c-0.14,0-0.252-0.042-0.252-0.238v-0.896
				c0-0.153,0.084-0.252,0.266-0.294c0.56-0.112,1.373-0.224,2.339-0.224c1.989,0,3.082,0.882,3.082,2.675v5.043
				C638.379,122.735,638.253,122.861,638.099,122.861z M636.53,119.387h-0.882c-1.275,0-1.555,0.406-1.555,1.19v0.056
				c0,0.687,0.308,0.869,1.008,0.869c0.504,0,1.022-0.168,1.429-0.393V119.387z"/>
			<path fill="#5BA4C2" d="M643.979,116.431c-0.757,0-1.346,0.196-1.934,0.505v5.631c0,0.154-0.126,0.294-0.279,0.294h-1.29
				c-0.154,0-0.28-0.14-0.28-0.294v-7.326c0-0.154,0.126-0.28,0.28-0.28h1.219c0.154,0,0.279,0.126,0.279,0.28v0.294
				c0.688-0.532,1.443-0.672,2.004-0.672c0.154,0,0.279,0.126,0.279,0.28v1.008C644.258,116.305,644.133,116.431,643.979,116.431z"
				/>
			<path fill="#5BA4C2" d="M649.592,122.875c-0.336,0.057-0.644,0.099-0.952,0.099c-1.583,0-2.228-0.351-2.228-2.228v-4.398
				l-1.316-0.196c-0.154-0.027-0.279-0.126-0.279-0.28v-0.63c0-0.154,0.125-0.28,0.279-0.28h1.316v-1.148
				c0-0.154,0.127-0.252,0.281-0.28l1.303-0.224c0.014,0,0.041,0,0.056,0c0.126,0,0.224,0.069,0.224,0.21v1.442h1.261
				c0.154,0,0.28,0.126,0.28,0.28v0.826c0,0.154-0.126,0.28-0.28,0.28h-1.261v4.398c0,0.7,0.043,0.784,0.547,0.784h0.742
				c0.182,0,0.294,0.07,0.294,0.21v0.883C649.858,122.763,649.774,122.847,649.592,122.875z"/>
			<path fill="#5BA4C2" d="M657.293,119.555h-4.566v0.042c0,0.812,0.336,1.779,1.682,1.779c1.021,0,1.988-0.084,2.577-0.141
				c0.014,0,0.028,0,0.042,0c0.141,0,0.252,0.07,0.252,0.21v0.925c0,0.224-0.042,0.322-0.294,0.364
				c-0.911,0.168-1.457,0.238-2.718,0.238c-1.4,0-3.39-0.757-3.39-3.517v-1.036c0-2.186,1.219-3.558,3.362-3.558
				c2.156,0,3.334,1.471,3.334,3.558v0.784C657.574,119.429,657.489,119.555,657.293,119.555z M655.711,118.182
				c0-1.093-0.603-1.723-1.471-1.723c-0.869,0-1.5,0.616-1.5,1.723v0.057h2.971V118.182z"/>
			<path fill="#5BA4C2" d="M664.305,122.861h-1.303c-0.154,0-0.28-0.14-0.28-0.294v-10.086c0-0.153,0.126-0.28,0.28-0.28h1.303
				c0.154,0,0.266,0.127,0.266,0.28v10.086C664.57,122.721,664.459,122.861,664.305,122.861z"/>
			<path fill="#5BA4C2" d="M672.035,122.861h-1.191c-0.154,0-0.279-0.126-0.279-0.28v-0.224c-0.645,0.392-1.303,0.616-1.976,0.616
				c-1.163,0-2.423-0.448-2.423-2.34v-0.056c0-1.597,0.98-2.424,3.418-2.424h0.882v-0.616c0-0.91-0.406-1.134-1.232-1.134
				c-0.896,0-1.821,0.056-2.283,0.111c-0.028,0-0.056,0-0.07,0c-0.14,0-0.252-0.042-0.252-0.238v-0.896
				c0-0.153,0.084-0.252,0.267-0.294c0.56-0.112,1.372-0.224,2.339-0.224c1.989,0,3.081,0.882,3.081,2.675v5.043
				C672.314,122.735,672.189,122.861,672.035,122.861z M670.466,119.387h-0.882c-1.275,0-1.555,0.406-1.555,1.19v0.056
				c0,0.687,0.308,0.869,1.008,0.869c0.504,0,1.022-0.168,1.429-0.393V119.387z"/>
			<path fill="#5BA4C2" d="M680.195,122.973c-0.547,0-1.723-0.07-2.508-0.28c-0.168-0.042-0.266-0.154-0.266-0.322v-0.841
				c0-0.111,0.098-0.224,0.238-0.224c0.027,0,0.041,0,0.056,0c0.673,0.084,1.933,0.154,2.353,0.154c0.869,0,0.995-0.295,0.995-0.673
				c0-0.266-0.168-0.435-0.616-0.714l-1.919-1.177c-0.687-0.421-1.177-1.121-1.177-1.934c0-1.4,0.883-2.101,2.662-2.101
				c1.134,0,1.778,0.126,2.492,0.28c0.168,0.042,0.252,0.153,0.252,0.321v0.812c0,0.169-0.084,0.267-0.224,0.267
				c-0.028,0-0.042,0-0.056,0c-0.393-0.056-1.514-0.168-2.312-0.168c-0.673,0-0.966,0.154-0.966,0.588
				c0,0.225,0.209,0.364,0.56,0.574l1.835,1.121c1.177,0.714,1.345,1.415,1.345,2.129
				C682.94,122.007,682.03,122.973,680.195,122.973z"/>
			<path fill="#5BA4C2" d="M690.654,119.555h-4.566v0.042c0,0.812,0.336,1.779,1.682,1.779c1.021,0,1.988-0.084,2.577-0.141
				c0.014,0,0.028,0,0.042,0c0.141,0,0.252,0.07,0.252,0.21v0.925c0,0.224-0.042,0.322-0.294,0.364
				c-0.911,0.168-1.457,0.238-2.718,0.238c-1.4,0-3.39-0.757-3.39-3.517v-1.036c0-2.186,1.219-3.558,3.362-3.558
				c2.156,0,3.334,1.471,3.334,3.558v0.784C690.936,119.429,690.851,119.555,690.654,119.555z M689.072,118.182
				c0-1.093-0.603-1.723-1.471-1.723c-0.869,0-1.5,0.616-1.5,1.723v0.057h2.971V118.182z"/>
			<path fill="#5BA4C2" d="M698.396,122.609c-0.868,0.224-1.919,0.364-2.815,0.364c-2.255,0-3.348-1.331-3.348-3.517v-1.078
				c0-2.186,1.093-3.516,3.348-3.516c0.337,0,0.827,0.027,1.345,0.098v-2.479c0-0.153,0.126-0.28,0.28-0.28h1.288
				c0.154,0,0.281,0.127,0.281,0.28v9.75C698.775,122.441,698.719,122.525,698.396,122.609z M696.926,116.473
				c-0.393-0.056-1.008-0.098-1.345-0.098c-1.204,0-1.499,0.854-1.499,2.003v1.078c0,1.149,0.295,2.004,1.499,2.004
				c0.505,0,1.079-0.042,1.345-0.099V116.473z"/>
			<path fill="#5BA4C2" d="M704.387,116.908l-0.854,1.009c-0.379,0.448-0.645,0.7-0.645,1.148v0.532c0,0.14-0.127,0.266-0.28,0.266
				h-1.163c-0.154,0-0.266-0.111-0.266-0.266v-0.532c0-0.883,0.168-1.289,0.826-2.06l0.896-1.036
				c0.336-0.393,0.406-0.771,0.406-1.219v-0.225c0-0.336-0.238-0.518-0.812-0.518c-0.687,0-1.484,0.084-2.102,0.154
				c-0.027,0-0.041,0-0.056,0c-0.168,0-0.237-0.112-0.237-0.309v-0.868c0-0.225,0.014-0.337,0.252-0.393
				c0.588-0.154,1.414-0.252,2.143-0.252c1.807,0,2.886,0.504,2.886,2.185v0.225C705.382,115.255,705.326,115.802,704.387,116.908z
				 M702.664,122.861h-1.26c-0.154,0-0.281-0.112-0.281-0.267v-1.582c0-0.154,0.127-0.28,0.281-0.28h1.26
				c0.154,0,0.28,0.126,0.28,0.28v1.582C702.944,122.749,702.818,122.861,702.664,122.861z"/>
		</g>
	</g>
</g>
</svg>
