<?xml version="1.0" encoding="utf-8"?>
<!-- Generator: Adobe Illustrator 16.0.0, SVG Export Plug-In . SVG Version: 6.00 Build 0)  -->
<!DOCTYPE svg PUBLIC "-//W3C//DTD SVG 1.1//EN" "http://www.w3.org/Graphics/SVG/1.1/DTD/svg11.dtd">
<svg version="1.1" xmlns="http://www.w3.org/2000/svg" xmlns:xlink="http://www.w3.org/1999/xlink" x="0px" y="0px" width="1280px"
	 height="700px" viewBox="0 0 1280 700" style="enable-background:new 0 0 1280 700;" xml:space="preserve">
<g id="Corazon">
	<g>
		<g>
			<g>
				<g>
					<path style="fill:#485766;" d="M649.3,550.6h24.6c0,0,0-167.4,0-167.5h-24.6C648.9,403,649.3,550.6,649.3,550.6z"/>
				</g>
				<g>
					<g>
						<path style="fill:#E28E94;" d="M661.7,482h-7.5c-5.1,0-8.2-2.3-9.9-4.3c-3.9-4.6-3.6-11-3.3-13.1c0.1-2.8,0.4-22,0-34
							c-0.1-2.5-0.6-4.5-1.6-5.3c-0.7-0.6-1.6-0.7-1.9-0.7l-0.5,0.1l-0.2-0.1h-8.7v-12.4h8.4c1.7-0.1,6.6-0.1,10.8,3.5
							c3.7,3.2,5.7,8,5.9,14.4c0.4,13.2,0,34.1,0,34.9l0,0.4l-0.1,0.4c-0.2,1.2,0,3,0.4,3.6c0.1,0,0.3,0,0.5,0h7.5V482L661.7,482z"
							/>
						<path style="fill:#E28E94;" d="M637.1,446.4l0.5-0.1c0.3,0,1.2,0.1,1.9,0.7c0.9,0.8,1.5,2.8,1.6,5.3c0.1,1.7,0.1,3.5,0.1,5.4
							h12.4c0-2-0.1-4-0.1-5.8c-0.2-6.3-2.2-11.2-5.9-14.4c-4.2-3.6-9.1-3.7-10.8-3.6h-8.4v12.4h8.7L637.1,446.4z"/>
					</g>
				</g>
			</g>
			<path style="opacity:0.1;fill:#485766;" d="M663,383h-13.7c-0.4,19,0,151.4,0,166.2c0,0.3-0.1,0.6-0.1,0.9
				c0,4.3,5.5,8.1,12.4,8.1c0.5,0,1,0,1.4-0.1V383z"/>
			<g>
				<path style="fill:#EE959B;" d="M673.9,384c0,4.3-5.5,7.9-12.4,7.9c-6.8,0-12.4-3.5-12.4-7.9c0-4.3,5.5-7.9,12.4-7.9
					C668.4,376.1,673.9,379.7,673.9,384z"/>
				<path style="fill:#CC656F;" d="M667.9,384c0,2.1-2.8,3.8-6.4,3.8c-3.5,0-6.4-1.7-6.4-3.8c0-2.1,2.8-3.8,6.4-3.8
					C665.1,380.2,667.9,381.9,667.9,384z"/>
			</g>
		</g>
		<path style="fill:#485766;" d="M702.6,444h-22.4c-0.3,28,0.6,98.9,0.7,106.2c0,0.1,0,0.1,0,0.2c0,3.7,4.7,6.8,10.5,6.8
			c5.6,0,10.2-3.2,10.5-6.2h0.1L702.6,444z"/>
		<g>
			<path style="fill:#E28E94;" d="M721.3,422l7.9-15.3l-11-5.7l-6.9,13.3c-1.2-0.6-2.5-1.1-3.7-1.6l1.7-15.3l-12.3-1.3l-1.6,14.6
				c-1.1,0-2.3,0.1-3.5,0.2c-0.7,0.1-1.5,0.2-2.2,0.3l-2.4-14.5l-12.2,2l2.6,16.1c-14.7,7.1-20.4,21.7-21.4,30l18.4,2.1
				c0,0,0.6-4,3.1-8.2c3.4-5.6,8.6-8.7,15.9-9.4c15.6-1.6,19.3,13.6,19.7,15.5l17.4-4.4c-0.2-0.9-0.7-6.5-6.1-14.3
				C723.7,424.8,722.5,423.4,721.3,422z"/>
			<path style="opacity:0.2;fill:#E28E94;" d="M718.2,401.1l-6.9,13.3c-1.2-0.6-2.5-1.1-3.7-1.6l1.7-15.3l-12.3-1.3l-1.6,14.6
				c-1.1,0-2.3,0.1-3.5,0.2c-0.7,0.1-1.5,0.2-2.2,0.3l-2.4-14.5l-12.2,2l2.6,16.1c-14.7,7.1-20.4,21.7-21.4,30l6.6,0.7l3.1-1.2
				c0,0,5.4-25.3,27.5-25.3s25,15.7,25,15.7h10.8c-0.9-2.3-2.3-5.3-4.6-8.6c-1.1-1.6-2.2-3-3.5-4.3l7.9-15.3L718.2,401.1z"/>
		</g>
		<g>
			<path style="fill:#485766;" d="M748.6,434.8l8.1-8.1l-7.4-7.4l-6.8,6.8c0,0-41,0.3-48.2,0.3c-9.2,0-14.1,1.5-14.1,10.1
				c0,1.5-0.1,4.5-0.1,8.3h63.8l5.8,5.8l7.4-7.4L748.6,434.8z"/>
			<path style="opacity:0.2;fill:#485766;" d="M749.3,419.3l-6.8,6.8c0,0-41,0.3-48.2,0.3c-8.6,0-13.4,1.3-14,8.6h68.5l-0.2-0.2
				l8.1-8.1L749.3,419.3z"/>
		</g>
		<g>
			<path style="fill:#CC656F;" d="M756.2,487.8c0.6,22.4,0.5,30.6,0.3,39.1c-0.1,4-6.7,6.2-6.7,6.2s-23.5-0.9-46.7-0.9
				c-23.2,0-47.3-15-47.3-51.2c0-20.3,0.5-36.3,0.5-36.3l56.5-0.4C712.8,444.3,755.2,451.1,756.2,487.8z"/>
			<path style="opacity:0.2;fill:#CC656F;" d="M719.2,488.3c-1-36.7-43.5-43.5-43.5-43.5l-19.4,0.1c-0.1,1.9-0.5,17.2-0.5,36.1
				c0,36.1,24.1,51.2,47.3,51.2c5.6,0,11.2,0.1,16.5,0.1C719.6,517.7,719.5,500.4,719.2,488.3z"/>
		</g>
	</g>
</g>
<g id="Globa_Corazon">
	<g>
		<path style="fill:#D4EAE1;" d="M359.2,370.1c3.4,0,74.6,0.4,77.7,0.4c3.2,0,4.2-0.6,4.2-3.3v-67.9c0-2.7-1-3.4-4.2-3.4
			c-3,0-74.4,0.2-77.8,0.2c-3.2,0-4.6-0.1-5.2-3.1h-0.2c-0.6,3-2.2,3.1-5.4,3.1c-3.4,0-73.3-0.3-76.3-0.3c-3.2,0-4.8,0.7-4.8,3.4
			v67.9c0,2.7,1.6,3.4,4.8,3.4c3,0,72.8-0.4,76.1-0.4c3.2,0,5,1.9,5.6,2.9h0.2C354.4,372,355.9,370.1,359.2,370.1z"/>
		<g>
			<text transform="matrix(1 0 0 1 287.0752 322.2275)"><tspan x="0" y="0" style="fill:#5BA4C2; font-family:'NeoSansStd-Medium'; font-size:10;">El agua transporta nutrientes </tspan><tspan x="3.4" y="12" style="fill:#5BA4C2; font-family:'NeoSansStd-Medium'; font-size:10;">y oxígeno a todas las células</tspan><tspan x="10.4" y="24" style="fill:#5BA4C2; font-family:'NeoSansStd-Medium'; font-size:10;">en el cuerpo para respirar</tspan></text>
		</g>
	</g>
	<g>
		<polyline style="fill:none;stroke:#D4EAE1;stroke-miterlimit:10;" points="670,471.5 354.5,411.7 354.5,382 		"/>
		<g>
			<path style="fill:none;stroke:#D4EAE1;stroke-miterlimit:10;" d="M675.8,474.3c1.3-1.3,1.3-3.5,0-4.8c-1.3-1.3-3.5-1.3-4.8,0
				c-1.3,1.3-1.3,3.5,0,4.8C672.2,475.6,674.4,475.6,675.8,474.3z"/>
		</g>
	</g>
</g>
<g id="Circulo_Gota_Sangre">
	<g>
		<g>
			<circle style="fill:none;stroke:#D4EAE1;stroke-miterlimit:10;" cx="355.3" cy="241.1" r="37.8"/>
		</g>
	</g>
</g>
<g id="Gota_Sangre">
	<g>
		<g>
			<g>
				<g>
					<g>
						<path style="fill:#76B3CC;" d="M328.7,226.6L328.7,226.6l26.1-51.5V175l0,0.1l0-0.1l0,0.2l27.4,50.7l0,0.2
							c2.6,4.4,4.1,9.6,4.2,15.1c0.2,17-13.4,31-30.5,31.3c-17,0.2-31-13.4-31.2-30.5C324.8,236.4,326.2,231.2,328.7,226.6z"/>
					</g>
				</g>
			</g>
			<path style="fill:#8BBFD4;" d="M324.9,242c-0.1-5.6,1.4-10.8,3.9-15.3l0-0.1l26.1-51.4V175l0,0.1l0-0.1v97.4
				C338.4,271.9,325.1,258.6,324.9,242z"/>
		</g>
		<g>
			<g>
				<g>
					<g>
						<path style="fill:#D4EAE1;" d="M337.6,254.9c-0.7,0-1.7-0.1-2.1-0.2c-0.2,0-0.3-0.1-0.3-0.3c-0.2-2.3-0.4-4.7-0.5-7
							c0-0.2,0.1-0.3,0.3-0.3c0.3,0,1.3-0.1,2.1-0.1c2.1,0,3.4,1.2,3.5,3.3c0,0.5,0.1,1,0.1,1.6C340.8,253.9,339.7,255,337.6,254.9z
							 M339.1,250.2c-0.1-1.6-0.9-2-2-2c-0.4,0-0.7,0-0.9,0c0.1,1.8,0.2,3.6,0.4,5.4c0.2,0,0.5,0,0.9,0.1c1,0,1.8-0.3,1.7-1.9
							C339.2,251.2,339.1,250.7,339.1,250.2z"/>
						<path style="fill:#D4EAE1;" d="M346.6,255c-0.3,0-0.7,0.1-2,0.1c-1.4,0-2.4-0.4-2.5-2.2c-0.1-1.2-0.1-2.5-0.2-3.7
							c-0.1-1.8,1-2.2,2.4-2.2c1.3,0,1.7,0.1,2,0.2c0.2,0,0.2,0.1,0.2,0.2c0,0.2,0,0.5,0,0.7c0,0.1-0.1,0.2-0.2,0.2
							c-0.7,0-1.5,0-2.2,0c-0.6,0-0.8,0.2-0.8,0.9c0,0.4,0,0.8,0,1.2c1,0,1.9,0,2.9,0c0.1,0,0.2,0.1,0.2,0.2c0,0.3,0,0.5,0,0.8
							c0,0.1-0.1,0.2-0.2,0.2c-1,0-1.9,0-2.9,0c0,0.5,0,0.9,0.1,1.4c0,0.7,0.3,0.9,0.9,0.9c0.7,0,1.4,0,2.1,0c0.1,0,0.2,0.1,0.2,0.2
							c0,0.2,0,0.5,0,0.7C346.8,254.9,346.8,255,346.6,255z"/>
						<path style="fill:#D4EAE1;" d="M356.4,255.2c-0.4,0-0.7,0-1.1,0c-0.1,0-0.2-0.1-0.2-0.2c-0.2-0.7-0.3-1.4-0.5-2.1
							c-0.8,0-1.6,0-2.4,0c-0.2,0.7-0.3,1.4-0.4,2c0,0.1-0.1,0.2-0.2,0.2c-0.4,0-0.7,0-1.1,0c-0.1,0-0.2-0.1-0.2-0.2c0,0,0,0,0-0.1
							c0.5-2.2,1.1-4.5,1.6-6.7c0.2-1,1-1.1,1.5-1.1c0.5,0,1.2,0.1,1.5,1.1c0.6,2.3,1.2,4.5,1.7,6.8c0,0,0,0,0,0.1
							C356.6,255.1,356.5,255.2,356.4,255.2z M353.5,248.5c0-0.1-0.1-0.2-0.2-0.2c-0.1,0-0.1,0-0.2,0.2c-0.2,1.1-0.5,2.1-0.7,3.2
							c0.6,0,1.2,0,1.9,0C354.1,250.6,353.8,249.6,353.5,248.5z"/>
						<path style="fill:#D4EAE1;" d="M362.2,255c-0.5,0.1-1.2,0.2-2.3,0.2c-1.1,0-2.8-0.8-2.8-3.3c0-0.5,0-1,0-1.6
							c0-2.6,1.6-3.3,2.9-3.3c1,0,2,0.1,2.3,0.2c0.1,0,0.2,0.1,0.2,0.2c0,0.2,0,0.5,0,0.7c0,0.2,0,0.2-0.2,0.2c0,0,0,0,0,0
							c-0.5,0-1.2-0.1-2.3-0.1c-0.7,0-1.4,0.5-1.4,2c0,0.5,0,1,0,1.6c0,1.5,0.7,2,1.3,2c0.4,0,0.7,0,1,0c0-0.9,0-1.8,0.1-2.7
							c0-0.1,0.1-0.2,0.2-0.2c0.4,0,0.7,0,1.1,0c0.1,0,0.2,0.1,0.2,0.2c0,1.2-0.1,2.4-0.1,3.6C362.4,254.9,362.4,255,362.2,255z"/>
						<path style="fill:#D4EAE1;" d="M366.8,255.1c-1.7,0-2.8-0.7-2.8-3c0-1.6,0.1-3.2,0.1-4.8c0-0.1,0.1-0.2,0.2-0.2
							c0.4,0,0.7,0,1.1,0c0.1,0,0.2,0.1,0.2,0.2c0,1.6-0.1,3.2-0.1,4.8c0,1.2,0.2,1.8,1.4,1.8c1.1,0,1.5-0.6,1.5-1.8
							c0.1-1.6,0.1-3.2,0.2-4.8c0-0.1,0.1-0.2,0.2-0.2c0.4,0,0.7,0,1.1,0c0.1,0,0.2,0.1,0.2,0.2c0,1.6-0.1,3.2-0.2,4.8
							C369.7,254.3,368.5,255.1,366.8,255.1z"/>
						<path style="fill:#D4EAE1;" d="M376.5,254.7c-0.4,0-0.7,0-1.1,0c-0.1,0-0.2-0.1-0.2-0.2c-0.1-0.7-0.2-1.3-0.3-2
							c-0.8,0-1.6,0.1-2.4,0.1c-0.2,0.7-0.4,1.3-0.6,2c0,0.1-0.1,0.2-0.2,0.2c-0.4,0-0.7,0-1.1,0c-0.1,0-0.2-0.1-0.2-0.2
							c0,0,0,0,0-0.1c0.7-2.2,1.4-4.5,2.1-6.7c0.3-1,1.1-1.1,1.5-1.1c0.5,0,1.2,0.1,1.4,1c0.5,2.2,0.9,4.4,1.2,6.5c0,0,0,0,0,0.1
							C376.7,254.6,376.6,254.7,376.5,254.7z M374.2,248.3c0-0.1-0.1-0.2-0.2-0.2c-0.1,0-0.1,0-0.2,0.2c-0.3,1-0.6,2.1-0.9,3.2
							c0.6,0,1.2,0,1.9-0.1C374.6,250.4,374.4,249.4,374.2,248.3z"/>
					</g>
				</g>
				<g>
					<g>
						<path style="fill:#D4EAE1;" d="M339.7,244c-2.1,0-3.6-0.3-4.6-0.5c-0.4-0.1-0.5-0.2-0.5-0.5c0-0.7,0-1.3,0-2
							c0-0.3,0.2-0.5,0.4-0.5c0,0,0.1,0,0.1,0c1.1,0.2,2.9,0.3,4.2,0.3c2,0,2.9-0.8,2.9-3.3c0-0.1,0-0.1,0-0.2
							c-0.6,0.1-1.8,0.3-2.7,0.3c-3.1,0-5.7-1.2-5.5-4.9c0-0.1,0-0.1,0-0.2c0.2-3.4,2.6-5.8,6.4-5.9c3.6-0.1,5.9,2,5.8,6.6
							c0,1.2-0.1,2.3-0.1,3.5C346,242,343.6,244,339.7,244z M342.3,233.4c0.1-3.1-0.8-3.7-2.1-3.7c-1.2,0-2.2,0.6-2.4,2.9
							c0,0.1,0,0.1,0,0.2c-0.1,1.9,1,2.3,2.4,2.3c0.6,0,1.6-0.2,2.1-0.3C342.3,234.3,342.3,233.8,342.3,233.4z"/>
						<path style="fill:#D4EAE1;" d="M356.5,235.2c-0.7,0.4-1.3,0.9-2,1.3c-2,1.3-3.4,2.3-3.4,3.9c0,0,0,0.1,0,0.1
							c2.4,0,4.9,0,7.3,0c0.3,0,0.5,0.2,0.5,0.4c0,0.8,0,1.6,0,2.4c0,0.3-0.2,0.5-0.5,0.5c-3.4,0-6.9,0-10.3,0
							c-0.3,0-0.5-0.2-0.5-0.5c0-0.8,0-1.6,0-2.4c0-2.5,1.4-4.6,3.2-5.9c0.7-0.5,1.4-1,2.1-1.5c2-1.4,2.3-1.6,2.3-2.7
							c0-1-0.6-1.4-2.4-1.4c-1.4,0-3.1,0.2-4.5,0.3c0,0,0,0,0,0c-0.2,0-0.4-0.2-0.4-0.5c0-0.6,0-1.2,0.1-1.8c0-0.2,0.2-0.4,0.4-0.4
							c1.3-0.4,3.1-0.8,4.8-0.8c4.1,0,5.7,1.5,5.8,4.4C359.2,232.7,358.2,234.1,356.5,235.2z"/>
						<path style="fill:#D4EAE1;" d="M363.8,236.2c-2.2,0-3.4-1.3-3.5-4c0-0.6,0-1.2,0-1.7c0-2.7,1.1-3.9,3.2-3.9
							c2.1,0,3.4,1.3,3.5,4c0,0.6,0,1.1,0.1,1.7C367.2,235,366,236.2,363.8,236.2z M364.8,230.6c0-1.6-0.5-2-1.1-2
							c-0.7,0-1.1,0.4-1,1.9c0,0.6,0,1.2,0,1.7c0,1.6,0.5,2,1.1,2c0.7,0,1.1-0.4,1-2C364.8,231.7,364.8,231.1,364.8,230.6z
							 M375,227.5c-2.6,5.2-5.8,10.5-9,15.9c-0.2,0.3-0.3,0.5-0.5,0.5c-0.8,0-1.6,0-2.4,0c-0.2,0-0.3-0.1-0.3-0.3
							c0-0.1,0-0.1,0.1-0.2c3.2-5.4,6.4-10.8,9.1-16c0.2-0.3,0.3-0.4,0.5-0.4c0.8,0,1.5,0.1,2.3,0.1c0.2,0,0.2,0.1,0.2,0.2
							C375.1,227.3,375.1,227.4,375,227.5z M374.7,243.9c-2.2,0-3.4-1.2-3.4-3.9c0-0.6,0-1.1,0-1.7c0-2.6,1.2-3.9,3.3-3.9
							c2.2,0,3.5,1.3,3.5,3.9c0,0.6,0,1.1,0,1.7C378.1,242.6,376.8,243.9,374.7,243.9z M375.8,238.4c0-1.5-0.5-1.9-1.1-1.9
							c-0.7,0-1.1,0.4-1.1,1.9c0,0.6,0,1.1,0,1.7c0,1.5,0.4,1.9,1.1,1.9c0.7,0,1.1-0.4,1.1-1.9C375.8,239.5,375.8,238.9,375.8,238.4
							z"/>
					</g>
				</g>
			</g>
		</g>
	</g>
</g>
<g id="Banner_Sangre">
	<g>
		<g>
			<path style="fill:#E2D4D5;" d="M297.9,213.5c2.6,2.5,5.2,5.1,7.7,7.7c0.5,3.6,1,7.2,1.7,10.7c3.4-1.8,7-3.3,10.5-4.7
				c-2.4-6.4-4.9-12.9-7.3-19.3C306.3,209.5,302.1,211.4,297.9,213.5z"/>
			<path style="fill:#DBDBDB;" d="M401.9,204.7c-29.9-11.4-63-11.4-92.9,0c2.5,6.4,4.9,12.9,7.4,19.3c25.2-9.6,53-9.6,78.2,0
				C397,217.5,399.5,211.1,401.9,204.7z"/>
			<path style="fill:#E2D4D5;" d="M412.5,214.6c-2.6,2.5-5.2,5.1-7.7,7.8c-0.5,3.6-1.1,7.1-1.7,10.7c-3.4-1.7-6.9-3.3-10.4-4.6
				c2.4-6.4,4.9-12.9,7.3-19.3C404.3,210.7,408.4,212.5,412.5,214.6z"/>
		</g>
		<path style="fill:#F5E5E5;" d="M356.1,196.6c-15.7-0.1-31.4,2.7-46.4,8.3c2.5,6.6,4.9,13.1,7.4,19.7c12.5-4.7,25.7-7,38.9-7
			C356.1,210.6,356.1,203.6,356.1,196.6z"/>
		<g>
			<path style="fill:#CC656F;" d="M333.3,212.1c-0.3,0.1-1.1,0.4-1.6,0.5c-1.3,0.3-2.3,0.1-2.7-1.5c-0.4-1.7-0.8-3.5-1.2-5.2
				c0-0.1,0-0.2,0.2-0.2c0.3-0.1,0.7-0.2,1-0.2c0.1,0,0.2,0,0.2,0.2c0.4,1.7,0.8,3.5,1.1,5.2c0.1,0.7,0.4,0.8,1,0.7
				c0.6-0.1,1.2-0.2,1.8-0.4c0.1,0,0.2,0.1,0.2,0.2c0,0.2,0.1,0.4,0.1,0.6C333.5,212,333.5,212,333.3,212.1z"/>
			<path style="fill:#CC656F;" d="M337.9,211.4c-0.3,0-0.6,0.1-0.8,0.1c-0.1,0-0.2-0.1-0.2-0.2c0-0.1,0-0.1,0-0.2
				c-0.4,0.4-0.8,0.6-1.3,0.7c-0.8,0.1-1.8,0-2-1.4c0,0,0,0,0,0c-0.2-1.1,0.4-1.9,2.1-2.2c0.2,0,0.4-0.1,0.6-0.1
				c0-0.1,0-0.3-0.1-0.4c-0.1-0.7-0.4-0.8-1-0.7c-0.7,0.1-1.3,0.3-1.6,0.4c0,0,0,0-0.1,0c-0.1,0-0.2,0-0.2-0.1
				c0-0.2-0.1-0.4-0.1-0.6c0-0.1,0-0.2,0.2-0.2c0.4-0.2,1-0.3,1.7-0.5c1.5-0.2,2.4,0.3,2.6,1.6c0.2,1.2,0.4,2.4,0.5,3.6
				C338.1,211.2,338,211.3,337.9,211.4z M336.4,209c-0.2,0-0.4,0.1-0.6,0.1c-0.9,0.2-1.1,0.5-1,1c0,0,0,0,0,0
				c0.1,0.5,0.3,0.6,0.8,0.5c0.4-0.1,0.7-0.2,1-0.5C336.5,209.9,336.4,209.5,336.4,209z"/>
			<path style="fill:#CC656F;" d="M343,210.8c-0.7,0.1-1.3,0.1-1.8,0c-0.1,0-0.2-0.1-0.2-0.2c0-0.2-0.1-0.5-0.1-0.7
				c0-0.1,0.1-0.2,0.2-0.2c0,0,0,0,0,0c0.4,0,1.4-0.1,1.8-0.1c0.9-0.1,1.1-0.4,1.1-1c0-0.4-0.2-0.6-1-0.9c-0.5-0.2-0.9-0.4-1.4-0.7
				c-1-0.4-1.3-1-1.4-1.7c-0.1-1.1,0.4-2,2.4-2.2c0.7-0.1,1.7-0.1,2,0c0.1,0,0.2,0.1,0.2,0.2c0,0.3,0,0.5,0.1,0.8
				c0,0.1-0.1,0.2-0.2,0.2c0,0,0,0,0,0c-0.7,0-1.4,0-2.1,0.1c-0.8,0.1-1.1,0.4-1,0.8c0,0.3,0.2,0.5,0.9,0.8c0.4,0.2,0.9,0.4,1.3,0.6
				c1.2,0.5,1.5,1.1,1.6,1.9C345.5,209.4,344.9,210.6,343,210.8z"/>
			<path style="fill:#CC656F;" d="M350.2,210.1c-0.3,0-0.6,0-0.8,0c-0.1,0-0.2-0.1-0.2-0.2c0-0.1,0-0.1,0-0.2
				c-0.4,0.3-0.9,0.5-1.4,0.5c-0.8,0.1-1.7-0.2-1.8-1.6c0,0,0,0,0,0c-0.1-1.2,0.6-1.8,2.3-1.9c0.2,0,0.4,0,0.6,0c0-0.1,0-0.3,0-0.4
				c0-0.7-0.3-0.8-1-0.8c-0.7,0-1.3,0.1-1.7,0.2c0,0,0,0-0.1,0c-0.1,0-0.2,0-0.2-0.2c0-0.2,0-0.4-0.1-0.7c0-0.1,0-0.2,0.2-0.2
				c0.4-0.1,1-0.2,1.7-0.3c1.5-0.1,2.3,0.5,2.4,1.8c0.1,1.2,0.1,2.4,0.2,3.7C350.4,210,350.3,210.1,350.2,210.1z M348.9,207.7
				c-0.2,0-0.4,0-0.6,0c-0.9,0.1-1.1,0.4-1.1,0.9c0,0,0,0,0,0c0,0.5,0.3,0.6,0.8,0.6c0.4,0,0.7-0.2,1-0.3
				C349,208.5,349,208.1,348.9,207.7z"/>
			<path style="fill:#CC656F;" d="M355.7,210c-0.3,0-0.6,0-0.9,0c-0.1,0-0.2-0.1-0.2-0.2c0-1.1,0-2.2,0-3.3c0-0.9-0.1-1.1-0.9-1.1
				c-0.4,0-0.7,0.2-1.2,0.4c0,1.4,0.1,2.7,0.1,4.1c0,0.1-0.1,0.2-0.2,0.2c-0.3,0-0.6,0-0.9,0c-0.1,0-0.2-0.1-0.2-0.2
				c-0.1-1.8-0.1-3.6-0.2-5.3c0-0.1,0.1-0.2,0.2-0.2c0.3,0,0.6,0,0.9,0c0.1,0,0.2,0.1,0.2,0.2c0,0.1,0,0.1,0,0.2
				c0.6-0.4,1-0.5,1.7-0.5c1.5,0,1.8,1,1.8,2.3c0,1.1,0,2.2,0,3.3C355.9,209.9,355.8,210,355.7,210z"/>
			<path style="fill:#CC656F;" d="M361.7,205.4c-0.1,0-0.2,0.1-0.3,0.1c0.2,0.2,0.2,0.5,0.2,0.8c0,0,0,0,0,0.1
				c-0.1,1.3-1,1.8-2.5,1.8c-0.5,0-0.9-0.1-1.1-0.2c-0.1,0.1-0.2,0.2-0.2,0.3c0,0.2,0.1,0.3,0.3,0.3c0.4,0.1,0.8,0.2,1.2,0.3
				c1.3,0.4,2.2,0.6,2.2,1.7c0,0,0,0,0,0.1c-0.1,1-0.8,1.6-2.5,1.5c-1.6,0-2.4-0.7-2.4-1.7c0,0,0-0.1,0-0.1c0-0.4,0.2-0.8,0.5-1.1
				c-0.3-0.2-0.4-0.6-0.4-0.9c0,0,0,0,0,0c0-0.3,0.1-0.6,0.4-0.8c-0.3-0.3-0.4-0.7-0.4-1.2c0,0,0,0,0-0.1c0-1,0.7-1.9,2.5-1.8
				c0.8,0,1.6,0.1,2.4,0.1c0.2,0,0.3,0.1,0.3,0.3c0,0.1,0,0.3,0,0.4C361.9,205.3,361.8,205.3,361.7,205.4z M360.2,210.5
				c0-0.2-0.1-0.4-1.1-0.7c-0.3-0.1-0.6-0.2-0.9-0.2c-0.2,0.2-0.3,0.3-0.3,0.7c0,0,0,0.1,0,0.1c0,0.4,0.2,0.7,1.2,0.7
				C360,211.2,360.2,211,360.2,210.5C360.2,210.6,360.2,210.5,360.2,210.5z M360.2,206.3c0-0.5-0.2-0.9-1.1-0.9
				c-0.9,0-1.1,0.4-1.1,0.8c0,0,0,0.1,0,0.1c0,0.4,0.1,0.8,1.1,0.8C360,207.1,360.2,206.9,360.2,206.3
				C360.2,206.3,360.2,206.3,360.2,206.3z"/>
			<path style="fill:#CC656F;" d="M365.2,205.7c-0.6,0-1,0.1-1.4,0.3c-0.1,1.4-0.2,2.7-0.3,4.1c0,0.1-0.1,0.2-0.2,0.2
				c-0.3,0-0.6,0-0.9-0.1c-0.1,0-0.2-0.1-0.2-0.2c0.1-1.8,0.2-3.5,0.3-5.3c0-0.1,0.1-0.2,0.2-0.2c0.3,0,0.6,0,0.9,0.1
				c0.1,0,0.2,0.1,0.2,0.2c0,0.1,0,0.1,0,0.2c0.5-0.4,1.1-0.4,1.5-0.4c0.1,0,0.2,0.1,0.2,0.2c0,0.2,0,0.5-0.1,0.7
				C365.4,205.7,365.3,205.7,365.2,205.7z"/>
			<path style="fill:#CC656F;" d="M369.9,208.5c-1.1-0.1-2.2-0.3-3.3-0.4c0,0,0,0,0,0c-0.1,0.6,0.1,1.3,1.1,1.4
				c0.7,0.1,1.4,0.1,1.8,0.1c0,0,0,0,0,0c0.1,0,0.2,0.1,0.2,0.2c0,0.2-0.1,0.4-0.1,0.7c0,0.2-0.1,0.2-0.2,0.2c-0.7,0-1,0.1-1.9,0
				c-1-0.1-2.3-0.8-2.2-2.8c0-0.3,0-0.5,0.1-0.8c0.1-1.6,1.1-2.5,2.7-2.3c1.6,0.2,2.3,1.3,2.1,2.8c0,0.2,0,0.4-0.1,0.6
				C370.1,208.4,370,208.5,369.9,208.5z M368.9,207.4c0.1-0.8-0.3-1.3-0.9-1.4c-0.6-0.1-1.1,0.3-1.2,1.1c0,0,0,0,0,0
				C367.4,207.3,368.2,207.3,368.9,207.4C368.9,207.4,368.9,207.4,368.9,207.4z"/>
			<path style="fill:#CC656F;" d="M377.4,209.6c-1.1-0.2-2.2-0.4-3.3-0.6c0,0,0,0,0,0c-0.1,0.6,0,1.3,1,1.5c0.7,0.1,1.4,0.2,1.8,0.2
				c0,0,0,0,0,0c0.1,0,0.2,0.1,0.2,0.2c0,0.2-0.1,0.4-0.1,0.7c0,0.2-0.1,0.2-0.3,0.2c-0.7,0-1,0-1.9-0.2c-1-0.2-2.3-0.9-2-2.9
				c0-0.2,0.1-0.5,0.1-0.7c0.2-1.6,1.3-2.4,2.8-2.2c1.6,0.3,2.2,1.5,2,3c0,0.2-0.1,0.4-0.1,0.6C377.6,209.6,377.5,209.7,377.4,209.6
				z M376.4,208.5c0.1-0.8-0.2-1.3-0.9-1.4c-0.6-0.1-1.2,0.3-1.3,1.1c0,0,0,0,0,0C375,208.2,375.7,208.4,376.4,208.5
				C376.4,208.5,376.4,208.5,376.4,208.5z"/>
			<path style="fill:#CC656F;" d="M379.6,212.6c-0.4-0.1-1.2-0.3-1.7-0.6c-0.1-0.1-0.2-0.1-0.1-0.3c0-0.2,0.1-0.4,0.1-0.6
				c0-0.1,0.1-0.1,0.2-0.1c0,0,0,0,0,0c0.5,0.2,1.3,0.4,1.6,0.4c0.6,0.1,0.7-0.1,0.8-0.3c0-0.2-0.1-0.3-0.3-0.6
				c-0.4-0.4-0.8-0.7-1.2-1.1c-0.4-0.4-0.7-1-0.6-1.5c0.2-1,0.9-1.4,2.2-1.1c0.8,0.2,1.3,0.4,1.8,0.6c0.1,0.1,0.2,0.2,0.1,0.3
				c0,0.2-0.1,0.4-0.1,0.6c0,0.1-0.1,0.2-0.2,0.2c0,0,0,0,0,0c-0.3-0.1-1.1-0.4-1.6-0.5c-0.5-0.1-0.7,0-0.8,0.3
				c0,0.2,0.1,0.3,0.3,0.5c0.4,0.4,0.8,0.7,1.1,1.1c0.7,0.7,0.7,1.2,0.6,1.7C381.6,212.4,380.9,212.9,379.6,212.6z"/>
		</g>
	</g>
</g>
</svg>
