<?xml version="1.0" encoding="utf-8"?>
<!-- Generator: Adobe Illustrator 16.0.0, SVG Export Plug-In . SVG Version: 6.00 Build 0)  -->
<!DOCTYPE svg PUBLIC "-//W3C//DTD SVG 1.1//EN" "http://www.w3.org/Graphics/SVG/1.1/DTD/svg11.dtd">
<svg version="1.1" id="Layer_1" xmlns="http://www.w3.org/2000/svg" xmlns:xlink="http://www.w3.org/1999/xlink" x="0px" y="0px"
	 width="1280px" height="700px" viewBox="0 0 1280 700" enable-background="new 0 0 1280 700" xml:space="preserve">
<g id="Miscelaneas">
	<g>
		<g>
			<g>
				<g>
					<rect x="550.3" y="629.5" fill="#5BA4C2" width="17.9" height="2.7"/>
					<rect x="711.2" y="629.5" fill="#5BA4C2" width="17.899" height="2.7"/>
				</g>
			</g>
		</g>
	</g>
</g>
<g id="Titular">
	<g>
		<g enable-background="new    ">
			<path fill="#5BA4C2" d="M578.807,636.634c-1.302,0-2.698-0.126-3.341-0.235c-0.298-0.048-0.455-0.188-0.455-0.55V625.48
				c0-0.36,0.157-0.502,0.455-0.549c0.644-0.109,2.04-0.235,3.341-0.235c3.122,0,5.004,1.647,5.004,4.957v2.023
				C583.811,634.986,581.929,636.634,578.807,636.634z M581.129,629.653c0-2.118-0.91-2.683-2.322-2.683
				c-0.392,0-0.894,0.016-1.114,0.031v7.325c0.22,0.016,0.722,0.032,1.114,0.032c1.412,0,2.322-0.565,2.322-2.683V629.653z"/>
			<path fill="#5BA4C2" d="M592.513,636.429c-0.549,0.078-1.349,0.204-3.043,0.204c-2.023,0-3.812-0.519-3.812-3.373v-5.208
				c0-2.854,1.804-3.356,3.828-3.356c1.694,0,2.479,0.126,3.027,0.204c0.22,0.031,0.314,0.109,0.314,0.313v1.459
				c0,0.173-0.142,0.313-0.314,0.313h-3.184c-0.737,0-1.004,0.251-1.004,1.066v1.428h4.062c0.172,0,0.313,0.142,0.313,0.313v1.49
				c0,0.173-0.141,0.313-0.313,0.313h-4.062v1.663c0,0.815,0.267,1.066,1.004,1.066h3.184c0.172,0,0.314,0.142,0.314,0.314v1.458
				C592.827,636.303,592.733,636.398,592.513,636.429z"/>
			<path fill="#5BA4C2" d="M598.534,636.634c-1.036,0-2.259-0.079-2.871-0.188c-0.627-0.11-0.863-0.313-0.863-1.02v-9.537
				c0-0.706,0.22-0.926,0.831-1.02c0.534-0.079,1.804-0.173,2.808-0.173c2.964,0,4.957,0.784,4.957,3.278v0.282
				c0,1.02-0.486,1.898-1.317,2.306c0.831,0.408,1.396,1.239,1.396,2.322v0.235C603.475,635.881,601.248,636.634,598.534,636.634z
				 M600.809,628.147c0-0.863-0.549-1.255-2.165-1.255c-0.251,0-0.972,0-1.192,0.016v2.714h1.757c1.239,0,1.6-0.565,1.6-1.239
				V628.147z M600.871,632.885c0-0.753-0.408-1.396-1.663-1.396h-1.757v2.934c0.251,0,1.066,0.016,1.286,0.016
				c1.616,0,2.133-0.502,2.133-1.381V632.885z"/>
			<path fill="#5BA4C2" d="M612.099,636.429c-0.549,0.078-1.349,0.204-3.043,0.204c-2.023,0-3.812-0.519-3.812-3.373v-5.208
				c0-2.854,1.804-3.356,3.828-3.356c1.694,0,2.479,0.126,3.027,0.204c0.22,0.031,0.314,0.109,0.314,0.313v1.459
				c0,0.173-0.142,0.313-0.314,0.313h-3.184c-0.737,0-1.004,0.251-1.004,1.066v1.428h4.062c0.172,0,0.313,0.142,0.313,0.313v1.49
				c0,0.173-0.141,0.313-0.313,0.313h-4.062v1.663c0,0.815,0.267,1.066,1.004,1.066h3.184c0.172,0,0.314,0.142,0.314,0.314v1.458
				C612.413,636.303,612.319,636.398,612.099,636.429z"/>
			<path fill="#5BA4C2" d="M624.723,636.492h-2.07c-0.141,0-0.251-0.142-0.251-0.313v-6.541c0-0.11-0.047-0.126-0.079-0.126
				c-0.047,0-0.079,0.031-0.125,0.11l-1.412,2.588c-0.11,0.188-0.267,0.267-0.471,0.267h-1.255c-0.204,0-0.361-0.078-0.471-0.267
				l-1.412-2.588c-0.047-0.079-0.079-0.11-0.125-0.11c-0.031,0-0.079,0.016-0.079,0.126v6.541c0,0.172-0.11,0.313-0.251,0.313h-2.07
				c-0.125,0-0.267-0.047-0.267-0.22v-10.901c0-0.33,0.235-0.533,0.564-0.533h1.475c0.33,0,0.549,0.156,0.69,0.423l2.4,4.471
				c0.062,0.126,0.109,0.204,0.172,0.204s0.11-0.078,0.172-0.204l2.4-4.471c0.141-0.267,0.36-0.423,0.69-0.423h1.475
				c0.329,0,0.564,0.219,0.564,0.549v10.886C624.99,636.445,624.849,636.492,624.723,636.492z"/>
			<path fill="#5BA4C2" d="M631.559,636.634c-2.588,0-4.643-1.396-4.643-5.036v-1.866c0-3.639,2.055-5.035,4.643-5.035
				c2.588,0,4.643,1.396,4.643,5.035v1.866C636.202,635.237,634.146,636.634,631.559,636.634z M633.503,629.731
				c0-1.882-0.627-2.683-1.945-2.683c-1.318,0-1.93,0.801-1.93,2.683v1.866c0,1.883,0.612,2.683,1.93,2.683
				c1.317,0,1.945-0.8,1.945-2.683V629.731z"/>
			<path fill="#5BA4C2" d="M641.312,636.634c-1.239,0-2.165-0.142-2.965-0.346c-0.157-0.047-0.313-0.141-0.313-0.313v-1.537
				c0-0.22,0.125-0.298,0.282-0.298c0.016,0,0.031,0,0.047,0c0.643,0.062,2.369,0.188,2.98,0.188c1.083,0,1.396-0.345,1.396-1.098
				c0-0.455-0.22-0.706-1.036-1.192l-2.164-1.286c-1.459-0.862-1.851-1.851-1.851-2.996c0-1.726,0.973-3.059,4.015-3.059
				c1.146,0,2.73,0.188,3.326,0.345c0.125,0.031,0.235,0.11,0.235,0.283v1.584c0,0.141-0.063,0.267-0.267,0.267c0,0-0.016,0-0.031,0
				c-0.439-0.031-2.26-0.173-3.326-0.173c-0.894,0-1.223,0.267-1.223,0.832c0,0.438,0.204,0.643,1.051,1.098l2.008,1.082
				c1.631,0.879,2.117,1.914,2.117,3.185C645.594,634.861,644.496,636.634,641.312,636.634z"/>
			<path fill="#5BA4C2" d="M658.813,627.049h-2.542v9.13c0,0.172-0.141,0.313-0.312,0.313h-2.056c-0.173,0-0.313-0.142-0.313-0.313
				v-9.13h-2.557c-0.173,0-0.314-0.125-0.314-0.298v-1.615c0-0.173,0.142-0.298,0.314-0.298h7.78c0.173,0,0.329,0.125,0.329,0.298
				v1.615C659.143,626.924,658.986,627.049,658.813,627.049z"/>
			<path fill="#5BA4C2" d="M664.536,636.634c-2.589,0-4.644-1.396-4.644-5.036v-1.866c0-3.639,2.055-5.035,4.644-5.035
				c2.588,0,4.644,1.396,4.644,5.035v1.866C669.18,635.237,667.124,636.634,664.536,636.634z M666.48,629.731
				c0-1.882-0.627-2.683-1.944-2.683s-1.93,0.801-1.93,2.683v1.866c0,1.883,0.612,2.683,1.93,2.683s1.944-0.8,1.944-2.683V629.731z"
				/>
			<path fill="#5BA4C2" d="M681.441,636.492h-2.07c-0.141,0-0.25-0.142-0.25-0.313v-6.541c0-0.11-0.048-0.126-0.079-0.126
				c-0.047,0-0.079,0.031-0.126,0.11l-1.411,2.588c-0.11,0.188-0.267,0.267-0.471,0.267h-1.255c-0.204,0-0.361-0.078-0.471-0.267
				l-1.412-2.588c-0.047-0.079-0.078-0.11-0.125-0.11c-0.031,0-0.078,0.016-0.078,0.126v6.541c0,0.172-0.11,0.313-0.252,0.313h-2.07
				c-0.125,0-0.266-0.047-0.266-0.22v-10.901c0-0.33,0.234-0.533,0.564-0.533h1.475c0.329,0,0.549,0.156,0.689,0.423l2.4,4.471
				c0.062,0.126,0.109,0.204,0.172,0.204c0.063,0,0.11-0.078,0.173-0.204l2.4-4.471c0.142-0.267,0.36-0.423,0.69-0.423h1.475
				c0.328,0,0.564,0.219,0.564,0.549v10.886C681.709,636.445,681.567,636.492,681.441,636.492z"/>
			<path fill="#5BA4C2" d="M692.732,636.492h-2.196c-0.157,0-0.282-0.125-0.313-0.282l-0.564-2.572h-3.217l-0.564,2.572
				c-0.031,0.157-0.156,0.282-0.313,0.282h-2.196c-0.156,0-0.267-0.094-0.267-0.251c0-0.016,0.016-0.047,0.016-0.078l2.337-9.726
				c0.361-1.506,1.521-1.741,2.604-1.741c1.082,0,2.228,0.235,2.588,1.741l2.337,9.726c0,0.031,0.016,0.062,0.016,0.078
				C692.998,636.398,692.889,636.492,692.732,636.492z M688.262,627.159c-0.031-0.157-0.062-0.235-0.204-0.235
				s-0.188,0.078-0.22,0.235l-0.957,4.329h2.338L688.262,627.159z"/>
			<path fill="#5BA4C2" d="M703.16,636.492h-2.4c-0.172,0-0.234-0.157-0.313-0.313l-2.103-3.969l-0.172,0.016
				c-0.33,0-0.816-0.031-1.113-0.031v3.984c0,0.172-0.142,0.313-0.314,0.313h-2.039c-0.172,0-0.313-0.142-0.313-0.313v-10.525
				c0-0.533,0.22-0.675,0.706-0.753c0.721-0.11,2.055-0.204,3.184-0.204c2.667,0,4.722,0.895,4.722,3.671v0.203
				c0,1.663-0.878,2.683-2.023,3.138l2.368,4.424c0.031,0.062,0.048,0.125,0.048,0.172
				C703.396,636.414,703.332,636.492,703.16,636.492z M700.336,628.367c0-0.957-0.736-1.396-2.055-1.396
				c-0.219,0-1.035,0.031-1.223,0.047v3.012c0.172,0.016,0.94,0.031,1.113,0.031c1.646,0,2.164-0.423,2.164-1.49V628.367z"/>
		</g>
		<g enable-background="new    ">
			<path fill="#AAE0DE" d="M511.39,622.515c-1.583,0.539-3.776,0.899-5.97,0.899c-5.323,0-8.38-1.475-8.38-5.971v-0.323
				c0-1.583,0.576-3.129,1.834-4.928l3.812-5.502c0.503-0.72,0.647-1.079,0.755-1.835c0.036-0.287,0.324-0.503,0.576-0.503h4.999
				c0.216,0,0.359,0.216,0.359,0.468v1.259c0,1.726-0.216,2.625-1.043,4.063l-2.913,4.963c-0.216,0.36-0.396,0.72-0.396,1.079
				c0,0.72,0.432,0.972,1.618,0.972c0.936,0,3.849-0.288,4.711-0.396c0.036,0,0.072,0,0.108,0c0.396,0,0.612,0.288,0.612,0.72v4.208
				C512.074,622.156,511.858,622.372,511.39,622.515z M509.088,601.943h-5.251c-0.396,0-0.755-0.323-0.755-0.719v-4.999
				c0-0.396,0.36-0.72,0.755-0.72h5.251c0.396,0,0.719,0.323,0.719,0.72v4.999C509.808,601.62,509.484,601.943,509.088,601.943z"/>
			<path fill="#AAE0DE" d="M531.096,616.114c-0.935,0.323-2.77,0.646-5.035,0.646c-6.618,0-11.077-3.596-11.077-11.832v-3.704
				c0-8.236,4.459-11.833,11.077-11.833c2.266,0,4.1,0.324,5.035,0.647c0.575,0.18,0.791,0.288,0.791,0.791v4.604
				c0,0.504-0.144,0.756-0.755,0.684c-1.474-0.144-2.985-0.323-5.035-0.323c-1.942,0-3.705,0.863-3.705,5.431v3.704
				c0,4.531,1.727,5.431,3.705,5.431c2.05,0,3.453-0.144,5.035-0.323c0.647-0.072,0.755,0.251,0.755,0.683v4.604
				C531.887,615.79,531.671,615.933,531.096,616.114z"/>
			<path fill="#AAE0DE" d="M546.378,616.76c-5.647,0-10.862-1.762-10.862-10.466v-15.86c0-0.396,0.36-0.719,0.755-0.719h5.826
				c0.396,0,0.72,0.323,0.72,0.719v15.86c0,3.273,1.007,4.316,3.561,4.316c2.553,0,3.596-1.043,3.596-4.316v-15.86
				c0-0.396,0.324-0.719,0.719-0.719h5.827c0.396,0,0.755,0.323,0.755,0.719v15.86C557.275,614.999,552.025,616.76,546.378,616.76z"
				/>
			<path fill="#AAE0DE" d="M583.166,616.437h-6.258c-0.36,0-0.647-0.323-0.719-0.684l-1.007-4.999h-6.401l-1.007,4.999
				c-0.072,0.36-0.359,0.684-0.719,0.684h-6.222c-0.36,0-0.612-0.252-0.612-0.575c0-0.072,0.036-0.108,0.036-0.18l4.819-22.011
				c0.792-3.561,3.489-4.28,6.905-4.28s6.114,0.72,6.905,4.28l4.819,22.011c0,0.071,0.036,0.144,0.036,0.18
				C583.742,616.221,583.526,616.437,583.166,616.437z M578.922,583.134l-4.532,4.316c-0.288,0.251-0.36,0.396-0.863,0.396h-4.639
				c-0.216,0-0.324-0.108-0.324-0.252c0-0.108,0.036-0.252,0.144-0.359l3.273-4.101c0.324-0.396,0.468-0.539,1.007-0.539h5.683
				c0.252,0,0.396,0.107,0.396,0.252C579.066,582.918,579.03,583.026,578.922,583.134z M572.376,595.865
				c-0.072-0.323-0.072-0.503-0.396-0.503s-0.324,0.18-0.396,0.503l-1.762,9.136h4.315L572.376,595.865z"/>
			<path fill="#AAE0DE" d="M607.583,616.437h-4.819c-0.647,0-1.115-0.288-1.511-0.971l-7.085-12.049
				c-0.144-0.252-0.252-0.287-0.36-0.287s-0.18,0.071-0.18,0.323v12.264c0,0.396-0.324,0.72-0.719,0.72h-5.395
				c-0.396,0-0.755-0.323-0.755-0.72v-24.672c0-0.719,0.611-1.33,1.331-1.33h4.748c0.683,0,1.079,0.396,1.438,1.043l7.301,12.407
				c0.144,0.252,0.216,0.324,0.324,0.324s0.18-0.036,0.18-0.324v-12.731c0-0.396,0.324-0.719,0.719-0.719h5.395
				c0.396,0,0.719,0.323,0.719,0.719v24.672C608.913,615.826,608.302,616.437,607.583,616.437z"/>
			<path fill="#AAE0DE" d="M630.164,595.685h-5.358v20.032c0,0.396-0.324,0.72-0.72,0.72h-5.862c-0.396,0-0.719-0.323-0.719-0.72
				v-20.032h-5.466c-0.396,0-0.72-0.287-0.72-0.684v-4.604c0-0.396,0.324-0.683,0.72-0.683h18.126c0.396,0,0.755,0.287,0.755,0.683
				v4.604C630.919,595.398,630.56,595.685,630.164,595.685z"/>
			<path fill="#AAE0DE" d="M647.604,615.754l-1.007-4.999h-6.402l-1.007,4.999c-0.072,0.36-0.216,0.684-0.719,0.684h-6.222
				c-0.54,0-0.647-0.359-0.576-0.755l4.819-22.011c0.791-3.561,3.489-4.28,6.905-4.28c3.416,0,6.114,0.72,6.905,4.28l4.819,22.011
				c0.107,0.432,0,0.755-0.539,0.755h-6.258C647.82,616.437,647.676,616.114,647.604,615.754z M643.792,595.865
				c-0.071-0.323-0.071-0.503-0.396-0.503s-0.324,0.18-0.396,0.503l-1.763,9.136h4.316L643.792,595.865z"/>
			<path fill="#AAE0DE" d="M681.551,615.754l-1.008-4.999h-6.401l-1.007,4.999c-0.072,0.36-0.217,0.684-0.72,0.684h-6.222
				c-0.539,0-0.647-0.359-0.576-0.755l4.82-22.011c0.791-3.561,3.488-4.28,6.904-4.28c3.417,0,6.115,0.72,6.906,4.28l4.818,22.011
				c0.108,0.432,0,0.755-0.539,0.755h-6.258C681.766,616.437,681.622,616.114,681.551,615.754z M677.738,595.865
				c-0.072-0.323-0.072-0.503-0.396-0.503c-0.323,0-0.323,0.18-0.395,0.503l-1.763,9.136h4.315L677.738,595.865z"/>
			<path fill="#AAE0DE" d="M710.57,615.898c-2.051,0.432-4.82,0.862-8.309,0.862c-4.315,0-10.861-2.05-10.861-11.796v-3.776
				c0-9.854,6.366-11.833,11.365-11.833c3.74,0,6.402,0.576,7.877,0.972c0.503,0.144,0.683,0.216,0.683,0.684v4.531
				c0,0.503-0.18,0.611-0.611,0.575c-1.366-0.107-4.28-0.323-6.941-0.323c-3.417,0-4.963,1.043-4.963,5.395v3.812
				c0,4.819,2.05,5.502,3.452,5.502c0.684,0,1.367-0.035,1.979-0.107v-7.373c0-0.396,0.287-0.719,0.684-0.719h5.682
				c0.396,0,0.72,0.323,0.72,0.719v12.049C711.325,615.61,711.146,615.79,710.57,615.898z"/>
			<path fill="#AAE0DE" d="M726.535,616.76c-5.646,0-10.861-1.762-10.861-10.466v-15.86c0-0.396,0.359-0.719,0.755-0.719h5.826
				c0.396,0,0.72,0.323,0.72,0.719v15.86c0,3.273,1.007,4.316,3.561,4.316c2.553,0,3.596-1.043,3.596-4.316v-15.86
				c0-0.396,0.324-0.719,0.72-0.719h5.827c0.395,0,0.754,0.323,0.754,0.719v15.86C737.432,614.999,732.182,616.76,726.535,616.76z"
				/>
			<path fill="#AAE0DE" d="M756.346,615.754l-1.008-4.999h-6.4l-1.008,4.999c-0.072,0.36-0.216,0.684-0.719,0.684h-6.223
				c-0.539,0-0.646-0.359-0.575-0.755l4.819-22.011c0.791-3.561,3.488-4.28,6.905-4.28s6.114,0.72,6.905,4.28l4.819,22.011
				c0.108,0.432,0,0.755-0.54,0.755h-6.258C756.562,616.437,756.418,616.114,756.346,615.754z M752.533,595.865
				c-0.072-0.323-0.072-0.503-0.396-0.503s-0.323,0.18-0.396,0.503l-1.762,9.136h4.314L752.533,595.865z"/>
			<path fill="#AAE0DE" d="M779.144,599.75l-3.812,5.502c-0.503,0.72-0.647,1.079-0.755,1.835c-0.036,0.287-0.324,0.503-0.576,0.503
				h-4.998c-0.217,0-0.36-0.216-0.36-0.467v-1.259c0-1.727,0.216-2.626,1.043-4.064l2.913-4.963c0.216-0.36,0.396-0.72,0.396-1.079
				c0-0.72-0.432-0.972-1.619-0.972c-0.936,0-3.848,0.288-4.711,0.396c-0.504,0.071-0.72-0.216-0.72-0.72v-4.208
				c0-0.468,0.216-0.684,0.683-0.827c1.583-0.539,3.777-0.899,5.971-0.899c5.322,0,8.38,1.475,8.38,5.971v0.323
				C780.978,596.405,780.402,597.951,779.144,599.75z M774.18,616.437h-5.25c-0.396,0-0.72-0.323-0.72-0.72v-4.999
				c0-0.396,0.323-0.719,0.72-0.719h5.25c0.396,0,0.756,0.323,0.756,0.719v4.999C774.936,616.114,774.576,616.437,774.18,616.437z"
				/>
		</g>
	</g>
</g>
</svg>
