<?xml version="1.0" encoding="utf-8"?>
<!-- Generator: Adobe Illustrator 16.0.0, SVG Export Plug-In . SVG Version: 6.00 Build 0)  -->
<!DOCTYPE svg PUBLIC "-//W3C//DTD SVG 1.1//EN" "http://www.w3.org/Graphics/SVG/1.1/DTD/svg11.dtd">
<svg version="1.1" xmlns="http://www.w3.org/2000/svg" xmlns:xlink="http://www.w3.org/1999/xlink" x="0px" y="0px" width="1280px"
	 height="700px" viewBox="0 0 1280 700" enable-background="new 0 0 1280 700" xml:space="preserve">
<g id="Cuerpo_Doctora">
	<g>
		<g>
			<g>
				<g>
					<g>
						<path fill="#E2D4D5" d="M682,552.032v-77.596c0-6.012-5.259-9.952-11.049-11.323l-30.227-7l-29.985,7
							c-6.082,2-10.739,5.312-10.739,11.323v77.596H682z"/>
						<path fill="#E1E1E1" d="M641,456.113l-30.124,7c-6.72,1.525-10.876,5.312-10.876,11.323v77.596h41V456.113z"/>
					</g>
					<rect x="615" y="492.032" fill="#E2D4D5" width="1" height="60"/>
					<rect x="666" y="492.032" fill="#C8BDBE" width="1" height="60"/>
					<g>
						<polygon fill="#D76A74" points="618.858,461.173 640.583,496.446 662.31,461.183 640.632,456.113 						"/>
						<polygon fill="#DC7C85" points="640.583,496.446 640.632,456.113 618.858,461.173 						"/>
					</g>
				</g>
				<polygon fill="#E2D4D5" points="613.689,468.288 621.375,472.765 617.395,478.476 640.583,496.446 618.858,461.173 				"/>
				<polygon opacity="0.5" fill="#E2D4D5" points="667.509,468.288 659.822,472.765 663.804,478.476 640.614,496.446 
					662.34,461.173 				"/>
			</g>
			<circle fill="#E2D4D5" cx="636.542" cy="507.537" r="2.05"/>
			<circle fill="#E2D4D5" cx="636.542" cy="524.182" r="2.05"/>
			<circle fill="#E2D4D5" cx="636.542" cy="540.827" r="2.05"/>
		</g>
	</g>
</g>
<g id="Estetoscopio">
	<g>
		<path opacity="0.5" fill="#C5A9AB" d="M662.423,509.78c-1.032-5.712-1.722-8.478-2.521-11.682
			c-0.281-1.126-0.579-2.323-0.914-3.74l0.53-0.096c-0.635-3.448-1.745-6.218-3.307-8.233c-1.109-1.435-2.404-2.416-3.807-2.906
			l0.504-12.523l-0.705-0.027l-1.797-0.074l-0.855-0.032l-0.004,0.093l-0.147-0.099l-0.502,12.419
			c-3.479,0.729-6.7,4.585-8.39,10.51l0.562,0.151l0.033,0.009c-0.563,1.779-1.042,3.227-1.514,4.644
			c-0.945,2.845-1.835,5.531-3.276,10.527c-1.579,5.466-1.577,9.211-0.002,11.454c0.945,1.345,2.417,2.094,4.377,2.221
			c0.98,0.085,1.949,0.092,2.9,0.076c0.373,0.492,1.04,0.833,1.815,0.865c1.216,0.049,2.236-0.689,2.274-1.651
			c0.039-0.962-0.917-1.778-2.134-1.829c-0.829-0.034-1.562,0.298-1.963,0.813c-0.921,0.015-1.827,0.008-2.758-0.071
			c-1.424-0.094-2.414-0.567-3.036-1.458c-1.228-1.747-1.139-5.081,0.257-9.918c1.431-4.964,2.316-7.632,3.256-10.461
			c0.48-1.441,0.966-2.91,1.543-4.726l0.52,0.146c1.507-5.304,4.279-8.648,7.069-8.538c0.009,0.002,0.017,0.003,0.026,0.004
			c2.789,0.134,5.232,3.718,6.224,9.13l0.53-0.093c0.347,1.465,0.652,2.697,0.939,3.852c0.794,3.17,1.475,5.913,2.503,11.577
			l0.003,0.02c1.025,5.067,0.855,8.471-0.512,10.116c-0.678,0.818-1.679,1.206-3.052,1.186c-0.993,0.001-1.945-0.069-2.909-0.166
			c-0.326-0.603-1.069-1.047-1.955-1.083c-1.218-0.05-2.238,0.691-2.275,1.652c-0.04,0.96,0.917,1.779,2.136,1.829
			c0.717,0.027,1.366-0.218,1.78-0.619c1.043,0.106,2.112,0.189,3.21,0.188c1.911,0.029,3.416-0.586,4.452-1.837
			C663.287,519.285,663.581,515.486,662.423,509.78z"/>
		<g>
			
				<path fill="none" stroke="#4C4452" stroke-width="2.5" stroke-linecap="round" stroke-linejoin="round" stroke-miterlimit="10" d="
				M633.759,494.881l-4.801-35.805c-0.083-1.654,0.755-4.042,3.749-4.192l14.981-0.752c4.116-0.207,5.11,2.09,5.193,3.744
				l-0.726,13.753"/>
			<path fill="#3C3541" d="M638.821,495.015c-0.14-2.784-2.513-4.929-5.296-4.789c-2.785,0.14-4.929,2.512-4.789,5.296
				c0.028,0.56,0.149,1.091,0.343,1.584c0.296,0.763,0.771,1.431,1.373,1.957c0.952,0.836,2.214,1.318,3.58,1.25
				C636.814,500.173,638.962,497.802,638.821,495.015z"/>
			<circle fill="#4C4452" cx="633.907" cy="495.455" r="2.536"/>
		</g>
		<g>
			<path fill="#F4EBE2" d="M661.308,499.138c0.829,3.324,1.544,6.194,2.615,12.121c1.202,5.92,0.896,9.861-0.924,12.055
				c-1.075,1.298-2.636,1.937-4.62,1.905c-1.139,0.002-2.248-0.084-3.33-0.194c0.306-0.291,0.498-0.661,0.514-1.072
				c0.012-0.273-0.057-0.535-0.188-0.773c1,0.1,1.989,0.173,3.019,0.172c1.425,0.021,2.463-0.381,3.166-1.23
				c1.419-1.707,1.595-5.238,0.531-10.496l-0.003-0.021c-1.066-5.877-1.773-8.723-2.597-12.012
				c-0.298-1.198-0.616-2.477-0.975-3.996l1.843-0.339C660.707,496.728,661.016,497.97,661.308,499.138z"/>
			<path fill="#F4EBE2" d="M642.006,499.824c-0.975,2.936-1.894,5.704-3.378,10.854c-1.448,5.019-1.54,8.479-0.267,10.291
				c0.646,0.924,1.673,1.415,3.149,1.513c0.968,0.082,1.906,0.089,2.863,0.074c-0.195,0.254-0.313,0.549-0.327,0.869
				c-0.015,0.363,0.108,0.706,0.334,1c-0.986,0.017-1.992,0.009-3.01-0.079c-2.033-0.132-3.561-0.909-4.541-2.304
				c-1.635-2.328-1.637-6.214,0.001-11.885c1.497-5.185,2.419-7.972,3.4-10.923c0.49-1.474,0.988-2.978,1.573-4.828l1.802,0.514
				C643.008,496.805,642.504,498.329,642.006,499.824z"/>
			<path fill="#2B4E6B" d="M654.052,470.604l-0.523,12.994c1.455,0.509,2.799,1.527,3.95,3.016c1.62,2.092,2.772,4.966,3.431,8.543
				l-0.55,0.1l-1.843,0.339l-0.551,0.096c-1.029-5.615-3.564-9.334-6.458-9.473c-0.01-0.001-0.018-0.002-0.027-0.004
				c-2.895-0.115-5.772,3.355-7.335,8.858l-0.539-0.152l-1.802-0.514l-0.539-0.151c1.75-6.151,5.025-10.154,8.779-10.904
				l0.522-12.886l0.888,0.034l1.865,0.076L654.052,470.604z"/>
			<path fill="#4C4452" d="M644.374,522.557c0.416-0.535,1.177-0.88,2.037-0.845c1.263,0.053,2.254,0.9,2.213,1.898
				c-0.039,0.998-1.097,1.764-2.359,1.713c-0.805-0.033-1.497-0.387-1.884-0.897c-0.226-0.294-0.349-0.637-0.334-1
				C644.061,523.105,644.179,522.811,644.374,522.557z"/>
			<path fill="#4C4452" d="M655.049,525.024c-0.43,0.417-1.104,0.671-1.848,0.643c-1.265-0.052-2.256-0.901-2.216-1.897
				c0.038-0.997,1.097-1.767,2.361-1.715c0.919,0.037,1.689,0.499,2.028,1.124c0.131,0.238,0.2,0.5,0.188,0.773
				C655.547,524.363,655.354,524.733,655.049,525.024z"/>
			<path opacity="0.5" fill="#2B4E6B" d="M652.155,471.629l-1.744-1.169l-0.521,12.886c-3.61,0.756-6.952,4.758-8.704,10.905
				l0.582,0.156l1.819,0.513l0.552,0.01c1.565-5.503,4.458-9.12,7.355-9.003l0.027,0.001c0.019,0.002,0.024,0.296,0.045,0.297
				L652.155,471.629z"/>
		</g>
	</g>
</g>
<g id="Cabeza">
	<g>
		<g>
			<g>
				<g>
					<path fill-rule="evenodd" clip-rule="evenodd" fill="#FFBE9A" d="M650.059,456.012v-9.032c0-4.97-4.065-9.04-9.035-9.04
						c-4.968,0-9.035,4.07-9.035,9.04v9.032c0,4.973,4.067,9.033,9.035,9.033C645.993,465.045,650.059,460.984,650.059,456.012z"/>
				</g>
			</g>
			<g>
				<path opacity="0.8" fill-rule="evenodd" clip-rule="evenodd" fill="#CEAD8D" d="M641,437.94v27.104c5-0.01,9-4.065,9-9.032
					v-9.032C650,442.016,646,437.95,641,437.94z"/>
			</g>
		</g>
		<g>
			<g>
				<g>
					<g>
						<polygon fill="#6F5A3A" points="643.717,398.316 609.754,398.316 609.754,446.781 643.717,446.781 672.757,446.781 
							672.757,395.356 						"/>
						<rect x="610.041" y="398.081" fill="#897558" width="31" height="49"/>
					</g>
					<g>
						<g>
							<g>
								<g>
									<path fill="#FFBE9A" d="M667.839,380.628l-52.983,0.082l0.084,45.75c0.021,14.631,11.899,26.471,26.534,26.449
										c14.627-0.021,26.474-11.898,26.45-26.529L667.839,380.628z"/>
								</g>
							</g>
							<path fill="#E3BE9A" d="M667.839,380.628l0.085,45.752c0.023,14.631-11.823,26.508-27.004,26.529l-0.126-72.238
								L667.839,380.628z"/>
						</g>
					</g>
					<g>
						<g>
							<g>
								<path fill="#4C4452" d="M656.771,403.913c0,1.629-1.327,2.953-2.957,2.949c-1.63-0.006-2.948-1.332-2.948-2.959
									c0.003-1.633,1.325-2.951,2.96-2.949C655.452,400.954,656.775,402.282,656.771,403.913z"/>
							</g>
						</g>
						<g>
							<g>
								<path fill="#4C4452" d="M632.064,403.913c0,1.629-1.324,2.953-2.961,2.949c-1.625-0.006-2.944-1.332-2.944-2.959
									c0.005-1.633,1.329-2.951,2.962-2.949C630.748,400.954,632.07,402.282,632.064,403.913z"/>
							</g>
						</g>
					</g>
					<path fill="#907D62" d="M641.041,357.493c-17.401,0.566-31,14.888-31,32.427v8.161h31V357.493z"/>
				</g>
				<g>
					<path fill="#E2D4D5" d="M642.196,424.133c-0.748-0.068-2.406-0.068-3.156,0c-5.806,0.5-10.357,3.656-10.287,5.541
						c0.077,1.883,4.418,6.947,10.287,6.947c0.361,0,2.641,0,3,0c5.756,0,11.128-5.064,11.205-6.947
						C653.315,427.789,648.003,424.633,642.196,424.133z"/>
					<path fill="#F5E5E5" d="M641,424.085c-1-0.011-1.5,0.006-1.962,0.048c-5.807,0.5-10.356,3.656-10.286,5.541
						c0.076,1.883,4.415,6.72,10.285,6.72c0.227,0,1.963-0.007,1.963-0.007V424.085z"/>
				</g>
			</g>
		</g>
	</g>
	<g>
		<g>
			<path fill-rule="evenodd" clip-rule="evenodd" fill="#E28E94" d="M658.685,456.548v-0.504h-18.057h-18.084
				c0,9.979,8.094,18.068,18.075,18.068C650.436,474.112,658.416,466.295,658.685,456.548z"/>
			<path fill-rule="evenodd" clip-rule="evenodd" fill="#EE959B" d="M641,456.032h-18.456c0,10,8.094,18,18.075,18
				c0.004,0,0.381,0,0.381,0V456.032z"/>
		</g>
		<g>
			<g>
				<g>
					<g>
						<path fill-rule="evenodd" clip-rule="evenodd" fill="#FFBE9A" d="M649.649,456.044v-9.032c0-4.97-4.066-9.04-9.035-9.04
							c-4.968,0-9.035,4.07-9.035,9.04v9.032c0,4.973,4.067,9.033,9.035,9.033C645.583,465.077,649.649,461.017,649.649,456.044z"/>
					</g>
				</g>
				<g>
					<path opacity="0.8" fill-rule="evenodd" clip-rule="evenodd" fill="#CEAD8D" d="M641,437.973v27.104c5-0.01,9-4.065,9-9.032
						v-9.032C650,442.048,646,437.982,641,437.973z"/>
				</g>
			</g>
			<g>
				<g>
					<g>
						<g>
							<polygon fill="#6F5A3A" points="643.308,398.349 609.345,398.349 609.345,446.813 643.308,446.813 672.348,446.813 
								672.348,395.389 							"/>
							<rect x="609.632" y="398.113" fill="#897558" width="31" height="49"/>
						</g>
						<g>
							<g>
								<g>
									<g>
										<path fill="#FFBE9A" d="M667.43,380.66l-52.983,0.082l0.084,45.75c0.021,14.631,11.899,26.471,26.534,26.449
											c14.627-0.021,26.474-11.898,26.45-26.529L667.43,380.66z"/>
									</g>
								</g>
								<path fill="#E3BE9A" d="M667.43,380.66l0.085,45.752c0.023,14.631-11.823,26.508-27.004,26.529l-0.126-72.238L667.43,380.66
									z"/>
							</g>
						</g>
						<g>
							<g>
								<g>
									<path fill="#4C4452" d="M656.362,403.945c0,1.629-1.327,2.953-2.957,2.949c-1.63-0.006-2.949-1.332-2.949-2.959
										c0.003-1.633,1.326-2.951,2.96-2.949C655.042,400.986,656.366,402.314,656.362,403.945z"/>
								</g>
							</g>
							<g>
								<g>
									<path fill="#4C4452" d="M631.655,403.945c0,1.629-1.324,2.953-2.961,2.949c-1.625-0.006-2.944-1.332-2.944-2.959
										c0.005-1.633,1.329-2.951,2.962-2.949C630.339,400.986,631.661,402.314,631.655,403.945z"/>
								</g>
							</g>
						</g>
						<path fill="#7F6C50" d="M641.589,357.493c-0.052,0,0.01,0.005-0.042,0.005c-17.828,0.082-32.202,14.607-32.202,32.454v8.396
							h33.797l16.104-7.363l4.959,7.363h8.143v-8.396C672.348,372.054,659.488,357.493,641.589,357.493z"/>
						<path fill="#907D62" d="M640.632,357.525c-17.401,0.566-31,14.888-31,32.427v8.161h31V357.525z"/>
					</g>
					<g>
						<path fill="#E2D4D5" d="M641.787,424.165c-0.748-0.068-2.405-0.068-3.155,0c-5.807,0.5-10.357,3.656-10.287,5.541
							c0.077,1.883,4.418,6.947,10.287,6.947c0.36,0,2.641,0,3,0c5.756,0,11.128-5.064,11.204-6.947
							C652.906,427.821,647.594,424.665,641.787,424.165z"/>
						<path fill="#F5E5E5" d="M641,424.117c-1-0.011-1.704,0.006-2.167,0.048c-5.807,0.5-10.459,3.656-10.388,5.541
							c0.076,1.883,4.569,6.72,10.438,6.72c0.227,0,2.117-0.007,2.117-0.007V424.117z"/>
					</g>
				</g>
			</g>
		</g>
	</g>
</g>
</svg>
