<?xml version="1.0" encoding="utf-8"?>
<!-- Generator: Adobe Illustrator 16.0.0, SVG Export Plug-In . SVG Version: 6.00 Build 0)  -->
<!DOCTYPE svg PUBLIC "-//W3C//DTD SVG 1.1//EN" "http://www.w3.org/Graphics/SVG/1.1/DTD/svg11.dtd">
<svg version="1.1" id="Layer_1" xmlns="http://www.w3.org/2000/svg" xmlns:xlink="http://www.w3.org/1999/xlink" x="0px" y="0px"
	 width="37.5px" height="42px" viewBox="0 0 37.5 42" style="enable-background:new 0 0 37.5 42;" xml:space="preserve">
<g>
	<path style="fill:#9FD0C8;" d="M10.4,9.8L8.6,11c-1.8,1.2-3,2.1-3,3.6v0.1h6.6c0.2,0,0.4,0.2,0.4,0.4v2.2c0,0.2-0.2,0.4-0.4,0.4
		H2.8c-0.2,0-0.4-0.2-0.4-0.4v-2.1c0-2.3,1.3-4.2,2.9-5.3l1.9-1.4C9,7.1,9.3,6.9,9.3,6c0-0.9-0.5-1.3-2.2-1.3C5.8,4.7,4.3,4.8,3,5
		c0,0,0,0,0,0C2.7,5,2.6,4.8,2.6,4.6V2.9c0-0.2,0.2-0.3,0.4-0.4c1.2-0.4,2.9-0.7,4.5-0.7c3.9,0,5.4,1.3,5.4,4
		C12.8,7.6,11.9,8.8,10.4,9.8z"/>
	<path style="fill:#9FD0C8;" d="M22.6,2.5l-4.4,14.7c-0.1,0.2-0.2,0.4-0.4,0.4H15c-0.2,0-0.4-0.2-0.4-0.4c0,0,0-0.1,0-0.1l4.5-14.7
		c0.1-0.2,0.2-0.4,0.4-0.4h2.7C22.4,2.1,22.6,2.2,22.6,2.5C22.6,2.4,22.6,2.4,22.6,2.5z"/>
	<path style="fill:#9FD0C8;" d="M29.7,17.8c-1.6,0-3.3-0.3-4.3-0.6c-0.2-0.1-0.4-0.2-0.4-0.4v-1.7c0-0.2,0.2-0.4,0.4-0.4
		c0,0,0,0,0,0c1.5,0.1,3,0.2,4.2,0.2c1.5,0,2.1-0.6,2.1-1.8v-0.4c0-0.9-0.3-1.8-1.7-1.8h-3.7c-0.2,0-0.4-0.2-0.4-0.4V8.8
		c0-0.2,0.2-0.4,0.4-0.4h3.6c1.4,0,1.8-0.9,1.8-1.8V6.3c0-0.9-0.4-1.6-2.1-1.6c-1.5,0-2.5,0.1-4.1,0.3c0,0,0,0,0,0
		C25.2,5,25,4.8,25,4.6V2.9c0-0.2,0.2-0.3,0.4-0.4c1.1-0.3,2.6-0.7,4.3-0.7c3.4,0,5.5,1.2,5.5,4.3v0.3c0,1.2-0.8,2.6-1.9,3.2
		c1.2,0.6,1.9,1.8,1.9,3.1v0.4C35.2,16.4,32.9,17.8,29.7,17.8z"/>
</g>
<g>
	<g>
		<path style="fill:#9FD0C8;" d="M5,25.7c-0.2,0-0.6,0-0.8,0v2.5c0,0.1-0.1,0.2-0.2,0.2H3c-0.1,0-0.2-0.1-0.2-0.2v-6.5
			c0-0.2,0.1-0.3,0.3-0.3c0.5-0.1,1.2-0.1,1.9-0.1c1.5,0,2.7,0.5,2.7,2.2v0.1C7.7,25.1,6.4,25.7,5,25.7z M6.4,23.4
			c0-0.8-0.5-1.1-1.4-1.1c-0.2,0-0.7,0-0.8,0v2.3c0.2,0,0.7,0,0.8,0C6,24.6,6.4,24.2,6.4,23.4L6.4,23.4z"/>
		<path style="fill:#9FD0C8;" d="M13.3,28.3h-1c-0.1,0-0.2-0.1-0.2-0.2l-0.4-1.8H9.5l-0.4,1.8c0,0.1-0.1,0.2-0.2,0.2h-1
			c-0.1,0-0.2-0.1-0.2-0.2c0,0,0,0,0,0l1.6-5.9c0.2-0.9,0.9-1,1.3-1s1.1,0.1,1.3,1l1.6,5.9c0,0,0,0,0,0
			C13.5,28.2,13.4,28.3,13.3,28.3z M10.7,22.5c0-0.1-0.1-0.2-0.2-0.2s-0.1,0-0.2,0.2l-0.7,2.8h1.7L10.7,22.5z"/>
		<path style="fill:#9FD0C8;" d="M19.3,28.3h-1.2c-0.1,0-0.1-0.1-0.2-0.2l-1.4-2.5h-0.1c-0.2,0-0.6,0-0.8,0v2.6
			c0,0.1-0.1,0.2-0.2,0.2h-0.9c-0.1,0-0.2-0.1-0.2-0.2v-6.5c0-0.2,0.1-0.3,0.3-0.3c0.5-0.1,1.2-0.1,1.9-0.1c1.5,0,2.7,0.5,2.7,2.1
			v0.1c0,1-0.5,1.6-1.3,1.9l1.5,2.8c0,0,0,0.1,0,0.1C19.4,28.3,19.4,28.3,19.3,28.3z M17.9,23.3c0-0.7-0.5-1-1.4-1
			c-0.2,0-0.7,0-0.8,0v2.1c0.2,0,0.7,0,0.8,0C17.5,24.5,17.9,24.3,17.9,23.3L17.9,23.3z"/>
		<path style="fill:#9FD0C8;" d="M24.5,22.4h-1.7v5.7c0,0.1-0.1,0.2-0.2,0.2h-0.9c-0.1,0-0.2-0.1-0.2-0.2v-5.7h-1.7
			c-0.1,0-0.2-0.1-0.2-0.2v-0.7c0-0.1,0.1-0.2,0.2-0.2h4.6c0.1,0,0.2,0.1,0.2,0.2v0.7C24.7,22.3,24.6,22.4,24.5,22.4z"/>
		<path style="fill:#9FD0C8;" d="M29.4,28.2c-0.3,0-0.7,0.1-1.8,0.1c-1.2,0-2.2-0.3-2.2-1.9v-3.3c0-1.6,1-1.9,2.2-1.9
			c1.1,0,1.5,0.1,1.8,0.1c0.1,0,0.2,0.1,0.2,0.2v0.6c0,0.1-0.1,0.2-0.2,0.2h-1.9c-0.5,0-0.7,0.2-0.7,0.8v1h2.6
			c0.1,0,0.2,0.1,0.2,0.2V25c0,0.1-0.1,0.2-0.2,0.2h-2.6v1.2c0,0.6,0.2,0.8,0.7,0.8h1.9c0.1,0,0.2,0.1,0.2,0.2V28
			C29.6,28.2,29.5,28.2,29.4,28.2z"/>
		<path style="fill:#9FD0C8;" d="M32.6,28.4c-0.7,0-1.2-0.1-1.7-0.2c-0.1,0-0.2-0.1-0.2-0.2v-0.7c0-0.1,0.1-0.2,0.2-0.2c0,0,0,0,0,0
			c0.4,0,1.3,0.1,1.7,0.1c0.8,0,1.1-0.3,1.1-0.9c0-0.4-0.2-0.6-0.8-0.9l-1.2-0.7c-0.9-0.5-1.1-1.1-1.1-1.7c0-1,0.6-1.8,2.4-1.8
			c0.6,0,1.5,0.1,1.8,0.2c0.1,0,0.2,0.1,0.2,0.2v0.7c0,0.1-0.1,0.2-0.2,0.2c0,0,0,0,0,0c-0.6-0.1-1.2-0.1-1.9-0.1
			c-0.7,0-1,0.2-1,0.7c0,0.3,0.2,0.5,0.8,0.8l1.1,0.6c1,0.6,1.3,1.2,1.3,1.9C35.1,27.4,34.5,28.4,32.6,28.4z"/>
	</g>
</g>
<g>
	<g>
		<path style="fill:#9FD0C8;" d="M4.6,37.6c-0.6,0-1.4-0.1-1.6-0.1c-0.1,0-0.2-0.1-0.2-0.3v-5.5c0-0.2,0.1-0.2,0.2-0.3
			c0.2,0,1-0.1,1.6-0.1c1.6,0,2.6,0.9,2.6,2.5v1.2C7.1,36.7,6.2,37.6,4.6,37.6z M6,33.9c0-1.2-0.6-1.6-1.4-1.6c-0.3,0-0.5,0-0.7,0
			v4.3c0.2,0,0.4,0,0.7,0c0.8,0,1.4-0.3,1.4-1.6V33.9z"/>
		<path style="fill:#9FD0C8;" d="M11.7,37.5c-0.3,0-0.6,0.1-1.6,0.1c-1.1,0-1.9-0.3-1.9-1.7v-2.9c0-1.4,0.8-1.7,1.9-1.7
			c1,0,1.3,0.1,1.6,0.1c0.1,0,0.2,0.1,0.2,0.2v0.5c0,0.1-0.1,0.2-0.2,0.2H10c-0.5,0-0.6,0.2-0.6,0.7v0.9h2.2c0.1,0,0.2,0.1,0.2,0.2
			v0.6c0,0.1-0.1,0.2-0.2,0.2H9.3v1.1c0,0.5,0.2,0.7,0.6,0.7h1.7c0.1,0,0.2,0.1,0.2,0.2v0.5C11.8,37.4,11.8,37.5,11.7,37.5z"/>
		<path style="fill:#9FD0C8;" d="M19.4,37.5h-0.9c-0.1,0-0.1-0.1-0.2-0.1L18,35.8h-1.9l-0.4,1.6c0,0.1-0.1,0.1-0.2,0.1h-0.9
			c-0.1,0-0.1-0.1-0.1-0.1c0,0,0,0,0,0l1.3-5.2c0.2-0.8,0.8-0.8,1.1-0.8s0.9,0.1,1.1,0.8l1.3,5.2c0,0,0,0,0,0
			C19.5,37.5,19.5,37.5,19.4,37.5z M17.2,32.5c0-0.1,0-0.1-0.1-0.1s-0.1,0-0.1,0.1l-0.6,2.4h1.4L17.2,32.5z"/>
		<path style="fill:#9FD0C8;" d="M24,37.5c-0.4,0.1-0.9,0.1-1.8,0.1c-0.9,0-2.2-0.6-2.2-2.5v-1.2c0-1.9,1.2-2.5,2.2-2.5
			c0.8,0,1.5,0.1,1.8,0.1c0.1,0,0.2,0.1,0.2,0.2v0.6c0,0.1,0,0.2-0.2,0.2c0,0,0,0,0,0c-0.4,0-0.9-0.1-1.7-0.1
			c-0.6,0-1.1,0.4-1.1,1.6v1.2c0,1.2,0.6,1.5,1.1,1.5c0.3,0,0.6,0,0.8,0v-2.1c0-0.1,0.1-0.2,0.2-0.2H24c0.1,0,0.2,0.1,0.2,0.2v2.8
			C24.1,37.4,24.1,37.5,24,37.5z"/>
		<path style="fill:#9FD0C8;" d="M27.6,37.6c-1.3,0-2.3-0.6-2.3-2.3v-3.7c0-0.1,0.1-0.2,0.2-0.2h0.8c0.1,0,0.2,0.1,0.2,0.2v3.7
			c0,0.9,0.2,1.4,1.1,1.4c0.9,0,1.1-0.4,1.1-1.4v-3.7c0-0.1,0.1-0.2,0.2-0.2h0.8c0.1,0,0.2,0.1,0.2,0.2v3.7
			C29.8,37,28.9,37.6,27.6,37.6z"/>
		<path style="fill:#9FD0C8;" d="M35.3,37.5h-0.9c-0.1,0-0.1-0.1-0.2-0.1l-0.4-1.6H32l-0.4,1.6c0,0.1-0.1,0.1-0.2,0.1h-0.9
			c-0.1,0-0.1-0.1-0.1-0.1c0,0,0,0,0,0l1.3-5.2c0.2-0.8,0.8-0.8,1.1-0.8s0.9,0.1,1.1,0.8l1.3,5.2c0,0,0,0,0,0
			C35.4,37.5,35.3,37.5,35.3,37.5z M33,32.5c0-0.1,0-0.1-0.1-0.1s-0.1,0-0.1,0.1l-0.6,2.4h1.4L33,32.5z"/>
	</g>
</g>
</svg>
