<?xml version="1.0" encoding="utf-8"?>
<!-- Generator: Adobe Illustrator 16.0.0, SVG Export Plug-In . SVG Version: 6.00 Build 0)  -->
<!DOCTYPE svg PUBLIC "-//W3C//DTD SVG 1.1//EN" "http://www.w3.org/Graphics/SVG/1.1/DTD/svg11.dtd">
<svg version="1.1" id="Layer_1" xmlns="http://www.w3.org/2000/svg" xmlns:xlink="http://www.w3.org/1999/xlink" x="0px" y="0px"
	 width="100px" height="100px" viewBox="0 0 100 100" enable-background="new 0 0 100 100" xml:space="preserve">
<g>
	<g>
		<path fill="#5BA4C2" d="M72.172,52.327l-0.012-0.041L51.353,11.305v-0.104l-0.024,0.054l-0.018-0.054l-0.021,0.125l-21.83,40.411
			l-0.033,0.164c-2.045,3.527-3.259,7.631-3.322,11.996c-0.179,13.573,10.693,24.72,24.267,24.899
			c13.57,0.167,24.699-10.693,24.878-24.273C75.303,60.099,74.176,55.941,72.172,52.327z"/>
		<g>
			<g>
				<path fill="#72ADC8" d="M43.241,83.035c-0.137,0-0.274-0.018-0.412-0.035c-12.095-2.451-13.866-15.423-13.117-21.959
					c0.125-1.181,1.202-2.028,2.403-1.896c1.181,0.143,2.045,1.217,1.899,2.403c-0.062,0.632-1.509,14.921,9.679,17.188
					c1.172,0.232,1.93,1.372,1.7,2.553C45.183,82.344,44.255,83.047,43.241,83.035z"/>
			</g>
		</g>
	</g>
	<path fill="#72ADC8" d="M75.249,64.523c0.054-4.425-1.073-8.582-3.077-12.196l-0.012-0.041L51.353,11.305v-0.104l-0.024,0.054
		l-0.018-0.054v77.554C64.442,88.415,75.082,77.787,75.249,64.523z"/>
	<g>
		<g>
			<path fill="#E2D4D5" d="M60.948,49.757l-4.521-12.119c-0.364-0.811-0.656-2.266,0.154-2.636c0.8-0.358,1.67,0.781,2.016,1.599
				l5.851,11.343c0.364,0.817,0.161,2.361-0.649,2.719C62.296,51.35,61.21,50.39,60.948,49.757z"/>
		</g>
		<path fill="#E2D4D5" d="M67.448,54.469c0.096,1.359-0.847,2.54-2.135,2.647s-2.428-0.906-2.541-2.278
			c-0.119-1.359,0.859-2.552,2.13-2.656C66.196,52.077,67.329,53.088,67.448,54.469z"/>
	</g>
</g>
</svg>
