<?xml version="1.0" encoding="utf-8"?>
<!-- Generator: Adobe Illustrator 16.0.0, SVG Export Plug-In . SVG Version: 6.00 Build 0)  -->
<!DOCTYPE svg PUBLIC "-//W3C//DTD SVG 1.1//EN" "http://www.w3.org/Graphics/SVG/1.1/DTD/svg11.dtd">
<svg version="1.1" id="Globa_x5F_vasos_x5F_03" xmlns="http://www.w3.org/2000/svg" xmlns:xlink="http://www.w3.org/1999/xlink"
	 x="0px" y="0px" width="1280px" height="700px" viewBox="0 0 1280 700" enable-background="new 0 0 1280 700" xml:space="preserve"
	>
<g>
	<g>
		<g>
			<path fill="#5BA4C2" d="M301,418.301c0-0.7-0.3-1.5-0.9-1.9l-3.3-2.2c-0.6-0.399-0.5-1,0-1.3l3.3-2.2
				c0.6-0.399,0.9-1.2,0.9-1.899v-4c0-0.7,0.9-0.801,1.6-0.801h38.6c0.7,0,0.899,0.101,0.899,0.801v19.3
				c0,0.7-0.199,0.899-0.899,0.899h-38.6c-0.7,0-1.6-0.199-1.6-0.899V418.301z"/>
		</g>
		<g>
			<g enable-background="new    ">
				<path fill="#F1DEAE" d="M311.721,421.306l-1.536-2.375l-1.536,2.375h-2.261l2.673-3.868l-2.574-3.755h2.318l1.422,2.219
					l1.436-2.219h2.261l-2.574,3.712l2.688,3.911H311.721z"/>
			</g>
			<g enable-background="new    ">
				<path fill="#E9D9DA" d="M320.831,421.513c-3.221,0-5.34-2.705-5.34-6.22c0-3.514,2.153-6.253,5.375-6.253s5.34,2.704,5.34,6.219
					S324.053,421.513,320.831,421.513z M320.831,411.435c-1.602,0-2.618,1.602-2.618,3.824s1.051,3.859,2.653,3.859
					s2.619-1.62,2.619-3.825S322.434,411.435,320.831,411.435z"/>
			</g>
			<g enable-background="new    ">
				<path fill="#E9D9DA" d="M327.421,411.521v-2.273h8.148v1.998l-3.049,2.911c1.654,0.275,3.239,1.137,3.239,3.394
					c0,2.292-1.654,3.963-4.341,3.963c-2.17,0-3.669-0.861-4.703-2.085l1.826-1.74c0.827,0.931,1.688,1.447,2.912,1.447
					c0.999,0,1.706-0.568,1.706-1.481c0-0.999-0.844-1.55-2.36-1.55h-1.103l-0.413-1.688l2.877-2.895H327.421z"/>
			</g>
		</g>
	</g>
	<g>
		<path fill="#5BA4C2" d="M302.1,418.301c0.6,0.399,0.9,1.199,0.9,1.899v4.7h-0.4c-0.7,0-1.6-0.2-1.6-0.9v-5.8
			c0-0.2,0-0.399-0.1-0.7L302.1,418.301z"/>
		<path opacity="0.3" fill="#C9DEE1" enable-background="new    " d="M299.8,413.801l1.3-1.2c0.6-0.4,0.9-1.2,0.9-1.9v-4
			c0-0.7,0.9-1.8,1.6-1.8h35.5c0.7,0,0.9,1.1,0.9,1.8v0.2h-34.4c-0.7,0-1.6,1.1-1.6,1.8v3c0,0.7,1-0.2-0.9,1.9
			c-1.9,2.1-3.3,1.5-3.3,1.5C299.2,414.801,299.3,414.2,299.8,413.801z"/>
	</g>
</g>
</svg>
