<?xml version="1.0" encoding="utf-8"?>
<!-- Generator: Adobe Illustrator 16.0.0, SVG Export Plug-In . SVG Version: 6.00 Build 0)  -->
<!DOCTYPE svg PUBLIC "-//W3C//DTD SVG 1.1//EN" "http://www.w3.org/Graphics/SVG/1.1/DTD/svg11.dtd">
<svg version="1.1" id="Globa_x5F_vasos_x5F_02" xmlns="http://www.w3.org/2000/svg" xmlns:xlink="http://www.w3.org/1999/xlink"
	 x="0px" y="0px" width="1280px" height="700px" viewBox="0 0 1280 700" enable-background="new 0 0 1280 700" xml:space="preserve"
	>
<g>
	<g>
		<g>
			<path fill="#5BA4C2" d="M301,228.3c0-0.699-0.3-1.5-0.9-1.899l-3.3-2.2c-0.6-0.399-0.5-1,0-1.3l3.3-2.2
				c0.6-0.399,0.9-1.2,0.9-1.899v-4c0-0.7,0.9-0.801,1.6-0.801h38.6c0.7,0,0.899,0.101,0.899,0.801v19.3
				c0,0.7-0.199,0.899-0.899,0.899h-38.6c-0.7,0-1.6-0.199-1.6-0.899V228.3z"/>
		</g>
		<g>
			<g enable-background="new    ">
				<path fill="#F1DEAE" d="M311.703,231.306l-1.536-2.375l-1.536,2.375h-2.261l2.673-3.868l-2.574-3.755h2.318l1.422,2.219
					l1.436-2.219h2.261l-2.574,3.712l2.688,3.911H311.703z"/>
			</g>
			<g enable-background="new    ">
				<path fill="#E9D9DA" d="M320.813,231.513c-3.221,0-5.34-2.705-5.34-6.22c0-3.514,2.153-6.253,5.375-6.253s5.34,2.704,5.34,6.219
					S324.035,231.513,320.813,231.513z M320.813,221.435c-1.602,0-2.618,1.602-2.618,3.824s1.051,3.859,2.653,3.859
					s2.619-1.62,2.619-3.825S322.416,221.435,320.813,221.435z"/>
			</g>
			<g enable-background="new    ">
				<path fill="#E9D9DA" d="M328.903,223.072l-1.861-1.499c1.189-1.619,2.343-2.498,4.497-2.498c2.567,0,4.152,1.481,4.152,3.738
					c0,2.016-1.034,3.032-3.17,4.686l-1.964,1.517h5.254v2.291h-8.923v-2.102l4.014-3.291c1.499-1.24,2.084-1.895,2.084-2.894
					c0-1.017-0.672-1.567-1.619-1.567C330.436,221.453,329.798,221.969,328.903,223.072z"/>
			</g>
		</g>
	</g>
	<g>
		<path fill="#5BA4C2" d="M302.1,228.3c0.6,0.4,0.9,1.2,0.9,1.9v4.7h-0.4c-0.7,0-1.6-0.2-1.6-0.9v-5.8c0-0.2,0-0.4-0.1-0.7
			L302.1,228.3z"/>
		<path opacity="0.3" fill="#C9DEE1" enable-background="new    " d="M299.8,223.8l1.3-1.199c0.6-0.4,0.9-1.2,0.9-1.9v-4
			c0-0.7,0.9-1.8,1.6-1.8h35.5c0.7,0,0.9,1.1,0.9,1.8v0.2h-34.4c-0.7,0-1.6,1.1-1.6,1.8v3c0,0.7,1-0.2-0.9,1.9
			c-1.9,2.1-3.3,1.5-3.3,1.5C299.2,224.8,299.3,224.2,299.8,223.8z"/>
	</g>
</g>
</svg>
