<?xml version="1.0" encoding="utf-8"?>
<!-- Generator: Adobe Illustrator 16.0.0, SVG Export Plug-In . SVG Version: 6.00 Build 0)  -->
<!DOCTYPE svg PUBLIC "-//W3C//DTD SVG 1.1//EN" "http://www.w3.org/Graphics/SVG/1.1/DTD/svg11.dtd">
<svg version="1.1" xmlns="http://www.w3.org/2000/svg" xmlns:xlink="http://www.w3.org/1999/xlink" x="0px" y="0px" width="1280px"
	 height="700px" viewBox="0 0 1280 700" enable-background="new 0 0 1280 700" xml:space="preserve">
<g id="Copywright">
	<g>
		<g>
			<path fill="#5BA4C2" d="M586.082,668.952c-0.336,0.063-0.648,0.104-1.328,0.104c-0.983,0-2.11-0.527-2.11-2.471v-1.111
				c0-1.959,1.127-2.471,2.11-2.471c0.504,0,0.992,0.072,1.344,0.128c0.072,0.008,0.128,0.032,0.128,0.104v0.407
				c0,0.049-0.016,0.088-0.096,0.088c-0.008,0-0.016,0-0.024,0c-0.288-0.023-0.879-0.071-1.343-0.071
				c-0.784,0-1.391,0.456-1.391,1.814v1.111c0,1.344,0.607,1.815,1.391,1.815c0.456,0,1.031-0.04,1.319-0.064
				c0.008,0,0.024,0,0.032,0c0.088,0,0.128,0.04,0.128,0.129v0.327C586.242,668.888,586.17,668.936,586.082,668.952z"/>
			<path fill="#5BA4C2" d="M589.146,669.056c-1.255,0-2.167-0.735-2.167-2.511v-1.031c0-1.774,0.911-2.511,2.167-2.511
				s2.159,0.736,2.159,2.511v1.031C591.305,668.32,590.402,669.056,589.146,669.056z M590.57,665.514
				c0-1.343-0.544-1.854-1.423-1.854c-0.872,0-1.431,0.512-1.431,1.854v1.031c0,1.344,0.552,1.855,1.431,1.855
				c0.872,0,1.423-0.512,1.423-1.855V665.514z"/>
			<path fill="#5BA4C2" d="M594.13,666.633c-0.256,0-0.591-0.023-0.799-0.039v2.246c0,0.08-0.056,0.16-0.144,0.16h-0.432
				c-0.08,0-0.144-0.072-0.144-0.16v-5.572c0-0.112,0.072-0.185,0.192-0.2c0.344-0.04,0.864-0.064,1.327-0.064
				c1.295,0,2.239,0.448,2.239,1.735v0.104C596.37,666.178,595.426,666.633,594.13,666.633z M595.642,664.738
				c0-0.808-0.479-1.119-1.511-1.119c-0.248,0-0.607,0.016-0.799,0.031v2.344c0.184,0.008,0.592,0.031,0.799,0.031
				c1.096,0,1.511-0.352,1.511-1.184V664.738z"/>
			<path fill="#5BA4C2" d="M601.298,663.259l-1.239,2.783c-0.144,0.319-0.288,0.464-0.432,0.527v2.271c0,0.08-0.064,0.16-0.144,0.16
				h-0.44c-0.08,0-0.144-0.08-0.144-0.16v-2.271c-0.144-0.056-0.288-0.208-0.432-0.527l-1.231-2.783
				c-0.016-0.031-0.024-0.063-0.024-0.088c0-0.063,0.056-0.111,0.136-0.111h0.487c0.056,0,0.12,0.056,0.144,0.111l1.104,2.591
				c0.08,0.184,0.136,0.208,0.184,0.208c0.056,0,0.104-0.024,0.184-0.208l1.111-2.591c0.024-0.056,0.072-0.111,0.136-0.111h0.488
				c0.08,0,0.136,0.048,0.136,0.111C601.322,663.195,601.314,663.228,601.298,663.259z"/>
			<path fill="#5BA4C2" d="M606.377,669h-0.512c-0.096,0-0.144,0-0.208-0.104l-1.431-2.383c-0.024,0-0.048,0-0.072,0
				c-0.048,0-0.088,0-0.136,0c-0.264,0-0.456-0.008-0.879-0.024v2.351c0,0.08-0.056,0.16-0.144,0.16h-0.432
				c-0.08,0-0.144-0.072-0.144-0.16v-5.597c0-0.112,0.048-0.16,0.192-0.176c0.344-0.04,0.944-0.064,1.407-0.064
				c1.263,0,2.239,0.424,2.239,1.72v0.056c0,0.896-0.527,1.423-1.255,1.615l1.456,2.431c0.016,0.023,0.024,0.048,0.024,0.072
				C606.481,668.952,606.441,669,606.377,669z M605.538,664.723c0-0.8-0.52-1.063-1.519-1.063c-0.248,0-0.688,0-0.879,0.023v2.191
				c0.352,0.008,0.696,0.016,0.879,0.016c0.983,0,1.519-0.248,1.519-1.111V664.723z"/>
			<path fill="#5BA4C2" d="M608.283,669h-0.439c-0.08,0-0.144-0.072-0.144-0.16v-5.629c0-0.08,0.056-0.151,0.144-0.151h0.439
				c0.08,0,0.144,0.063,0.144,0.151v5.629C608.427,668.92,608.372,669,608.283,669z"/>
			<path fill="#5BA4C2" d="M613.458,668.936c-0.392,0.064-0.839,0.12-1.591,0.12c-1,0-2.071-0.655-2.071-2.486v-1.071
				c0-1.943,1.119-2.495,2.143-2.495c0.744,0,1.215,0.064,1.519,0.112c0.072,0.008,0.136,0.04,0.136,0.12v0.399
				c0,0.057-0.032,0.08-0.104,0.08c-0.008,0-0.024,0-0.032,0c-0.472-0.04-0.839-0.056-1.519-0.056c-0.744,0-1.415,0.399-1.415,1.839
				v1.071c0,1.319,0.6,1.839,1.343,1.839c0.488,0,0.815-0.032,1.007-0.048v-2.287c0-0.088,0.056-0.159,0.144-0.159h0.432
				c0.08,0,0.152,0.071,0.152,0.159v2.687C613.602,668.848,613.546,668.92,613.458,668.936z"/>
			<path fill="#5BA4C2" d="M619.081,669h-0.408c-0.088,0-0.16-0.072-0.16-0.16v-2.654h-2.735v2.654c0,0.088-0.072,0.16-0.16,0.16
				h-0.408c-0.088,0-0.16-0.072-0.16-0.16v-5.621c0-0.088,0.072-0.159,0.16-0.159h0.408c0.088,0,0.16,0.071,0.16,0.159v2.319h2.735
				v-2.319c0-0.088,0.072-0.159,0.16-0.159h0.408c0.088,0,0.16,0.071,0.16,0.159v5.621C619.241,668.928,619.169,669,619.081,669z"/>
			<path fill="#5BA4C2" d="M624.354,663.683h-1.559v5.157c0,0.08-0.056,0.16-0.144,0.16h-0.44c-0.08,0-0.144-0.072-0.144-0.16
				v-5.157h-1.559c-0.088,0-0.16-0.04-0.16-0.128v-0.352c0-0.08,0.072-0.144,0.16-0.144h3.846c0.088,0,0.152,0.056,0.152,0.144
				v0.352C624.505,663.635,624.441,663.683,624.354,663.683z"/>
			<path fill="#5BA4C2" d="M628.726,669.5c-1.789,0-3.238-1.449-3.238-3.238s1.449-3.268,3.238-3.268s3.258,1.479,3.258,3.268
				S630.515,669.5,628.726,669.5z M628.726,663.434c-1.559,0-2.808,1.27-2.808,2.828c0,1.56,1.249,2.799,2.808,2.799
				s2.819-1.239,2.819-2.799C631.544,664.703,630.285,663.434,628.726,663.434z M629.595,668.321c-0.15,0.029-0.45,0.069-0.91,0.069
				c-0.859,0-1.529-0.5-1.529-1.829v-0.659c0-1.34,0.669-1.839,1.529-1.839c0.46,0,0.76,0.05,0.91,0.08
				c0.07,0.01,0.15,0.04,0.15,0.14v0.279c0,0.101-0.07,0.12-0.13,0.12c-0.01,0-0.02,0-0.03,0c-0.21-0.02-0.54-0.05-0.9-0.05
				c-0.49,0-0.909,0.3-0.909,1.27v0.659c0,0.97,0.419,1.26,0.909,1.26c0.34,0,0.69-0.03,0.9-0.05c0.01,0,0.02,0,0.02,0
				c0.06,0,0.14,0.02,0.14,0.13v0.27C629.745,668.271,629.665,668.311,629.595,668.321z"/>
			<path fill="#5BA4C2" d="M638.081,665.978l-0.768,0.52c-0.888,0.6-1.12,1.008-1.12,1.703v0.168h2.694
				c0.088,0,0.16,0.048,0.16,0.136v0.353c0,0.088-0.072,0.144-0.16,0.144h-3.174c-0.088,0-0.16-0.064-0.16-0.152V668.2
				c0-0.831,0.352-1.519,1.223-2.103l0.808-0.544c0.664-0.447,0.824-0.64,0.824-1.119c0-0.575-0.336-0.823-1.199-0.823
				c-0.416,0-0.968,0.056-1.416,0.119c-0.008,0-0.016,0-0.032,0c-0.08,0-0.128-0.056-0.128-0.144v-0.28
				c0-0.079,0.072-0.127,0.152-0.144c0.408-0.104,0.951-0.16,1.423-0.16c1.295,0,1.911,0.448,1.911,1.432
				C639.12,665.066,638.824,665.474,638.081,665.978z"/>
			<path fill="#5BA4C2" d="M642.376,669.056c-1.208,0-1.967-0.72-1.967-2.486v-1.079c0-1.768,0.76-2.487,1.967-2.487
				c1.207,0,1.959,0.72,1.959,2.487v1.079C644.335,668.336,643.583,669.056,642.376,669.056z M643.607,665.49
				c0-1.352-0.479-1.871-1.231-1.871c-0.752,0-1.231,0.52-1.231,1.871v1.079c0,1.352,0.479,1.871,1.231,1.871
				c0.751,0,1.231-0.52,1.231-1.871V665.49z"/>
			<path fill="#5BA4C2" d="M645.713,669c-0.088,0-0.16-0.056-0.16-0.144v-0.353c0-0.088,0.072-0.136,0.16-0.136h1.271v-4.558
				l-1.255,0.528c-0.063,0.023-0.176,0.048-0.176-0.064v-0.407c0-0.057,0.024-0.072,0.08-0.104l1.431-0.655
				c0.064-0.032,0.12-0.048,0.168-0.048h0.328c0.08,0,0.152,0.063,0.152,0.151v5.157h1.279c0.088,0,0.16,0.048,0.16,0.136v0.353
				c0,0.088-0.072,0.144-0.16,0.144H645.713z"/>
			<path fill="#5BA4C2" d="M652.216,669.056c-0.52,0-1.007-0.048-1.407-0.144c-0.088-0.024-0.152-0.056-0.152-0.16v-0.296
				c0-0.08,0.048-0.12,0.12-0.12c0.016,0,0.024,0,0.04,0c0.503,0.088,1,0.112,1.399,0.112c0.904,0,1.303-0.439,1.303-1.255v-0.12
				c0-0.8-0.496-1.071-1.671-1.071h-0.959c-0.072,0-0.128-0.064-0.128-0.137v-0.008l0.224-2.662c0.008-0.08,0.08-0.136,0.16-0.136
				h2.75c0.088,0,0.16,0.048,0.16,0.136v0.352c0,0.088-0.072,0.128-0.16,0.128H651.6l-0.128,1.728h0.376
				c1.487,0,2.407,0.392,2.407,1.671v0.12C654.255,668.376,653.511,669.056,652.216,669.056z"/>
			<path fill="#5BA4C2" d="M656.409,668.12l-0.6,1.512c-0.04,0.104-0.064,0.151-0.152,0.151h-0.328
				c-0.064,0-0.096-0.039-0.096-0.096c0-0.016,0-0.04,0.008-0.056l0.456-1.512c0.032-0.104,0.072-0.151,0.16-0.151h0.464
				c0.063,0,0.104,0.031,0.104,0.088C656.424,668.072,656.417,668.097,656.409,668.12z"/>
			<path fill="#5BA4C2" d="M664.47,669h-0.392c-0.088,0-0.16-0.072-0.16-0.16v-4.741c0-0.016,0-0.024-0.008-0.024
				c-0.008,0-0.008,0-0.016,0.017l-1.144,2.366c-0.08,0.16-0.16,0.232-0.36,0.232h-0.368c-0.2,0-0.28-0.072-0.36-0.232l-1.143-2.366
				c-0.008-0.017-0.008-0.017-0.016-0.017s-0.008,0.009-0.008,0.024v4.741c0,0.088-0.072,0.16-0.16,0.16h-0.392
				c-0.088,0-0.16-0.072-0.16-0.16v-5.549c0-0.128,0.104-0.231,0.232-0.231h0.52c0.144,0,0.208,0.032,0.256,0.136l1.319,2.742
				c0.032,0.072,0.056,0.088,0.096,0.088s0.064-0.016,0.096-0.088l1.319-2.742c0.048-0.104,0.112-0.136,0.256-0.136h0.52
				c0.128,0,0.232,0.104,0.232,0.231v5.549C664.63,668.928,664.558,669,664.47,669z"/>
			<path fill="#5BA4C2" d="M668.096,669.056c-1.255,0-2.167-0.735-2.167-2.511v-1.031c0-1.774,0.911-2.511,2.167-2.511
				s2.159,0.736,2.159,2.511v1.031C670.254,668.32,669.351,669.056,668.096,669.056z M669.519,665.514
				c0-1.343-0.544-1.854-1.423-1.854c-0.872,0-1.431,0.512-1.431,1.854v1.031c0,1.344,0.552,1.855,1.431,1.855
				c0.872,0,1.423-0.512,1.423-1.855V665.514z"/>
			<path fill="#5BA4C2" d="M675.519,669h-0.496c-0.128,0-0.216-0.048-0.256-0.128l-2.471-4.693
				c-0.008-0.017-0.016-0.024-0.024-0.024c-0.008,0-0.008,0.008-0.008,0.024v4.669c0,0.08-0.064,0.152-0.144,0.152h-0.416
				c-0.08,0-0.144-0.016-0.144-0.096v-5.621c0-0.128,0.104-0.224,0.232-0.224h0.44c0.224,0,0.264,0.04,0.328,0.159l2.455,4.67
				l0.016,0.023c0.008,0,0.008-0.016,0.008-0.023v-4.678c0-0.08,0.064-0.151,0.144-0.151h0.424c0.088,0,0.144,0.071,0.144,0.151
				v5.557C675.75,668.896,675.646,669,675.519,669z"/>
			<path fill="#5BA4C2" d="M680.591,663.683h-1.559v5.157c0,0.08-0.056,0.16-0.144,0.16h-0.44c-0.08,0-0.144-0.072-0.144-0.16
				v-5.157h-1.559c-0.088,0-0.16-0.04-0.16-0.128v-0.352c0-0.08,0.072-0.144,0.16-0.144h3.846c0.088,0,0.152,0.056,0.152,0.144
				v0.352C680.743,663.635,680.679,663.683,680.591,663.683z"/>
			<path fill="#5BA4C2" d="M683.512,669.056c-1.255,0-2.167-0.735-2.167-2.511v-1.031c0-1.774,0.912-2.511,2.167-2.511
				s2.159,0.736,2.159,2.511v1.031C685.671,668.32,684.768,669.056,683.512,669.056z M684.936,665.514
				c0-1.343-0.544-1.854-1.423-1.854c-0.872,0-1.431,0.512-1.431,1.854v1.031c0,1.344,0.552,1.855,1.431,1.855
				c0.872,0,1.423-0.512,1.423-1.855V665.514z"/>
			<path fill="#5BA4C2" d="M690.279,663.683h-1.559v5.157c0,0.08-0.056,0.16-0.144,0.16h-0.439c-0.08,0-0.144-0.072-0.144-0.16
				v-5.157h-1.559c-0.088,0-0.16-0.04-0.16-0.128v-0.352c0-0.08,0.072-0.144,0.16-0.144h3.846c0.088,0,0.152,0.056,0.152,0.144
				v0.352C690.431,663.635,690.367,663.683,690.279,663.683z"/>
			<path fill="#5BA4C2" d="M693.2,669.056c-1.255,0-2.167-0.735-2.167-2.511v-1.031c0-1.774,0.912-2.511,2.167-2.511
				s2.159,0.736,2.159,2.511v1.031C695.358,668.32,694.455,669.056,693.2,669.056z M694.623,665.514
				c0-1.343-0.544-1.854-1.423-1.854c-0.872,0-1.431,0.512-1.431,1.854v1.031c0,1.344,0.552,1.855,1.431,1.855
				c0.872,0,1.423-0.512,1.423-1.855V665.514z"/>
		</g>
	</g>
</g>
<g id="Back_to_Top">
</g>
<g id="Bonafont">
	<g>
		<g>
			<path fill="#5BA3C0" d="M611.133,572.347h-0.49c-0.11,0-0.2-0.09-0.2-0.2v-5.927c0-0.02,0-0.029-0.01-0.029
				c-0.01,0-0.01,0-0.02,0.02l-1.429,2.958c-0.1,0.2-0.2,0.29-0.45,0.29h-0.459c-0.25,0-0.35-0.09-0.45-0.29l-1.429-2.958
				c-0.01-0.02-0.01-0.02-0.02-0.02c-0.01,0-0.01,0.01-0.01,0.029v5.927c0,0.11-0.09,0.2-0.2,0.2h-0.49c-0.11,0-0.2-0.09-0.2-0.2
				v-6.936c0-0.16,0.13-0.29,0.29-0.29h0.65c0.18,0,0.26,0.04,0.32,0.17l1.649,3.428c0.04,0.09,0.07,0.11,0.12,0.11
				c0.05,0,0.08-0.021,0.12-0.11l1.649-3.428c0.06-0.13,0.14-0.17,0.32-0.17h0.649c0.16,0,0.29,0.13,0.29,0.29v6.936
				C611.333,572.257,611.243,572.347,611.133,572.347z"/>
			<path fill="#5BA3C0" d="M618.224,572.347h-0.589c-0.09,0-0.15-0.07-0.17-0.15l-0.65-2.298h-2.588l-0.64,2.298
				c-0.02,0.08-0.1,0.15-0.18,0.15h-0.589c-0.1,0-0.17-0.07-0.17-0.16c0-0.02,0-0.05,0.01-0.069l1.849-6.507
				c0.17-0.609,0.64-0.76,1.02-0.76c0.37,0,0.839,0.141,1.009,0.75l1.849,6.517c0.01,0.02,0.01,0.05,0.01,0.069
				C618.394,572.276,618.333,572.347,618.224,572.347z M615.715,565.82c-0.03-0.11-0.09-0.18-0.19-0.18c-0.11,0-0.17,0.069-0.2,0.18
				l-0.909,3.288h2.208L615.715,565.82z"/>
			<path fill="#5BA3C0" d="M620.546,572.347h-0.549c-0.1,0-0.18-0.09-0.18-0.2v-7.036c0-0.1,0.07-0.189,0.18-0.189h0.549
				c0.1,0,0.18,0.08,0.18,0.189v7.036C620.726,572.247,620.656,572.347,620.546,572.347z"/>
			<path fill="#5BA3C0" d="M627.584,572.347h-0.62c-0.16,0-0.27-0.06-0.32-0.16l-3.088-5.866c-0.01-0.021-0.02-0.03-0.03-0.03
				c-0.01,0-0.01,0.01-0.01,0.03v5.837c0,0.1-0.08,0.189-0.18,0.189h-0.52c-0.1,0-0.18-0.02-0.18-0.12V565.2
				c0-0.159,0.13-0.279,0.29-0.279h0.55c0.28,0,0.33,0.05,0.41,0.2l3.068,5.836l0.02,0.03c0.01,0,0.01-0.02,0.01-0.03v-5.847
				c0-0.1,0.08-0.189,0.18-0.189h0.53c0.11,0,0.18,0.09,0.18,0.189v6.946C627.874,572.217,627.744,572.347,627.584,572.347z"/>
			<path fill="#5BA3C0" d="M634.155,572.417c-0.7,0-1.22-0.07-1.659-0.141c-0.17-0.029-0.19-0.069-0.19-0.18v-0.399
				c0-0.11,0.08-0.16,0.17-0.16c0.01,0,0.02,0,0.03,0c0.46,0.04,1.189,0.06,1.649,0.06c1.199,0,1.519-0.479,1.519-1.179
				c0-0.5-0.29-0.78-1.199-1.34l-0.97-0.589c-0.919-0.561-1.379-1.07-1.379-1.869c0-1.21,0.87-1.77,2.389-1.77
				c0.59,0,1.359,0.061,1.739,0.12c0.1,0.021,0.17,0.07,0.17,0.17v0.43c0,0.1-0.07,0.16-0.17,0.16c-0.01,0-0.01,0-0.02,0
				c-0.44-0.03-1.139-0.061-1.719-0.061c-1.029,0-1.469,0.221-1.469,0.95c0,0.47,0.33,0.749,1.089,1.209l0.919,0.55
				c1.159,0.689,1.569,1.239,1.569,2.039C636.624,571.377,636.124,572.417,634.155,572.417z"/>
			<path fill="#5BA3C0" d="M640.055,569.389c-0.32,0-0.74-0.03-1-0.051v2.809c0,0.101-0.07,0.2-0.18,0.2h-0.54
				c-0.1,0-0.18-0.09-0.18-0.2v-6.966c0-0.14,0.09-0.229,0.24-0.25c0.43-0.05,1.079-0.08,1.659-0.08c1.62,0,2.798,0.56,2.798,2.169
				v0.13C642.854,568.818,641.675,569.389,640.055,569.389z M641.944,567.02c0-1.01-0.6-1.399-1.889-1.399
				c-0.31,0-0.76,0.021-1,0.04v2.929c0.23,0.01,0.739,0.04,1,0.04c1.37,0,1.889-0.44,1.889-1.479V567.02z"/>
			<path fill="#5BA3C0" d="M646.864,572.417c-1.568,0-2.709-0.92-2.709-3.139v-1.289c0-2.219,1.141-3.139,2.709-3.139
				c1.569,0,2.699,0.92,2.699,3.139v1.289C649.563,571.497,648.434,572.417,646.864,572.417z M648.644,567.989
				c0-1.68-0.68-2.319-1.779-2.319c-1.09,0-1.789,0.64-1.789,2.319v1.289c0,1.679,0.689,2.318,1.789,2.318
				c1.09,0,1.779-0.64,1.779-2.318V567.989z"/>
			<path fill="#5BA3C0" d="M656.144,572.347h-0.62c-0.16,0-0.271-0.06-0.319-0.16l-3.089-5.866c-0.011-0.021-0.021-0.03-0.03-0.03
				s-0.01,0.01-0.01,0.03v5.837c0,0.1-0.08,0.189-0.18,0.189h-0.52c-0.101,0-0.18-0.02-0.18-0.12V565.2
				c0-0.159,0.129-0.279,0.289-0.279h0.55c0.28,0,0.329,0.05,0.409,0.2l3.068,5.836l0.021,0.03c0.01,0,0.01-0.02,0.01-0.03v-5.847
				c0-0.1,0.08-0.189,0.181-0.189h0.529c0.109,0,0.18,0.09,0.18,0.189v6.946C656.433,572.217,656.303,572.347,656.144,572.347z"/>
			<path fill="#5BA3C0" d="M659.995,572.417c-0.7,0-1.221-0.07-1.66-0.141c-0.17-0.029-0.189-0.069-0.189-0.18v-0.399
				c0-0.11,0.08-0.16,0.17-0.16c0.01,0,0.02,0,0.029,0c0.461,0.04,1.189,0.06,1.65,0.06c1.199,0,1.519-0.479,1.519-1.179
				c0-0.5-0.29-0.78-1.199-1.34l-0.97-0.589c-0.92-0.561-1.379-1.07-1.379-1.869c0-1.21,0.869-1.77,2.389-1.77
				c0.59,0,1.359,0.061,1.738,0.12c0.101,0.021,0.17,0.07,0.17,0.17v0.43c0,0.1-0.069,0.16-0.17,0.16c-0.01,0-0.01,0-0.02,0
				c-0.439-0.03-1.139-0.061-1.719-0.061c-1.029,0-1.469,0.221-1.469,0.95c0,0.47,0.329,0.749,1.089,1.209l0.919,0.55
				c1.16,0.689,1.569,1.239,1.569,2.039C662.463,571.377,661.964,572.417,659.995,572.417z"/>
			<path fill="#5BA3C0" d="M666.524,572.417c-1.569,0-2.709-0.92-2.709-3.139v-1.289c0-2.219,1.14-3.139,2.709-3.139
				c1.568,0,2.698,0.92,2.698,3.139v1.289C669.223,571.497,668.093,572.417,666.524,572.417z M668.304,567.989
				c0-1.68-0.68-2.319-1.779-2.319c-1.09,0-1.789,0.64-1.789,2.319v1.289c0,1.679,0.689,2.318,1.789,2.318
				c1.089,0,1.779-0.64,1.779-2.318V567.989z"/>
			<path fill="#5BA3C0" d="M675.803,572.347h-0.64c-0.12,0-0.18,0-0.26-0.13l-1.789-2.979c-0.03,0-0.061,0-0.09,0
				c-0.061,0-0.11,0-0.17,0c-0.33,0-0.57-0.01-1.1-0.03v2.938c0,0.101-0.07,0.2-0.18,0.2h-0.54c-0.101,0-0.18-0.09-0.18-0.2v-6.996
				c0-0.14,0.06-0.199,0.239-0.22c0.43-0.05,1.18-0.08,1.76-0.08c1.578,0,2.799,0.53,2.799,2.149v0.069
				c0,1.119-0.66,1.779-1.57,2.02l1.819,3.038c0.021,0.03,0.03,0.06,0.03,0.09C675.933,572.287,675.882,572.347,675.803,572.347z
				 M674.753,567c0-1-0.649-1.33-1.898-1.33c-0.311,0-0.859,0-1.1,0.03v2.738c0.439,0.011,0.869,0.021,1.1,0.021
				c1.229,0,1.898-0.31,1.898-1.39V567z"/>
		</g>
	</g>
	<g>
		<g>
			<path fill-rule="evenodd" clip-rule="evenodd" fill="#167CB9" d="M633.7,491.809c1.009,0.551,2.85,0.953,3.923,0.203
				c1.4-0.979,2.105-2.953,1.94-6.798c-0.124-2.878-0.733-3.389-0.733-3.389s4.362,6.354,0.917,11.266
				C638.307,495.143,634.434,493.915,633.7,491.809L633.7,491.809z"/>
			<path fill-rule="evenodd" clip-rule="evenodd" fill="#167CB9" d="M644.908,517.772c0.606,1.614,1.12,2.974,1.371,3.623
				c0.262-1.837,0.429-3.638,0.389-4.868c-0.092-2.84-0.916-8.427-1.19-10.9c-0.275-2.473-0.55-6.686,0.55-15.295
				c1.099-8.609,7.236-17.678,7.236-17.678s-3.572,3.39-6.87,11.998c-3.298,8.609-3.022,12.64-3.298,16.486
				c-0.274,3.847,0.732,8.427,1.282,11.541C644.687,514.425,644.879,516.025,644.908,517.772L644.908,517.772z"/>
			<path fill-rule="evenodd" clip-rule="evenodd" fill="#167CB9" d="M644.349,524.36c-0.6,3.503-1.637,7.499-2.169,9.477
				c-0.641,2.382-1.008,6.961-1.008,6.961c0.184-1.558,1.1-3.022,1.466-4.945c0.367-1.925,1.648-5.862,2.382-8.244
				c0.24-0.78,0.51-1.937,0.761-3.237L644.349,524.36L644.349,524.36z"/>
			<path fill-rule="evenodd" clip-rule="evenodd" fill="#167CB9" d="M619.284,494.637c4.764,1.923,6.229,1.373,9.893,2.931
				c3.665,1.557,4.946,4.487,5.955,7.418c1.008,2.932,0.366,7.511-0.091,10.991c-0.14,1.059-0.21,2.117-0.219,3.163
				c0.782-1.672,1.825-4.022,3.209-7.292c0.09-1.381,0.1-2.789-0.059-4.113c-0.549-4.58-2.748-8.152-5.129-10.076
				c-2.382-1.923-5.313-2.289-11.726-3.571c-6.412-1.282-11.267-5.495-10.351-4.579
				C611.682,490.422,614.521,492.713,619.284,494.637L619.284,494.637z"/>
			<path fill-rule="evenodd" clip-rule="evenodd" fill="#167CB9" d="M640.262,538.234c-0.092-3.664,0.183-4.488-1.191-9.344
				c-1.304-4.603-1.7-5.583-1.815-8.562h-0.047c-0.697,1.582-1.241,2.788-1.411,3.129c-0.137,0.274-0.283,0.525-0.53,0.708
				c0.117,0.613,0.255,1.214,0.414,1.796c0.824,3.021,2.473,7.326,2.748,9.433c0.274,2.107,0.331,3,0.606,7.304
				c0.275,4.305,1.324,9.957,1.324,9.957s0.475-1.408,0.177-3.889C640.262,546.477,640.353,541.897,640.262,538.234L640.262,538.234
				z"/>
			<path fill-rule="evenodd" clip-rule="evenodd" fill="#FBA476" d="M648.038,485.043c-0.58,1.759-1.039,3.586-1.269,5.383
				c-0.444,3.475-0.664,6.221-0.748,8.438c2.927-1.803,6.149-3.32,8.493-4.02c3.601-1.071,5.941,8.493,7.987,7.802
				c1.228-0.415,4.974-1.602,7.388-2.404c2.432-0.81,9.182,2.274,9.947,2.662c1.077,0.546,2.137,1.046,3.174,1.502
				c-0.055-0.203-0.028-0.421,0.088-0.601c0.138-0.213,0.375-0.342,0.629-0.342h14.73c0.254,0,0.491,0.129,0.629,0.342
				c0.138,0.214,0.196,0.504,0.054,0.714c-0.705,1.036-1.496,1.126-3.167,1.126c-0.816,0-1.914,0.029-2.809-0.014v2.225
				c0.571,0.139,1.123,0.265,1.652,0.376c0.898,0.091,2.328,0.938,3.975,2.19c0.833,2.541,0.902,5.171,0.1,7.828
				c-0.498,1.654-1.312,3.266-2.409,4.822c2.77-2.908,4.619-6.027,5.347-9.271c0.055-0.243,0.101-0.486,0.14-0.728
				c0.001,0.001,0.002,0.001,0.003,0.002C704.603,497.718,680.831,485.344,648.038,485.043L648.038,485.043z"/>
			<path fill-rule="evenodd" clip-rule="evenodd" fill="#FBA476" d="M591.921,505.133c0.018-0.008,0.036-0.016,0.053-0.023
				c-0.018,0.002-0.035,0.002-0.053,0.003V505.133L591.921,505.133z"/>
			<path fill-rule="evenodd" clip-rule="evenodd" fill="#FBA476" d="M632.199,542.164c-32.383-2.412-55.062-17.789-50.578-32.649
				c0.042-0.14,0.089-0.278,0.135-0.417c1.566-0.85,3.042-1.625,4.351-2.291c0.522-0.054,1.065-0.15,1.623-0.278v-0.804
				c0-0.236-0.007-0.398-0.015-0.51c-0.606-0.029-1.668-0.217-2.005-1.45c-0.06-0.22-0.017-0.456,0.119-0.64
				s0.346-0.297,0.575-0.305c2.535-0.098,3.723-0.108,5.656-0.108c1.547,0,3.055,0.068,4.369,0.326
				c3.63-1.819,7.055-3.739,9.335-4.391c1.462-0.858,4.152,3.438,6.309,3.367c5.063-0.169,5.57,3.295,6.638,2.88
				c3.487-1.36,8.016-4.564,10.531-6.479c-0.116-0.056-0.234-0.108-0.355-0.16c-1.693-0.72-2.867-0.966-4.228-1.25
				c-1.46-0.305-3.115-0.65-5.652-1.676c-5.013-2.023-7.786-4.377-8.564-5.099c-11.711,3.581-21.181,8.781-26.649,14.856
				c0.005-0.007,0.01-0.015,0.015-0.022c-0.065,0.072-0.128,0.146-0.192,0.219c-0.031,0.034-0.062,0.069-0.091,0.104
				c-0.155,0.177-0.306,0.354-0.454,0.532c-0.016,0.02-0.033,0.039-0.049,0.059c-0.51,0.618-0.979,1.245-1.404,1.88
				c-0.001,0.002-0.002,0.004-0.003,0.005c-0.142,0.212-0.279,0.425-0.411,0.638c-0.001,0.003-0.002,0.004-0.003,0.007
				c-1.056,1.703-1.806,3.46-2.208,5.255c-3.561,15.877,21.051,28.756,54.972,28.767c1.443,0.001,2.879-0.024,4.308-0.069
				c0,0,0-0.003,0-0.003C636.261,542.411,634.235,542.315,632.199,542.164L632.199,542.164z"/>
			<path fill-rule="evenodd" clip-rule="evenodd" fill="#283673" d="M595.003,511.837c3.519-0.677,5.016-2.414,5.016-4.331
				c0-2.877-2.177-4.045-7.961-4.045c-1.943,0-3.124,0.011-5.627,0.106c0.233,0.856,0.991,0.904,1.544,0.904
				c0.382,0,0.503,0.179,0.503,1.253c0,1.584,0,13.797,0,14.468c0,1.523-0.092,2.971-1.079,3.214v0.233
				c1.859,0.177,4.167,0.236,5.544,0.236c6.328,0,9.402-2.874,9.402-6.696C602.345,513.492,598.807,511.932,595.003,511.837
				L595.003,511.837z M592.719,522.955c-1.236,0-1.545-0.427-1.545-1.362c0-0.621,0-15.606,0-17.177
				c3.83-0.359,5.948,0.686,5.948,3.336c0.01,2.136-1.487,3.928-5.255,3.801c0.105,0.788,0.631,0.942,1.55,0.979
				c4.35,0.172,5.885,1.914,5.885,4.861C599.301,520.876,596.865,522.955,592.719,522.955L592.719,522.955z"/>
			<path fill-rule="evenodd" clip-rule="evenodd" fill="#283673" d="M610.71,508.838c-4.453,0-7.31,3.311-7.31,7.58
				c0,4.473,3.049,7.579,7.31,7.579c4.286,0,7.312-3.299,7.312-7.579C618.021,512.062,615.149,508.838,610.71,508.838
				L610.71,508.838z M610.947,523.244c-2.942,0-4.615-3.352-4.746-7.122c-0.13-3.771,1.5-6.532,4.272-6.532
				c2.69,0,4.607,3.135,4.746,7.124C615.35,520.484,613.708,523.244,610.947,523.244L610.947,523.244z"/>
			<path fill-rule="evenodd" clip-rule="evenodd" fill="#283673" d="M664.056,508.838c-4.453,0-7.311,3.311-7.311,7.58
				c0,4.473,3.049,7.579,7.311,7.579c4.286,0,7.312-3.299,7.312-7.579C671.367,512.062,668.495,508.838,664.056,508.838
				L664.056,508.838z M664.293,523.244c-2.942,0-4.615-3.352-4.745-7.122c-0.131-3.771,1.498-6.532,4.271-6.532
				c2.689,0,4.606,3.135,4.745,7.124C668.695,520.484,667.053,523.244,664.293,523.244L664.293,523.244z"/>
			<path fill-rule="evenodd" clip-rule="evenodd" fill="#283673" d="M631.199,509.844c0,2.91,0,10.381,0,10.381
				c-0.572-0.726-4.713-6.165-7.059-9.26c-1.43-1.885-3.389-2.854-6.398-1.859v0.133c0.416,0.016,0.799,0.119,1.18,0.316
				c0.518,0.269,0.704,0.548,0.704,1.492c0,2.976,0,9.887,0,10.479c0,1.143-0.334,1.885-0.966,1.885v0.229h3.246v-0.235
				c-0.78,0-1.039-0.644-1.039-2.196c0-2.425,0-8.098,0-9.922c0.419,0.491,0.873,1.07,1.388,1.751
				c1.529,2.018,4.926,6.466,6.015,7.92c1.09,1.453,2.319,2.782,4.187,3.124c0-1.686,0-7.233,0-7.92c0-4.78,0.126-6.496,0.271-7.359
				C631.596,509.023,631.199,509.325,631.199,509.844L631.199,509.844z"/>
			<path fill-rule="evenodd" clip-rule="evenodd" fill="#283673" d="M684.623,509.844c0,2.91,0,10.381,0,10.381
				c-0.571-0.726-4.714-6.165-7.06-9.26c-1.429-1.885-3.389-2.854-6.397-1.859v0.133c0.415,0.016,0.8,0.119,1.181,0.316
				c0.518,0.269,0.703,0.548,0.703,1.492c0,2.976,0,9.887,0,10.479c0,1.143-0.334,1.885-0.966,1.885v0.229h3.246v-0.235
				c-0.78,0-1.039-0.644-1.039-2.196c0-2.425,0-8.098,0-9.922c0.419,0.491,0.874,1.07,1.389,1.751
				c1.528,2.018,4.926,6.466,6.015,7.92c1.09,1.453,2.319,2.782,4.188,3.124c0-1.686,0-7.233,0-7.92c0-4.78,0.126-6.496,0.27-7.359
				C685.021,509.023,684.623,509.325,684.623,509.844L684.623,509.844z"/>
			<path fill-rule="evenodd" clip-rule="evenodd" fill="#283673" d="M645.688,521.94c-0.582-1.468-5.125-13.642-5.125-13.642h-0.233
				c-0.952,2.244-6.132,14.988-7.264,15.33c1.686,0.205,1.791,0.038,2.062-0.505c0.185-0.372,0.835-1.819,1.592-3.544
				c0.372,0,1.084,0,1.529,0c1.843,0,2.623-0.103,3.719-0.446c0.274,0.714,0.532,1.396,0.747,1.986
				c0.672,1.849,0.645,1.792,0.711,1.965c0,0,0.085,0.526,0.781,0.526l2.94,0.021v-0.227
				C646.629,523.406,646.192,523.209,645.688,521.94L645.688,521.94z M637.176,518.539c0.917-2.099,1.886-4.362,2.348-5.53
				c0.315,0.749,1.319,3.222,2.215,5.53H637.176L637.176,518.539z"/>
			<path fill-rule="evenodd" clip-rule="evenodd" fill="#283673" d="M651.731,510.144c0,0,2.051,0.2,3.686,0.2
				c1.271,0,1.963-0.435,2.287-1.199c-1.66,0-7.996-0.032-10.113,0.008c0.2,0.733,0.848,0.772,1.32,0.772
				c0.326,0,0.43,0.153,0.43,1.071c0,2.975,0,9.938,0,10.529c0,1.143-0.648,1.885-1.279,1.885v0.229h4.71v-0.235
				c-0.78,0-1.04-0.644-1.04-2.196c0-1.049,0-2.919,0-4.852c2.211,0.207,3.253-0.015,3.781-0.982h-3.781
				C651.731,513.166,651.731,511.046,651.731,510.144L651.731,510.144z"/>
		</g>
		<path fill="#283673" d="M683.41,503.862h15.585c0,0-0.075,1.314-2.178,1.314c-2.104,0-4.244,0-4.244,0v16.487
			c0,0,0,1.727,1.277,1.727v0.188h-5.033v-0.225c0,0,1.202-0.15,1.202-1.615c0-1.464,0-16.749,0-16.749h-4.77
			C685.25,504.989,683.977,505.118,683.41,503.862z"/>
		<path fill-rule="evenodd" clip-rule="evenodd" fill="#167CB9" d="M611.363,531.408c-0.175,0.619-1.385,0.203-2.057,0.325
			c-0.211,0.186-0.234,0.561-0.216,0.974c0.399,0.25,1.261,0.038,1.84,0.109c-0.24,0.445-1.256,0.113-1.84,0.216
			c-0.35,1.461,1.262,1.439,2.273,1.19c-0.335,0.844-2.277,0.407-2.598-0.108c-0.195-0.79-0.202-2.183,0.216-2.706
			C609.775,531.408,610.569,531.408,611.363,531.408z"/>
		<path fill-rule="evenodd" clip-rule="evenodd" fill="#167CB9" d="M612.77,531.408c0.072,0,0.145,0,0.216,0
			c0.684,0.255,0.161,1.716,0.325,2.49c0.134,0.643,1.591,0.354,1.948,0.434c-0.461,0.672-2.061,0.266-2.381-0.218
			C612.752,533.303,612.758,532.359,612.77,531.408z"/>
		<path fill-rule="evenodd" clip-rule="evenodd" fill="#167CB9" d="M621.539,534.656c-0.548,0.006-0.496-0.587-0.65-0.975
			c-0.649,0-1.299,0-1.948,0c-0.371,0.135-0.106,0.904-0.542,0.975c-0.37-1.016,0.714-2.365,1.191-3.248
			C621.002,531.729,621.068,533.395,621.539,534.656z M618.94,533.465c0.579-0.07,1.441,0.143,1.84-0.108
			c-0.369-0.497-0.463-1.269-0.974-1.623C619.422,532.215,619.15,532.809,618.94,533.465z"/>
		<path fill-rule="evenodd" clip-rule="evenodd" fill="#167CB9" d="M626.085,531.949c-2.513-1.881-4.181,3.082-0.542,2.273
			c0.315-0.082-0.098-0.892,0.217-0.974c0.578-0.145,0.232,0.634,0.325,0.974c-1.541,1.168-3.734-0.181-3.139-1.84
			C623.26,531.506,625.293,530.833,626.085,531.949z"/>
		<path fill-rule="evenodd" clip-rule="evenodd" fill="#167CB9" d="M627.601,531.408c0.072,0,0.145,0,0.216,0
			c0.752,0.222,0.025,1.924,0.433,2.49c0.173,0.509,1.189,0.518,1.732,0.324c0.778-0.34,0.201-2.035,0.541-2.814
			c0.658,0.283,0.246,1.958,0.216,2.599C629.211,535.611,626.785,534.122,627.601,531.408z"/>
		<path fill-rule="evenodd" clip-rule="evenodd" fill="#167CB9" d="M635.503,534.656c-0.555,0.013-0.454-0.629-0.649-0.975
			c-0.613,0-1.227,0-1.84,0c-0.469,0.072-0.131,0.951-0.649,0.975c-0.225-1.281,0.732-2.293,1.191-3.248
			C634.964,531.73,635.091,533.336,635.503,534.656z M632.905,533.465c0.614,0,1.227,0,1.84,0c-0.21-0.691-0.444-1.359-0.974-1.731
			C633.431,532.259,633.162,532.856,632.905,533.465z"/>
		<path fill-rule="evenodd" clip-rule="evenodd" fill="#167CB9" d="M646.437,531.408c0.072,0,0.47,0,0.542,0
			c0,0.642,0.018,1.729,0.018,2.599c0.287,0.329,1.247,0.216,1.821,0.216c0.112,0.772-2.055,0.438-2.272-0.108
			C646.384,533.337,646.445,532.338,646.437,531.408z"/>
		<path fill-rule="evenodd" clip-rule="evenodd" fill="#167CB9" d="M650.025,531.408c0.108,0,0.435,0,0.543,0
			c0,0.53-0.013,2.295-0.013,3.243c-0.281,0-0.375,0.005-0.53,0.005C650.025,533.742,650.025,532.496,650.025,531.408z"/>
		<path fill-rule="evenodd" clip-rule="evenodd" fill="#167CB9" d="M655.746,531.949c-0.739-0.587-2.116-0.267-2.599,0.325
			c-0.552,1.444,0.675,2.452,2.058,1.948c0.219-0.133,0.008-0.982,0.139-1.032c0.6-0.132,0.402,0.748,0.402,1.142
			c-1.485,0.9-3.794-0.148-3.031-2.166C653.076,531.498,655.308,530.875,655.746,531.949z"/>
		<path fill-rule="evenodd" clip-rule="evenodd" fill="#167CB9" d="M660.337,531.391c0,0.122,0,0.147,0,0.268
			c-0.432,0-1.447-0.024-1.992,0.075c-0.367,0.066-0.453,0.673-0.23,1.028c0.361,0,1.23,0,1.702,0c0,0.112,0,0.224,0,0.366
			c-0.599,0-1.202-0.007-1.725-0.007c-0.286,1.398,1.429,1.052,2.201,1.043c0,0.12,0.01,0.361-0.13,0.426
			c-2.993,0.609-3.381-1.911-2.118-3.359C658.839,531.23,660.337,531.07,660.337,531.391z"/>
		<path fill-rule="evenodd" clip-rule="evenodd" fill="#167CB9" d="M664.778,532.361c0,0.359-0.421,0.658-0.913,0.671
			c0.584,0.318,0.749,1.055,1.19,1.516c-1.085,0.254-0.89-1.769-2.442-1.407c0,0.548-0.009,0.816-0.009,1.439
			c-0.188,0-0.473,0.009-0.597,0.009c0-0.819-0.005-2.335-0.005-3.202C663.003,531.247,664.778,530.883,664.778,532.361z
			 M662.596,531.676c0,0.258,0.009,0.677,0.009,1.06c0.906,0.04,1.657,0.125,1.657-0.579
			C664.262,531.64,663.7,531.596,662.596,531.676z"/>
		<path fill-rule="evenodd" clip-rule="evenodd" fill="#167CB9" d="M669.711,534.656c-0.555,0.013-0.454-0.629-0.649-0.975
			c-0.614,0-1.228,0-1.841,0c-0.448,0.094-0.185,0.897-0.649,0.975c-0.225-1.281,0.738-2.286,1.191-3.248
			C669.172,531.73,669.299,533.336,669.711,534.656z M667.221,533.465c0.577,0,1.155,0,1.732,0
			c-0.211-0.691-0.445-1.359-0.975-1.731C667.705,532.289,667.289,532.703,667.221,533.465z"/>
		<g>
			<path fill="#243871" d="M695.217,521.257c0.194,0,0.384,0.049,0.569,0.149c0.185,0.1,0.328,0.242,0.432,0.427
				c0.104,0.187,0.154,0.379,0.154,0.581c0,0.199-0.051,0.391-0.152,0.574s-0.244,0.327-0.428,0.429s-0.375,0.152-0.575,0.152
				s-0.392-0.051-0.575-0.152s-0.326-0.245-0.429-0.429s-0.153-0.375-0.153-0.574c0-0.202,0.052-0.395,0.155-0.581
				c0.104-0.185,0.248-0.327,0.434-0.427C694.833,521.306,695.022,521.257,695.217,521.257z M695.217,521.448
				c-0.162,0-0.32,0.041-0.475,0.125c-0.153,0.083-0.273,0.202-0.36,0.356c-0.087,0.155-0.131,0.316-0.131,0.484
				c0,0.166,0.043,0.326,0.129,0.479c0.085,0.153,0.204,0.271,0.357,0.357c0.153,0.085,0.312,0.128,0.479,0.128
				s0.326-0.043,0.479-0.128c0.153-0.086,0.272-0.204,0.357-0.357c0.085-0.152,0.127-0.312,0.127-0.479
				c0-0.168-0.043-0.329-0.129-0.484c-0.087-0.154-0.207-0.273-0.361-0.356C695.536,521.489,695.378,521.448,695.217,521.448z
				 M694.71,523.053v-1.244h0.428c0.146,0,0.251,0.012,0.316,0.034c0.065,0.023,0.117,0.063,0.156,0.12s0.059,0.118,0.059,0.183
				c0,0.091-0.032,0.17-0.098,0.237c-0.064,0.067-0.15,0.105-0.258,0.113c0.044,0.02,0.079,0.041,0.105,0.066
				c0.051,0.049,0.111,0.131,0.184,0.246l0.152,0.244h-0.245l-0.11-0.196c-0.087-0.153-0.157-0.251-0.21-0.29
				c-0.037-0.028-0.091-0.043-0.161-0.043h-0.118v0.529H694.71z M694.91,522.352h0.243c0.117,0,0.196-0.017,0.239-0.051
				c0.042-0.035,0.063-0.082,0.063-0.139c0-0.037-0.01-0.069-0.031-0.099c-0.02-0.029-0.049-0.051-0.085-0.065
				c-0.036-0.014-0.104-0.021-0.201-0.021h-0.229V522.352z"/>
		</g>
	</g>
</g>
<g id="Miscelaneas">
	<g>
		<path fill="none" stroke="#5BA4C2" stroke-width="1.391" stroke-miterlimit="10" d="M864.739,208.812h-38.506
			c-4.582,0-8.3-3.717-8.3-8.303v-2.683c0-1.057,0.857-1.914,1.915-1.914c1.057,0,1.914,0.857,1.914,1.914v2.683
			c0,4.586-3.719,8.303-8.3,8.303"/>
		<g>
			<path fill="none" stroke="#5BA4C2" stroke-width="1.391" stroke-miterlimit="10" d="M875.002,350.496
				c0-5.747-0.563-10.646-0.563-17.049c0-6.124,1.604-9.137,5.651-10.266v-0.377c-4.048-1.133-5.651-4.239-5.651-10.268
				c0-6.404,0.563-89.409,0.563-95.154c0-6.122-1.317-8.57-6.403-8.57c0,0,0.675,0-3.86,0"/>
		</g>
		<g>
			<g>
				<g>
					<path fill="#5BA4C2" d="M879.404,358.29l-0.002-0.011l-4.629-9.117v-0.021l-0.005,0.01l-0.005-0.01l-0.004,0.027l-4.856,8.992
						l-0.008,0.034c-0.455,0.787-0.726,1.699-0.739,2.671c-0.039,3.02,2.379,5.5,5.399,5.54c3.02,0.036,5.496-2.381,5.536-5.4
						C880.101,360.021,879.851,359.093,879.404,358.29z"/>
					<g>
						<g>
							<path fill="#72ADC8" d="M872.967,365.123c-0.028,0-0.06-0.003-0.091-0.01c-2.691-0.545-3.084-3.43-2.92-4.883
								c0.03-0.265,0.268-0.451,0.535-0.424c0.265,0.031,0.456,0.271,0.425,0.535c-0.014,0.14-0.337,3.32,2.152,3.823
								c0.262,0.052,0.43,0.309,0.378,0.569C873.399,364.969,873.193,365.126,872.967,365.123z"/>
						</g>
					</g>
				</g>
				<path fill="#72ADC8" d="M880.09,361.005c0.011-0.984-0.239-1.912-0.686-2.715l-0.002-0.011l-4.629-9.117v-0.021l-0.005,0.01
					l-0.005-0.01v17.254C877.685,366.32,880.051,363.955,880.09,361.005z"/>
				<g>
					<g>
						<path fill="#E2D4D5" d="M876.907,357.718l-1.005-2.694c-0.081-0.181-0.146-0.508,0.034-0.588s0.37,0.174,0.449,0.353
							l1.303,2.526c0.079,0.181,0.034,0.527-0.145,0.606C877.207,358.072,876.966,357.86,876.907,357.718z"/>
					</g>
					
						<ellipse transform="matrix(0.9969 -0.0787 0.0787 0.9969 -25.5269 70.2339)" fill="#E2D4D5" cx="877.833" cy="358.809" rx="0.521" ry="0.551"/>
				</g>
			</g>
			<g>
				<g>
					<path fill="#5BA4C2" d="M879.674,374.194l-0.001-0.005l-2.555-5.033v-0.013l-0.003,0.007l-0.002-0.007l-0.002,0.015
						l-2.681,4.963l-0.004,0.021c-0.251,0.433-0.4,0.937-0.408,1.473c-0.022,1.667,1.313,3.035,2.98,3.058
						c1.667,0.021,3.033-1.313,3.055-2.981C880.06,375.148,879.92,374.638,879.674,374.194z"/>
					<g>
						<g>
							<path fill="#72ADC8" d="M876.122,377.965c-0.017,0-0.034-0.002-0.051-0.004c-1.485-0.301-1.703-1.895-1.611-2.697
								c0.015-0.145,0.147-0.248,0.295-0.232c0.145,0.018,0.251,0.149,0.233,0.295c-0.008,0.078-0.185,1.833,1.189,2.111
								c0.144,0.028,0.237,0.168,0.208,0.313C876.36,377.881,876.246,377.967,876.122,377.965z"/>
						</g>
					</g>
				</g>
				<path fill="#72ADC8" d="M880.053,375.691c0.007-0.543-0.132-1.054-0.378-1.497l-0.001-0.005l-2.555-5.033v-0.013l-0.003,0.007
					l-0.002-0.007v9.524C878.725,378.626,880.032,377.32,880.053,375.691z"/>
				<g>
					<g>
						<path fill="#E2D4D5" d="M878.296,373.879l-0.556-1.488c-0.044-0.1-0.08-0.279,0.02-0.324c0.099-0.044,0.205,0.096,0.247,0.196
							l0.719,1.394c0.044,0.1,0.019,0.289-0.081,0.334C878.462,374.074,878.329,373.956,878.296,373.879z"/>
					</g>
					
						<ellipse transform="matrix(0.9969 -0.0781 0.0781 0.9969 -26.55 69.7414)" fill="#E2D4D5" cx="878.807" cy="374.479" rx="0.288" ry="0.304"/>
				</g>
			</g>
		</g>
	</g>
	<g>
		<path fill="none" stroke="#5BA4C2" stroke-width="1.391" stroke-miterlimit="10" d="M440.593,208.812h8.506
			c4.582,0,8.3-3.717,8.3-8.303v-2.683c0-1.057-0.857-1.914-1.915-1.914c-1.057,0-1.914,0.857-1.914,1.914v2.683
			c0,4.586,3.719,8.303,8.3,8.303"/>
		<g>
			<path fill="none" stroke="#5BA4C2" stroke-width="1.391" stroke-miterlimit="10" d="M440.593,208.812c-4.535,0-32.86,0-32.86,0
				c-5.086,0-6.403,2.448-6.403,8.57c0,5.745,0.563,88.75,0.563,95.154c0,6.028-1.604,9.135-5.651,10.268v0.377
				c4.048,1.129,5.651,4.142,5.651,10.266c0,6.402-0.563,11.302-0.563,17.049"/>
		</g>
		<g>
			<g>
				<g>
					<path fill="#5BA4C2" d="M396.928,358.29l0.002-0.011l4.629-9.117v-0.021l0.005,0.01l0.005-0.01l0.004,0.027l4.856,8.992
						l0.008,0.034c0.455,0.787,0.726,1.699,0.739,2.671c0.039,3.02-2.379,5.5-5.399,5.54c-3.02,0.036-5.496-2.381-5.536-5.4
						C396.231,360.021,396.481,359.093,396.928,358.29z"/>
					<g>
						<g>
							<path fill="#72ADC8" d="M403.365,365.123c0.028,0,0.06-0.003,0.091-0.01c2.691-0.545,3.084-3.43,2.92-4.883
								c-0.03-0.265-0.268-0.451-0.535-0.424c-0.265,0.031-0.456,0.271-0.425,0.535c0.014,0.14,0.337,3.32-2.152,3.823
								c-0.262,0.052-0.43,0.309-0.378,0.569C402.933,364.969,403.139,365.126,403.365,365.123z"/>
						</g>
					</g>
				</g>
				<path fill="#72ADC8" d="M396.242,361.005c-0.011-0.984,0.239-1.912,0.686-2.715l0.002-0.011l4.629-9.117v-0.021l0.005,0.01
					l0.005-0.01v17.254C398.647,366.32,396.281,363.955,396.242,361.005z"/>
				<g>
					<g>
						<path fill="#E2D4D5" d="M399.425,357.718l1.005-2.694c0.081-0.181,0.146-0.508-0.034-0.588s-0.37,0.174-0.449,0.353
							l-1.303,2.526c-0.079,0.181-0.034,0.527,0.145,0.606C399.125,358.072,399.366,357.86,399.425,357.718z"/>
					</g>
					
						<ellipse transform="matrix(-0.9969 -0.0787 0.0787 -0.9969 767.509 747.8807)" fill="#E2D4D5" cx="398.499" cy="358.809" rx="0.521" ry="0.551"/>
				</g>
			</g>
			<g>
				<g>
					<path fill="#5BA4C2" d="M396.658,374.194l0.001-0.005l2.555-5.033v-0.013l0.003,0.007l0.002-0.007l0.002,0.015l2.681,4.963
						l0.004,0.021c0.251,0.433,0.4,0.937,0.408,1.473c0.022,1.667-1.313,3.035-2.98,3.058c-1.667,0.021-3.033-1.313-3.055-2.981
						C396.272,375.148,396.412,374.638,396.658,374.194z"/>
					<g>
						<g>
							<path fill="#72ADC8" d="M400.21,377.965c0.017,0,0.034-0.002,0.051-0.004c1.485-0.301,1.703-1.895,1.611-2.697
								c-0.015-0.145-0.147-0.248-0.295-0.232c-0.145,0.018-0.251,0.149-0.233,0.295c0.008,0.078,0.185,1.833-1.189,2.111
								c-0.144,0.028-0.237,0.168-0.208,0.313C399.972,377.881,400.086,377.967,400.21,377.965z"/>
						</g>
					</g>
				</g>
				<path fill="#72ADC8" d="M396.279,375.691c-0.007-0.543,0.132-1.054,0.378-1.497l0.001-0.005l2.555-5.033v-0.013l0.003,0.007
					l0.002-0.007v9.524C397.607,378.626,396.3,377.32,396.279,375.691z"/>
				<g>
					<g>
						<path fill="#E2D4D5" d="M398.036,373.879l0.556-1.488c0.044-0.1,0.08-0.279-0.02-0.324c-0.099-0.044-0.205,0.096-0.247,0.196
							l-0.719,1.394c-0.044,0.1-0.019,0.289,0.081,0.334C397.87,374.074,398.003,373.956,398.036,373.879z"/>
					</g>
					
						<ellipse transform="matrix(-0.9969 -0.0781 0.0781 -0.9969 764.6049 778.8467)" fill="#E2D4D5" cx="397.525" cy="374.479" rx="0.288" ry="0.304"/>
				</g>
			</g>
		</g>
	</g>
</g>
<g id="Muchas_Gracias">
	<g>
		<g>
			<path fill="#2B4E6B" d="M487.528,194.376h0.989v15.975h-3.19l0.022-8.779l-4.026,4.225l-4.026-4.225v8.779h-3.191v-15.975h1.013
				l6.205,6.908L487.528,194.376z"/>
			<path fill="#2B4E6B" d="M491.617,210.351v-15.732h3.146v15.732H491.617z"/>
			<path fill="#2B4E6B" d="M505.699,210.351l-3.169-6.008h-1.519v6.008h-3.146v-15.732h6.205c5.611,0,6.161,7.898,1.541,9.241
				l3.652,6.491H505.699z M501.012,201.284h2.772c2.135,0,2.135-3.52,0-3.52h-2.772V201.284z"/>
			<path fill="#2B4E6B" d="M516.125,194.046h0.33l6.623,16.305h-3.542l-0.639-1.695h-5.215l-0.615,1.695h-3.565L516.125,194.046z
				 M517.731,205.708l-1.43-4.094l-1.475,4.094H517.731z"/>
			<path fill="#2B4E6B" d="M537.928,197.589c-6.227,0-6.227,9.593,0,9.593c1.364,0,2.442-0.396,3.037-0.704l0.418,3.256
				c-0.969,0.396-2.354,0.66-3.455,0.66c-10.671,0-10.649-15.974,0-15.974c1.101,0,2.156,0.198,3.103,0.616l-0.374,3.234
				C540.062,197.962,539.292,197.589,537.928,197.589z"/>
			<path fill="#2B4E6B" d="M551.019,194.354c10.826,0,10.826,16.217,0,16.217C540.193,210.57,540.193,194.354,551.019,194.354z
				 M551.019,197.589c-6.293,0-6.293,9.725,0,9.725S557.312,197.589,551.019,197.589z"/>
			<path fill="#2B4E6B" d="M575.065,194.376h0.989v15.975h-3.19l0.022-8.779l-4.026,4.225l-4.026-4.225v8.779h-3.191v-15.975h1.013
				l6.205,6.908L575.065,194.376z"/>
			<path fill="#2B4E6B" d="M586.725,194.354c10.826,0,10.826,16.217,0,16.217C575.899,210.57,575.899,194.354,586.725,194.354z
				 M586.725,197.589c-6.293,0-6.293,9.725,0,9.725S593.018,197.589,586.725,197.589z"/>
			<path fill="#2B4E6B" d="M606.303,197.765v3.146h4.005v3.146h-4.005v6.293h-3.146v-15.732h7.855v3.146H606.303z"/>
			<path fill="#2B4E6B" d="M613.079,204.871v-10.253h3.146v10.231c0,3.3,5.105,3.3,5.105,0v-10.231h3.124v10.253
				C624.455,212.353,613.079,212.353,613.079,204.871z"/>
			<path fill="#2B4E6B" d="M630.635,210.351h-3.146v-16.062h0.837l7.942,9.241v-8.89h3.169v16.041h-0.836l-7.966-8.89V210.351z"/>
			<path fill="#2B4E6B" d="M649.82,197.589c-6.227,0-6.227,9.593,0,9.593c1.364,0,2.442-0.396,3.037-0.704l0.418,3.256
				c-0.969,0.396-2.354,0.66-3.455,0.66c-10.671,0-10.649-15.974,0-15.974c1.101,0,2.156,0.198,3.103,0.616l-0.374,3.234
				C651.955,197.962,651.185,197.589,649.82,197.589z"/>
			<path fill="#2B4E6B" d="M655.342,210.351v-15.732h3.146v15.732H655.342z"/>
			<path fill="#2B4E6B" d="M669.158,194.354c10.826,0,10.826,16.217,0,16.217C658.333,210.57,658.333,194.354,669.158,194.354z
				 M669.158,197.589c-6.293,0-6.293,9.725,0,9.725S675.451,197.589,669.158,197.589z"/>
			<path fill="#2B4E6B" d="M682.929,210.351h-3.146v-16.062h0.836l7.942,9.241v-8.89h3.169v16.041h-0.836l-7.966-8.89V210.351z"/>
			<path fill="#2B4E6B" d="M700.045,194.046h0.33l6.623,16.305h-3.542l-0.639-1.695h-5.215l-0.615,1.695h-3.565L700.045,194.046z
				 M701.651,205.708l-1.43-4.094l-1.475,4.094H701.651z"/>
			<path fill="#2B4E6B" d="M714.564,210.351v-15.732h7.878v3.146h-4.731v3.146h4.137v3.146h-4.137v3.146h4.995v3.146H714.564z"/>
			<path fill="#2B4E6B" d="M724.884,206.038c1.804,1.275,3.762,1.319,4.488,1.254c0.924-0.066,1.716-0.727,1.628-1.584
				c-0.065-0.902-0.748-1.299-1.628-1.607c-2.465-0.901-4.665-2.156-4.665-4.796c0-2.641,1.826-4.665,4.445-4.797
				c0.813-0.044,1.892-0.044,3.916,0.66l-0.396,3.036c-1.738-0.704-2.729-0.682-3.213-0.66c-1.122,0.066-1.628,0.881-1.562,1.761
				c0.088,0.88,0.858,1.276,1.761,1.584c2.442,0.902,4.555,2.311,4.555,4.819c0,2.617-1.805,4.62-4.753,4.774
				c-0.88,0.065-2.839-0.044-4.973-1.145L724.884,206.038z"/>
			<path fill="#2B4E6B" d="M739.007,210.351v-12.586h-3.916v-3.125h10.979v3.125h-3.917v12.586H739.007z"/>
			<path fill="#2B4E6B" d="M751.834,194.046h0.33l6.623,16.305h-3.542l-0.639-1.695h-5.215l-0.615,1.695h-3.565L751.834,194.046z
				 M753.44,205.708l-1.43-4.094l-1.475,4.094H753.44z"/>
			<path fill="#2B4E6B" d="M771.568,194.046h0.33l6.623,16.305h-3.542l-0.639-1.695h-5.215l-0.615,1.695h-3.565L771.568,194.046z
				 M773.175,205.708l-1.43-4.094l-1.475,4.094H773.175z"/>
			<path fill="#2B4E6B" d="M780.279,210.351V194.64h6.184c6.116,0,6.095,9.703,0,9.703h-3.037v6.008H780.279z M786.198,201.284
				c2.112,0,2.112-3.52,0-3.52h-2.772v3.52H786.198z"/>
			<path fill="#2B4E6B" d="M793.105,210.351V194.64h6.183c6.116,0,6.095,9.703,0,9.703h-3.037v6.008H793.105z M799.023,201.284
				c2.112,0,2.112-3.52,0-3.52h-2.772v3.52H799.023z"/>
		</g>
	</g>
</g>
</svg>
