<?xml version="1.0" encoding="utf-8"?>
<!-- Generator: Adobe Illustrator 16.0.0, SVG Export Plug-In . SVG Version: 6.00 Build 0)  -->
<!DOCTYPE svg PUBLIC "-//W3C//DTD SVG 1.1//EN" "http://www.w3.org/Graphics/SVG/1.1/DTD/svg11.dtd">
<svg version="1.1" xmlns="http://www.w3.org/2000/svg" xmlns:xlink="http://www.w3.org/1999/xlink" x="0px" y="0px" width="1280px"
	 height="698.8px" viewBox="0 0 1280 698.8" style="enable-background:new 0 0 1280 698.8;" xml:space="preserve">
<g id="Globa_Cerebro">
	<g>
		<path style="fill:#D4EAE1;" d="M422.2,246.1c3.4,0,91.6,0.4,94.7,0.4c3.2,0,4.2-0.6,4.2-3.3v-54.9c0-2.7-1-3.4-4.2-3.4
			c-3,0-91.4,0.2-94.8,0.2c-3.2,0-4.6-0.1-5.2-3.1h-0.2c-0.6,3-2.2,3.1-5.4,3.1c-3.4,0-90.3-0.3-93.3-0.3c-3.2,0-4.8,0.7-4.8,3.4
			v54.9c0,2.7,1.6,3.4,4.8,3.4c3,0,89.8-0.4,93.1-0.4c3.2,0,5,1.9,5.6,2.9h0.2C417.4,248,418.9,246.1,422.2,246.1z"/>
		<g>
			<text transform="matrix(1 0 0 1 332.6953 213.2275)"><tspan x="0" y="0" style="fill:#5BA4C2; font-family:'NeoSansStd-Medium'; font-size:10;">Una deshidratación moderada puede</tspan><tspan x="11.1" y="12" style="fill:#5BA4C2; font-family:'NeoSansStd-Medium'; font-size:10;">causar dolor de cabeza y mareo.</tspan></text>
		</g>
	</g>
	<g>
		<g>
			<g>
				<path style="fill:none;stroke:#D4EAE1;stroke-miterlimit:10;" d="M580.8,430.3c1.3-1.3,1.3-3.5,0-4.8c-1.3-1.3-3.5-1.3-4.8,0
					c-1.3,1.3-1.3,3.5,0,4.8C577.2,431.6,579.4,431.6,580.8,430.3z"/>
			</g>
		</g>
		<polyline style="fill:none;stroke:#D4EAE1;stroke-miterlimit:10;" points="416.5,260 416.5,317.5 575.3,426.3 		"/>
	</g>
</g>
<g id="Circulo_Gota_Cerebro">
	<g>
		<g>
			<circle style="fill:none;stroke:#D4EAE1;stroke-miterlimit:10;" cx="416.3" cy="133.1" r="37.8"/>
		</g>
	</g>
</g>
<g id="Gota_Cerebro">
	<g>
		<g>
			<g>
				<path style="fill:#76B3CC;" d="M389.7,118.6L389.7,118.6l26.1-51.5V67l0,0.1l0-0.1l0,0.2l27.4,50.7l0,0.2
					c2.6,4.4,4.1,9.6,4.2,15.1c0.2,17-13.4,31-30.5,31.3c-17,0.2-31-13.4-31.2-30.5C385.8,128.4,387.2,123.2,389.7,118.6z"/>
			</g>
			<path style="fill:#8BBFD4;" d="M385.9,134c-0.1-5.6,1.4-10.8,3.9-15.3l0-0.1l26.1-51.4V67l0,0.1l0-0.1v97.4
				C399.4,163.9,386.1,150.6,385.9,134z"/>
		</g>
		<g>
			<g>
				<g>
					<g>
						<path style="fill:#D4EAE1;" d="M398.4,146.9c-0.7,0-1.7-0.1-2.1-0.2c-0.2,0-0.3-0.1-0.3-0.3c-0.2-2.3-0.4-4.7-0.5-7
							c0-0.2,0.1-0.3,0.3-0.3c0.3,0,1.3-0.1,2.1-0.1c2.1,0,3.4,1.2,3.5,3.3c0,0.5,0.1,1,0.1,1.6C401.6,145.9,400.5,147,398.4,146.9z
							 M399.9,142.2c-0.1-1.6-0.9-2-2-2c-0.4,0-0.7,0-0.9,0c0.1,1.8,0.2,3.6,0.4,5.4c0.2,0,0.5,0,0.9,0.1c1,0,1.8-0.3,1.7-1.9
							C400,143.2,399.9,142.7,399.9,142.2z"/>
						<path style="fill:#D4EAE1;" d="M407.4,147c-0.3,0-0.7,0.1-2,0.1c-1.4,0-2.4-0.4-2.5-2.2c-0.1-1.2-0.1-2.5-0.2-3.7
							c-0.1-1.8,1-2.2,2.4-2.1c1.3,0,1.7,0.1,2,0.2c0.2,0,0.2,0.1,0.2,0.2c0,0.2,0,0.5,0,0.7c0,0.1-0.1,0.2-0.2,0.2
							c-0.7,0-1.5,0-2.2,0c-0.6,0-0.8,0.2-0.8,0.9c0,0.4,0,0.8,0,1.2c1,0,1.9,0,2.9,0c0.1,0,0.2,0.1,0.2,0.2c0,0.3,0,0.5,0,0.8
							c0,0.1-0.1,0.2-0.2,0.2c-1,0-1.9,0-2.9-0.1c0,0.5,0,0.9,0.1,1.4c0,0.7,0.3,0.9,0.9,0.9c0.7,0,1.4,0,2.1,0
							c0.1,0,0.2,0.1,0.2,0.2c0,0.2,0,0.5,0,0.7C407.6,146.9,407.6,147,407.4,147z"/>
						<path style="fill:#D4EAE1;" d="M417.2,147.2c-0.4,0-0.7,0-1.1,0c-0.1,0-0.2-0.1-0.2-0.2c-0.2-0.7-0.3-1.4-0.5-2.1
							c-0.8,0-1.6,0-2.4,0c-0.1,0.7-0.3,1.4-0.4,2c0,0.1-0.1,0.2-0.2,0.2c-0.4,0-0.7,0-1.1,0c-0.1,0-0.2-0.1-0.2-0.2c0,0,0,0,0-0.1
							c0.5-2.2,1-4.5,1.6-6.7c0.2-1,1-1.1,1.5-1.1c0.5,0,1.2,0.1,1.5,1.1c0.6,2.3,1.2,4.5,1.8,6.8c0,0,0,0,0,0.1
							C417.4,147.1,417.3,147.2,417.2,147.2z M414.3,140.5c0-0.1-0.1-0.2-0.2-0.2c-0.1,0-0.1,0-0.2,0.2c-0.2,1.1-0.5,2.1-0.7,3.2
							c0.6,0,1.2,0,1.9,0C414.8,142.6,414.6,141.6,414.3,140.5z"/>
						<path style="fill:#D4EAE1;" d="M423.2,147c-0.5,0.1-1.2,0.2-2.3,0.2c-1.1,0-2.8-0.8-2.8-3.3c0-0.5,0-1,0-1.6
							c0-2.6,1.6-3.3,2.9-3.3c1,0,1.9,0.1,2.3,0.2c0.1,0,0.2,0.1,0.2,0.2c0,0.2,0,0.5,0,0.7c0,0.2,0,0.2-0.2,0.2c0,0,0,0,0,0
							c-0.5,0-1.2-0.1-2.3-0.1c-0.7,0-1.4,0.5-1.4,2c0,0.5,0,1,0,1.6c0,1.5,0.7,2,1.3,2c0.4,0,0.7,0,1,0c0-0.9,0-1.8,0.1-2.7
							c0-0.1,0.1-0.2,0.2-0.2c0.4,0,0.7,0,1.1,0c0.1,0,0.2,0.1,0.2,0.2c0,1.2-0.1,2.4-0.1,3.6C423.4,146.9,423.4,147,423.2,147z"/>
						<path style="fill:#D4EAE1;" d="M427.8,147.1c-1.7,0-2.8-0.7-2.8-3c0-1.6,0.1-3.2,0.1-4.8c0-0.1,0.1-0.2,0.2-0.2
							c0.4,0,0.7,0,1.1,0c0.1,0,0.2,0.1,0.2,0.2c0,1.6-0.1,3.2-0.1,4.8c0,1.2,0.2,1.8,1.4,1.8c1.1,0,1.5-0.6,1.5-1.8
							c0.1-1.6,0.1-3.2,0.2-4.8c0-0.1,0.1-0.2,0.2-0.2c0.4,0,0.7,0,1.1,0c0.1,0,0.2,0.1,0.2,0.2c0,1.6-0.1,3.2-0.2,4.8
							C430.7,146.3,429.5,147.1,427.8,147.1z"/>
						<path style="fill:#D4EAE1;" d="M437.8,146.7c-0.4,0-0.7,0-1.1,0c-0.1,0-0.2-0.1-0.2-0.2c-0.1-0.7-0.2-1.3-0.3-2
							c-0.8,0-1.6,0.1-2.4,0.1c-0.2,0.7-0.4,1.3-0.6,2c0,0.1-0.1,0.2-0.2,0.2c-0.4,0-0.7,0-1.1,0c-0.1,0-0.2-0.1-0.2-0.2
							c0,0,0,0,0-0.1c0.7-2.2,1.4-4.5,2.1-6.7c0.3-1,1.1-1.1,1.5-1.1c0.5,0,1.2,0.1,1.4,1c0.5,2.2,0.9,4.3,1.2,6.5c0,0,0,0,0,0.1
							C437.9,146.6,437.9,146.7,437.8,146.7z M435.4,140.3c0-0.1-0.1-0.2-0.2-0.2c-0.1,0-0.1,0-0.2,0.2c-0.3,1-0.6,2.1-0.9,3.2
							c0.6,0,1.2,0,1.9-0.1C435.8,142.4,435.6,141.4,435.4,140.3z"/>
					</g>
				</g>
				<g>
					<g>
						<path style="fill:#D4EAE1;" d="M406.4,122.3c-2.2,4.4-4.3,8.8-6.3,13.1c-0.1,0.3-0.3,0.4-0.6,0.4c-1.1,0-2.1,0-3.2,0
							c-0.3,0-0.4-0.1-0.4-0.3c0-0.1,0-0.2,0.1-0.2c2-4.3,4.3-8.6,6.6-13c0,0,0-0.1,0-0.1c0-0.1-0.1-0.1-0.2-0.1
							c-2.1,0.1-4.2,0.1-6.3,0.2c-0.2,0-0.5-0.2-0.4-0.4c0.1-0.7,0.1-1.5,0.2-2.2c0-0.2,0.3-0.4,0.5-0.4c3.2-0.1,6.5-0.3,9.7-0.3
							c0.4,0,0.7,0.3,0.7,0.7c0,0.6-0.1,1.1-0.1,1.7C406.8,121.5,406.6,121.8,406.4,122.3z"/>
						<path style="fill:#D4EAE1;" d="M413.8,136.1c-1.5,0-3.2-0.3-4.6-0.7c-0.2-0.1-0.5-0.2-0.5-0.5c0-0.6,0-1.2,0-1.8
							c0-0.3,0.2-0.4,0.4-0.4c0,0,0,0,0,0c1.5,0.2,3.3,0.3,4.2,0.3c2.2,0,2.7-0.9,2.7-2.5c0-0.1,0-0.1,0-0.2c0-1.6-0.7-2.1-3.3-2.1
							c-1.2,0-2.4,0-3.6,0c-0.2,0-0.3-0.2-0.3-0.3c0,0,0,0,0,0c0.3-2.9,0.6-5.7,0.9-8.6c0-0.2,0.2-0.4,0.5-0.4c2.9,0,5.8-0.1,8.7,0
							c0.2,0,0.5,0.2,0.5,0.4c0,0.8,0,1.5,0,2.3c0,0.3-0.2,0.4-0.5,0.4c-2.1,0-4.1,0-6.2,0c-0.1,1.1-0.2,2.1-0.3,3.2
							c0.2,0,0.4,0,0.7,0c4,0,6.8,1.1,6.9,5.2c0,0.1,0,0.1,0,0.2C420.1,134.1,417.9,136.1,413.8,136.1z"/>
						<path style="fill:#D4EAE1;" d="M424.8,128.2c-2.2,0-3.4-1.3-3.5-4c0-0.6,0-1.2,0-1.7c0-2.7,1.1-3.9,3.2-3.9
							c2.1,0,3.4,1.3,3.5,4c0,0.6,0,1.1,0.1,1.7C428.2,127,427,128.2,424.8,128.2z M425.8,122.6c0-1.6-0.5-2-1.1-2
							c-0.7,0-1.1,0.4-1,1.9c0,0.6,0,1.2,0,1.7c0,1.6,0.5,2,1.1,2c0.7,0,1.1-0.4,1-2C425.8,123.7,425.8,123.1,425.8,122.6z
							 M436,119.5c-2.6,5.2-5.8,10.5-9,15.9c-0.2,0.3-0.3,0.5-0.5,0.5c-0.8,0-1.6,0-2.4,0c-0.2,0-0.3-0.1-0.3-0.3
							c0-0.1,0-0.1,0.1-0.2c3.2-5.4,6.4-10.8,9.1-16c0.2-0.3,0.3-0.4,0.5-0.4c0.8,0,1.5,0.1,2.3,0.1c0.2,0,0.2,0.1,0.2,0.2
							C436.1,119.3,436.1,119.4,436,119.5z M435.6,135.9c-2.2,0-3.4-1.2-3.4-3.9c0-0.6,0-1.1,0-1.7c0-2.6,1.2-3.9,3.3-3.9
							c2.2,0,3.5,1.3,3.5,3.9c0,0.6,0,1.1,0,1.7C439.1,134.6,437.8,135.9,435.6,135.9z M436.7,130.3c0-1.5-0.5-1.9-1.1-1.9
							c-0.7,0-1.1,0.4-1.1,1.9c0,0.6,0,1.1,0,1.7c0,1.5,0.4,1.9,1.1,1.9c0.7,0,1.1-0.4,1.1-1.9C436.8,131.5,436.8,130.9,436.7,130.3
							z"/>
					</g>
				</g>
			</g>
		</g>
	</g>
</g>
<g id="Banner_Cerebro">
	<g>
		<g>
			<path style="fill:#E2D4D5;" d="M358.9,105.5c2.6,2.5,5.2,5.1,7.7,7.7c0.5,3.6,1,7.2,1.7,10.7c3.4-1.8,7-3.3,10.5-4.7
				c-2.4-6.4-4.9-12.9-7.3-19.3C367.3,101.5,363.1,103.4,358.9,105.5z"/>
			<path style="fill:#DBDBDB;" d="M462.9,96.7c-29.9-11.4-62.3-11.2-92.2,0.2c2.5,6.4,4.2,12.7,6.7,19.1c25.2-9.6,53-9.6,78.2,0
				C458,109.5,460.5,103.1,462.9,96.7z"/>
			<path style="fill:#E2D4D5;" d="M473.5,106.6c-2.6,2.5-5.2,5.1-7.7,7.8c-0.5,3.6-1.1,7.1-1.7,10.7c-3.4-1.7-6.9-3.3-10.4-4.6
				c2.4-6.4,4.9-12.9,7.3-19.3C465.3,102.7,469.4,104.5,473.5,106.6z"/>
		</g>
		<path style="fill:#F5E5E5;" d="M415.9,88.2c-15.7-0.1-30.2,3-45.2,8.7c2.5,6.6,4.2,12.6,6.7,19.1c12.5-4.7,25.3-7.3,38.5-7.2
			C415.9,103.6,415.9,97.1,415.9,88.2z"/>
		<g>
			<path style="fill:#F8A68C;" d="M394.1,104.1c-0.3,0.1-0.7,0.3-1.8,0.5c-1.3,0.3-2.3,0.2-2.7-1.5c-0.3-1.2-0.5-2.3-0.8-3.5
				c-0.4-1.7,0.6-2.3,1.9-2.6c1.2-0.3,1.7-0.2,2-0.3c0.2,0,0.2,0,0.2,0.2c0,0.2,0.1,0.4,0.1,0.6c0,0.1-0.1,0.2-0.2,0.2
				c-0.7,0.1-1.4,0.3-2.1,0.4c-0.6,0.1-0.8,0.4-0.6,1c0.1,0.4,0.2,0.7,0.2,1.1c0.9-0.2,1.8-0.4,2.7-0.6c0.1,0,0.2,0.1,0.2,0.2
				c0,0.2,0.1,0.5,0.1,0.7c0,0.1-0.1,0.2-0.2,0.2c-0.9,0.2-1.8,0.4-2.7,0.6c0.1,0.4,0.2,0.9,0.3,1.3c0.1,0.7,0.4,0.8,1,0.7
				c0.7-0.1,1.3-0.3,2-0.4c0.1,0,0.2,0.1,0.2,0.2c0,0.2,0.1,0.4,0.1,0.6C394.3,104,394.2,104.1,394.1,104.1z"/>
			<path style="fill:#F8A68C;" d="M396.3,103.8c-0.3,0.1-0.6,0.1-0.9,0.2c-0.1,0-0.2-0.1-0.2-0.2c-0.4-2.4-0.9-4.8-1.3-7.2
				c0-0.1,0.1-0.2,0.2-0.2c0.3-0.1,0.6-0.1,1-0.2c0.1,0,0.2,0.1,0.2,0.2c0.4,2.4,0.8,4.8,1.3,7.2
				C396.5,103.7,396.4,103.8,396.3,103.8z"/>
			<path style="fill:#F8A68C;" d="M403.7,102.6c-0.1,0.1-0.8,0.3-1.5,0.3c-1.2,0.1-2.9-0.2-3.2-2.7c-0.1-0.5-0.1-1-0.2-1.5
				c-0.4-2.5,1.2-3.3,2.5-3.5c0.8-0.1,1.5-0.1,1.7,0c0.1,0,0.2,0.1,0.3,0.2c0,0.2,0,0.5,0.1,0.7c0,0.1,0,0.2-0.2,0.2c0,0,0,0,0,0
				c-0.4,0-1.1,0-1.6,0.1c-0.9,0.1-1.4,0.7-1.2,2.1c0.1,0.5,0.1,1,0.2,1.5c0.2,1.4,0.9,1.8,1.7,1.7c0.5-0.1,1.2-0.2,1.5-0.3
				c0,0,0,0,0,0c0.2,0,0.2,0.1,0.2,0.2c0,0.2,0,0.5,0.1,0.7C403.9,102.5,403.8,102.6,403.7,102.6z"/>
			<path style="fill:#F8A68C;" d="M408.8,99.9c-1.1,0.1-2.2,0.2-3.3,0.3c0,0,0,0,0,0c0.1,0.6,0.4,1.3,1.3,1.2
				c0.7-0.1,1.4-0.2,1.8-0.2c0,0,0,0,0,0c0.1,0,0.2,0,0.2,0.1c0,0.2,0,0.4,0,0.7c0,0.2,0,0.2-0.2,0.3c-0.6,0.2-1,0.2-1.9,0.3
				c-1,0.1-2.4-0.3-2.7-2.3c0-0.2-0.1-0.5-0.1-0.8c-0.2-1.6,0.6-2.7,2.2-2.8c1.6-0.1,2.5,0.9,2.6,2.4c0,0.2,0,0.4,0,0.6
				C409,99.8,409,99.9,408.8,99.9z M407.6,99c-0.1-0.8-0.5-1.2-1.2-1.2c-0.6,0.1-1.1,0.5-1,1.3c0,0,0,0,0,0
				C406.2,99.1,406.9,99,407.6,99C407.6,99,407.6,99,407.6,99z"/>
			<path style="fill:#F8A68C;" d="M412.4,97.4c-0.6,0-1,0.2-1.4,0.4c0.1,1.4,0.1,2.7,0.2,4.1c0,0.1-0.1,0.2-0.2,0.2
				c-0.3,0-0.6,0-0.9,0c-0.1,0-0.2-0.1-0.2-0.2c-0.1-1.8-0.2-3.5-0.3-5.3c0-0.1,0.1-0.2,0.2-0.2c0.3,0,0.6,0,0.9,0
				c0.1,0,0.2,0.1,0.2,0.2c0,0.1,0,0.1,0,0.2c0.5-0.4,1-0.5,1.5-0.5c0.1,0,0.2,0.1,0.2,0.2c0,0.2,0,0.5,0,0.7
				C412.6,97.3,412.5,97.4,412.4,97.4z"/>
			<path style="fill:#F8A68C;" d="M417.4,99.6c-1.1,0-2.2,0-3.3,0c0,0,0,0,0,0c0,0.6,0.3,1.3,1.2,1.3c0.7,0,1.4-0.1,1.8-0.1
				c0,0,0,0,0,0c0.1,0,0.2,0.1,0.2,0.2c0,0.2,0,0.4,0,0.7c0,0.2,0,0.2-0.2,0.3c-0.6,0.1-1,0.2-1.9,0.2c-1,0-2.4-0.5-2.5-2.5
				c0-0.3,0-0.5,0-0.8c-0.1-1.6,0.8-2.6,2.4-2.6c1.6,0,2.5,1.1,2.5,2.6c0,0.2,0,0.4,0,0.6C417.6,99.5,417.6,99.6,417.4,99.6z
				 M416.3,98.6c0-0.8-0.4-1.3-1.1-1.2c-0.6,0-1.1,0.5-1.1,1.3c0,0,0,0,0,0C414.8,98.7,415.5,98.7,416.3,98.6
				C416.3,98.6,416.3,98.6,416.3,98.6z"/>
			<path style="fill:#F8A68C;" d="M420.6,102.2c-0.6,0-1.4-0.1-2-0.3c-0.2-0.1-0.3-0.1-0.3-0.3c0-2.4,0.1-4.7,0.1-7.1
				c0-0.1,0.1-0.2,0.2-0.2c0.3,0,0.6,0,1,0c0.1,0,0.2,0.1,0.2,0.2c0,0.6,0,1.2,0,1.8c0.4,0,0.8,0,1,0c1.7,0.1,2.4,1.1,2.3,2.7
				c0,0.3,0,0.5,0,0.8C423,101.3,422.2,102.2,420.6,102.2z M421.8,98.9c0-0.8-0.2-1.5-1-1.5c-0.2,0-0.7,0-1,0c0,1.2-0.1,2.4-0.1,3.6
				c0.2,0,0.6,0.1,1,0.1c0.9,0,1.1-0.6,1.1-1.4C421.8,99.4,421.8,99.1,421.8,98.9z"/>
			<path style="fill:#F8A68C;" d="M426.7,97.8c-0.6,0-1,0.1-1.4,0.3c-0.1,1.4-0.2,2.7-0.3,4.1c0,0.1-0.1,0.2-0.2,0.2
				c-0.3,0-0.6,0-0.9-0.1c-0.1,0-0.2-0.1-0.2-0.2c0.1-1.8,0.2-3.5,0.3-5.3c0-0.1,0.1-0.2,0.2-0.2c0.3,0,0.6,0,0.9,0.1
				c0.1,0,0.2,0.1,0.2,0.2c0,0.1,0,0.1,0,0.2c0.5-0.4,1.1-0.4,1.5-0.4c0.1,0,0.2,0.1,0.2,0.2c0,0.2,0,0.5-0.1,0.7
				C426.9,97.7,426.8,97.8,426.7,97.8z"/>
			<path style="fill:#F8A68C;" d="M428.9,102.8c-1.5-0.2-2.3-1.3-2.1-2.8c0-0.3,0-0.5,0.1-0.8c0.1-1.5,1.1-2.5,2.7-2.3
				c1.6,0.2,2.3,1.4,2.2,2.8c0,0.3-0.1,0.5-0.1,0.8C431.4,102,430.4,102.9,428.9,102.8z M430.3,99.5c0.1-0.8-0.2-1.4-0.9-1.5
				c-0.7-0.1-1.2,0.4-1.2,1.3c0,0.3-0.1,0.5-0.1,0.8c-0.1,0.8,0.2,1.4,0.9,1.5c0.7,0.1,1.1-0.4,1.2-1.2
				C430.2,100.1,430.3,99.8,430.3,99.5z"/>
			<path style="fill:#F8A68C;" d="M438.8,101.7c-1.1-0.2-2.2-0.4-3.3-0.6c0,0,0,0,0,0c-0.1,0.6,0,1.3,1,1.5c0.7,0.1,1.4,0.2,1.8,0.2
				c0,0,0,0,0,0c0.1,0,0.2,0.1,0.1,0.2c0,0.2-0.1,0.4-0.1,0.7c0,0.2-0.1,0.2-0.3,0.2c-0.7,0-1,0-1.9-0.2c-1-0.2-2.3-0.9-2-2.9
				c0-0.2,0.1-0.5,0.1-0.7c0.2-1.6,1.3-2.4,2.9-2.2c1.6,0.3,2.2,1.5,2,3c0,0.2-0.1,0.4-0.1,0.6C439,101.7,438.9,101.7,438.8,101.7z
				 M437.8,100.5c0.1-0.8-0.2-1.3-0.8-1.4c-0.6-0.1-1.2,0.3-1.3,1.1c0,0,0,0,0,0C436.4,100.3,437.1,100.4,437.8,100.5
				C437.8,100.6,437.8,100.5,437.8,100.5z"/>
			<path style="fill:#F8A68C;" d="M441,104.7c-0.4-0.1-1.2-0.3-1.7-0.6c-0.1-0.1-0.2-0.1-0.1-0.3c0-0.2,0.1-0.4,0.1-0.6
				c0-0.1,0.1-0.1,0.2-0.1c0,0,0,0,0,0c0.5,0.2,1.3,0.4,1.6,0.5c0.6,0.1,0.7-0.1,0.8-0.3c0-0.2,0-0.3-0.3-0.6
				c-0.4-0.4-0.8-0.8-1.2-1.1c-0.4-0.4-0.7-1-0.6-1.5c0.2-1,0.9-1.4,2.2-1.1c0.8,0.2,1.3,0.4,1.8,0.6c0.1,0.1,0.2,0.2,0.1,0.3
				c0,0.2-0.1,0.4-0.1,0.6c0,0.1-0.1,0.2-0.2,0.2c0,0,0,0,0,0c-0.3-0.1-1.1-0.4-1.6-0.5c-0.5-0.1-0.7,0-0.8,0.3
				c0,0.2,0.1,0.3,0.3,0.5c0.4,0.4,0.8,0.7,1.1,1.1c0.7,0.7,0.7,1.2,0.6,1.7C443.1,104.5,442.3,105,441,104.7z"/>
		</g>
	</g>
</g>
</svg>
