<?xml version="1.0" encoding="utf-8"?>
<!-- Generator: Adobe Illustrator 16.0.0, SVG Export Plug-In . SVG Version: 6.00 Build 0)  -->
<!DOCTYPE svg PUBLIC "-//W3C//DTD SVG 1.1//EN" "http://www.w3.org/Graphics/SVG/1.1/DTD/svg11.dtd">
<svg version="1.1" id="MASK" xmlns="http://www.w3.org/2000/svg" xmlns:xlink="http://www.w3.org/1999/xlink" x="0px" y="0px"
	 width="1280px" height="700px" viewBox="0 0 1280 700" style="enable-background:new 0 0 1280 700;" xml:space="preserve">
<path style="fill:#180000;" d="M861,259.4c-6.3-16.4-17.1-30.9-31-41.7c-14.1-10.9-31.1-17.8-48.8-19.6c-3.9-0.4-7.8-0.5-11.8-0.4
	c-8.1-16.4-20.1-30.7-34.5-42.1c-15.2-12-32.9-20.7-51.5-25.8c-13.1-3.6-26.5-5.3-40-5.4v0c-56.6,1-103.6,30.9-124.4,73.2
	c-18.2-0.4-36.3,4.3-51.9,13.8c-15,9.1-27.4,22.3-35.5,37.8c-8.6,16.4-12.3,35.1-10.8,53.6c1.6,19.6,9.2,38.6,21.7,53.8
	c7.4,9,16.4,16.6,26.6,22.2v0.5h13.7v0.7h6v-0.7h0.7c12.4,16.1,31.1,26.6,51.3,28.7c20,2,40.3-4.2,55.7-17.3
	c4.1,11.5,12.2,21,22.6,27c0,0,0,0,0,0.1c1.1,0.6,2.2,1.2,3.3,1.7c0,0,0,0,0,0c6,2.9,12.6,4.5,19.2,4.9c0,0,0,0,0,0
	c0.6,0,1.2,0.1,1.8,0.1v0c9.9,0,19.6-2.5,28-7.8c8-5.1,14.6-12.4,18.7-20.9c0.5-1.1,1-2.3,1.5-3.4c12.8,10.5,29.1,16.8,46.9,16.8v0
	c10.2,0,20.2-1.7,29.7-5.6c9.2-3.8,17.6-9.5,24.6-16.6c2.2-2.3,4.3-4.7,6.2-7.2l8,0c0.7,0,1.4-0.2,2.1-0.4c0.1,0,0.2,0,0.2,0h3.8h4
	h0h0.1h3.9h0h0.1h3.7h0h0.1c0.9,0,1.7-0.8,1.7-1.7v-3.9c17.9-12.5,31.2-31.5,37.1-53.5C869.5,300.3,868.5,278.7,861,259.4z"/>
</svg>
