<?xml version="1.0" encoding="utf-8"?>
<!-- Generator: Adobe Illustrator 16.0.0, SVG Export Plug-In . SVG Version: 6.00 Build 0)  -->
<!DOCTYPE svg PUBLIC "-//W3C//DTD SVG 1.1//EN" "http://www.w3.org/Graphics/SVG/1.1/DTD/svg11.dtd">
<svg version="1.1" id="Layer_1" xmlns="http://www.w3.org/2000/svg" xmlns:xlink="http://www.w3.org/1999/xlink" x="0px" y="0px"
	 width="1280px" height="700px" viewBox="0 0 1280 700" enable-background="new 0 0 1280 700" xml:space="preserve">
<g id="Jarra_Brillos">
	<g opacity="0.2">
		<path fill="#FFFFFF" d="M559.1,423.8c5.2-23.5,39.801-140.2,39.801-140.2c7-0.8,12.8,0,12.8,0s-32.9,119-35.8,140.2
			C573,445,583.3,478.9,635.5,486.1c0.1,0,0.1,0,0.2,0c-4.8,0-8.601,0-15.601,0c-0.3,0-0.6,0-1,0c-0.1,0-0.3,0-0.399,0
			C566.5,478.9,553.8,447.3,559.1,423.8z"/>
	</g>
	<path opacity="0.2" fill="#FFFFFF" enable-background="new    " d="M616.9,193.5c0,2.1-0.101,3.5,7.5,3.5h95.1c2.2-2,4.4-5,6.5-7
		H624.4C616.8,190,616.9,191.4,616.9,193.5z"/>
</g>
<g>
	<circle opacity="0.2" fill="#FFFFFF" enable-background="new    " cx="670.4" cy="433.5" r="7.6"/>
	<circle opacity="0.2" fill="#FFFFFF" enable-background="new    " cx="679.7" cy="407.4" r="5"/>
</g>
<path fill="#76CDD7" d="M724.603,410.465c-1.097-4.631-9.12-31.465-17.936-63.465H639h-69.234
	c-9.218,32-17.358,58.916-18.422,63.398c-4.911,20.684-1.364,39.721,10.262,54.699C576.021,483.678,601.389,495,633.045,495H639
	h3.641c31.878,0,57.361-11.428,71.758-29.979C726,450.076,729.527,431.209,724.603,410.465z"/>
<path fill="#E9D4A9" d="M697.473,315H639h-59.637c-3.166,10-6.444,21-9.598,32H639h67.667C703.612,336,700.462,325,697.473,315z"/>
<path fill="#E4CA93" d="M685.057,270H639h-46.257c-3.501,11-8.293,28-13.38,45H639h58.473C692.503,298,687.975,281,685.057,270z"/>
<path fill="#F7B777" d="M681.77,256.299c-0.705-4.698-0.765-9.299,0.028-13.299H639h-39.384c-0.235,3-0.699,6.287-1.438,8.764
	c-0.611,2.055-2.602,9.236-5.436,18.236H639h46.057C683.253,263,682.065,258.272,681.77,256.299z"/>
<path fill="#F5A85B" d="M639,217h-40.885c1.377,9,2.046,18,1.501,26H639h42.798c1.297-8,4.892-15,11.705-26H639z"/>
<path fill="#D76A74" d="M639,207h-43.172c0.879,3,1.656,7,2.287,10H639h54.503c2.127-2,4.562-6,7.345-10H639z"/>
<g>
	<path fill="#E2D4D5" d="M559.084,423.837c5.249-23.503,39.799-140.169,39.799-140.169c7.002-0.752,12.771,0,12.771,0
		s-32.909,119.005-35.781,140.169s7.419,55.105,59.591,62.346c0.051,0.003,0.129,0.003,0.204,0.003c-4.849,0-8.646,0-15.602,0
		c-0.284,0-0.628,0.014-0.955,0.014c-0.132-0.014-0.309-0.014-0.427-0.017C566.504,478.942,553.835,447.34,559.084,423.837z"/>
</g>
<g>
	<circle fill="#E2D4D5" cx="670.358" cy="433.484" r="7.6"/>
	<circle fill="#E2D4D5" cx="679.735" cy="407.427" r="5.028"/>
</g>
<circle fill="#F7EBCF" cx="626.447" cy="334.06" r="5.028"/>
<circle fill="#E2D4D5" cx="624" cy="261.87" r="2.631"/>
<circle fill="#E2D4D5" cx="631" cy="253.001" r="3.42"/>
<g id="Jarra">
	<path fill="#274A68" d="M850.4,511c0,2.3-121.301,4.1-187.5,4.1c-66.2,0-119.9-1.8-119.9-4.1s53.7-4.1,119.9-4.1
		C729.2,506.9,850.4,508.7,850.4,511z"/>
	<path opacity="0.2" fill="#4F6C84" enable-background="new    " d="M530.7,172c-3.3,0-6.5,1.7-7.2,4.9c0,0-32.7,167.7-18.4,181.4
		c11,10.5,33.7,25.2,43.5,31.4c-2.8,9.6-4.8,17.2-5.6,20.5c-12.5,52.5,24.3,95.8,91.7,97.8h4.2V172H530.7z M587.4,260.3L587.4,260.3
		C587.4,260.2,587.4,260.2,587.4,260.3V260v-0.1c-8,26.5-20.7,68.2-30.4,101.1c-0.4-0.2-0.8-0.5-1.2-0.8
		c-6.3-4.2-17.899-12.4-27.8-21.8c-3.8-3.6-4.8-15.3-4.2-30.6c1.601-42.2,15.4-111.3,15.4-111.3c0.6-3.2,3.899-5.6,7.2-5.6H578
		c6.2,14,12.6,32,12.3,50.7C590.1,247.9,589.2,254.2,587.4,260.3z"/>
	<path opacity="0.2" fill="#768DA0" enable-background="new    " d="M736.4,410.1c-3.5-14.8-31-106.5-44.601-151.399
		c-0.899-3.1-4.2-15.8,1.7-27.5c6.7-13.3,47.8-59.2,47.8-59.2H639v336h5.4C712.4,506,748.9,462.6,736.4,410.1z"/>
</g>
</svg>
