<?xml version="1.0" encoding="utf-8"?>
<!-- Generator: Adobe Illustrator 16.0.0, SVG Export Plug-In . SVG Version: 6.00 Build 0)  -->
<!DOCTYPE svg PUBLIC "-//W3C//DTD SVG 1.1//EN" "http://www.w3.org/Graphics/SVG/1.1/DTD/svg11.dtd">
<svg version="1.1" id="Layer_1" xmlns="http://www.w3.org/2000/svg" xmlns:xlink="http://www.w3.org/1999/xlink" x="0px" y="0px"
	 width="1280px" height="700px" viewBox="0 0 1280 700" enable-background="new 0 0 1280 700" xml:space="preserve">
<g id="Jarra">
	<path fill="#4F6C84" enable-background="new    " d="M530.7,172c-3.3,0-6.5,1.7-7.2,4.9c0,0-32.7,167.7-18.4,181.4
		c11,10.5,33.7,25.2,43.5,31.4c-2.8,9.6-4.8,17.2-5.6,20.5c-12.5,52.5,24.3,95.8,91.7,97.8h4.2V172H530.7z M587.4,260.3L587.4,260.3
		C587.4,260.2,587.4,260.2,587.4,260.3V260v-0.1c-8,26.5-20.7,68.2-30.4,101.1c-0.4-0.2-0.8-0.5-1.2-0.8
		c-6.3-4.2-17.899-12.4-27.8-21.8c-3.8-3.6-4.8-15.3-4.2-30.6c1.601-42.2,15.4-111.3,15.4-111.3c0.6-3.2,3.899-5.6,7.2-5.6H578
		c6.2,14,12.6,32,12.3,50.7C590.1,247.9,589.2,254.2,587.4,260.3z"/>
	<path fill="#768DA0" enable-background="new    " d="M736.4,410.1c-3.5-14.8-31-106.5-44.601-151.399c-0.899-3.1-4.2-15.8,1.7-27.5
		c6.7-13.3,47.8-59.2,47.8-59.2H639v336h5.4C712.4,506,748.9,462.6,736.4,410.1z"/>
</g>
<g id="Jarra_Brillos">
	<g opacity="0.2">
		<path fill="#FFFFFF" d="M559.1,423.8c5.2-23.5,39.801-140.2,39.801-140.2c7-0.8,12.8,0,12.8,0s-32.9,119-35.8,140.2
			C573,445,583.3,478.9,635.5,486.1c0.1,0,0.1,0,0.2,0c-4.8,0-8.601,0-15.601,0c-0.3,0-0.6,0-1,0c-0.1,0-0.3,0-0.399,0
			C566.5,478.9,553.8,447.3,559.1,423.8z"/>
	</g>
	<path opacity="0.2" fill="#FFFFFF" enable-background="new    " d="M616.9,193.5c0,2.1-0.101,3.5,7.5,3.5h95.1c2.2-2,4.4-5,6.5-7
		H624.4C616.8,190,616.9,191.4,616.9,193.5z"/>
</g>
<g>
	<circle opacity="0.2" fill="#FFFFFF" enable-background="new    " cx="670.4" cy="433.5" r="7.6"/>
	<circle opacity="0.2" fill="#FFFFFF" enable-background="new    " cx="679.7" cy="407.4" r="5"/>
</g>
</svg>
