<?xml version="1.0" encoding="utf-8"?>
<!-- Generator: Adobe Illustrator 16.0.0, SVG Export Plug-In . SVG Version: 6.00 Build 0)  -->
<!DOCTYPE svg PUBLIC "-//W3C//DTD SVG 1.1//EN" "http://www.w3.org/Graphics/SVG/1.1/DTD/svg11.dtd">
<svg version="1.1" id="stroke_x5F_jarra" xmlns="http://www.w3.org/2000/svg" xmlns:xlink="http://www.w3.org/1999/xlink" x="0px"
	 y="0px" width="1280px" height="700px" viewBox="0 0 1280 700" enable-background="new 0 0 1280 700" xml:space="preserve">
<path fill="none" stroke="#FFFFFF" stroke-width="4" stroke-miterlimit="10" d="M691.8,258.7c-0.899-3.1-4.2-15.8,1.7-27.5
	c6.7-13.3,47.8-59.2,47.8-59.2H639H530.7c-3.3,0-6.5,1.7-7.2,4.9c0,0-32.7,167.7-18.4,181.399c11,10.5,33.7,25.2,43.5,31.4
	c-2.8,9.601-4.8,17.2-5.6,20.5c-12.5,52.5,24.3,95.8,91.7,97.8h4.2h5.399c68-2,104.4-45.399,92-97.899
	C732.9,395.3,705.4,303.6,691.8,258.7z M587.4,260.3v-0.1C587.4,260.2,587.4,260.2,587.4,260.3V260v-0.1
	c-8,26.5-20.7,68.2-30.4,101.1c-0.4-0.2-0.8-0.5-1.2-0.8c-6.3-4.2-17.899-12.4-27.8-21.8c-3.8-3.601-4.8-15.3-4.2-30.601
	c1.601-42.199,15.4-111.3,15.4-111.3c0.6-3.199,3.899-5.6,7.2-5.6H578c6.2,14,12.6,32,12.3,50.7
	C590.1,247.9,589.2,254.2,587.4,260.3z"/>
</svg>
