<?xml version="1.0" encoding="utf-8"?>
<!-- Generator: Adobe Illustrator 16.0.0, SVG Export Plug-In . SVG Version: 6.00 Build 0)  -->
<!DOCTYPE svg PUBLIC "-//W3C//DTD SVG 1.1//EN" "http://www.w3.org/Graphics/SVG/1.1/DTD/svg11.dtd">
<svg version="1.1" id="Layer_1" xmlns="http://www.w3.org/2000/svg" xmlns:xlink="http://www.w3.org/1999/xlink" x="0px" y="0px"
	 width="1280px" height="700px" viewBox="0 0 1280 700" enable-background="new 0 0 1280 700" xml:space="preserve">
<g id="Miscelaneas">
	<g>
		<g>
			<g>
				<path fill="none" stroke="#5BA4C2" stroke-width="0.75" stroke-miterlimit="10" d="M640.316,634c0,0,0-14.332,0-19.332
					c0-3.087,1.002-4.066,3.666-4.066c2.663,0,136.926,0,136.926,0c2.987,0,3.763-1.438,3.763-5.035
					c0-3.375-0.331-9.253-0.331-13.016c0-3.542,0.941-5.367,3.32-6.032v-0.222c-2.379-0.663-3.32-2.435-3.32-6.031
					c0-3.762,0.331-6.641,0.331-10.018"/>
			</g>
			<g>
				<path fill="none" stroke="#5BA4C2" stroke-width="0.75" stroke-miterlimit="10" d="M496.021,570.248
					c0,3.376,0.331,6.256,0.331,10.018c0,3.598-0.94,5.368-3.319,6.031v0.222c2.379,0.665,3.319,2.49,3.319,6.032
					c0,3.763-0.331,9.641-0.331,13.016c0,3.597,0.774,5.035,3.764,5.035c0,0,134.2,0,136.864,0c2.663,0,3.666,0.979,3.666,4.065
					c0,5,0,19.333,0,19.333"/>
			</g>
		</g>
		<g>
			<g>
				<path fill="#5BA4C2" d="M643.808,633.882l-0.002-0.009l-3.489-6.875v-0.017l-0.005,0.008l-0.004-0.008l-0.003,0.021
					l-3.662,6.781l-0.006,0.025c-0.343,0.594-0.547,1.281-0.558,2.014c-0.029,2.277,1.794,4.147,4.071,4.178
					c2.276,0.027,4.145-1.795,4.175-4.071C644.333,635.186,644.146,634.486,643.808,633.882z"/>
				<g>
					<g>
						<path fill="#72ADC8" d="M638.954,639.033c-0.021,0-0.045-0.002-0.068-0.008c-2.028-0.41-2.326-2.586-2.202-3.682
							c0.022-0.199,0.202-0.34,0.403-0.319c0.2,0.023,0.344,0.204,0.32,0.403c-0.012,0.104-0.254,2.504,1.623,2.883
							c0.196,0.039,0.323,0.232,0.285,0.43C639.28,638.916,639.125,639.035,638.954,639.033z"/>
					</g>
				</g>
			</g>
			<path fill="#72ADC8" d="M644.325,635.928c0.008-0.742-0.182-1.441-0.519-2.047l-0.002-0.009l-3.489-6.875v-0.017l-0.005,0.008
				l-0.004-0.008v13.011C642.512,639.936,644.296,638.152,644.325,635.928z"/>
			<g>
				<g>
					<path fill="#E2D4D5" d="M641.925,633.449l-0.758-2.031c-0.061-0.137-0.11-0.383,0.025-0.442
						c0.135-0.061,0.278,0.131,0.339,0.266l0.981,1.905c0.061,0.136,0.025,0.396-0.108,0.457
						C642.151,633.718,641.97,633.557,641.925,633.449z"/>
				</g>
				
					<ellipse transform="matrix(-0.0789 -0.9969 0.9969 -0.0789 60.9364 1324.8715)" fill="#E2D4D5" cx="642.573" cy="634.282" rx="0.415" ry="0.393"/>
			</g>
		</g>
		<g>
			<g>
				<path fill="#5BA4C2" d="M644.012,645.873l-0.001-0.004l-1.927-3.795v-0.01l-0.002,0.005l-0.002-0.005l-0.002,0.012l-2.021,3.742
					l-0.003,0.016c-0.188,0.326-0.302,0.706-0.308,1.11c-0.017,1.257,0.99,2.289,2.247,2.307c1.257,0.016,2.287-0.99,2.304-2.248
					C644.302,646.594,644.197,646.207,644.012,645.873z"/>
				<g>
					<g>
						<path fill="#72ADC8" d="M641.333,648.718c-0.013,0-0.025-0.002-0.038-0.004c-1.12-0.228-1.284-1.429-1.215-2.033
							c0.012-0.109,0.111-0.188,0.223-0.177c0.109,0.015,0.189,0.113,0.177,0.224c-0.007,0.059-0.141,1.382,0.896,1.592
							c0.108,0.021,0.179,0.127,0.157,0.236C641.513,648.652,641.427,648.719,641.333,648.718z"/>
					</g>
				</g>
			</g>
			<path fill="#72ADC8" d="M644.297,647.003c0.005-0.409-0.1-0.796-0.285-1.13l-0.001-0.004l-1.927-3.795v-0.01l-0.002,0.005
				l-0.002-0.005v7.182C643.296,649.216,644.281,648.23,644.297,647.003z"/>
			<g>
				<g>
					<path fill="#E2D4D5" d="M642.973,645.635l-0.419-1.122c-0.033-0.075-0.061-0.21,0.016-0.244
						c0.073-0.033,0.153,0.072,0.187,0.146l0.542,1.052c0.033,0.075,0.016,0.219-0.061,0.252
						C643.098,645.782,642.997,645.693,642.973,645.635z"/>
				</g>
				
					<ellipse transform="matrix(-0.0767 -0.9971 0.9971 -0.0767 48.4854 1337.1484)" fill="#E2D4D5" cx="643.363" cy="646.125" rx="0.229" ry="0.216"/>
			</g>
		</g>
	</g>
</g>
<g id="Texto">
	<g>
		<g enable-background="new    ">
			<path fill="#5BA4C2" d="M519.934,572.054c-0.42,0.098-1.639,0.196-2.381,0.196c-1.821,0-3.235-0.49-3.235-2.872v-7.368
				c0-0.153,0.126-0.279,0.28-0.279h1.387c0.154,0,0.28,0.126,0.28,0.279v7.368c0,0.925,0.28,1.205,1.093,1.205h2.577
				c0.154,0,0.28,0.126,0.28,0.28v0.896C520.214,571.957,520.145,572.012,519.934,572.054z"/>
			<path fill="#5BA4C2" d="M524.3,572.251c-2.199,0-3.348-1.485-3.348-3.488v-1.135c0-2.003,1.148-3.487,3.348-3.487
				s3.348,1.484,3.348,3.487v1.135C527.648,570.765,526.5,572.251,524.3,572.251z M525.799,567.628c0-1.148-0.519-1.891-1.499-1.891
				s-1.499,0.742-1.499,1.891v1.135c0,1.148,0.518,1.892,1.499,1.892s1.499-0.743,1.499-1.892V567.628z"/>
			<path fill="#5BA4C2" d="M531.79,572.251c-0.546,0-1.723-0.07-2.507-0.28c-0.168-0.042-0.266-0.154-0.266-0.322v-0.841
				c0-0.111,0.098-0.224,0.238-0.224c0.028,0,0.042,0,0.056,0c0.672,0.084,1.933,0.154,2.353,0.154c0.869,0,0.995-0.295,0.995-0.673
				c0-0.266-0.168-0.435-0.616-0.714l-1.919-1.177c-0.687-0.421-1.177-1.121-1.177-1.934c0-1.4,0.882-2.101,2.662-2.101
				c1.134,0,1.779,0.126,2.493,0.28c0.168,0.042,0.252,0.153,0.252,0.321v0.812c0,0.169-0.084,0.267-0.224,0.267
				c-0.028,0-0.042,0-0.056,0c-0.393-0.056-1.513-0.168-2.312-0.168c-0.672,0-0.966,0.154-0.966,0.588
				c0,0.225,0.21,0.364,0.56,0.574l1.835,1.121c1.177,0.714,1.345,1.415,1.345,2.129
				C534.536,571.284,533.625,572.251,531.79,572.251z"/>
			<path fill="#5BA4C2" d="M545.75,568.833h-4.566v0.042c0,0.812,0.336,1.779,1.681,1.779c1.022,0,1.989-0.084,2.578-0.141
				c0.014,0,0.028,0,0.042,0c0.14,0,0.252,0.07,0.252,0.21v0.925c0,0.224-0.042,0.322-0.294,0.364
				c-0.911,0.168-1.457,0.238-2.718,0.238c-1.4,0-3.39-0.757-3.39-3.517v-1.036c0-2.186,1.219-3.558,3.362-3.558
				c2.157,0,3.334,1.471,3.334,3.558v0.784C546.03,568.707,545.946,568.833,545.75,568.833z M544.167,567.46
				c0-1.093-0.602-1.723-1.471-1.723s-1.499,0.616-1.499,1.723v0.057h2.97V567.46z"/>
			<path fill="#5BA4C2" d="M553.674,572.138h-1.597c-0.154,0-0.224-0.042-0.378-0.28l-1.597-2.465l-1.513,2.465
				c-0.154,0.238-0.224,0.28-0.378,0.28h-1.443c-0.112,0-0.168-0.07-0.168-0.154c0-0.042,0.014-0.084,0.042-0.126l2.507-3.796
				l-2.367-3.544c-0.014-0.028-0.028-0.056-0.028-0.084c0-0.098,0.098-0.196,0.224-0.196h1.597c0.154,0,0.224,0.07,0.364,0.28
				l1.415,2.186l1.317-2.186c0.154-0.252,0.224-0.28,0.378-0.28h1.443c0.112,0,0.168,0.07,0.168,0.154
				c0,0.042-0.014,0.084-0.042,0.126l-2.311,3.53l2.549,3.81c0.014,0.028,0.028,0.056,0.028,0.099
				C553.884,572.054,553.786,572.138,553.674,572.138z"/>
			<path fill="#5BA4C2" d="M558.264,572.251c-0.336,0-0.826-0.028-1.345-0.099v2.479c0,0.154-0.126,0.28-0.28,0.28h-1.289
				c-0.154,0-0.28-0.126-0.28-0.28v-9.749c0-0.21,0.056-0.294,0.378-0.378c0.869-0.225,1.919-0.364,2.815-0.364
				c2.255,0,3.348,1.33,3.348,3.516v1.078C561.612,570.92,560.52,572.251,558.264,572.251z M559.763,567.656
				c0-1.148-0.294-2.003-1.499-2.003c-0.504,0-1.079,0.042-1.345,0.098v4.889c0.393,0.057,1.009,0.099,1.345,0.099
				c1.205,0,1.499-0.854,1.499-2.004V567.656z"/>
			<path fill="#5BA4C2" d="M569.326,568.833h-4.566v0.042c0,0.812,0.336,1.779,1.681,1.779c1.022,0,1.989-0.084,2.578-0.141
				c0.014,0,0.028,0,0.042,0c0.14,0,0.252,0.07,0.252,0.21v0.925c0,0.224-0.042,0.322-0.294,0.364
				c-0.911,0.168-1.457,0.238-2.718,0.238c-1.4,0-3.39-0.757-3.39-3.517v-1.036c0-2.186,1.219-3.558,3.362-3.558
				c2.157,0,3.334,1.471,3.334,3.558v0.784C569.606,568.707,569.522,568.833,569.326,568.833z M567.743,567.46
				c0-1.093-0.602-1.723-1.471-1.723s-1.499,0.616-1.499,1.723v0.057h2.97V567.46z"/>
			<path fill="#5BA4C2" d="M574.966,565.709c-0.756,0-1.345,0.196-1.933,0.505v5.631c0,0.154-0.126,0.294-0.28,0.294h-1.289
				c-0.154,0-0.28-0.14-0.28-0.294v-7.326c0-0.154,0.126-0.28,0.28-0.28h1.219c0.154,0,0.28,0.126,0.28,0.28v0.294
				c0.687-0.532,1.443-0.672,2.003-0.672c0.154,0,0.28,0.126,0.28,0.28v1.008C575.247,565.583,575.121,565.709,574.966,565.709z"/>
			<path fill="#5BA4C2" d="M580.581,572.152c-0.336,0.057-0.644,0.099-0.953,0.099c-1.583,0-2.227-0.351-2.227-2.228v-4.398
				l-1.317-0.196c-0.154-0.027-0.28-0.126-0.28-0.28v-0.63c0-0.154,0.126-0.28,0.28-0.28h1.317v-1.148
				c0-0.154,0.126-0.252,0.28-0.28l1.303-0.224c0.014,0,0.042,0,0.056,0c0.126,0,0.224,0.069,0.224,0.21v1.442h1.26
				c0.154,0,0.28,0.126,0.28,0.28v0.826c0,0.154-0.126,0.28-0.28,0.28h-1.26v4.398c0,0.7,0.042,0.784,0.546,0.784h0.743
				c0.182,0,0.294,0.07,0.294,0.21v0.883C580.847,572.041,580.763,572.125,580.581,572.152z"/>
			<path fill="#5BA4C2" d="M585.074,572.251c-2.199,0-3.348-1.485-3.348-3.488v-1.135c0-2.003,1.148-3.487,3.348-3.487
				s3.348,1.484,3.348,3.487v1.135C588.422,570.765,587.273,572.251,585.074,572.251z M586.573,567.628
				c0-1.148-0.519-1.891-1.499-1.891s-1.499,0.742-1.499,1.891v1.135c0,1.148,0.518,1.892,1.499,1.892s1.499-0.743,1.499-1.892
				V567.628z"/>
			<path fill="#5BA4C2" d="M592.563,572.251c-0.546,0-1.723-0.07-2.507-0.28c-0.168-0.042-0.266-0.154-0.266-0.322v-0.841
				c0-0.111,0.098-0.224,0.238-0.224c0.028,0,0.042,0,0.056,0c0.672,0.084,1.933,0.154,2.353,0.154c0.869,0,0.995-0.295,0.995-0.673
				c0-0.266-0.168-0.435-0.616-0.714l-1.919-1.177c-0.687-0.421-1.177-1.121-1.177-1.934c0-1.4,0.882-2.101,2.662-2.101
				c1.134,0,1.779,0.126,2.493,0.28c0.168,0.042,0.252,0.153,0.252,0.321v0.812c0,0.169-0.084,0.267-0.224,0.267
				c-0.028,0-0.042,0-0.056,0c-0.393-0.056-1.513-0.168-2.312-0.168c-0.672,0-0.966,0.154-0.966,0.588
				c0,0.225,0.21,0.364,0.56,0.574l1.835,1.121c1.177,0.714,1.345,1.415,1.345,2.129
				C595.309,571.284,594.399,572.251,592.563,572.251z"/>
			<path fill="#5BA4C2" d="M606.524,568.833h-4.566v0.042c0,0.812,0.336,1.779,1.681,1.779c1.022,0,1.989-0.084,2.578-0.141
				c0.014,0,0.028,0,0.042,0c0.14,0,0.252,0.07,0.252,0.21v0.925c0,0.224-0.042,0.322-0.294,0.364
				c-0.911,0.168-1.457,0.238-2.718,0.238c-1.4,0-3.39-0.757-3.39-3.517v-1.036c0-2.186,1.219-3.558,3.362-3.558
				c2.157,0,3.334,1.471,3.334,3.558v0.784C606.804,568.707,606.72,568.833,606.524,568.833z M604.941,567.46
				c0-1.093-0.602-1.723-1.471-1.723s-1.499,0.616-1.499,1.723v0.057h2.97V567.46z"/>
			<path fill="#5BA4C2" d="M614.574,572.138h-1.289c-0.154,0-0.28-0.14-0.28-0.294v-4.566c0-1.219-0.112-1.569-1.191-1.569
				c-0.476,0-0.995,0.196-1.583,0.505v5.631c0,0.154-0.126,0.294-0.28,0.294h-1.289c-0.154,0-0.28-0.14-0.28-0.294v-7.326
				c0-0.154,0.126-0.28,0.28-0.28h1.219c0.154,0,0.28,0.126,0.28,0.28v0.294c0.812-0.518,1.345-0.672,2.269-0.672
				c2.017,0,2.423,1.358,2.423,3.138v4.566C614.854,571.999,614.728,572.138,614.574,572.138z"/>
			<path fill="#5BA4C2" d="M627.622,572.138h-1.415c-0.336,0-0.63,0-0.854-0.504l-3.11-6.822c-0.042-0.084-0.084-0.112-0.126-0.112
				s-0.07,0.028-0.07,0.112v7.046c0,0.154-0.112,0.28-0.266,0.28h-1.191c-0.154,0-0.28-0.126-0.28-0.28v-9.567
				c0-0.308,0.252-0.56,0.56-0.56h1.513c0.294,0,0.448,0.084,0.617,0.448l3.264,7.199c0.028,0.07,0.07,0.112,0.112,0.112
				c0.028,0,0.07-0.042,0.07-0.126v-7.368c0-0.154,0.112-0.266,0.266-0.266h1.205c0.154,0,0.266,0.111,0.266,0.266v9.581
				C628.183,571.886,627.931,572.138,627.622,572.138z"/>
			<path fill="#5BA4C2" d="M636.33,572.138h-1.289c-0.154,0-0.28-0.126-0.28-0.28v-0.322c-0.729,0.477-1.303,0.7-2.199,0.7
				c-0.701,0-1.317-0.182-1.723-0.588c-0.518-0.519-0.7-1.387-0.7-2.55v-4.566c0-0.153,0.126-0.294,0.28-0.294h1.289
				c0.154,0,0.28,0.141,0.28,0.294v4.566c0,0.701,0.056,1.107,0.322,1.345c0.196,0.169,0.435,0.253,0.869,0.253
				c0.518,0,1.19-0.351,1.583-0.561v-5.604c0-0.153,0.126-0.294,0.28-0.294h1.289c0.154,0,0.28,0.141,0.28,0.294v7.326
				C636.609,572.012,636.483,572.138,636.33,572.138z"/>
			<path fill="#5BA4C2" d="M642.572,572.152c-0.336,0.057-0.645,0.099-0.953,0.099c-1.582,0-2.227-0.351-2.227-2.228v-4.398
				l-1.316-0.196c-0.154-0.027-0.28-0.126-0.28-0.28v-0.63c0-0.154,0.126-0.28,0.28-0.28h1.316v-1.148
				c0-0.154,0.126-0.252,0.28-0.28l1.303-0.224c0.014,0,0.042,0,0.056,0c0.127,0,0.225,0.069,0.225,0.21v1.442h1.26
				c0.154,0,0.281,0.126,0.281,0.28v0.826c0,0.154-0.127,0.28-0.281,0.28h-1.26v4.398c0,0.7,0.042,0.784,0.546,0.784h0.743
				c0.182,0,0.293,0.07,0.293,0.21v0.883C642.838,572.041,642.754,572.125,642.572,572.152z"/>
			<path fill="#5BA4C2" d="M647.878,565.709c-0.757,0-1.345,0.196-1.933,0.505v5.631c0,0.154-0.127,0.294-0.28,0.294h-1.289
				c-0.153,0-0.28-0.14-0.28-0.294v-7.326c0-0.154,0.127-0.28,0.28-0.28h1.219c0.154,0,0.28,0.126,0.28,0.28v0.294
				c0.687-0.532,1.443-0.672,2.003-0.672c0.154,0,0.28,0.126,0.28,0.28v1.008C648.158,565.583,648.032,565.709,647.878,565.709z"/>
			<path fill="#5BA4C2" d="M650.999,563.187h-1.358c-0.154,0-0.295-0.126-0.295-0.28v-1.232c0-0.154,0.141-0.28,0.295-0.28h1.358
				c0.153,0,0.28,0.126,0.28,0.28v1.232C651.279,563.061,651.152,563.187,650.999,563.187z M650.957,572.138h-1.289
				c-0.154,0-0.279-0.14-0.279-0.294v-7.326c0-0.154,0.125-0.28,0.279-0.28h1.289c0.154,0,0.28,0.126,0.28,0.28v7.326
				C651.237,571.999,651.111,572.138,650.957,572.138z"/>
			<path fill="#5BA4C2" d="M657.818,572.068c-0.322,0.084-0.952,0.183-1.807,0.183c-1.821,0-3.193-1.121-3.193-3.404v-1.303
				c0-2.283,1.372-3.403,3.193-3.403c0.854,0,1.484,0.098,1.807,0.182c0.238,0.057,0.295,0.141,0.295,0.364v0.91
				c0,0.141-0.113,0.211-0.253,0.211c-0.014,0-0.028,0-0.042,0c-0.561-0.07-0.896-0.099-1.807-0.099
				c-0.658,0-1.345,0.379-1.345,1.835v1.303c0,1.457,0.687,1.835,1.345,1.835c0.91,0,1.246-0.027,1.807-0.098
				c0.014,0,0.028,0,0.042,0c0.14,0,0.253,0.07,0.253,0.21v0.91C658.113,571.928,658.057,572.012,657.818,572.068z"/>
			<path fill="#5BA4C2" d="M661.303,563.187h-1.359c-0.153,0-0.293-0.126-0.293-0.28v-1.232c0-0.154,0.14-0.28,0.293-0.28h1.359
				c0.154,0,0.28,0.126,0.28,0.28v1.232C661.583,563.061,661.457,563.187,661.303,563.187z M661.261,572.138h-1.289
				c-0.153,0-0.28-0.14-0.28-0.294v-7.326c0-0.154,0.127-0.28,0.28-0.28h1.289c0.153,0,0.28,0.126,0.28,0.28v7.326
				C661.541,571.999,661.414,572.138,661.261,572.138z"/>
			<path fill="#5BA4C2" d="M666.512,572.251c-2.199,0-3.348-1.485-3.348-3.488v-1.135c0-2.003,1.148-3.487,3.348-3.487
				s3.348,1.484,3.348,3.487v1.135C669.859,570.765,668.711,572.251,666.512,572.251z M668.01,567.628
				c0-1.148-0.518-1.891-1.498-1.891s-1.499,0.742-1.499,1.891v1.135c0,1.148,0.519,1.892,1.499,1.892s1.498-0.743,1.498-1.892
				V567.628z M668.612,561.436l-1.653,1.737c-0.111,0.126-0.168,0.182-0.336,0.182h-1.204c-0.084,0-0.126-0.042-0.126-0.098
				c0-0.042,0.014-0.098,0.056-0.14l1.331-1.682c0.126-0.153,0.182-0.21,0.363-0.21h1.472c0.098,0,0.153,0.042,0.153,0.099
				C668.668,561.352,668.654,561.394,668.612,561.436z"/>
			<path fill="#5BA4C2" d="M677.629,572.138h-1.289c-0.154,0-0.279-0.14-0.279-0.294v-4.566c0-1.219-0.113-1.569-1.191-1.569
				c-0.477,0-0.994,0.196-1.583,0.505v5.631c0,0.154-0.126,0.294-0.28,0.294h-1.289c-0.153,0-0.279-0.14-0.279-0.294v-7.326
				c0-0.154,0.126-0.28,0.279-0.28h1.219c0.154,0,0.281,0.126,0.281,0.28v0.294c0.812-0.518,1.344-0.672,2.269-0.672
				c2.017,0,2.423,1.358,2.423,3.138v4.566C677.908,571.999,677.783,572.138,677.629,572.138z"/>
			<path fill="#5BA4C2" d="M687.008,565.709c-0.757,0-1.346,0.196-1.934,0.505v5.631c0,0.154-0.126,0.294-0.279,0.294h-1.289
				c-0.154,0-0.28-0.14-0.28-0.294v-7.326c0-0.154,0.126-0.28,0.28-0.28h1.219c0.154,0,0.279,0.126,0.279,0.28v0.294
				c0.688-0.532,1.443-0.672,2.004-0.672c0.154,0,0.279,0.126,0.279,0.28v1.008C687.287,565.583,687.162,565.709,687.008,565.709z"
				/>
			<path fill="#5BA4C2" d="M694.387,568.833h-4.566v0.042c0,0.812,0.336,1.779,1.681,1.779c1.022,0,1.989-0.084,2.577-0.141
				c0.014,0,0.028,0,0.043,0c0.14,0,0.252,0.07,0.252,0.21v0.925c0,0.224-0.043,0.322-0.295,0.364
				c-0.91,0.168-1.457,0.238-2.717,0.238c-1.4,0-3.391-0.757-3.391-3.517v-1.036c0-2.186,1.219-3.558,3.362-3.558
				c2.157,0,3.334,1.471,3.334,3.558v0.784C694.667,568.707,694.583,568.833,694.387,568.833z M692.804,567.46
				c0-1.093-0.603-1.723-1.471-1.723s-1.499,0.616-1.499,1.723v0.057h2.97V567.46z"/>
			<path fill="#5BA4C2" d="M700.966,572.068c-0.321,0.084-0.952,0.183-1.807,0.183c-1.821,0-3.194-1.121-3.194-3.404v-1.303
				c0-2.283,1.373-3.403,3.194-3.403c0.854,0,1.485,0.098,1.807,0.182c0.238,0.057,0.294,0.141,0.294,0.364v0.91
				c0,0.141-0.111,0.211-0.252,0.211c-0.014,0-0.027,0-0.042,0c-0.56-0.07-0.896-0.099-1.807-0.099
				c-0.659,0-1.345,0.379-1.345,1.835v1.303c0,1.457,0.686,1.835,1.345,1.835c0.91,0,1.247-0.027,1.807-0.098
				c0.015,0,0.028,0,0.042,0c0.141,0,0.252,0.07,0.252,0.21v0.91C701.26,571.928,701.204,572.012,700.966,572.068z"/>
			<path fill="#5BA4C2" d="M705.697,572.251c-2.199,0-3.348-1.485-3.348-3.488v-1.135c0-2.003,1.148-3.487,3.348-3.487
				s3.348,1.484,3.348,3.487v1.135C709.045,570.765,707.896,572.251,705.697,572.251z M707.195,567.628
				c0-1.148-0.518-1.891-1.498-1.891s-1.499,0.742-1.499,1.891v1.135c0,1.148,0.519,1.892,1.499,1.892s1.498-0.743,1.498-1.892
				V567.628z"/>
			<path fill="#5BA4C2" d="M720.4,572.138h-1.289c-0.154,0-0.279-0.14-0.279-0.294v-4.763c0-1.079-0.225-1.358-1.01-1.358
				c-0.266,0-0.798,0.084-1.303,0.35c0.043,0.309,0.057,0.658,0.057,1.009v4.763c0,0.154-0.126,0.294-0.28,0.294h-1.288
				c-0.154,0-0.281-0.14-0.281-0.294v-4.763c0-1.079-0.182-1.358-0.966-1.358c-0.294,0-0.714,0.153-1.289,0.462v5.659
				c0,0.154-0.126,0.294-0.28,0.294h-1.289c-0.153,0-0.279-0.14-0.279-0.294v-7.326c0-0.154,0.126-0.28,0.279-0.28h1.219
				c0.154,0,0.281,0.126,0.281,0.28v0.294c0.588-0.378,1.176-0.672,2.002-0.672c0.799,0,1.317,0.238,1.64,0.63
				c0.714-0.392,1.345-0.63,2.312-0.63c1.904,0,2.324,1.303,2.324,2.941v4.763C720.68,571.999,720.555,572.138,720.4,572.138z"/>
			<path fill="#5BA4C2" d="M724.148,563.187h-1.359c-0.154,0-0.294-0.126-0.294-0.28v-1.232c0-0.154,0.14-0.28,0.294-0.28h1.359
				c0.153,0,0.279,0.126,0.279,0.28v1.232C724.428,563.061,724.302,563.187,724.148,563.187z M724.105,572.138h-1.288
				c-0.154,0-0.28-0.14-0.28-0.294v-7.326c0-0.154,0.126-0.28,0.28-0.28h1.288c0.154,0,0.28,0.126,0.28,0.28v7.326
				C724.386,571.999,724.26,572.138,724.105,572.138z"/>
			<path fill="#5BA4C2" d="M732.424,568.833h-4.566v0.042c0,0.812,0.336,1.779,1.681,1.779c1.022,0,1.989-0.084,2.577-0.141
				c0.014,0,0.028,0,0.043,0c0.14,0,0.252,0.07,0.252,0.21v0.925c0,0.224-0.043,0.322-0.295,0.364
				c-0.91,0.168-1.457,0.238-2.717,0.238c-1.4,0-3.391-0.757-3.391-3.517v-1.036c0-2.186,1.219-3.558,3.362-3.558
				c2.157,0,3.334,1.471,3.334,3.558v0.784C732.704,568.707,732.62,568.833,732.424,568.833z M730.841,567.46
				c0-1.093-0.603-1.723-1.471-1.723s-1.499,0.616-1.499,1.723v0.057h2.97V567.46z"/>
			<path fill="#5BA4C2" d="M740.475,572.138h-1.289c-0.154,0-0.28-0.14-0.28-0.294v-4.566c0-1.219-0.112-1.569-1.19-1.569
				c-0.477,0-0.995,0.196-1.584,0.505v5.631c0,0.154-0.125,0.294-0.279,0.294h-1.289c-0.154,0-0.279-0.14-0.279-0.294v-7.326
				c0-0.154,0.125-0.28,0.279-0.28h1.219c0.154,0,0.28,0.126,0.28,0.28v0.294c0.812-0.518,1.345-0.672,2.269-0.672
				c2.018,0,2.424,1.358,2.424,3.138v4.566C740.754,571.999,740.628,572.138,740.475,572.138z"/>
			<path fill="#5BA4C2" d="M748.453,571.886c-0.867,0.224-1.918,0.364-2.814,0.364c-2.256,0-3.348-1.331-3.348-3.517v-1.078
				c0-2.186,1.092-3.516,3.348-3.516c0.336,0,0.826,0.027,1.344,0.098v-2.479c0-0.153,0.127-0.28,0.281-0.28h1.288
				c0.154,0,0.28,0.127,0.28,0.28v9.75C748.832,571.719,748.775,571.802,748.453,571.886z M746.982,565.751
				c-0.392-0.056-1.008-0.098-1.344-0.098c-1.205,0-1.499,0.854-1.499,2.003v1.078c0,1.149,0.294,2.004,1.499,2.004
				c0.504,0,1.078-0.042,1.344-0.099V565.751z"/>
			<path fill="#5BA4C2" d="M756.223,572.138h-1.189c-0.154,0-0.281-0.126-0.281-0.28v-0.224c-0.644,0.392-1.303,0.616-1.975,0.616
				c-1.162,0-2.424-0.448-2.424-2.34v-0.056c0-1.597,0.98-2.424,3.418-2.424h0.883v-0.616c0-0.91-0.406-1.134-1.232-1.134
				c-0.896,0-1.821,0.056-2.283,0.111c-0.028,0-0.057,0-0.07,0c-0.141,0-0.252-0.042-0.252-0.238v-0.896
				c0-0.153,0.084-0.252,0.266-0.294c0.561-0.112,1.373-0.224,2.34-0.224c1.988,0,3.082,0.882,3.082,2.675v5.043
				C756.504,572.012,756.377,572.138,756.223,572.138z M754.654,568.665h-0.883c-1.274,0-1.555,0.406-1.555,1.19v0.056
				c0,0.687,0.309,0.869,1.009,0.869c0.505,0,1.022-0.168,1.429-0.393V568.665z"/>
			<path fill="#5BA4C2" d="M764.512,572.138h-1.289c-0.154,0-0.279-0.14-0.279-0.294v-4.566c0-1.219-0.113-1.569-1.191-1.569
				c-0.477,0-0.994,0.196-1.583,0.505v5.631c0,0.154-0.126,0.294-0.28,0.294H758.6c-0.153,0-0.279-0.14-0.279-0.294v-7.326
				c0-0.154,0.126-0.28,0.279-0.28h1.219c0.154,0,0.281,0.126,0.281,0.28v0.294c0.812-0.518,1.344-0.672,2.269-0.672
				c2.017,0,2.423,1.358,2.423,3.138v4.566C764.791,571.999,764.666,572.138,764.512,572.138z"/>
		</g>
		<g enable-background="new    ">
			<path fill="#5BA4C2" d="M520.839,590.068c-0.322,0.084-0.952,0.183-1.807,0.183c-1.821,0-3.194-1.121-3.194-3.404v-1.303
				c0-2.283,1.373-3.403,3.194-3.403c0.854,0,1.485,0.098,1.807,0.182c0.238,0.057,0.294,0.141,0.294,0.364v0.91
				c0,0.141-0.112,0.211-0.252,0.211c-0.014,0-0.028,0-0.042,0c-0.56-0.07-0.896-0.099-1.807-0.099
				c-0.659,0-1.345,0.379-1.345,1.835v1.303c0,1.457,0.686,1.835,1.345,1.835c0.91,0,1.247-0.027,1.807-0.098
				c0.014,0,0.028,0,0.042,0c0.14,0,0.252,0.07,0.252,0.21v0.91C521.134,589.928,521.078,590.012,520.839,590.068z"/>
			<path fill="#5BA4C2" d="M525.57,590.251c-2.199,0-3.348-1.485-3.348-3.488v-1.135c0-2.003,1.148-3.487,3.348-3.487
				s3.348,1.484,3.348,3.487v1.135C528.918,588.765,527.77,590.251,525.57,590.251z M527.069,585.628
				c0-1.148-0.519-1.891-1.499-1.891s-1.499,0.742-1.499,1.891v1.135c0,1.148,0.518,1.892,1.499,1.892s1.499-0.743,1.499-1.892
				V585.628z"/>
			<path fill="#5BA4C2" d="M536.688,590.138h-1.289c-0.154,0-0.28-0.14-0.28-0.294v-4.566c0-1.219-0.112-1.569-1.191-1.569
				c-0.476,0-0.995,0.196-1.583,0.505v5.631c0,0.154-0.126,0.294-0.28,0.294h-1.289c-0.154,0-0.28-0.14-0.28-0.294v-7.326
				c0-0.154,0.126-0.28,0.28-0.28h1.219c0.154,0,0.28,0.126,0.28,0.28v0.294c0.812-0.518,1.345-0.672,2.269-0.672
				c2.017,0,2.423,1.358,2.423,3.138v4.566C536.968,589.999,536.842,590.138,536.688,590.138z"/>
			<path fill="#5BA4C2" d="M541.348,590.251c-0.546,0-1.723-0.07-2.508-0.28c-0.168-0.042-0.266-0.154-0.266-0.322v-0.841
				c0-0.111,0.098-0.224,0.238-0.224c0.028,0,0.042,0,0.056,0c0.672,0.084,1.933,0.154,2.353,0.154c0.869,0,0.995-0.295,0.995-0.673
				c0-0.266-0.168-0.435-0.616-0.714l-1.919-1.177c-0.687-0.421-1.177-1.121-1.177-1.934c0-1.4,0.882-2.101,2.662-2.101
				c1.134,0,1.779,0.126,2.493,0.28c0.168,0.042,0.252,0.153,0.252,0.321v0.812c0,0.169-0.084,0.267-0.224,0.267
				c-0.028,0-0.042,0-0.056,0c-0.393-0.056-1.513-0.168-2.312-0.168c-0.672,0-0.966,0.154-0.966,0.588
				c0,0.225,0.21,0.364,0.56,0.574l1.835,1.121c1.177,0.714,1.345,1.415,1.345,2.129
				C544.093,589.284,543.183,590.251,541.348,590.251z"/>
			<path fill="#5BA4C2" d="M551.822,590.138h-1.289c-0.154,0-0.28-0.126-0.28-0.28v-0.322c-0.729,0.477-1.303,0.7-2.199,0.7
				c-0.701,0-1.317-0.182-1.723-0.588c-0.518-0.519-0.7-1.387-0.7-2.55v-4.566c0-0.153,0.126-0.294,0.28-0.294h1.289
				c0.154,0,0.28,0.141,0.28,0.294v4.566c0,0.701,0.056,1.107,0.322,1.345c0.196,0.169,0.435,0.253,0.869,0.253
				c0.518,0,1.19-0.351,1.583-0.561v-5.604c0-0.153,0.126-0.294,0.28-0.294h1.289c0.154,0,0.28,0.141,0.28,0.294v7.326
				C552.102,590.012,551.976,590.138,551.822,590.138z"/>
			<path fill="#5BA4C2" d="M563.696,590.138h-1.289c-0.154,0-0.28-0.14-0.28-0.294v-4.763c0-1.079-0.224-1.358-1.009-1.358
				c-0.266,0-0.798,0.084-1.303,0.35c0.042,0.309,0.056,0.658,0.056,1.009v4.763c0,0.154-0.126,0.294-0.28,0.294h-1.289
				c-0.154,0-0.28-0.14-0.28-0.294v-4.763c0-1.079-0.182-1.358-0.966-1.358c-0.294,0-0.714,0.153-1.289,0.462v5.659
				c0,0.154-0.126,0.294-0.28,0.294h-1.289c-0.154,0-0.28-0.14-0.28-0.294v-7.326c0-0.154,0.126-0.28,0.28-0.28h1.219
				c0.154,0,0.28,0.126,0.28,0.28v0.294c0.588-0.378,1.177-0.672,2.003-0.672c0.798,0,1.317,0.238,1.639,0.63
				c0.714-0.392,1.345-0.63,2.311-0.63c1.905,0,2.325,1.303,2.325,2.941v4.763C563.976,589.999,563.85,590.138,563.696,590.138z"/>
			<path fill="#5BA4C2" d="M567.443,581.187h-1.359c-0.154,0-0.294-0.126-0.294-0.28v-1.232c0-0.154,0.14-0.28,0.294-0.28h1.359
				c0.154,0,0.28,0.126,0.28,0.28v1.232C567.724,581.061,567.597,581.187,567.443,581.187z M567.401,590.138h-1.289
				c-0.154,0-0.28-0.14-0.28-0.294v-7.326c0-0.154,0.126-0.28,0.28-0.28h1.289c0.154,0,0.28,0.126,0.28,0.28v7.326
				C567.681,589.999,567.555,590.138,567.401,590.138z"/>
			<path fill="#5BA4C2" d="M573.324,583.709c-0.756,0-1.345,0.196-1.933,0.505v5.631c0,0.154-0.126,0.294-0.28,0.294h-1.289
				c-0.154,0-0.28-0.14-0.28-0.294v-7.326c0-0.154,0.126-0.28,0.28-0.28h1.219c0.154,0,0.28,0.126,0.28,0.28v0.294
				c0.687-0.532,1.443-0.672,2.003-0.672c0.154,0,0.28,0.126,0.28,0.28v1.008C573.604,583.583,573.479,583.709,573.324,583.709z"/>
		</g>
		<path fill="#AAE0DE" d="M582.842,590.283h-0.176c-2.513,0-4.242-1.233-4.242-3.554v-0.208c0-1.057,0.544-1.969,1.36-2.562
			c-0.864-0.592-1.296-1.376-1.296-2.4v-0.177c0-2.24,1.648-3.281,4.178-3.281h0.176c2.529,0,4.194,1.041,4.194,3.281v0.177
			c0,1.024-0.448,1.809-1.312,2.4c0.816,0.593,1.36,1.505,1.36,2.562v0.208C587.083,589.05,585.355,590.283,582.842,590.283z
			 M584.458,581.559c0-0.849-0.448-1.457-1.617-1.457h-0.176c-1.168,0-1.617,0.608-1.617,1.457v0.08
			c0,0.815,0.464,1.393,1.457,1.393h0.496c0.992,0,1.457-0.577,1.457-1.393V581.559z M584.442,586.489
			c0-0.736-0.384-1.537-1.44-1.537h-0.496c-1.057,0-1.44,0.801-1.44,1.537v0.16c0,0.929,0.544,1.616,1.601,1.616h0.176
			c1.057,0,1.601-0.688,1.601-1.616V586.489z"/>
		<path fill="#AAE0DE" d="M602.587,578.582l-2.385,9.924c-0.368,1.537-1.537,1.777-2.641,1.777s-2.289-0.24-2.657-1.777
			l-2.385-9.924c0-0.032-0.016-0.048-0.016-0.08c0-0.145,0.128-0.256,0.288-0.256h2.225c0.16,0,0.288,0.128,0.32,0.288l2.001,9.235
			c0.032,0.176,0.08,0.24,0.224,0.24s0.192-0.064,0.224-0.24l2.001-9.235c0.032-0.16,0.144-0.288,0.304-0.288h2.241
			c0.16,0,0.272,0.096,0.272,0.256C602.604,578.517,602.587,578.55,602.587,578.582z"/>
		<path fill="#AAE0DE" d="M609.963,590.138h-1.793c-0.176,0-0.32-0.145-0.32-0.32v-0.256c-0.624,0.448-1.264,0.721-2.225,0.721
			c-1.393,0-2.737-0.673-2.737-2.754v-0.144c0-1.873,1.201-2.705,3.938-2.705h0.865v-0.576c0-0.913-0.448-1.104-1.201-1.104
			c-1.024,0-2.161,0.063-2.657,0.112h-0.08c-0.16,0-0.288-0.08-0.288-0.289v-1.296c0-0.176,0.112-0.305,0.304-0.353
			c0.592-0.144,1.713-0.336,2.769-0.336c2.305,0,3.746,0.929,3.746,3.266v5.714C610.283,589.994,610.139,590.138,609.963,590.138z
			 M607.738,586.217h-0.913c-1.12,0-1.408,0.385-1.408,1.169v0.144c0,0.673,0.336,0.801,1.008,0.801c0.48,0,0.928-0.16,1.312-0.353
			V586.217z"/>
		<path fill="#AAE0DE" d="M615.193,590.283c-0.88,0-2.097-0.129-2.913-0.353c-0.192-0.048-0.304-0.176-0.304-0.368v-1.297
			c0-0.16,0.112-0.304,0.304-0.304c0.016,0,0.048,0,0.064,0c0.864,0.112,2.209,0.224,2.721,0.224c0.768,0,0.944-0.208,0.944-0.624
			c0-0.24-0.144-0.416-0.592-0.672l-2.081-1.201c-0.896-0.512-1.424-1.328-1.424-2.368c0-1.617,1.072-2.481,3.281-2.481
			c1.265,0,2.033,0.16,2.849,0.368c0.192,0.048,0.304,0.176,0.304,0.368v1.297c0,0.191-0.112,0.304-0.272,0.304
			c-0.016,0-0.032,0-0.048,0c-0.464-0.063-1.841-0.208-2.657-0.208c-0.625,0-0.849,0.096-0.849,0.464
			c0,0.24,0.176,0.368,0.496,0.561l1.985,1.137c1.329,0.768,1.617,1.601,1.617,2.465
			C618.618,589.098,617.53,590.283,615.193,590.283z"/>
		<path fill="#AAE0DE" d="M624.009,590.283c-2.593,0-4.018-1.617-4.018-4.162v-1.12c0-2.546,1.425-4.162,4.018-4.162
			c2.593,0,4.002,1.616,4.002,4.162v1.12C628.011,588.666,626.602,590.283,624.009,590.283z M625.434,585.001
			c0-1.297-0.496-1.953-1.425-1.953c-0.928,0-1.44,0.656-1.44,1.953v1.12c0,1.297,0.512,1.969,1.44,1.969
			c0.929,0,1.425-0.672,1.425-1.969V585.001z"/>
		<path fill="#AAE0DE" d="M632.665,590.283c-0.88,0-2.097-0.129-2.913-0.353c-0.192-0.048-0.304-0.176-0.304-0.368v-1.297
			c0-0.16,0.112-0.304,0.304-0.304c0.016,0,0.048,0,0.064,0c0.864,0.112,2.209,0.224,2.721,0.224c0.768,0,0.944-0.208,0.944-0.624
			c0-0.24-0.144-0.416-0.592-0.672l-2.081-1.201c-0.896-0.512-1.424-1.328-1.424-2.368c0-1.617,1.072-2.481,3.281-2.481
			c1.265,0,2.033,0.16,2.849,0.368c0.192,0.048,0.304,0.176,0.304,0.368v1.297c0,0.191-0.112,0.304-0.272,0.304
			c-0.016,0-0.032,0-0.048,0c-0.464-0.063-1.841-0.208-2.657-0.208c-0.625,0-0.849,0.096-0.849,0.464
			c0,0.24,0.176,0.368,0.496,0.561l1.985,1.137c1.329,0.768,1.617,1.601,1.617,2.465
			C636.09,589.098,635.001,590.283,632.665,590.283z"/>
		<path fill="#AAE0DE" d="M649.018,589.866c-0.912,0.225-2.176,0.417-3.408,0.417c-2.594,0-4.018-1.505-4.018-4.098v-1.249
			c0-2.513,1.312-4.098,4.018-4.098c0.32,0,0.848,0.048,1.312,0.112v-2.77c0-0.176,0.144-0.32,0.32-0.32h1.936
			c0.177,0,0.337,0.145,0.337,0.32v11.221C649.515,589.658,649.45,589.77,649.018,589.866z M646.922,583.063
			c-0.385-0.048-0.929-0.08-1.312-0.08c-1.137,0-1.426,0.833-1.426,1.953v1.249c0,1.136,0.289,1.969,1.426,1.969
			c0.527,0,1.008-0.049,1.312-0.097V583.063z"/>
		<path fill="#AAE0DE" d="M658.857,586.361h-5.105v0.032c0,0.912,0.385,1.744,1.648,1.744c1.009,0,2.434-0.08,3.074-0.144
			c0.016,0,0.031,0,0.047,0c0.177,0,0.305,0.08,0.305,0.256v1.217c0,0.256-0.064,0.368-0.336,0.432
			c-1.025,0.256-1.889,0.385-3.281,0.385c-1.938,0-4.018-1.024-4.018-4.114v-1.12c0-2.577,1.504-4.21,4.049-4.21
			c2.625,0,3.954,1.793,3.954,4.21v0.928C659.194,586.217,659.066,586.361,658.857,586.361z M656.665,584.696
			c0-1.185-0.544-1.776-1.44-1.776c-0.881,0-1.473,0.608-1.473,1.776v0.064h2.913V584.696z"/>
		<path fill="#AAE0DE" d="M674.203,590.138h-2.242c-0.16,0-0.287-0.128-0.319-0.288l-0.577-2.625h-3.281l-0.576,2.625
			c-0.031,0.16-0.16,0.288-0.319,0.288h-2.241c-0.16,0-0.271-0.096-0.271-0.256c0-0.017,0.016-0.048,0.016-0.08l2.385-9.924
			c0.368-1.537,1.553-1.777,2.657-1.777s2.272,0.24,2.642,1.777l2.385,9.924c0,0.032,0.016,0.063,0.016,0.08
			C674.475,590.043,674.362,590.138,674.203,590.138z M669.641,580.615c-0.032-0.16-0.064-0.24-0.208-0.24s-0.192,0.08-0.224,0.24
			l-0.977,4.417h2.385L669.641,580.615z"/>
		<path fill="#AAE0DE" d="M683.723,582.647l-0.497,0.16c0.192,0.288,0.353,0.801,0.353,1.185v0.128c0,2.081-1.457,2.993-3.953,2.993
			c-0.753,0-1.346-0.112-1.666-0.24c-0.176,0.112-0.223,0.225-0.223,0.368c0,0.257,0.096,0.368,0.479,0.448l1.809,0.4
			c2.785,0.608,3.745,1.04,3.745,2.577v0.128c0,1.761-1.376,2.609-4.193,2.609c-2.656,0-4.065-0.929-4.065-2.609v-0.128
			c0-0.656,0.272-1.265,0.96-1.793c-0.576-0.32-0.816-0.96-0.816-1.488c0-0.593,0.305-1.041,0.705-1.36
			c-0.513-0.448-0.736-1.265-0.736-1.905v-0.128c0-1.809,1.2-3.025,4.002-3.025h3.984c0.225,0,0.4,0.192,0.4,0.416v0.913
			C684.01,582.519,683.914,582.584,683.723,582.647z M681.129,590.667c0-0.305-0.208-0.513-1.648-0.832l-1.185-0.257
			c-0.192,0.272-0.32,0.528-0.32,1.089v0.128c0,0.544,0.368,0.816,1.601,0.816c1.312,0,1.553-0.336,1.553-0.816V590.667z
			 M681.049,583.992c0-0.656-0.288-1.152-1.424-1.152c-1.137,0-1.457,0.496-1.457,1.152v0.128c0,0.544,0.24,1.12,1.457,1.12
			c1.119,0,1.424-0.432,1.424-1.12V583.992z"/>
		<path fill="#AAE0DE" d="M692.874,590.138h-1.793c-0.176,0-0.32-0.145-0.32-0.32v-0.384c-0.88,0.624-1.585,0.832-2.608,0.832
			c-2.321,0-2.834-1.616-2.834-3.634v-5.33c0-0.176,0.16-0.336,0.336-0.336h1.938c0.176,0,0.32,0.16,0.32,0.336v5.33
			c0,1.121,0.208,1.489,1.184,1.489c0.465,0,0.961-0.225,1.506-0.513v-6.307c0-0.176,0.144-0.336,0.319-0.336h1.937
			c0.176,0,0.336,0.16,0.336,0.336v8.516C693.193,589.994,693.05,590.138,692.874,590.138z"/>
		<path fill="#AAE0DE" d="M701.865,590.138h-1.793c-0.176,0-0.32-0.145-0.32-0.32v-0.256c-0.623,0.448-1.264,0.721-2.225,0.721
			c-1.393,0-2.736-0.673-2.736-2.754v-0.144c0-1.873,1.2-2.705,3.938-2.705h0.864v-0.576c0-0.913-0.448-1.104-1.2-1.104
			c-1.025,0-2.161,0.063-2.658,0.112h-0.08c-0.159,0-0.287-0.08-0.287-0.289v-1.296c0-0.176,0.111-0.305,0.304-0.353
			c0.593-0.144,1.713-0.336,2.769-0.336c2.306,0,3.746,0.929,3.746,3.266v5.714C702.186,589.994,702.041,590.138,701.865,590.138z
			 M699.641,586.217h-0.912c-1.121,0-1.408,0.385-1.408,1.169v0.144c0,0.673,0.336,0.801,1.008,0.801c0.48,0,0.928-0.16,1.312-0.353
			V586.217z"/>
		<path fill="#AAE0DE" d="M712.168,590.283c-0.32,0-0.848-0.049-1.312-0.112v2.769c0,0.177-0.145,0.32-0.32,0.32h-1.937
			c-0.176,0-0.336-0.144-0.336-0.32v-11.22c0-0.257,0.063-0.368,0.496-0.465c0.913-0.224,2.177-0.416,3.409-0.416
			c2.594,0,4.018,1.505,4.018,4.098v1.249C716.186,588.698,714.873,590.283,712.168,590.283z M713.593,584.936
			c0-1.137-0.288-1.953-1.425-1.953c-0.527,0-1.008,0.032-1.312,0.08v4.994c0.385,0.048,0.929,0.097,1.312,0.097
			c1.137,0,1.425-0.849,1.425-1.969V584.936z"/>
		<path fill="#AAE0DE" d="M721.576,590.283c-2.594,0-4.018-1.617-4.018-4.162v-1.12c0-2.546,1.424-4.162,4.018-4.162
			c2.593,0,4.002,1.616,4.002,4.162v1.12C725.578,588.666,724.169,590.283,721.576,590.283z M723,585.001
			c0-1.297-0.496-1.953-1.424-1.953c-0.929,0-1.441,0.656-1.441,1.953v1.12c0,1.297,0.513,1.969,1.441,1.969
			c0.928,0,1.424-0.672,1.424-1.969V585.001z"/>
		<path fill="#AAE0DE" d="M732.023,582.983h-0.127c-0.785,0-1.473,0.24-2.065,0.561v6.259c0,0.176-0.144,0.336-0.319,0.336h-1.938
			c-0.176,0-0.336-0.16-0.336-0.336v-8.516c0-0.176,0.145-0.32,0.32-0.32h1.904c0.176,0,0.32,0.145,0.32,0.32v0.32
			c0.592-0.496,1.393-0.769,2.161-0.769c0.176,0,0.319,0.145,0.319,0.32v1.521C732.264,582.823,732.168,582.983,732.023,582.983z"/>
		<path fill="#AAE0DE" d="M744.873,589.866c-0.912,0.225-2.178,0.417-3.41,0.417c-2.593,0-4.018-1.505-4.018-4.098v-1.249
			c0-2.513,1.312-4.098,4.018-4.098c0.32,0,0.849,0.048,1.312,0.112v-2.77c0-0.176,0.145-0.32,0.32-0.32h1.938
			c0.176,0,0.336,0.145,0.336,0.32v11.221C745.369,589.658,745.305,589.77,744.873,589.866z M742.775,583.063
			c-0.384-0.048-0.928-0.08-1.312-0.08c-1.137,0-1.424,0.833-1.424,1.953v1.249c0,1.136,0.287,1.969,1.424,1.969
			c0.529,0,1.009-0.049,1.312-0.097V583.063z"/>
		<path fill="#AAE0DE" d="M751.527,577.91l-1.953,1.952c-0.128,0.128-0.176,0.192-0.384,0.192h-1.713
			c-0.096,0-0.16-0.048-0.16-0.112c0-0.048,0.032-0.096,0.08-0.16l1.489-1.872c0.127-0.177,0.207-0.24,0.432-0.24h2.097
			c0.097,0,0.177,0.048,0.177,0.111C751.592,577.813,751.575,577.861,751.527,577.91z M749.606,590.138h-1.921
			c-0.176,0-0.336-0.16-0.336-0.336v-8.5c0-0.176,0.16-0.336,0.336-0.336h1.921c0.177,0,0.337,0.16,0.337,0.336v8.5
			C749.943,589.978,749.783,590.138,749.606,590.138z"/>
		<path fill="#AAE0DE" d="M758.681,590.138h-1.793c-0.177,0-0.32-0.145-0.32-0.32v-0.256c-0.624,0.448-1.265,0.721-2.225,0.721
			c-1.393,0-2.737-0.673-2.737-2.754v-0.144c0-1.873,1.201-2.705,3.938-2.705h0.865v-0.576c0-0.913-0.449-1.104-1.201-1.104
			c-1.024,0-2.16,0.063-2.657,0.112h-0.08c-0.159,0-0.288-0.08-0.288-0.289v-1.296c0-0.176,0.112-0.305,0.305-0.353
			c0.592-0.144,1.713-0.336,2.769-0.336c2.306,0,3.745,0.929,3.745,3.266v5.714C759,589.994,758.856,590.138,758.681,590.138z
			 M756.455,586.217h-0.912c-1.12,0-1.408,0.385-1.408,1.169v0.144c0,0.673,0.336,0.801,1.008,0.801c0.48,0,0.929-0.16,1.312-0.353
			V586.217z"/>
	</g>
	<g enable-background="new    ">
		<path fill="#2B4E6B" d="M424.018,680.053c-1.468,0-2.134-0.909-2.134-2.431v-4.141c0-0.091,0.063-0.172,0.153-0.172h0.09
			c0.09,0,0.153,0.081,0.153,0.172v4.141c0,1.306,0.477,2.062,1.738,2.062c1.26,0,1.729-0.756,1.729-2.062v-4.141
			c0-0.091,0.063-0.172,0.153-0.172h0.09c0.09,0,0.153,0.081,0.153,0.172v4.141C426.143,679.144,425.485,680.053,424.018,680.053z"
			/>
		<path fill="#2B4E6B" d="M429.048,680.053c-0.585,0-1.035-0.045-1.314-0.09c-0.162-0.027-0.243-0.062-0.243-0.188v-0.036
			c0-0.145,0.108-0.162,0.207-0.153c0.288,0.036,0.855,0.09,1.35,0.09c1.359,0,1.675-0.604,1.675-1.341
			c0-0.667-0.387-0.9-1.387-1.521l-0.567-0.352c-0.819-0.504-1.414-0.927-1.414-1.801c0-1.107,1.053-1.396,2.106-1.396
			c0.378,0,0.991,0.045,1.251,0.081c0.18,0.019,0.243,0.063,0.243,0.181v0.045c0,0.135-0.099,0.162-0.279,0.144
			c-0.081-0.009-0.837-0.071-1.224-0.071c-1.188,0-1.692,0.351-1.692,1.017c0,0.64,0.414,0.964,1.215,1.45l0.576,0.351
			c1.062,0.64,1.584,1.044,1.584,1.873C431.137,679.153,430.786,680.053,429.048,680.053z"/>
		<path fill="#2B4E6B" d="M436.493,680.027h-0.108c-0.072,0-0.126-0.055-0.144-0.117l-0.756-2.439h-2.593l-0.738,2.439
			c-0.018,0.054-0.081,0.117-0.144,0.117h-0.117c-0.117,0-0.162-0.1-0.126-0.226l1.845-6.095c0.081-0.27,0.288-0.441,0.585-0.441
			c0.288,0,0.495,0.162,0.576,0.433l1.845,6.104C436.655,679.927,436.619,680.027,436.493,680.027z M434.404,673.806
			c-0.027-0.091-0.081-0.181-0.207-0.181c-0.135,0-0.18,0.072-0.207,0.171L433,677.074h2.386L434.404,673.806z"/>
		<path fill="#2B4E6B" d="M439.075,677.173c-0.351,0-0.729-0.018-0.981-0.036v2.692c0,0.09-0.063,0.171-0.153,0.171h-0.09
			c-0.09,0-0.153-0.081-0.153-0.171v-6.347c0-0.081,0.072-0.162,0.153-0.172c0.315-0.018,0.837-0.045,1.225-0.045
			c1.53,0,2.449,0.531,2.449,1.828v0.152C441.523,676.66,440.605,677.173,439.075,677.173z M441.127,675.094
			c0-1.116-0.711-1.477-2.053-1.477c-0.378,0-0.72,0.009-0.981,0.027v3.142c0.279,0.018,0.675,0.036,0.981,0.036
			c1.396,0,2.053-0.433,2.053-1.576V675.094z"/>
		<path fill="#2B4E6B" d="M445.969,680h-2.323c-0.684,0-1.089-0.252-1.089-1.008v-4.673c0-0.756,0.405-1.009,1.089-1.009h2.323
			c0.099,0,0.171,0.063,0.171,0.153v0.072c0,0.09-0.072,0.144-0.171,0.144h-2.323c-0.432,0-0.693,0.081-0.693,0.64v1.98h3.016
			c0.099,0,0.171,0.054,0.171,0.145v0.09c0,0.09-0.072,0.153-0.171,0.153h-3.016v2.305c0,0.558,0.261,0.639,0.693,0.639h2.323
			c0.099,0,0.171,0.054,0.171,0.145v0.071C446.14,679.936,446.068,680,445.969,680z"/>
		<path fill="#2B4E6B" d="M450.766,680h-2.323c-0.684,0-1.089-0.252-1.089-1.008v-4.673c0-0.756,0.405-1.009,1.089-1.009h2.323
			c0.099,0,0.171,0.063,0.171,0.153v0.072c0,0.09-0.072,0.144-0.171,0.144h-2.323c-0.432,0-0.693,0.081-0.693,0.64v1.98h3.016
			c0.099,0,0.171,0.054,0.171,0.145v0.09c0,0.09-0.072,0.153-0.171,0.153h-3.016v2.305c0,0.558,0.261,0.639,0.693,0.639h2.323
			c0.099,0,0.171,0.054,0.171,0.145v0.071C450.937,679.936,450.865,680,450.766,680z"/>
		<path fill="#2B4E6B" d="M455.734,679.964c-0.234,0.027-0.729,0.09-1.558,0.09c-1.125,0-2.206-0.647-2.206-2.8v-1.188
			c0-2.151,1.081-2.8,2.206-2.8c0.829,0,1.324,0.063,1.558,0.091c0.081,0.009,0.171,0.062,0.171,0.152v0.108
			c0,0.108-0.072,0.117-0.171,0.108c-0.324-0.036-0.999-0.081-1.558-0.081c-1.008,0-1.809,0.647-1.809,2.421v1.188
			c0,1.773,0.801,2.422,1.809,2.422c0.559,0,1.233-0.045,1.558-0.081c0.099-0.009,0.171,0,0.171,0.108v0.107
			C455.905,679.901,455.815,679.955,455.734,679.964z"/>
		<path fill="#2B4E6B" d="M463.897,680h-0.09c-0.09,0-0.153-0.081-0.153-0.171v-6.122c0-0.045-0.027-0.062-0.063-0.062
			c-0.045,0-0.054,0.018-0.09,0.081l-1.558,3.285c-0.126,0.262-0.261,0.324-0.459,0.324c-0.198,0-0.333-0.062-0.459-0.324
			l-1.557-3.285c-0.036-0.063-0.045-0.081-0.09-0.081c-0.036,0-0.063,0.018-0.063,0.062v6.122c0,0.09-0.063,0.171-0.153,0.171h-0.09
			c-0.09,0-0.153-0.081-0.153-0.171v-6.122c0-0.297,0.18-0.441,0.459-0.441c0.216,0,0.342,0.126,0.414,0.279l1.576,3.304
			c0.036,0.081,0.063,0.117,0.117,0.117c0.054,0,0.081-0.036,0.117-0.117l1.576-3.304c0.072-0.153,0.198-0.279,0.414-0.279
			c0.279,0,0.459,0.145,0.459,0.441v6.122C464.05,679.919,463.987,680,463.897,680z"/>
		<path fill="#2B4E6B" d="M468.703,677.677h-3.043v0.188c0,1.513,0.729,1.837,1.629,1.837c0.396,0,0.892-0.063,1.333-0.153
			c0.09-0.018,0.189,0,0.189,0.117v0.062c0,0.1-0.036,0.145-0.171,0.172c-0.432,0.09-0.945,0.152-1.351,0.152
			c-1.116,0-2.025-0.485-2.025-2.188v-0.594c0-1.242,0.63-2.152,1.818-2.152c1.243,0,1.792,0.864,1.792,2.144v0.242
			C468.874,677.605,468.793,677.677,468.703,677.677z M468.478,677.263c0-1.135-0.378-1.792-1.396-1.792
			c-0.999,0-1.422,0.729-1.422,1.801v0.045h2.818V677.263z M468.09,673.131l-0.963,1.152c-0.081,0.1-0.108,0.153-0.198,0.153h-0.198
			c-0.054,0-0.081-0.027-0.081-0.063c0-0.026,0.009-0.062,0.036-0.09l0.9-1.152c0.081-0.099,0.117-0.135,0.207-0.135h0.234
			c0.063,0,0.099,0.018,0.099,0.062C468.126,673.077,468.118,673.103,468.09,673.131z"/>
		<path fill="#2B4E6B" d="M473.068,680h-0.072c-0.072,0-0.126-0.009-0.171-0.072l-1.495-2.088l-1.467,2.088
			c-0.027,0.036-0.063,0.072-0.099,0.072h-0.153c-0.09,0-0.126-0.045-0.126-0.108c0-0.036,0.018-0.09,0.045-0.126l1.584-2.241
			l-1.53-2.143c-0.018-0.027-0.036-0.063-0.036-0.1c0-0.062,0.054-0.116,0.162-0.116h0.054c0.081,0,0.153,0.045,0.171,0.071
			l1.422,1.98l1.377-1.962c0.036-0.055,0.117-0.09,0.171-0.09h0.081c0.099,0,0.135,0.045,0.135,0.107c0,0.045-0.027,0.1-0.063,0.153
			l-1.485,2.115l1.594,2.233c0.018,0.026,0.027,0.062,0.027,0.099C473.194,679.936,473.158,680,473.068,680z"/>
		<path fill="#2B4E6B" d="M474.479,674.274h-0.054c-0.09,0-0.171-0.072-0.171-0.171v-0.666c0-0.091,0.081-0.172,0.171-0.172h0.054
			c0.09,0,0.171,0.081,0.171,0.172v0.666C474.65,674.202,474.569,674.274,474.479,674.274z M474.479,680.053h-0.054
			c-0.09,0-0.171-0.081-0.171-0.171v-4.546c0-0.091,0.081-0.171,0.171-0.171h0.054c0.09,0,0.171,0.08,0.171,0.171v4.546
			C474.65,679.972,474.569,680.053,474.479,680.053z"/>
		<path fill="#2B4E6B" d="M478.737,679.972c-0.378,0.045-0.801,0.081-1.089,0.081c-1.288,0-1.783-0.999-1.783-2.179v-0.603
			c0-1.197,0.495-2.152,1.783-2.152c0.288,0,0.711,0.036,1.089,0.081c0.135,0.019,0.171,0.063,0.171,0.162v0.063
			c0,0.099-0.081,0.144-0.189,0.126c-0.423-0.054-0.774-0.081-1.071-0.081c-1.026,0-1.387,0.711-1.387,1.801v0.603
			c0,1.09,0.36,1.828,1.387,1.828c0.297,0,0.648-0.027,1.071-0.081c0.108-0.019,0.189,0.026,0.189,0.126v0.062
			C478.908,679.91,478.872,679.955,478.737,679.972z"/>
		<path fill="#2B4E6B" d="M481.383,680.053c-1.233,0-1.854-0.792-1.854-2.151v-0.63c0-1.359,0.621-2.152,1.854-2.152
			s1.854,0.793,1.854,2.152v0.63C483.237,679.261,482.616,680.053,481.383,680.053z M482.841,677.272
			c0-1.107-0.405-1.801-1.458-1.801s-1.458,0.693-1.458,1.801v0.63c0,1.107,0.405,1.801,1.458,1.801s1.458-0.693,1.458-1.801
			V677.272z"/>
		<path fill="#2B4E6B" d="M484.515,680.053h-0.054c-0.09,0-0.171-0.071-0.171-0.171v-0.666c0-0.09,0.081-0.171,0.171-0.171h0.054
			c0.09,0,0.171,0.081,0.171,0.171v0.666C484.686,679.982,484.604,680.053,484.515,680.053z"/>
		<path fill="#2B4E6B" d="M491.481,679.964c-0.234,0.027-0.729,0.09-1.558,0.09c-1.125,0-2.206-0.647-2.206-2.8v-1.188
			c0-2.151,1.081-2.8,2.206-2.8c0.829,0,1.324,0.063,1.558,0.091c0.081,0.009,0.171,0.062,0.171,0.152v0.108
			c0,0.108-0.072,0.117-0.171,0.108c-0.324-0.036-0.999-0.081-1.558-0.081c-1.008,0-1.81,0.647-1.81,2.421v1.188
			c0,1.773,0.801,2.422,1.81,2.422c0.559,0,1.233-0.045,1.558-0.081c0.099-0.009,0.171,0,0.171,0.108v0.107
			C491.652,679.901,491.562,679.955,491.481,679.964z"/>
		<path fill="#2B4E6B" d="M494.181,680.053c-1.233,0-1.854-0.792-1.854-2.151v-0.63c0-1.359,0.621-2.152,1.854-2.152
			s1.854,0.793,1.854,2.152v0.63C496.035,679.261,495.414,680.053,494.181,680.053z M495.639,677.272
			c0-1.107-0.405-1.801-1.458-1.801s-1.458,0.693-1.458,1.801v0.63c0,1.107,0.405,1.801,1.458,1.801s1.458-0.693,1.458-1.801
			V677.272z"/>
		<path fill="#2B4E6B" d="M500.418,680h-0.063c-0.09,0-0.162-0.081-0.162-0.171v-2.989c0-1.026-0.54-1.368-1.215-1.368
			c-0.459,0-0.972,0.153-1.422,0.369v3.988c0,0.09-0.081,0.171-0.171,0.171h-0.054c-0.09,0-0.171-0.081-0.171-0.171v-4.483
			c0-0.1,0.063-0.18,0.162-0.18h0.072c0.099,0,0.162,0.08,0.162,0.18v0.144c0.468-0.225,0.981-0.369,1.449-0.369
			c0.864,0,1.584,0.469,1.584,1.72v2.989C500.589,679.919,500.517,680,500.418,680z"/>
		<path fill="#2B4E6B" d="M503.171,680.053c-0.405,0-0.981-0.062-1.305-0.126c-0.126-0.026-0.198-0.045-0.198-0.144v-0.1
			c0-0.107,0.09-0.144,0.198-0.126c0.432,0.072,0.954,0.145,1.323,0.145c0.648,0,1.143-0.171,1.143-0.9
			c0-0.369-0.198-0.567-0.954-0.981l-0.576-0.315c-0.675-0.369-1.089-0.666-1.089-1.278c0-0.837,0.666-1.107,1.377-1.107
			c0.648,0,0.981,0.046,1.288,0.081c0.126,0.019,0.189,0.036,0.189,0.153v0.072c0,0.144-0.054,0.162-0.189,0.144
			c-0.234-0.026-0.756-0.099-1.251-0.099c-0.576,0-1.018,0.117-1.018,0.756c0,0.396,0.324,0.631,0.874,0.937l0.603,0.333
			c0.747,0.414,1.144,0.711,1.144,1.306C504.729,679.765,504.009,680.053,503.171,680.053z"/>
		<path fill="#2B4E6B" d="M509.112,677.677h-3.043v0.188c0,1.513,0.729,1.837,1.629,1.837c0.396,0,0.892-0.063,1.333-0.153
			c0.09-0.018,0.189,0,0.189,0.117v0.062c0,0.1-0.036,0.145-0.171,0.172c-0.432,0.09-0.945,0.152-1.351,0.152
			c-1.116,0-2.025-0.485-2.025-2.188v-0.594c0-1.242,0.63-2.152,1.818-2.152c1.243,0,1.792,0.864,1.792,2.144v0.242
			C509.283,677.605,509.202,677.677,509.112,677.677z M508.887,677.263c0-1.135-0.378-1.792-1.396-1.792
			c-0.999,0-1.422,0.729-1.422,1.801v0.045h2.818V677.263z"/>
		<path fill="#2B4E6B" d="M509.966,681.756c-0.153,0-0.243-0.01-0.378-0.027c-0.126-0.018-0.153-0.054-0.153-0.126v-0.081
			c0-0.081,0.054-0.108,0.189-0.108h0.342c0.396,0,0.531-0.099,0.531-0.639v-5.438c0-0.091,0.054-0.171,0.144-0.171h0.099
			c0.099,0,0.153,0.08,0.153,0.171v5.438C510.893,681.549,510.569,681.756,509.966,681.756z M510.722,674.274h-0.054
			c-0.09,0-0.171-0.072-0.171-0.171v-0.666c0-0.091,0.081-0.172,0.171-0.172h0.054c0.09,0,0.171,0.081,0.171,0.172v0.666
			C510.893,674.202,510.812,674.274,510.722,674.274z"/>
		<path fill="#2B4E6B" d="M513.962,680.053c-1.233,0-1.854-0.792-1.854-2.151v-0.63c0-1.359,0.621-2.152,1.854-2.152
			s1.854,0.793,1.854,2.152v0.63C515.817,679.261,515.196,680.053,513.962,680.053z M515.421,677.272
			c0-1.107-0.405-1.801-1.458-1.801s-1.458,0.693-1.458,1.801v0.63c0,1.107,0.405,1.801,1.458,1.801s1.458-0.693,1.458-1.801
			V677.272z"/>
		<path fill="#2B4E6B" d="M522.018,679.883c-0.396,0.081-0.999,0.171-1.512,0.171c-1.243,0-1.765-0.891-1.765-2.188v-0.594
			c0-1.423,0.594-2.152,1.765-2.152c0.351,0,0.891,0.055,1.251,0.136v-1.773c0-0.091,0.063-0.172,0.153-0.172H522
			c0.09,0,0.153,0.081,0.153,0.172v6.229C522.153,679.82,522.126,679.855,522.018,679.883z M521.757,675.589
			c-0.342-0.072-0.9-0.117-1.251-0.117c-0.99,0-1.369,0.612-1.369,1.801v0.594c0,1.161,0.36,1.837,1.369,1.837
			c0.432,0,0.927-0.063,1.251-0.117V675.589z"/>
		<path fill="#2B4E6B" d="M526.716,677.677h-3.043v0.188c0,1.513,0.729,1.837,1.63,1.837c0.396,0,0.891-0.063,1.332-0.153
			c0.09-0.018,0.189,0,0.189,0.117v0.062c0,0.1-0.036,0.145-0.171,0.172c-0.432,0.09-0.945,0.152-1.35,0.152
			c-1.117,0-2.026-0.485-2.026-2.188v-0.594c0-1.242,0.63-2.152,1.818-2.152c1.243,0,1.792,0.864,1.792,2.144v0.242
			C526.887,677.605,526.806,677.677,526.716,677.677z M526.491,677.263c0-1.135-0.378-1.792-1.396-1.792
			c-0.999,0-1.422,0.729-1.422,1.801v0.045h2.818V677.263z"/>
		<path fill="#2B4E6B" d="M533.448,680h-2.323c-0.684,0-1.089-0.252-1.089-1.008v-4.673c0-0.756,0.405-1.009,1.089-1.009h2.323
			c0.099,0,0.171,0.063,0.171,0.153v0.072c0,0.09-0.072,0.144-0.171,0.144h-2.323c-0.432,0-0.693,0.081-0.693,0.64v1.98h3.016
			c0.099,0,0.171,0.054,0.171,0.145v0.09c0,0.09-0.072,0.153-0.171,0.153h-3.016v2.305c0,0.558,0.261,0.639,0.693,0.639h2.323
			c0.099,0,0.171,0.054,0.171,0.145v0.071C533.619,679.936,533.547,680,533.448,680z"/>
		<path fill="#2B4E6B" d="M538.083,680h-0.072c-0.072,0-0.126-0.009-0.171-0.072l-1.495-2.088l-1.467,2.088
			c-0.027,0.036-0.063,0.072-0.099,0.072h-0.153c-0.09,0-0.126-0.045-0.126-0.108c0-0.036,0.018-0.09,0.045-0.126l1.584-2.241
			l-1.53-2.143c-0.018-0.027-0.036-0.063-0.036-0.1c0-0.062,0.054-0.116,0.162-0.116h0.054c0.081,0,0.153,0.045,0.171,0.071
			l1.422,1.98l1.377-1.962c0.036-0.055,0.117-0.09,0.171-0.09h0.081c0.099,0,0.135,0.045,0.135,0.107c0,0.045-0.027,0.1-0.063,0.153
			l-1.485,2.115l1.594,2.233c0.018,0.026,0.027,0.062,0.027,0.099C538.208,679.936,538.172,680,538.083,680z"/>
		<path fill="#2B4E6B" d="M540.827,680.053c-0.351,0-0.892-0.054-1.251-0.135v1.665c0,0.091-0.063,0.172-0.153,0.172h-0.09
			c-0.09,0-0.153-0.081-0.153-0.172v-6.121c0-0.108,0.027-0.145,0.135-0.171c0.396-0.081,1-0.172,1.513-0.172
			c1.242,0,1.764,0.892,1.764,2.188v0.594C542.591,679.325,541.998,680.053,540.827,680.053z M542.195,677.308
			c0-1.162-0.36-1.837-1.368-1.837c-0.432,0-0.927,0.063-1.251,0.117v3.997c0.342,0.072,0.9,0.117,1.251,0.117
			c0.99,0,1.368-0.612,1.368-1.801V677.308z"/>
		<path fill="#2B4E6B" d="M545.435,680.053c-1.233,0-1.854-0.792-1.854-2.151v-0.63c0-1.359,0.621-2.152,1.854-2.152
			s1.854,0.793,1.854,2.152v0.63C547.29,679.261,546.668,680.053,545.435,680.053z M546.894,677.272
			c0-1.107-0.405-1.801-1.458-1.801s-1.458,0.693-1.458,1.801v0.63c0,1.107,0.405,1.801,1.458,1.801s1.458-0.693,1.458-1.801
			V677.272z"/>
		<path fill="#2B4E6B" d="M550.061,675.471c-0.342,0-0.72,0.081-1.251,0.414v3.943c0,0.09-0.081,0.171-0.171,0.171h-0.054
			c-0.09,0-0.171-0.081-0.171-0.171v-4.483c0-0.1,0.063-0.18,0.162-0.18h0.072c0.099,0,0.162,0.08,0.162,0.18v0.189
			c0.459-0.298,0.81-0.415,1.251-0.415c0.144,0,0.243,0.027,0.243,0.136v0.071C550.304,675.444,550.205,675.471,550.061,675.471z"/>
		<path fill="#2B4E6B" d="M553.472,680.027c-0.135,0.018-0.315,0.026-0.468,0.026c-0.64,0-1.018-0.198-1.018-0.972v-3.547h-0.891
			c-0.099,0-0.171-0.055-0.171-0.145v-0.09c0-0.09,0.072-0.135,0.171-0.135h0.891v-0.928c0-0.09,0.054-0.171,0.153-0.171h0.099
			c0.09,0,0.144,0.081,0.144,0.171v0.928h1.071c0.099,0,0.171,0.045,0.171,0.135v0.09c0,0.09-0.072,0.145-0.171,0.145h-1.071v3.547
			c0,0.54,0.225,0.621,0.622,0.621h0.432c0.135,0,0.189,0.045,0.189,0.126v0.054C553.625,679.955,553.598,680.009,553.472,680.027z"
			/>
		<path fill="#2B4E6B" d="M557.567,680h-0.045c-0.099,0-0.18-0.081-0.18-0.18v-0.226c-0.441,0.243-0.972,0.459-1.53,0.459
			c-0.675,0-1.377-0.324-1.377-1.449v-0.117c0-0.927,0.585-1.386,2.224-1.386h0.693v-0.324c0-0.937-0.261-1.306-1.134-1.306
			c-0.594,0-0.855,0.036-1.279,0.081c-0.09,0.009-0.207,0-0.207-0.135v-0.055c0-0.117,0.072-0.144,0.207-0.162
			c0.378-0.045,0.685-0.081,1.279-0.081c1.215,0,1.53,0.685,1.53,1.657v3.043C557.747,679.919,557.666,680,557.567,680z
			 M557.351,677.452h-0.693c-1.359,0-1.828,0.271-1.828,1.035v0.117c0,0.837,0.441,1.099,0.981,1.099
			c0.504,0,0.936-0.135,1.54-0.459V677.452z"/>
		<path fill="#2B4E6B" d="M562.148,679.883c-0.396,0.081-0.999,0.171-1.512,0.171c-1.243,0-1.765-0.891-1.765-2.188v-0.594
			c0-1.423,0.594-2.152,1.765-2.152c0.351,0,0.891,0.055,1.251,0.136v-1.773c0-0.091,0.063-0.172,0.153-0.172h0.09
			c0.09,0,0.153,0.081,0.153,0.172v6.229C562.283,679.82,562.256,679.855,562.148,679.883z M561.887,675.589
			c-0.342-0.072-0.9-0.117-1.251-0.117c-0.99,0-1.369,0.612-1.369,1.801v0.594c0,1.161,0.36,1.837,1.369,1.837
			c0.432,0,0.927-0.063,1.251-0.117V675.589z"/>
		<path fill="#2B4E6B" d="M565.262,680.053c-1.233,0-1.854-0.792-1.854-2.151v-0.63c0-1.359,0.621-2.152,1.854-2.152
			s1.854,0.793,1.854,2.152v0.63C567.116,679.261,566.495,680.053,565.262,680.053z M566.72,677.272
			c0-1.107-0.405-1.801-1.458-1.801s-1.458,0.693-1.458,1.801v0.63c0,1.107,0.405,1.801,1.458,1.801s1.458-0.693,1.458-1.801
			V677.272z"/>
		<path fill="#2B4E6B" d="M569.888,675.471c-0.342,0-0.72,0.081-1.251,0.414v3.943c0,0.09-0.081,0.171-0.171,0.171h-0.054
			c-0.09,0-0.171-0.081-0.171-0.171v-4.483c0-0.1,0.063-0.18,0.162-0.18h0.072c0.099,0,0.162,0.08,0.162,0.18v0.189
			c0.459-0.298,0.81-0.415,1.251-0.415c0.144,0,0.243,0.027,0.243,0.136v0.071C570.131,675.444,570.032,675.471,569.888,675.471z"/>
		<path fill="#2B4E6B" d="M574.055,677.677h-3.043v0.188c0,1.513,0.729,1.837,1.63,1.837c0.396,0,0.891-0.063,1.332-0.153
			c0.09-0.018,0.189,0,0.189,0.117v0.062c0,0.1-0.036,0.145-0.171,0.172c-0.432,0.09-0.945,0.152-1.35,0.152
			c-1.117,0-2.026-0.485-2.026-2.188v-0.594c0-1.242,0.63-2.152,1.818-2.152c1.243,0,1.792,0.864,1.792,2.144v0.242
			C574.226,677.605,574.145,677.677,574.055,677.677z M573.83,677.263c0-1.135-0.378-1.792-1.396-1.792
			c-0.999,0-1.422,0.729-1.422,1.801v0.045h2.818V677.263z"/>
		<path fill="#2B4E6B" d="M576.673,680.053c-0.405,0-0.981-0.062-1.305-0.126c-0.126-0.026-0.198-0.045-0.198-0.144v-0.1
			c0-0.107,0.09-0.144,0.198-0.126c0.432,0.072,0.954,0.145,1.323,0.145c0.648,0,1.143-0.171,1.143-0.9
			c0-0.369-0.198-0.567-0.954-0.981l-0.576-0.315c-0.675-0.369-1.089-0.666-1.089-1.278c0-0.837,0.666-1.107,1.377-1.107
			c0.648,0,0.981,0.046,1.288,0.081c0.126,0.019,0.189,0.036,0.189,0.153v0.072c0,0.144-0.054,0.162-0.189,0.144
			c-0.234-0.026-0.756-0.099-1.251-0.099c-0.576,0-1.018,0.117-1.018,0.756c0,0.396,0.324,0.631,0.874,0.937l0.603,0.333
			c0.747,0.414,1.144,0.711,1.144,1.306C578.231,679.765,577.511,680.053,576.673,680.053z"/>
		<path fill="#2B4E6B" d="M584.386,679.883c-0.396,0.081-0.999,0.171-1.512,0.171c-1.243,0-1.765-0.891-1.765-2.188v-0.594
			c0-1.423,0.594-2.152,1.765-2.152c0.351,0,0.891,0.055,1.251,0.136v-1.773c0-0.091,0.063-0.172,0.153-0.172h0.09
			c0.09,0,0.153,0.081,0.153,0.172v6.229C584.521,679.82,584.495,679.855,584.386,679.883z M584.125,675.589
			c-0.342-0.072-0.9-0.117-1.251-0.117c-0.99,0-1.369,0.612-1.369,1.801v0.594c0,1.161,0.36,1.837,1.369,1.837
			c0.432,0,0.927-0.063,1.251-0.117V675.589z"/>
		<path fill="#2B4E6B" d="M589.084,677.677h-3.043v0.188c0,1.513,0.729,1.837,1.629,1.837c0.396,0,0.892-0.063,1.333-0.153
			c0.09-0.018,0.189,0,0.189,0.117v0.062c0,0.1-0.036,0.145-0.171,0.172c-0.432,0.09-0.945,0.152-1.351,0.152
			c-1.116,0-2.025-0.485-2.025-2.188v-0.594c0-1.242,0.63-2.152,1.818-2.152c1.243,0,1.792,0.864,1.792,2.144v0.242
			C589.256,677.605,589.175,677.677,589.084,677.677z M588.859,677.263c0-1.135-0.378-1.792-1.396-1.792
			c-0.999,0-1.422,0.729-1.422,1.801v0.045h2.818V677.263z"/>
		<path fill="#2B4E6B" d="M595.987,679.964c-0.234,0.027-0.729,0.09-1.558,0.09c-1.125,0-2.206-0.647-2.206-2.8v-1.188
			c0-2.151,1.081-2.8,2.206-2.8c0.829,0,1.324,0.063,1.558,0.091c0.081,0.009,0.171,0.062,0.171,0.152v0.108
			c0,0.108-0.072,0.117-0.171,0.108c-0.324-0.036-0.999-0.081-1.558-0.081c-1.008,0-1.81,0.647-1.81,2.421v1.188
			c0,1.773,0.801,2.422,1.81,2.422c0.559,0,1.233-0.045,1.558-0.081c0.099-0.009,0.171,0,0.171,0.108v0.107
			C596.158,679.901,596.068,679.955,595.987,679.964z"/>
		<path fill="#2B4E6B" d="M600.1,680h-0.045c-0.099,0-0.18-0.081-0.18-0.18v-0.226c-0.441,0.243-0.972,0.459-1.53,0.459
			c-0.675,0-1.377-0.324-1.377-1.449v-0.117c0-0.927,0.585-1.386,2.224-1.386h0.693v-0.324c0-0.937-0.261-1.306-1.134-1.306
			c-0.594,0-0.855,0.036-1.279,0.081c-0.09,0.009-0.207,0-0.207-0.135v-0.055c0-0.117,0.072-0.144,0.207-0.162
			c0.378-0.045,0.685-0.081,1.279-0.081c1.215,0,1.53,0.685,1.53,1.657v3.043C600.28,679.919,600.199,680,600.1,680z
			 M599.884,677.452h-0.693c-1.359,0-1.828,0.271-1.828,1.035v0.117c0,0.837,0.441,1.099,0.981,1.099
			c0.504,0,0.936-0.135,1.54-0.459V677.452z"/>
		<path fill="#2B4E6B" d="M603.187,675.471c-0.342,0-0.72,0.081-1.251,0.414v3.943c0,0.09-0.081,0.171-0.171,0.171h-0.054
			c-0.09,0-0.171-0.081-0.171-0.171v-4.483c0-0.1,0.063-0.18,0.162-0.18h0.072c0.099,0,0.162,0.08,0.162,0.18v0.189
			c0.459-0.298,0.81-0.415,1.251-0.415c0.144,0,0.243,0.027,0.243,0.136v0.071C603.43,675.444,603.331,675.471,603.187,675.471z"/>
		<path fill="#2B4E6B" d="M607.579,680h-0.063c-0.09,0-0.162-0.081-0.162-0.171v-2.989c0-1.026-0.54-1.368-1.215-1.368
			c-0.459,0-0.972,0.153-1.422,0.369v3.988c0,0.09-0.081,0.171-0.171,0.171h-0.054c-0.09,0-0.171-0.081-0.171-0.171v-4.483
			c0-0.1,0.063-0.18,0.162-0.18h0.072c0.099,0,0.162,0.08,0.162,0.18v0.144c0.468-0.225,0.981-0.369,1.449-0.369
			c0.864,0,1.584,0.469,1.584,1.72v2.989C607.75,679.919,607.678,680,607.579,680z"/>
		<path fill="#2B4E6B" d="M612.313,677.677h-3.043v0.188c0,1.513,0.729,1.837,1.629,1.837c0.396,0,0.892-0.063,1.333-0.153
			c0.09-0.018,0.189,0,0.189,0.117v0.062c0,0.1-0.036,0.145-0.171,0.172c-0.432,0.09-0.945,0.152-1.351,0.152
			c-1.116,0-2.025-0.485-2.025-2.188v-0.594c0-1.242,0.63-2.152,1.818-2.152c1.243,0,1.792,0.864,1.792,2.144v0.242
			C612.484,677.605,612.403,677.677,612.313,677.677z M612.088,677.263c0-1.135-0.378-1.792-1.396-1.792
			c-0.999,0-1.422,0.729-1.422,1.801v0.045h2.818V677.263z"/>
		<path fill="#2B4E6B" d="M617.451,680.504c-0.279,0.964-0.621,1.252-1.458,1.252c-0.208,0-0.396-0.027-0.559-0.055
			c-0.108-0.018-0.18-0.036-0.18-0.126v-0.099c0-0.108,0.045-0.145,0.189-0.126c0.135,0.018,0.441,0.054,0.585,0.054
			c0.648,0,0.855-0.198,1.071-0.981l0.117-0.423h-0.126c-0.279,0-0.423-0.072-0.549-0.504l-1.215-4.114
			c-0.036-0.117,0-0.216,0.144-0.216h0.081c0.099,0,0.126,0.062,0.144,0.126l1.215,4.141c0.054,0.189,0.135,0.198,0.207,0.198h0.207
			l1.233-4.349c0.018-0.062,0.045-0.116,0.162-0.116h0.081c0.144,0,0.162,0.107,0.126,0.225L617.451,680.504z"/>
		<path fill="#2B4E6B" d="M626.173,680h-0.081c-0.099,0-0.153-0.081-0.153-0.171v-3.223h-3.601v3.223
			c0,0.09-0.063,0.171-0.153,0.171h-0.09c-0.09,0-0.153-0.081-0.153-0.171v-6.347c0-0.091,0.063-0.172,0.153-0.172h0.09
			c0.09,0,0.153,0.081,0.153,0.172v2.755h3.601v-2.755c0-0.091,0.054-0.172,0.153-0.172h0.081c0.099,0,0.153,0.081,0.153,0.172
			v6.347C626.326,679.919,626.272,680,626.173,680z"/>
		<path fill="#2B4E6B" d="M627.846,675.166h0.063c0.09,0,0.162,0.08,0.162,0.171v2.988c0,1.026,0.54,1.369,1.215,1.369
			c0.459,0,0.972-0.162,1.422-0.369v-3.988c0-0.091,0.081-0.171,0.171-0.171h0.054c0.09,0,0.171,0.08,0.171,0.171v4.483
			c0,0.099-0.063,0.18-0.162,0.18h-0.072c-0.099,0-0.162-0.081-0.162-0.18v-0.145c-0.468,0.226-0.981,0.369-1.449,0.369
			c-0.864,0-1.584-0.477-1.584-1.72v-2.988C627.675,675.246,627.747,675.166,627.846,675.166z"/>
		<path fill="#2B4E6B" d="M635.667,677.677h-3.043v0.188c0,1.513,0.729,1.837,1.629,1.837c0.396,0,0.892-0.063,1.333-0.153
			c0.09-0.018,0.189,0,0.189,0.117v0.062c0,0.1-0.036,0.145-0.171,0.172c-0.432,0.09-0.945,0.152-1.351,0.152
			c-1.116,0-2.025-0.485-2.025-2.188v-0.594c0-1.242,0.63-2.152,1.818-2.152c1.243,0,1.792,0.864,1.792,2.144v0.242
			C635.839,677.605,635.758,677.677,635.667,677.677z M635.442,677.263c0-1.135-0.378-1.792-1.396-1.792
			c-0.999,0-1.422,0.729-1.422,1.801v0.045h2.818V677.263z"/>
		<path fill="#2B4E6B" d="M638.934,679.487c-0.135,0.477-0.351,0.566-0.612,0.566c-0.252,0-0.495-0.09-0.63-0.566l-1.179-4.097
			c-0.036-0.126,0.018-0.225,0.135-0.225h0.09c0.063,0,0.126,0.035,0.162,0.161l1.152,4.061c0.081,0.271,0.171,0.324,0.27,0.324
			c0.099,0,0.171-0.054,0.252-0.324l1.152-4.061c0.036-0.126,0.099-0.161,0.162-0.161h0.108c0.117,0,0.153,0.099,0.117,0.225
			L638.934,679.487z"/>
		<path fill="#2B4E6B" d="M642.643,680.053c-1.234,0-1.855-0.792-1.855-2.151v-0.63c0-1.359,0.621-2.152,1.855-2.152
			c1.232,0,1.854,0.793,1.854,2.152v0.63C644.496,679.261,643.875,680.053,642.643,680.053z M644.101,677.272
			c0-1.107-0.405-1.801-1.458-1.801c-1.054,0-1.459,0.693-1.459,1.801v0.63c0,1.107,0.405,1.801,1.459,1.801
			c1.053,0,1.458-0.693,1.458-1.801V677.272z"/>
		<path fill="#2B4E6B" d="M650.697,679.883c-0.396,0.081-0.999,0.171-1.512,0.171c-1.243,0-1.766-0.891-1.766-2.188v-0.594
			c0-1.423,0.595-2.152,1.766-2.152c0.351,0,0.891,0.055,1.251,0.136v-1.773c0-0.091,0.063-0.172,0.153-0.172h0.09
			c0.09,0,0.152,0.081,0.152,0.172v6.229C650.832,679.82,650.806,679.855,650.697,679.883z M650.437,675.589
			c-0.343-0.072-0.9-0.117-1.251-0.117c-0.99,0-1.369,0.612-1.369,1.801v0.594c0,1.161,0.36,1.837,1.369,1.837
			c0.432,0,0.927-0.063,1.251-0.117V675.589z"/>
		<path fill="#2B4E6B" d="M655.396,677.677h-3.043v0.188c0,1.513,0.729,1.837,1.63,1.837c0.396,0,0.891-0.063,1.332-0.153
			c0.09-0.018,0.189,0,0.189,0.117v0.062c0,0.1-0.036,0.145-0.172,0.172c-0.432,0.09-0.945,0.152-1.35,0.152
			c-1.117,0-2.025-0.485-2.025-2.188v-0.594c0-1.242,0.63-2.152,1.818-2.152c1.242,0,1.791,0.864,1.791,2.144v0.242
			C655.566,677.605,655.486,677.677,655.396,677.677z M655.17,677.263c0-1.135-0.377-1.792-1.395-1.792
			c-1,0-1.423,0.729-1.423,1.801v0.045h2.817V677.263z"/>
		<path fill="#2B4E6B" d="M662.127,680h-2.322c-0.684,0-1.09-0.252-1.09-1.008v-4.673c0-0.756,0.406-1.009,1.09-1.009h2.322
			c0.1,0,0.172,0.063,0.172,0.153v0.072c0,0.09-0.072,0.144-0.172,0.144h-2.322c-0.432,0-0.693,0.081-0.693,0.64v1.98h3.016
			c0.1,0,0.172,0.054,0.172,0.145v0.09c0,0.09-0.072,0.153-0.172,0.153h-3.016v2.305c0,0.558,0.262,0.639,0.693,0.639h2.322
			c0.1,0,0.172,0.054,0.172,0.145v0.071C662.299,679.936,662.227,680,662.127,680z"/>
		<path fill="#2B4E6B" d="M664.746,680.053c-0.406,0-0.982-0.062-1.306-0.126c-0.126-0.026-0.198-0.045-0.198-0.144v-0.1
			c0-0.107,0.09-0.144,0.198-0.126c0.432,0.072,0.954,0.145,1.323,0.145c0.648,0,1.143-0.171,1.143-0.9
			c0-0.369-0.197-0.567-0.953-0.981l-0.576-0.315c-0.676-0.369-1.09-0.666-1.09-1.278c0-0.837,0.666-1.107,1.377-1.107
			c0.648,0,0.982,0.046,1.288,0.081c0.126,0.019,0.188,0.036,0.188,0.153v0.072c0,0.144-0.054,0.162-0.188,0.144
			c-0.234-0.026-0.757-0.099-1.251-0.099c-0.576,0-1.018,0.117-1.018,0.756c0,0.396,0.324,0.631,0.873,0.937l0.604,0.333
			c0.746,0.414,1.143,0.711,1.143,1.306C666.303,679.765,665.583,680.053,664.746,680.053z"/>
		<path fill="#2B4E6B" d="M669.516,680.027c-0.135,0.018-0.314,0.026-0.468,0.026c-0.64,0-1.018-0.198-1.018-0.972v-3.547h-0.892
			c-0.099,0-0.171-0.055-0.171-0.145v-0.09c0-0.09,0.072-0.135,0.171-0.135h0.892v-0.928c0-0.09,0.054-0.171,0.153-0.171h0.099
			c0.091,0,0.144,0.081,0.144,0.171v0.928h1.072c0.099,0,0.171,0.045,0.171,0.135v0.09c0,0.09-0.072,0.145-0.171,0.145h-1.072v3.547
			c0,0.54,0.226,0.621,0.622,0.621h0.433c0.135,0,0.188,0.045,0.188,0.126v0.054C669.669,679.955,669.642,680.009,669.516,680.027z"
			/>
		<path fill="#2B4E6B" d="M673.611,680h-0.045c-0.1,0-0.181-0.081-0.181-0.18v-0.226c-0.44,0.243-0.972,0.459-1.53,0.459
			c-0.676,0-1.377-0.324-1.377-1.449v-0.117c0-0.927,0.584-1.386,2.223-1.386h0.693v-0.324c0-0.937-0.261-1.306-1.134-1.306
			c-0.595,0-0.855,0.036-1.278,0.081c-0.09,0.009-0.207,0-0.207-0.135v-0.055c0-0.117,0.072-0.144,0.207-0.162
			c0.378-0.045,0.684-0.081,1.278-0.081c1.216,0,1.53,0.685,1.53,1.657v3.043C673.791,679.919,673.71,680,673.611,680z
			 M673.395,677.452h-0.693c-1.359,0-1.827,0.271-1.827,1.035v0.117c0,0.837,0.441,1.099,0.981,1.099
			c0.504,0,0.936-0.135,1.539-0.459V677.452z"/>
		<path fill="#2B4E6B" d="M678.191,679.883c-0.396,0.081-0.998,0.171-1.512,0.171c-1.242,0-1.765-0.891-1.765-2.188v-0.594
			c0-1.423,0.595-2.152,1.765-2.152c0.352,0,0.891,0.055,1.252,0.136v-1.773c0-0.091,0.062-0.172,0.152-0.172h0.09
			c0.09,0,0.153,0.081,0.153,0.172v6.229C678.327,679.82,678.301,679.855,678.191,679.883z M677.932,675.589
			c-0.343-0.072-0.9-0.117-1.252-0.117c-0.99,0-1.369,0.612-1.369,1.801v0.594c0,1.161,0.361,1.837,1.369,1.837
			c0.432,0,0.928-0.063,1.252-0.117V675.589z"/>
		<path fill="#2B4E6B" d="M681.306,680.053c-1.233,0-1.854-0.792-1.854-2.151v-0.63c0-1.359,0.621-2.152,1.854-2.152
			s1.854,0.793,1.854,2.152v0.63C683.16,679.261,682.539,680.053,681.306,680.053z M682.764,677.272
			c0-1.107-0.404-1.801-1.458-1.801s-1.458,0.693-1.458,1.801v0.63c0,1.107,0.404,1.801,1.458,1.801s1.458-0.693,1.458-1.801
			V677.272z"/>
		<path fill="#2B4E6B" d="M685.607,680.053c-0.405,0-0.981-0.062-1.306-0.126c-0.126-0.026-0.198-0.045-0.198-0.144v-0.1
			c0-0.107,0.09-0.144,0.198-0.126c0.433,0.072,0.954,0.145,1.323,0.145c0.648,0,1.144-0.171,1.144-0.9
			c0-0.369-0.198-0.567-0.954-0.981l-0.576-0.315c-0.676-0.369-1.09-0.666-1.09-1.278c0-0.837,0.666-1.107,1.378-1.107
			c0.648,0,0.981,0.046,1.288,0.081c0.125,0.019,0.188,0.036,0.188,0.153v0.072c0,0.144-0.054,0.162-0.188,0.144
			c-0.234-0.026-0.757-0.099-1.252-0.099c-0.576,0-1.018,0.117-1.018,0.756c0,0.396,0.324,0.631,0.873,0.937l0.604,0.333
			c0.747,0.414,1.144,0.711,1.144,1.306C687.165,679.765,686.445,680.053,685.607,680.053z"/>
		<path fill="#2B4E6B" d="M692.402,680.053c-1.467,0-2.133-0.909-2.133-2.431v-4.141c0-0.091,0.062-0.172,0.152-0.172h0.09
			c0.09,0,0.153,0.081,0.153,0.172v4.141c0,1.306,0.478,2.062,1.737,2.062c1.261,0,1.729-0.756,1.729-2.062v-4.141
			c0-0.091,0.063-0.172,0.153-0.172h0.09c0.091,0,0.153,0.081,0.153,0.172v4.141C694.527,679.144,693.87,680.053,692.402,680.053z"
			/>
		<path fill="#2B4E6B" d="M699.135,680h-0.062c-0.09,0-0.162-0.081-0.162-0.171v-2.989c0-1.026-0.541-1.368-1.216-1.368
			c-0.459,0-0.972,0.153-1.423,0.369v3.988c0,0.09-0.08,0.171-0.17,0.171h-0.055c-0.09,0-0.171-0.081-0.171-0.171v-4.483
			c0-0.1,0.063-0.18,0.162-0.18h0.071c0.1,0,0.162,0.08,0.162,0.18v0.144c0.469-0.225,0.982-0.369,1.449-0.369
			c0.865,0,1.585,0.469,1.585,1.72v2.989C699.306,679.919,699.234,680,699.135,680z"/>
		<path fill="#2B4E6B" d="M700.88,674.274h-0.054c-0.09,0-0.172-0.072-0.172-0.171v-0.666c0-0.091,0.082-0.172,0.172-0.172h0.054
			c0.09,0,0.171,0.081,0.171,0.172v0.666C701.051,674.202,700.97,674.274,700.88,674.274z M700.88,680.053h-0.054
			c-0.09,0-0.172-0.081-0.172-0.171v-4.546c0-0.091,0.082-0.171,0.172-0.171h0.054c0.09,0,0.171,0.08,0.171,0.171v4.546
			C701.051,679.972,700.97,680.053,700.88,680.053z"/>
		<path fill="#2B4E6B" d="M705.543,679.883c-0.396,0.081-1,0.171-1.513,0.171c-1.243,0-1.765-0.891-1.765-2.188v-0.594
			c0-1.423,0.594-2.152,1.765-2.152c0.351,0,0.892,0.055,1.251,0.136v-1.773c0-0.091,0.063-0.172,0.153-0.172h0.09
			c0.091,0,0.153,0.081,0.153,0.172v6.229C705.678,679.82,705.65,679.855,705.543,679.883z M705.281,675.589
			c-0.342-0.072-0.9-0.117-1.251-0.117c-0.99,0-1.368,0.612-1.368,1.801v0.594c0,1.161,0.359,1.837,1.368,1.837
			c0.433,0,0.927-0.063,1.251-0.117V675.589z"/>
		<path fill="#2B4E6B" d="M708.656,680.053c-1.233,0-1.854-0.792-1.854-2.151v-0.63c0-1.359,0.621-2.152,1.854-2.152
			s1.854,0.793,1.854,2.152v0.63C710.511,679.261,709.89,680.053,708.656,680.053z M710.115,677.272
			c0-1.107-0.406-1.801-1.459-1.801s-1.459,0.693-1.459,1.801v0.63c0,1.107,0.406,1.801,1.459,1.801s1.459-0.693,1.459-1.801
			V677.272z"/>
		<path fill="#2B4E6B" d="M712.958,680.053c-0.405,0-0.981-0.062-1.306-0.126c-0.126-0.026-0.197-0.045-0.197-0.144v-0.1
			c0-0.107,0.09-0.144,0.197-0.126c0.433,0.072,0.954,0.145,1.323,0.145c0.648,0,1.144-0.171,1.144-0.9
			c0-0.369-0.198-0.567-0.954-0.981l-0.576-0.315c-0.675-0.369-1.089-0.666-1.089-1.278c0-0.837,0.666-1.107,1.377-1.107
			c0.648,0,0.981,0.046,1.287,0.081c0.126,0.019,0.189,0.036,0.189,0.153v0.072c0,0.144-0.054,0.162-0.189,0.144
			c-0.233-0.026-0.756-0.099-1.251-0.099c-0.576,0-1.018,0.117-1.018,0.756c0,0.396,0.324,0.631,0.873,0.937l0.604,0.333
			c0.747,0.414,1.144,0.711,1.144,1.306C714.516,679.765,713.795,680.053,712.958,680.053z"/>
		<path fill="#2B4E6B" d="M715.747,680.053h-0.054c-0.09,0-0.171-0.071-0.171-0.171v-0.666c0-0.09,0.081-0.171,0.171-0.171h0.054
			c0.09,0,0.171,0.081,0.171,0.171v0.666C715.918,679.982,715.837,680.053,715.747,680.053z"/>
		<path fill="#2B4E6B" d="M723.11,673.679h-1.927v6.149c0,0.09-0.062,0.171-0.152,0.171h-0.091c-0.09,0-0.152-0.081-0.152-0.171
			v-6.149h-1.936c-0.1,0-0.171-0.045-0.171-0.135v-0.081c0-0.09,0.071-0.153,0.171-0.153h4.258c0.1,0,0.171,0.063,0.171,0.153v0.081
			C723.281,673.635,723.21,673.679,723.11,673.679z"/>
		<path fill="#2B4E6B" d="M725.09,680.053c-1.233,0-1.854-0.792-1.854-2.151v-0.63c0-1.359,0.621-2.152,1.854-2.152
			s1.854,0.793,1.854,2.152v0.63C726.944,679.261,726.323,680.053,725.09,680.053z M726.549,677.272
			c0-1.107-0.405-1.801-1.459-1.801c-1.053,0-1.458,0.693-1.458,1.801v0.63c0,1.107,0.405,1.801,1.458,1.801
			c1.054,0,1.459-0.693,1.459-1.801V677.272z"/>
		<path fill="#2B4E6B" d="M731.211,679.883c-0.396,0.081-1,0.171-1.513,0.171c-1.242,0-1.765-0.891-1.765-2.188v-0.594
			c0-1.423,0.594-2.152,1.765-2.152c0.351,0,0.892,0.055,1.251,0.136v-1.773c0-0.091,0.063-0.172,0.153-0.172h0.09
			c0.09,0,0.153,0.081,0.153,0.172v6.229C731.346,679.82,731.318,679.855,731.211,679.883z M730.949,675.589
			c-0.342-0.072-0.9-0.117-1.251-0.117c-0.99,0-1.368,0.612-1.368,1.801v0.594c0,1.161,0.359,1.837,1.368,1.837
			c0.432,0,0.927-0.063,1.251-0.117V675.589z"/>
		<path fill="#2B4E6B" d="M734.324,680.053c-1.233,0-1.854-0.792-1.854-2.151v-0.63c0-1.359,0.621-2.152,1.854-2.152
			s1.854,0.793,1.854,2.152v0.63C736.179,679.261,735.558,680.053,734.324,680.053z M735.783,677.272
			c0-1.107-0.405-1.801-1.459-1.801c-1.053,0-1.458,0.693-1.458,1.801v0.63c0,1.107,0.405,1.801,1.458,1.801
			c1.054,0,1.459-0.693,1.459-1.801V677.272z"/>
		<path fill="#2B4E6B" d="M738.625,680.053c-0.404,0-0.98-0.062-1.305-0.126c-0.126-0.026-0.198-0.045-0.198-0.144v-0.1
			c0-0.107,0.09-0.144,0.198-0.126c0.432,0.072,0.954,0.145,1.323,0.145c0.648,0,1.144-0.171,1.144-0.9
			c0-0.369-0.198-0.567-0.955-0.981l-0.576-0.315c-0.675-0.369-1.089-0.666-1.089-1.278c0-0.837,0.666-1.107,1.378-1.107
			c0.647,0,0.98,0.046,1.287,0.081c0.126,0.019,0.188,0.036,0.188,0.153v0.072c0,0.144-0.054,0.162-0.188,0.144
			c-0.234-0.026-0.757-0.099-1.252-0.099c-0.576,0-1.017,0.117-1.017,0.756c0,0.396,0.324,0.631,0.873,0.937l0.604,0.333
			c0.747,0.414,1.143,0.711,1.143,1.306C740.183,679.765,739.463,680.053,738.625,680.053z"/>
		<path fill="#2B4E6B" d="M743.53,680.053h-0.09c-0.09,0-0.153-0.081-0.153-0.171v-6.4c0-0.091,0.063-0.172,0.153-0.172h0.09
			c0.091,0,0.153,0.081,0.153,0.172v6.4C743.684,679.972,743.621,680.053,743.53,680.053z"/>
		<path fill="#2B4E6B" d="M746.753,680.053c-1.233,0-1.854-0.792-1.854-2.151v-0.63c0-1.359,0.621-2.152,1.854-2.152
			s1.854,0.793,1.854,2.152v0.63C748.607,679.261,747.986,680.053,746.753,680.053z M748.212,677.272
			c0-1.107-0.405-1.801-1.459-1.801s-1.458,0.693-1.458,1.801v0.63c0,1.107,0.404,1.801,1.458,1.801s1.459-0.693,1.459-1.801
			V677.272z"/>
		<path fill="#2B4E6B" d="M751.054,680.053c-0.404,0-0.98-0.062-1.305-0.126c-0.126-0.026-0.198-0.045-0.198-0.144v-0.1
			c0-0.107,0.09-0.144,0.198-0.126c0.432,0.072,0.954,0.145,1.323,0.145c0.648,0,1.144-0.171,1.144-0.9
			c0-0.369-0.198-0.567-0.954-0.981l-0.576-0.315c-0.676-0.369-1.09-0.666-1.09-1.278c0-0.837,0.666-1.107,1.377-1.107
			c0.648,0,0.981,0.046,1.288,0.081c0.126,0.019,0.188,0.036,0.188,0.153v0.072c0,0.144-0.054,0.162-0.188,0.144
			c-0.234-0.026-0.757-0.099-1.252-0.099c-0.576,0-1.017,0.117-1.017,0.756c0,0.396,0.324,0.631,0.873,0.937l0.604,0.333
			c0.747,0.414,1.143,0.711,1.143,1.306C752.611,679.765,751.892,680.053,751.054,680.053z"/>
		<path fill="#2B4E6B" d="M758.769,679.883c-0.396,0.081-1,0.171-1.513,0.171c-1.242,0-1.765-0.891-1.765-2.188v-0.594
			c0-1.423,0.594-2.152,1.765-2.152c0.351,0,0.892,0.055,1.251,0.136v-1.773c0-0.091,0.063-0.172,0.153-0.172h0.09
			c0.09,0,0.153,0.081,0.153,0.172v6.229C758.903,679.82,758.876,679.855,758.769,679.883z M758.507,675.589
			c-0.342-0.072-0.9-0.117-1.251-0.117c-0.99,0-1.368,0.612-1.368,1.801v0.594c0,1.161,0.359,1.837,1.368,1.837
			c0.432,0,0.927-0.063,1.251-0.117V675.589z"/>
		<path fill="#2B4E6B" d="M763.466,677.677h-3.043v0.188c0,1.513,0.729,1.837,1.629,1.837c0.396,0,0.892-0.063,1.333-0.153
			c0.09-0.018,0.188,0,0.188,0.117v0.062c0,0.1-0.036,0.145-0.171,0.172c-0.432,0.09-0.945,0.152-1.351,0.152
			c-1.116,0-2.025-0.485-2.025-2.188v-0.594c0-1.242,0.63-2.152,1.818-2.152c1.242,0,1.792,0.864,1.792,2.144v0.242
			C763.637,677.605,763.556,677.677,763.466,677.677z M763.24,677.263c0-1.135-0.378-1.792-1.396-1.792
			c-0.999,0-1.422,0.729-1.422,1.801v0.045h2.817V677.263z"/>
		<path fill="#2B4E6B" d="M766.408,675.471c-0.342,0-0.72,0.081-1.251,0.414v3.943c0,0.09-0.081,0.171-0.171,0.171h-0.055
			c-0.09,0-0.171-0.081-0.171-0.171v-4.483c0-0.1,0.063-0.18,0.162-0.18h0.072c0.099,0,0.162,0.08,0.162,0.18v0.189
			c0.459-0.298,0.811-0.415,1.251-0.415c0.145,0,0.243,0.027,0.243,0.136v0.071C766.651,675.444,766.553,675.471,766.408,675.471z"
			/>
		<path fill="#2B4E6B" d="M770.576,677.677h-3.043v0.188c0,1.513,0.729,1.837,1.629,1.837c0.396,0,0.892-0.063,1.333-0.153
			c0.09-0.018,0.188,0,0.188,0.117v0.062c0,0.1-0.036,0.145-0.171,0.172c-0.432,0.09-0.945,0.152-1.351,0.152
			c-1.116,0-2.025-0.485-2.025-2.188v-0.594c0-1.242,0.63-2.152,1.818-2.152c1.242,0,1.792,0.864,1.792,2.144v0.242
			C770.747,677.605,770.666,677.677,770.576,677.677z M770.351,677.263c0-1.135-0.378-1.792-1.396-1.792
			c-0.999,0-1.422,0.729-1.422,1.801v0.045h2.817V677.263z"/>
		<path fill="#2B4E6B" d="M774.607,679.972c-0.378,0.045-0.802,0.081-1.09,0.081c-1.287,0-1.782-0.999-1.782-2.179v-0.603
			c0-1.197,0.495-2.152,1.782-2.152c0.288,0,0.712,0.036,1.09,0.081c0.135,0.019,0.171,0.063,0.171,0.162v0.063
			c0,0.099-0.081,0.144-0.189,0.126c-0.423-0.054-0.773-0.081-1.071-0.081c-1.026,0-1.386,0.711-1.386,1.801v0.603
			c0,1.09,0.359,1.828,1.386,1.828c0.298,0,0.648-0.027,1.071-0.081c0.108-0.019,0.189,0.026,0.189,0.126v0.062
			C774.778,679.91,774.742,679.955,774.607,679.972z"/>
		<path fill="#2B4E6B" d="M778.981,680.053h-0.091c-0.09,0-0.144-0.081-0.144-0.171v-3.034c0-0.882-0.369-1.377-1.333-1.377
			c-0.387,0-0.873,0.063-1.215,0.162v4.249c0,0.09-0.063,0.171-0.153,0.171h-0.09c-0.09,0-0.153-0.081-0.153-0.171v-6.4
			c0-0.091,0.063-0.172,0.153-0.172h0.09c0.09,0,0.153,0.081,0.153,0.172v1.8c0.351-0.09,0.819-0.162,1.215-0.162
			c1.252,0,1.72,0.721,1.72,1.729v3.034C779.134,679.972,779.08,680.053,778.981,680.053z"/>
		<path fill="#2B4E6B" d="M782.067,680.053c-1.233,0-1.854-0.792-1.854-2.151v-0.63c0-1.359,0.621-2.152,1.854-2.152
			s1.854,0.793,1.854,2.152v0.63C783.922,679.261,783.301,680.053,782.067,680.053z M783.526,677.272
			c0-1.107-0.405-1.801-1.459-1.801s-1.458,0.693-1.458,1.801v0.63c0,1.107,0.404,1.801,1.458,1.801s1.459-0.693,1.459-1.801
			V677.272z"/>
		<path fill="#2B4E6B" d="M786.369,680.053c-0.404,0-0.98-0.062-1.305-0.126c-0.126-0.026-0.198-0.045-0.198-0.144v-0.1
			c0-0.107,0.09-0.144,0.198-0.126c0.432,0.072,0.954,0.145,1.323,0.145c0.648,0,1.144-0.171,1.144-0.9
			c0-0.369-0.198-0.567-0.955-0.981L786,677.506c-0.675-0.369-1.089-0.666-1.089-1.278c0-0.837,0.666-1.107,1.378-1.107
			c0.647,0,0.98,0.046,1.287,0.081c0.126,0.019,0.188,0.036,0.188,0.153v0.072c0,0.144-0.054,0.162-0.188,0.144
			c-0.234-0.026-0.757-0.099-1.252-0.099c-0.576,0-1.017,0.117-1.017,0.756c0,0.396,0.324,0.631,0.873,0.937l0.604,0.333
			c0.747,0.414,1.143,0.711,1.143,1.306C787.927,679.765,787.207,680.053,786.369,680.053z"/>
		<path fill="#2B4E6B" d="M792.588,675.471c-0.342,0-0.72,0.081-1.251,0.414v3.943c0,0.09-0.081,0.171-0.171,0.171h-0.055
			c-0.09,0-0.171-0.081-0.171-0.171v-4.483c0-0.1,0.063-0.18,0.162-0.18h0.072c0.099,0,0.162,0.08,0.162,0.18v0.189
			c0.459-0.298,0.811-0.415,1.251-0.415c0.145,0,0.243,0.027,0.243,0.136v0.071C792.831,675.444,792.732,675.471,792.588,675.471z"
			/>
		<path fill="#2B4E6B" d="M796.757,677.677h-3.043v0.188c0,1.513,0.729,1.837,1.629,1.837c0.396,0,0.892-0.063,1.333-0.153
			c0.09-0.018,0.188,0,0.188,0.117v0.062c0,0.1-0.036,0.145-0.171,0.172c-0.432,0.09-0.945,0.152-1.351,0.152
			c-1.116,0-2.025-0.485-2.025-2.188v-0.594c0-1.242,0.63-2.152,1.818-2.152c1.242,0,1.792,0.864,1.792,2.144v0.242
			C796.928,677.605,796.847,677.677,796.757,677.677z M796.531,677.263c0-1.135-0.378-1.792-1.396-1.792
			c-0.999,0-1.422,0.729-1.422,1.801v0.045h2.817V677.263z"/>
		<path fill="#2B4E6B" d="M799.374,680.053c-0.404,0-0.98-0.062-1.305-0.126c-0.126-0.026-0.198-0.045-0.198-0.144v-0.1
			c0-0.107,0.09-0.144,0.198-0.126c0.432,0.072,0.954,0.145,1.323,0.145c0.648,0,1.144-0.171,1.144-0.9
			c0-0.369-0.198-0.567-0.954-0.981l-0.576-0.315c-0.676-0.369-1.09-0.666-1.09-1.278c0-0.837,0.666-1.107,1.377-1.107
			c0.648,0,0.981,0.046,1.288,0.081c0.126,0.019,0.188,0.036,0.188,0.153v0.072c0,0.144-0.054,0.162-0.188,0.144
			c-0.234-0.026-0.757-0.099-1.252-0.099c-0.576,0-1.017,0.117-1.017,0.756c0,0.396,0.324,0.631,0.873,0.937l0.604,0.333
			c0.747,0.414,1.143,0.711,1.143,1.306C800.932,679.765,800.212,680.053,799.374,680.053z"/>
		<path fill="#2B4E6B" d="M805.315,677.677h-3.043v0.188c0,1.513,0.729,1.837,1.629,1.837c0.396,0,0.892-0.063,1.333-0.153
			c0.09-0.018,0.188,0,0.188,0.117v0.062c0,0.1-0.036,0.145-0.171,0.172c-0.432,0.09-0.945,0.152-1.351,0.152
			c-1.116,0-2.025-0.485-2.025-2.188v-0.594c0-1.242,0.63-2.152,1.818-2.152c1.242,0,1.792,0.864,1.792,2.144v0.242
			C805.486,677.605,805.405,677.677,805.315,677.677z M805.09,677.263c0-1.135-0.378-1.792-1.396-1.792
			c-0.999,0-1.422,0.729-1.422,1.801v0.045h2.817V677.263z"/>
		<path fill="#2B4E6B" d="M808.257,675.471c-0.342,0-0.72,0.081-1.251,0.414v3.943c0,0.09-0.081,0.171-0.171,0.171h-0.055
			c-0.09,0-0.171-0.081-0.171-0.171v-4.483c0-0.1,0.063-0.18,0.162-0.18h0.072c0.099,0,0.162,0.08,0.162,0.18v0.189
			c0.459-0.298,0.811-0.415,1.251-0.415c0.145,0,0.243,0.027,0.243,0.136v0.071C808.5,675.444,808.401,675.471,808.257,675.471z"/>
		<path fill="#2B4E6B" d="M811.543,679.487c-0.136,0.477-0.352,0.566-0.612,0.566c-0.252,0-0.495-0.09-0.631-0.566l-1.179-4.097
			c-0.036-0.126,0.018-0.225,0.135-0.225h0.09c0.063,0,0.126,0.035,0.162,0.161l1.152,4.061c0.081,0.271,0.171,0.324,0.271,0.324
			c0.099,0,0.171-0.054,0.252-0.324l1.152-4.061c0.036-0.126,0.099-0.161,0.162-0.161h0.107c0.117,0,0.153,0.099,0.117,0.225
			L811.543,679.487z"/>
		<path fill="#2B4E6B" d="M816.483,680h-0.045c-0.099,0-0.18-0.081-0.18-0.18v-0.226c-0.441,0.243-0.973,0.459-1.531,0.459
			c-0.675,0-1.377-0.324-1.377-1.449v-0.117c0-0.927,0.585-1.386,2.224-1.386h0.693v-0.324c0-0.937-0.262-1.306-1.135-1.306
			c-0.594,0-0.855,0.036-1.278,0.081c-0.09,0.009-0.207,0-0.207-0.135v-0.055c0-0.117,0.072-0.144,0.207-0.162
			c0.378-0.045,0.685-0.081,1.278-0.081c1.216,0,1.53,0.685,1.53,1.657v3.043C816.663,679.919,816.582,680,816.483,680z
			 M816.268,677.452h-0.693c-1.359,0-1.827,0.271-1.827,1.035v0.117c0,0.837,0.44,1.099,0.98,1.099c0.505,0,0.937-0.135,1.54-0.459
			V677.452z"/>
		<path fill="#2B4E6B" d="M821.064,679.883c-0.396,0.081-1,0.171-1.513,0.171c-1.242,0-1.765-0.891-1.765-2.188v-0.594
			c0-1.423,0.594-2.152,1.765-2.152c0.351,0,0.892,0.055,1.251,0.136v-1.773c0-0.091,0.063-0.172,0.153-0.172h0.09
			c0.09,0,0.153,0.081,0.153,0.172v6.229C821.199,679.82,821.172,679.855,821.064,679.883z M820.803,675.589
			c-0.342-0.072-0.9-0.117-1.251-0.117c-0.99,0-1.368,0.612-1.368,1.801v0.594c0,1.161,0.359,1.837,1.368,1.837
			c0.432,0,0.927-0.063,1.251-0.117V675.589z"/>
		<path fill="#2B4E6B" d="M824.178,680.053c-1.233,0-1.854-0.792-1.854-2.151v-0.63c0-1.359,0.621-2.152,1.854-2.152
			s1.854,0.793,1.854,2.152v0.63C826.032,679.261,825.411,680.053,824.178,680.053z M825.637,677.272
			c0-1.107-0.405-1.801-1.459-1.801c-1.053,0-1.458,0.693-1.458,1.801v0.63c0,1.107,0.405,1.801,1.458,1.801
			c1.054,0,1.459-0.693,1.459-1.801V677.272z"/>
		<path fill="#2B4E6B" d="M828.479,680.053c-0.404,0-0.98-0.062-1.305-0.126c-0.126-0.026-0.198-0.045-0.198-0.144v-0.1
			c0-0.107,0.09-0.144,0.198-0.126c0.432,0.072,0.954,0.145,1.323,0.145c0.648,0,1.144-0.171,1.144-0.9
			c0-0.369-0.198-0.567-0.954-0.981l-0.576-0.315c-0.676-0.369-1.09-0.666-1.09-1.278c0-0.837,0.666-1.107,1.377-1.107
			c0.648,0,0.981,0.046,1.288,0.081c0.126,0.019,0.188,0.036,0.188,0.153v0.072c0,0.144-0.054,0.162-0.188,0.144
			c-0.234-0.026-0.757-0.099-1.252-0.099c-0.576,0-1.017,0.117-1.017,0.756c0,0.396,0.324,0.631,0.873,0.937l0.604,0.333
			c0.747,0.414,1.143,0.711,1.143,1.306C830.037,679.765,829.317,680.053,828.479,680.053z"/>
		<path fill="#2B4E6B" d="M835.707,676.57l-0.918,0.621c-1.162,0.783-1.243,1.27-1.243,2.079v0.36h3.115
			c0.09,0,0.18,0.036,0.18,0.135v0.1c0,0.099-0.081,0.135-0.18,0.135h-3.34c-0.108,0-0.181-0.09-0.181-0.18v-0.55
			c0-0.882,0.181-1.566,1.396-2.386l0.919-0.621c0.81-0.549,1.035-0.846,1.035-1.422c0-0.811-0.459-1.197-1.656-1.197
			c-0.414,0-0.919,0.045-1.378,0.135c-0.018,0-0.036,0.009-0.045,0.009c-0.081,0-0.144-0.054-0.144-0.144v-0.1
			c0-0.09,0.081-0.126,0.171-0.144c0.459-0.1,0.918-0.136,1.396-0.136c1.35,0,2.088,0.486,2.088,1.576
			C836.922,675.516,836.644,675.939,835.707,676.57z"/>
		<path fill="#2B4E6B" d="M840.251,680.053c-1.26,0-2.07-0.774-2.07-2.512v-1.773c0-1.737,0.811-2.503,2.07-2.503
			c1.261,0,2.071,0.766,2.071,2.503v1.773C842.322,679.279,841.512,680.053,840.251,680.053z M841.926,675.768
			c0-1.422-0.594-2.143-1.675-2.143c-1.08,0-1.674,0.721-1.674,2.143v1.773c0,1.423,0.594,2.152,1.674,2.152
			c1.081,0,1.675-0.729,1.675-2.152V675.768z"/>
		<path fill="#2B4E6B" d="M845.166,679.631v-5.933l-1.549,0.198h-0.045c-0.107,0-0.135-0.063-0.135-0.117v-0.045
			c0-0.136,0.081-0.162,0.18-0.181l1.738-0.243h0.045c0.107,0,0.162,0.072,0.162,0.181v6.14h1.539c0.09,0,0.18,0.036,0.18,0.135v0.1
			c0,0.099-0.081,0.135-0.18,0.135h-3.475c-0.1,0-0.181-0.036-0.181-0.135v-0.1c0-0.099,0.09-0.135,0.181-0.135H845.166z"/>
		<path fill="#2B4E6B" d="M850.313,680.053c-0.477,0-0.972-0.062-1.314-0.135c-0.09-0.018-0.162-0.081-0.162-0.162v-0.054
			c0-0.09,0.055-0.145,0.145-0.145c0.009,0,0.018,0,0.036,0c0.378,0.063,0.882,0.117,1.296,0.117c1.233,0,1.81-0.441,1.81-1.53
			v-0.18c0-0.478-0.333-1.288-1.278-1.288h-1.684c-0.099,0-0.171-0.071-0.171-0.162v-0.062c0-0.1,0.072-0.162,0.171-0.162h1.684
			c1.045,0,1.278-0.792,1.278-1.27v-0.108c0-1.017-0.603-1.269-1.81-1.269c-0.414,0-0.918,0.071-1.296,0.135
			c-0.019,0-0.027,0-0.036,0c-0.09,0-0.145-0.054-0.145-0.145v-0.071c0-0.081,0.072-0.145,0.162-0.162
			c0.352-0.063,0.838-0.136,1.314-0.136c1.387,0,2.233,0.343,2.233,1.647v0.108c0,0.576-0.234,1.18-0.937,1.485
			c0.702,0.315,0.937,0.999,0.937,1.459v0.18C852.547,679.505,851.664,680.053,850.313,680.053z"/>
		<path fill="#2B4E6B" d="M854.084,680.053h-0.054c-0.09,0-0.171-0.071-0.171-0.171v-0.666c0-0.09,0.081-0.171,0.171-0.171h0.054
			c0.09,0,0.171,0.081,0.171,0.171v0.666C854.255,679.982,854.174,680.053,854.084,680.053z"/>
	</g>
</g>
</svg>
