<?xml version="1.0" encoding="utf-8"?>
<!-- Generator: Adobe Illustrator 16.0.0, SVG Export Plug-In . SVG Version: 6.00 Build 0)  -->
<!DOCTYPE svg PUBLIC "-//W3C//DTD SVG 1.1//EN" "http://www.w3.org/Graphics/SVG/1.1/DTD/svg11.dtd">
<svg version="1.1" xmlns="http://www.w3.org/2000/svg" xmlns:xlink="http://www.w3.org/1999/xlink" x="0px" y="0px" width="1280px"
	 height="700px" viewBox="0 0 1280 700" style="enable-background:new 0 0 1280 700;" xml:space="preserve">
<g id="Ventana">
	<g>
		<g>
			<g>
				<path style="fill:#D3BEC0;" d="M803.5,259v21.9c-2.6,1.3-5.5,2.1-8.6,2.1c-10.4,0-18.9-8.5-18.9-18.9c0-1.8,0.2-3.5,0.7-5.1
					H803.5z"/>
			</g>
		</g>
		<g>
			<polygon style="fill:#5A5360;" points="803.1,304.1 785.9,304.1 785.9,287.3 772.4,287.3 772.4,299 760.8,299 760.8,272.2 
				752.5,272.2 752.5,306.1 746.1,306.1 746.1,344.6 803.1,344.6 			"/>
		</g>
		<g>
			<polygon style="fill:#79747E;" points="789.1,317.9 776.9,317.9 776.9,329.1 758.5,329.1 758.5,339 747.9,339 747.9,345.2 
				803.1,345.2 803.1,333.8 794.9,333.8 794.9,324.6 789.1,324.6 			"/>
		</g>
		<g>
			<path style="fill:#735E40;" d="M741.6,254.4v94.7h66v-94.7H741.6z M803.1,344.6h-26.4v-31.5h26.4V344.6z M746.1,313.1h26.3v31.5
				h-26.3V313.1z M746.1,258.9h57v49.6h-26.4V259h-4.3v49.5h-26.3V258.9z"/>
		</g>
	</g>
</g>
<g id="Cama_Atras">
	<g>
		<g>
			<g>
				<path style="fill:#897558;" d="M667.9,378.3H601c-6.9,0-12.5,5.6-12.5,12.5v75.4h6v-13.3h75.2v7.3c0,3.3,2.7,6,6,6h4.6v-75.4
					C680.3,383.9,674.8,378.3,667.9,378.3z"/>
			</g>
			<g>
				<path style="fill:#6C5636;" d="M668.4,378.3h-62.1c-6.9,0-12.5,5.6-12.5,12.5v75.4h0.1c3.3,0,6-2.7,6-5.9v-7.3h75.7v8
					c0,2.9,2.4,5.2,5.3,5.2h0.1v-75.4C680.9,383.9,675.3,378.3,668.4,378.3z"/>
			</g>
			<g>
				<g>
					<path style="fill:#EE959B;" d="M727.7,416.6H604.1c-2.4,0-4.3,1.9-4.3,4.3v6.3c0,0.4,0,0.7,0.1,1.1h127.7V416.6z"/>
				</g>
				<g>
					<path style="fill:#CC656F;" d="M600,428.2c0.5,1.8,2.1,3.2,4.1,3.2h123.6v-3.2H600z"/>
				</g>
			</g>
		</g>
		<g>
			<rect x="599.8" y="431.4" style="fill:#735E40;" width="89.5" height="21.5"/>
		</g>
	</g>
</g>
<g id="Cama_Adelante">
	<g>
		<g>
			<path style="fill:#897558;" d="M743.5,413.7h-50.4c-6.9,0-12.5,5.6-12.5,12.5v40h6v-13.3h58.7v6.1c0,4,3.2,7.2,7.2,7.2h3.4v-40
				C756,419.3,750.4,413.7,743.5,413.7z"/>
		</g>
		<g>
			<g>
				<path style="fill:#6C5636;" d="M744,413.7h-45.6c-6.9,0-12.5,5.6-12.5,12.5v40h0.1c3.3,0,6-2.7,6-5.9v-7.3h59.3v8
					c0,2.9,2.4,5.2,5.3,5.2h0.1v-40C756.5,419.3,750.9,413.7,744,413.7z"/>
			</g>
		</g>
	</g>
</g>
<g id="Lampara">
	<g>
		<g>
			<g>
				<g>
					<path style="fill:none;" d="M546,382.1C546,382.1,546,382.2,546,382.1C546,382.2,546,382.1,546,382.1z"/>
					<path style="fill:none;" d="M546.5,381.3C546.5,381.3,546.5,381.3,546.5,381.3C546.5,381.3,546.5,381.3,546.5,381.3z"/>
					<path style="fill:none;" d="M539.8,423.3L539.8,423.3L539.8,423.3z"/>
					<path style="fill:none;" d="M546.2,381.7C546.2,381.7,546.2,381.7,546.2,381.7C546.2,381.7,546.2,381.7,546.2,381.7z"/>
					<path style="fill:none;" d="M546.7,380.9C546.7,380.9,546.7,380.9,546.7,380.9C546.7,380.9,546.7,380.9,546.7,380.9z"/>
					<path style="fill:none;" d="M547.8,379.3C547.8,379.3,547.8,379.3,547.8,379.3C547.8,379.3,547.8,379.3,547.8,379.3z"/>
					<path style="fill:none;" d="M548.8,378.3L548.8,378.3L548.8,378.3z"/>
					<path style="fill:none;" d="M547,380.5C547,380.5,546.9,380.5,547,380.5C546.9,380.5,547,380.5,547,380.5z"/>
					<path style="fill:none;" d="M548.5,378.6C548.5,378.6,548.5,378.6,548.5,378.6C548.5,378.6,548.5,378.6,548.5,378.6z"/>
					<path style="fill:none;" d="M549.6,377.7C549.6,377.7,549.6,377.7,549.6,377.7C549.6,377.7,549.6,377.7,549.6,377.7z"/>
					<path style="fill:none;" d="M549.2,378C549.2,378,549.2,378,549.2,378C549.2,378,549.2,378,549.2,378z"/>
					<path style="fill:none;" d="M548.2,378.9C548.2,379,548.1,379,548.2,378.9C548.1,379,548.2,379,548.2,378.9z"/>
					<path style="fill:none;" d="M547.2,380.1C547.2,380.1,547.2,380.1,547.2,380.1C547.2,380.1,547.2,380.1,547.2,380.1z"/>
					<path style="fill:#6A7E3C;" d="M542.2,381.3c-0.2-0.4-0.2-0.8,0-1.1c0,0,0,0,0,0c1.1,0.9,2.2,1.7,3.3,2.6c0,0,0,0,0,0.1
						c-0.2,0.3-0.6,0.3-1.1,0.2c-0.4-0.1-0.8-0.3-1.2-0.6C542.7,382.2,542.4,381.7,542.2,381.3z"/>
					<path style="fill:#899C60;" d="M546,382.1c0.1-0.1,0.1-0.3,0.2-0.4c0,0,0,0,0,0c0.1-0.1,0.1-0.3,0.2-0.4c0,0,0,0,0,0
						c0.1-0.1,0.1-0.3,0.2-0.4c0,0,0,0,0,0c0.1-0.1,0.2-0.3,0.2-0.4c0,0,0,0,0-0.1c0.1-0.1,0.2-0.2,0.2-0.3c0,0,0,0,0-0.1
						c0.1-0.1,0.2-0.2,0.3-0.4c0.1-0.1,0.2-0.2,0.3-0.3c0,0,0,0,0-0.1c0.1-0.1,0.2-0.2,0.3-0.3c0,0,0,0,0-0.1
						c0.1-0.1,0.2-0.2,0.3-0.3c0,0,0,0,0,0c0.1-0.1,0.2-0.2,0.3-0.3l0,0c0.1-0.1,0.2-0.2,0.3-0.3c0,0,0,0,0,0
						c0.1-0.1,0.2-0.2,0.4-0.3c0,0,0,0,0,0c0.2-0.2,0.5-0.4,0.8-0.5l0,0c3.8-2.4,8.9-2.2,12.6,0.7l-4.5,5.7l0,0l-1,1.3l-8.2,10.3
						c-3.7-3-5-7.9-3.5-12.2C545.8,382.7,545.9,382.4,546,382.1C546,382.2,546,382.1,546,382.1z"/>
					<path style="fill:#899C60;" d="M542.3,380.3c-0.1-0.1-0.2-0.2-0.3-0.3c-3.9-3.1,0.8-8.9,4.6-5.8c1.3,1,2.5,2,3.8,3l0,0
						c-0.3,0.2-0.5,0.3-0.8,0.5c0,0,0,0,0,0c-0.1,0.1-0.2,0.2-0.4,0.3c0,0,0,0,0,0c-0.1,0.1-0.2,0.2-0.3,0.3l0,0
						c-0.1,0.1-0.2,0.2-0.3,0.3c0,0,0,0,0,0c-0.1,0.1-0.2,0.2-0.3,0.3c0,0,0,0,0,0.1c-0.1,0.1-0.2,0.2-0.3,0.3c0,0,0,0,0,0.1
						c-0.1,0.1-0.2,0.2-0.3,0.3c-0.1,0.1-0.2,0.2-0.3,0.4c0,0,0,0,0,0.1c-0.1,0.1-0.2,0.2-0.2,0.3c0,0,0,0,0,0.1
						c-0.1,0.1-0.2,0.2-0.2,0.4c0,0,0,0,0,0c-0.1,0.1-0.2,0.3-0.2,0.4c0,0,0,0,0,0c-0.1,0.1-0.1,0.3-0.2,0.4c0,0,0,0,0,0
						c-0.1,0.1-0.1,0.3-0.2,0.4c0,0,0,0,0,0c-0.1,0.3-0.2,0.6-0.3,0.9l0,0c-0.1,0-0.1-0.1-0.2-0.1
						C544.5,382,543.4,381.1,542.3,380.3z"/>
					<path style="fill:#F1DEAE;" d="M558.4,383.6C558.4,383.6,558.4,383.6,558.4,383.6c1,0.8,0.7,2.9-0.8,4.7
						c-1.4,1.8-3.4,2.6-4.4,1.8l4.2-5.2L558.4,383.6L558.4,383.6z"/>
				</g>
			</g>
			<g>
				<path style="fill:#AEC5CA;" d="M539.4,393.3l0.3,29.7c-0.1-0.1-0.2-0.1-0.4-0.1l0,0c0,0-0.1,0-0.1,0c0,0,0,0,0,0
					c0,0-0.1,0-0.1,0c0,0,0,0,0,0c0,0-0.1,0-0.1,0c0,0,0,0-0.1,0c0,0,0,0-0.1,0c0,0-0.1,0-0.1,0c0,0-0.1,0-0.1,0c0,0,0,0,0,0
					c0,0-0.1,0-0.1,0c0,0,0,0-0.1,0c0,0-0.1,0-0.1,0c0,0,0,0-0.1,0c0,0-0.1,0-0.1,0c0,0,0,0,0,0c0,0-0.1,0-0.1,0c0,0,0,0,0,0
					c0,0-0.1,0-0.1,0c0,0,0,0,0,0c0,0-0.1,0-0.1,0c0,0,0,0,0,0c0,0-0.1,0-0.1,0c0,0,0,0,0,0c0,0-0.1,0-0.1,0c0,0,0,0,0,0
					c0,0-0.1,0-0.1,0c0,0,0,0,0,0c0,0-0.1,0-0.1,0.1c0,0,0,0,0,0c0,0-0.1,0-0.1,0.1c0,0,0,0,0,0c0,0-0.1,0-0.1,0.1c0,0,0,0,0,0
					c0,0-0.1,0.1-0.1,0.1c0,0,0,0,0,0c0,0-0.1,0.1-0.1,0.1c0,0,0,0,0,0c0,0-0.1,0.1-0.1,0.1l0,0l-0.1-29.4c0.2,0.1,0.5,0.1,0.7,0.1
					C538.1,394.3,538.9,393.9,539.4,393.3z"/>
				<path style="opacity:0.5;fill:#AEC5CA;" d="M538,394.1c0-0.2,0.9-0.5,1.2-0.8l0.4,29.8c-0.1-0.1-0.2,0-0.3,0h0
					c0,0-0.1-0.1-0.1-0.1c0,0,0,0,0,0c0,0-0.1,0-0.1,0c0,0,0,0,0,0c0,0-0.1,0-0.1,0c0,0,0,0-0.1,0c0,0,0,0-0.1,0c0,0-0.1,0-0.1,0
					c0,0-0.1,0-0.1,0c0,0-0.2,0-0.2,0c0,0-0.2,0-0.2,0V394.1z"/>
			</g>
			<g>
				<path style="fill:#AEC5CA;" d="M537.7,389.3c-0.1,0-0.3,0-0.4,0l4.9-8c0.2,0.4,0.5,0.8,0.9,1.2c0.4,0.3,0.9,0.5,1.2,0.6
					l-4.4,7.4C539.5,389.8,538.7,389.3,537.7,389.3z"/>
				<path style="opacity:0.5;fill:#AEC5CA;" d="M543.3,382.6c0.4,0.3,0.7,0.4,1.1,0.5l-4.4,7.4c-0.3-0.4-0.6-0.7-1.1-1L543.3,382.6z
					"/>
			</g>
			<path style="fill:#809159;" d="M537.3,389.3c0.1,0,0.3,0,0.4,0c1,0,1.8,0.5,2.3,1.3c0.3,0.4,0.4,0.9,0.4,1.5
				c0,0.6-0.2,1.2-0.6,1.7c-0.5,0.6-1.3,1-2.2,1c-0.2,0-0.5,0-0.7-0.1c-1.2-0.3-2.1-1.4-2.1-2.7C534.9,390.7,536,389.5,537.3,389.3z
				"/>
			<path style="fill:#899C60;" d="M536.3,422.4C536.3,422.4,536.3,422.4,536.3,422.4C536.3,422.4,536.4,422.3,536.3,422.4
				c0.1-0.1,0.1-0.1,0.1-0.1c0,0,0.1-0.1,0.1-0.1c0,0,0,0,0,0c0,0,0.1,0,0.1-0.1c0,0,0,0,0,0c0,0,0.1,0,0.1-0.1c0,0,0,0,0,0
				c0,0,0.1,0,0.1-0.1c0,0,0,0,0,0c0,0,0.1,0,0.1,0c0,0,0,0,0,0c0,0,0.1,0,0.1,0c0,0,0,0,0,0c0,0,0.1,0,0.1,0c0,0,0,0,0,0
				c0,0,0.1,0,0.1,0c0,0,0,0,0,0c0,0,0.1,0,0.1,0c0,0,0,0,0,0c0,0,0.1,0,0.1,0c0,0,0,0,0.1,0c0,0,0.1,0,0.1,0c0,0,0,0,0.1,0
				c0,0,0.1,0,0.1,0c0,0,0,0,0.1,0c0,0,0.1,0,0.1,0c0,0,0,0,0,0c0,0,0.1,0,0.1,0c0,0,0.1,0,0.1,0c0,0,0,0,0.1,0c0,0,0,0,0.1,0
				c0,0,0.1,0,0.1,0c0,0,0,0,0,0c0,0,0.1,0,0.1,0c0,0,0,0,0,0c0,0,0.1,0,0.1,0l0,0c0.1,0,0.3,0.1,0.4,0.1c1,0.4,1.7,1.4,1.7,2.5
				c0,0.1,0,0.1,0,0.2c4.6,0.6,8,2.4,8,3.4c0,0,0,0-10.8,0c-10.7,0-10.7,0-10.7,0c0-0.9,3.4-2.8,8-3.4c0-0.1,0-0.1,0-0.2
				C535.5,423.6,535.8,423,536.3,422.4C536.2,422.5,536.3,422.4,536.3,422.4z"/>
			<path style="fill:#809159;" d="M535.5,424.6c0-0.1,0-0.1,0-0.2c0-0.7,0.3-1.4,0.7-1.9c0,0,0.1-0.1,0.1-0.1l0,0
				c0,0,0.1-0.1,0.1-0.1c0,0,0,0,0,0c0,0,0.1-0.1,0.1-0.1c0,0,0,0,0,0c0,0,0.1,0,0.1-0.1c0,0,0,0,0,0c0,0,0.1,0,0.1-0.1c0,0,0,0,0,0
				c0,0,0.1,0,0.1-0.1c0,0,0,0,0,0c0,0,0.1,0,0.1,0c0,0,0,0,0,0c0,0,0.1,0,0.1,0c0,0,0,0,0,0c0,0,0.1,0,0.1,0c0,0,0,0,0,0
				c0,0,0.1,0,0.1,0c0,0,0,0,0,0c0,0,0.1,0,0.1,0c0,0,0,0,0,0c0,0,0.1,0,0.1,0c0,0,0,0,0.1,0c0,0,0.1,0,0.1,0c0,0,0,0,0.1,0
				c0,0,0.1,0,0.1,0c0,0,0,0,0.1,0c0,0,0.1,0,0.1,0c0,0,0,0,0,0c0,0-0.1,0,0,0c0,0-0.1,0-0.1,0v6.4c0,0,0.3,0,0.2,0
				c-10.7,0-10.7,0-10.7,0C527.5,427,530.9,425.2,535.5,424.6z"/>
			<path style="fill:#899C60;" d="M537,389.3l0.4,0c1,0,2,0.5,2.5,1.3c0.3,0.4,0.5,0.9,0.5,1.5c0,0.6-0.2,1.2-0.6,1.7
				c-0.5,0.6-1.6,1-2.5,1l-0.3,0V389.3z"/>
			<path style="fill:#809159;" d="M545.7,383c0.1-0.3,0.2-0.6,0.3-0.9l0,0c0.1-0.1,0.1-0.3,0.2-0.4c0,0,0,0,0,0
				c0.1-0.1,0.1-0.3,0.2-0.4c0,0,0,0,0,0c0.1-0.1,0.1-0.3,0.2-0.4c0,0,0,0,0,0c0.1-0.1,0.2-0.3,0.2-0.4c0,0,0,0,0-0.1
				c0.1-0.1,0.2-0.2,0.2-0.3c0,0,0,0,0-0.1c0,0,0.1-0.1,0.1-0.1l8.6,6.8l-6.7,8.4C545.5,392.2,544.2,387.3,545.7,383z"/>
			<path style="fill:#788A4F;" d="M541.9,380c-1.5-1.2-1.7-2.7-1.3-4c0.5,0.2,1.1,0.5,1.6,1c1.5,1.2,3,2.4,4.6,3.6
				c-0.1,0.1-0.1,0.2-0.2,0.3c0,0,0,0,0,0c-0.1,0.1-0.2,0.3-0.2,0.4c0,0,0,0,0,0c-0.1,0.1-0.1,0.3-0.2,0.4c0,0,0,0,0,0
				c-0.1,0.1-0.1,0.3-0.2,0.4c0,0,0.1,0,0.1,0c-0.1,0.3-0.2,0.6-0.2,0.9v0c0,0-0.2-0.1-0.3-0.1c-1.1-0.9-2.3-1.7-3.4-2.6
				C542.2,380.2,542,380.1,541.9,380z"/>
		</g>
	</g>
	<g>
		
			<linearGradient id="SVGID_1_" gradientUnits="userSpaceOnUse" x1="-137.6094" y1="444.1484" x2="133.6892" y2="190.4085" gradientTransform="matrix(-1 0 0 1 500.4961 0)">
			<stop  offset="0.1485" style="stop-color:#000400"/>
			<stop  offset="0.2441" style="stop-color:#29291E"/>
			<stop  offset="0.3967" style="stop-color:#656049"/>
			<stop  offset="0.5437" style="stop-color:#978D6D"/>
			<stop  offset="0.6813" style="stop-color:#BEB089"/>
			<stop  offset="0.8072" style="stop-color:#DAC99D"/>
			<stop  offset="0.9175" style="stop-color:#EBD9AA"/>
			<stop  offset="1" style="stop-color:#F1DEAE"/>
		</linearGradient>
		<polyline style="opacity:0.35;fill:url(#SVGID_1_);" points="548.5,394.7 562.4,466.4 761.6,466.5 562,377.7 548.1,395.1 		"/>
	</g>
</g>
<g id="Despertador">
	<g>
		<g>
			<g>
				<path style="fill:#899C60;" d="M560.7,413.1c0,0.4,0.3,0.8,0.8,0.8h2c0.4,0,0.8-0.3,0.8-0.8v-1.5c0-0.4-0.3-0.8-0.8-0.8h-2
					c-0.4,0-0.8,0.3-0.8,0.8V413.1z"/>
				<path style="fill:#CC656F;" d="M554.5,424.4c0,4.2,3.6,3.8,8,3.8s8,0.4,8-3.8c0-4.1,0-12.4-8-12.4
					C554.4,412,554.5,420.2,554.5,424.4z"/>
				<path style="fill:#EE959B;" d="M562,412c0,0,0.2,0,0.3,0c8,0,8.1,8.2,8.1,12.3s-3.5,3.7-7.9,3.7c0,0-0.4,0-0.4,0V412z"/>
			</g>
			<g>
				<circle style="fill:#809159;" cx="562.4" cy="419.5" r="6.5"/>
				<g>
					<defs>
						<circle id="SVGID_2_" cx="562.4" cy="419.4" r="5.8"/>
					</defs>
					<clipPath id="SVGID_3_">
						<use xlink:href="#SVGID_2_"  style="overflow:visible;"/>
					</clipPath>
					<rect x="552.5" y="409" style="clip-path:url(#SVGID_3_);fill:#E2D4D5;" width="22.1" height="10.4"/>
					<rect x="551" y="419.4" style="clip-path:url(#SVGID_3_);fill:#F5E5E5;" width="28.6" height="9.7"/>
				</g>
				<g>
					<g>
						<circle style="fill:#3C3541;" cx="562.4" cy="414.2" r="0.3"/>
						<circle style="fill:#3C3541;" cx="557.5" cy="419.4" r="0.3"/>
						<circle style="fill:#3C3541;" cx="567.4" cy="419.4" r="0.3"/>
						<circle style="fill:#3C3541;" cx="558.1" cy="417" r="0.2"/>
						<circle style="fill:#3C3541;" cx="566.8" cy="417" r="0.2"/>
						<circle style="fill:#3C3541;" cx="560" cy="415.1" r="0.2"/>
						<circle style="fill:#3C3541;" cx="564.9" cy="415.1" r="0.2"/>
					</g>
					<g>
						<circle style="fill:#3C3541;" cx="562.4" cy="424.5" r="0.3"/>
						<circle style="fill:#3C3541;" cx="566.8" cy="421.8" r="0.2"/>
						<circle style="fill:#3C3541;" cx="558.1" cy="421.8" r="0.2"/>
						<circle style="fill:#3C3541;" cx="564.9" cy="423.7" r="0.2"/>
						<circle style="fill:#3C3541;" cx="560" cy="423.7" r="0.2"/>
					</g>
				</g>
			</g>
		</g>
		<g>
			<line style="fill:none;stroke:#809159;stroke-width:0.8;stroke-miterlimit:10;" x1="562.4" y1="419.4" x2="564.9" y2="420.8"/>
			<line style="fill:none;stroke:#809159;stroke-width:0.8;stroke-miterlimit:10;" x1="562.4" y1="419.4" x2="562.4" y2="415.1"/>
			<g>
				<circle style="fill:#809159;" cx="562.4" cy="419.4" r="0.8"/>
				<circle style="fill:#F5E5E5;" cx="562.4" cy="419.4" r="0.3"/>
			</g>
		</g>
	</g>
</g>
<g id="Mesa_de_Luz">
	<g>
		<g>
			<g>
				<path style="fill:#614A27;" d="M517.7,431.7v34.5h5v-8h28.3v3.3c0,2.6,2.1,4.7,4.7,4.7h2v-34.5H517.7z"/>
			</g>
			<g>
				<path style="fill:#6C5636;" d="M521.1,431.7v34.5h0.1c2.8,0,5-2.2,5-5v-3h28.3v4.7c0,1.8,1.5,3.3,3.3,3.3h0v-34.5H521.1z"/>
			</g>
		</g>
		<g>
			<g>
				<path style="fill:#614A27;" d="M539.5,431.7v34.5h5v-8h28.3v3.9c0,2.2,1.8,4.1,4.1,4.1h2.6v-34.5H539.5z"/>
			</g>
			<g>
				<path style="fill:#6C5636;" d="M542.9,431.7v34.5h0c2.8,0,5-2.2,5-5v-3h28.3v4.7c0,1.8,1.5,3.3,3.3,3.3h0v-34.5H542.9z"/>
			</g>
		</g>
		<g>
			<rect x="521.1" y="431.7" style="fill:#6C5636;" width="18.4" height="26.5"/>
		</g>
		<g>
			<rect x="547.2" y="436.3" style="fill:#735E40;" width="29" height="17.5"/>
		</g>
		<g>
			<path style="fill:#614A27;" d="M541,431.7h-23.3c-1.2,0-2.1-1-2.1-2.1v0c0-1.2,1-2.1,2.1-2.1H541V431.7z"/>
		</g>
		<g>
			<path style="fill:#756042;" d="M580.1,431.7h-39.7c-1.2,0-2.1-1-2.1-2.1v0c0-1.2,1-2.1,2.1-2.1h39.7c1.2,0,2.1,1,2.1,2.1v0
				C582.2,430.7,581.3,431.7,580.1,431.7z"/>
		</g>
	</g>
</g>
</svg>
