<svg xmlns="http://www.w3.org/2000/svg" xmlns:xlink="http://www.w3.org/1999/xlink" version="1.1" x="0px" y="0px" width="88px" height="344.5px" viewBox="-2.6 -3.6 88 344.5" xml:space="preserve" class="style0"><style>.style0{enable-background:	new -2.6 -3.6 88 344.5;}.style1{fill:	#AECDCA;stroke:	#5BA4C2;stroke-width:	2;stroke-miterlimit:	10;}</style><path d="M76.1 331c-12.1-1.1-17.9-1.8-18.9-3.7V224.3 c4-2.1 5.9-5.3 5.9-10.3c0-1 0.2-52.2 0.2-82.8l4.5 40.1l0.1 48.6c-0.4 0.2-0.7 0.5-1 0.8c-0.9 0.2-1.7 0.7-2.3 1.3l-2.2 2.2 c-0.8 0.8-1.3 1.9-1.3 3.1l0 3.5c0 0.9 0.8 1.7 1.7 1.7l0 0c0.9 0 1.7-0.3 1.7-1.2l0-2.5h0.7l0 1.6l0-0.2l0 10.1 c0 1.1 0.9 1.9 2 1.9l0 0c1.1 0 2-0.5 2-1.6l0-9.8h0.5l0 11.4c0 0.9 0.7 1.6 1.6 1.6h0c0.9 0 1.6-0.8 1.6-1.6l0-11.4h0.6l0 10.6 c0 0.9 0.7 1.4 1.6 1.4l0-0.1c0.9 0 1.6-0.4 1.6-1.3l0-10.7h0.4l0 8c0 1.1 0.9 1.8 2 1.8l0-0.1c1.1 0 1.4-0.9 1.4-2l0-8.4l0-5 c0-2.8-1.4-5.1-3.8-5.9L76.7 170c0-0.4-0.1-0.8-0.2-1.1l-7-63.1c-0.2-1.9-2.1-3-4-2.8l-1.1 0.1c-0.8 0.1-1.7 0.5-2.3 1 c-2.8-5.5-9.2-9.6-15.5-11.1l0-8.3c6.8-2.4 11.7-9 11.7-16.6l0-3.1c0.2 0 0.4 0 0.6 0c5.1 0 9.2-4.1 9.2-9.2c0-4-2.5-7.4-6.1-8.7 c3.5-1.3 6.1-4.7 6.1-8.7c0-1.5-0.4-2.9-1-4.2c2.6-1.5 4.4-4.6 4.4-7.8c0-4.5-3.4-8.1-7.6-8.1c-0.7 0-1.5 0.1-2.1 0.3 c0.4-1 0.6-2.1 0.6-3.3c0-0.3 0-0.2 0-0.5c-0.4-4.5-3.9-7-8.3-7c-2 0-4 0-4 0S49.6 0 40.7 0c-8.3 0-9.5 7.8-9.5 7.8s-1.9 0-4 0 c-4.3 0-7.9 2.5-8.3 7c0 0.3 0 0.4 0 0.6c0 1.2 0.2 2.2 0.6 3.2c-0.7-0.2-1.4-0.4-2.1-0.4c-4.2 0-7.6 3.6-7.6 8.1 c0 3.2 1.8 6.3 4.4 7.8c-0.6 1.3-1 2.7-1 4.2c0 4 2.5 7.4 6.1 8.7c-3.5 1.3-6.1 4.7-6.1 8.7c0 5.1 4.1 9.2 9.2 9.2 c0.2 0 0.4 0 0.6 0l0 3.2c0 7.9 5.2 14.6 12.3 16.8l0 7.8c-6.9 1.2-14.2 5.5-17.1 11.5c-0.7-0.6-1.6-1.1-2.5-1.2l-1.1-0.1 c-1.9-0.2-3.8 0.9-4 2.8l-7 63.1c-0.1 0.4-0.2 0.7-0.2 1.1l-0.1 49.5c-1.8 1-2.9 3.1-2.9 5.5l0 5l0 8.4c0 1.1 0.3 2 1.4 2l0 0 c1.1 0 2-0.4 2-1.5l0-8h0.4l0 10.6c0 0.9 0.7 1.4 1.6 1.4l0-0.1c0.9 0 1.6-0.3 1.6-1.3l0-10.7h0.5l0 11.4c0 0.9 0.7 1.6 1.6 1.6h0 c0.9 0 1.6-0.7 1.6-1.6l0-11.4h0.5l0 9.8c0 1.1 0.9 1.8 2 1.8l0-0.1c1.1 0 2-0.9 2-2l0-10.3l0 0.5l0-1.6h0.7l0 2.5 c0 0.9 0.8 1.4 1.7 1.4l0-0.1c0.9 0 1.7-0.8 1.7-1.7l0-3.5c0-1.2-0.5-2.3-1.3-3.1l-2.2-2.3c-0.6-0.6-1.5-1.1-2.3-1.3 c-0.5-0.5-1.1-1-1.8-1.3l0.1-48.1l4.8-43.7c0.1 30.2-0.1 87.7-0.1 87.7c0 5.5 3.2 8.6 7.2 10.3v98v15.3H82 C82 338.8 83.3 331.7 76.1 331z M32.1 327.3v-100c3 0.2 5 0.3 7.6 0.3c3.3 0 6.4-0.2 9.4-0.7v96.6v6.6 C39.1 329.2 34.1 329.1 32.1 327.3z" class="style1"/></svg>