<?xml version="1.0" encoding="utf-8"?>
<!-- Generator: Adobe Illustrator 16.0.0, SVG Export Plug-In . SVG Version: 6.00 Build 0)  -->
<!DOCTYPE svg PUBLIC "-//W3C//DTD SVG 1.1//EN" "http://www.w3.org/Graphics/SVG/1.1/DTD/svg11.dtd">
<svg version="1.1" id="Losteau" xmlns="http://www.w3.org/2000/svg" xmlns:xlink="http://www.w3.org/1999/xlink" x="0px" y="0px"
	 width="1280px" height="700px" viewBox="0 0 1280 700" enable-background="new 0 0 1280 700" xml:space="preserve">
<path fill="#9CCDBB" d="M712,517.1c0,2.2-38.2,4-59,4s-37.7-1.8-37.7-4c0-2.199,16.9-4,37.7-4C673.9,513.1,712,514.9,712,517.1z"/>
<g>
	<g>
		<g>
			<path fill="#E3BE9A" d="M675,510c-12.1-1.1-18-1.1-19-3V385h-8v118.3V517h31.4C679.4,517,680.9,510.6,675,510z"/>
			<path opacity="0.1" fill="#FFBE9A" stroke="#D8B791" stroke-miterlimit="10" enable-background="new    " d="M655.8,511
				c-0.899-1.2-2.5-2.9-5.5-3.2c-1-0.1-1.8-0.5-2.8-0.5v11.3h9.9C657.5,516.5,657.7,513.5,655.8,511z"/>
			<path fill="#FFBE9A" d="M650.1,510c-12.1-1.1-17.1-1.1-19.1-3V385h-8v118.3V517h31.6C654.6,517,656,510.6,650.1,510z"/>
		</g>
		<g>
			<g>
				<g>
					<g>
						<g>
							<g>
								<g>
									<path fill="#FDB78F" d="M613.9,282.7l-1.101-0.1c-1.899-0.2-3.8,0.9-4,2.8l-7.2,64.7c-0.199,2.2,1.7,4.2,3.9,4.5
										c2.2,0.2,4.6-1.3,4.8-3.5l7.101-64.7C617.7,284.5,615.8,283,613.9,282.7z"/>
								</g>
							</g>
						</g>
					</g>
				</g>
				<g>
					<g>
						<g>
							<g>
								<g>
									<path fill="#E3BE9A" d="M662.5,282.7l1.1-0.1c1.9-0.2,3.801,0.9,4,2.8l7.2,64.7c0.2,2.2-1.7,4.2-3.899,4.5
										c-2.2,0.2-4.601-1.3-4.801-3.5l-7.1-64.7C658.7,284.5,660.6,283,662.5,282.7z"/>
								</g>
							</g>
						</g>
					</g>
				</g>
			</g>
			<g>
				<g>
					<g>
						<path fill="#FFBE9A" d="M615.2,289.4c0-10.2,12.5-17.3,22.1-17.4c0.3,0,2.101,0,2.3,0c9.601,0,22,7.5,22,17.5
							s-0.1,102.8-0.1,104.2c0,11-10.3,13.7-22.9,13.7c-12.1,0-23.199-1.7-23.199-12.2C615.4,395.1,615.2,289.4,615.2,289.4z"/>
					</g>
					<path fill="#E3BE9A" d="M640,272c0,0,0.2,0,0.3,0c9.601,0,21.7,7.5,21.7,17.5s0.5,102.8,0.5,104.2c0,11-10.4,13.7-22.4,13.7
						V272H640z"/>
					<g>
						<circle opacity="0.5" fill="#D76A74" enable-background="new    " cx="627.7" cy="303.3" r="1.9"/>
						<circle opacity="0.5" fill="#D76A74" enable-background="new    " cx="648.4" cy="303.3" r="1.9"/>
					</g>
				</g>
			</g>
		</g>
		<g>
			<g>
				<path fill="#4C4452" d="M617.4,226.7c-3.5-1.3-6.101-4.7-6.101-8.7c0-5.1,4.101-9.2,9.2-9.2s9.2,4.1,9.2,9.2
					c0,4-2.5,7.4-6.101,8.7c3.5,1.3,6.101,4.7,6.101,8.7c0,5.1-4.101,9.2-9.2,9.2s-9.2-4.1-9.2-9.2
					C611.3,231.4,613.8,228,617.4,226.7z"/>
				<path fill="#3C3541" d="M653.9,226.7c-3.5-1.3-6.101-4.7-6.101-8.7c0-5.1,4.101-9.2,9.2-9.2s9.2,4.1,9.2,9.2
					c0,4-2.5,7.4-6.101,8.7c3.5,1.3,6.101,4.7,6.101,8.7c0,5.1-4.101,9.2-9.2,9.2s-9.2-4.1-9.2-9.2
					C647.8,231.4,650.4,228,653.9,226.7z"/>
			</g>
			<g>
				<path fill="#FFBE9A" d="M644.7,261.1V273c0,3.1-2.5,5.6-5.601,5.6c-3.1,0-5.6-2.5-5.6-5.6v-11.9H644.7z"/>
				<path opacity="0.8" fill="#CEAD8D" enable-background="new    " d="M644.7,261.1V273c0,3.1-2.5,5.6-6.101,5.6v-17.5H644.7z"/>
			</g>
			<g>
				<path fill="#E3BE9A" d="M660,231c0-1.6-1.3-3-3-3h-8c-1.6,0-3,1.3-3,3v4c0,1.6,1.3,3,3,3h8.1c1.601,0,3-1.3,3-3v-4H660z"/>
				<path fill="#FFBE9A" d="M631,231c0-1.6-1.3-3-3-3h-8c-1.6,0-3,1.3-3,3v4c0,1.6,1.3,3,3,3h8.1c1.601,0,3-1.3,3-3v-4H631z"/>
			</g>
			<g>
				<g>
					<g>
						<g>
							<path fill="#FFBE9A" d="M656.4,198.5l-35.301,0.1l0.101,49.2c0,9.7,7.899,17.6,17.7,17.6c9.699,0,17.6-7.9,17.6-17.7
								L656.4,198.5z"/>
						</g>
					</g>
					<path fill="#E3BE9A" d="M656.4,198.5l0.1,49.2c0,9.7-7.9,17.7-18,17.7l-0.1-66.8L656.4,198.5z"/>
				</g>
			</g>
			<g>
				<path fill="#4C4452" d="M630.5,210.7c-2.7,2.7-4.7,4.1-8.6,4.6c-1.801,0.2-4.601,0.1-6.101-0.5h-0.1c-4.2,0-7.8-4.3-7.8-8.8
					s3.399-8.1,7.6-8.1c0.7,0,1.5,0.1,2.1,0.3c-0.399-1-0.6-2.1-0.6-3.3c0-0.3,0-0.5,0-0.8c0.4-4.5,3.9-7.3,8.3-7.3c2,0,4,0,4,0
					s1.2-7.8,9.5-7.8c0.101,0,0,33.3,0,33.3c-0.1,0-0.1,0-0.2,0C635.7,212.3,633,211.7,630.5,210.7z"/>
				<path fill="#3C3541" d="M647.1,210.7c2.7,2.7,4.7,4.1,8.601,4.6c1.8,0.2,4.6,0.1,6-0.5h0.1c4.2,0,7.8-4.3,7.8-8.8
					s-3.399-8.1-7.6-8.1c-0.7,0-1.5,0.1-2.1,0.3c0.399-1,0.6-2.1,0.6-3.3c0-0.3,0-0.5,0-0.8c-0.4-4.5-3.9-7.3-8.3-7.3c-2,0-4,0-4,0
					s-0.5-7.8-9.5-7.8c-0.101,0,0,33.3,0,33.3c0.1,0,0.1,0,0.2,0C641.8,212.3,644.6,211.7,647.1,210.7z"/>
			</g>
			<g>
				<g>
					<g>
						<path fill="#4C4452" d="M649,232.1c0,1.1-0.9,2-2,2s-2-0.9-2-2s0.9-2,2-2S649,231,649,232.1z"/>
					</g>
				</g>
				<g>
					<g>
						<path fill="#4C4452" d="M632.5,232.1c0,1.1-0.9,2-2,2s-2-0.9-2-2s0.9-2,2-2C631.7,230.1,632.5,231,632.5,232.1z"/>
					</g>
				</g>
			</g>
			<path fill="#E3BE9A" d="M638.8,236.8"/>
		</g>
		<g>
			<path fill="#FDB78F" d="M606,345.7c-2.2,0-4.4,1.8-4.4,4l-0.1,51.899h8.8L610.4,349.7C610.4,347.5,608.2,345.7,606,345.7z"/>
			<g>
				<g>
					<g>
						<g>
							<path fill="#FDB78F" d="M618,410.5V407c0-1.2-0.5-2.3-1.3-3.1l-2.2-2.2c-1-1-2.3-1.5-3.6-1.5h-3.4v0.7c0,2,0.8,4,2.2,5.399
								l0.2,0.2c0.699,0.7,1.8,1.2,2.8,1.2h1.899v2.899c0,0.9,0.801,1.7,1.7,1.7l0,0C617.2,412.2,618,411.5,618,410.5z"/>
						</g>
					</g>
				</g>
				<g>
					<g>
						<path fill="#FDB78F" d="M611.9,421.9L611.9,421.9c-1.101,0-2-0.9-2-2V409.6h-8v8.4c0,1.1-0.9,2-2,2l0,0
							c-1.101,0-1.4-0.9-1.4-2v-8.4v-5c0-3.399,2.2-6.199,5.6-6.199h3.601c3.399,0,6.2,2.8,6.2,6.199v5l0,0V419.9
							C613.9,421,613,421.9,611.9,421.9z"/>
					</g>
					<g>
						<path fill="#FDB78F" d="M607.8,422.6L607.8,422.6c0.9,0,1.7-0.699,1.7-1.6v-12.1h-3.3V421
							C606.2,421.9,606.9,422.6,607.8,422.6z"/>
					</g>
					<g>
						<path fill="#FDB78F" d="M604,422.3L604,422.3c0.9,0,1.7-0.7,1.7-1.6V408.6h-3.3V420.7C602.3,421.6,603.1,422.3,604,422.3z"/>
					</g>
				</g>
			</g>
		</g>
		<g>
			<path fill="#E3BE9A" d="M670.4,345.7c2.199,0,4.399,1.8,4.399,4L674.9,401.6H666.1L666,349.7C666,347.5,668.2,345.7,670.4,345.7z
				"/>
			<g>
				<g>
					<g>
						<g>
							<path fill="#E3BE9A" d="M659.2,410.5V407c0-1.2,0.5-2.3,1.3-3.1l2.2-2.2c1-1,2.3-1.5,3.6-1.5h3.4v0.7c0,2-0.8,4-2.2,5.399
								l-0.2,0.2c-0.7,0.7-1.8,1.2-2.8,1.2h-1.9v2.899c0,0.9-0.8,1.7-1.699,1.7l0,0C660,412.2,659.2,411.5,659.2,410.5z"/>
						</g>
					</g>
				</g>
				<g>
					<g>
						<path fill="#E3BE9A" d="M665.3,421.9L665.3,421.9c1.101,0,2-0.9,2-2V409.6h8v8.4c0,1.1,0.9,2,2,2l0,0c1.101,0,1.4-0.9,1.4-2
							v-8.4v-5c0-3.399-2.2-6.199-5.601-6.199h-3.5c-3.399,0-6.199,2.8-6.199,6.199v5l0,0V419.9C663.3,421,664.2,421.9,665.3,421.9z
							"/>
					</g>
					<g>
						<path fill="#E3BE9A" d="M669.4,422.6L669.4,422.6c-0.9,0-1.7-0.699-1.7-1.6v-12.1h3.3V421
							C671.1,421.9,670.3,422.6,669.4,422.6z"/>
					</g>
					<g>
						<path fill="#E3BE9A" d="M673.3,422.3L673.3,422.3c-0.899,0-1.7-0.7-1.7-1.6V408.6h3.301V420.7
							C674.9,421.6,674.2,422.3,673.3,422.3z"/>
					</g>
				</g>
			</g>
		</g>
	</g>
	<circle fill="#F5E5E5" cx="638.35" cy="248.6" r="3.368"/>
	<path fill="#E2D4D5" d="M638.35,245.232c1.859,0,3.368,1.508,3.368,3.368s-1.508,3.368-3.368,3.368"/>
</g>
</svg>
