<?xml version="1.0" encoding="utf-8"?>
<!-- Generator: Adobe Illustrator 16.0.0, SVG Export Plug-In . SVG Version: 6.00 Build 0)  -->
<!DOCTYPE svg PUBLIC "-//W3C//DTD SVG 1.1//EN" "http://www.w3.org/Graphics/SVG/1.1/DTD/svg11.dtd">
<svg version="1.1" xmlns="http://www.w3.org/2000/svg" xmlns:xlink="http://www.w3.org/1999/xlink" x="0px" y="0px" width="1280px"
	 height="700px" viewBox="0 0 1280 700" style="enable-background:new 0 0 1280 700;" xml:space="preserve">
<g id="Lousteau">
	<g>
		<g>
			<g>
				<path style="fill:#FFBE9A;" d="M585.4,478.4c10.4-1,15.6-1,16.6-2.6v-44c0-11.9,10-21.4,21.9-21.4H671v-7h19.9
					c-1.7,4-6.3,12-11.6,12h-52.9c-8.6,0-17.1,6.6-17.4,16.4v52.6h-27.7C581.3,484.4,580.3,478.9,585.4,478.4z"/>
				<path style="fill:#CEAD8D;" d="M603.5,484.4h5.5v-7.6c0,0.5-2.9,1.1-3.9,1.9C603,480.2,603.4,483.5,603.5,484.4z"/>
				<path style="fill:#E3BE9A;" d="M610.8,478.4c10.4-1,15.2-1,16.2-2.6v-38.1c0-11.9,10.2-22.3,22.1-22.3H685v-12h20v6.4
					c0,6.8-7,12.6-13.8,12.6h-42.1c-8.6,0-14.1,6.7-14.1,15.3v46.7h-28C607,484.4,605.7,478.9,610.8,478.4z"/>
			</g>
			<g>
				<path style="fill:#8BC4B3;" d="M623,405.4h40.7c3.2,0,3.2-2.2,3.2-3v0h27v1.4c0,8.8-7.2,16.6-16,16.6H625c-6.6,0-11,4.6-11,11.3
					v33.7h-15v-33.7C599,417.8,609.1,405.4,623,405.4z"/>
				<path style="fill:#7FBEAB;" d="M630.6,411.3l41.6,0c3.2,0,4.7-3.3,4.7-4.1v-4.8h17v1.7c0,8.6-7.4,16.3-16,16.3H625
					c-6.6,0-11,4.6-11,11.3v33.7h-8v-31.3C606,420.2,616.7,411.3,630.6,411.3z"/>
			</g>
			<g>
				<g>
					<path style="fill:#8FC6B6;" d="M648.4,412.4h28.5c3.2,0,3.1-1.9,3.1-2.7v-7.3h27v7.4c0,8.8-7,16.6-15.8,16.6h-42.9
						c-6.6,0-9.4,4.7-9.4,11.3v27.7h-15v-27.7C624,423.8,634.5,412.4,648.4,412.4z"/>
					<path style="fill:#7FBEAB;" d="M654.4,415.4H681c3.2,0,5-2.4,5-5.3v-7.7h21v7.4c0,8.8-7,16.6-15.8,16.6h-42.9
						c-6.6,0-9.4,4.7-9.4,11.3v27.7h-10v-24.1C629,427.4,640.5,415.4,654.4,415.4z"/>
				</g>
			</g>
		</g>
		<g>
			<g>
				<g>
					<g>
						<g>
							<g>
								<g>
									<g>
										<path style="fill:#FFBE9A;" d="M675.5,316.5l-0.6,0.8c-0.9,1.4-3.4,2.4-4.8,1.5l-37.5-12.5c-1.6-1.1-1.9-3.4-0.8-5
											c1.1-1.6,3.4-2.1,5-1l37.5,12.5C675.6,313.8,676.4,315.1,675.5,316.5z"/>
									</g>
								</g>
							</g>
						</g>
					</g>
				</g>
				<path style="fill:#7FBEAB;" d="M672.9,308.3l-18.6-4.4l-3.3,12.1l17.7,6.1h0l0.3,0.4v-0.1c1,0.3,1.7,0.4,2.6,0.3
					c4-0.2,7.2-3.6,7-7.6C678.4,311.7,676,309,672.9,308.3z"/>
			</g>
			<g>
				<g>
					<g>
						<g>
							<g>
								<g>
									<path style="fill:#B4D9CE;" d="M668.8,310.7c1.4-9.2,9.4-16.3,19-16.3c10,0,20.6,7.6,21.6,17.4c0.1,0.4,0.1,0.8,0.1,1.2
										l-0.5,98.6c0,1.6-1.3,3.3-2.9,3.3l-36.7-12.1c-1.6,0-2.9-1.7-2.9-3.3l1.9-86.4C668.5,312.4,668.6,311.4,668.8,310.7z"/>
								</g>
							</g>
						</g>
					</g>
				</g>
			</g>
			<path style="fill:#96CABA;" d="M708.4,311.8c-0.9-9.7-11.5-17.3-21.4-17.4V409l18.2,6c1.6,0,2.9-1.7,2.9-3.3l0.5-98.6
				C708.5,312.6,708.5,312.2,708.4,311.8z"/>
			<g>
				<defs>
					<path id="SVGID_1_" d="M668.8,310.7c1.4-9.2,9.4-16.3,19-16.3c10,0,20.6,7.6,21.6,17.4c0.1,0.4,0.1,0.8,0.1,1.2l-0.5,98.6
						c0,1.6-1.3,3.3-2.9,3.3l-36.7-12.1c-1.6,0-2.9-1.7-2.9-3.3l1.9-86.4C668.5,312.4,668.6,311.4,668.8,310.7z"/>
				</defs>
				<clipPath id="SVGID_2_">
					<use xlink:href="#SVGID_1_"  style="overflow:visible;"/>
				</clipPath>
				<g style="clip-path:url(#SVGID_2_);">
					
						<line style="fill:#8BC4B3;stroke:#CDE3D8;stroke-width:2.2705;stroke-miterlimit:10;" x1="684" y1="302.2" x2="683.2" y2="416.5"/>
					
						<line style="fill:#8BC4B3;stroke:#CDE3D8;stroke-width:2.2705;stroke-miterlimit:10;" x1="677.9" y1="296.1" x2="677.1" y2="410.4"/>
					
						<line style="fill:#8BC4B3;stroke:#CDE3D8;stroke-width:2.2705;stroke-miterlimit:10;" x1="671.9" y1="291.6" x2="671.1" y2="405.9"/>
					
						<line style="fill:none;stroke:#B5D9C7;stroke-width:2.2705;stroke-miterlimit:10;" x1="692.3" y1="302.2" x2="693" y2="416.5"/>
					
						<line style="fill:none;stroke:#B5D9C7;stroke-width:2.2705;stroke-miterlimit:10;" x1="698.3" y1="296.1" x2="699.6" y2="419.6"/>
					
						<line style="fill:none;stroke:#B5D9C7;stroke-width:2.2705;stroke-miterlimit:10;" x1="704.4" y1="291.6" x2="705.3" y2="420.1"/>
				</g>
			</g>
			<g>
				<line style="opacity:0.5;fill:none;stroke:#9FD1C9;stroke-miterlimit:10;" x1="687.5" y1="309.4" x2="687.5" y2="408.4"/>
				<circle style="fill:#5397B2;" cx="690.5" cy="332.1" r="1.6"/>
				<circle style="fill:#5397B2;" cx="690.5" cy="349.8" r="1.6"/>
				<circle style="fill:#5397B2;" cx="690.5" cy="367.5" r="1.6"/>
				<circle style="fill:#5397B2;" cx="690.5" cy="385.1" r="1.6"/>
			</g>
			<g>
				<path style="fill:#5397B2;" d="M687.6,312.8c6.5,0,12.2-8,13.6-14.1c0,0,2.4-6.3-13.6-6.3c-17,0-13.3,7.6-13.3,7.6
					C676.1,305.5,681.4,312.8,687.6,312.8L687.6,312.8z"/>
				<path style="fill:#FFBE9A;" d="M676.2,299.3c3.2-2.6,7.2-4.2,11.7-4.2c3.8,0,9.3,1.2,12.6,3.2c-0.6,2.7-2.5,5.1-5,6.7l-7.7,11.9
					l-8-12.2C678.1,303.3,676.8,301.4,676.2,299.3z"/>
				<g>
					<path style="fill:#99CBBC;" d="M677.5,300.3c-0.7-0.5-1.3-1.1-1.4-1.6c-1.2-4.8,7.5-6.4,1.9-5.5c-8.4,1.3-10.3,10.2-10.3,10.2
						l8.3,0.4l-2.2,5.4c0,0,10.8,3.3,13.8,7.4C685.4,308,679.7,302.2,677.5,300.3z"/>
				</g>
				<path style="fill:#DFB48A;" d="M688,295.1c5,0.1,9.1,1.2,12.4,3.2c-0.6,2.7-2.5,5.1-5,6.7l-7.4,11.4V295.1z"/>
				<g>
					<path style="fill:#7FBEAB;" d="M698.1,300.3c0.7-0.5,1.3-1.1,1.4-1.6c1.2-4.8-7.4-6.1-1.8-5.3c8.4,1.2,10.2,9.9,10.2,9.9
						l-8.3,1.9l2.2,3.9c0,0-10.8,3.3-13.9,7.3C690.2,308,696,302.2,698.1,300.3z"/>
				</g>
			</g>
		</g>
		<g>
			<g>
				<g>
					<path style="fill:#FFBE9A;" d="M692.1,284.6l0,10.4c0,2.7-2.2,4.9-4.9,4.9c-2.7,0-4.9-2.2-4.9-4.9l0-10.4L692.1,284.6z"/>
					<path style="fill:#E3BE9A;" d="M692.1,284.6l0,10.4c0,2.7-2.2,4.9-4.9,4.9l0-15.3L692.1,284.6z"/>
				</g>
				<g>
					<g>
						<g>
							<g>
								<g>
									<g>
										<path style="fill:#FFBE9A;" d="M703,241l-30.7,0l0,32c0,8.5,6.9,15.3,15.4,15.3c8.5,0,15.3-6.9,15.3-15.4L703,241z"/>
									</g>
								</g>
								<path style="fill:#E3BE9A;" d="M703,241l0,32c0,8.5-6.9,15.6-15.8,15.6l-0.1-47.5L703,241z"/>
							</g>
						</g>
						<g>
							<g>
								<circle style="fill:#4C4452;" cx="678.2" cy="259.4" r="1.7"/>
							</g>
						</g>
					</g>
					<path style="fill:#F5E5E5;" d="M675.1,271.9c3.4,0.2,6.1,1,6.1,1.8c-0.1,0.8-3,2.4-6.4,2.2c-0.2,0-0.4,0-0.6-0.1
						c-0.4-1.3-0.5-2.6-0.6-4C674.1,271.8,674.6,271.8,675.1,271.9z"/>
					<path style="fill:#FFBE9A;" d="M691.5,257.6c0-1.4-1.2-2.6-2.6-2.6h-6.8c-1.4,0-2.6,1.2-2.6,2.6v2.8c0,1.4,1.2,2.6,2.6,2.6h6.8
						c1.4,0,2.6-1.2,2.6-2.6V257.6z"/>
				</g>
				<path style="fill:#3C3541;" d="M658.9,230.9c0-7.2,6.9-11.9,12.1-11.9c2.4,0,4.8,0,4.8,0s1.4-2.1,2.5-3.1c4-3.5,10.3-3,13.9,0.9
					c0.8,0.9,1.5,2,1.9,3.1c0.2,0.5,0.4,2.4,0.8,2.4c1.6,0,3.2,0,4.8,0c1.8,0,3.5,0.1,5.2,0.8c2.3,1,4.2,2.8,5.2,5.1
					c2.3,5,0,11-4.9,13.3c-0.5,0.2-0.9,0.1-0.9,0.6c0,0.4,0,0.9,0,1.3c0,1.5,0,3,0,4.5c0,3.4,0,6.8,0,10.3c0,0.6,0,1.2,0,1.8
					c0,0.1-1.9,0-2.1,0c-2.5,0-5,0-7.4,0c-4.3,0-8.4-2.1-10.8-5.6c-1.2-1.7-2-3.7-2.3-5.8c-0.2-1.3-0.2-2.6,0-3.9
					c0.1-0.6,0.2-1.3,0.4-1.9c0.1-0.4,0.2-0.7,0.4-1.1c-0.1-0.3-0.3-0.5-0.4-0.8c-1.6,4.2-6.4,5.9-9.4,5.9c0,0.1,0,0.3,0,0.4l0,0
					v8.1c-5-0.2-6.9-3.6-7-7.9c0-1.3,0.2-2.7,0.7-3.9C666.4,243.1,658.9,241.9,658.9,230.9z"/>
				<path style="fill:#4C4452;" d="M694.6,222.4l6.3,0c5.6,0,9.7,4.5,9.7,10.1c0,4.4-3.1,8.1-7.1,9.5v0.1c8,0.5,12.7,6.6,12.7,14.1
					c0,7.8-4.7,14.1-13.1,14.1c0,0,0-4.6,0-5.1c0-3.4-1.9-4.8-7.3-4.8c-6.2,0-8.3-1.6-10.3-3.8v-42.9
					C689.5,214.1,694,217.8,694.6,222.4z"/>
			</g>
			<g>
				<g>
					<g>
						<path style="fill:#FFBE9A;" d="M633.4,306.4c-1.7-0.8-2.5-2.9-1.7-4.7l12.7-29.5l6.3,3L638,304.7
							C637.2,306.5,635.1,307.2,633.4,306.4z"/>
						<g>
							<g>
								<g>
									<path style="fill:#FFBE9A;" d="M650.1,260.5L650.1,260.5c-1,0-1.8,0.8-1.7,1.7l0.1,8.9l-6.9,0.1l-0.1-7.3
										c0-1-0.8-1.7-1.7-1.7l0,0c-1,0-1.2,0.8-1.2,1.7l0.1,7.3l0,4.3c0,3,1.9,5.4,4.9,5.3l3.1,0c3,0,5.4-2.5,5.3-5.4l0-4.3h0
										l-0.1-8.9C651.9,261.3,651.1,260.5,650.1,260.5z"/>
								</g>
								<g>
									<path style="fill:#FFBE9A;" d="M646.5,259.9L646.5,259.9c0.8,0,1.5,0.6,1.5,1.4l0.1,10.5l-2.9,0l-0.1-10.5
										C645.1,260.6,645.7,259.9,646.5,259.9z"/>
								</g>
								<g>
									<path style="fill:#FFBE9A;" d="M643.2,260.2L643.2,260.2c0.8,0,1.5,0.6,1.5,1.4l0.1,10.5l-2.9,0l-0.1-10.5
										C641.8,260.9,642.4,260.2,643.2,260.2z"/>
								</g>
							</g>
						</g>
					</g>
				</g>
				<g>
					<g>
						<g>
							<g>
								<g>
									<path style="fill:#F5E5E5;" d="M633.6,265l2.3,13.1c0,0.1,0.1,0.2,0.3,0.2l36.6-3.2c0.1,0,0.2-0.1,0.2-0.3
										c0-0.1-3.2-18.9-3.3-19.1c0-0.1-0.2-0.2-0.3-0.2l-35.6,9C633.6,264.8,633.6,264.9,633.6,265z"/>
								</g>
							</g>
						</g>
						<path style="fill:#72ADC8;" d="M671.8,274.7l-31.1,2.1c-1.6,0.1-3.2-1-3.4-2.6l-1-5.7c-0.3-1.6,0.8-3.2,2.4-3.6
							c0,0,0.9-0.3,4.4-1.2c3.4-0.9,6.5-0.9,13.2,5.1c4.3,3.9,9.4,3.5,13,3.8C672.8,272.8,671.8,274.7,671.8,274.7z"/>
						<path style="opacity:0.4;fill:#C9DEE1;" d="M670.5,265.5c0.8,4.6,1.5,9,1.5,9.1c0,0.1-0.1,0.2-0.2,0.2l-35,2.9
							c-0.1,0-0.2-0.1-0.3-0.2l-1-5.9L670.5,265.5z"/>
					</g>
					<g>
						<g>
							<g>
								<path style="fill:#FFBE9A;" d="M656.4,270.5l0,3c0,1-0.4,2-1.1,2.7l-1.9,2c-0.8,0.8-2,1.3-3.1,1.3l-2.9,0l0-0.6
									c0-1.8,0.7-3.4,1.9-4.7l0.2-0.2c0.6-0.7,1.5-1,2.4-1l1.6,0l0-2.6c0-0.8,0.6-1.5,1.4-1.5l0,0
									C655.8,269,656.4,269.7,656.4,270.5z"/>
							</g>
						</g>
					</g>
				</g>
			</g>
		</g>
	</g>
</g>
<g id="Cama_Adelante">
	<g>
		<g>
			<path style="fill:#897558;" d="M743.5,413.7h-50.4c-6.9,0-12.5,5.6-12.5,12.5v40h6v-13.3h58.7v6.1c0,4,3.2,7.2,7.2,7.2h3.4v-40
				C756,419.3,750.4,413.7,743.5,413.7z"/>
		</g>
		<g>
			<g>
				<path style="fill:#6C5636;" d="M744,413.7h-45.6c-6.9,0-12.5,5.6-12.5,12.5v40h0.1c3.3,0,6-2.7,6-5.9v-7.3h59.3v8
					c0,2.9,2.4,5.2,5.3,5.2h0.1v-40C756.5,419.3,750.9,413.7,744,413.7z"/>
			</g>
		</g>
	</g>
</g>
<g id="Brazo_Lousteau">
	<g>
		<g>
			<g>
				<g>
					<g>
						<g>
							<g>
								<g>
									<path style="fill:#E3BE9A;" d="M708.2,311.1l1,0.1c1.7,0.1,3.8,1.7,3.7,3.3l9.5,41.6c-0.1,1.9-1.9,3.4-3.8,3.3
										c-1.9-0.1-3.5-1.8-3.4-3.7l-9.5-41.6C705.8,312.5,706.5,311,708.2,311.1z"/>
								</g>
							</g>
						</g>
						<g>
							<path style="fill:#E3BE9A;" d="M719.3,354.2c1.9,0.2,3.4,1.9,3.2,3.8l-3.3,44.3l-7-0.7l3.3-44.3
								C715.7,355.4,717.4,354,719.3,354.2z"/>
						</g>
					</g>
				</g>
			</g>
			<g>
				<g>
					<g>
						<g>
							<path style="fill:#E3BE9A;" d="M709,419.2L709,419.2c1,0.1,1.8-0.6,1.9-1.6l1-8l6.9,0.7l-0.9,6.4c-0.1,1,0.6,1.8,1.6,1.9l0,0
								c1,0.1,1.3-0.7,1.4-1.6l0.7-7.3l0.4-4.3c0.3-3-1.4-5.6-4.4-5.9l-3.1-0.3c-3-0.3-5.6,1.9-5.9,4.9l-0.4,4.3l0,0l-0.9,8.9
								C707.3,418.3,708,419.1,709,419.2z"/>
						</g>
						<g>
							<path style="fill:#E3BE9A;" d="M712.4,421.7L712.4,421.7c-0.8-0.1-1.4-0.8-1.3-1.6l1-10.5l2.9,0.3l-1,10.5
								C713.8,421.2,713.1,421.7,712.4,421.7z"/>
						</g>
						<g>
							<path style="fill:#E3BE9A;" d="M715.7,421.7L715.7,421.7c-0.8-0.1-1.4-0.8-1.3-1.6l1-10.5l2.9,0.3l-1,10.5
								C717.2,421.2,716.5,421.8,715.7,421.7z"/>
						</g>
					</g>
				</g>
				<g>
					<g>
						<g>
							<g>
								<path style="fill:#E3BE9A;" d="M704.5,408.7l0.3-3.1c0.1-1,0.6-1.9,1.4-2.6l2.1-1.8c0.9-0.8,2.1-1.1,3.3-1l2.9,0.3l-0.1,0.6
									c-0.2,1.8-1,3.4-2.4,4.5l-0.2,0.1c-0.7,0.6-1.6,0.9-2.5,0.8l-1.6-0.2l-0.2,2.6c-0.1,0.8-0.8,1.4-1.6,1.3l0,0
									C705,410.2,704.4,409.5,704.5,408.7z"/>
							</g>
						</g>
					</g>
				</g>
			</g>
		</g>
		<g>
			<path style="fill:#7FBEAB;" d="M702.5,317.6l5.8,18.2l12-3.5l-4-18.4h0l0-0.3l0,0c-0.2-0.8-0.5-1.6-1-2.4
				c-2.2-3.4-6.7-4.3-10.1-2.1C702.6,311.1,701.5,314.5,702.5,317.6z"/>
		</g>
	</g>
</g>
</svg>
