<?xml version="1.0" encoding="utf-8"?>
<!-- Generator: Adobe Illustrator 16.0.0, SVG Export Plug-In . SVG Version: 6.00 Build 0)  -->
<!DOCTYPE svg PUBLIC "-//W3C//DTD SVG 1.1//EN" "http://www.w3.org/Graphics/SVG/1.1/DTD/svg11.dtd">
<svg version="1.1" id="Lousteau_x5F_ducha" xmlns="http://www.w3.org/2000/svg" xmlns:xlink="http://www.w3.org/1999/xlink" x="0px"
	 y="0px" width="1280px" height="700px" viewBox="0 0 1280 700" style="enable-background:new 0 0 1280 700;" xml:space="preserve">
<g>
	<g>
		<g>
			<path style="fill:#FFBE9A;" d="M633.4,274.4c-1.7-0.8-2.5-2.9-1.7-4.7l12.7-29.5l6.3,3L638,272.7
				C637.2,274.5,635.1,275.2,633.4,274.4z"/>
			<g>
				<g>
					<g>
						<path style="fill:#FFBE9A;" d="M650.1,228.5L650.1,228.5c-1,0-1.8,0.8-1.7,1.7l0.1,8.9l-6.9,0.1l-0.1-7.3c0-1-0.8-1.7-1.7-1.7
							l0,0c-1,0-1.2,0.8-1.2,1.7l0.1,7.3l0,4.3c0,3,1.9,5.4,4.9,5.3l3.1,0c3,0,5.4-2.5,5.3-5.4l0-4.3h0l-0.1-8.9
							C651.9,229.3,651.1,228.5,650.1,228.5z"/>
					</g>
					<g>
						<path style="fill:#FFBE9A;" d="M646.5,227.9L646.5,227.9c0.8,0,1.5,0.6,1.5,1.4l0.1,10.5l-2.9,0l-0.1-10.5
							C645.1,228.6,645.7,227.9,646.5,227.9z"/>
					</g>
					<g>
						<path style="fill:#FFBE9A;" d="M643.2,228.2L643.2,228.2c0.8,0,1.5,0.6,1.5,1.4l0.1,10.5l-2.9,0l-0.1-10.5
							C641.8,228.9,642.4,228.2,643.2,228.2z"/>
					</g>
				</g>
			</g>
		</g>
	</g>
	<g>
		<g>
			<g>
				<g>
					<g>
						<path style="fill:#F5E5E5;" d="M633.6,233l2.3,13.1c0,0.1,0.1,0.2,0.3,0.2l36.6-3.2c0.1,0,0.2-0.1,0.2-0.3
							c0-0.1-3.2-18.9-3.3-19.1c0-0.1-0.2-0.2-0.3-0.2l-35.6,9C633.6,232.8,633.6,232.9,633.6,233z"/>
					</g>
				</g>
			</g>
			<path style="fill:#72ADC8;" d="M671.8,242.7l-31.1,2.1c-1.6,0.1-3.2-1-3.4-2.6l-1-5.7c-0.3-1.6,0.8-3.2,2.4-3.6
				c0,0,0.9-0.3,4.4-1.2c3.4-0.9,6.5-0.9,13.2,5.1c4.3,3.9,9.4,3.5,13,3.8C672.8,240.8,671.8,242.7,671.8,242.7z"/>
			<path style="opacity:0.4;fill:#C9DEE1;" d="M670.5,233.5c0.8,4.6,1.5,9,1.5,9.1c0,0.1-0.1,0.2-0.2,0.2l-35,2.9
				c-0.1,0-0.2-0.1-0.3-0.2l-1-5.9L670.5,233.5z"/>
		</g>
		<g>
			<g>
				<g>
					<path style="fill:#FFBE9A;" d="M656.4,238.5l0,3c0,1-0.4,2-1.1,2.7l-1.9,2c-0.8,0.8-2,1.3-3.1,1.3l-2.9,0l0-0.6
						c0-1.8,0.7-3.4,1.9-4.7l0.2-0.2c0.6-0.7,1.5-1,2.4-1l1.6,0l0-2.6c0-0.8,0.6-1.5,1.4-1.5l0,0C655.8,237,656.4,237.7,656.4,238.5
						z"/>
				</g>
			</g>
		</g>
	</g>
</g>
<g>
	<g>
		<g>
			<g>
				<path style="fill:#E1B992;" d="M708.3,272.8l1-0.1c1.6-0.1,3.3,1,3.4,2.6l3.9,56.5c0.1,1.9-1.7,3.6-3.6,3.8
					c-1.9,0.1-3.9-1.3-4.1-3.2l-3.9-56.5C704.9,274.2,706.7,272.9,708.3,272.8z"/>
			</g>
		</g>
	</g>
	<g>
		<g>
			<g>
				<g>
					<path style="fill:#FFBE9A;" d="M680.1,275.6l-0.1,1c-0.2,1.6-1.9,3.7-3.6,3.5l-41.9-5.1c-1.9-0.2-3.3-2.1-3-4
						c0.2-1.9,2-3.4,3.9-3.1l41.9,5.1C679,273.2,680.3,274,680.1,275.6z"/>
				</g>
			</g>
		</g>
		<g>
			<path style="fill:#FFBE9A;" d="M633.4,274.4c-1.7-0.8-2.5-2.9-1.7-4.7l12.7-29.5l6.3,3L638,272.7
				C637.2,274.5,635.1,275.2,633.4,274.4z"/>
			<g>
				<g>
					<g>
						<path style="fill:#FFBE9A;" d="M650.1,228.5L650.1,228.5c-1,0-1.8,0.8-1.7,1.7l0.1,8.9l-6.9,0.1l-0.1-7.3c0-1-0.8-1.7-1.7-1.7
							l0,0c-1,0-1.2,0.8-1.2,1.7l0.1,7.3l0,4.3c0,3,1.9,5.4,4.9,5.3l3.1,0c3,0,5.4-2.5,5.3-5.4l0-4.3h0l-0.1-8.9
							C651.9,229.3,651.1,228.5,650.1,228.5z"/>
					</g>
					<g>
						<path style="fill:#FFBE9A;" d="M646.5,227.9L646.5,227.9c0.8,0,1.5,0.6,1.5,1.4l0.1,10.5l-2.9,0l-0.1-10.5
							C645.1,228.6,645.7,227.9,646.5,227.9z"/>
					</g>
					<g>
						<path style="fill:#FFBE9A;" d="M643.2,228.2L643.2,228.2c0.8,0,1.5,0.6,1.5,1.4l0.1,10.5l-2.9,0l-0.1-10.5
							C641.8,228.9,642.4,228.2,643.2,228.2z"/>
					</g>
				</g>
			</g>
		</g>
	</g>
	<g>
		<g>
			<g>
				<g>
					<g>
						<path style="fill:#F5E5E5;" d="M633.6,233l2.3,13.1c0,0.1,0.1,0.2,0.3,0.2l36.6-3.2c0.1,0,0.2-0.1,0.2-0.3
							c0-0.1-3.2-18.9-3.3-19.1c0-0.1-0.2-0.2-0.3-0.2l-35.6,9C633.6,232.8,633.6,232.9,633.6,233z"/>
					</g>
				</g>
			</g>
			<path style="fill:#72ADC8;" d="M671.8,242.7l-31.1,2.1c-1.6,0.1-3.2-1-3.4-2.6l-1-5.7c-0.3-1.6,0.8-3.2,2.4-3.6
				c0,0,0.9-0.3,4.4-1.2c3.4-0.9,6.5-0.9,13.2,5.1c4.3,3.9,9.4,3.5,13,3.8C672.8,240.8,671.8,242.7,671.8,242.7z"/>
			<path style="opacity:0.4;fill:#C9DEE1;" d="M670.5,233.5c0.8,4.6,1.5,9,1.5,9.1c0,0.1-0.1,0.2-0.2,0.2l-35,2.9
				c-0.1,0-0.2-0.1-0.3-0.2l-1-5.9L670.5,233.5z"/>
		</g>
		<g>
			<g>
				<g>
					<path style="fill:#FFBE9A;" d="M656.4,238.5l0,3c0,1-0.4,2-1.1,2.7l-1.9,2c-0.8,0.8-2,1.3-3.1,1.3l-2.9,0l0-0.6
						c0-1.8,0.7-3.4,1.9-4.7l0.2-0.2c0.6-0.7,1.5-1,2.4-1l1.6,0l0-2.6c0-0.8,0.6-1.5,1.4-1.5l0,0C655.8,237,656.4,237.7,656.4,238.5
						z"/>
				</g>
			</g>
		</g>
	</g>
	<path style="fill:#FFBE9A;" d="M659.7,470.7c10.5-1,15.3-1.2,16.3-2.9V361h8v103.5V477h-28C656,477,654.5,471.2,659.7,470.7z"/>
	<path style="fill:#E3BE9A;" d="M708.2,362.3l0.4-82.8c0-0.2,0-0.4-0.1-0.6l-0.1-0.4c-0.8-8.6-10.7-15.1-19.1-15.1
		c-0.2,0-0.5,0-1.1,0l-0.5,0c-0.1,0-0.3,0-0.4,0c-8.3,0-18.2,6.5-19.1,15.2c0,0.4-0.1,0.6-0.1,0.9l0.5,80.2
		c-0.3,1.2-0.4,2.3-0.4,3.6c0,9.9,8.9,17.9,20,17.9c10.6,0,19.6-7.4,20.3-16.7c0,0,0.4,0,0.4,0v-0.1c0-0.3-0.3-0.7-0.3-1
		C708.7,362.9,708.2,362.6,708.2,362.3z"/>
	<path style="fill:#FFBE9A;" d="M687.8,262.8c-9.6,0.7-18.3,6.9-19.1,15.5c0,0.4-0.3,2.4-0.3,2.6l0.5,78.6c-0.3,1.2,0.3,2.3,0.3,3.6
		c0,9.5,7,17.3,19,17.3L687.8,262.8z"/>
	<path style="fill:#E3BE9A;" d="M681.5,470.7c10.5-1,15.5-1.2,16.5-2.9V361h7v103.5V477h-27.4C677.6,477,676.3,471.2,681.5,470.7z"
		/>
	<circle style="opacity:0.5;fill:#D76A74;" cx="679.8" cy="290.5" r="1.6"/>
	<circle style="opacity:0.5;fill:#D76A74;" cx="697.8" cy="290.5" r="1.6"/>
	<g>
		<g>
			<g>
				<g>
					<path style="fill:#899C60;" d="M688,419.4c0,2,1.6,3.6,3.6,3.6h19.8c2,0,3.6-1.6,3.6-3.6v-80c0-2-1.6-4-3.5-4.6l-20-5.6
						c-1.9-0.5-3.5,0.7-3.5,2.6V419.4z"/>
				</g>
			</g>
			<g>
				<g>
					<path style="fill:#809159;" d="M688.1,419.4c0,2-1.6,3.6-3.6,3.6h-13.4c-2,0-3.6-1.6-3.6-3.6v-80c0-2,1.5-4.2,3.4-4.8l13.8-5
						c1.9-0.7,3.4,0.4,3.4,2.4v1.2c0,2,0,5.2,0,7.2V419.4z"/>
				</g>
			</g>
			<g>
				<g>
					<path style="fill:#899C60;" d="M679.4,335c-1.3-1.5-0.9-3.2,0.9-3.9l4.3-1.6c1.9-0.7,3.4,0.4,3.4,2.4l0.1,87.5
						c0,2-1.5,4.2-3.4,4.9l-2.9,1.1c-1.8,0.7-3.2-0.3-3.1-2.3l6.4-78c0.2-2-0.8-4.8-2.1-6.2L679.4,335z"/>
				</g>
			</g>
			<g>
				<g>
					<path style="fill:#809159;" d="M688,331.9c0-2,1.6-3.2,3.5-2.6l4,1.1c1.9,0.5,2.4,2.2,1.1,3.7l-3.9,4.5
						c-1.3,1.5-2.2,4.3-2.1,6.3l5.3,78.3c0.1,2-1.2,2.9-3,2.1l-1.6-0.7c-1.8-0.8-3.3-3.1-3.3-5.1L688,331.9z"/>
				</g>
			</g>
		</g>
	</g>
	<g>
		<g>
			<path style="fill:#E1B992;" d="M712.9,327.8c1.9,0.1,3.8,1.7,3.7,3.7l-1.8,45.1l-7.7-0.3l1.8-45.1
				C709,329.2,711,327.7,712.9,327.8z"/>
			<g>
				<g>
					<g>
						<g>
							<path style="fill:#E1B992;" d="M700.5,383.7l0.1-3c0-1,0.5-2,1.2-2.6l2-1.9c0.9-0.8,2-1.2,3.2-1.2l2.9,0.1l0,0.6
								c-0.1,1.8-0.8,3.4-2.1,4.6l-0.2,0.2c-0.7,0.6-1.6,0.9-2.5,0.9l-1.6-0.1l-0.1,2.6c0,0.8-0.7,1.4-1.5,1.4l0,0
								C701.1,385.2,700.5,384.5,700.5,383.7z"/>
						</g>
					</g>
				</g>
				<g>
					<g>
						<path style="fill:#E1B992;" d="M705.4,393.8L705.4,393.8c1,0,1.8-0.7,1.8-1.6l0.4-8.9l6.9,0.3l-0.3,7.3c0,0.9,0.7,1.8,1.7,1.8
							h0c1,0,1.2-0.7,1.3-1.7l0.3-7.3l0.2-4.3c0.1-3-1.7-5.5-4.7-5.6l-3.1-0.1c-3-0.1-5.5,2.2-5.6,5.2l-0.2,4.3l0,0l-0.4,8.9
							C703.7,393,704.4,393.8,705.4,393.8z"/>
					</g>
					<g>
						<path style="fill:#E1B992;" d="M708.9,394.6L708.9,394.6c-0.8,0-1.4-0.7-1.4-1.5l0.4-10.5l2.9,0.1l-0.4,10.5
							C710.4,394,709.7,394.7,708.9,394.6z"/>
					</g>
					<g>
						<path style="fill:#E1B992;" d="M712.3,394.5L712.3,394.5c-0.8,0-1.4-0.7-1.4-1.5l0.4-10.5l2.9,0.1l-0.4,10.5
							C713.7,393.9,713.1,394.5,712.3,394.5z"/>
					</g>
				</g>
			</g>
		</g>
	</g>
	<g>
		<g>
			<path style="fill:#FFBE9A;" d="M692.7,252.6l0,10.4c0,2.7-2.2,4.9-4.9,4.9c-2.7,0-4.9-2.2-4.9-4.9l0-10.4L692.7,252.6z"/>
			<path style="fill:#E3BE9A;" d="M692.7,252.6l0,10.4c0,2.7-2.2,4.9-4.9,4.9l0-15.3L692.7,252.6z"/>
		</g>
		<g>
			<g>
				<g>
					<g>
						<g>
							<g>
								<path style="fill:#FFBE9A;" d="M703.5,209l-30.7,0l0,32c0,8.5,6.9,15.3,15.4,15.3c8.5,0,15.3-6.9,15.3-15.4L703.5,209z"/>
							</g>
						</g>
						<path style="fill:#E3BE9A;" d="M703.5,209l0,32c0,8.5-6.9,15.6-15.8,15.6l-0.1-47.5L703.5,209z"/>
					</g>
				</g>
				<g>
					<g>
						<circle style="fill:#4C4452;" cx="678.8" cy="227.4" r="1.7"/>
					</g>
				</g>
			</g>
			<path style="fill:#F5E5E5;" d="M675.6,239.9c3.4,0.2,6.1,1,6.1,1.8c-0.1,0.8-3,2.4-6.4,2.2c-0.2,0-0.4,0-0.6-0.1
				c-0.4-1.3-0.5-2.6-0.6-4C674.6,239.8,675.1,239.8,675.6,239.9z"/>
			<path style="fill:#FFBE9A;" d="M692,225.6c0-1.4-1.2-2.6-2.6-2.6h-6.8c-1.4,0-2.6,1.2-2.6,2.6v2.8c0,1.4,1.2,2.6,2.6,2.6h6.8
				c1.4,0,2.6-1.2,2.6-2.6V225.6z"/>
		</g>
		<path style="fill:#4C4452;" d="M659.4,198.9c0-7.2,6.9-11.9,12.1-11.9c2.4,0,4.8,0,4.8,0s1.4-2.1,2.5-3.1c4-3.5,10.3-3,13.9,0.9
			c0.8,0.9,1.5,2,1.9,3.1c0.2,0.5,0.4,2.4,0.8,2.4c1.6,0,3.2,0,4.8,0c1.8,0,3.5,0.1,5.2,0.8c2.3,1,4.2,2.8,5.2,5.1
			c2.3,5,0,11-4.9,13.3c-0.5,0.2-0.9,0.1-0.9,0.6c0,0.4,0,0.9,0,1.3c0,1.5,0,3,0,4.5c0,3.4,0,6.8,0,10.3c0,0.6,0,1.2,0,1.8
			c0,0.1-1.9,0-2.1,0c-2.5,0-5,0-7.4,0c-4.3,0-8.4-2.1-10.8-5.6c-1.2-1.7-2-3.7-2.3-5.8c-0.2-1.3-0.2-2.6,0-3.9
			c0.1-0.6,0.2-1.3,0.4-1.9c0.1-0.4,0.2-0.7,0.4-1.1c-0.1-0.3-0.3-0.5-0.4-0.8c-1.6,4.2-6.4,5.9-9.4,5.9c0,0.1,0,0.3,0,0.4l0,0v8.1
			c-5-0.2-6.9-3.6-7-7.9c0-1.3,0.2-2.7,0.7-3.9C667,211.1,659.4,209.9,659.4,198.9z"/>
		<path style="fill:#3C3541;" d="M695.1,190.4l6.3,0c5.6,0,9.7,4.5,9.7,10.1c0,4.4-3.1,8.1-7.1,9.5v0.1c8,0.5,12.7,6.6,12.7,14.1
			c0,7.8-4.7,14.1-13.1,14.1c0,0,0-4.6,0-5.1c0-3.4-1.9-4.8-7.3-4.8c-6.2,0-8.3-1.6-10.3-3.8v-42.9
			C690,182.1,694.5,185.8,695.1,190.4z"/>
	</g>
	<path style="fill:#FFBE9A;" d="M665.2,278.8c0,0,3.2,1.6,3.2,4.4s3.6-5,3.6-5s-3.4-1.7-3.6-1.7S665.2,278.8,665.2,278.8z"/>
</g>
</svg>
