<?xml version="1.0" encoding="utf-8"?>
<!-- Generator: Adobe Illustrator 16.0.0, SVG Export Plug-In . SVG Version: 6.00 Build 0)  -->
<!DOCTYPE svg PUBLIC "-//W3C//DTD SVG 1.1//EN" "http://www.w3.org/Graphics/SVG/1.1/DTD/svg11.dtd">
<svg version="1.1" id="Losteau" xmlns="http://www.w3.org/2000/svg" xmlns:xlink="http://www.w3.org/1999/xlink" x="0px" y="0px"
	 width="1280px" height="700px" viewBox="0 0 1280 700" style="enable-background:new 0 0 1280 700;" xml:space="preserve">
<path style="fill-rule:evenodd;clip-rule:evenodd;" d="M606,481V369.1l0-0.1c-5-1.8-7.3-5.1-7.3-10c0,0-0.2-87.7-0.2-87.7l-0.6,0
	l-4.8,43.7l-0.1,48.3l0.2,0.1c0.7,0.3,1.2,0.7,1.7,1.2l0.1,0.1l0.1,0c0.8,0.2,1.6,0.7,2.2,1.2l2.2,2.3c0.8,0.8,1.2,1.8,1.2,2.9
	l0,3.5c0,0.8-0.6,1.4-1.4,1.4h-0.2l0,0c-0.7-0.1-1.2-0.4-1.2-1.1l0-2.9h-1.3l0,2h0l0,10c0,0.5-0.2,1-0.5,1.3
	c-0.3,0.3-0.7,0.6-1.2,0.6h-0.1l0-0.1c-0.9-0.1-1.6-0.7-1.6-1.5l0-10.3h-1.1l0,11.5c0,0.4-0.1,0.6-0.4,0.9c-0.3,0.3-0.6,0.4-0.9,0.4
	c-0.4,0-0.7-0.2-1-0.4c-0.3-0.3-0.4-0.5-0.4-0.8l0-11.5h-1.2l0,11c0,0.7-0.5,1-1.3,1h-0.1l0,0.1c-0.7-0.1-1.2-0.4-1.2-1.1l0-11h-1
	l0,8.4c0,0.9-0.7,1.4-1.7,1.4c-0.4,0-0.6-0.1-0.8-0.3c-0.3-0.3-0.4-0.8-0.4-1.5l0-13.4c0-2.3,1-4.3,2.8-5.3l0.2-0.1l0.1-49.7
	c0-0.3,0.1-0.6,0.2-1l7-63.2c0.2-1.7,1.8-2.6,3.3-2.6c0.1,0,0.3,0,0.4,0l1.1,0.1c0.9,0.1,1.7,0.5,2.4,1.1l0.3,0.3l0.2-0.4
	c3-6.3,10.6-10.3,16.8-11.4l0.2,0l0-8.3l-0.2-0.1c-7.3-2.3-12.1-8.9-12.1-16.5l0-3.5l-0.3,0c-0.2,0-0.4,0-0.6,0
	c-4.9,0-8.9-4-8.9-8.9c0-3.7,2.4-7.1,5.9-8.4l0.8-0.3l-0.8-0.3c-3.5-1.3-5.9-4.7-5.9-8.4c0-1.4,0.3-2.8,1-4l0.1-0.3l-0.2-0.1
	c-2.6-1.5-4.3-4.5-4.3-7.5c0-4.3,3.3-7.8,7.3-7.8c0.7,0,1.4,0.1,2,0.3l0.6,0.2l-0.2-0.6c-0.4-1-0.6-2.1-0.6-3.1c0-0.3,0-0.6,0-0.9
	c0.4-4.2,3.6-7.2,8-7.2h4.2l0-0.1c0-0.3,1.3-7.5,9.2-7.5c8.6,0,9.2,7.1,9.2,7.4l0,0.2h4.2c4.4,0,7.6,3,8,7.2c0,0.3,0,0.5,0,0.8
	c0,1.1-0.2,2.2-0.6,3.2l-0.2,0.6l0.6-0.2c0.7-0.2,1.4-0.3,2-0.3c4,0,7.3,3.5,7.3,7.8c0,3-1.7,6-4.3,7.5l-0.2,0.1l0.1,0.3
	c0.6,1.3,1,2.6,1,4c0,3.7-2.4,7.1-5.9,8.4l-0.8,0.3l0.8,0.3c3.5,1.3,5.9,4.6,5.9,8.4c0,4.9-4,8.9-8.9,8.9c-0.2,0-0.4,0-0.5,0l-0.3,0
	l-0.1,0.3l0,3.1c0,0.5,0,1-0.1,1.6c0,0.1,0,0.2,0,0.3l0,0.2c0,0.4-0.1,0.7-0.2,1.1c0,0.2-0.1,0.4-0.1,0.6c-0.1,0.3-0.2,0.6-0.2,0.9
	l-0.1,0.2c0,0.1-0.1,0.3-0.1,0.4c-0.1,0.3-0.2,0.6-0.3,0.9c-0.2,0.5-0.4,0.9-0.6,1.4l-0.1,0.3c-0.2,0.4-0.4,0.7-0.6,1.1l0,0v0
	c-2.1,3.4-5.3,6.1-9,7.4l-0.2,0.1l0,8.6l0.2,0.1c6.8,1.5,12.9,5.7,15.6,10.9l0.2,0.3l0.3-0.2c0.6-0.4,1.3-0.7,1.9-0.7l1.1-0.1
	c0.1,0,0.3,0,0.4,0c1.5,0,3.1,0.9,3.3,2.6l7,63.1c0.1,0.5,0.2,0.8,0.2,1.1l0.1,49.4l0.2,0.1c2.2,0.7,3.6,2.9,3.6,5.6l0,13.4
	c0,0.7-0.1,1.3-0.4,1.6c-0.2,0.2-0.4,0.4-0.7,0.4h-0.1l0-0.1c-0.9-0.1-1.6-0.6-1.6-1.5l0-8.4h-1l0,11c0,0.7-0.5,1-1.3,1h-0.2l0,0.1
	c-0.7-0.1-1.2-0.4-1.2-1.1l0-11h-1.2l0,11.5c0,0.4-0.1,0.6-0.4,0.9c-0.3,0.3-0.6,0.4-0.9,0.4c-0.4,0-0.7-0.2-1-0.4
	c-0.3-0.3-0.4-0.5-0.4-0.8l0-11.5H650l0,10.4c0,0.9-0.7,1.6-1.7,1.6h0l-0.1-0.2c-0.4,0-0.8-0.3-1.1-0.6c-0.3-0.3-0.5-0.8-0.5-1.2
	l0-10.1l0,0.1l0-2h-1.3l0,2.9c0,0.8-0.7,1.1-1.4,1.1c-0.8,0-1.4-0.7-1.4-1.4l0-3.5c0-1.1,0.4-2.1,1.2-2.9l2.2-2.3
	c0.6-0.6,1.3-1,2.2-1.2l0.1,0l0.1-0.1c0.3-0.3,0.6-0.6,1-0.8l0.1-0.1l-0.1-48.7l-4-36l-0.6,0c0.1,18.9,0.2,43.7,0.3,60.4
	c0.1,10.6,0.1,17.8,0.1,18.2c0,4.9-1.9,8.3-6.1,10.5l0,0.1v102.8l-0.1,0.1c0.9,1.6,4.3,1.9,12,2.5c2.1,0.2,4.4,0.4,7.1,0.6
	c1.5,0.1,2.7,0.9,3.4,1.9c1.2,1.6,0.9,3.8,0.8,4.8H606z M614,471.2L614,471.2c1.6,1.7,4.9,2,12.2,2.6c1.2,0.1,2.3,0.2,3.6,0.3l0.1,0
	v-2.6c1,0,0.7,0,0.7,0l0,0l0.3,0.1V370.5l-0.3,0c-2.2,0.3-4.7,0.5-7.7,0.5v0l-0.2,0c-0.5,0-0.8,0-1.3,0c-2.9,0-5.2-0.1-7.4-0.3
	l-0.1,0V471.2z"/>
</svg>
