<?xml version="1.0" encoding="utf-8"?>
<!-- Generator: Adobe Illustrator 16.0.0, SVG Export Plug-In . SVG Version: 6.00 Build 0)  -->
<!DOCTYPE svg PUBLIC "-//W3C//DTD SVG 1.1//EN" "http://www.w3.org/Graphics/SVG/1.1/DTD/svg11.dtd">
<svg version="1.1" xmlns="http://www.w3.org/2000/svg" xmlns:xlink="http://www.w3.org/1999/xlink" x="0px" y="0px" width="1280px"
	 height="700px" viewBox="0 0 1280 700" style="enable-background:new 0 0 1280 700;" xml:space="preserve">
<g id="BG">
</g>
<g id="Lousteau">
	<path style="fill:#9CCDBB;" d="M712,517.1c0,2.2-38.2,4-59,4c-20.8,0-37.7-1.8-37.7-4c0-2.2,16.9-4,37.7-4
		C673.9,513.1,712,514.9,712,517.1z"/>
	<path style="fill:#1F4463;" d="M639,282c4.6,0,8.4-4,8.3-8.7l0-2.8c-2.6-0.8-5.3-1.5-7.9-1.5c0,0-1.7,0-1.7,0c-0.2,0-0.3,0-0.3,0
		l-0.2,0h-0.2c-2.1,0-4.3,0.4-6.5,1l0,3.3C630.7,277.9,634.4,282,639,282L639,282z"/>
	<g>
		<g>
			<g>
				<g>
					<g>
						<g>
							<path style="fill:#CEAD8D;" d="M667.7,293.1l1.1,0c1.9-0.1,3.7,1.2,3.8,3.1l2.1,35c0.1,2.2-2,4.1-4.2,4.2
								c-2.2,0.1-4.5-1.6-4.6-3.8l-2.1-35C663.8,294.6,665.8,293.2,667.7,293.1z"/>
						</g>
					</g>
				</g>
			</g>
		</g>
		<path style="fill:#D86F79;" d="M656.8,287.4c-0.7-3.5,2.2-6.6,5.4-7.3l1.1-0.2c0.2,0,0.5-0.1,0.7-0.1c3.3-0.3,6.2,1.7,6.8,4.7
			l5.9,29.1l-14.1,4.1L656.8,287.4z"/>
	</g>
	<g>
		<g>
			<g>
				<g>
					<g>
						<g>
							<path style="fill:#E3BE9A;" d="M611.2,282.8l-1.1-0.1c-1.9-0.2-3.8,0.9-4,2.8l-7.2,64.7c-0.2,2.2,1.7,4.2,3.9,4.5
								c2.2,0.2,4.6-1.3,4.8-3.5l7.1-64.7C615,284.5,613.1,283,611.2,282.8z"/>
						</g>
					</g>
				</g>
			</g>
		</g>
		<path style="fill:#D86F79;" d="M603.3,285.2c0.3-3,3.1-5.3,6.3-5.3c0.2,0,0.5,0,0.7,0l1.2,0.1c3.2,0.4,6.4,3.2,6.1,6.7l-3.1,30.7
			l-14.4-2.8L603.3,285.2z"/>
	</g>
	<g>
		<path style="fill:#E3BE9A;" d="M675,510c-12.1-1.1-18-1.1-19-3V385h-8v118.3V517h31.4C679.4,517,680.9,510.6,675,510z"/>
		<path style="opacity:0.1;fill:#FFBE9A;stroke:#D8B791;stroke-miterlimit:10;" d="M655.7,511c-0.9-1.2-2.4-2.9-5.4-3.2
			c-1-0.1-1.8-0.5-2.8-0.5v11.3h9.8C657.5,516.5,657.6,513.5,655.7,511z"/>
		<path style="fill:#FFBE9A;" d="M650.1,510c-12.1-1.1-17.1-1.1-19.1-3V385h-8v118.3V517h31.5C654.5,517,656,510.6,650.1,510z"/>
	</g>
	<g>
		<g>
			<g>
				<g>
					<path style="fill:#FFBE9A;" d="M615.1,289.4c0-10.2,12.5-17.3,22.1-17.4c0.3,0,2.1,0,2.3,0c9.6,0,22,7.5,22,17.5
						c0,10-0.1,102.8-0.1,104.2c0,11-10.3,13.6-22.9,13.6c-12.1,0-23.2-1.7-23.2-12.2C615.4,395.1,615.1,289.4,615.1,289.4z"/>
				</g>
				<path style="fill:#E3BE9A;" d="M639,272c1,0,1.2,0,1.2,0c9.6,0,21.7,7.5,21.7,17.5c0,10,0.5,102.8,0.5,104.2
					c0,11-10.4,13.6-23.4,13.6V272z"/>
				<g>
					<circle style="opacity:0.5;fill:#D76A74;" cx="627.6" cy="303.3" r="1.9"/>
					<circle style="opacity:0.5;fill:#D76A74;" cx="648.3" cy="303.3" r="1.9"/>
				</g>
			</g>
		</g>
	</g>
	<g>
		<g>
			<g>
				<path style="fill:#1F4463;" d="M662.9,381h-48.9c0,10,0.2,16.8,0.2,16.9c0,4.6,1.9,7.5,4.9,9.6V495h16v-83.6c2,0,2.6,0,3.6,0
					c1.6,0,3.4,0,5.4-0.2V495h16v-90.1c2-2.1,2.8-4.8,2.8-8.4C662.8,396.5,662.9,390,662.9,381z"/>
				<path style="fill:#2B4E6B;" d="M614.1,397.9c0,4.6,1.9,7.5,4.9,9.6V495h16v-83.6c2,0,2.7,0,3.6,0c0.3,0,0.4,0,1.4,0V381h-26.1
					C614,391,614.1,397.8,614.1,397.9z"/>
				<path style="fill:#1F4463;" d="M627,495V381h-13.1c0,10,0.2,16.8,0.2,16.9c0,4.6,1.9,7.5,4.9,9.6V495H627z"/>
				<path style="fill:#31536F;" d="M652,495h8v-90.1c2-2.1,2.8-4.8,2.8-8.4c0,0,0.1-6.5,0.1-15.5H652V495z"/>
			</g>
			<g>
				<path style="fill:#1F4463;" d="M613.9,381c0,5,0,9,0,11.9c5.1-1.4,9.1-5.9,9.8-11.9H613.9z"/>
				<g>
					<g>
						<path style="fill:none;stroke:#7F6C50;stroke-width:0.3449;stroke-linecap:round;stroke-linejoin:round;" d="M615.3,394.1
							c0.2-0.1,0.4-0.2,0.6-0.3"/>
						
							<path style="fill:none;stroke:#7F6C50;stroke-width:0.3449;stroke-linecap:round;stroke-linejoin:round;stroke-dasharray:1.1022,1.1022,1.1022,1.1022;" d="
							M617,393.4c1.3-0.6,2.3-1.3,3.3-2"/>
						
							<path style="fill:none;stroke:#7F6C50;stroke-width:0.3449;stroke-linecap:round;stroke-linejoin:round;stroke-dasharray:1.1022,1.1022,1.1022,1.1022,1.1022,1.1022;" d="
							M620.7,391c1.4-1.3,2.6-2.8,3.5-4.9"/>
						<path style="fill:none;stroke:#7F6C50;stroke-width:0.3449;stroke-linecap:round;stroke-linejoin:round;" d="M624.5,385.7
							c0.1-0.2,0.2-0.4,0.3-0.6"/>
					</g>
				</g>
			</g>
			<g>
				<path style="opacity:0.25;fill:#1F4463;" d="M662.9,381c0,5,0,9,0,11.9c-5.1-1.4-9.1-5.9-9.8-11.9H662.9z"/>
				<g>
					<g>
						<path style="fill:none;stroke:#7F6C50;stroke-width:0.3449;stroke-linecap:round;stroke-linejoin:round;" d="M661.5,394.1
							c-0.2-0.1-0.4-0.2-0.6-0.3"/>
						
							<path style="fill:none;stroke:#7F6C50;stroke-width:0.3449;stroke-linecap:round;stroke-linejoin:round;stroke-dasharray:1.1023,1.1023,1.1023,1.1023;" d="
							M659.8,393.4c-1.3-0.6-2.3-1.3-3.3-2"/>
						
							<path style="fill:none;stroke:#7F6C50;stroke-width:0.3449;stroke-linecap:round;stroke-linejoin:round;stroke-dasharray:1.1023,1.1023,1.1023,1.1023,1.1023,1.1023;" d="
							M656.2,391c-1.4-1.3-2.6-2.8-3.5-4.9"/>
						<path style="fill:none;stroke:#7F6C50;stroke-width:0.3449;stroke-linecap:round;stroke-linejoin:round;" d="M652.4,385.7
							c-0.1-0.2-0.2-0.4-0.3-0.6"/>
					</g>
				</g>
			</g>
		</g>
		<g>
			<polygon style="fill:#3C3541;" points="663,385 613.9,385 613.9,381 663,381 			"/>
			<path style="fill:#7F6C50;" d="M643.1,384.7c-0.2,0.8-1.1,1.3-2,1.3h-4.7c-0.9,0-1.7-0.5-2-1.3l-0.8-3.2
				c-0.2-0.8,0.3-1.5,1.2-1.5h7.9c0.9,0,1.4,0.6,1.2,1.5L643.1,384.7z"/>
			<rect x="624" y="381" style="fill:#2B4E6B;" width="3" height="5"/>
			<rect x="649" y="381" style="fill:#2B4E6B;" width="3" height="5"/>
		</g>
	</g>
	<g>
		<path style="fill:#D76A74;" d="M647.4,270.5l0,2.9c0,4.6-3.7,8.7-8.3,8.7h0c-4.6,0-8.4-4-8.4-8.6l0-3.2c-9,2.4-18.3,9.3-18.3,19.2
			c0,0-0.8,63.3-0.6,93.8c0,1.3,0.2,2.1,2.2,2c0,0,47.9-3.4,49-3.5c1.1-0.1,1.4-0.7,1.4-2.2c0-29,0-84.9,0-90.1
			C664.3,280.6,656.3,273.3,647.4,270.5z"/>
		<path style="fill:#CC656F;" d="M647.4,270.5l0.2,2.7c0,4.5-3.7,8.7-7.7,8.9v101.4c11-0.8,22.7-1.6,23.2-1.7
			c1.1-0.1,1.2-0.7,1.2-2.2c0-29,0-84.9,0-90.1C664.4,280.6,656.3,273.3,647.4,270.5z"/>
	</g>
	<g>
		<g>
			<g>
				<g>
					<g>
						<path style="fill:#2B4E6B;" d="M646.7,504.5c0,0.3,0.2,0.5,0.4,0.6l10.1,1c0.3,0,0.5-0.2,0.4-0.5l-0.8-5.8
							c0-0.3-0.3-0.5-0.6-0.5h-8.4c-0.3,0-0.5,0.2-0.6,0.5L646.7,504.5z"/>
					</g>
					<path style="fill:#3C3541;" d="M645.2,502.9l-1.7,11.2h40.4c0,0,0.3-6.7-5.1-7.2c-14.2-1.3-19.5-7.9-19.5-7.9s-3.3,3.8-7.5,3.9
						C647.6,503,645.2,502.9,645.2,502.9z"/>
					<rect x="643.4" y="514.1" style="fill:#4C4452;" width="40.4" height="3.1"/>
					<g>
						<path style="fill:#7F6C50;" d="M662.9,505.7c-0.1,0.3,0,0.6,0.2,0.7l0.5,0.3c0.2,0.1,0.6,0,0.7-0.2l1.3-2.6
							c0.1-0.3,0-0.6-0.2-0.7l-0.5-0.3c-0.2-0.1-0.6,0-0.7,0.2L662.9,505.7z"/>
					</g>
					<g>
						<path style="fill:#7F6C50;" d="M659.7,503.6c-0.2,0.2-0.1,0.6,0.1,0.7l0.5,0.3c0.2,0.2,0.5,0.1,0.7-0.1l1.6-2.5
							c0.2-0.2,0.1-0.6-0.1-0.7L662,501c-0.2-0.2-0.5-0.1-0.7,0.1L659.7,503.6z"/>
					</g>
					<g>
						<path style="fill:#7F6C50;" d="M666.5,507.4c-0.1,0.3,0,0.6,0.3,0.7l0.5,0.2c0.3,0.1,0.5,0,0.6-0.3l1-2.8
							c0.1-0.3,0-0.6-0.3-0.7l-0.5-0.2c-0.3-0.1-0.6,0-0.6,0.3L666.5,507.4z"/>
					</g>
					<g>
						<path style="fill:#7F6C50;" d="M670.2,508.5c-0.1,0.3,0.1,0.6,0.4,0.6l0.6,0.1c0.3,0.1,0.5-0.1,0.6-0.4l0.6-2.9
							c0.1-0.3-0.1-0.6-0.4-0.6l-0.6-0.1c-0.3-0.1-0.5,0.1-0.6,0.4L670.2,508.5z"/>
					</g>
				</g>
			</g>
		</g>
		<path style="fill:#302835;" d="M660,517.3v-1.8c0-0.3,0.6-0.9,0.6-1.2c0,0,0.8-7.5-5.8-8.1c-2.9-0.3-6.8-1.1-6.8-1.1
			c-0.3-0.1-0.5-0.2-0.5-0.3c0-0.1-0.2-0.2-0.5-0.3l-0.6-0.2c-0.3-0.1-0.6-0.1-0.6,0c0,0.1-0.3,0.1-0.6,0l-0.2-0.1l-2.2,10.1
			c-0.1,0.3-0.8,0.9-0.8,1.2v1.6L660,517.3z"/>
		<g>
			<g>
				<g>
					<g>
						<path style="fill:#2B4E6B;" d="M621.8,504.5c0,0.3,0.2,0.5,0.4,0.6l10.1,1c0.3,0,0.5-0.2,0.4-0.5l-0.8-5.8
							c0-0.3-0.3-0.5-0.6-0.5H623c-0.3,0-0.5,0.2-0.6,0.5L621.8,504.5z"/>
					</g>
					<path style="fill:#3C3541;" d="M620.2,502.9l-1.7,11.2h40.4c0,0,0.3-6.7-5.1-7.2c-14.2-1.3-19.5-7.9-19.5-7.9s-3.3,3.8-7.5,3.9
						C622.7,503,620.2,502.9,620.2,502.9z"/>
					<rect x="618.5" y="514.1" style="fill:#4C4452;" width="40.4" height="3.1"/>
					<g>
						<path style="fill:#7F6C50;" d="M638,505.7c-0.1,0.3,0,0.6,0.2,0.7l0.5,0.3c0.2,0.1,0.6,0,0.7-0.2l1.3-2.6
							c0.1-0.3,0-0.6-0.2-0.7l-0.5-0.3c-0.2-0.1-0.6,0-0.7,0.2L638,505.7z"/>
					</g>
					<g>
						<path style="fill:#7F6C50;" d="M634.8,503.6c-0.2,0.2-0.1,0.6,0.1,0.7l0.5,0.3c0.2,0.2,0.5,0.1,0.7-0.1l1.6-2.5
							c0.2-0.2,0.1-0.6-0.1-0.7l-0.5-0.3c-0.2-0.2-0.5-0.1-0.7,0.1L634.8,503.6z"/>
					</g>
					<g>
						<path style="fill:#7F6C50;" d="M641.6,507.4c-0.1,0.3,0,0.6,0.3,0.7l0.5,0.2c0.3,0.1,0.6,0,0.6-0.3l1-2.8
							c0.1-0.3,0-0.6-0.3-0.7l-0.5-0.2c-0.3-0.1-0.6,0-0.6,0.3L641.6,507.4z"/>
					</g>
					<g>
						<path style="fill:#7F6C50;" d="M645.2,508.5c-0.1,0.3,0.1,0.6,0.4,0.6l0.6,0.1c0.3,0.1,0.5-0.1,0.6-0.4l0.6-2.9
							c0.1-0.3-0.1-0.6-0.4-0.6l-0.6-0.1c-0.3-0.1-0.5,0.1-0.6,0.4L645.2,508.5z"/>
					</g>
				</g>
			</g>
		</g>
	</g>
	<g>
		<path style="fill:#E3BE9A;" d="M622.1,386.2L606.9,348c-0.8-2.1-3.5-2.9-5.6-2.1c-2.1,0.8-3.4,3.3-2.6,5.4l16.3,41
			C617.1,391.2,620.7,389.1,622.1,386.2z"/>
		<path style="fill:#BA8B5E;" d="M621.8,385.4c-1.7,2.5-4.9,4.3-7.3,5.4l0.6,1.4c2-1,5.7-3.2,7.1-6.1L621.8,385.4z"/>
	</g>
	<g>
		<g>
			<g>
				<path style="fill-rule:evenodd;clip-rule:evenodd;fill:#4C4452;" d="M617.3,226.7c-3.5-1.3-6.1-4.7-6.1-8.7
					c0-5.1,4.1-9.2,9.2-9.2c5.1,0,9.2,4.1,9.2,9.2c0,4-2.5,7.4-6.1,8.7c3.5,1.3,6.1,4.7,6.1,8.7c0,5.1-4.1,9.2-9.2,9.2
					c-5.1,0-9.2-4.1-9.2-9.2C611.2,231.4,613.8,228,617.3,226.7z"/>
				<path style="fill-rule:evenodd;clip-rule:evenodd;fill:#3C3541;" d="M653.8,226.7c-3.5-1.3-6.1-4.7-6.1-8.7
					c0-5.1,4.1-9.2,9.2-9.2c5.1,0,9.2,4.1,9.2,9.2c0,4-2.5,7.4-6.1,8.7c3.5,1.3,6.1,4.7,6.1,8.7c0,5.1-4.1,9.2-9.2,9.2
					c-5.1,0-9.2-4.1-9.2-9.2C647.7,231.4,650.3,228,653.8,226.7z"/>
			</g>
			<g>
				<path style="fill:#FFBE9A;" d="M644.6,261.1l0,11.9c0,3.1-2.5,5.6-5.6,5.6c-3.1,0-5.6-2.5-5.6-5.6l0-11.9L644.6,261.1z"/>
				<path style="fill:#CEAD8D;" d="M644.6,261.1l0,11.9c0,3.1-2.5,5.6-6.1,5.6l0-17.5L644.6,261.1z"/>
			</g>
			<g>
				<path style="fill:#E3BE9A;" d="M660,231c0-1.6-1.3-3-3-3H649c-1.6,0-3,1.3-3,3v4c0,1.6,1.3,3,3,3h8.1c1.6,0,3-1.3,3-3V231z"/>
				<path style="fill:#FFBE9A;" d="M631,231c0-1.6-1.3-3-3-3H620c-1.6,0-3,1.3-3,3v4c0,1.6,1.3,3,3,3h8.1c1.6,0,3-1.3,3-3V231z"/>
			</g>
			<g>
				<g>
					<g>
						<g>
							<path style="fill:#FFBE9A;" d="M656.3,198.5l-35.3,0.1l0.1,49.2c0,9.7,7.9,17.6,17.7,17.6c9.7,0,17.6-7.9,17.6-17.7
								L656.3,198.5z"/>
						</g>
					</g>
					<path style="fill:#E3BE9A;" d="M656.3,198.5l0.1,49.2c0,9.7-7.9,17.7-18,17.7l-0.1-66.8L656.3,198.5z"/>
				</g>
			</g>
			<g>
				<path style="fill:#4C4452;" d="M630.4,210.7c-2.7,2.7-4.7,4.1-8.6,4.6c-1.8,0.2-4.6,0.1-6.1-0.5c0,0-0.1,0-0.1,0
					c-4.2,0-7.8-4.3-7.8-8.8c0-4.5,3.4-8.1,7.6-8.1c0.7,0,1.5,0.1,2.1,0.3c-0.4-1-0.6-2.1-0.6-3.3c0-0.3,0-0.5,0-0.8
					c0.4-4.5,3.9-7.3,8.3-7.3c2,0,4,0,4,0s1.2-7.8,9.5-7.8c0.1,0,0,33.3,0,33.3c-0.1,0-0.1,0-0.2,0
					C635.7,212.3,632.9,211.7,630.4,210.7z"/>
				<path style="fill:#3C3541;" d="M647,210.7c2.7,2.7,4.7,4.1,8.6,4.6c1.8,0.2,4.6,0.1,6-0.5c0,0,0.1,0,0.1,0
					c4.2,0,7.8-4.3,7.8-8.8c0-4.5-3.4-8.1-7.6-8.1c-0.7,0-1.5,0.1-2.1,0.3c0.4-1,0.6-2.1,0.6-3.3c0-0.3,0-0.5,0-0.8
					c-0.4-4.5-3.9-7.3-8.3-7.3c-2,0-4,0-4,0s-0.5-7.8-9.5-7.8c-0.1,0,0,33.3,0,33.3c0.1,0,0.1,0,0.2,0
					C641.8,212.3,644.5,211.7,647,210.7z"/>
			</g>
			<g>
				<g>
					<g>
						<path style="fill:none;stroke:#4C4452;stroke-linecap:round;stroke-linejoin:round;stroke-miterlimit:10;" d="M643.9,225.7
							c0.9-0.9,2.1-1.5,3.5-1.5c1.3,0,2.7,0.7,3.7,1.6"/>
						<path style="fill:#4C4452;" d="M648.9,232.1c0,1.1-0.9,2-2,2c-1.1,0-2-0.9-2-2c0-1.1,0.9-2,2-2
							C648,230.1,648.9,231,648.9,232.1z"/>
					</g>
				</g>
				<g>
					<g>
						<path style="fill:none;stroke:#4C4452;stroke-linecap:round;stroke-linejoin:round;stroke-miterlimit:10;" d="M626.5,227.8
							c1.9-1.9,5.2-2,7.1-0.1"/>
						<g>
							<path style="fill:#4C4452;" d="M632.9,233c-0.6,0.5-1.7,0.4-2.5,0.4c-0.8-0.1-1.8,0.1-2.4-0.4c-0.7-0.5,0.2-2.4,2.5-2.4
								C632.7,230.6,633.6,232.6,632.9,233z"/>
						</g>
					</g>
				</g>
			</g>
			<path style="fill:#E3BE9A;" d="M638.7,236.8"/>
		</g>
		<g>
			<path style="fill-rule:evenodd;clip-rule:evenodd;fill:#E2D4D5;" d="M645.6,245H638v11.4c6-0.3,10.2-6.8,10.2-6.8
				C649.5,247.1,648.4,245,645.6,245z"/>
			<path style="fill-rule:evenodd;clip-rule:evenodd;fill:#F5E5E5;" d="M630,245h8v11.4c-6-0.3-10.6-6.8-10.6-6.8
				C626.1,247.1,627.2,245,630,245z"/>
		</g>
	</g>
	<g>
		<path style="fill:#CA5E68;" d="M660.6,312l7.7-0.2l0.1,5.4l-7.8,0.2c-1.4,0-2.5-1.1-2.5-2.4l0-0.2
			C658.2,313.3,659.3,312,660.6,312z"/>
		<path style="fill:#CA5E68;" d="M661.9,307l6.3-0.1l0.1,5l-6.4,0.1c-1.5,0-2.7-1.1-2.8-2.6C659.2,307.9,660.4,307,661.9,307z"/>
		<path style="fill:#CA5E68;" d="M661,317.4l7.4-0.1l0.1,5l-7.4,0.2c-1.3,0-2.3-1-2.3-2.2l0-0.5C658.7,318.5,659.7,317.4,661,317.4z
			"/>
		<path style="fill:#CA5E68;" d="M664.4,322.5l-2.5,0c-1.4,0-2.5,0.8-2.4,2.2l0,0.2c0,1.4,1.1,2.5,2.5,2.4l2.4-0.1
			C664.4,325.6,664.4,324,664.4,322.5z"/>
		<polygon style="fill:#BB8D60;" points="665.7,327.2 674.5,327 674.3,322.3 665.4,322.4 		"/>
	</g>
	<g>
		<g>
			<g>
				<path style="fill:#FFC19F;" d="M673.6,292.8c1.6,0,2.5,1.5,2.5,3.1l0.1,5.8c0.1,2.5,3.3,3.1,3.3,3.1l0.1,1.8l-3.2,0.1l0.1,5
					l-5.9,0.1l0.6-16.1C671.2,294.2,672,292.9,673.6,292.8z"/>
				<g>
					<path style="fill:#E3BE9A;" d="M664.1,315.4l14.7-0.2c1.3,0,2.2,0.9,2.2,2.2v0.3c0,1.3-0.8,2.5-2.1,2.5l-14.7,0.4
						c-1.3,0-2.3-1-2.3-2.2l0-0.5C661.8,316.5,662.9,315.4,664.1,315.4z"/>
					<path style="fill:#E3BE9A;" d="M665,305l13.8-0.3c1.5,0,2.8,0.9,2.8,2.4l0-0.1c0,1.5-1.2,2.7-2.7,2.7l-13.8,0.3
						c-1.5,0-2.8-1.2-2.8-2.7l0,0.2C662.2,306,663.4,305,665,305z"/>
					<path style="fill:#E3BE9A;" d="M663.7,310l17.6-0.4c1.4,0,2.7,1.3,2.7,2.6v0.1c0,1.4-1.2,2.6-2.6,2.6l-17.6,0.4
						c-1.4,0-2.5-1.1-2.6-2.4l0-0.2C661.2,311.3,662.3,310,663.7,310z"/>
					<path style="fill:#E3BE9A;" d="M665,320.5l11.6-0.2c1.4,0,2.4,0.7,2.4,2v0.1c0,1.4-0.9,2.6-2.3,2.6l-11.6,0.3
						c-1.4,0-2.5-1.1-2.5-2.4l0-0.2C662.5,321.3,663.6,320.5,665,320.5z"/>
					<path style="fill:#FFBE9A;" d="M663.7,310l7.7-0.2l0.1,5.4l-7.8,0.2c-1.4,0-2.5-1.1-2.5-2.4l0-0.2
						C661.2,311.3,662.3,310,663.7,310z"/>
					<g>
						<path style="fill:#FFBE9A;" d="M665,305l6.3-0.1l0.1,5l-6.4,0.1c-1.5,0-2.7-1.1-2.8-2.6C662.3,305.9,663.5,305,665,305z"/>
						<path style="fill:#D1B395;" d="M661.8,307.2c0,0,0,0.1,0,0.1c0,0,0,0.1,0,0.1L661.8,307.2z"/>
					</g>
					<path style="fill:#FFBE9A;" d="M664.1,315.4l7.4-0.1l0.1,5l-7.4,0.2c-1.3,0-2.3-1-2.3-2.2l0-0.5
						C661.8,316.5,662.8,315.4,664.1,315.4z"/>
					<path style="fill:#FFBE9A;" d="M664.9,320.5l6.7-0.1l0.1,4.8l-6.7,0.2c-1.4,0-2.5-1.1-2.5-2.4l0-0.2
						C662.5,321.3,663.6,320.5,664.9,320.5z"/>
					<g style="opacity:0.2;">
						<path style="fill:#D6D6D6;" d="M661.8,307.2c0,0,0,0.1,0,0.1c0,0,0,0.1,0,0.1L661.8,307.2z"/>
					</g>
				</g>
			</g>
		</g>
	</g>
</g>
<g id="Titular">
</g>
<g id="Miscelaneas">
	<g>
	</g>
	<g>
	</g>
	<g>
	</g>
	<g>
	</g>
	<g>
	</g>
	<g>
	</g>
	<g>
	</g>
	<g>
	</g>
	<g>
	</g>
	<g>
	</g>
	<g>
	</g>
	<g>
	</g>
	<g>
	</g>
	<g>
	</g>
	<g>
	</g>
</g>
</svg>
