<?xml version="1.0" encoding="utf-8"?>
<!-- Generator: Adobe Illustrator 16.0.0, SVG Export Plug-In . SVG Version: 6.00 Build 0)  -->
<!DOCTYPE svg PUBLIC "-//W3C//DTD SVG 1.1//EN" "http://www.w3.org/Graphics/SVG/1.1/DTD/svg11.dtd">
<svg version="1.1" id="mask" xmlns="http://www.w3.org/2000/svg" xmlns:xlink="http://www.w3.org/1999/xlink" x="0px" y="0px"
	 width="1280px" height="700px" viewBox="0 0 1280 700" style="enable-background:new 0 0 1280 700;" xml:space="preserve">
<path id="mascara" style="fill:white" d="M679.5,517.5c0,0,1.2-6.4-4.7-7c-12.1-1.1-18.3-1.2-19.3-3.1V404.9
	c4-2.1,6.7-5.4,6.7-10.8c0-1-0.1-47.9-0.2-78.7l4,36l0.1,48.6c-0.4,0.2-0.7,0.5-1,0.8c-0.9,0.2-1.7,0.7-2.3,1.3l-2.2,2.2
	c-0.8,0.8-1.3,1.9-1.3,3.1l0,3.4c0,0.9,0.8,1.6,1.7,1.6h0c0.9,0,1.7-0.4,1.7-1.4l0-2.6h0.7l0,1.8l0-0.1l0,10.2c0,1.1,0.9,1.9,2,1.9
	l0,0c1.1,0,2-0.7,2-1.8l0-10.1h0.5l0,11.4c0,0.9,0.7,1.6,1.6,1.6h0c0.9,0,1.6-0.8,1.6-1.6l0-11.4h0.6l0,10.8c0,0.9,0.7,1.5,1.6,1.5
	l0-0.1c0.9,0,1.6-0.5,1.6-1.4l0-10.8h0.4l0,8.2c0,1.1,0.9,1.9,2,1.9l0-0.1c1.1,0,1.4-0.9,1.4-2l0-8.4l0-5c0-2.8-1.4-5.1-3.8-5.9
	l-0.1-49.1c0-0.4-0.1-0.8-0.2-1.1l-7-63.1c-0.2-1.9-2.1-3-4-2.8l-1.1,0.1c-0.7,0.1-1.4,0.4-2.1,0.8c-2.9-5.6-9.4-9.7-15.8-11l0-8.1
	c3.9-1.4,7.1-4.1,9.2-7.5c0,0,0,0,0,0c0.2-0.4,0.4-0.7,0.6-1.1c0-0.1,0.1-0.2,0.1-0.3c0.2-0.5,0.4-0.9,0.6-1.4
	c0.1-0.3,0.2-0.6,0.3-0.9c0.1-0.2,0.1-0.4,0.2-0.6c0.1-0.3,0.2-0.6,0.2-1c0-0.2,0.1-0.4,0.1-0.6c0.1-0.4,0.1-0.7,0.2-1.1
	c0-0.2,0-0.3,0.1-0.5c0-0.5,0.1-1.1,0.1-1.6l0-3.1c0.2,0,0.4,0,0.6,0c5.1,0,9.2-4.1,9.2-9.2c0-4-2.5-7.4-6.1-8.7
	c3.5-1.3,6.1-4.7,6.1-8.7c0-1.5-0.4-2.9-1-4.2c2.6-1.5,4.4-4.6,4.4-7.8c0-4.5-3.4-8.1-7.6-8.1c-0.7,0-1.5,0.1-2.1,0.3
	c0.4-1,0.6-2.1,0.6-3.3c0-0.3,0-0.4,0-0.7c-0.4-4.5-3.9-7.2-8.3-7.2c-2,0-4,0-4,0s-0.5-7.8-9.5-7.8c-8.3,0-9.5,7.8-9.5,7.8
	s-1.9,0-4,0c-4.3,0-7.9,2.7-8.3,7.2c0,0.3,0,0.5,0,0.8c0,1.2,0.2,2.2,0.6,3.2c-0.7-0.2-1.4-0.3-2.1-0.3c-4.2,0-7.6,3.6-7.6,8.1
	c0,3.2,1.8,6.3,4.4,7.8c-0.6,1.3-1,2.7-1,4.2c0,4,2.5,7.4,6.1,8.7c-3.5,1.3-6.1,4.7-6.1,8.7c0,5.1,4.1,9.2,9.2,9.2
	c0.2,0,0.4,0,0.6,0l0,3.2c0,7.9,5.2,14.6,12.3,16.8l0,7.8c-6.9,1.2-14.2,5.5-17.1,11.5c-0.7-0.6-1.6-1.1-2.5-1.2l-1.1-0.1
	c-1.9-0.2-3.8,0.9-4,2.8l-7,63.1c-0.1,0.4-0.2,0.7-0.2,1.1l-0.1,49.5c-1.8,1-2.9,3.1-2.9,5.5l0,5l0,8.4c0,1.1,0.3,2,1.4,2h0
	c1.1,0,2-0.7,2-1.8l0-8.2h0.4l0,10.8c0,0.9,0.7,1.5,1.6,1.5l0-0.1c0.9,0,1.6-0.5,1.6-1.4l0-10.9h0.5l0,11.4c0,0.9,0.7,1.6,1.6,1.6h0
	c0.9,0,1.6-0.7,1.6-1.6l0-11.4h0.5l0,10c0,1.1,0.9,1.9,2,1.9l0-0.1c1.1,0,2-0.9,2-2l0-10.3l0,0.2l0-1.8h0.7l0,2.7
	c0,0.9,0.8,1.6,1.7,1.6l0-0.1c0.9,0,1.7-0.8,1.7-1.7l0-3.5c0-1.2-0.5-2.3-1.3-3.1l-2.2-2.3c-0.6-0.6-1.5-1.1-2.3-1.3
	c-0.5-0.5-1.1-1-1.8-1.3l0.1-48.1l4.8-43.7c0.1,30.2-0.1,87.7-0.1,87.7c0,5.5,3.3,8.6,7.3,10.3v98v13.8 M647.5,510.2
	c-10-0.9-15-1-17-2.8v-100c3,0.2,5,0.3,7.6,0.3c0.5,0,1.4,0,1.4,0v0c3,0,6-0.1,8-0.5v96.3"/>
</svg>
