<?xml version="1.0" encoding="utf-8"?>
<!-- Generator: Adobe Illustrator 16.0.0, SVG Export Plug-In . SVG Version: 6.00 Build 0)  -->
<!DOCTYPE svg PUBLIC "-//W3C//DTD SVG 1.1//EN" "http://www.w3.org/Graphics/SVG/1.1/DTD/svg11.dtd">
<svg version="1.1" xmlns="http://www.w3.org/2000/svg" xmlns:xlink="http://www.w3.org/1999/xlink" x="0px" y="0px" width="1280px"
	 height="2589.745px" viewBox="0 0 1280 2589.745" enable-background="new 0 0 1280 2589.745" xml:space="preserve">
<g id="Lousteau_Outline">
	<g>
		<path fill="#BFE0D3" d="M882.367,2529.506c-83.163-10.008-130.768-14.333-137.608-27.398l2.138-705.437
			c27.36-14.359,45.4-36.312,45.4-70.499c0-7.164-0.2-357.272-0.085-567.379l33.119,273.67l0.802,334.221
			c-2.493,1.654-4.623,3.554-6.721,5.679c-5.983,1.576-11.441,4.581-15.898,9.047l-15.434,15.484
			c-5.647,5.703-8.791,13.359-8.764,21.336l0.03,24.101c0,6.399,5.19,11.536,11.577,11.536l0.25,0.009
			c6.358-0.009,11.535-1.743,11.535-8.104L802.688,1829h4.681l0.033,10.914l-0.094-1.707l0.128,69.746
			c-0.021,7.51,6.096,13.169,13.654,13.15l0.254-0.197c7.55-0.017,13.633-2.47,13.633-9.972L834.843,1844h3.111l0.115,77.413
			c-0.034,6.186,5.015,10.587,11.205,10.587h0.223c6.197,0,11.241-4.418,11.22-10.602L860.608,1844h3.812l0.119,72.164
			c-0.027,6.212,5.002,9.291,11.241,9.318l0.201-0.967c6.191-0.01,11.199-1.687,11.199-7.911L887.091,1844h2.686l0.082,53.926
			c0.013,7.532,6.15,11.725,13.647,11.697l0.293-0.962c7.53-0.01,9.479-6.579,9.46-14.108l-0.061-58.034l-0.055-34.273
			c-0.026-18.963-9.774-35.035-25.882-40.577l-0.422-338.322c-0.008-2.693-0.625-5.257-1.486-7.719l-47.984-434.254
			c-1.437-13.027-16.336-22.818-29.34-21.383l-7.83,0.841c-5.747,0.647-11.475,3.194-16.04,6.875
			c-19.07-37.702-62.585-67.974-105.992-78.452l1.026-53.209c47.084-16.775,80.83-61.661,80.748-114.506l-0.027-21.578
			c1.467,0.1,2.933,0.226,4.423,0.226c35.085,0,63.542-28.448,63.542-63.547c0-27.493-17.491-50.815-41.901-59.672
			c24.41-8.876,41.901-32.223,41.901-59.689c0-10.374-2.542-20.14-6.944-28.789c17.673-10.452,30.364-31.645,30.364-53.584
			c0-30.869-23.354-55.885-52.172-55.885c-5.117,0-10.051,0.813-14.702,2.291c2.572-6.948,4.02-14.513,4.02-22.479
			c0-1.911-0.106-1.583-0.283-3.438C785.512,324.152,761.019,307,731.137,307c-14.003,0-27.278,0-27.278,0
			s-3.598-53.69-65.228-53.69c-56.823,0-65.22,53.69-65.22,53.69s-13.284,0-27.308,0c-29.861,0-54.371,17.152-57.024,48.395
			c-0.148,1.854-0.264,2.626-0.264,4.537c0,7.966,1.452,14.983,4.007,21.928c-4.65-1.475-9.585-2.566-14.708-2.566
			c-28.813,0-52.152,24.879-52.152,55.75c0,21.941,12.698,43.073,30.38,53.519c-4.405,8.646-6.934,18.376-6.934,28.74
			c0,27.466,17.491,50.804,41.874,59.677c-24.383,8.856-41.874,32.172-41.874,59.665c0,35.098,28.432,63.545,63.543,63.545
			c1.354,0,2.687-0.121,4.032-0.206l0.027,21.929c0.073,54.31,35.803,100.212,85.009,115.677l-1.03,49.726
			c-47.302,8.48-96.483,39.133-116.289,80.671c-4.736-4.322-11.104-7.282-17.444-7.996l-7.83-0.843
			c-13.003-1.436-26.218,6.52-27.656,19.548l-47.982,436.92c-0.863,2.464-1.48,5.016-1.486,7.711l-0.432,340.837
			c-12.684,7.03-20.198,21.377-20.22,37.997l-0.061,34.19l-0.066,57.722c-0.022,7.532,1.948,13.622,9.478,13.634l0.294,0.01
			c7.491,0.027,13.634-2.258,13.648-9.791l0.072-53.926h2.684l-0.108,72.127c0,6.226,5.029,9.333,11.229,9.342l0.202-0.936
			c6.21-0.026,11.239-1.681,11.239-7.894l0.121-72.64h3.784l-0.103,77.398c-0.027,6.184,5.022,10.602,11.24,10.602h0.203
			c6.189,0,11.239-4.401,11.218-10.587l0.109-77.413h3.119l-0.156,66.827c0,7.51,3.438,11.728,13.633,11.756l0.283-0.966
			c7.542,0.018,13.666-6.546,13.646-14.057l0.114-70.85l-0.095,3.32l0.032-11.03h4.693l-0.033,16.773
			c0.021,6.361,5.176,9.83,11.536,9.838l0.263-0.043c6.378,0,11.55-6.403,11.567-12.8l0.021-24.32
			c0-7.974-3.152-15.742-8.806-21.446l-15.474-15.539c-4.46-4.47-10.01-7.502-15.994-9.076c-3.59-3.646-7.844-6.636-12.536-8.816
			l0.429-331.11l33.189-300.547c0.529,207.56-1.689,603.823-1.689,603.891c0,37.731,18.424,56.569,45.424,68.311v676.065V2582
			h397.462C917.462,2582,922.172,2534.296,882.367,2529.506z M576.639,2502.411l-1.642-686.879
			c20.521,1.591,38.609,4.572,56.658,4.572c23.038,0,38.345-1.287,60.345-4.548v662.817v45.182
			C624,2517.002,590.318,2514.696,576.639,2502.411z"/>
		<path fill="none" stroke="#5BA4C2" stroke-width="4" stroke-linecap="round" stroke-linejoin="round" stroke-miterlimit="10" d="
			M573,2504.386v-688.659c21,1.593,34.332,2.147,52.379,2.147c23.041,0,51.621-1.287,64.621-4.551v665.245v45.182
			C622,2517.194,587,2516.671,573,2504.386z"/>
	</g>
	<path fill="none" stroke="#5BA4C2" stroke-width="4" stroke-linecap="round" stroke-linejoin="round" stroke-miterlimit="10" d="
		M880.836,2529.604C797.453,2521.74,752,2517.453,745,2504.386V1794.89c28-14.359,43.176-36.792,43.176-70.98
		c0-7.165,2.725-359.525,2.839-569.629l31.72,275.943l1.062,334.227c-2.494,1.653-4.491,3.557-6.591,5.683
		c-5.984,1.575-11.376,4.58-15.83,9.045l-15.404,15.487c-5.654,5.702-8.774,13.362-8.746,21.337l0.034,24.1
		c0,8.731,4.519,14.557,10.905,14.557l0.243,0.009c6.359-0.009,12.223-1.926,12.223-8.285L800.608,1829h4.681l0.033,11.521
		l-0.093-3.126l0.127,69.036c-0.022,7.513,6.096,13.816,13.653,13.797l-0.067-0.057c7.551-0.019,13.953-4.763,13.953-12.264
		L832.763,1846h3.112l0.113,77.911c-0.032,6.188,5.017,11.089,11.207,11.089h0.221c6.199,0,11.243-4.918,11.221-11.103L858.528,1846
		h3.812l0.12,70.057c-0.027,6.214,5.002,9.943,11.24,9.943h0.202c6.191,0,11.2-3.095,11.2-9.318L885.008,1846h2.689l0.082,48.751
		c0.013,7.53,4.15,13.249,11.646,13.249h0.296c7.528,0,11.478-8.028,11.456-15.561l-0.06-58.091l-0.052-34.304
		c-0.026-18.964-9.776-35.046-25.884-40.59l-0.423-338.329c-0.006-2.693-0.624-5.261-1.484-7.723L835.29,979.144
		c-1.438-13.027-14.655-20.987-27.657-19.55l-7.829,0.841c-5.748,0.646-11.476,3.192-16.042,6.873
		c-19.069-37.7-63.148-65.883-106.555-76.361l-0.095-57.133c47.085-16.775,80.831-61.661,80.75-114.502l-0.027-21.581
		c1.467,0.1,2.933,0.224,4.422,0.224c35.085,0,63.541-28.449,63.541-63.545c0-27.496-17.492-50.818-41.898-59.673
		c24.406-8.875,41.898-32.223,41.898-59.691c0-10.371-2.541-20.138-6.943-28.789c17.674-10.453,30.365-31.643,30.365-53.582
		c0-30.871-23.354-55.887-52.173-55.887c-5.115,0-10.05,0.816-14.702,2.291c2.573-6.946,4.021-14.511,4.021-22.477
		c0-1.911-0.109,0.53-0.283-1.324C783.433,324.036,758.938,309,729.057,309c-14.003,0-27.278,0-27.278,0
		s-3.596-53.691-65.229-53.691c-56.825,0-65.221,53.691-65.221,53.691s-13.282,0-27.305,0c-29.861,0-54.371,15.036-57.027,46.277
		c-0.147,1.854-0.26,1.571-0.26,3.482c0,7.966,1.451,14.454,4.006,21.397c-4.654-1.475-9.586-2.829-14.711-2.829
		c-28.811,0-52.15,24.748-52.15,55.619c0,21.941,12.699,43.006,30.38,53.454c-4.405,8.646-6.933,18.341-6.933,28.707
		c0,27.468,17.491,50.785,41.873,59.66c-24.382,8.855-41.873,32.161-41.873,59.656c0,35.099,28.428,63.54,63.538,63.54
		c1.359,0,2.691-0.123,4.036-0.209l0.025,21.928c0.074,54.311,35.805,100.212,85.012,115.677l0.088,53.651
		c-47.3,8.477-97.602,37.882-117.407,79.418c-4.739-4.321-11.105-7.281-17.443-7.995l-7.831-0.843
		c-13.002-1.438-26.218,6.52-27.655,19.548l-47.986,434.247c-0.858,2.463-1.477,5.017-1.486,7.71l-0.43,340.838
		c-12.686,7.032-20.2,21.375-20.221,37.998l-0.06,34.188l-0.069,60.723c-0.019,7.531,3.951,13.623,11.479,13.632l0.297,0.011
		c7.488,0.026,11.634-5.143,11.647-12.673l0.072-49.811h2.684l-0.108,70.03c0,6.221,5.028,10.97,11.227,10.97h0.2
		c6.212,0,11.24-4.065,11.24-10.276l0.121-70.724h3.784l-0.101,77.897c-0.025,6.185,5.023,11.103,11.24,11.103h0.204
		c6.189,0,11.239-4.901,11.218-11.089l0.107-77.911h3.121l-0.156,65.169c0,7.504,5.104,10.831,12.634,10.831h0.282
		c7.542,0,14.666-4.519,14.646-12.033l0.113-75.169l-0.093,6.276l0.032-8.074h4.692l-0.032,13.658
		c0.021,6.359,5.176,8.271,11.535,8.28l0.261-0.044c6.38,0,11.551-7.571,11.571-13.968l0.02-24.513
		c0-7.975-3.152-15.841-8.808-21.544l-15.474-15.586c-4.457-4.47-10.01-7.529-15.993-9.1c-3.589-3.646-7.845-6.652-12.536-8.828
		l0.431-331.117l33.186-300.55c0.532,207.558-3.357,603.823-3.357,603.891c0,37.729,21.174,58.992,47.174,70.733v674.258V2582
		h181.915h45.464h170.916C916.295,2582,921.488,2533.443,880.836,2529.604z"/>
</g>
<g id="Cerebro">
	<g>
		<g>
			<g>
				<path fill="#FBBCA8" d="M754.463,446.314c0-7.757-3.856-14.585-9.725-18.773c0.424-1.754,0.715-3.562,0.715-5.448
					c0-11.822-8.913-21.453-20.369-22.819c-0.459-12.352-10.545-22.246-23.013-22.246c-2.993,0-5.834,0.613-8.46,1.65
					c-2.916-9.414-11.584-16.297-21.955-16.297c-5.629,0-10.719,2.094-14.728,5.441c-4.062-6.617-11.301-11.073-19.638-11.073
					c-7.809,0-14.692,3.904-18.87,9.844c-3.753-2.636-8.308-4.211-13.234-4.211c-10.726,0-19.649,7.338-22.252,17.239
					c-3.144-1.602-6.652-2.593-10.423-2.593c-12.759,0-23.088,10.341-23.088,23.097c0,0.248,0.063,0.478,0.068,0.725
					c-11.979,0.842-21.484,10.729-21.484,22.936c0,3.512,0.85,6.806,2.248,9.787c-4.792,4.233-7.883,10.353-7.883,17.25
					c0,12.757,10.348,23.097,23.105,23.097c0.227,0,0.447-0.061,0.674-0.068c3.492,8.312,11.707,14.15,21.287,14.15
					c7.257,0,13.659-3.415,17.889-8.649c4.236,5.234,10.627,8.649,17.883,8.649c7.263,0,13.653-3.416,17.889-8.652
					c4.235,5.236,10.626,8.652,17.883,8.652c7.256,0,13.652-3.415,17.888-8.646c4.229,5.231,10.633,8.646,17.882,8.646
					c7.264,0,13.654-3.415,17.883-8.648c4.235,5.233,10.633,8.648,17.89,8.648c11.276,0,20.631-8.087,22.658-18.77
					C745.074,468.287,754.463,458.448,754.463,446.314z"/>
			</g>
		</g>
		<path fill="#F9AD95" d="M744.738,427.542c0.424-1.754,0.715-3.562,0.715-5.448c0-11.822-8.913-21.453-20.369-22.819
			c-0.459-12.352-10.545-22.246-23.013-22.246c-2.993,0-5.834,0.613-8.46,1.65c-2.916-9.414-11.584-16.297-21.955-16.297
			c-5.629,0-10.719,2.094-14.728,5.441c-4.062-6.617-11.103-11.073-19.439-11.073c-0.458,0-1.161,0.058-1.161,0.084v130.809
			c0.865,0.14,1.801,0.357,2.853,0.357c7.257,0,13.554-3.415,17.789-8.646c4.229,5.231,10.583,8.646,17.833,8.646
			c7.262,0,13.628-3.415,17.857-8.648c4.235,5.233,10.62,8.648,17.877,8.648c11.276,0,20.625-8.087,22.652-18.77
			c11.893-0.943,21.277-10.782,21.277-22.916C754.467,438.557,750.606,431.729,744.738,427.542z"/>
		<g>
			<path fill="#D76A74" d="M644.82,405.856c0.314,1.609,1.726,2.718,3.306,2.718c0.228,0,0.442-0.019,0.669-0.067
				c1.829-0.365,3.016-2.145,2.649-3.975c-1.063-5.342-6.327-15.448-18.591-15.448c-7.681,0-12.608,3.968-15.49,8.247
				c-2.876-4.279-7.809-8.247-15.488-8.247c-12.266,0-17.523,10.106-18.592,15.448c-0.366,1.83,0.818,3.611,2.649,3.975
				c1.83,0.367,3.608-0.822,3.979-2.651c0.081-0.41,2.115-10.013,11.963-10.013c9.568,0,11.746,9.005,11.962,10.013
				c0.319,1.609,1.731,2.718,3.306,2.718c0.221,0,0.447-0.019,0.674-0.067c0.007-0.001,0.012-0.007,0.023-0.009
				c1.453-0.115,2.731-1.124,3.051-2.625c0.221-1.026,2.393-10.031,11.963-10.031C642.422,395.843,644.6,404.848,644.82,405.856z"/>
			<path fill="#D76A74" d="M676.118,420.427c-11.898,0-17.168,9.573-18.458,15.573c-0.006,0-0.012,0-0.022,0
				c-12.26,0-17.522,9.46-18.587,14.802c-0.365,1.83,0.82,3.289,2.65,3.652c1.835,0.376,3.607-0.981,3.974-2.81
				c0.087-0.407,2.12-10.094,11.963-10.094c9.567,0,11.753,8.966,11.962,9.974c0.325,1.609,1.737,2.697,3.312,2.697
				c0.221,0,0.447-0.028,0.668-0.077c1.83-0.363,3.015-2.149,2.649-3.979c-0.848-4.237-4.404-11.394-11.922-14.205
				c0.598-2.167,3.254-9.413,11.812-9.413c9.569,0,11.747,9.001,11.963,10.012c0.319,1.606,1.731,2.718,3.312,2.718
				c0.215,0,0.441-0.022,0.662-0.068c1.83-0.366,3.016-1.822,2.649-3.655C693.642,430.21,688.377,420.427,676.118,420.427z"/>
		</g>
	</g>
</g>
<g id="Estomago">
	<g>
		<g>
			<g>
				<g>
					<g>
						<g>
							<path fill="#7F6C50" d="M686.336,1254.773c-16.612,0-30.379-4.793-41.028-14.305c-19.284-17.228-19.838-42.701-19.838-45.547
								h29.435h-14.717l14.717-0.112c0.004,0.152,0.355,15.22,10.157,23.833c6.353,5.588,16.032,7.687,28.774,6.249l3.302,29.249
								C693.415,1254.561,689.811,1254.773,686.336,1254.773z"/>
						</g>
						<g>
							<rect x="625.47" y="1016.192" fill="#7F6C50" width="29.311" height="181.014"/>
						</g>
					</g>
					<path fill="#8E7D65" d="M678.946,1224.916c-12.742,1.438-22.422-0.646-28.774-6.234c-9.375-8.239-10.104-22.682-10.153-23.682
						H640v-179h-15l0.526,181c0.348,6.964,2.813,28.35,19.781,43.508c9.065,8.097,20.397,12.742,33.813,13.954
						c1.033-0.085,2.074-0.193,3.127-0.312L678.946,1224.916z"/>
				</g>
				<g>
					<path fill="#EE959B" d="M654.604,1016.188c0,5.142-6.547,9.306-14.629,9.306c-8.076,0-14.624-4.164-14.624-9.306
						c0-5.142,6.548-9.307,14.624-9.307C648.057,1006.881,654.604,1011.045,654.604,1016.188z"/>
					<ellipse fill="#CC656F" cx="639.975" cy="1016.188" rx="7.512" ry="4.452"/>
				</g>
			</g>
		</g>
		<g>
			<g>
				<g>
					<path fill="#8E7D65" d="M623.686,1404.019c-16.093,0-40.029-12.74-40.029-47.837c0-16.45,6.752-26.16,12.411-31.41
						c11.334-10.515,26.025-10.717,29.946-10.569h45.506v32.219h-45.885c-0.614-0.004-0.611,0.02-1.215-0.047
						c-1.113-0.054-4.769,0.398-6.503,2.074c-1.779,1.714-2.042,5.578-2.042,7.733c0,9.642,2.777,15.027,8.035,15.606l90.508,0.048
						l1.006,32.196l-91.235-0.021C624.018,1404.015,623.852,1404.019,623.686,1404.019z"/>
				</g>
			</g>
			<path fill="#7F6C50" d="M610.451,1336.322c-4.164,3.535-9.131,10.177-9.131,21.254c0,23.634,17.611,32.265,29.451,32.265
				c0.122,0,0.245,0.022,0.371,0.02l82.982,0.354l-0.628-18.357l-89.587-0.073c-5.258-0.58-8.035-5.963-8.035-15.605
				c0-2.155,0.263-6.019,2.042-7.733c1.734-1.676,5.39-2.338,6.503-2.284c0.604,0.066,0.601-0.163,1.215-0.163H666v-17h-33.514
				C629.601,1329,618.791,1329.241,610.451,1336.322z"/>
			<g>
				<path fill="#EE959B" d="M714.508,1371.508c5.706,0,10.333,7.27,10.333,16.241c0,8.967-4.627,16.237-10.333,16.237
					s-10.334-7.27-10.334-16.237C704.174,1378.777,708.802,1371.508,714.508,1371.508z"/>
			</g>
			<path fill="#CC656F" d="M714.508,1379.407c2.731,0,4.944,3.734,4.944,8.341c0,4.603-2.213,8.338-4.944,8.338
				c-2.73,0-4.944-3.735-4.944-8.338C709.563,1383.141,711.777,1379.407,714.508,1379.407z"/>
		</g>
		<g>
			<g>
				<path fill="#7F6C50" d="M669,1367.13c-28.018,0-50.727-22.713-50.727-50.727c0-25.723,19.141-46.974,43.964-50.283v-18.202
					c0-28.017,22.711-50.726,50.727-50.726c28.019,0,50.728,22.709,50.728,50.726v24.52c0,1.942-0.111,3.885-0.332,5.815
					C758.264,1322.42,724.215,1367.13,669,1367.13z"/>
			</g>
			<path fill="#8E7D65" d="M662,1247.919v18.202c-25,3.309-43.846,24.56-43.846,50.283c0,10.319,3.148,19.913,8.442,27.923
				c54.903-0.285,88.374-44.846,93.452-88.87c0.221-1.931-0.049-3.873-0.049-5.816v-24.52c0-10.316-2.795-19.907-8.084-27.916
				C684.141,1197.487,662,1220.077,662,1247.919z"/>
		</g>
	</g>
</g>
<g id="Intestinos">
	<g>
		<g>
			<g>
				<g>
					<g>
						<g>
							<path fill="#CEAD8D" d="M551.952,1643.043c-9.413-0.627-17.922-3.682-18.531-14.16c-0.033-0.52-0.301-5.425-0.392-16.748
								c-0.082-10.884,8.672-19.779,19.557-19.862c0.055,0,0.108,0,0.159,0c10.813,0,19.621,8.72,19.706,19.557
								c0.08,10.313,0.327,14.749,0.323,14.791C572.036,1643.671,552.332,1643.043,551.952,1643.043z"/>
							<path fill="#CEAD8D" d="M561.873,1601.879c-5.234,0-10.455-2.072-14.335-6.179c-7.473-7.918-7.118-20.389,0.796-27.865
								c14.354-13.555,33.541-15.491,35.679-15.662c0.477-0.039,0.954-0.065,1.431-0.068l5.991-0.058
								c6.72,0.061,12.626,3.214,16.237,8.266c3.514-5.124,9.395-8.506,16.078-8.57l32.312-0.302c0.061,0,0.126,0,0.19,0
								c6.433,0,12.156,3.088,15.76,7.875c2.782-4.289,7.225-7.495,12.64-8.584c5.529-1.111,8.964-3.296,10.219-6.487
								c1.145-2.915,2.905-5.407,5.078-7.38c-2.27-1.476-4.268-3.446-5.823-5.865c-2.446-3.81-9.025-5.136-12.163-5.301
								c-6.247-0.333-11.654-3.539-15.021-8.269c-3.514,5.118-9.387,8.495-16.067,8.559l-32.312,0.306c-0.065,0-0.126,0-0.189,0
								c-6.609,0-12.469-3.26-16.047-8.269c-3.504,5.109-9.363,8.487-16.028,8.566l-0.435,0.003
								c-0.617,0.019-1.223-0.01-1.829-0.061c-2.753-0.222-27.337-2.747-41.806-22.304c-5.867-7.932-4.901-18.814,1.847-25.601
								c-7.921-4.698-11.697-14.478-8.523-23.496c5.666-16.096,19.471-27.864,37.876-32.282c7.893-1.887,15.817,1.251,20.389,7.369
								c3.529-5.346,9.585-8.871,16.466-8.871h32.315c6.685,0,12.586,3.327,16.154,8.416c3.564-5.089,9.47-8.416,16.157-8.416h7.501
								c1.812-0.17,6.631-1.101,9.484-3.69c8.062-7.312,20.529-6.709,27.841,1.355c7.317,8.062,6.713,20.529-1.353,27.843
								c-14.281,12.957-32.745,13.846-34.8,13.906c-0.193,0.003-0.377,0.008-0.566,0.008h-8.107c-6.688,0-12.593-3.328-16.157-8.416
								c-3.568,5.088-9.47,8.416-16.154,8.416h-32.315c-6.461,0-12.198-3.112-15.791-7.918c-2.658,4.042-6.796,7.115-11.865,8.334
								c-5.372,1.287-8.695,3.656-9.887,7.035c-1.004,2.85-2.596,5.324-4.593,7.336c2.19,1.302,4.163,3.048,5.77,5.225
								c3.084,4.163,10.051,5.967,12.974,6.404c6.268,0.258,11.797,3.449,15.225,8.251c3.518-5.121,9.395-8.502,16.079-8.566
								l32.312-0.306c0.061,0,0.125,0,0.186,0c6.623,0,12.49,3.271,16.068,8.294c3.758-5.468,10.224-8.925,17.298-8.526
								c6.859,0.361,30.235,3.127,43.237,23.358c5.278,8.215,3.687,18.871-3.31,25.225c7.681,4.992,11.062,14.848,7.591,23.713
								c-6.271,16.012-20.177,26.934-39.149,30.748c-7.691,1.551-15.232-1.606-19.653-7.483c-3.479,5.347-9.484,8.904-16.341,8.969
								l-32.312,0.302c-6.637,0.149-12.621-3.21-16.232-8.267c-3.518,5.125-9.395,8.507-16.079,8.57l-4.98,0.047
								c-2.184,0.335-8.007,1.757-11.425,4.98C571.592,1600.094,566.729,1601.879,561.873,1601.879z"/>
							<path fill="#CEAD8D" d="M714.581,1422.146c-10.886,0-19.711-8.825-19.711-19.711v-15.771c0-10.887,8.825-19.71,19.711-19.71
								c10.887,0,19.711,8.823,19.711,19.71v15.771C734.292,1413.32,725.468,1422.146,714.581,1422.146z"/>
						</g>
					</g>
				</g>
			</g>
		</g>
		<path fill="#E3BE9A" d="M676.345,1575.353c18.973-3.814,32.878-14.736,39.149-30.748c3.472-8.864,0.09-18.721-7.591-23.713
			c6.996-6.354,8.588-17.01,3.31-25.224c-0.475-0.739-0.967-1.447-1.467-2.139c-10.639-5.799-21.398-6.967-25.69-7.194
			c-7.074-0.399-13.54,3.275-17.298,8.743c-3.578-5.023-9.445-8.077-16.068-8.077h-0.186l-32.312,0.088
			c-6.685,0.065-12.562,3.337-16.079,8.458c-3.428-4.802-8.957-8.048-15.225-8.305c-2.923-0.438-9.89-2.269-12.974-6.431
			c-1.606-2.177-3.579-3.936-5.77-5.239c0.744-0.75,1.409-1.584,2.031-2.458c-3.196-0.584-9.462-2.439-12.342-6.327
			c-1.606-2.177-3.579-3.937-5.77-5.239c1.997-2.012,3.589-4.493,4.593-7.343c1.191-3.379,4.515-5.752,9.887-7.039
			c5.069-1.218,9.207-4.166,11.865-8.208c3.593,4.805,9.33,8.043,15.791,8.043h32.315c6.685,0,12.586-3.328,16.154-8.416
			c3.564,5.088,9.47,8.416,16.157,8.416h8.107c0.189,0,0.373-0.131,0.566-0.134c2.055-0.061,20.519-1.012,34.8-13.969
			c7.444-6.752,8.411-17.918,2.78-25.932c7.59-2.741,12.918-10.02,12.918-18.555v-15.771c0-1.901-0.277-3.734-0.769-5.473
			c-0.894-0.124-1.801-0.211-2.731-0.211c-10.886,0-19.5,8.823-19.5,19.71v15.771c0,4.203,1.262,8.091,3.504,11.29
			c-2.352,0.848-4.613,1.978-6.578,3.76c-2.854,2.589-7.705,3.516-9.517,3.516h-7.501c-6.688,0-12.593,3.328-16.157,8.416
			c-3.568-5.089-9.47-8.416-16.154-8.416h-32.315c-6.881,0-12.937,3.699-16.466,9.046c-4.571-6.118-12.496-9.168-20.389-7.282
			c-18.405,4.418-32.21,16.23-37.876,32.326c-3.174,9.019,0.603,18.82,8.523,23.518c-6.748,6.787-7.714,17.68-1.847,25.611
			c0.031,0.042,0.063,0.081,0.095,0.122c11.94,6.8,23.771,8.012,25.631,8.162c0.606,0.051,1.212,0.082,1.829,0.063l0.435-0.001
			c6.665-0.079,12.524-3.59,16.028-8.7c3.578,5.009,9.438,8.135,16.047,8.135h0.189l32.312-0.171
			c6.681-0.064,12.554-3.374,16.067-8.492c3.367,4.729,8.774,7.969,15.021,8.303c3.138,0.165,9.717,1.508,12.163,5.317
			c1.556,2.42,3.554,4.398,5.823,5.874c-0.919,0.834-1.759,1.767-2.515,2.781c0.203,0.017,0.404,0.039,0.608,0.05
			c3.138,0.165,9.717,1.51,12.163,5.319c1.556,2.419,3.554,4.399,5.823,5.875c-2.173,1.972-3.934,4.469-5.078,7.384
			c-1.255,3.191-4.689,5.378-10.219,6.49c-5.415,1.089-9.857,4.076-12.64,8.365c-3.604-4.788-9.327-8.094-15.76-8.094h-0.19
			l-32.312,0.522c-6.684,0.064-12.564,3.556-16.078,8.68c-3.611-5.052-9.518-8.15-16.237-8.211l-5.991,0.085
			c-0.477,0.003-0.954,0.043-1.431,0.082c-2.138,0.171-21.325,2.115-35.679,15.669c-7.233,6.833-8.13,17.832-2.529,25.72
			c-7.512,2.829-12.84,10.092-12.775,18.585c0.087,10.856,0.336,15.802,0.386,16.65c0.811,0.097,1.628,0.179,2.457,0.234
			c0.38,0,20.084,0.628,20.822-16.422c0.004-0.042-0.243-4.478-0.323-14.791c-0.033-4.187-1.378-8.049-3.627-11.223
			c2.374-0.895,4.617-2.258,6.578-4.11c3.418-3.224,9.241-4.646,11.425-4.98l4.98-0.047c6.685-0.063,12.562-3.445,16.079-8.57
			c3.611,5.056,9.596,8.416,16.232,8.266l32.312-0.302c6.856-0.064,12.862-3.622,16.341-8.969
			C661.112,1573.746,668.653,1576.903,676.345,1575.353z"/>
	</g>
</g>
<g id="Pulmon">
	<g>
		<g>
			<g>
				<g>
					<g>
						<rect x="625.346" y="915.298" fill="#485766" width="29.311" height="128.256"/>
						<g>
							
								<rect x="610.692" y="1024.831" transform="matrix(0.7853 0.6191 -0.6191 0.7853 783.6564 -158.8364)" fill="#485766" width="20.351" height="51.537"/>
							
								<rect x="648.958" y="1024.83" transform="matrix(-0.7854 0.619 -0.619 -0.7854 1827.1163 1467.7765)" fill="#485766" width="20.354" height="51.54"/>
						</g>
					</g>
					<g>
						<g>
							<g>
								<path fill="#5BA4C2" d="M597.023,963.769c10.586,0,18.82,7.324,19.637,20.351c2.082,33.318,0,72.462,0,108.664
									c-2.99,27.628-59.912,42.128-82.525,62.403C488.026,1196.517,512.35,988.192,597.023,963.769z"/>
							</g>
							<g>
								<g>
									<path fill="#5BA4C2" d="M683.344,962.879c-10.579-0.024-18.836,7.284-19.678,20.311
										c-2.154,33.311-0.16,72.459-0.24,108.664c2.923,27.632,59.812,42.26,82.381,62.583
										C791.819,1195.876,767.965,987.491,683.344,962.879z"/>
								</g>
							</g>
						</g>
					</g>
				</g>
			</g>
			<polygon fill="#63707D" points="639.686,1043.554 625.346,1028.554 625.346,915.298 639.686,915.298 			"/>
			<path fill="#3C93B7" d="M616.702,1083.875c0.012-1.477,0.023-2.953,0.04-4.436c0.01-0.875,0.022-1.754,0.034-2.631
				c0.018-1.389,0.035-2.778,0.056-4.172c0.014-0.873,0.027-1.749,0.042-2.624c0.023-1.444,0.046-2.888,0.071-4.335
				c0.013-0.743,0.026-1.487,0.04-2.231c0.087-4.853,0.179-9.714,0.267-14.568c0.014-0.782,0.027-1.564,0.041-2.346
				c0.025-1.413,0.049-2.824,0.071-4.236c0.015-0.901,0.028-1.802,0.042-2.702c0.02-1.323,0.038-2.643,0.056-3.962
				c0.013-0.949,0.023-1.897,0.034-2.844c0.016-1.272,0.028-2.543,0.039-3.811c0.01-0.971,0.016-1.938,0.021-2.906
				c0.009-1.246,0.016-2.491,0.02-3.731c0.004-0.973,0.004-1.942,0.004-2.911c0-1.222,0-2.445-0.004-3.66
				c-0.004-0.982-0.012-1.956-0.02-2.933c-0.009-1.193-0.017-2.387-0.031-3.572c-0.012-0.985-0.03-1.961-0.046-2.94
				c-0.02-1.166-0.036-2.334-0.062-3.49c-0.021-0.989-0.053-1.966-0.079-2.948c-0.03-1.13-0.058-2.266-0.096-3.386
				c-0.035-1.044-0.078-2.073-0.12-3.109c-0.042-1.04-0.123-2.088-0.123-3.119c0-0.002,0-0.005,0-0.007
				c-47,19.742-46.298,92.586-46.017,142.731c21.941-11.379,43.853-23.35,45.679-40.212c0-2.202,0.007-4.415,0.021-6.636
				C616.688,1085.392,616.695,1084.632,616.702,1083.875z"/>
			<path fill="#3C93B7" d="M714.766,1135.162c0.199-52.78-1.87-122.675-51.526-143.978c-1.418,31.482,0.261,67.319,0.187,100.67
				C665.366,1110.197,691.089,1122.81,714.766,1135.162z"/>
		</g>
		<g>
			<path fill="#EE959B" d="M654.604,915.307c0,5.141-6.547,9.306-14.629,9.306c-8.076,0-14.624-4.165-14.624-9.306
				c0-5.142,6.548-9.307,14.624-9.307C648.057,906,654.604,910.165,654.604,915.307z"/>
			<ellipse fill="#CC656F" cx="639.975" cy="915.307" rx="7.512" ry="4.452"/>
		</g>
	</g>
</g>
<g id="Corazon">
	<g>
		<g>
			<g>
				<path fill="#485766" d="M649.279,1224.599h24.641c0,0,0-167.446,0-167.461h-24.641
					C648.86,1076.96,649.279,1224.599,649.279,1224.599z"/>
			</g>
			<path fill="#485766" d="M673.943,1224.601c0,4.345-5.541,7.869-12.371,7.869c-6.834,0-12.373-3.524-12.373-7.869
				c0-4.349,5.539-7.874,12.373-7.874C668.402,1216.727,673.943,1220.252,673.943,1224.601z"/>
			<path fill="#63707D" d="M663,1057h-13.721c-0.396,19-0.044,151.448-0.004,166.179c-0.048,0.282-0.076,0.602-0.076,0.891
				c0,4.345,5.539,8.087,12.373,8.087c0.484,0,0.959-0.022,1.428-0.056V1057z"/>
			<g>
				<path fill="#EE959B" d="M673.943,1058.011c0,4.345-5.541,7.869-12.371,7.869c-6.834,0-12.373-3.524-12.373-7.869
					c0-4.349,5.539-7.874,12.373-7.874C668.402,1050.137,673.943,1053.662,673.943,1058.011z"/>
				<path fill="#CC656F" d="M667.924,1058.011c0,2.076-2.846,3.764-6.352,3.764c-3.511,0-6.354-1.688-6.354-3.764
					c0-2.082,2.843-3.769,6.354-3.769C665.078,1054.242,667.924,1055.929,667.924,1058.011z"/>
			</g>
		</g>
		<g>
			<g>
				<path fill="#485766" d="M680.625,1224.599h24.641c0,0,0-79.955,0-79.97h-24.641
					C680.206,1164.451,680.625,1224.599,680.625,1224.599z"/>
			</g>
			<path fill="#485766" d="M705.289,1224.601c0,4.345-5.541,7.869-12.371,7.869c-6.834,0-12.373-3.524-12.373-7.869
				c0-4.349,5.539-7.874,12.373-7.874C699.748,1216.727,705.289,1220.252,705.289,1224.601z"/>
			<path fill="#4D5C6B" d="M694.346,1144.491h-13.721c-0.396,19-0.044,63.957-0.004,78.688c-0.048,0.282-0.076,0.602-0.076,0.891
				c0,4.345,5.539,8.087,12.373,8.087c0.484,0,0.959-0.022,1.428-0.056V1144.491z"/>
		</g>
		<g>
			<g>
				<g>
					<g>
						<path fill="#E28E94" d="M661.674,1156.019h-7.486c-5.115,0-8.189-2.331-9.863-4.275c-3.945-4.601-3.566-10.979-3.317-13.094
							c0.052-2.814,0.374-21.985,0-33.96c-0.079-2.546-0.648-4.49-1.562-5.323c-0.668-0.614-1.594-0.667-1.891-0.667l-0.477,0.09
							l-0.197-0.062h-8.654v-12.359h8.425c1.668-0.111,6.56-0.052,10.774,3.549c3.739,3.208,5.745,8.046,5.937,14.387
							c0.414,13.195,0.018,34.051,0,34.934l-0.006,0.419l-0.064,0.398c-0.164,1.203,0.025,2.967,0.365,3.551
							c0.09,0.02,0.266,0.048,0.531,0.048h7.486V1156.019L661.674,1156.019z"/>
						<path fill="#E28E94" d="M637.077,1120.43l0.477-0.094c0.297,0.003,1.223,0.057,1.891,0.662
							c0.914,0.841,1.483,2.778,1.562,5.334c0.052,1.67,0.089,3.485,0.113,5.368h12.371c-0.033-2.019-0.073-3.955-0.13-5.752
							c-0.191-6.347-2.197-11.185-5.937-14.396c-4.215-3.599-9.106-3.652-10.774-3.55h-8.425v12.363h8.654L637.077,1120.43z"/>
					</g>
				</g>
			</g>
		</g>
		<g>
			<g>
				<path fill="#DC757C" d="M721.282,1096.041l7.888-15.308l-10.998-5.658l-6.866,13.339c-1.205-0.603-2.45-1.135-3.73-1.588
					l1.653-15.288l-12.292-1.322l-1.585,14.642c-1.145,0.021-2.303,0.083-3.478,0.202c-0.743,0.073-1.473,0.17-2.194,0.277
					l-2.363-14.483l-12.195,1.987l2.621,16.114c-14.69,7.117-20.424,21.708-21.357,30.045l18.424,2.075
					c0-0.042,0.584-4.04,3.087-8.162c3.408-5.589,8.595-8.668,15.851-9.399c15.572-1.579,19.275,13.606,19.684,15.492l17.416-4.357
					c-0.184-0.881-0.725-6.472-6.104-14.265C723.66,1098.824,722.512,1097.377,721.282,1096.041z"/>
				<path fill="#E28E94" d="M718.172,1075.075l-6.866,13.339c-1.205-0.603-2.45-1.135-3.73-1.588l1.653-15.288l-12.292-1.322
					l-1.585,14.642c-1.145,0.021-2.303,0.083-3.478,0.202c-0.743,0.073-1.473,0.17-2.194,0.277l-2.363-14.483l-12.195,1.987
					l2.621,16.114c-14.69,7.117-20.424,21.708-21.357,30.045l6.635,0.747l3.053-1.18c0,0,5.414-25.279,27.524-25.279
					S718.563,1109,718.563,1109h10.781c-0.88-2.335-2.294-5.27-4.603-8.615c-1.082-1.56-2.23-3.007-3.46-4.343l7.888-15.308
					L718.172,1075.075z"/>
			</g>
			<g>
				<path fill="#485766" d="M748.562,1108.801l8.096-8.091l-7.361-7.366l-6.793,6.8c0,0-41.004,0.281-48.167,0.281
					c-9.161,0-14.062,1.528-14.098,10.129c-0.003,1.549-0.119,4.459-0.147,8.317h63.83l5.752,5.762l7.361-7.357L748.562,1108.801z"
					/>
				<path fill="#63707D" d="M749.297,1093.343l-6.793,6.8c0,0-41.004,0.281-48.167,0.281c-8.579,0-13.421,1.342-14.031,8.576h68.456
					l-0.199-0.199l8.096-8.091L749.297,1093.343z"/>
			</g>
		</g>
		<g>
			<path fill="#CC656F" d="M756.217,1161.794c0.584,22.409,0.453,30.569,0.314,39.149c-0.065,4.014-6.719,6.183-6.719,6.183
				s-23.545-0.909-46.721-0.909c-23.174,0-47.318-15.044-47.318-51.184c0-20.281,0.47-36.313,0.47-36.313l56.509-0.387
				C712.752,1118.333,755.248,1125.094,756.217,1161.794z"/>
			<path fill="#DC757C" d="M719.15,1162.263c-0.969-36.701-43.465-43.461-43.465-43.461l-19.448,0.133
				c-0.055,1.946-0.464,17.169-0.464,36.098c0,36.14,24.145,51.184,47.318,51.184c5.588,0,11.195,0.053,16.49,0.133
				C719.573,1191.688,719.467,1174.403,719.15,1162.263z"/>
		</g>
	</g>
</g>
</svg>
