<?xml version="1.0" encoding="utf-8"?>
<!-- Generator: Adobe Illustrator 16.0.0, SVG Export Plug-In . SVG Version: 6.00 Build 0)  -->
<!DOCTYPE svg PUBLIC "-//W3C//DTD SVG 1.1//EN" "http://www.w3.org/Graphics/SVG/1.1/DTD/svg11.dtd">
<svg version="1.1" id="Wave" xmlns="http://www.w3.org/2000/svg" xmlns:xlink="http://www.w3.org/1999/xlink" x="0px" y="0px"
	 width="1280px" height="700px" viewBox="0 0 1280 700" style="enable-background:new 0 0 1280 700;" xml:space="preserve">
<g>
	<defs>
		<path id="SVGID_1_" d="M623,516V405.4l0-0.1c-5-1.8-7.3-5.1-7.3-10c0,0-0.2-87.7-0.2-87.7l-0.6,0l-4.8,43.7l-0.1,48.3l0.2,0.1
			c0.7,0.3,1.2,0.7,1.7,1.2l0.1,0.1l0.1,0c0.8,0.2,1.6,0.7,2.2,1.2l2.2,2.3c0.8,0.8,1.2,1.8,1.2,2.9l0,2.9c0,0.8-0.6,0.8-1.4,0.8
			h-0.2l0,0.7c-0.7-0.1-1.2-0.8-1.2-1.4l0-3.2h-1.3l0,2h0l0,10.6c0,0.5-0.2,0.7-0.5,1c-0.3,0.3-0.7,0.3-1.2,0.3h-0.1l0,0.5
			c-0.9-0.1-1.6-1-1.6-1.8l0-10.6h-1.1l0,12.1c0,0.4-0.1,0.9-0.4,1.2c-0.3,0.3-0.6,0.5-0.9,0.5c-0.4,0-0.7-0.1-1-0.3
			c-0.3-0.3-0.4-1-0.4-1.4l0-12.1h-1.2l0,11c0,0.7-0.5,1-1.3,1h-0.1l0,0.7c-0.7-0.1-1.2-0.7-1.2-1.4l0-11.3h-1l0,9
			c0,0.9-0.7,1.8-1.7,1.8c-0.4,0-0.6,0-0.8-0.1c-0.3-0.3-0.4-0.7-0.4-1.4l0-13.3c0-2.3,1-4.3,2.8-5.2l0.2-0.1l0.1-49.7
			c0-0.3,0.1-0.6,0.2-1l7-63.1c0.2-1.7,1.8-2.6,3.3-2.6c0.1,0,0.3,0,0.4,0l1.1,0.1c0.9,0.1,1.7,0.5,2.4,1.1l0.3,0.3l0.2-0.4
			c3-6.3,10.6-10.3,16.8-11.4l0.2,0l0-8.3l-0.2-0.1c-7.3-2.3-12.1-8.9-12.1-16.5l0-3.5l-0.3,0c-0.2,0-0.4,0-0.6,0
			c-4.9,0-8.9-4-8.9-8.9c0-3.7,2.4-7.1,5.9-8.4l0.8-0.3l-0.8-0.3c-3.5-1.3-5.9-4.7-5.9-8.4c0-1.4,0.3-2.8,1-4l0.1-0.3l-0.2-0.1
			c-2.6-1.5-4.3-4.5-4.3-7.5c0-4.3,3.3-7.8,7.3-7.8c0.7,0,1.4,0.1,2,0.3l0.6,0.2l-0.2-0.6c-0.4-1-0.6-2.1-0.6-3.1c0-0.3,0-1.3,0-1.5
			c0.4-4.2,3.6-7.8,8-7.8h4.2l0,0.5c0-0.3,1.3-7.2,9.2-7.2c8.6,0,9.2,6.6,9.2,6.9l0-0.3h4.2c4.4,0,7.6,3.6,8,7.8c0,0.3,0,0.8,0,1.1
			c0,1.1-0.2,2.3-0.6,3.4l-0.2,0.7l0.6-0.1c0.7-0.2,1.4-0.3,2-0.3c4,0,7.3,3.5,7.3,7.8c0,3-1.7,6-4.3,7.5L665,214l0.1,0.3
			c0.6,1.3,1,2.6,1,4c0,3.7-2.4,7.1-5.9,8.4l-0.8,0.3l0.8,0.3c3.5,1.3,5.9,4.6,5.9,8.4c0,4.9-4,8.9-8.9,8.9c-0.2,0-0.4,0-0.5,0
			l-0.3,0l-0.1,0.3l0,3.1c0,0.5,0,1-0.1,1.6c0,0.1,0,0.2,0,0.3l0,0.2c0,0.4-0.1,0.7-0.2,1.1c0,0.2-0.1,0.4-0.1,0.6
			c-0.1,0.3-0.2,0.6-0.2,0.9l-0.1,0.2c0,0.1-0.1,0.3-0.1,0.4c-0.1,0.3-0.2,0.6-0.3,0.9c-0.2,0.5-0.4,0.9-0.6,1.4l-0.1,0.3
			c-0.2,0.4-0.4,0.7-0.6,1.1l0,0v0c-2.1,3.4-5.3,6.1-9,7.4l-0.2,0.1l0,8.6l0.2,0.1c6.8,1.5,12.9,5.7,15.6,10.9l0.2,0.3l0.3-0.2
			c0.6-0.4,1.3-0.7,1.9-0.7l1.1-0.1c0.1,0,0.3,0,0.4,0c1.5,0,3.1,0.9,3.3,2.6l7,63.1c0.1,0.5,0.2,0.8,0.2,1.1l0.1,49.4l0.2,0.1
			c2.2,0.7,3.6,2.9,3.6,5.6l0,13.4c0,0.7-0.1,0.7-0.4,0.9c-0.2,0.2-0.4-0.3-0.7-0.3h-0.1l0,0.6c-0.9-0.1-1.6-1-1.6-1.8l0-8.7h-1
			l0,11c0,0.7-0.5,1-1.3,1h-0.2l0,0.7c-0.7-0.1-1.2-0.7-1.2-1.4l0-11.3h-1.2l0,12.1c0,0.4-0.1,0.9-0.4,1.2c-0.3,0.3-0.6,0.5-0.9,0.5
			c-0.4,0-0.7-0.1-1-0.3c-0.3-0.3-0.4-1-0.4-1.4l0-12.1h-1.1l0,10.4c0,0.9-0.7,1.6-1.7,1.6h0l-0.1,0.5c-0.4,0-0.8,0-1.1-0.3
			c-0.3-0.3-0.5-0.6-0.5-1l0-10.1l0-0.4l0-2.6h-1.3l0,3.5c0,0.8-0.7,1.4-1.4,1.4c-0.8,0-1.4-0.5-1.4-1.3l0-3.4
			c0-1.1,0.4-2.1,1.2-2.9l2.2-2.2c0.6-0.6,1.3-1,2.2-1.2l0.1,0l0.1-0.1c0.3-0.3,0.6-0.6,1-0.8l0.1-0.1l-0.1-48.7l-4-36l-0.6,0
			c0.1,18.9,0.2,43.7,0.3,60.4c0.1,10.6,0.1,17.8,0.1,18.2c0,4.9-1.9,8.3-6.1,10.5l-0.1,0.1v102.8l-0.1,0.1c0.9,1.6,4.3,1.9,12,2.5
			c2.1,0.2,4.4,0.4,7.1,0.6c1.5,0.1,2.7,0.3,3.4,1.2c1.2,1.6,0.9,3.2,0.8,4.2H623z M631,507.4L631,507.4c1.7,1.7,4.9,2,12.3,2.6
			c1.2,0.1,2.2,0.2,3.6,0.3l0.1,0v-2.6c1,0,0.7,0,0.7,0l0,0l0.3,0.1V406.7l-0.3,0c-2.2,0.3-4.7,0.5-7.7,0.5v0l-0.1,0
			c-0.5,0-0.8,0-1.3,0c-2.9,0-5.2-0.1-7.4-0.3l-0.2,0V507.4z"/>
	</defs>
	<clipPath id="SVGID_2_">
		<use xlink:href="#SVGID_1_"  style="overflow:visible;"/>
	</clipPath>
	<path style="clip-path:url(#SVGID_2_);fill:#76B3CC;" d="M17.3,576.5h677.5h602.2V361.2v-0.3v-5.3v-14.5v-0.3
		c-13.7,0-25.7-6.8-37.3-13.4c-11.8-6.7-24-13.7-38.2-13.7c-14.1,0-26,6.9-37.6,13.6c-11.5,6.7-23.4,13.5-37.5,13.5
		c-14.1,0-26-6.9-37.5-13.5c-11.6-6.7-23.7-13.6-38-13.6c-14.3,0-26.2,6.9-37.7,13.6c-11.5,6.7-23.4,13.5-37.6,13.5
		c-14.2,0-26.1-6.9-37.6-13.5c-11.5-6.7-23.4-13.6-37.7-13.6c-14.3,0-26.5,6.9-38.2,13.7c-11.5,6.6-23.5,13.4-37.3,13.4
		c-14,0-26.1-6.9-37.7-13.6c-11.6-6.6-23.7-13.5-37.5-13.5c-13.8,0-25.8,6.9-37.4,13.5c-11.6,6.7-23.6,13.6-37.6,13.6
		c-13.7,0-25.7-6.8-37.3-13.4c-11.8-6.7-24-13.7-38.2-13.7c-14.1,0-26,6.9-37.6,13.6c-11.5,6.7-23.4,13.5-37.5,13.5
		c-14.1,0-26-6.9-37.5-13.5c-11.6-6.7-23.7-13.6-38-13.6c-14.3,0-26.2,6.9-37.7,13.6c-11.5,6.7-23.4,13.5-37.6,13.5
		c-14.2,0-26.1-6.9-37.6-13.5c-11.5-6.7-23.4-13.6-37.7-13.6c-14.3,0-26.5,6.9-38.2,13.7c-11.5,6.6-23.5,13.4-37.3,13.4
		c-14,0-26.1-6.9-37.7-13.6c-11.6-6.6-23.7-13.5-37.5-13.5c-13.8,0-25.8,6.9-37.4,13.5c-11.6,6.7-23.6,13.6-37.6,13.6
		c-13.7,0-25.7-6.8-37.3-13.4c-11.8-6.7-24-13.7-38.2-13.7"/>
</g>
</svg>
