<?xml version="1.0" encoding="utf-8"?>
<!-- Generator: Adobe Illustrator 16.0.0, SVG Export Plug-In . SVG Version: 6.00 Build 0)  -->
<!DOCTYPE svg PUBLIC "-//W3C//DTD SVG 1.1//EN" "http://www.w3.org/Graphics/SVG/1.1/DTD/svg11.dtd">
<svg version="1.1" xmlns="http://www.w3.org/2000/svg" xmlns:xlink="http://www.w3.org/1999/xlink" x="0px" y="0px" width="1280px"
	 height="700px" viewBox="0 0 1280 700" enable-background="new 0 0 1280 700" xml:space="preserve">
<g id="Planilla">
	<g>
		<g>
			<g>
				<path fill="#7F6C50" d="M535.276,169.536c-3.468,0-6.305,2.837-6.305,6.305v308.195c0,3.468,2.837,6.305,6.305,6.305H743.37
					c3.468,0,6.305-2.837,6.305-6.305V175.841c0-3.468-2.837-6.305-6.305-6.305H535.276z"/>
			</g>
		</g>
	</g>
	<path fill="#897558" d="M639.077,169.831h-103.8c-3.468,0-6.537,2.542-6.537,6.01v308.195c0,3.468,3.069,6.087,6.537,6.087h103.8
		V169.831z"/>
</g>
<g id="Clip_detras_Hoja">
	<g>
		<rect x="640" y="182" fill="#98949D" width="43" height="29"/>
		<rect x="593" y="182" fill="#BEBCC1" width="47" height="29"/>
	</g>
	
		<line fill="none" stroke="#B2AFB6" stroke-width="5" stroke-linecap="round" stroke-linejoin="round" stroke-miterlimit="10" x1="730" y1="198.5" x2="547" y2="198.5"/>
</g>
<g id="Hoja">
	<path fill="#E2D4D5" d="M682.513,203.323c0,2.394-1.939,4.334-4.332,4.334h-80.882c-2.393,0-4.332-1.94-4.332-4.334v-14.712h-49.75
		v287.279h192.213V188.611h-52.916V203.323z"/>
	<path fill="#F5E5E5" d="M639,208h-41.701c-2.393,0-4.299-2.283-4.299-4.677V189h-50v287h96V208z"/>
</g>
<g id="Linea_Final">
	<g>
		<rect x="639" y="450" fill="#3C3541" width="75" height="4"/>
		<rect x="565" y="450" fill="#4C4452" width="74" height="4"/>
	</g>
</g>
<g id="Vaso_Balanza_Chico">
	<g>
		<g>
			<g>
				<polygon fill="#DDDADD" points="565.976,439.709 564.029,422.698 572.25,422.698 572.25,416.125 562.156,416.125 
					562.804,421.798 565.041,441.345 572.25,441.345 572.25,439.709 				"/>
				<polygon fill="#A3B9C3" points="572.25,416.125 572.25,422.698 580.469,422.698 578.523,439.709 572.25,439.709 572.25,441.345 
					579.458,441.345 581.694,421.798 582.343,416.125 				"/>
				<polygon fill="#76CDD7" points="578.523,439.709 580.469,422.698 572.25,422.698 572.25,439.709 				"/>
				<polygon fill="#AAE0DE" points="565.976,439.709 572.25,439.709 572.25,422.698 564.029,422.698 				"/>
			</g>
		</g>
		<g>
			<g>
				<g id="scales_3_">
					<g>
						<path fill="#5DA4A6" d="M628.468,441.843h20.674c0.623,0,1.17-0.525,1.194-1.15l0.88-22.853
							c0.023-0.663-0.526-1.337-1.156-1.416c-2.601-0.316-6.661-0.695-11.256-0.695c-4.593,0-8.653,0.378-11.254,0.695
							c-0.629,0.079-1.181,0.752-1.154,1.415l0.879,22.854C627.3,441.316,627.847,441.845,628.468,441.843z M638.805,417.084
							c2.254,0,4.082,1.827,4.082,4.081h-3.537v0.003h-1.089l0.002-0.003h-3.538C634.726,418.911,636.552,417.084,638.805,417.084z"
							/>
						<path fill="#FFFFFF" d="M638.263,421.164h-1.498c0-1.017,0.745-1.852,1.716-2.007l0.158-1.43h0.333l0.158,1.43
							c0.972,0.155,1.716,0.99,1.716,2.007h-1.496v0.001h3.537c0-2.254-1.828-4.081-4.082-4.081c-2.252,0-4.079,1.827-4.079,4.081
							L638.263,421.164L638.263,421.164z"/>
						<polygon fill="#E76B5A" points="638.805,415.383 638.805,415.388 638.807,415.383 						"/>
						<polygon fill="#E76B5A" points="638.263,421.164 638.263,421.165 638.261,421.168 639.35,421.168 639.35,421.165 
							639.35,421.164 						"/>
						<path fill="#E76B5A" d="M639.13,419.157l-0.158-1.43h-0.333l-0.158,1.43c0.107-0.018,0.213-0.033,0.323-0.033
							C638.917,419.124,639.023,419.14,639.13,419.157z"/>
						<path fill="#BFBFC7" d="M640.846,421.164c0-1.017-0.744-1.852-1.716-2.007c-0.107-0.018-0.213-0.033-0.325-0.033
							c-0.109,0-0.216,0.016-0.323,0.033c-0.971,0.155-1.716,0.99-1.716,2.007h1.498h1.087H640.846z"/>
					</g>
				</g>
				<path fill="#8ABDBF" d="M627.551,416.545c-0.629,0.077-1.181,0.674-1.154,1.338l0.879,22.911
					c0.024,0.624,0.571,1.206,1.192,1.206H638v-21h0.261h0.002h-3.538c0-2,1.379-4.014,3.632-4.014c0.031,0-0.358,0.069-0.358,0.069
					V416c0,0,0.861,0,0.829,0C634.235,416,630.152,416.227,627.551,416.545z"/>
			</g>
			<g>
				<polygon fill="none" points="638.805,415.479 638.807,415.475 638.805,415.475 				"/>
				<path fill="none" d="M649.143,442c0.623,0,1.17-0.559,1.194-1.184l0.88-22.869c0.023-0.663-0.526-1.346-1.156-1.422
					c-2.601-0.318-6.939-0.701-11.534-0.701c-0.084,0-0.527-0.002-0.527-0.002V442H649.143z"/>
				<path fill="#A3B9C3" d="M652.065,415.876c-0.463-0.523-1.096-0.893-1.808-0.979c-2.571-0.314-7.021-0.711-11.729-0.711
					c-0.085,0-0.528,0.004-0.528,0.004v1.632c0,0,0.443-0.002,0.527-0.002c4.595,0,8.793,0.379,11.394,0.695
					c0.63,0.078,1.25,0.753,1.226,1.416l-0.845,22.885c-0.023,0.625-0.536,1.184-1.159,1.184H638v1h11.143
					c1.502,0,2.768-0.935,2.824-2.436l0.879-22.713C652.877,417.068,652.573,416.449,652.065,415.876z M638.805,415.479v-0.005
					h0.002L638.805,415.479z"/>
				<path fill="#DDDADD" d="M628.468,442c-0.622,0-1.168-0.561-1.192-1.184l-0.879-22.87c-0.027-0.662,0.247-1.345,0.875-1.421
					c2.554-0.314,7.728-0.689,10.728-0.703v-1.631c-4,0.013-8.4,0.396-10.923,0.705c-1.493,0.182-2.509,1.596-2.452,3.098
					l0.949,22.854c0.027,0.712,0.364,1.074,0.832,1.56c0.517,0.537,1.274,0.592,2.062,0.592H638v-1H628.468z"/>
			</g>
		</g>
		<g>
			
				<text transform="matrix(1 0 0 1 595.9312 436.9199)" fill="#2B4E6B" font-family="'NeoSansStd-Black'" font-size="24.9535" letter-spacing="-1">=</text>
		</g>
		<g>
			
				<text transform="matrix(1 0 0 1 665.8062 436.9199)" fill="#2B4E6B" font-family="'NeoSansStd-Black'" font-size="24.9535" letter-spacing="-1">=</text>
		</g>
		<g>
			<g>
				<g>
					<path fill-rule="evenodd" clip-rule="evenodd" fill="#5DA4A6" d="M708.966,438.318v-0.15h-10.768
						c0,2.974,2.411,5.384,5.384,5.384C706.507,443.552,708.886,441.223,708.966,438.318z"/>
					<path fill-rule="evenodd" clip-rule="evenodd" fill="#FFBE9A" d="M706.275,438.168v-2.691c0-1.48-1.213-2.692-2.692-2.692
						c-1.481,0-2.692,1.212-2.692,2.692v2.691c0,1.48,1.211,2.691,2.692,2.691C705.062,440.859,706.275,439.648,706.275,438.168z"/>
					<path opacity="0.25" fill-rule="evenodd" clip-rule="evenodd" fill="#8ABDBF" d="M708.966,438.318v-0.15h-5.384v5.384h0
						C706.507,443.552,708.886,441.223,708.966,438.318z"/>
					<path fill-rule="evenodd" clip-rule="evenodd" fill="#CEAD8D" d="M706.275,438.168v-1.346h-2.692v1.346v2.691
						C705.062,440.859,706.275,439.648,706.275,438.168L706.275,438.168z"/>
				</g>
				<g>
					<path fill-rule="evenodd" clip-rule="evenodd" fill="#897558" d="M696.34,423.607c0.941-0.341,1.615-1.239,1.615-2.299
						c0-1.352-1.096-2.448-2.448-2.448s-2.448,1.097-2.448,2.448c0,1.06,0.672,1.958,1.615,2.299c-0.942,0.343-1.615,1.24-1.615,2.3
						c0,1.352,1.096,2.448,2.448,2.448s2.448-1.097,2.448-2.448C697.955,424.848,697.282,423.95,696.34,423.607z"/>
					<path fill-rule="evenodd" clip-rule="evenodd" fill="#7F6C50" d="M712.491,423.607c0.941-0.341,1.615-1.239,1.615-2.299
						c0-1.352-1.096-2.448-2.448-2.448s-2.449,1.097-2.449,2.448c0,1.06,0.674,1.958,1.614,2.299c-0.94,0.343-1.614,1.24-1.614,2.3
						c0,1.352,1.097,2.448,2.449,2.448s2.448-1.097,2.448-2.448C714.106,424.848,713.432,423.95,712.491,423.607z"/>
				</g>
				<g>
					<path fill-rule="evenodd" clip-rule="evenodd" fill="#FFBE9A" d="M703.583,438.168c4.441,0,8.075-3.634,8.075-8.074v-10.769
						c0-4.44-3.634-8.074-8.075-8.074c-4.441,0-8.075,3.634-8.075,8.074v10.769C695.507,434.534,699.142,438.168,703.583,438.168z"
						/>
					<path fill-rule="evenodd" clip-rule="evenodd" fill="#E3BE9A" d="M711.658,419.325c0-4.44-3.634-8.074-8.075-8.074v26.917
						c4.441,0,8.075-3.634,8.075-8.074V419.325z"/>
				</g>
				<circle fill-rule="evenodd" clip-rule="evenodd" fill="#4C4452" cx="699.55" cy="422.738" r="0.721"/>
				<circle fill-rule="evenodd" clip-rule="evenodd" fill="#4C4452" cx="707.615" cy="422.738" r="0.721"/>
				<path fill="#897558" d="M700.926,410.987c-0.011,0.048-0.023,0.095-0.032,0.143c-0.495-0.416-1.133-0.668-1.829-0.668
					c-1.485,0-2.702,1.137-2.834,2.586c-0.008,0.087-0.013,0.174-0.013,0.262c0,0.328,0.059,0.643,0.162,0.937
					c-0.217-0.059-0.445-0.092-0.681-0.092c-1.458,0-2.639,1.181-2.639,2.639c0,0.25,0.037,0.493,0.104,0.723
					c0.575,0.856,1.405,1.526,2.378,1.908c0.576,0.225,1.201,0.349,1.856,0.349c1.373,0,2.617-0.542,3.534-1.423
					c0.812,0.306,1.689,0.477,2.606,0.485v-9.958C702.266,408.905,701.21,409.796,700.926,410.987z"/>
				<path fill="#7F6C50" d="M706.382,418.307c0.913,0.855,2.138,1.38,3.487,1.38c0.561,0,1.099-0.091,1.602-0.258
					c0.015,0,0.028,0.002,0.042,0.002c1.432,0,2.592-1.16,2.592-2.592c0-1.433-1.16-2.593-2.592-2.593
					c-0.254,0-0.5,0.039-0.731,0.106c0.128-0.322,0.199-0.674,0.199-1.043c0-0.088-0.005-0.175-0.013-0.262
					c-0.132-1.449-1.349-2.586-2.833-2.586c-0.697,0-1.333,0.252-1.829,0.668c-0.234-1.282-1.355-2.256-2.707-2.256
					c-0.021,0-0.041,0.003-0.062,0.003v9.958c0.021,0,0.041,0.001,0.062,0.001C704.583,418.836,705.521,418.647,706.382,418.307z"/>
				<g>
					<path fill-rule="evenodd" clip-rule="evenodd" fill="#E2D4D5" d="M707.253,428H703v6.281c4-0.134,5.194-3.689,5.194-3.689
						C708.794,429.418,708.572,428,707.253,428z"/>
					<path fill-rule="evenodd" clip-rule="evenodd" fill="#F5E5E5" d="M699.766,428H703v6.281c-2-0.134-4.782-3.689-4.782-3.689
						C697.618,429.418,698.448,428,699.766,428z"/>
				</g>
				
					<circle fill-rule="evenodd" clip-rule="evenodd" fill="none" stroke="#4C4452" stroke-width="1.1064" stroke-miterlimit="10" cx="699.5" cy="422.534" r="3.049"/>
				
					<circle fill-rule="evenodd" clip-rule="evenodd" fill="none" stroke="#3C3541" stroke-width="1.1064" stroke-miterlimit="10" cx="707.797" cy="422.534" r="3.049"/>
				
					<line fill-rule="evenodd" clip-rule="evenodd" fill="none" stroke="#4C4452" stroke-miterlimit="10" x1="702" y1="422.5" x2="703" y2="422.5"/>
				
					<line fill-rule="evenodd" clip-rule="evenodd" fill="none" stroke="#4C4452" stroke-miterlimit="10" x1="695" y1="422.5" x2="696" y2="422.5"/>
				
					<line fill-rule="evenodd" clip-rule="evenodd" fill="none" stroke="#3C3541" stroke-miterlimit="10" x1="703" y1="422.5" x2="705" y2="422.5"/>
				
					<line fill-rule="evenodd" clip-rule="evenodd" fill="none" stroke="#3C3541" stroke-miterlimit="10" x1="711" y1="422.5" x2="712" y2="422.5"/>
			</g>
			<circle opacity="0.1" fill-rule="evenodd" clip-rule="evenodd" fill="#FCE0CA" cx="699.5" cy="422.534" r="3.049"/>
			<circle opacity="0.1" fill-rule="evenodd" clip-rule="evenodd" fill="#FCE0CA" cx="707.797" cy="422.534" r="3.049"/>
		</g>
	</g>
</g>
<g id="Lineas">
	<rect x="639" y="373" fill="#3C3541" width="74" height="4"/>
	<rect x="639" y="400" fill="#3C3541" width="75" height="3"/>
	<rect x="639" y="386" fill="#3C3541" width="74" height="3"/>
	<rect x="565" y="373" fill="#4C4452" width="74" height="4"/>
	<rect x="565" y="400" fill="#4C4452" width="74" height="3"/>
	<rect x="565" y="386" fill="#4C4452" width="74" height="3"/>
</g>
<g id="Lineas_Derecha">
	<rect x="647" y="326" fill="#3C3541" width="66" height="3"/>
	<rect x="647" y="341" fill="#3C3541" width="66" height="3"/>
	<rect x="647" y="358" fill="#3C3541" width="66" height="3"/>
	<rect x="647" y="309" fill="#3C3541" width="66" height="3"/>
</g>
<g id="Menos">
	<g>
		<text transform="matrix(1 0 0 1 563.1836 361.2734)" fill="#5BA4C2" font-family="'NeoSansStd-Medium'" font-size="22.1337">MENOS</text>
	</g>
</g>
<g id="_x33_1">
	<g>
		<text transform="matrix(1 0 0 1 561.98 340.7383)"><tspan x="0" y="0" fill="#2B4E6B" font-family="'NeoSansStd-Medium'" font-size="41.7657" letter-spacing="-3">31</tspan><tspan x="45.941" y="0" fill="#2B4E6B" font-family="'NeoSansStd-Medium'" font-size="34.4412" letter-spacing="-2">%</tspan></text>
	</g>
</g>
<g id="Niños">
	<g>
		<g opacity="0.5">
			<path fill="#72ADC8" d="M712.908,291.162l-0.002-0.906h0.046l0.001,1.123c0,0.091,0.074,0.138,0.165,0.138h0.003
				c0.091,0,0.166-0.048,0.166-0.138l-0.002-1.123h0.056l0.002,1.001c0,0.092,0.075,0.048,0.166,0.048l0.003,0.034
				c0.091,0,0.165-0.007,0.165-0.098l-0.001-0.985h0.04l0.001,0.956c0,0.11,0.091,0.305,0.201,0.305h0.004
				c0.111,0,0.183-0.328,0.183-0.439l0.041-1.089v-0.504c0-0.244-0.153-0.455-0.339-0.56l-0.05-5.019
				c0-0.039-0.009-0.076-0.021-0.113l-0.373-3.381l0.277-0.053l-0.327-2.99c-0.034-0.308-0.304-0.54-0.634-0.54
				c-0.025,0-0.038,0.002-0.063,0.005l-0.091,0.013c-0.041,0.005-0.032,0.013-0.07,0.023c-0.35-0.508-1.46-0.863-1.46-1.021v-0.019
				c0-0.024-0.321-0.045-0.414-0.062l-0.133-0.485c0.724-0.229,1.177-0.904,1.177-1.703v-0.323c0,0,0.114,0.004,0.134,0.004
				c0.517,0,1.01-0.419,1.01-0.936c0-0.404-0.257-0.748-0.616-0.878c0.359-0.132,0.616-0.475,0.616-0.879
				c0-0.152-0.037-0.296-0.102-0.423c0.26-0.153,0.448-0.464,0.448-0.786c0-0.455-0.344-0.818-0.768-0.818
				c-0.076,0-0.148,0.021-0.217,0.043c0.038-0.103,0.059-0.194,0.059-0.312c0-0.027-0.002-0.018-0.004-0.045
				c-0.039-0.46-0.399-0.669-0.839-0.669c-0.207,0-0.402,0-0.402,0s-0.124-0.789-0.96-0.789c-0.907,0-0.96,0.789-0.96,0.789
				s-0.195,0-0.401,0c-0.44,0-0.801,0.209-0.839,0.669c-0.003,0.027-0.004-0.021-0.004,0.008c0,0.117,0.021,0.229,0.06,0.331
				c-0.068-0.022-0.141-0.034-0.216-0.034c-0.423,0-0.766,0.368-0.766,0.823c0,0.323,0.191,0.635,0.451,0.788
				c-0.064,0.128-0.094,0.271-0.094,0.425c0,0.404,0.276,0.748,0.634,0.878c-0.358,0.131-0.583,0.475-0.583,0.879
				c0,0.517,0.489,0.936,1.005,0.936c0.022,0,0.202-0.002,0.202-0.002v0.316c0,0.777,0.357,1.439,1.05,1.686l-0.139,0.545
				c-0.092,0.024-0.281,0.052-0.281,0.082v-0.008c-0.63,0.179-1.082,0.531-1.399,0.985c-0.031-0.008-0.062-0.015-0.093-0.018
				l-0.116-0.013c-0.024-0.003-0.049-0.005-0.074-0.005c-0.332,0-0.607,0.232-0.641,0.54l-0.331,2.991l0.276,0.052l-0.373,3.381
				c-0.014,0.037-0.021,0.075-0.021,0.114l-0.004,4.981c-0.236,0.082-0.377,0.318-0.377,0.599v0.505l-0.006,0.862
				c0,0.11,0.024,0.217,0.135,0.217l0.004,0.033c0.111,0.001,0.201-0.021,0.201-0.132l0.001-0.717h0.039l-0.001,1.001
				c0,0.092,0.073,0.047,0.165,0.047l0.002,0.035c0.092,0,0.166-0.007,0.166-0.098l0.002-0.985h0.057l-0.002,1.123
				c0,0.09,0.075,0.138,0.166,0.138h0.003c0.091,0,0.166-0.047,0.165-0.138l0.002-1.123h0.046l0.001,1.051
				c0,0.109,0.095,0.21,0.205,0.21h0.013c0.111,0,0.112-0.229,0.112-0.34L707.354,290l-0.146,0.01v-0.106l0,0v0.192
				c0,0.094,0.432,0.791,0.526,0.791h0.003c0.034,0,0.101-0.651,0.101-0.668v8.864h0.923l0,0h-0.622l-0.022,0.154
				c-0.132-0.097-0.214-0.196-0.214-0.196s-0.071,0.086-0.226,0.201l-0.018-0.027l-0.131,0.094l0.016,0.025
				c-0.047,0.029-0.102,0.062-0.159,0.093l-0.01-0.019l-0.145,0.075l0.006,0.016c-0.058,0.027-0.125,0.055-0.191,0.081l-0.016-0.02
				l-0.169,0.059l-0.032,0.016c-0.054,0.019-0.25,0.037-0.25,0.055v-0.024l-0.1,0.038l0.071,0.027
				c-0.191,0.047-0.427,0.085-0.667,0.107c-0.554,0.052-0.566,0.733-0.566,0.733v0.403h6.305v-0.403l0.028-1.128
				c0,0,0.14,0.007,0.022,0.008l-0.048-0.368h-0.003v-0.591l0,0v-8.73c0.63-0.024,0.337-0.051,0.37-0.078
				c-0.001,0.013,0.26,0.026,0.26,0.038v0.357c0,0.094-0.05,0.172,0.044,0.172l-0.124,0.006c0.095,0,0.08-0.067,0.08-0.161v0.16
				h0.63v-0.245l-0.192-0.021l-0.188,1.042c0,0.109,0.09,0.201,0.201,0.201l0.004,0.005
				C712.818,291.238,712.908,291.271,712.908,291.162z M707.695,289.321l-0.144-0.145c-0.065-0.064-0.147-0.109-0.236-0.133
				c-0.031-0.031-0.066-0.06-0.102-0.085l0.005-4.924l0.164-1.521c0,1.566-0.006,3.198-0.006,4.392c0,0.154,0.011,0.198,0.125,0.198
				h-0.292v0.631h0.321c0,0.63,0.002,0.465,0.002,0.68c0.003,0,0.006-0.125,0.009-0.127c0.003,0.23,0.005,0.363,0.005,0.363
				C707.546,288.921,707.591,289.141,707.695,289.321z M711.284,299.083h-0.618l-0.022,0.154c-0.132-0.097-0.213-0.196-0.213-0.196
				s-0.072,0.086-0.227,0.201l-0.017-0.026l-0.132,0.094l0.016,0.024c-0.047,0.029-0.102,0.062-0.159,0.093l-0.009-0.019
				l-0.143,0.075l0.007,0.016c-0.057,0.027-0.119,0.055-0.186,0.08l-0.006-0.019l-0.15,0.058l0.005,0.017
				c-0.021,0.007-0.04,0.016-0.062,0.022l-0.02-0.094l-0.001,0.001l-0.019-0.121c0,0-0.064,0.007-0.181,0.008l-0.048-0.368h-0.337
				l0,0h0.338v-8.93c0.63,0.011,0.541,0.059,0.698,0.059c0.007,0,0.189,0.044,0.197,0.044c0.002,0,0.005,0,0.008,0h-0.02
				c0.095,0,0.378-0.087,0.378-0.087v8.914H711.284L711.284,299.083z M712.866,288.916c-0.069,0.032-0.132,0.076-0.185,0.13
				c-0.088,0.023-0.17,0.067-0.236,0.133l-0.03,0.03c0.041-0.122,0.064-0.259,0.064-0.416c0,0,0.002-0.188,0.005-0.504
				c0.001,0.001,0.002,0.002,0.004,0.002c0-0.21,0.001-0.472,0.001-0.782c0.204,0.014,0.223-0.073,0.224-0.2
				c0.007-1.242-0.001-3.021-0.014-4.705l0.16,1.438L712.866,288.916z"/>
			<path fill="#5397B2" d="M711.284,299.083L711.284,299.083h-0.618l-0.025,0.154c-0.133-0.097-0.218-0.196-0.218-0.196
				s-0.08,0.086-0.233,0.201l-0.032-0.027l-0.161,0.094l-0.041,0.025c-0.035,0.021-0.226,0.043-0.226,0.064v1.576h1.892v-0.403
				l0.028-1.128c0,0,0.14,0.007,0.022,0.008l-0.048-0.368h-0.003v-0.591l0,0v-8.73c0.63-0.024,0.337-0.051,0.37-0.078
				c-0.001,0.013,0.26,0.026,0.26,0.038v0.357c0,0.094-0.05,0.172,0.044,0.172l-0.124,0.006c0.095,0,0.08-0.067,0.08-0.161v0.16
				h0.63v-0.245l-0.192-0.012l-0.188,1.048c0,0.109,0.09,0.217,0.201,0.215l0.004,0.035c0.111,0,0.201-0.025,0.201-0.135
				l-0.002-0.906h0.046l0.001,1.123c0,0.091,0.074,0.138,0.165,0.138h0.003c0.091,0,0.166-0.048,0.166-0.138l-0.002-1.123h0.056
				l0.002,1.001c0,0.092,0.075,0.048,0.166,0.048l0.003,0.034c0.091,0,0.165-0.007,0.165-0.098l-0.001-0.985h0.04l0.001,0.956
				c0,0.11,0.091,0.305,0.201,0.305h0.004c0.111,0,0.183-0.328,0.183-0.439l0.041-1.089v-0.504c0-0.244-0.153-0.455-0.339-0.56
				l-0.05-5.019c0-0.039-0.009-0.076-0.021-0.113l-0.373-3.381l0.277-0.053l-0.327-2.99c-0.034-0.308-0.304-0.54-0.634-0.54
				c-0.025,0-0.038,0.002-0.063,0.005l-0.091,0.013c-0.041,0.005-0.032,0.013-0.07,0.023c-0.35-0.508-1.46-0.863-1.46-1.021v-0.019
				c0-0.024-0.321-0.045-0.414-0.062l-0.133-0.485c0.724-0.229,1.177-0.904,1.177-1.703v-0.323c0,0,0.114,0.004,0.134,0.004
				c0.517,0,1.01-0.419,1.01-0.936c0-0.404-0.257-0.748-0.616-0.878c0.359-0.132,0.616-0.475,0.616-0.879
				c0-0.152-0.037-0.296-0.102-0.423c0.26-0.153,0.448-0.464,0.448-0.786c0-0.455-0.344-0.818-0.768-0.818
				c-0.076,0-0.148,0.021-0.217,0.043c0.038-0.103,0.059-0.194,0.059-0.312c0-0.027-0.002-0.018-0.004-0.045
				c-0.039-0.46-0.399-0.669-0.839-0.669c-0.207,0-0.402,0-0.402,0s-0.239-0.859-1.075-0.859c-0.008,0-0.136-0.067-0.136-0.067
				s0.257,23.625,0.265,23.625h0.008h-0.02c0.095,0,0.378-0.087,0.378-0.087v8.914H711.284z M712.416,289.209
				c0.041-0.122,0.064-0.259,0.064-0.416c0,0,0.002-0.188,0.005-0.504c0.001,0.001,0.002,0.002,0.004,0.002
				c0-0.21,0.001-0.472,0.001-0.782c0.204,0.014,0.223-0.073,0.224-0.2c0.007-1.242-0.001-3.021-0.014-4.705l0.16,1.438l0.006,4.875
				c-0.069,0.032-0.132,0.076-0.185,0.13c-0.088,0.023-0.17,0.067-0.236,0.133L712.416,289.209z"/>
		</g>
		<g opacity="0.5">
			<path fill="#72ADC8" d="M700.187,291.162l-0.002-0.906h0.046l0.002,1.123c0,0.091,0.074,0.138,0.165,0.138h0.003
				c0.091,0,0.166-0.048,0.166-0.138l-0.002-1.123h0.056l0.002,1.001c0,0.092,0.075,0.048,0.166,0.048l0.003,0.034
				c0.091,0,0.165-0.007,0.165-0.098l-0.001-0.985h0.04l0.001,0.956c0,0.11,0.09,0.305,0.201,0.305h0.004
				c0.111,0,0.182-0.328,0.182-0.439l0.041-1.089v-0.504c0-0.244-0.153-0.455-0.339-0.56l-0.051-5.019
				c0-0.039-0.009-0.076-0.021-0.113l-0.372-3.381l0.277-0.053l-0.328-2.99c-0.034-0.308-0.304-0.54-0.634-0.54
				c-0.025,0-0.038,0.002-0.063,0.005l-0.09,0.013c-0.041,0.005-0.032,0.013-0.07,0.023c-0.35-0.508-1.46-0.863-1.46-1.021v-0.019
				c0-0.024-0.321-0.045-0.413-0.062l-0.134-0.485c0.724-0.229,1.177-0.904,1.177-1.703v-0.323c0,0,0.115,0.004,0.134,0.004
				c0.518,0,1.011-0.419,1.011-0.936c0-0.404-0.257-0.748-0.617-0.878c0.359-0.132,0.617-0.475,0.617-0.879
				c0-0.152-0.037-0.296-0.103-0.423c0.261-0.153,0.448-0.464,0.448-0.786c0-0.455-0.344-0.818-0.768-0.818
				c-0.076,0-0.148,0.021-0.217,0.043c0.038-0.103,0.059-0.194,0.059-0.312c0-0.027-0.002-0.018-0.004-0.045
				c-0.039-0.46-0.399-0.669-0.839-0.669c-0.206,0-0.402,0-0.402,0s-0.124-0.789-0.96-0.789c-0.907,0-0.96,0.789-0.96,0.789
				s-0.195,0-0.402,0c-0.44,0-0.8,0.209-0.838,0.669c-0.004,0.027-0.004-0.021-0.004,0.008c0,0.117,0.021,0.229,0.06,0.331
				c-0.068-0.022-0.14-0.034-0.215-0.034c-0.424,0-0.766,0.368-0.766,0.823c0,0.323,0.191,0.635,0.451,0.788
				c-0.064,0.128-0.093,0.271-0.093,0.425c0,0.404,0.276,0.748,0.634,0.878c-0.358,0.131-0.583,0.475-0.583,0.879
				c0,0.517,0.489,0.936,1.005,0.936c0.022,0,0.202-0.002,0.202-0.002v0.316c0,0.777,0.357,1.439,1.05,1.686l-0.139,0.545
				c-0.092,0.024-0.281,0.052-0.281,0.082v-0.008c-0.63,0.179-1.081,0.531-1.399,0.985c-0.031-0.008-0.062-0.015-0.093-0.018
				l-0.116-0.013c-0.024-0.003-0.049-0.005-0.074-0.005c-0.331,0-0.607,0.232-0.64,0.54l-0.331,2.991l0.276,0.052l-0.373,3.381
				c-0.014,0.037-0.022,0.075-0.022,0.114l-0.003,4.981c-0.236,0.082-0.377,0.318-0.377,0.599v0.505l-0.006,0.862
				c0,0.11,0.024,0.217,0.135,0.217l0.004,0.033c0.11,0.001,0.201-0.021,0.201-0.132l0.001-0.717h0.04l-0.001,1.001
				c0,0.092,0.073,0.047,0.165,0.047l0.003,0.035c0.091,0,0.166-0.007,0.166-0.098l0.002-0.985h0.057l-0.002,1.123
				c0,0.09,0.074,0.138,0.166,0.138h0.003c0.091,0,0.166-0.047,0.165-0.138l0.002-1.123h0.046l0.002,1.051
				c0,0.109,0.094,0.21,0.205,0.21h0.012c0.111,0,0.112-0.229,0.112-0.34l-0.07-1.177l-0.145,0.01v-0.106l0,0v0.192
				c0,0.094,0.432,0.791,0.526,0.791h0.003c0.035,0,0.101-0.651,0.101-0.668v8.864h0.923l0,0h-0.623l-0.022,0.154
				c-0.132-0.097-0.214-0.196-0.214-0.196s-0.071,0.086-0.226,0.201l-0.017-0.027l-0.132,0.094l0.016,0.025
				c-0.047,0.029-0.102,0.062-0.16,0.093l-0.01-0.019l-0.144,0.075l0.005,0.016c-0.058,0.027-0.124,0.055-0.19,0.081l-0.016-0.02
				l-0.169,0.059l-0.032,0.016c-0.054,0.019-0.25,0.037-0.25,0.055v-0.024l-0.1,0.038l0.071,0.027
				c-0.191,0.047-0.427,0.085-0.666,0.107c-0.554,0.052-0.566,0.733-0.566,0.733v0.403h6.305v-0.403l0.028-1.128
				c0,0,0.14,0.007,0.023,0.008l-0.048-0.368H698.9v-0.591l0,0v-8.73c0.631-0.024,0.337-0.051,0.37-0.078
				c0,0.013,0.261,0.026,0.261,0.038v0.357c0,0.094-0.05,0.172,0.043,0.172l-0.124,0.006c0.095,0,0.08-0.067,0.08-0.161v0.16h0.63
				v-0.245l-0.192-0.021l-0.188,1.042c-0.001,0.109,0.09,0.201,0.201,0.201l0.004,0.005
				C700.097,291.238,700.187,291.271,700.187,291.162z M694.974,289.321l-0.144-0.145c-0.065-0.064-0.148-0.109-0.236-0.133
				c-0.031-0.031-0.066-0.06-0.103-0.085l0.005-4.924l0.164-1.521c0,1.566-0.006,3.198-0.006,4.392c0,0.154,0.011,0.198,0.125,0.198
				h-0.291v0.631h0.321c0,0.63,0.002,0.465,0.002,0.68c0.003,0,0.006-0.125,0.009-0.127c0.003,0.23,0.005,0.363,0.005,0.363
				C694.825,288.921,694.87,289.141,694.974,289.321z M698.562,299.083h-0.618l-0.022,0.154c-0.132-0.097-0.214-0.196-0.214-0.196
				s-0.071,0.086-0.227,0.201l-0.017-0.026l-0.132,0.094l0.016,0.024c-0.047,0.029-0.102,0.062-0.16,0.093l-0.009-0.019
				l-0.143,0.075l0.007,0.016c-0.057,0.027-0.119,0.055-0.186,0.08l-0.006-0.019l-0.15,0.058l0.005,0.017
				c-0.021,0.007-0.04,0.016-0.062,0.022l-0.021-0.094l-0.001,0.001l-0.019-0.121c0,0-0.064,0.007-0.181,0.008l-0.048-0.368h-0.337
				l0,0h0.338v-8.93c0.631,0.011,0.541,0.059,0.698,0.059c0.007,0,0.189,0.044,0.197,0.044c0.002,0,0.005,0,0.007,0h-0.02
				c0.095,0,0.378-0.087,0.378-0.087v8.914H698.562L698.562,299.083z M700.145,288.916c-0.07,0.032-0.132,0.076-0.185,0.13
				c-0.088,0.023-0.17,0.067-0.236,0.133l-0.03,0.03c0.041-0.122,0.064-0.259,0.064-0.416c0,0,0.002-0.188,0.006-0.504
				c0.001,0.001,0.002,0.002,0.003,0.002c0-0.21,0.001-0.472,0.002-0.782c0.204,0.014,0.223-0.073,0.224-0.2
				c0.007-1.242-0.001-3.021-0.014-4.705l0.159,1.438L700.145,288.916z"/>
			<path fill="#5397B2" d="M698.562,299.083L698.562,299.083h-0.618l-0.025,0.154c-0.133-0.097-0.218-0.196-0.218-0.196
				s-0.08,0.086-0.233,0.201l-0.032-0.027l-0.161,0.094l-0.041,0.025c-0.034,0.021-0.225,0.043-0.225,0.064v1.576h1.891v-0.403
				l0.028-1.128c0,0,0.14,0.007,0.023,0.008l-0.048-0.368H698.9v-0.591l0,0v-8.73c0.631-0.024,0.337-0.051,0.37-0.078
				c0,0.013,0.261,0.026,0.261,0.038v0.357c0,0.094-0.05,0.172,0.043,0.172l-0.124,0.006c0.095,0,0.08-0.067,0.08-0.161v0.16h0.63
				v-0.245l-0.192-0.012l-0.188,1.048c-0.001,0.109,0.09,0.217,0.201,0.215l0.004,0.035c0.111,0,0.201-0.025,0.201-0.135
				l-0.002-0.906h0.046l0.002,1.123c0,0.091,0.074,0.138,0.165,0.138h0.003c0.091,0,0.166-0.048,0.166-0.138l-0.002-1.123h0.056
				l0.002,1.001c0,0.092,0.075,0.048,0.166,0.048l0.003,0.034c0.091,0,0.165-0.007,0.165-0.098l-0.001-0.985h0.04l0.001,0.956
				c0,0.11,0.09,0.305,0.201,0.305h0.004c0.111,0,0.182-0.328,0.182-0.439l0.041-1.089v-0.504c0-0.244-0.153-0.455-0.339-0.56
				l-0.051-5.019c0-0.039-0.009-0.076-0.021-0.113l-0.372-3.381l0.277-0.053l-0.328-2.99c-0.034-0.308-0.304-0.54-0.634-0.54
				c-0.025,0-0.038,0.002-0.063,0.005l-0.09,0.013c-0.041,0.005-0.032,0.013-0.07,0.023c-0.35-0.508-1.46-0.863-1.46-1.021v-0.019
				c0-0.024-0.321-0.045-0.413-0.062l-0.134-0.485c0.724-0.229,1.177-0.904,1.177-1.703v-0.323c0,0,0.115,0.004,0.134,0.004
				c0.518,0,1.011-0.419,1.011-0.936c0-0.404-0.257-0.748-0.617-0.878c0.359-0.132,0.617-0.475,0.617-0.879
				c0-0.152-0.037-0.296-0.103-0.423c0.261-0.153,0.448-0.464,0.448-0.786c0-0.455-0.344-0.818-0.768-0.818
				c-0.076,0-0.148,0.021-0.217,0.043c0.038-0.103,0.059-0.194,0.059-0.312c0-0.027-0.002-0.018-0.004-0.045
				c-0.039-0.46-0.399-0.669-0.839-0.669c-0.206,0-0.402,0-0.402,0s-0.239-0.859-1.075-0.859c-0.007,0-0.135-0.067-0.135-0.067
				s0.256,23.625,0.265,23.625h0.007h-0.02c0.095,0,0.378-0.087,0.378-0.087v8.914H698.562z M699.695,289.209
				c0.041-0.122,0.064-0.259,0.064-0.416c0,0,0.002-0.188,0.006-0.504c0.001,0.001,0.002,0.002,0.003,0.002
				c0-0.21,0.001-0.472,0.002-0.782c0.204,0.014,0.223-0.073,0.224-0.2c0.007-1.242-0.001-3.021-0.014-4.705l0.159,1.438
				l0.006,4.875c-0.07,0.032-0.132,0.076-0.185,0.13c-0.088,0.023-0.17,0.067-0.236,0.133L699.695,289.209z"/>
		</g>
		<g opacity="0.5">
			<path fill="#72ADC8" d="M687.465,291.162l-0.002-0.906h0.046l0.002,1.123c-0.001,0.091,0.074,0.138,0.165,0.138h0.003
				c0.091,0,0.166-0.048,0.166-0.138l-0.002-1.123h0.056l0.002,1.001c0,0.092,0.074,0.048,0.166,0.048l0.003,0.034
				c0.091,0,0.165-0.007,0.165-0.098l-0.001-0.985h0.04l0.001,0.956c0,0.11,0.09,0.305,0.201,0.305h0.004
				c0.111,0,0.182-0.328,0.182-0.439l0.041-1.089v-0.504c0-0.244-0.153-0.455-0.338-0.56l-0.051-5.019
				c0-0.039-0.009-0.076-0.021-0.113l-0.373-3.381l0.277-0.053l-0.328-2.99c-0.034-0.308-0.304-0.54-0.634-0.54
				c-0.025,0-0.038,0.002-0.063,0.005l-0.09,0.013c-0.041,0.005-0.032,0.013-0.07,0.023c-0.35-0.508-1.46-0.863-1.46-1.021v-0.019
				c0-0.024-0.321-0.045-0.413-0.062l-0.134-0.485c0.724-0.229,1.177-0.904,1.177-1.703v-0.323c0,0,0.115,0.004,0.134,0.004
				c0.517,0,1.01-0.419,1.01-0.936c0-0.404-0.257-0.748-0.616-0.878c0.359-0.132,0.616-0.475,0.616-0.879
				c0-0.152-0.037-0.296-0.102-0.423c0.26-0.153,0.448-0.464,0.448-0.786c0-0.455-0.344-0.818-0.768-0.818
				c-0.076,0-0.148,0.021-0.217,0.043c0.038-0.103,0.059-0.194,0.059-0.312c0-0.027-0.001-0.018-0.004-0.045
				c-0.039-0.46-0.4-0.669-0.839-0.669c-0.207,0-0.402,0-0.402,0s-0.124-0.789-0.96-0.789c-0.907,0-0.96,0.789-0.96,0.789
				s-0.195,0-0.401,0c-0.44,0-0.8,0.209-0.839,0.669c-0.003,0.027-0.004-0.021-0.004,0.008c0,0.117,0.021,0.229,0.06,0.331
				c-0.068-0.022-0.141-0.034-0.215-0.034c-0.424,0-0.766,0.368-0.766,0.823c0,0.323,0.191,0.635,0.451,0.788
				c-0.064,0.128-0.094,0.271-0.094,0.425c0,0.404,0.276,0.748,0.634,0.878c-0.358,0.131-0.583,0.475-0.583,0.879
				c0,0.517,0.489,0.936,1.005,0.936c0.022,0,0.202-0.002,0.202-0.002v0.316c0,0.777,0.357,1.439,1.05,1.686l-0.139,0.545
				c-0.092,0.024-0.281,0.052-0.281,0.082v-0.008c-0.63,0.179-1.081,0.531-1.399,0.985c-0.031-0.008-0.062-0.015-0.093-0.018
				l-0.117-0.013c-0.024-0.003-0.049-0.005-0.074-0.005c-0.331,0-0.607,0.232-0.64,0.54l-0.332,2.991l0.276,0.052l-0.373,3.381
				c-0.014,0.037-0.021,0.075-0.021,0.114l-0.003,4.981c-0.237,0.082-0.377,0.318-0.377,0.599v0.505l-0.006,0.862
				c0,0.11,0.024,0.217,0.135,0.217l0.004,0.033c0.111,0.001,0.201-0.021,0.201-0.132l0.001-0.717h0.04l-0.001,1.001
				c0,0.092,0.073,0.047,0.165,0.047l0.002,0.035c0.092,0,0.167-0.007,0.166-0.098l0.002-0.985h0.057l-0.002,1.123
				c0,0.09,0.075,0.138,0.166,0.138h0.003c0.091,0,0.166-0.047,0.165-0.138l0.001-1.123h0.046l0.002,1.051
				c0,0.109,0.094,0.21,0.205,0.21h0.012c0.111,0,0.112-0.229,0.112-0.34L681.911,290l-0.146,0.01v-0.106l0,0v0.192
				c0,0.094,0.433,0.791,0.526,0.791h0.003c0.034,0,0.101-0.651,0.101-0.668v8.864h0.923l0,0h-0.623l-0.022,0.154
				c-0.133-0.097-0.214-0.196-0.214-0.196s-0.071,0.086-0.226,0.201l-0.017-0.027l-0.132,0.094l0.016,0.025
				c-0.048,0.029-0.102,0.062-0.16,0.093l-0.01-0.019l-0.144,0.075l0.005,0.016c-0.058,0.027-0.125,0.055-0.191,0.081l-0.016-0.02
				l-0.169,0.059l-0.032,0.016c-0.054,0.019-0.25,0.037-0.25,0.055v-0.024l-0.1,0.038l0.071,0.027
				c-0.191,0.047-0.427,0.085-0.666,0.107c-0.554,0.052-0.567,0.733-0.567,0.733v0.403h6.305v-0.403l0.028-1.128
				c0,0,0.14,0.007,0.023,0.008l-0.048-0.368h-0.003v-0.591l0,0v-8.73c0.63-0.024,0.337-0.051,0.37-0.078
				c0,0.013,0.26,0.026,0.26,0.038v0.357c0,0.094-0.05,0.172,0.044,0.172l-0.124,0.006c0.095,0,0.08-0.067,0.08-0.161v0.16h0.631
				v-0.245l-0.192-0.021l-0.188,1.042c0,0.109,0.09,0.201,0.201,0.201l0.004,0.005C687.375,291.238,687.465,291.271,687.465,291.162
				z M682.252,289.321l-0.144-0.145c-0.065-0.064-0.147-0.109-0.236-0.133c-0.031-0.031-0.065-0.06-0.102-0.085l0.005-4.924
				l0.164-1.521c0,1.566-0.006,3.198-0.006,4.392c0,0.154,0.011,0.198,0.125,0.198h-0.292v0.631h0.321
				c0.001,0.63,0.002,0.465,0.003,0.68c0.003,0,0.006-0.125,0.008-0.127c0.003,0.23,0.006,0.363,0.006,0.363
				C682.104,288.921,682.149,289.141,682.252,289.321z M685.841,299.083h-0.618l-0.022,0.154c-0.132-0.097-0.213-0.196-0.213-0.196
				s-0.071,0.086-0.227,0.201l-0.018-0.026l-0.131,0.094l0.016,0.024c-0.047,0.029-0.102,0.062-0.159,0.093l-0.009-0.019
				l-0.143,0.075l0.007,0.016c-0.058,0.027-0.119,0.055-0.186,0.08l-0.006-0.019l-0.15,0.058l0.005,0.017
				c-0.021,0.007-0.04,0.016-0.062,0.022l-0.021-0.094l-0.001,0.001l-0.018-0.121c0,0-0.064,0.007-0.181,0.008l-0.048-0.368h-0.337
				l0,0h0.338v-8.93c0.63,0.011,0.541,0.059,0.698,0.059c0.007,0,0.189,0.044,0.197,0.044c0.002,0,0.005,0,0.007,0h-0.02
				c0.095,0,0.378-0.087,0.378-0.087v8.914H685.841L685.841,299.083z M687.424,288.916c-0.07,0.032-0.132,0.076-0.185,0.13
				c-0.088,0.023-0.17,0.067-0.236,0.133l-0.029,0.03c0.041-0.122,0.064-0.259,0.064-0.416c0,0,0.002-0.188,0.005-0.504
				c0.001,0.001,0.002,0.002,0.004,0.002c0-0.21,0.001-0.472,0.002-0.782c0.204,0.014,0.223-0.073,0.223-0.2
				c0.007-1.242-0.001-3.021-0.014-4.705l0.16,1.438L687.424,288.916z"/>
			<path fill="#5397B2" d="M685.841,299.083L685.841,299.083h-0.618l-0.025,0.154c-0.133-0.097-0.218-0.196-0.218-0.196
				s-0.08,0.086-0.233,0.201l-0.032-0.027l-0.161,0.094l-0.041,0.025c-0.035,0.021-0.226,0.043-0.226,0.064v1.576h1.892v-0.403
				l0.028-1.128c0,0,0.14,0.007,0.023,0.008l-0.048-0.368h-0.003v-0.591l0,0v-8.73c0.63-0.024,0.337-0.051,0.37-0.078
				c0,0.013,0.26,0.026,0.26,0.038v0.357c0,0.094-0.05,0.172,0.044,0.172l-0.124,0.006c0.095,0,0.08-0.067,0.08-0.161v0.16h0.631
				v-0.245l-0.192-0.012l-0.188,1.048c0,0.109,0.09,0.217,0.201,0.215l0.004,0.035c0.111,0,0.201-0.025,0.201-0.135l-0.002-0.906
				h0.046l0.002,1.123c-0.001,0.091,0.074,0.138,0.165,0.138h0.003c0.091,0,0.166-0.048,0.166-0.138l-0.002-1.123h0.056l0.002,1.001
				c0,0.092,0.074,0.048,0.166,0.048l0.003,0.034c0.091,0,0.165-0.007,0.165-0.098l-0.001-0.985h0.04l0.001,0.956
				c0,0.11,0.09,0.305,0.201,0.305h0.004c0.111,0,0.182-0.328,0.182-0.439l0.041-1.089v-0.504c0-0.244-0.153-0.455-0.338-0.56
				l-0.051-5.019c0-0.039-0.009-0.076-0.021-0.113l-0.373-3.381l0.277-0.053l-0.328-2.99c-0.034-0.308-0.304-0.54-0.634-0.54
				c-0.025,0-0.038,0.002-0.063,0.005l-0.09,0.013c-0.041,0.005-0.032,0.013-0.07,0.023c-0.35-0.508-1.46-0.863-1.46-1.021v-0.019
				c0-0.024-0.321-0.045-0.413-0.062l-0.134-0.485c0.724-0.229,1.177-0.904,1.177-1.703v-0.323c0,0,0.115,0.004,0.134,0.004
				c0.517,0,1.01-0.419,1.01-0.936c0-0.404-0.257-0.748-0.616-0.878c0.359-0.132,0.616-0.475,0.616-0.879
				c0-0.152-0.037-0.296-0.102-0.423c0.26-0.153,0.448-0.464,0.448-0.786c0-0.455-0.344-0.818-0.768-0.818
				c-0.076,0-0.148,0.021-0.217,0.043c0.038-0.103,0.059-0.194,0.059-0.312c0-0.027-0.001-0.018-0.004-0.045
				c-0.039-0.46-0.4-0.669-0.839-0.669c-0.207,0-0.402,0-0.402,0s-0.239-0.859-1.075-0.859c-0.007,0-0.136-0.067-0.136-0.067
				s0.257,23.625,0.265,23.625h0.007h-0.02c0.095,0,0.378-0.087,0.378-0.087v8.914H685.841z M686.974,289.209
				c0.041-0.122,0.064-0.259,0.064-0.416c0,0,0.002-0.188,0.005-0.504c0.001,0.001,0.002,0.002,0.004,0.002
				c0-0.21,0.001-0.472,0.002-0.782c0.204,0.014,0.223-0.073,0.223-0.2c0.007-1.242-0.001-3.021-0.014-4.705l0.16,1.438l0.006,4.875
				c-0.07,0.032-0.132,0.076-0.185,0.13c-0.088,0.023-0.17,0.067-0.236,0.133L686.974,289.209z"/>
		</g>
		<g opacity="0.5">
			<path fill="#72ADC8" d="M674.38,291.162l-0.002-0.906h0.046l0.002,1.123c0,0.091,0.074,0.138,0.165,0.138h0.003
				c0.091,0,0.166-0.048,0.166-0.138l-0.002-1.123h0.056l0.002,1.001c0,0.092,0.075,0.048,0.166,0.048l0.003,0.034
				c0.091,0,0.165-0.007,0.165-0.098l-0.001-0.985h0.04l0.001,0.956c0,0.11,0.09,0.305,0.201,0.305h0.004
				c0.111,0,0.182-0.328,0.182-0.439l0.041-1.089v-0.504c0-0.244-0.153-0.455-0.339-0.56l-0.051-5.019
				c0-0.039-0.009-0.076-0.021-0.113l-0.372-3.381l0.277-0.053l-0.328-2.99c-0.034-0.308-0.304-0.54-0.634-0.54
				c-0.025,0-0.038,0.002-0.063,0.005l-0.09,0.013c-0.041,0.005-0.032,0.013-0.07,0.023c-0.35-0.508-1.46-0.863-1.46-1.021v-0.019
				c0-0.024-0.321-0.045-0.413-0.062l-0.134-0.485c0.724-0.229,1.177-0.904,1.177-1.703v-0.323c0,0,0.115,0.004,0.134,0.004
				c0.518,0,1.011-0.419,1.011-0.936c0-0.404-0.257-0.748-0.617-0.878c0.359-0.132,0.617-0.475,0.617-0.879
				c0-0.152-0.037-0.296-0.103-0.423c0.261-0.153,0.448-0.464,0.448-0.786c0-0.455-0.344-0.818-0.768-0.818
				c-0.076,0-0.148,0.021-0.217,0.043c0.038-0.103,0.059-0.194,0.059-0.312c0-0.027-0.002-0.018-0.004-0.045
				c-0.039-0.46-0.399-0.669-0.839-0.669c-0.206,0-0.402,0-0.402,0s-0.124-0.789-0.96-0.789c-0.907,0-0.96,0.789-0.96,0.789
				s-0.195,0-0.402,0c-0.44,0-0.8,0.209-0.838,0.669c-0.004,0.027-0.004-0.021-0.004,0.008c0,0.117,0.021,0.229,0.06,0.331
				c-0.068-0.022-0.14-0.034-0.215-0.034c-0.424,0-0.766,0.368-0.766,0.823c0,0.323,0.191,0.635,0.451,0.788
				c-0.064,0.128-0.093,0.271-0.093,0.425c0,0.404,0.276,0.748,0.634,0.878c-0.358,0.131-0.583,0.475-0.583,0.879
				c0,0.517,0.489,0.936,1.004,0.936c0.022,0,0.202-0.002,0.202-0.002v0.316c0,0.777,0.357,1.439,1.05,1.686l-0.139,0.545
				c-0.092,0.024-0.281,0.052-0.281,0.082v-0.008c-0.63,0.179-1.081,0.531-1.399,0.985c-0.031-0.008-0.062-0.015-0.093-0.018
				l-0.116-0.013c-0.024-0.003-0.049-0.005-0.074-0.005c-0.331,0-0.607,0.232-0.64,0.54l-0.332,2.991l0.277,0.052l-0.374,3.381
				c-0.013,0.037-0.021,0.075-0.021,0.114l-0.003,4.981c-0.236,0.082-0.377,0.318-0.377,0.599v0.505l-0.006,0.862
				c0,0.11,0.024,0.217,0.135,0.217l0.004,0.033c0.11,0.001,0.201-0.021,0.201-0.132l0.001-0.717h0.04l-0.001,1.001
				c0,0.092,0.074,0.047,0.165,0.047l0.003,0.035c0.091,0,0.166-0.007,0.166-0.098l0.001-0.985h0.057l-0.002,1.123
				c0,0.09,0.074,0.138,0.166,0.138h0.003c0.091,0,0.166-0.047,0.165-0.138l0.002-1.123h0.046l0.002,1.051
				c0,0.109,0.094,0.21,0.205,0.21h0.012c0.111,0,0.112-0.229,0.112-0.34l-0.07-1.177l-0.145,0.01v-0.106l0,0v0.192
				c0,0.094,0.432,0.791,0.526,0.791h0.003c0.035,0,0.101-0.651,0.101-0.668v8.864h0.923l0,0h-0.623l-0.022,0.154
				c-0.132-0.097-0.214-0.196-0.214-0.196s-0.071,0.086-0.226,0.201l-0.017-0.027L669,299.309l0.016,0.025
				c-0.047,0.029-0.102,0.062-0.16,0.093l-0.01-0.019l-0.144,0.075l0.005,0.016c-0.058,0.027-0.124,0.055-0.19,0.081l-0.016-0.02
				l-0.169,0.059l-0.032,0.016c-0.054,0.019-0.25,0.037-0.25,0.055v-0.024l-0.1,0.038l0.071,0.027
				c-0.191,0.047-0.427,0.085-0.666,0.107c-0.554,0.052-0.566,0.733-0.566,0.733v0.403h6.305v-0.403l0.028-1.128
				c0,0,0.14,0.007,0.023,0.008l-0.048-0.368h-0.003v-0.591l0,0v-8.73c0.631-0.024,0.337-0.051,0.37-0.078
				c0,0.013,0.261,0.026,0.261,0.038v0.357c0,0.094-0.05,0.172,0.043,0.172l-0.124,0.006c0.095,0,0.08-0.067,0.08-0.161v0.16h0.63
				v-0.245l-0.192-0.021l-0.188,1.042c-0.001,0.109,0.09,0.201,0.201,0.201l0.004,0.005
				C674.29,291.238,674.38,291.271,674.38,291.162z M669.167,289.321l-0.144-0.145c-0.065-0.064-0.148-0.109-0.236-0.133
				c-0.031-0.031-0.066-0.06-0.103-0.085l0.005-4.924l0.164-1.521c0,1.566-0.006,3.198-0.006,4.392c0,0.154,0.011,0.198,0.125,0.198
				h-0.291v0.631h0.321c0,0.63,0.002,0.465,0.002,0.68c0.003,0,0.006-0.125,0.009-0.127c0.003,0.23,0.005,0.363,0.005,0.363
				C669.019,288.921,669.063,289.141,669.167,289.321z M672.756,299.083h-0.618l-0.022,0.154c-0.132-0.097-0.214-0.196-0.214-0.196
				s-0.071,0.086-0.227,0.201l-0.017-0.026l-0.132,0.094l0.016,0.024c-0.047,0.029-0.102,0.062-0.16,0.093l-0.009-0.019
				l-0.143,0.075l0.007,0.016c-0.057,0.027-0.119,0.055-0.186,0.08l-0.006-0.019l-0.15,0.058l0.005,0.017
				c-0.021,0.007-0.04,0.016-0.062,0.022l-0.021-0.094l-0.001,0.001l-0.019-0.121c0,0-0.064,0.007-0.181,0.008l-0.048-0.368h-0.337
				l0,0h0.338v-8.93c0.631,0.011,0.541,0.059,0.698,0.059c0.007,0,0.189,0.044,0.197,0.044c0.002,0,0.005,0,0.007,0h-0.02
				c0.095,0,0.378-0.087,0.378-0.087v8.914H672.756L672.756,299.083z M674.338,288.916c-0.07,0.032-0.132,0.076-0.185,0.13
				c-0.088,0.023-0.17,0.067-0.236,0.133l-0.03,0.03c0.041-0.122,0.064-0.259,0.064-0.416c0,0,0.002-0.188,0.006-0.504
				c0.001,0.001,0.002,0.002,0.003,0.002c0-0.21,0.001-0.472,0.002-0.782c0.204,0.014,0.223-0.073,0.224-0.2
				c0.007-1.242-0.001-3.021-0.014-4.705l0.159,1.438L674.338,288.916z"/>
			<path fill="#5397B2" d="M672.756,299.083L672.756,299.083h-0.618l-0.025,0.154c-0.133-0.097-0.218-0.196-0.218-0.196
				s-0.08,0.086-0.233,0.201l-0.032-0.027l-0.161,0.094l-0.041,0.025c-0.034,0.021-0.225,0.043-0.225,0.064v1.576h1.891v-0.403
				l0.028-1.128c0,0,0.14,0.007,0.023,0.008l-0.048-0.368h-0.003v-0.591l0,0v-8.73c0.631-0.024,0.337-0.051,0.37-0.078
				c0,0.013,0.261,0.026,0.261,0.038v0.357c0,0.094-0.05,0.172,0.043,0.172l-0.124,0.006c0.095,0,0.08-0.067,0.08-0.161v0.16h0.63
				v-0.245l-0.192-0.012l-0.188,1.048c-0.001,0.109,0.09,0.217,0.201,0.215l0.004,0.035c0.11,0,0.201-0.025,0.201-0.135
				l-0.002-0.906h0.046l0.002,1.123c0,0.091,0.074,0.138,0.165,0.138h0.003c0.091,0,0.166-0.048,0.166-0.138l-0.002-1.123h0.056
				l0.002,1.001c0,0.092,0.075,0.048,0.166,0.048l0.003,0.034c0.091,0,0.165-0.007,0.165-0.098l-0.001-0.985h0.04l0.001,0.956
				c0,0.11,0.09,0.305,0.201,0.305h0.004c0.111,0,0.182-0.328,0.182-0.439l0.041-1.089v-0.504c0-0.244-0.153-0.455-0.339-0.56
				l-0.051-5.019c0-0.039-0.009-0.076-0.021-0.113l-0.372-3.381l0.277-0.053l-0.328-2.99c-0.034-0.308-0.304-0.54-0.634-0.54
				c-0.025,0-0.038,0.002-0.063,0.005l-0.09,0.013c-0.041,0.005-0.032,0.013-0.07,0.023c-0.35-0.508-1.46-0.863-1.46-1.021v-0.019
				c0-0.024-0.321-0.045-0.413-0.062l-0.134-0.485c0.724-0.229,1.177-0.904,1.177-1.703v-0.323c0,0,0.115,0.004,0.134,0.004
				c0.518,0,1.011-0.419,1.011-0.936c0-0.404-0.257-0.748-0.617-0.878c0.359-0.132,0.617-0.475,0.617-0.879
				c0-0.152-0.037-0.296-0.103-0.423c0.261-0.153,0.448-0.464,0.448-0.786c0-0.455-0.344-0.818-0.768-0.818
				c-0.076,0-0.148,0.021-0.217,0.043c0.038-0.103,0.059-0.194,0.059-0.312c0-0.027-0.002-0.018-0.004-0.045
				c-0.039-0.46-0.399-0.669-0.839-0.669c-0.206,0-0.402,0-0.402,0s-0.239-0.859-1.075-0.859c-0.007,0-0.135-0.067-0.135-0.067
				s0.256,23.625,0.265,23.625h0.007h-0.02c0.095,0,0.378-0.087,0.378-0.087v8.914H672.756z M673.888,289.209
				c0.041-0.122,0.064-0.259,0.064-0.416c0,0,0.002-0.188,0.006-0.504c0.001,0.001,0.002,0.002,0.003,0.002
				c0-0.21,0.001-0.472,0.002-0.782c0.204,0.014,0.223-0.073,0.224-0.2c0.007-1.242-0.001-3.021-0.014-4.705l0.159,1.438
				l0.006,4.875c-0.07,0.032-0.132,0.076-0.185,0.13c-0.088,0.023-0.17,0.067-0.236,0.133L673.888,289.209z"/>
		</g>
		<g opacity="0.5">
			<path fill="#72ADC8" d="M661.538,291.162l-0.002-0.906h0.046l0.002,1.123c0,0.091,0.074,0.138,0.165,0.138h0.003
				c0.091,0,0.166-0.048,0.166-0.138l-0.002-1.123h0.056l0.002,1.001c0,0.092,0.075,0.048,0.166,0.048l0.003,0.034
				c0.091,0,0.165-0.007,0.165-0.098l-0.001-0.985h0.04l0.001,0.956c0,0.11,0.091,0.305,0.201,0.305h0.004
				c0.111,0,0.182-0.328,0.182-0.439l0.041-1.089v-0.504c0-0.244-0.153-0.455-0.339-0.56l-0.05-5.019
				c0-0.039-0.009-0.076-0.021-0.113l-0.373-3.381l0.277-0.053l-0.328-2.99c-0.034-0.308-0.303-0.54-0.634-0.54
				c-0.025,0-0.038,0.002-0.063,0.005l-0.091,0.013c-0.041,0.005-0.032,0.013-0.07,0.023c-0.35-0.508-1.46-0.863-1.46-1.021v-0.019
				c0-0.024-0.321-0.045-0.413-0.062l-0.133-0.485c0.724-0.229,1.177-0.904,1.177-1.703v-0.323c0,0,0.114,0.004,0.134,0.004
				c0.517,0,1.01-0.419,1.01-0.936c0-0.404-0.257-0.748-0.616-0.878c0.359-0.132,0.616-0.475,0.616-0.879
				c0-0.152-0.037-0.296-0.102-0.423c0.26-0.153,0.447-0.464,0.447-0.786c0-0.455-0.344-0.818-0.768-0.818
				c-0.076,0-0.148,0.021-0.217,0.043c0.038-0.103,0.059-0.194,0.059-0.312c0-0.027-0.002-0.018-0.004-0.045
				c-0.039-0.46-0.399-0.669-0.839-0.669c-0.206,0-0.402,0-0.402,0s-0.124-0.789-0.96-0.789c-0.907,0-0.96,0.789-0.96,0.789
				s-0.195,0-0.401,0c-0.44,0-0.801,0.209-0.839,0.669c-0.004,0.027-0.004-0.021-0.004,0.008c0,0.117,0.021,0.229,0.06,0.331
				c-0.068-0.022-0.141-0.034-0.216-0.034c-0.423,0-0.766,0.368-0.766,0.823c0,0.323,0.19,0.635,0.45,0.788
				c-0.064,0.128-0.093,0.271-0.093,0.425c0,0.404,0.276,0.748,0.634,0.878c-0.358,0.131-0.583,0.475-0.583,0.879
				c0,0.517,0.489,0.936,1.005,0.936c0.022,0,0.202-0.002,0.202-0.002v0.316c0,0.777,0.357,1.439,1.051,1.686l-0.139,0.545
				c-0.092,0.024-0.281,0.052-0.281,0.082v-0.008c-0.631,0.179-1.082,0.531-1.399,0.985c-0.031-0.008-0.062-0.015-0.093-0.018
				l-0.116-0.013c-0.024-0.003-0.049-0.005-0.074-0.005c-0.332,0-0.607,0.232-0.641,0.54l-0.331,2.991l0.276,0.052l-0.373,3.381
				c-0.014,0.037-0.021,0.075-0.021,0.114l-0.004,4.981c-0.236,0.082-0.377,0.318-0.377,0.599v0.505l-0.006,0.862
				c0,0.11,0.024,0.217,0.135,0.217l0.004,0.033c0.111,0.001,0.201-0.021,0.201-0.132l0.001-0.717h0.039l-0.001,1.001
				c0,0.092,0.073,0.047,0.165,0.047l0.002,0.035c0.092,0,0.166-0.007,0.166-0.098l0.002-0.985h0.057l-0.002,1.123
				c0,0.09,0.074,0.138,0.166,0.138h0.003c0.091,0,0.166-0.047,0.165-0.138l0.002-1.123h0.046l0.001,1.051
				c0,0.109,0.094,0.21,0.205,0.21h0.012c0.112,0,0.112-0.229,0.112-0.34l-0.07-1.177l-0.145,0.01v-0.106l0,0v0.192
				c0,0.094,0.432,0.791,0.526,0.791h0.003c0.035,0,0.101-0.651,0.101-0.668v8.864h0.923l0,0h-0.623l-0.022,0.154
				c-0.132-0.097-0.214-0.196-0.214-0.196s-0.071,0.086-0.226,0.201l-0.017-0.027l-0.132,0.094l0.016,0.025
				c-0.047,0.029-0.102,0.062-0.16,0.093l-0.01-0.019l-0.144,0.075l0.006,0.016c-0.058,0.027-0.125,0.055-0.191,0.081l-0.016-0.02
				l-0.169,0.059l-0.032,0.016c-0.054,0.019-0.25,0.037-0.25,0.055v-0.024l-0.1,0.038l0.072,0.027
				c-0.192,0.047-0.428,0.085-0.667,0.107c-0.554,0.052-0.566,0.733-0.566,0.733v0.403h6.305v-0.403l0.028-1.128
				c0,0,0.14,0.007,0.022,0.008l-0.048-0.368h-0.003v-0.591l0,0v-8.73c0.63-0.024,0.336-0.051,0.37-0.078
				c0,0.013,0.261,0.026,0.261,0.038v0.357c0,0.094-0.05,0.172,0.043,0.172l-0.124,0.006c0.095,0,0.08-0.067,0.08-0.161v0.16h0.63
				v-0.245l-0.192-0.021l-0.188,1.042c0,0.109,0.09,0.201,0.201,0.201l0.004,0.005C661.448,291.238,661.538,291.271,661.538,291.162
				z M656.324,289.321l-0.144-0.145c-0.065-0.064-0.148-0.109-0.236-0.133c-0.031-0.031-0.066-0.06-0.102-0.085l0.005-4.924
				l0.164-1.521c0,1.566-0.006,3.198-0.006,4.392c0,0.154,0.011,0.198,0.124,0.198h-0.291v0.631h0.321
				c0,0.63,0.002,0.465,0.002,0.68c0.003,0,0.006-0.125,0.009-0.127c0.003,0.23,0.005,0.363,0.005,0.363
				C656.176,288.921,656.221,289.141,656.324,289.321z M659.913,299.083h-0.618l-0.022,0.154c-0.132-0.097-0.214-0.196-0.214-0.196
				s-0.071,0.086-0.227,0.201l-0.017-0.026l-0.132,0.094l0.016,0.024c-0.047,0.029-0.102,0.062-0.16,0.093l-0.008-0.019
				l-0.143,0.075l0.007,0.016c-0.057,0.027-0.119,0.055-0.186,0.08l-0.006-0.019l-0.15,0.058l0.005,0.017
				c-0.021,0.007-0.039,0.016-0.062,0.022l-0.021-0.094l-0.001,0.001l-0.019-0.121c0,0-0.064,0.007-0.181,0.008l-0.048-0.368h-0.337
				l0,0h0.338v-8.93c0.63,0.011,0.541,0.059,0.698,0.059c0.007,0,0.189,0.044,0.197,0.044c0.002,0,0.005,0,0.007,0h-0.02
				c0.095,0,0.378-0.087,0.378-0.087v8.914H659.913L659.913,299.083z M661.496,288.916c-0.069,0.032-0.132,0.076-0.185,0.13
				c-0.088,0.023-0.17,0.067-0.236,0.133l-0.03,0.03c0.041-0.122,0.064-0.259,0.064-0.416c0,0,0.002-0.188,0.006-0.504
				c0.001,0.001,0.002,0.002,0.003,0.002c0-0.21,0.001-0.472,0.002-0.782c0.204,0.014,0.223-0.073,0.224-0.2
				c0.007-1.242-0.001-3.021-0.014-4.705l0.159,1.438L661.496,288.916z"/>
			<path fill="#5397B2" d="M659.913,299.083L659.913,299.083h-0.618l-0.025,0.154c-0.133-0.097-0.218-0.196-0.218-0.196
				s-0.079,0.086-0.233,0.201l-0.032-0.027l-0.161,0.094l-0.041,0.025c-0.034,0.021-0.225,0.043-0.225,0.064v1.576h1.892v-0.403
				l0.028-1.128c0,0,0.14,0.007,0.022,0.008l-0.048-0.368h-0.003v-0.591l0,0v-8.73c0.63-0.024,0.336-0.051,0.37-0.078
				c0,0.013,0.261,0.026,0.261,0.038v0.357c0,0.094-0.05,0.172,0.043,0.172l-0.124,0.006c0.095,0,0.08-0.067,0.08-0.161v0.16h0.63
				v-0.245l-0.192-0.012l-0.188,1.048c0,0.109,0.09,0.217,0.201,0.215l0.004,0.035c0.111,0,0.201-0.025,0.201-0.135l-0.002-0.906
				h0.046l0.002,1.123c0,0.091,0.074,0.138,0.165,0.138h0.003c0.091,0,0.166-0.048,0.166-0.138l-0.002-1.123h0.056l0.002,1.001
				c0,0.092,0.075,0.048,0.166,0.048l0.003,0.034c0.091,0,0.165-0.007,0.165-0.098l-0.001-0.985h0.04l0.001,0.956
				c0,0.11,0.091,0.305,0.201,0.305h0.004c0.111,0,0.182-0.328,0.182-0.439l0.041-1.089v-0.504c0-0.244-0.153-0.455-0.339-0.56
				l-0.05-5.019c0-0.039-0.009-0.076-0.021-0.113l-0.373-3.381l0.277-0.053l-0.328-2.99c-0.034-0.308-0.303-0.54-0.634-0.54
				c-0.025,0-0.038,0.002-0.063,0.005l-0.091,0.013c-0.041,0.005-0.032,0.013-0.07,0.023c-0.35-0.508-1.46-0.863-1.46-1.021v-0.019
				c0-0.024-0.321-0.045-0.413-0.062l-0.133-0.485c0.724-0.229,1.177-0.904,1.177-1.703v-0.323c0,0,0.114,0.004,0.134,0.004
				c0.517,0,1.01-0.419,1.01-0.936c0-0.404-0.257-0.748-0.616-0.878c0.359-0.132,0.616-0.475,0.616-0.879
				c0-0.152-0.037-0.296-0.102-0.423c0.26-0.153,0.447-0.464,0.447-0.786c0-0.455-0.344-0.818-0.768-0.818
				c-0.076,0-0.148,0.021-0.217,0.043c0.038-0.103,0.059-0.194,0.059-0.312c0-0.027-0.002-0.018-0.004-0.045
				c-0.039-0.46-0.399-0.669-0.839-0.669c-0.206,0-0.402,0-0.402,0s-0.239-0.859-1.075-0.859c-0.007,0-0.135-0.067-0.135-0.067
				s0.257,23.625,0.265,23.625h0.007h-0.02c0.095,0,0.378-0.087,0.378-0.087v8.914H659.913z M661.045,289.209
				c0.041-0.122,0.064-0.259,0.064-0.416c0,0,0.002-0.188,0.006-0.504c0.001,0.001,0.002,0.002,0.003,0.002
				c0-0.21,0.001-0.472,0.002-0.782c0.204,0.014,0.223-0.073,0.224-0.2c0.007-1.242-0.001-3.021-0.014-4.705l0.159,1.438
				l0.006,4.875c-0.069,0.032-0.132,0.076-0.185,0.13c-0.088,0.023-0.17,0.067-0.236,0.133L661.045,289.209z"/>
		</g>
		<g opacity="0.5">
			<path fill="#72ADC8" d="M648.695,291.162l-0.002-0.906h0.046l0.001,1.123c0,0.091,0.074,0.138,0.165,0.138h0.003
				c0.091,0,0.166-0.048,0.166-0.138l-0.002-1.123h0.056l0.001,1.001c0,0.092,0.075,0.048,0.166,0.048l0.003,0.034
				c0.091,0,0.165-0.007,0.165-0.098l-0.001-0.985h0.04l0.001,0.956c0,0.11,0.09,0.305,0.2,0.305h0.004
				c0.111,0,0.183-0.328,0.183-0.439l0.041-1.089v-0.504c0-0.244-0.153-0.455-0.339-0.56l-0.05-5.019
				c0-0.039-0.009-0.076-0.021-0.113l-0.373-3.381l0.277-0.053l-0.328-2.99c-0.034-0.308-0.303-0.54-0.634-0.54
				c-0.025,0-0.038,0.002-0.063,0.005l-0.091,0.013c-0.041,0.005-0.032,0.013-0.07,0.023c-0.35-0.508-1.46-0.863-1.46-1.021v-0.019
				c0-0.024-0.321-0.045-0.414-0.062l-0.133-0.485c0.724-0.229,1.177-0.904,1.177-1.703v-0.323c0,0,0.114,0.004,0.134,0.004
				c0.517,0,1.01-0.419,1.01-0.936c0-0.404-0.257-0.748-0.616-0.878c0.359-0.132,0.616-0.475,0.616-0.879
				c0-0.152-0.037-0.296-0.102-0.423c0.26-0.153,0.447-0.464,0.447-0.786c0-0.455-0.344-0.818-0.768-0.818
				c-0.076,0-0.148,0.021-0.217,0.043c0.038-0.103,0.059-0.194,0.059-0.312c0-0.027-0.002-0.018-0.004-0.045
				c-0.039-0.46-0.399-0.669-0.839-0.669c-0.207,0-0.402,0-0.402,0s-0.124-0.789-0.96-0.789c-0.907,0-0.96,0.789-0.96,0.789
				s-0.195,0-0.401,0c-0.44,0-0.801,0.209-0.839,0.669c-0.003,0.027-0.004-0.021-0.004,0.008c0,0.117,0.022,0.229,0.06,0.331
				c-0.068-0.022-0.141-0.034-0.216-0.034c-0.423,0-0.766,0.368-0.766,0.823c0,0.323,0.191,0.635,0.451,0.788
				c-0.064,0.128-0.094,0.271-0.094,0.425c0,0.404,0.276,0.748,0.634,0.878c-0.358,0.131-0.583,0.475-0.583,0.879
				c0,0.517,0.489,0.936,1.005,0.936c0.022,0,0.202-0.002,0.202-0.002v0.316c0,0.777,0.357,1.439,1.051,1.686l-0.139,0.545
				c-0.092,0.024-0.281,0.052-0.281,0.082v-0.008c-0.631,0.179-1.081,0.531-1.399,0.985c-0.031-0.008-0.062-0.015-0.093-0.018
				l-0.116-0.013c-0.024-0.003-0.049-0.005-0.074-0.005c-0.332,0-0.607,0.232-0.641,0.54l-0.331,2.991l0.276,0.052l-0.373,3.381
				c-0.014,0.037-0.021,0.075-0.021,0.114l-0.004,4.981c-0.236,0.082-0.376,0.318-0.376,0.599v0.505l-0.006,0.862
				c0,0.11,0.024,0.217,0.135,0.217l0.004,0.033c0.111,0.001,0.201-0.021,0.201-0.132l0.001-0.717h0.039l-0.001,1.001
				c0,0.092,0.073,0.047,0.165,0.047l0.002,0.035c0.092,0,0.166-0.007,0.166-0.098l0.002-0.985h0.057l-0.002,1.123
				c0,0.09,0.074,0.138,0.166,0.138h0.003c0.091,0,0.166-0.047,0.165-0.138l0.002-1.123h0.046l0.002,1.051
				c0,0.109,0.094,0.21,0.205,0.21h0.013c0.111,0,0.112-0.229,0.112-0.34L643.141,290l-0.146,0.01v-0.106l0,0v0.192
				c0,0.094,0.432,0.791,0.526,0.791h0.003c0.035,0,0.101-0.651,0.101-0.668v8.864h0.923l0,0h-0.623l-0.022,0.154
				c-0.132-0.097-0.214-0.196-0.214-0.196s-0.071,0.086-0.226,0.201l-0.018-0.027l-0.132,0.094l0.016,0.025
				c-0.047,0.029-0.102,0.062-0.159,0.093l-0.01-0.019l-0.144,0.075l0.006,0.016c-0.058,0.027-0.125,0.055-0.191,0.081l-0.016-0.02
				l-0.169,0.059l-0.032,0.016c-0.054,0.019-0.25,0.037-0.25,0.055v-0.024l-0.1,0.038l0.072,0.027
				c-0.191,0.047-0.427,0.085-0.667,0.107c-0.554,0.052-0.566,0.733-0.566,0.733v0.403h6.305v-0.403l0.028-1.128
				c0,0,0.14,0.007,0.023,0.008l-0.048-0.368h-0.003v-0.591l0,0v-8.73c0.63-0.024,0.337-0.051,0.37-0.078
				c-0.001,0.013,0.26,0.026,0.26,0.038v0.357c0,0.094-0.05,0.172,0.044,0.172l-0.124,0.006c0.095,0,0.08-0.067,0.08-0.161v0.16
				h0.63v-0.245l-0.192-0.021l-0.188,1.042c0,0.109,0.09,0.201,0.201,0.201l0.004,0.005
				C648.605,291.238,648.695,291.271,648.695,291.162z M643.481,289.321l-0.144-0.145c-0.065-0.064-0.148-0.109-0.236-0.133
				c-0.031-0.031-0.066-0.06-0.102-0.085l0.005-4.924l0.164-1.521c0,1.566-0.006,3.198-0.006,4.392c0,0.154,0.011,0.198,0.124,0.198
				h-0.291v0.631h0.321c0.001,0.63,0.002,0.465,0.002,0.68c0.003,0,0.006-0.125,0.009-0.127c0.003,0.23,0.005,0.363,0.005,0.363
				C643.333,288.921,643.378,289.141,643.481,289.321z M647.07,299.083h-0.618l-0.022,0.154c-0.132-0.097-0.213-0.196-0.213-0.196
				s-0.072,0.086-0.227,0.201l-0.018-0.026l-0.132,0.094l0.016,0.024c-0.047,0.029-0.102,0.062-0.16,0.093l-0.008-0.019
				l-0.143,0.075l0.007,0.016c-0.057,0.027-0.119,0.055-0.186,0.08l-0.006-0.019l-0.15,0.058l0.005,0.017
				c-0.021,0.007-0.039,0.016-0.062,0.022l-0.02-0.094l-0.001,0.001l-0.019-0.121c0,0-0.064,0.007-0.181,0.008l-0.048-0.368h-0.336
				l0,0h0.338v-8.93c0.63,0.011,0.541,0.059,0.698,0.059c0.007,0,0.189,0.044,0.197,0.044c0.002,0,0.005,0,0.007,0h-0.02
				c0.095,0,0.378-0.087,0.378-0.087v8.914H647.07L647.07,299.083z M648.653,288.916c-0.069,0.032-0.132,0.076-0.185,0.13
				c-0.088,0.023-0.17,0.067-0.236,0.133l-0.029,0.03c0.041-0.122,0.064-0.259,0.064-0.416c0,0,0.001-0.188,0.005-0.504
				c0.001,0.001,0.002,0.002,0.004,0.002c0-0.21,0.001-0.472,0.001-0.782c0.204,0.014,0.223-0.073,0.224-0.2
				c0.007-1.242-0.001-3.021-0.014-4.705l0.16,1.438L648.653,288.916z"/>
			<path fill="#5397B2" d="M647.07,299.083L647.07,299.083h-0.618l-0.025,0.154c-0.133-0.097-0.218-0.196-0.218-0.196
				s-0.079,0.086-0.233,0.201l-0.032-0.027l-0.161,0.094l-0.041,0.025c-0.035,0.021-0.226,0.043-0.226,0.064v1.576h1.892v-0.403
				l0.028-1.128c0,0,0.14,0.007,0.023,0.008l-0.048-0.368h-0.003v-0.591l0,0v-8.73c0.63-0.024,0.337-0.051,0.37-0.078
				c-0.001,0.013,0.26,0.026,0.26,0.038v0.357c0,0.094-0.05,0.172,0.044,0.172l-0.124,0.006c0.095,0,0.08-0.067,0.08-0.161v0.16
				h0.63v-0.245l-0.192-0.012l-0.188,1.048c0,0.109,0.09,0.217,0.201,0.215l0.004,0.035c0.111,0,0.201-0.025,0.201-0.135
				l-0.002-0.906h0.046l0.001,1.123c0,0.091,0.074,0.138,0.165,0.138h0.003c0.091,0,0.166-0.048,0.166-0.138l-0.002-1.123h0.056
				l0.001,1.001c0,0.092,0.075,0.048,0.166,0.048l0.003,0.034c0.091,0,0.165-0.007,0.165-0.098l-0.001-0.985h0.04l0.001,0.956
				c0,0.11,0.09,0.305,0.2,0.305h0.004c0.111,0,0.183-0.328,0.183-0.439l0.041-1.089v-0.504c0-0.244-0.153-0.455-0.339-0.56
				l-0.05-5.019c0-0.039-0.009-0.076-0.021-0.113l-0.373-3.381l0.277-0.053l-0.328-2.99c-0.034-0.308-0.303-0.54-0.634-0.54
				c-0.025,0-0.038,0.002-0.063,0.005l-0.091,0.013c-0.041,0.005-0.032,0.013-0.07,0.023c-0.35-0.508-1.46-0.863-1.46-1.021v-0.019
				c0-0.024-0.321-0.045-0.414-0.062l-0.133-0.485c0.724-0.229,1.177-0.904,1.177-1.703v-0.323c0,0,0.114,0.004,0.134,0.004
				c0.517,0,1.01-0.419,1.01-0.936c0-0.404-0.257-0.748-0.616-0.878c0.359-0.132,0.616-0.475,0.616-0.879
				c0-0.152-0.037-0.296-0.102-0.423c0.26-0.153,0.447-0.464,0.447-0.786c0-0.455-0.344-0.818-0.768-0.818
				c-0.076,0-0.148,0.021-0.217,0.043c0.038-0.103,0.059-0.194,0.059-0.312c0-0.027-0.002-0.018-0.004-0.045
				c-0.039-0.46-0.399-0.669-0.839-0.669c-0.207,0-0.402,0-0.402,0s-0.239-0.859-1.075-0.859c-0.007,0-0.135-0.067-0.135-0.067
				s0.257,23.625,0.265,23.625h0.007h-0.02c0.095,0,0.378-0.087,0.378-0.087v8.914H647.07z M648.203,289.209
				c0.041-0.122,0.064-0.259,0.064-0.416c0,0,0.001-0.188,0.005-0.504c0.001,0.001,0.002,0.002,0.004,0.002
				c0-0.21,0.001-0.472,0.001-0.782c0.204,0.014,0.223-0.073,0.224-0.2c0.007-1.242-0.001-3.021-0.014-4.705l0.16,1.438l0.006,4.875
				c-0.069,0.032-0.132,0.076-0.185,0.13c-0.088,0.023-0.17,0.067-0.236,0.133L648.203,289.209z"/>
		</g>
		<g opacity="0.5">
			<path fill="#72ADC8" d="M635.852,291.162l-0.002-0.906h0.046l0.001,1.123c0,0.091,0.074,0.138,0.165,0.138h0.003
				c0.091,0,0.166-0.048,0.166-0.138l-0.002-1.123h0.056l0.002,1.001c0,0.092,0.074,0.048,0.166,0.048l0.003,0.034
				c0.091,0,0.165-0.007,0.165-0.098l-0.001-0.985h0.04l0.001,0.956c0,0.11,0.09,0.305,0.201,0.305h0.004
				c0.11,0,0.182-0.328,0.182-0.439l0.041-1.089v-0.504c0-0.244-0.153-0.455-0.339-0.56l-0.05-5.019
				c0-0.039-0.009-0.076-0.021-0.113l-0.373-3.381l0.277-0.053l-0.328-2.99c-0.034-0.308-0.304-0.54-0.634-0.54
				c-0.025,0-0.038,0.002-0.063,0.005l-0.09,0.013c-0.041,0.005-0.032,0.013-0.07,0.023c-0.35-0.508-1.46-0.863-1.46-1.021v-0.019
				c0-0.024-0.321-0.045-0.413-0.062l-0.134-0.485c0.724-0.229,1.177-0.904,1.177-1.703v-0.323c0,0,0.115,0.004,0.134,0.004
				c0.517,0,1.01-0.419,1.01-0.936c0-0.404-0.257-0.748-0.616-0.878c0.359-0.132,0.616-0.475,0.616-0.879
				c0-0.152-0.037-0.296-0.102-0.423c0.26-0.153,0.448-0.464,0.448-0.786c0-0.455-0.344-0.818-0.768-0.818
				c-0.076,0-0.148,0.021-0.217,0.043c0.038-0.103,0.059-0.194,0.059-0.312c0-0.027-0.001-0.018-0.004-0.045
				c-0.039-0.46-0.399-0.669-0.839-0.669c-0.207,0-0.402,0-0.402,0s-0.124-0.789-0.96-0.789c-0.907,0-0.96,0.789-0.96,0.789
				s-0.195,0-0.401,0c-0.44,0-0.8,0.209-0.839,0.669c-0.003,0.027-0.004-0.021-0.004,0.008c0,0.117,0.021,0.229,0.06,0.331
				c-0.068-0.022-0.141-0.034-0.215-0.034c-0.424,0-0.766,0.368-0.766,0.823c0,0.323,0.191,0.635,0.451,0.788
				c-0.064,0.128-0.094,0.271-0.094,0.425c0,0.404,0.276,0.748,0.634,0.878c-0.358,0.131-0.583,0.475-0.583,0.879
				c0,0.517,0.489,0.936,1.005,0.936c0.022,0,0.202-0.002,0.202-0.002v0.316c0,0.777,0.357,1.439,1.05,1.686l-0.139,0.545
				c-0.092,0.024-0.281,0.052-0.281,0.082v-0.008c-0.63,0.179-1.081,0.531-1.399,0.985c-0.031-0.008-0.062-0.015-0.093-0.018
				l-0.117-0.013c-0.024-0.003-0.049-0.005-0.074-0.005c-0.332,0-0.607,0.232-0.64,0.54l-0.332,2.991l0.276,0.052l-0.373,3.381
				c-0.014,0.037-0.021,0.075-0.021,0.114l-0.004,4.981c-0.236,0.082-0.376,0.318-0.376,0.599v0.505l-0.006,0.862
				c0,0.11,0.024,0.217,0.135,0.217l0.004,0.033c0.111,0.001,0.201-0.021,0.201-0.132l0.001-0.717h0.04l-0.001,1.001
				c0,0.092,0.073,0.047,0.165,0.047l0.002,0.035c0.092,0,0.167-0.007,0.166-0.098l0.002-0.985h0.057l-0.002,1.123
				c0,0.09,0.075,0.138,0.166,0.138h0.003c0.091,0,0.166-0.047,0.165-0.138l0.001-1.123h0.046l0.002,1.051
				c0,0.109,0.094,0.21,0.205,0.21h0.012c0.111,0,0.112-0.229,0.112-0.34L630.298,290l-0.146,0.01v-0.106l0,0v0.192
				c0,0.094,0.432,0.791,0.526,0.791h0.003c0.034,0,0.101-0.651,0.101-0.668v8.864h0.923l0,0h-0.623l-0.022,0.154
				c-0.132-0.097-0.214-0.196-0.214-0.196s-0.071,0.086-0.226,0.201l-0.018-0.027l-0.131,0.094l0.016,0.025
				c-0.047,0.029-0.102,0.062-0.159,0.093l-0.01-0.019l-0.144,0.075l0.005,0.016c-0.058,0.027-0.125,0.055-0.191,0.081l-0.016-0.02
				l-0.169,0.059l-0.032,0.016c-0.054,0.019-0.25,0.037-0.25,0.055v-0.024l-0.1,0.038l0.071,0.027
				c-0.191,0.047-0.427,0.085-0.666,0.107c-0.554,0.052-0.567,0.733-0.567,0.733v0.403h6.305v-0.403l0.028-1.128
				c0,0,0.14,0.007,0.023,0.008l-0.048-0.368h-0.003v-0.591l0,0v-8.73c0.63-0.024,0.337-0.051,0.37-0.078
				c0,0.013,0.26,0.026,0.26,0.038v0.357c0,0.094-0.05,0.172,0.044,0.172l-0.124,0.006c0.095,0,0.08-0.067,0.08-0.161v0.16h0.631
				v-0.245l-0.192-0.021l-0.188,1.042c0,0.109,0.09,0.201,0.201,0.201l0.004,0.005C635.762,291.238,635.852,291.271,635.852,291.162
				z M630.639,289.321l-0.144-0.145c-0.065-0.064-0.147-0.109-0.236-0.133c-0.031-0.031-0.066-0.06-0.102-0.085l0.005-4.924
				l0.164-1.521c0,1.566-0.006,3.198-0.006,4.392c0,0.154,0.011,0.198,0.125,0.198h-0.292v0.631h0.321
				c0.001,0.63,0.002,0.465,0.003,0.68c0.003,0,0.006-0.125,0.008-0.127c0.003,0.23,0.005,0.363,0.005,0.363
				C630.49,288.921,630.536,289.141,630.639,289.321z M634.228,299.083h-0.618l-0.022,0.154c-0.132-0.097-0.213-0.196-0.213-0.196
				s-0.072,0.086-0.227,0.201l-0.018-0.026l-0.132,0.094l0.016,0.024c-0.047,0.029-0.102,0.062-0.159,0.093l-0.009-0.019
				l-0.143,0.075l0.008,0.016c-0.058,0.027-0.119,0.055-0.186,0.08l-0.006-0.019l-0.15,0.058l0.005,0.017
				c-0.021,0.007-0.04,0.016-0.062,0.022l-0.02-0.094l-0.001,0.001l-0.018-0.121c0,0-0.064,0.007-0.181,0.008l-0.048-0.368h-0.337
				l0,0h0.338v-8.93c0.63,0.011,0.541,0.059,0.698,0.059c0.007,0,0.189,0.044,0.197,0.044c0.002,0,0.005,0,0.007,0h-0.02
				c0.095,0,0.378-0.087,0.378-0.087v8.914H634.228L634.228,299.083z M635.811,288.916c-0.07,0.032-0.132,0.076-0.185,0.13
				c-0.088,0.023-0.17,0.067-0.236,0.133l-0.029,0.03c0.041-0.122,0.064-0.259,0.064-0.416c0,0,0.002-0.188,0.005-0.504
				c0.001,0.001,0.002,0.002,0.004,0.002c0-0.21,0.001-0.472,0.002-0.782c0.204,0.014,0.223-0.073,0.223-0.2
				c0.007-1.242-0.001-3.021-0.014-4.705l0.16,1.438L635.811,288.916z"/>
			<path fill="#5397B2" d="M634.228,299.083L634.228,299.083h-0.618l-0.025,0.154c-0.133-0.097-0.218-0.196-0.218-0.196
				s-0.08,0.086-0.233,0.201l-0.032-0.027l-0.161,0.094l-0.041,0.025c-0.035,0.021-0.226,0.043-0.226,0.064v1.576h1.892v-0.403
				l0.028-1.128c0,0,0.14,0.007,0.023,0.008l-0.048-0.368h-0.003v-0.591l0,0v-8.73c0.63-0.024,0.337-0.051,0.37-0.078
				c0,0.013,0.26,0.026,0.26,0.038v0.357c0,0.094-0.05,0.172,0.044,0.172l-0.124,0.006c0.095,0,0.08-0.067,0.08-0.161v0.16h0.631
				v-0.245l-0.192-0.012l-0.188,1.048c0,0.109,0.09,0.217,0.201,0.215l0.004,0.035c0.111,0,0.201-0.025,0.201-0.135l-0.002-0.906
				h0.046l0.001,1.123c0,0.091,0.074,0.138,0.165,0.138h0.003c0.091,0,0.166-0.048,0.166-0.138l-0.002-1.123h0.056l0.002,1.001
				c0,0.092,0.074,0.048,0.166,0.048l0.003,0.034c0.091,0,0.165-0.007,0.165-0.098l-0.001-0.985h0.04l0.001,0.956
				c0,0.11,0.09,0.305,0.201,0.305h0.004c0.11,0,0.182-0.328,0.182-0.439l0.041-1.089v-0.504c0-0.244-0.153-0.455-0.339-0.56
				l-0.05-5.019c0-0.039-0.009-0.076-0.021-0.113l-0.373-3.381l0.277-0.053l-0.328-2.99c-0.034-0.308-0.304-0.54-0.634-0.54
				c-0.025,0-0.038,0.002-0.063,0.005l-0.09,0.013c-0.041,0.005-0.032,0.013-0.07,0.023c-0.35-0.508-1.46-0.863-1.46-1.021v-0.019
				c0-0.024-0.321-0.045-0.413-0.062l-0.134-0.485c0.724-0.229,1.177-0.904,1.177-1.703v-0.323c0,0,0.115,0.004,0.134,0.004
				c0.517,0,1.01-0.419,1.01-0.936c0-0.404-0.257-0.748-0.616-0.878c0.359-0.132,0.616-0.475,0.616-0.879
				c0-0.152-0.037-0.296-0.102-0.423c0.26-0.153,0.448-0.464,0.448-0.786c0-0.455-0.344-0.818-0.768-0.818
				c-0.076,0-0.148,0.021-0.217,0.043c0.038-0.103,0.059-0.194,0.059-0.312c0-0.027-0.001-0.018-0.004-0.045
				c-0.039-0.46-0.399-0.669-0.839-0.669c-0.207,0-0.402,0-0.402,0s-0.239-0.859-1.075-0.859c-0.007,0-0.136-0.067-0.136-0.067
				s0.257,23.625,0.265,23.625h0.007h-0.02c0.095,0,0.378-0.087,0.378-0.087v8.914H634.228z M635.36,289.209
				c0.041-0.122,0.064-0.259,0.064-0.416c0,0,0.002-0.188,0.005-0.504c0.001,0.001,0.002,0.002,0.004,0.002
				c0-0.21,0.001-0.472,0.002-0.782c0.204,0.014,0.223-0.073,0.223-0.2c0.007-1.242-0.001-3.021-0.014-4.705l0.16,1.438l0.006,4.875
				c-0.07,0.032-0.132,0.076-0.185,0.13c-0.088,0.023-0.17,0.067-0.236,0.133L635.36,289.209z"/>
		</g>
		<g opacity="0.5">
			<path fill="#72ADC8" d="M623.009,291.162l-0.002-0.906h0.046l0.002,1.123c0,0.091,0.074,0.138,0.165,0.138h0.003
				c0.091,0,0.166-0.048,0.166-0.138l-0.002-1.123h0.056l0.002,1.001c0,0.092,0.074,0.048,0.166,0.048l0.003,0.034
				c0.091,0,0.165-0.007,0.165-0.098l-0.001-0.985h0.039l0.001,0.956c0,0.11,0.09,0.305,0.201,0.305h0.004
				c0.111,0,0.182-0.328,0.182-0.439l0.041-1.089v-0.504c0-0.244-0.152-0.455-0.338-0.56l-0.051-5.019
				c0-0.039-0.009-0.076-0.021-0.113l-0.373-3.381l0.277-0.053l-0.328-2.99c-0.034-0.308-0.304-0.54-0.634-0.54
				c-0.025,0-0.038,0.002-0.063,0.005l-0.09,0.013c-0.041,0.005-0.032,0.013-0.07,0.023c-0.35-0.508-1.46-0.863-1.46-1.021v-0.019
				c0-0.024-0.321-0.045-0.413-0.062l-0.134-0.485c0.724-0.229,1.177-0.904,1.177-1.703v-0.323c0,0,0.115,0.004,0.134,0.004
				c0.517,0,1.01-0.419,1.01-0.936c0-0.404-0.257-0.748-0.616-0.878c0.359-0.132,0.616-0.475,0.616-0.879
				c0-0.152-0.037-0.296-0.102-0.423c0.261-0.153,0.448-0.464,0.448-0.786c0-0.455-0.344-0.818-0.768-0.818
				c-0.076,0-0.148,0.021-0.217,0.043c0.038-0.103,0.06-0.194,0.06-0.312c0-0.027-0.002-0.018-0.004-0.045
				c-0.039-0.46-0.4-0.669-0.839-0.669c-0.206,0-0.402,0-0.402,0s-0.124-0.789-0.96-0.789c-0.907,0-0.96,0.789-0.96,0.789
				s-0.195,0-0.401,0c-0.44,0-0.8,0.209-0.838,0.669c-0.004,0.027-0.004-0.021-0.004,0.008c0,0.117,0.021,0.229,0.06,0.331
				c-0.068-0.022-0.14-0.034-0.215-0.034c-0.424,0-0.766,0.368-0.766,0.823c0,0.323,0.191,0.635,0.451,0.788
				c-0.064,0.128-0.094,0.271-0.094,0.425c0,0.404,0.276,0.748,0.634,0.878c-0.358,0.131-0.583,0.475-0.583,0.879
				c0,0.517,0.489,0.936,1.005,0.936c0.022,0,0.202-0.002,0.202-0.002v0.316c0,0.777,0.357,1.439,1.05,1.686l-0.139,0.545
				c-0.092,0.024-0.281,0.052-0.281,0.082v-0.008c-0.63,0.179-1.081,0.531-1.399,0.985c-0.031-0.008-0.062-0.015-0.093-0.018
				l-0.117-0.013c-0.024-0.003-0.049-0.005-0.074-0.005c-0.331,0-0.607,0.232-0.64,0.54l-0.332,2.991l0.277,0.052l-0.374,3.381
				c-0.013,0.037-0.021,0.075-0.021,0.114l-0.003,4.981c-0.237,0.082-0.377,0.318-0.377,0.599v0.505l-0.006,0.862
				c0,0.11,0.024,0.217,0.135,0.217l0.004,0.033c0.111,0.001,0.202-0.021,0.202-0.132l0.001-0.717h0.04l-0.001,1.001
				c0,0.092,0.073,0.047,0.165,0.047l0.002,0.035c0.092,0,0.167-0.007,0.166-0.098l0.001-0.985h0.057l-0.002,1.123
				c0,0.09,0.075,0.138,0.166,0.138h0.003c0.091,0,0.166-0.047,0.165-0.138l0.002-1.123h0.046l0.002,1.051
				c0,0.109,0.094,0.21,0.205,0.21h0.012c0.111,0,0.112-0.229,0.112-0.34L617.455,290l-0.146,0.01v-0.106l0,0v0.192
				c0,0.094,0.433,0.791,0.527,0.791h0.003c0.035,0,0.101-0.651,0.101-0.668v8.864h0.923l0,0h-0.623l-0.022,0.154
				c-0.133-0.097-0.214-0.196-0.214-0.196s-0.071,0.086-0.226,0.201l-0.017-0.027l-0.132,0.094l0.016,0.025
				c-0.048,0.029-0.102,0.062-0.16,0.093l-0.01-0.019l-0.144,0.075l0.005,0.016c-0.058,0.027-0.125,0.055-0.191,0.081l-0.016-0.02
				l-0.169,0.059l-0.032,0.016c-0.054,0.019-0.25,0.037-0.25,0.055v-0.024l-0.1,0.038l0.071,0.027
				c-0.191,0.047-0.427,0.085-0.666,0.107c-0.554,0.052-0.566,0.733-0.566,0.733v0.403h6.305v-0.403l0.028-1.128
				c0,0,0.14,0.007,0.023,0.008l-0.048-0.368h-0.003v-0.591l0,0v-8.73c0.63-0.024,0.337-0.051,0.37-0.078
				c0,0.013,0.26,0.026,0.26,0.038v0.357c0,0.094-0.05,0.172,0.044,0.172l-0.124,0.006c0.095,0,0.08-0.067,0.08-0.161v0.16h0.631
				v-0.245l-0.192-0.021l-0.188,1.042c0,0.109,0.09,0.201,0.201,0.201l0.004,0.005C622.919,291.238,623.009,291.271,623.009,291.162
				z M617.796,289.321l-0.144-0.145c-0.065-0.064-0.148-0.109-0.236-0.133c-0.031-0.031-0.066-0.06-0.103-0.085l0.005-4.924
				l0.164-1.521c0,1.566-0.006,3.198-0.006,4.392c0,0.154,0.011,0.198,0.125,0.198h-0.292v0.631h0.322
				c0,0.63,0.001,0.465,0.002,0.68c0.003,0,0.006-0.125,0.008-0.127c0.003,0.23,0.006,0.363,0.006,0.363
				C617.648,288.921,617.693,289.141,617.796,289.321z M621.385,299.083h-0.618l-0.022,0.154c-0.133-0.097-0.214-0.196-0.214-0.196
				s-0.071,0.086-0.227,0.201l-0.017-0.026l-0.132,0.094l0.016,0.024c-0.048,0.029-0.102,0.062-0.16,0.093l-0.009-0.019
				l-0.143,0.075l0.007,0.016c-0.057,0.027-0.119,0.055-0.186,0.08l-0.006-0.019l-0.15,0.058l0.005,0.017
				c-0.021,0.007-0.04,0.016-0.062,0.022l-0.021-0.094l-0.001,0.001l-0.019-0.121c0,0-0.064,0.007-0.181,0.008l-0.048-0.368h-0.337
				l0,0h0.338v-8.93c0.63,0.011,0.541,0.059,0.698,0.059c0.007,0,0.189,0.044,0.197,0.044c0.002,0,0.005,0,0.007,0h-0.02
				c0.095,0,0.378-0.087,0.378-0.087v8.914H621.385L621.385,299.083z M622.968,288.916c-0.07,0.032-0.132,0.076-0.185,0.13
				c-0.088,0.023-0.17,0.067-0.236,0.133l-0.029,0.03c0.041-0.122,0.064-0.259,0.064-0.416c0,0,0.002-0.188,0.005-0.504
				c0.001,0.001,0.002,0.002,0.004,0.002c0-0.21,0.001-0.472,0.002-0.782c0.204,0.014,0.223-0.073,0.224-0.2
				c0.006-1.242-0.001-3.021-0.015-4.705l0.16,1.438L622.968,288.916z"/>
			<path fill="#5397B2" d="M621.385,299.083L621.385,299.083h-0.618l-0.025,0.154c-0.133-0.097-0.218-0.196-0.218-0.196
				s-0.08,0.086-0.233,0.201l-0.032-0.027l-0.161,0.094l-0.041,0.025c-0.035,0.021-0.226,0.043-0.226,0.064v1.576h1.892v-0.403
				l0.028-1.128c0,0,0.14,0.007,0.023,0.008l-0.048-0.368h-0.003v-0.591l0,0v-8.73c0.63-0.024,0.337-0.051,0.37-0.078
				c0,0.013,0.26,0.026,0.26,0.038v0.357c0,0.094-0.05,0.172,0.044,0.172l-0.124,0.006c0.095,0,0.08-0.067,0.08-0.161v0.16h0.631
				v-0.245l-0.192-0.012l-0.188,1.048c0,0.109,0.09,0.217,0.201,0.215l0.004,0.035c0.111,0,0.201-0.025,0.201-0.135l-0.002-0.906
				h0.046l0.002,1.123c0,0.091,0.074,0.138,0.165,0.138h0.003c0.091,0,0.166-0.048,0.166-0.138l-0.002-1.123h0.056l0.002,1.001
				c0,0.092,0.074,0.048,0.166,0.048l0.003,0.034c0.091,0,0.165-0.007,0.165-0.098l-0.001-0.985h0.039l0.001,0.956
				c0,0.11,0.09,0.305,0.201,0.305h0.004c0.111,0,0.182-0.328,0.182-0.439l0.041-1.089v-0.504c0-0.244-0.152-0.455-0.338-0.56
				l-0.051-5.019c0-0.039-0.009-0.076-0.021-0.113l-0.373-3.381l0.277-0.053l-0.328-2.99c-0.034-0.308-0.304-0.54-0.634-0.54
				c-0.025,0-0.038,0.002-0.063,0.005l-0.09,0.013c-0.041,0.005-0.032,0.013-0.07,0.023c-0.35-0.508-1.46-0.863-1.46-1.021v-0.019
				c0-0.024-0.321-0.045-0.413-0.062l-0.134-0.485c0.724-0.229,1.177-0.904,1.177-1.703v-0.323c0,0,0.115,0.004,0.134,0.004
				c0.517,0,1.01-0.419,1.01-0.936c0-0.404-0.257-0.748-0.616-0.878c0.359-0.132,0.616-0.475,0.616-0.879
				c0-0.152-0.037-0.296-0.102-0.423c0.261-0.153,0.448-0.464,0.448-0.786c0-0.455-0.344-0.818-0.768-0.818
				c-0.076,0-0.148,0.021-0.217,0.043c0.038-0.103,0.06-0.194,0.06-0.312c0-0.027-0.002-0.018-0.004-0.045
				c-0.039-0.46-0.4-0.669-0.839-0.669c-0.206,0-0.402,0-0.402,0s-0.239-0.859-1.075-0.859c-0.007,0-0.136-0.067-0.136-0.067
				s0.257,23.625,0.265,23.625h0.007h-0.02c0.095,0,0.378-0.087,0.378-0.087v8.914H621.385z M622.518,289.209
				c0.041-0.122,0.064-0.259,0.064-0.416c0,0,0.002-0.188,0.005-0.504c0.001,0.001,0.002,0.002,0.004,0.002
				c0-0.21,0.001-0.472,0.002-0.782c0.204,0.014,0.223-0.073,0.224-0.2c0.006-1.242-0.001-3.021-0.015-4.705l0.16,1.438l0.006,4.875
				c-0.07,0.032-0.132,0.076-0.185,0.13c-0.088,0.023-0.17,0.067-0.236,0.133L622.518,289.209z"/>
		</g>
		<g opacity="0.5">
			<path fill="#72ADC8" d="M610.167,291.162l-0.002-0.906h0.046l0.002,1.123c0,0.091,0.074,0.138,0.165,0.138h0.003
				c0.091,0,0.166-0.048,0.166-0.138l-0.002-1.123h0.056l0.002,1.001c0,0.092,0.074,0.048,0.166,0.048l0.003,0.034
				c0.091,0,0.165-0.007,0.165-0.098l-0.001-0.985h0.04l0.001,0.956c0,0.11,0.09,0.305,0.201,0.305h0.004
				c0.111,0,0.182-0.328,0.182-0.439l0.041-1.089v-0.504c0-0.244-0.152-0.455-0.338-0.56l-0.05-5.019
				c0-0.039-0.009-0.076-0.022-0.113l-0.373-3.381l0.277-0.053l-0.328-2.99c-0.034-0.308-0.304-0.54-0.634-0.54
				c-0.025,0-0.038,0.002-0.063,0.005l-0.09,0.013c-0.041,0.005-0.032,0.013-0.07,0.023c-0.35-0.508-1.46-0.863-1.46-1.021v-0.019
				c0-0.024-0.321-0.045-0.413-0.062l-0.134-0.485c0.724-0.229,1.177-0.904,1.177-1.703v-0.323c0,0,0.115,0.004,0.134,0.004
				c0.518,0,1.011-0.419,1.011-0.936c0-0.404-0.258-0.748-0.617-0.878c0.359-0.132,0.617-0.475,0.617-0.879
				c0-0.152-0.037-0.296-0.103-0.423c0.261-0.153,0.448-0.464,0.448-0.786c0-0.455-0.344-0.818-0.768-0.818
				c-0.076,0-0.148,0.021-0.216,0.043c0.038-0.103,0.059-0.194,0.059-0.312c0-0.027-0.002-0.018-0.004-0.045
				c-0.039-0.46-0.4-0.669-0.839-0.669c-0.206,0-0.402,0-0.402,0s-0.124-0.789-0.96-0.789c-0.907,0-0.961,0.789-0.961,0.789
				s-0.195,0-0.401,0c-0.44,0-0.8,0.209-0.838,0.669c-0.004,0.027-0.004-0.021-0.004,0.008c0,0.117,0.021,0.229,0.06,0.331
				c-0.068-0.022-0.14-0.034-0.215-0.034c-0.424,0-0.766,0.368-0.766,0.823c0,0.323,0.191,0.635,0.451,0.788
				c-0.064,0.128-0.093,0.271-0.093,0.425c0,0.404,0.276,0.748,0.634,0.878c-0.358,0.131-0.582,0.475-0.582,0.879
				c0,0.517,0.489,0.936,1.005,0.936c0.022,0,0.202-0.002,0.202-0.002v0.316c0,0.777,0.357,1.439,1.05,1.686l-0.139,0.545
				c-0.092,0.024-0.281,0.052-0.281,0.082v-0.008c-0.63,0.179-1.081,0.531-1.399,0.985c-0.031-0.008-0.062-0.015-0.093-0.018
				l-0.116-0.013c-0.024-0.003-0.049-0.005-0.074-0.005c-0.331,0-0.607,0.232-0.64,0.54l-0.331,2.991l0.276,0.052l-0.373,3.381
				c-0.014,0.037-0.022,0.075-0.022,0.114l-0.003,4.981c-0.236,0.082-0.377,0.318-0.377,0.599v0.505l-0.006,0.862
				c0,0.11,0.024,0.217,0.135,0.217l0.004,0.033c0.111,0.001,0.202-0.021,0.202-0.132l0.001-0.717h0.04l-0.001,1.001
				c0,0.092,0.073,0.047,0.165,0.047l0.002,0.035c0.092,0,0.167-0.007,0.166-0.098l0.002-0.985h0.057l-0.003,1.123
				c0,0.09,0.075,0.138,0.166,0.138h0.003c0.091,0,0.166-0.047,0.165-0.138l0.002-1.123h0.046l0.002,1.051
				c0,0.109,0.094,0.21,0.205,0.21h0.012c0.111,0,0.112-0.229,0.112-0.34l-0.07-1.177l-0.145,0.01v-0.106l0,0v0.192
				c0,0.094,0.432,0.791,0.526,0.791h0.003c0.035,0,0.101-0.651,0.101-0.668v8.864h0.923l0,0h-0.623l-0.022,0.154
				c-0.132-0.097-0.214-0.196-0.214-0.196s-0.071,0.086-0.226,0.201l-0.017-0.027l-0.132,0.094l0.016,0.025
				c-0.047,0.029-0.102,0.062-0.16,0.093l-0.01-0.019l-0.144,0.075l0.005,0.016c-0.058,0.027-0.124,0.055-0.191,0.081l-0.016-0.02
				l-0.169,0.059l-0.032,0.016c-0.054,0.019-0.25,0.037-0.25,0.055v-0.024l-0.1,0.038l0.071,0.027
				c-0.191,0.047-0.427,0.085-0.666,0.107c-0.554,0.052-0.566,0.733-0.566,0.733v0.403h6.305v-0.403l0.028-1.128
				c0,0,0.14,0.007,0.023,0.008l-0.048-0.368h-0.003v-0.591l0,0v-8.73c0.631-0.024,0.337-0.051,0.37-0.078
				c0,0.013,0.261,0.026,0.261,0.038v0.357c0,0.094-0.05,0.172,0.043,0.172l-0.124,0.006c0.095,0,0.08-0.067,0.08-0.161v0.16h0.63
				v-0.245l-0.192-0.021l-0.188,1.042c-0.001,0.109,0.09,0.201,0.201,0.201l0.004,0.005
				C610.077,291.238,610.167,291.271,610.167,291.162z M604.954,289.321l-0.144-0.145c-0.065-0.064-0.148-0.109-0.236-0.133
				c-0.031-0.031-0.066-0.06-0.103-0.085l0.005-4.924l0.164-1.521c0,1.566-0.006,3.198-0.006,4.392c0,0.154,0.011,0.198,0.125,0.198
				h-0.291v0.631h0.321c0,0.63,0.002,0.465,0.002,0.68c0.003,0,0.006-0.125,0.009-0.127c0.003,0.23,0.005,0.363,0.005,0.363
				C604.805,288.921,604.85,289.141,604.954,289.321z M608.542,299.083h-0.618l-0.022,0.154c-0.132-0.097-0.214-0.196-0.214-0.196
				s-0.071,0.086-0.227,0.201l-0.017-0.026l-0.132,0.094l0.016,0.024c-0.047,0.029-0.102,0.062-0.16,0.093l-0.009-0.019
				l-0.143,0.075l0.007,0.016c-0.057,0.027-0.119,0.055-0.186,0.08l-0.006-0.019l-0.15,0.058l0.005,0.017
				c-0.021,0.007-0.04,0.016-0.062,0.022l-0.021-0.094l-0.001,0.001l-0.019-0.121c0,0-0.064,0.007-0.181,0.008l-0.048-0.368h-0.337
				l0,0h0.338v-8.93c0.631,0.011,0.541,0.059,0.698,0.059c0.008,0,0.189,0.044,0.197,0.044c0.002,0,0.005,0,0.007,0h-0.02
				c0.095,0,0.378-0.087,0.378-0.087v8.914H608.542L608.542,299.083z M610.125,288.916c-0.07,0.032-0.132,0.076-0.185,0.13
				c-0.088,0.023-0.17,0.067-0.236,0.133l-0.03,0.03c0.041-0.122,0.064-0.259,0.064-0.416c0,0,0.002-0.188,0.006-0.504
				c0.001,0.001,0.002,0.002,0.003,0.002c0-0.21,0.001-0.472,0.002-0.782c0.204,0.014,0.223-0.073,0.224-0.2
				c0.007-1.242-0.001-3.021-0.014-4.705l0.159,1.438L610.125,288.916z"/>
			<path fill="#5397B2" d="M608.542,299.083L608.542,299.083h-0.618l-0.025,0.154c-0.133-0.097-0.218-0.196-0.218-0.196
				s-0.08,0.086-0.233,0.201l-0.032-0.027l-0.161,0.094l-0.041,0.025c-0.035,0.021-0.225,0.043-0.225,0.064v1.576h1.891v-0.403
				l0.028-1.128c0,0,0.14,0.007,0.023,0.008l-0.048-0.368h-0.003v-0.591l0,0v-8.73c0.631-0.024,0.337-0.051,0.37-0.078
				c0,0.013,0.261,0.026,0.261,0.038v0.357c0,0.094-0.05,0.172,0.043,0.172l-0.124,0.006c0.095,0,0.08-0.067,0.08-0.161v0.16h0.63
				v-0.245l-0.192-0.012l-0.188,1.048c-0.001,0.109,0.09,0.217,0.201,0.215l0.004,0.035c0.111,0,0.201-0.025,0.201-0.135
				l-0.002-0.906h0.046l0.002,1.123c0,0.091,0.074,0.138,0.165,0.138h0.003c0.091,0,0.166-0.048,0.166-0.138l-0.002-1.123h0.056
				l0.002,1.001c0,0.092,0.074,0.048,0.166,0.048l0.003,0.034c0.091,0,0.165-0.007,0.165-0.098l-0.001-0.985h0.04l0.001,0.956
				c0,0.11,0.09,0.305,0.201,0.305h0.004c0.111,0,0.182-0.328,0.182-0.439l0.041-1.089v-0.504c0-0.244-0.152-0.455-0.338-0.56
				l-0.05-5.019c0-0.039-0.009-0.076-0.022-0.113l-0.373-3.381l0.277-0.053l-0.328-2.99c-0.034-0.308-0.304-0.54-0.634-0.54
				c-0.025,0-0.038,0.002-0.063,0.005l-0.09,0.013c-0.041,0.005-0.032,0.013-0.07,0.023c-0.35-0.508-1.46-0.863-1.46-1.021v-0.019
				c0-0.024-0.321-0.045-0.413-0.062l-0.134-0.485c0.724-0.229,1.177-0.904,1.177-1.703v-0.323c0,0,0.115,0.004,0.134,0.004
				c0.518,0,1.011-0.419,1.011-0.936c0-0.404-0.258-0.748-0.617-0.878c0.359-0.132,0.617-0.475,0.617-0.879
				c0-0.152-0.037-0.296-0.103-0.423c0.261-0.153,0.448-0.464,0.448-0.786c0-0.455-0.344-0.818-0.768-0.818
				c-0.076,0-0.148,0.021-0.216,0.043c0.038-0.103,0.059-0.194,0.059-0.312c0-0.027-0.002-0.018-0.004-0.045
				c-0.039-0.46-0.4-0.669-0.839-0.669c-0.206,0-0.402,0-0.402,0s-0.239-0.859-1.075-0.859c-0.007,0-0.135-0.067-0.135-0.067
				s0.257,23.625,0.265,23.625h0.007h-0.02c0.095,0,0.378-0.087,0.378-0.087v8.914H608.542z M609.675,289.209
				c0.041-0.122,0.064-0.259,0.064-0.416c0,0,0.002-0.188,0.006-0.504c0.001,0.001,0.002,0.002,0.003,0.002
				c0-0.21,0.001-0.472,0.002-0.782c0.204,0.014,0.223-0.073,0.224-0.2c0.007-1.242-0.001-3.021-0.014-4.705l0.159,1.438
				l0.006,4.875c-0.07,0.032-0.132,0.076-0.185,0.13c-0.088,0.023-0.17,0.067-0.236,0.133L609.675,289.209z"/>
		</g>
		<g opacity="0.5">
			<path fill="#72ADC8" d="M597.324,291.162l-0.002-0.906h0.046l0.002,1.123c0,0.091,0.074,0.138,0.165,0.138h0.003
				c0.091,0,0.166-0.048,0.166-0.138l-0.002-1.123h0.056l0.002,1.001c0,0.092,0.075,0.048,0.166,0.048l0.003,0.034
				c0.091,0,0.165-0.007,0.165-0.098l-0.001-0.985h0.04l0.001,0.956c0,0.11,0.091,0.305,0.201,0.305h0.004
				c0.111,0,0.182-0.328,0.182-0.439l0.041-1.089v-0.504c0-0.244-0.153-0.455-0.339-0.56l-0.05-5.019
				c0-0.039-0.009-0.076-0.021-0.113l-0.373-3.381l0.277-0.053l-0.328-2.99c-0.034-0.308-0.303-0.54-0.634-0.54
				c-0.025,0-0.037,0.002-0.063,0.005l-0.09,0.013c-0.041,0.005-0.032,0.013-0.07,0.023c-0.35-0.508-1.46-0.863-1.46-1.021v-0.019
				c0-0.024-0.321-0.045-0.413-0.062l-0.133-0.485c0.724-0.229,1.177-0.904,1.177-1.703v-0.323c0,0,0.114,0.004,0.134,0.004
				c0.518,0,1.011-0.419,1.011-0.936c0-0.404-0.257-0.748-0.616-0.878c0.359-0.132,0.616-0.475,0.616-0.879
				c0-0.152-0.037-0.296-0.103-0.423c0.261-0.153,0.448-0.464,0.448-0.786c0-0.455-0.344-0.818-0.768-0.818
				c-0.076,0-0.148,0.021-0.217,0.043c0.038-0.103,0.059-0.194,0.059-0.312c0-0.027-0.002-0.018-0.004-0.045
				c-0.039-0.46-0.399-0.669-0.839-0.669c-0.206,0-0.402,0-0.402,0s-0.124-0.789-0.96-0.789c-0.907,0-0.96,0.789-0.96,0.789
				s-0.195,0-0.402,0c-0.44,0-0.8,0.209-0.838,0.669c-0.004,0.027-0.004-0.021-0.004,0.008c0,0.117,0.021,0.229,0.06,0.331
				c-0.068-0.022-0.14-0.034-0.215-0.034c-0.423,0-0.766,0.368-0.766,0.823c0,0.323,0.191,0.635,0.451,0.788
				c-0.064,0.128-0.094,0.271-0.094,0.425c0,0.404,0.276,0.748,0.634,0.878c-0.358,0.131-0.583,0.475-0.583,0.879
				c0,0.517,0.489,0.936,1.005,0.936c0.022,0,0.202-0.002,0.202-0.002v0.316c0,0.777,0.357,1.439,1.051,1.686l-0.139,0.545
				c-0.093,0.024-0.281,0.052-0.281,0.082v-0.008c-0.631,0.179-1.082,0.531-1.399,0.985c-0.031-0.008-0.062-0.015-0.093-0.018
				l-0.116-0.013c-0.024-0.003-0.049-0.005-0.074-0.005c-0.332,0-0.607,0.232-0.641,0.54l-0.331,2.991l0.276,0.052l-0.373,3.381
				c-0.014,0.037-0.021,0.075-0.021,0.114l-0.004,4.981c-0.236,0.082-0.377,0.318-0.377,0.599v0.505l-0.006,0.862
				c0,0.11,0.024,0.217,0.135,0.217l0.004,0.033c0.111,0.001,0.201-0.021,0.201-0.132l0.001-0.717h0.039l-0.001,1.001
				c0,0.092,0.073,0.047,0.165,0.047l0.002,0.035c0.092,0,0.166-0.007,0.166-0.098l0.002-0.985h0.057l-0.002,1.123
				c0,0.09,0.074,0.138,0.166,0.138h0.003c0.091,0,0.166-0.047,0.165-0.138l0.002-1.123h0.046l0.002,1.051
				c0,0.109,0.094,0.21,0.205,0.21h0.012c0.112,0,0.112-0.229,0.112-0.34L591.77,290l-0.145,0.01v-0.106l0,0v0.192
				c0,0.094,0.432,0.791,0.526,0.791h0.003c0.035,0,0.101-0.651,0.101-0.668v8.864h0.923l0,0h-0.623l-0.022,0.154
				c-0.132-0.097-0.214-0.196-0.214-0.196s-0.071,0.086-0.226,0.201l-0.017-0.027l-0.132,0.094l0.016,0.025
				c-0.047,0.029-0.102,0.062-0.16,0.093l-0.01-0.019l-0.144,0.075l0.006,0.016c-0.058,0.027-0.125,0.055-0.191,0.081l-0.016-0.02
				l-0.169,0.059l-0.032,0.016c-0.054,0.019-0.25,0.037-0.25,0.055v-0.024l-0.1,0.038l0.072,0.027
				c-0.192,0.047-0.428,0.085-0.667,0.107c-0.554,0.052-0.566,0.733-0.566,0.733v0.403h6.305v-0.403l0.028-1.128
				c0,0,0.14,0.007,0.022,0.008l-0.048-0.368h-0.003v-0.591l0,0v-8.73c0.63-0.024,0.336-0.051,0.37-0.078
				c0,0.013,0.261,0.026,0.261,0.038v0.357c0,0.094-0.05,0.172,0.043,0.172l-0.124,0.006c0.095,0,0.08-0.067,0.08-0.161v0.16h0.63
				v-0.245l-0.192-0.021l-0.188,1.042c0,0.109,0.09,0.201,0.201,0.201l0.004,0.005C597.234,291.238,597.324,291.271,597.324,291.162
				z M592.111,289.321l-0.144-0.145c-0.065-0.064-0.148-0.109-0.236-0.133c-0.031-0.031-0.066-0.06-0.102-0.085l0.005-4.924
				l0.164-1.521c0,1.566-0.006,3.198-0.006,4.392c0,0.154,0.011,0.198,0.124,0.198h-0.291v0.631h0.321
				c0,0.63,0.002,0.465,0.002,0.68c0.003,0,0.006-0.125,0.009-0.127c0.003,0.23,0.005,0.363,0.005,0.363
				C591.962,288.921,592.007,289.141,592.111,289.321z M595.7,299.083h-0.618l-0.022,0.154c-0.132-0.097-0.214-0.196-0.214-0.196
				s-0.071,0.086-0.227,0.201l-0.017-0.026l-0.132,0.094l0.016,0.024c-0.047,0.029-0.102,0.062-0.16,0.093l-0.008-0.019
				l-0.143,0.075l0.007,0.016c-0.057,0.027-0.119,0.055-0.186,0.08l-0.006-0.019l-0.15,0.058l0.005,0.017
				c-0.021,0.007-0.04,0.016-0.062,0.022l-0.021-0.094l-0.001,0.001l-0.019-0.121c0,0-0.064,0.007-0.181,0.008l-0.048-0.368h-0.337
				l0,0h0.338v-8.93c0.63,0.011,0.541,0.059,0.698,0.059c0.007,0,0.189,0.044,0.197,0.044c0.002,0,0.005,0,0.007,0h-0.02
				c0.095,0,0.378-0.087,0.378-0.087v8.914H595.7L595.7,299.083z M597.282,288.916c-0.069,0.032-0.132,0.076-0.185,0.13
				c-0.088,0.023-0.17,0.067-0.236,0.133l-0.03,0.03c0.041-0.122,0.064-0.259,0.064-0.416c0,0,0.002-0.188,0.006-0.504
				c0.001,0.001,0.002,0.002,0.003,0.002c0-0.21,0.001-0.472,0.002-0.782c0.204,0.014,0.223-0.073,0.224-0.2
				c0.007-1.242-0.001-3.021-0.014-4.705l0.159,1.438L597.282,288.916z"/>
			<path fill="#5397B2" d="M595.7,299.083L595.7,299.083h-0.618l-0.025,0.154c-0.133-0.097-0.218-0.196-0.218-0.196
				s-0.08,0.086-0.233,0.201l-0.032-0.027l-0.161,0.094l-0.041,0.025c-0.034,0.021-0.225,0.043-0.225,0.064v1.576h1.892v-0.403
				l0.028-1.128c0,0,0.14,0.007,0.022,0.008l-0.048-0.368h-0.003v-0.591l0,0v-8.73c0.63-0.024,0.336-0.051,0.37-0.078
				c0,0.013,0.261,0.026,0.261,0.038v0.357c0,0.094-0.05,0.172,0.043,0.172l-0.124,0.006c0.095,0,0.08-0.067,0.08-0.161v0.16h0.63
				v-0.245l-0.192-0.012l-0.188,1.048c0,0.109,0.09,0.217,0.201,0.215l0.004,0.035c0.111,0,0.201-0.025,0.201-0.135l-0.002-0.906
				h0.046l0.002,1.123c0,0.091,0.074,0.138,0.165,0.138h0.003c0.091,0,0.166-0.048,0.166-0.138l-0.002-1.123h0.056l0.002,1.001
				c0,0.092,0.075,0.048,0.166,0.048l0.003,0.034c0.091,0,0.165-0.007,0.165-0.098l-0.001-0.985h0.04l0.001,0.956
				c0,0.11,0.091,0.305,0.201,0.305h0.004c0.111,0,0.182-0.328,0.182-0.439l0.041-1.089v-0.504c0-0.244-0.153-0.455-0.339-0.56
				l-0.05-5.019c0-0.039-0.009-0.076-0.021-0.113l-0.373-3.381l0.277-0.053l-0.328-2.99c-0.034-0.308-0.303-0.54-0.634-0.54
				c-0.025,0-0.037,0.002-0.063,0.005l-0.09,0.013c-0.041,0.005-0.032,0.013-0.07,0.023c-0.35-0.508-1.46-0.863-1.46-1.021v-0.019
				c0-0.024-0.321-0.045-0.413-0.062l-0.133-0.485c0.724-0.229,1.177-0.904,1.177-1.703v-0.323c0,0,0.114,0.004,0.134,0.004
				c0.518,0,1.011-0.419,1.011-0.936c0-0.404-0.257-0.748-0.616-0.878c0.359-0.132,0.616-0.475,0.616-0.879
				c0-0.152-0.037-0.296-0.103-0.423c0.261-0.153,0.448-0.464,0.448-0.786c0-0.455-0.344-0.818-0.768-0.818
				c-0.076,0-0.148,0.021-0.217,0.043c0.038-0.103,0.059-0.194,0.059-0.312c0-0.027-0.002-0.018-0.004-0.045
				c-0.039-0.46-0.399-0.669-0.839-0.669c-0.206,0-0.402,0-0.402,0s-0.239-0.859-1.075-0.859c-0.007,0-0.135-0.067-0.135-0.067
				s0.257,23.625,0.265,23.625h0.007h-0.02c0.095,0,0.378-0.087,0.378-0.087v8.914H595.7z M596.832,289.209
				c0.041-0.122,0.064-0.259,0.064-0.416c0,0,0.002-0.188,0.006-0.504c0.001,0.001,0.002,0.002,0.003,0.002
				c0-0.21,0.001-0.472,0.002-0.782c0.204,0.014,0.223-0.073,0.224-0.2c0.007-1.242-0.001-3.021-0.014-4.705l0.159,1.438
				l0.006,4.875c-0.069,0.032-0.132,0.076-0.185,0.13c-0.088,0.023-0.17,0.067-0.236,0.133L596.832,289.209z"/>
		</g>
		<g opacity="0.5">
			<path fill="#72ADC8" d="M584.481,291.162l-0.002-0.906h0.046l0.001,1.123c0,0.091,0.074,0.138,0.165,0.138h0.003
				c0.091,0,0.166-0.048,0.166-0.138l-0.002-1.123h0.056l0.002,1.001c0,0.092,0.075,0.048,0.166,0.048l0.003,0.034
				c0.091,0,0.165-0.007,0.165-0.098l-0.001-0.985h0.04l0.001,0.956c0,0.11,0.091,0.305,0.201,0.305h0.004
				c0.111,0,0.183-0.328,0.183-0.439l0.041-1.089v-0.504c0-0.244-0.153-0.455-0.339-0.56l-0.05-5.019
				c0-0.039-0.009-0.076-0.021-0.113l-0.373-3.381l0.277-0.053l-0.328-2.99c-0.034-0.308-0.303-0.54-0.634-0.54
				c-0.025,0-0.038,0.002-0.063,0.005l-0.091,0.013c-0.041,0.005-0.032,0.013-0.07,0.023c-0.35-0.508-1.46-0.863-1.46-1.021v-0.019
				c0-0.024-0.321-0.045-0.414-0.062l-0.133-0.485c0.724-0.229,1.177-0.904,1.177-1.703v-0.323c0,0,0.114,0.004,0.134,0.004
				c0.517,0,1.01-0.419,1.01-0.936c0-0.404-0.257-0.748-0.616-0.878c0.359-0.132,0.616-0.475,0.616-0.879
				c0-0.152-0.037-0.296-0.102-0.423c0.26-0.153,0.447-0.464,0.447-0.786c0-0.455-0.344-0.818-0.768-0.818
				c-0.076,0-0.148,0.021-0.217,0.043c0.038-0.103,0.059-0.194,0.059-0.312c0-0.027-0.002-0.018-0.004-0.045
				c-0.039-0.46-0.399-0.669-0.839-0.669c-0.207,0-0.402,0-0.402,0s-0.124-0.789-0.96-0.789c-0.907,0-0.96,0.789-0.96,0.789
				s-0.195,0-0.401,0c-0.44,0-0.801,0.209-0.839,0.669c-0.003,0.027-0.004-0.021-0.004,0.008c0,0.117,0.021,0.229,0.06,0.331
				c-0.068-0.022-0.141-0.034-0.216-0.034c-0.423,0-0.766,0.368-0.766,0.823c0,0.323,0.191,0.635,0.451,0.788
				c-0.064,0.128-0.094,0.271-0.094,0.425c0,0.404,0.276,0.748,0.634,0.878c-0.358,0.131-0.583,0.475-0.583,0.879
				c0,0.517,0.489,0.936,1.005,0.936c0.022,0,0.202-0.002,0.202-0.002v0.316c0,0.777,0.357,1.439,1.05,1.686l-0.139,0.545
				c-0.092,0.024-0.281,0.052-0.281,0.082v-0.008c-0.63,0.179-1.082,0.531-1.399,0.985c-0.031-0.008-0.062-0.015-0.093-0.018
				l-0.116-0.013c-0.024-0.003-0.049-0.005-0.074-0.005c-0.332,0-0.607,0.232-0.641,0.54l-0.331,2.991l0.276,0.052l-0.373,3.381
				c-0.014,0.037-0.021,0.075-0.021,0.114l-0.004,4.981c-0.236,0.082-0.377,0.318-0.377,0.599v0.505l-0.006,0.862
				c0,0.11,0.024,0.217,0.135,0.217l0.004,0.033c0.111,0.001,0.201-0.021,0.201-0.132l0.001-0.717h0.039l-0.001,1.001
				c0,0.092,0.073,0.047,0.165,0.047l0.002,0.035c0.092,0,0.166-0.007,0.166-0.098l0.002-0.985h0.057l-0.002,1.123
				c0,0.09,0.074,0.138,0.166,0.138h0.003c0.091,0,0.166-0.047,0.165-0.138l0.002-1.123h0.046l0.001,1.051
				c0,0.109,0.094,0.21,0.205,0.21h0.013c0.111,0,0.112-0.229,0.112-0.34L578.927,290l-0.146,0.01v-0.106l0,0v0.192
				c0,0.094,0.432,0.791,0.526,0.791h0.003c0.035,0,0.101-0.651,0.101-0.668v8.864h0.923l0,0h-0.622l-0.022,0.154
				c-0.132-0.097-0.214-0.196-0.214-0.196s-0.071,0.086-0.226,0.201l-0.018-0.027l-0.132,0.094l0.016,0.025
				c-0.047,0.029-0.102,0.062-0.159,0.093l-0.01-0.019l-0.144,0.075l0.006,0.016c-0.058,0.027-0.125,0.055-0.191,0.081l-0.016-0.02
				l-0.169,0.059l-0.032,0.016c-0.054,0.019-0.25,0.037-0.25,0.055v-0.024l-0.1,0.038l0.072,0.027
				c-0.191,0.047-0.427,0.085-0.667,0.107c-0.554,0.052-0.566,0.733-0.566,0.733v0.403h6.305v-0.403l0.028-1.128
				c0,0,0.14,0.007,0.022,0.008l-0.048-0.368h-0.003v-0.591l0,0v-8.73c0.63-0.024,0.337-0.051,0.37-0.078
				c-0.001,0.013,0.26,0.026,0.26,0.038v0.357c0,0.094-0.05,0.172,0.044,0.172l-0.124,0.006c0.095,0,0.08-0.067,0.08-0.161v0.16
				h0.63v-0.245l-0.192-0.021l-0.188,1.042c0,0.109,0.09,0.201,0.201,0.201l0.004,0.005
				C584.392,291.238,584.481,291.271,584.481,291.162z M579.268,289.321l-0.144-0.145c-0.065-0.064-0.148-0.109-0.236-0.133
				c-0.031-0.031-0.066-0.06-0.102-0.085l0.005-4.924l0.164-1.521c0,1.566-0.006,3.198-0.006,4.392c0,0.154,0.011,0.198,0.124,0.198
				h-0.291v0.631h0.321c0,0.63,0.002,0.465,0.002,0.68c0.003,0,0.006-0.125,0.009-0.127c0.003,0.23,0.005,0.363,0.005,0.363
				C579.12,288.921,579.165,289.141,579.268,289.321z M582.857,299.083h-0.619l-0.022,0.154c-0.132-0.097-0.214-0.196-0.214-0.196
				s-0.071,0.086-0.227,0.201l-0.017-0.026l-0.132,0.094l0.016,0.024c-0.047,0.029-0.102,0.062-0.16,0.093l-0.008-0.019
				l-0.143,0.075l0.007,0.016c-0.057,0.027-0.119,0.055-0.186,0.08l-0.006-0.019l-0.15,0.058l0.005,0.017
				c-0.021,0.007-0.039,0.016-0.062,0.022l-0.02-0.094l-0.001,0.001l-0.019-0.121c0,0-0.064,0.007-0.181,0.008l-0.048-0.368h-0.337
				l0,0h0.338v-8.93c0.63,0.011,0.541,0.059,0.698,0.059c0.007,0,0.189,0.044,0.197,0.044c0.002,0,0.005,0,0.007,0h-0.02
				c0.095,0,0.378-0.087,0.378-0.087v8.914H582.857L582.857,299.083z M584.439,288.916c-0.069,0.032-0.132,0.076-0.185,0.13
				c-0.088,0.023-0.17,0.067-0.236,0.133l-0.03,0.03c0.041-0.122,0.064-0.259,0.064-0.416c0,0,0.001-0.188,0.005-0.504
				c0.001,0.001,0.002,0.002,0.004,0.002c0-0.21,0.001-0.472,0.001-0.782c0.204,0.014,0.223-0.073,0.224-0.2
				c0.007-1.242-0.001-3.021-0.014-4.705l0.16,1.438L584.439,288.916z"/>
			<path fill="#5397B2" d="M582.857,299.083L582.857,299.083h-0.619l-0.025,0.154c-0.133-0.097-0.218-0.196-0.218-0.196
				s-0.079,0.086-0.233,0.201l-0.032-0.027l-0.161,0.094l-0.041,0.025c-0.035,0.021-0.226,0.043-0.226,0.064v1.576h1.892v-0.403
				l0.028-1.128c0,0,0.14,0.007,0.022,0.008l-0.048-0.368h-0.003v-0.591l0,0v-8.73c0.63-0.024,0.337-0.051,0.37-0.078
				c-0.001,0.013,0.26,0.026,0.26,0.038v0.357c0,0.094-0.05,0.172,0.044,0.172l-0.124,0.006c0.095,0,0.08-0.067,0.08-0.161v0.16
				h0.63v-0.245l-0.192-0.012l-0.188,1.048c0,0.109,0.09,0.217,0.201,0.215l0.004,0.035c0.111,0,0.201-0.025,0.201-0.135
				l-0.002-0.906h0.046l0.001,1.123c0,0.091,0.074,0.138,0.165,0.138h0.003c0.091,0,0.166-0.048,0.166-0.138l-0.002-1.123h0.056
				l0.002,1.001c0,0.092,0.075,0.048,0.166,0.048l0.003,0.034c0.091,0,0.165-0.007,0.165-0.098l-0.001-0.985h0.04l0.001,0.956
				c0,0.11,0.091,0.305,0.201,0.305h0.004c0.111,0,0.183-0.328,0.183-0.439l0.041-1.089v-0.504c0-0.244-0.153-0.455-0.339-0.56
				l-0.05-5.019c0-0.039-0.009-0.076-0.021-0.113l-0.373-3.381l0.277-0.053l-0.328-2.99c-0.034-0.308-0.303-0.54-0.634-0.54
				c-0.025,0-0.038,0.002-0.063,0.005l-0.091,0.013c-0.041,0.005-0.032,0.013-0.07,0.023c-0.35-0.508-1.46-0.863-1.46-1.021v-0.019
				c0-0.024-0.321-0.045-0.414-0.062l-0.133-0.485c0.724-0.229,1.177-0.904,1.177-1.703v-0.323c0,0,0.114,0.004,0.134,0.004
				c0.517,0,1.01-0.419,1.01-0.936c0-0.404-0.257-0.748-0.616-0.878c0.359-0.132,0.616-0.475,0.616-0.879
				c0-0.152-0.037-0.296-0.102-0.423c0.26-0.153,0.447-0.464,0.447-0.786c0-0.455-0.344-0.818-0.768-0.818
				c-0.076,0-0.148,0.021-0.217,0.043c0.038-0.103,0.059-0.194,0.059-0.312c0-0.027-0.002-0.018-0.004-0.045
				c-0.039-0.46-0.399-0.669-0.839-0.669c-0.207,0-0.402,0-0.402,0s-0.239-0.859-1.075-0.859c-0.007,0-0.135-0.067-0.135-0.067
				s0.257,23.625,0.265,23.625h0.007h-0.02c0.095,0,0.378-0.087,0.378-0.087v8.914H582.857z M583.989,289.209
				c0.041-0.122,0.064-0.259,0.064-0.416c0,0,0.001-0.188,0.005-0.504c0.001,0.001,0.002,0.002,0.004,0.002
				c0-0.21,0.001-0.472,0.001-0.782c0.204,0.014,0.223-0.073,0.224-0.2c0.007-1.242-0.001-3.021-0.014-4.705l0.16,1.438l0.006,4.875
				c-0.069,0.032-0.132,0.076-0.185,0.13c-0.088,0.023-0.17,0.067-0.236,0.133L583.989,289.209z"/>
		</g>
		<g opacity="0.5">
			<path fill="#72ADC8" d="M571.639,291.162l-0.002-0.906h0.046l0.002,1.123c-0.001,0.091,0.074,0.138,0.165,0.138h0.003
				c0.091,0,0.166-0.048,0.166-0.138l-0.002-1.123h0.056l0.001,1.001c0,0.092,0.075,0.048,0.166,0.048l0.003,0.034
				c0.091,0,0.165-0.007,0.165-0.098l-0.001-0.985h0.04l0.001,0.956c0,0.11,0.09,0.305,0.201,0.305h0.004
				c0.111,0,0.182-0.328,0.182-0.439l0.041-1.089v-0.504c0-0.244-0.153-0.455-0.339-0.56l-0.05-5.019
				c0-0.039-0.009-0.076-0.021-0.113l-0.373-3.381l0.277-0.053l-0.327-2.99c-0.034-0.308-0.304-0.54-0.634-0.54
				c-0.025,0-0.038,0.002-0.063,0.005l-0.09,0.013c-0.041,0.005-0.032,0.013-0.07,0.023c-0.35-0.508-1.46-0.863-1.46-1.021v-0.019
				c0-0.024-0.321-0.045-0.413-0.062l-0.134-0.485c0.724-0.229,1.177-0.904,1.177-1.703v-0.323c0,0,0.114,0.004,0.134,0.004
				c0.517,0,1.01-0.419,1.01-0.936c0-0.404-0.257-0.748-0.616-0.878c0.359-0.132,0.616-0.475,0.616-0.879
				c0-0.152-0.037-0.296-0.102-0.423c0.26-0.153,0.448-0.464,0.448-0.786c0-0.455-0.344-0.818-0.768-0.818
				c-0.076,0-0.148,0.021-0.217,0.043c0.038-0.103,0.059-0.194,0.059-0.312c0-0.027-0.001-0.018-0.004-0.045
				c-0.039-0.46-0.4-0.669-0.839-0.669c-0.207,0-0.402,0-0.402,0s-0.124-0.789-0.96-0.789c-0.907,0-0.96,0.789-0.96,0.789
				s-0.195,0-0.401,0c-0.44,0-0.8,0.209-0.839,0.669c-0.003,0.027-0.004-0.021-0.004,0.008c0,0.117,0.021,0.229,0.06,0.331
				c-0.068-0.022-0.141-0.034-0.215-0.034c-0.424,0-0.766,0.368-0.766,0.823c0,0.323,0.191,0.635,0.451,0.788
				c-0.064,0.128-0.094,0.271-0.094,0.425c0,0.404,0.276,0.748,0.634,0.878c-0.358,0.131-0.583,0.475-0.583,0.879
				c0,0.517,0.489,0.936,1.005,0.936c0.022,0,0.202-0.002,0.202-0.002v0.316c0,0.777,0.357,1.439,1.05,1.686l-0.139,0.545
				c-0.092,0.024-0.281,0.052-0.281,0.082v-0.008c-0.63,0.179-1.081,0.531-1.399,0.985c-0.031-0.008-0.062-0.015-0.093-0.018
				l-0.117-0.013c-0.024-0.003-0.049-0.005-0.074-0.005c-0.331,0-0.607,0.232-0.641,0.54l-0.331,2.991l0.276,0.052l-0.373,3.381
				c-0.014,0.037-0.021,0.075-0.021,0.114l-0.004,4.981c-0.236,0.082-0.376,0.318-0.376,0.599v0.505l-0.006,0.862
				c0,0.11,0.024,0.217,0.135,0.217l0.004,0.033c0.111,0.001,0.201-0.021,0.201-0.132l0.001-0.717h0.04l-0.001,1.001
				c0,0.092,0.073,0.047,0.165,0.047l0.002,0.035c0.092,0,0.167-0.007,0.166-0.098l0.002-0.985h0.057l-0.002,1.123
				c0,0.09,0.075,0.138,0.166,0.138h0.003c0.091,0,0.166-0.047,0.165-0.138l0.002-1.123h0.046l0.002,1.051
				c0,0.109,0.094,0.21,0.205,0.21h0.012c0.111,0,0.112-0.229,0.112-0.34L566.084,290l-0.146,0.01v-0.106l0,0v0.192
				c0,0.094,0.432,0.791,0.526,0.791h0.003c0.034,0,0.101-0.651,0.101-0.668v8.864h0.923l0,0h-0.623l-0.022,0.154
				c-0.132-0.097-0.214-0.196-0.214-0.196s-0.071,0.086-0.226,0.201l-0.017-0.027l-0.132,0.094l0.016,0.025
				c-0.047,0.029-0.102,0.062-0.159,0.093l-0.01-0.019l-0.144,0.075l0.005,0.016c-0.058,0.027-0.125,0.055-0.191,0.081l-0.016-0.02
				l-0.169,0.059l-0.032,0.016c-0.054,0.019-0.25,0.037-0.25,0.055v-0.024l-0.1,0.038l0.071,0.027
				c-0.191,0.047-0.427,0.085-0.666,0.107c-0.554,0.052-0.567,0.733-0.567,0.733v0.403h6.305v-0.403l0.028-1.128
				c0,0,0.14,0.007,0.023,0.008l-0.048-0.368h-0.003v-0.591l0,0v-8.73c0.63-0.024,0.337-0.051,0.37-0.078
				c0,0.013,0.26,0.026,0.26,0.038v0.357c0,0.094-0.05,0.172,0.044,0.172l-0.124,0.006c0.095,0,0.08-0.067,0.08-0.161v0.16h0.63
				v-0.245l-0.192-0.021l-0.188,1.042c0,0.109,0.09,0.201,0.201,0.201l0.004,0.005C571.549,291.238,571.639,291.271,571.639,291.162
				z M566.425,289.321l-0.144-0.145c-0.065-0.064-0.147-0.109-0.236-0.133c-0.031-0.031-0.066-0.06-0.102-0.085l0.005-4.924
				l0.164-1.521c0,1.566-0.006,3.198-0.006,4.392c0,0.154,0.011,0.198,0.125,0.198h-0.292v0.631h0.321
				c0.001,0.63,0.002,0.465,0.002,0.68c0.003,0,0.006-0.125,0.009-0.127c0.003,0.23,0.005,0.363,0.005,0.363
				C566.277,288.921,566.322,289.141,566.425,289.321z M570.015,299.083h-0.618l-0.022,0.154c-0.132-0.097-0.213-0.196-0.213-0.196
				s-0.072,0.086-0.227,0.201l-0.018-0.026l-0.131,0.094l0.016,0.024c-0.047,0.029-0.102,0.062-0.159,0.093l-0.009-0.019
				l-0.143,0.075l0.008,0.016c-0.058,0.027-0.119,0.055-0.186,0.08l-0.006-0.019l-0.15,0.058l0.005,0.017
				c-0.021,0.007-0.04,0.016-0.062,0.022l-0.021-0.094l-0.001,0.001l-0.018-0.121c0,0-0.064,0.007-0.181,0.008l-0.048-0.368h-0.336
				l0,0h0.338v-8.93c0.63,0.011,0.541,0.059,0.698,0.059c0.007,0,0.189,0.044,0.197,0.044c0.002,0,0.005,0,0.008,0h-0.02
				c0.095,0,0.378-0.087,0.378-0.087v8.914H570.015L570.015,299.083z M571.597,288.916c-0.069,0.032-0.131,0.076-0.185,0.13
				c-0.088,0.023-0.17,0.067-0.236,0.133l-0.029,0.03c0.041-0.122,0.064-0.259,0.064-0.416c0,0,0.002-0.188,0.005-0.504
				c0.001,0.001,0.002,0.002,0.004,0.002c0-0.21,0.001-0.472,0.001-0.782c0.204,0.014,0.223-0.073,0.224-0.2
				c0.007-1.242-0.001-3.021-0.014-4.705l0.16,1.438L571.597,288.916z"/>
			<path fill="#5397B2" d="M570.015,299.083L570.015,299.083h-0.618l-0.025,0.154c-0.133-0.097-0.218-0.196-0.218-0.196
				s-0.08,0.086-0.233,0.201l-0.032-0.027l-0.161,0.094l-0.041,0.025c-0.035,0.021-0.226,0.043-0.226,0.064v1.576h1.892v-0.403
				l0.028-1.128c0,0,0.14,0.007,0.023,0.008l-0.048-0.368h-0.003v-0.591l0,0v-8.73c0.63-0.024,0.337-0.051,0.37-0.078
				c0,0.013,0.26,0.026,0.26,0.038v0.357c0,0.094-0.05,0.172,0.044,0.172l-0.124,0.006c0.095,0,0.08-0.067,0.08-0.161v0.16h0.63
				v-0.245l-0.192-0.012l-0.188,1.048c0,0.109,0.09,0.217,0.201,0.215l0.004,0.035c0.111,0,0.201-0.025,0.201-0.135l-0.002-0.906
				h0.046l0.002,1.123c-0.001,0.091,0.074,0.138,0.165,0.138h0.003c0.091,0,0.166-0.048,0.166-0.138l-0.002-1.123h0.056l0.001,1.001
				c0,0.092,0.075,0.048,0.166,0.048l0.003,0.034c0.091,0,0.165-0.007,0.165-0.098l-0.001-0.985h0.04l0.001,0.956
				c0,0.11,0.09,0.305,0.201,0.305h0.004c0.111,0,0.182-0.328,0.182-0.439l0.041-1.089v-0.504c0-0.244-0.153-0.455-0.339-0.56
				l-0.05-5.019c0-0.039-0.009-0.076-0.021-0.113l-0.373-3.381l0.277-0.053l-0.327-2.99c-0.034-0.308-0.304-0.54-0.634-0.54
				c-0.025,0-0.038,0.002-0.063,0.005l-0.09,0.013c-0.041,0.005-0.032,0.013-0.07,0.023c-0.35-0.508-1.46-0.863-1.46-1.021v-0.019
				c0-0.024-0.321-0.045-0.413-0.062l-0.134-0.485c0.724-0.229,1.177-0.904,1.177-1.703v-0.323c0,0,0.114,0.004,0.134,0.004
				c0.517,0,1.01-0.419,1.01-0.936c0-0.404-0.257-0.748-0.616-0.878c0.359-0.132,0.616-0.475,0.616-0.879
				c0-0.152-0.037-0.296-0.102-0.423c0.26-0.153,0.448-0.464,0.448-0.786c0-0.455-0.344-0.818-0.768-0.818
				c-0.076,0-0.148,0.021-0.217,0.043c0.038-0.103,0.059-0.194,0.059-0.312c0-0.027-0.001-0.018-0.004-0.045
				c-0.039-0.46-0.4-0.669-0.839-0.669c-0.207,0-0.402,0-0.402,0s-0.239-0.859-1.075-0.859c-0.008,0-0.136-0.067-0.136-0.067
				s0.257,23.625,0.265,23.625h0.008h-0.02c0.095,0,0.378-0.087,0.378-0.087v8.914H570.015z M571.147,289.209
				c0.041-0.122,0.064-0.259,0.064-0.416c0,0,0.002-0.188,0.005-0.504c0.001,0.001,0.002,0.002,0.004,0.002
				c0-0.21,0.001-0.472,0.001-0.782c0.204,0.014,0.223-0.073,0.224-0.2c0.007-1.242-0.001-3.021-0.014-4.705l0.16,1.438l0.006,4.875
				c-0.069,0.032-0.131,0.076-0.185,0.13c-0.088,0.023-0.17,0.067-0.236,0.133L571.147,289.209z"/>
		</g>
	</g>
</g>
<g id="Linea_01">
	<rect x="639" y="257" fill="#3C3541" width="74" height="3"/>
	<rect x="564" y="257" fill="#4C4452" width="75" height="3"/>
</g>
<g id="Titulo">
	<g>
		<g>
			<rect x="562.156" y="239.186" fill="#72ADC8" width="63.68" height="5.675"/>
		</g>
	</g>
</g>
<g id="Clip_delante_Hoja">
	<path fill="none" stroke="#B2AFB6" stroke-width="5" stroke-linecap="round" stroke-linejoin="round" stroke-miterlimit="10" d="
		M676.5,215.608c0,1.045-0.847,1.892-1.891,1.892h-71.218c-1.044,0-1.891-0.847-1.891-1.892v-22.217
		c0-1.045,0.847-1.892,1.891-1.892h71.218c1.044,0,1.891,0.847,1.891,1.892V215.608z"/>
</g>
</svg>
