<?xml version="1.0" encoding="utf-8"?>
<!-- Generator: Adobe Illustrator 16.0.0, SVG Export Plug-In . SVG Version: 6.00 Build 0)  -->
<!DOCTYPE svg PUBLIC "-//W3C//DTD SVG 1.1//EN" "http://www.w3.org/Graphics/SVG/1.1/DTD/svg11.dtd">
<svg version="1.1" id="planillaStroke" xmlns="http://www.w3.org/2000/svg" xmlns:xlink="http://www.w3.org/1999/xlink" x="0px"
	 y="0px" width="1280px" height="700px" viewBox="0 0 1280 700" enable-background="new 0 0 1280 700" xml:space="preserve">
<g>
	<g>
		<g>
			<path fill="none" stroke="#7F6C50" stroke-miterlimit="10" d="M535.276,169.536c-3.468,0-6.305,2.837-6.305,6.305v308.195
				c0,3.468,2.837,6.305,6.305,6.305H743.37c3.468,0,6.305-2.837,6.305-6.305V175.841c0-3.468-2.837-6.305-6.305-6.305H535.276z"/>
		</g>
	</g>
</g>
<g>
	<rect x="640" y="182" fill="none" stroke="#7F6C50" stroke-miterlimit="10" width="43" height="29"/>
	<rect x="593" y="182" fill="none" stroke="#7F6C50" stroke-miterlimit="10" width="47" height="29"/>
</g>
<path fill="none" stroke="#7F6C50" stroke-miterlimit="10" d="M678.181,207.657"/>
<polyline fill="none" stroke="#7F6C50" stroke-miterlimit="10" points="592.967,188.611 543.216,188.611 543.216,475.891 
	735.429,475.891 735.429,188.611 682.513,188.611 "/>
<path fill="none" stroke="#7F6C50" stroke-width="5" stroke-linecap="round" stroke-linejoin="round" stroke-miterlimit="10" d="
	M676.5,215.608c0,1.045-0.847,1.892-1.891,1.892h-71.218c-1.044,0-1.891-0.847-1.891-1.892v-22.217c0-1.045,0.847-1.892,1.891-1.892
	h71.218c1.044,0,1.891,0.847,1.891,1.892V215.608z"/>
<line fill="none" stroke="#7F6C50" stroke-miterlimit="10" x1="638.5" y1="211" x2="638.5" y2="476"/>
</svg>
