<?xml version="1.0" encoding="utf-8"?>
<!-- Generator: Adobe Illustrator 16.0.0, SVG Export Plug-In . SVG Version: 6.00 Build 0)  -->
<!DOCTYPE svg PUBLIC "-//W3C//DTD SVG 1.1//EN" "http://www.w3.org/Graphics/SVG/1.1/DTD/svg11.dtd">
<svg version="1.1" id="Layer_1" xmlns="http://www.w3.org/2000/svg" xmlns:xlink="http://www.w3.org/1999/xlink" x="0px" y="0px"
	 width="1280px" height="700px" viewBox="0 0 1280 700" enable-background="new 0 0 1280 700" xml:space="preserve">
<g id="Miscelaneas">
	<g>
		<g>
			<g>
				<rect x="565.787" y="629.459" fill="#569EC6" width="17.94" height="2.69"/>
				<rect x="701.88" y="629.459" fill="#569EC6" width="17.941" height="2.69"/>
			</g>
		</g>
	</g>
</g>
<g id="Titular">
	<g>
		<g enable-background="new    ">
			<path fill="#968670" d="M599.525,627.051h-2.542v9.13c0,0.172-0.141,0.313-0.313,0.313h-2.055c-0.172,0-0.313-0.142-0.313-0.313
				v-9.13h-2.557c-0.173,0-0.314-0.125-0.314-0.298v-1.615c0-0.173,0.141-0.298,0.314-0.298h7.78c0.172,0,0.329,0.125,0.329,0.298
				v1.615C599.854,626.926,599.698,627.051,599.525,627.051z"/>
			<path fill="#968670" d="M605.248,636.635c-2.588,0-4.643-1.396-4.643-5.036v-1.866c0-3.639,2.055-5.035,4.643-5.035
				c2.588,0,4.643,1.396,4.643,5.035v1.866C609.891,635.239,607.836,636.635,605.248,636.635z M607.193,629.733
				c0-1.882-0.627-2.683-1.945-2.683c-1.318,0-1.93,0.801-1.93,2.683v1.866c0,1.883,0.612,2.683,1.93,2.683
				c1.317,0,1.945-0.8,1.945-2.683V629.733z"/>
			<path fill="#968670" d="M622.154,636.494h-2.07c-0.141,0-0.251-0.142-0.251-0.313v-6.541c0-0.11-0.047-0.126-0.079-0.126
				c-0.047,0-0.079,0.031-0.125,0.11l-1.412,2.588c-0.11,0.188-0.267,0.267-0.471,0.267h-1.255c-0.204,0-0.361-0.078-0.471-0.267
				l-1.412-2.588c-0.047-0.079-0.079-0.11-0.125-0.11c-0.031,0-0.079,0.016-0.079,0.126v6.541c0,0.172-0.11,0.313-0.251,0.313h-2.07
				c-0.125,0-0.267-0.047-0.267-0.22v-10.901c0-0.33,0.235-0.533,0.564-0.533h1.475c0.33,0,0.549,0.156,0.69,0.423l2.4,4.471
				c0.062,0.126,0.109,0.204,0.172,0.204s0.11-0.078,0.172-0.204l2.4-4.471c0.141-0.267,0.36-0.423,0.69-0.423h1.475
				c0.329,0,0.564,0.219,0.564,0.549v10.886C622.42,636.447,622.279,636.494,622.154,636.494z"/>
			<path fill="#968670" d="M633.444,636.494h-2.196c-0.157,0-0.283-0.125-0.314-0.282l-0.564-2.572h-3.216l-0.565,2.572
				c-0.031,0.157-0.157,0.282-0.313,0.282h-2.196c-0.157,0-0.267-0.094-0.267-0.251c0-0.016,0.016-0.047,0.016-0.078l2.337-9.726
				c0.361-1.506,1.521-1.741,2.604-1.741c1.082,0,2.228,0.235,2.588,1.741l2.337,9.726c0,0.031,0.016,0.062,0.016,0.078
				C633.71,636.4,633.601,636.494,633.444,636.494z M628.974,627.161c-0.032-0.157-0.063-0.235-0.204-0.235s-0.188,0.078-0.22,0.235
				l-0.957,4.329h2.337L628.974,627.161z"/>
			<path fill="#968670" d="M643.872,636.494h-2.4c-0.173,0-0.235-0.157-0.313-0.313l-2.102-3.969l-0.172,0.016
				c-0.33,0-0.816-0.031-1.114-0.031v3.984c0,0.172-0.141,0.313-0.314,0.313h-2.039c-0.172,0-0.313-0.142-0.313-0.313v-10.525
				c0-0.533,0.22-0.675,0.706-0.753c0.722-0.11,2.055-0.204,3.185-0.204c2.667,0,4.721,0.895,4.721,3.671v0.203
				c0,1.663-0.879,2.683-2.023,3.138l2.369,4.424c0.031,0.062,0.047,0.125,0.047,0.172
				C644.107,636.416,644.045,636.494,643.872,636.494z M641.049,628.369c0-0.957-0.738-1.396-2.055-1.396
				c-0.22,0-1.036,0.031-1.224,0.047v3.012c0.172,0.016,0.941,0.031,1.114,0.031c1.647,0,2.165-0.423,2.165-1.49V628.369z"/>
			<path fill="#968670" d="M658.675,636.494h-2.196c-0.156,0-0.282-0.125-0.313-0.282l-0.564-2.572h-3.216l-0.564,2.572
				c-0.031,0.157-0.157,0.282-0.314,0.282h-2.195c-0.157,0-0.268-0.094-0.268-0.251c0-0.016,0.017-0.047,0.017-0.078l2.337-9.726
				c0.361-1.506,1.521-1.741,2.604-1.741c1.083,0,2.229,0.235,2.589,1.741l2.337,9.726c0,0.031,0.016,0.062,0.016,0.078
				C658.941,636.4,658.832,636.494,658.675,636.494z M654.204,627.161c-0.031-0.157-0.062-0.235-0.204-0.235
				c-0.141,0-0.188,0.078-0.219,0.235l-0.957,4.329h2.337L654.204,627.161z"/>
			<path fill="#968670" d="M667.785,627.161c-0.016,0-0.031,0-0.047,0c-0.753-0.031-1.93-0.126-3.263-0.126
				c-1.271,0-2.055,0.612-2.055,2.667v1.961c0,2.164,0.988,2.666,1.757,2.666c0.439,0,0.831-0.016,1.208-0.047v-3.607
				c0-0.173,0.125-0.313,0.298-0.313h2.008c0.172,0,0.313,0.141,0.313,0.313v5.271c0,0.22-0.078,0.313-0.313,0.36
				c-0.848,0.173-1.945,0.33-3.514,0.33c-1.788,0-4.471-1.021-4.471-4.988v-1.945c0-4,2.494-5.004,4.769-5.004
				c1.569,0,2.698,0.235,3.278,0.36c0.157,0.032,0.267,0.095,0.267,0.235v1.663C668.021,627.13,667.927,627.161,667.785,627.161z"/>
			<path fill="#968670" d="M674.605,636.635c-2.494,0-4.518-0.941-4.518-4.518v-6.98c0-0.173,0.142-0.298,0.314-0.298h2.055
				c0.172,0,0.313,0.125,0.313,0.298v6.98c0,1.6,0.423,2.274,1.835,2.274s1.852-0.675,1.852-2.274v-6.98
				c0-0.173,0.141-0.298,0.313-0.298h2.039c0.173,0,0.329,0.125,0.329,0.298v6.98C679.139,635.694,677.1,636.635,674.605,636.635z"
				/>
			<path fill="#968670" d="M689.803,636.494h-2.196c-0.157,0-0.282-0.125-0.313-0.282l-0.564-2.572h-3.217l-0.564,2.572
				c-0.031,0.157-0.156,0.282-0.313,0.282h-2.196c-0.156,0-0.267-0.094-0.267-0.251c0-0.016,0.016-0.047,0.016-0.078l2.337-9.726
				c0.361-1.506,1.521-1.741,2.604-1.741c1.082,0,2.228,0.235,2.588,1.741l2.337,9.726c0,0.031,0.016,0.062,0.016,0.078
				C690.068,636.4,689.959,636.494,689.803,636.494z M685.332,627.161c-0.031-0.157-0.062-0.235-0.204-0.235
				s-0.188,0.078-0.22,0.235l-0.957,4.329h2.338L685.332,627.161z"/>
		</g>
		<g enable-background="new    ">
			<path fill="#72ADC8" d="M563.896,622.515c-1.583,0.539-3.776,0.899-5.97,0.899c-5.323,0-8.38-1.475-8.38-5.971v-0.323
				c0-1.583,0.576-3.129,1.834-4.928l3.812-5.502c0.503-0.72,0.647-1.079,0.755-1.835c0.036-0.287,0.324-0.503,0.576-0.503h4.999
				c0.216,0,0.359,0.216,0.359,0.468v1.259c0,1.726-0.216,2.625-1.043,4.063l-2.913,4.963c-0.216,0.36-0.396,0.72-0.396,1.079
				c0,0.72,0.432,0.972,1.618,0.972c0.936,0,3.849-0.288,4.711-0.396c0.036,0,0.072,0,0.108,0c0.396,0,0.612,0.288,0.612,0.72v4.208
				C564.58,622.156,564.364,622.372,563.896,622.515z M561.594,601.943h-5.251c-0.396,0-0.755-0.323-0.755-0.719v-4.999
				c0-0.396,0.36-0.72,0.755-0.72h5.251c0.396,0,0.719,0.323,0.719,0.72v4.999C562.313,601.62,561.99,601.943,561.594,601.943z"/>
			<path fill="#72ADC8" d="M577.919,607.734c-0.791,0-1.583-0.072-2.553-0.108v8.092c0,0.396-0.324,0.72-0.72,0.72h-5.754
				c-0.396,0-0.755-0.252-0.755-0.647v-23.593c0-1.727,0.575-2.122,2.086-2.374c1.798-0.287,5.035-0.468,7.588-0.468
				c5.359,0,11.221,1.87,11.221,9.027v0.288C589.033,605.756,583.099,607.734,577.919,607.734z M581.768,598.383
				c0-2.086-1.438-2.913-3.848-2.913c-0.251,0-2.337,0.036-2.553,0.036v6.114c0.18,0.036,2.337,0.036,2.553,0.036
				c2.518,0,3.848-0.972,3.848-2.985V598.383z"/>
			<path fill="#72ADC8" d="M602.875,616.76c-5.97,0-11.041-3.057-11.041-11.832v-3.704c0-8.775,5.071-11.869,11.041-11.869
				s11.042,3.094,11.042,11.869v3.704C613.917,613.704,608.845,616.76,602.875,616.76z M606.508,601.224
				c0-3.849-1.115-5.431-3.633-5.431s-3.632,1.582-3.632,5.431v3.704c0,3.849,1.115,5.395,3.632,5.395s3.633-1.546,3.633-5.395
				V601.224z"/>
			<path fill="#72ADC8" d="M639.196,616.437h-6.618c-0.396,0-0.54-0.359-0.719-0.72l-4.568-8.775c-0.54,0-0.935,0-2.05-0.035v8.811
				c0,0.396-0.324,0.72-0.719,0.72h-5.827c-0.396,0-0.755-0.323-0.755-0.72v-23.521c0-1.727,0.575-2.122,2.086-2.374
				c1.438-0.216,5.035-0.468,7.588-0.468c6.689,0,11.257,2.122,11.257,8.704v0.575c0,3.849-2.122,6.114-4.388,7.085l5.215,9.782
				c0.072,0.145,0.108,0.288,0.108,0.396C639.808,616.221,639.556,616.437,639.196,616.437z M631.607,598.059
				c0-1.69-1.187-2.554-3.597-2.554c-0.251,0-1.726,0-2.769,0.072v5.718c0.18,0.036,2.41,0.036,2.625,0.036
				c2.769,0,3.74-0.971,3.74-2.661V598.059z"/>
			<path fill="#72ADC8" d="M656.455,616.365v0.684c0,0.611,0.181,0.684,0.648,0.684h2.984c0.504,0,0.899,0.216,0.899,0.575v3.669
				c0,0.359-0.323,0.683-0.863,0.827c-1.259,0.323-2.769,0.539-4.46,0.539c-3.164,0-6.078-1.366-6.078-6.258v-0.72
				c-4.387-1.043-7.624-4.424-7.624-11.437v-3.704c0-8.74,5.071-11.833,11.041-11.833s11.005,3.093,11.005,11.833v3.704
				C664.008,611.87,660.808,615.287,656.455,616.365z M656.636,601.224c0-3.885-1.115-5.431-3.633-5.431s-3.669,1.546-3.669,5.431
				v3.704c0,3.884,1.151,5.431,3.669,5.431s3.633-1.547,3.633-5.431V601.224z"/>
			<path fill="#72ADC8" d="M678.822,616.76c-5.646,0-10.861-1.762-10.861-10.466v-15.86c0-0.396,0.359-0.719,0.755-0.719h5.826
				c0.396,0,0.72,0.323,0.72,0.719v15.86c0,3.273,1.007,4.316,3.561,4.316c2.553,0,3.596-1.043,3.596-4.316v-15.86
				c0-0.396,0.324-0.719,0.72-0.719h5.827c0.395,0,0.754,0.323,0.754,0.719v15.86C689.719,614.999,684.469,616.76,678.822,616.76z"
				/>
			<path fill="#72ADC8" d="M710.395,616.33c-1.366,0.18-3.596,0.431-7.084,0.431c-4.604,0-9.207-1.078-9.207-8.056v-11.293
				c0-6.941,4.604-8.057,9.207-8.057c3.488,0,5.718,0.252,7.084,0.432c0.469,0.072,0.72,0.288,0.72,0.72v4.388
				c0,0.396-0.323,0.72-0.72,0.72h-7.265c-1.294,0-1.726,0.396-1.726,1.798v2.625h8.847c0.396,0,0.72,0.324,0.72,0.72v4.244
				c0,0.396-0.324,0.719-0.72,0.719h-8.847v2.985c0,1.402,0.432,1.798,1.726,1.798h7.265c0.396,0,0.72,0.324,0.72,0.72v4.388
				C711.114,616.042,710.863,616.258,710.395,616.33z M709.352,583.134l-4.531,4.316c-0.287,0.251-0.359,0.396-0.863,0.396h-4.639
				c-0.217,0-0.324-0.108-0.324-0.252c0-0.108,0.036-0.252,0.145-0.359l3.271-4.101c0.324-0.396,0.469-0.539,1.008-0.539h5.682
				c0.252,0,0.396,0.107,0.396,0.252C709.496,582.918,709.46,583.026,709.352,583.134z"/>
			<path fill="#72ADC8" d="M727.583,599.75l-3.812,5.502c-0.503,0.72-0.647,1.079-0.755,1.835c-0.036,0.287-0.324,0.503-0.576,0.503
				h-4.998c-0.217,0-0.36-0.216-0.36-0.467v-1.259c0-1.727,0.216-2.626,1.043-4.064l2.913-4.963c0.216-0.36,0.396-0.72,0.396-1.079
				c0-0.72-0.432-0.972-1.619-0.972c-0.936,0-3.848,0.288-4.711,0.396c-0.504,0.071-0.72-0.216-0.72-0.72v-4.208
				c0-0.468,0.216-0.684,0.683-0.827c1.583-0.539,3.777-0.899,5.971-0.899c5.322,0,8.38,1.475,8.38,5.971v0.323
				C729.417,596.405,728.842,597.951,727.583,599.75z M722.619,616.437h-5.25c-0.396,0-0.72-0.323-0.72-0.72v-4.999
				c0-0.396,0.323-0.719,0.72-0.719h5.25c0.396,0,0.756,0.323,0.756,0.719v4.999C723.375,616.114,723.016,616.437,722.619,616.437z"
				/>
		</g>
	</g>
</g>
</svg>
