<?xml version="1.0" encoding="utf-8"?>
<!-- Generator: Adobe Illustrator 16.0.0, SVG Export Plug-In . SVG Version: 6.00 Build 0)  -->
<!DOCTYPE svg PUBLIC "-//W3C//DTD SVG 1.1//EN" "http://www.w3.org/Graphics/SVG/1.1/DTD/svg11.dtd">
<svg version="1.1" id="Layer_1" xmlns="http://www.w3.org/2000/svg" xmlns:xlink="http://www.w3.org/1999/xlink" x="0px" y="0px"
	 width="92.918px" height="71.811px" viewBox="0 0 92.918 71.811" enable-background="new 0 0 92.918 71.811" xml:space="preserve">
<g>
	<g>
		<path fill="#2B4E6B" d="M2.46,10.493c1.092,0.771,2.278,0.801,2.718,0.76c0.56-0.039,1.039-0.438,0.985-0.959
			C6.123,9.747,5.71,9.508,5.178,9.321C3.686,8.774,2.354,8.015,2.354,6.417c0-1.6,1.105-2.824,2.691-2.902
			C5.538,3.49,6.191,3.49,7.416,3.913L7.176,5.75C6.124,5.325,5.524,5.338,5.231,5.352c-0.68,0.039-0.986,0.533-0.946,1.065
			C4.338,6.95,4.805,7.19,5.35,7.375c1.479,0.547,2.759,1.396,2.759,2.918c0,1.586-1.094,2.797-2.877,2.891
			c-0.533,0.041-1.719-0.022-3.012-0.688L2.46,10.493z"/>
		<path fill="#2B4E6B" d="M13.85,5.377c-3.77,0-3.77,5.809,0,5.809c0.826,0,1.479-0.237,1.838-0.428l0.254,1.974
			c-0.587,0.239-1.426,0.399-2.092,0.399c-6.461,0-6.447-9.672,0-9.672c0.666,0,1.306,0.119,1.878,0.373l-0.227,1.959
			C15.142,5.603,14.677,5.377,13.85,5.377z"/>
		<path fill="#2B4E6B" d="M21.936,13.103l-1.918-3.637h-0.919v3.637h-1.904V3.581h3.756c3.396,0,3.729,4.779,0.932,5.594l2.211,3.93
			L21.936,13.103L21.936,13.103z M19.099,7.616h1.679c1.292,0,1.292-2.133,0-2.133h-1.679V7.616z"/>
		<path fill="#2B4E6B" d="M29.677,3.42c6.555,0,6.555,9.814,0,9.814C23.123,13.24,23.123,3.42,29.677,3.42z M29.677,5.377
			c-3.81,0-3.81,5.889,0,5.889C33.486,11.265,33.486,5.377,29.677,5.377z"/>
		<path fill="#2B4E6B" d="M38.016,3.581V11.2h3.024v1.901h-4.93V3.581H38.016L38.016,3.581z"/>
		<path fill="#2B4E6B" d="M44.317,3.581V11.2h3.023v1.901h-4.93V3.581H44.317L44.317,3.581z"/>
		<path fill="#2B4E6B" d="M54.538,13.103H51.7V3.581h2.838C60.875,3.581,60.875,13.103,54.538,13.103z M53.604,5.485V11.2h0.935
			c3.703,0,3.703-5.717,0-5.717L53.604,5.485L53.604,5.485z"/>
		<path fill="#2B4E6B" d="M65.393,3.42c6.555,0,6.555,9.814,0,9.814C58.838,13.24,58.838,3.42,65.393,3.42z M65.393,5.377
			c-3.812,0-3.812,5.889,0,5.889C69.204,11.266,69.204,5.377,65.393,5.377z"/>
		<path fill="#2B4E6B" d="M74.747,13.302l-3.901-9.725h2.145l1.92,4.859l1.863-4.771h0.096l1.861,4.771l1.918-4.859h2.146
			L78.9,13.263h-0.346l-1.744-4.222l-1.729,4.262L74.747,13.302L74.747,13.302z"/>
		<path fill="#2B4E6B" d="M85.588,13.103h-1.904V3.378h0.506l4.813,5.596V3.591h1.918v9.711h-0.506l-4.822-5.381v5.182H85.588z"/>
	</g>
</g>
<g>
	<path fill="#2B4E6B" d="M69.885,38.23v2.797c0,2.314-1.883,4.196-4.197,4.196c-2.312,0-4.194-1.882-4.194-4.196l-0.002-9.792
		c0-5.398-4.392-9.792-9.791-9.792c-4.923,0-8.998,3.655-9.68,8.394h-0.112c-6.18,0-11.19,5.011-11.19,11.189v13.988
		c0,6.181,5.01,11.19,11.19,11.19h2.798c6.181,0,11.19-5.011,11.19-11.19V41.027c0-6.133-4.936-11.106-11.05-11.184
		c0.647-3.191,3.474-5.602,6.854-5.602c3.856,0,6.993,3.138,6.993,6.993v9.792c0,3.856,3.139,6.994,6.994,6.994
		c3.857,0,6.994-3.138,6.994-6.994V38.23H69.885z M33.516,55.015V41.027c0-4.628,3.765-8.393,8.393-8.393h0.109
		c7.082,0,8.393,3.765,8.393,8.393v13.989c0,4.623-1.746,8.385-8.374,8.393h-0.128C37.28,63.407,33.516,59.643,33.516,55.015z"/>
	<path fill="#2B4E6B" d="M45.405,43.125v-2.798c0-1.158-0.939-2.099-2.098-2.099c-1.159,0-2.098,0.939-2.098,2.099v2.798
		c0,1.159,0.939,2.098,2.098,2.098C44.466,45.223,45.405,44.284,45.405,43.125z"/>
</g>
</svg>
