<?xml version="1.0" encoding="utf-8"?>
<!-- Generator: Adobe Illustrator 16.0.0, SVG Export Plug-In . SVG Version: 6.00 Build 0)  -->
<!DOCTYPE svg PUBLIC "-//W3C//DTD SVG 1.1//EN" "http://www.w3.org/Graphics/SVG/1.1/DTD/svg11.dtd">
<svg version="1.1" id="Sol" xmlns="http://www.w3.org/2000/svg" xmlns:xlink="http://www.w3.org/1999/xlink" x="0px" y="0px"
	 width="1280px" height="700px" viewBox="0 0 1280 700" enable-background="new 0 0 1280 700" xml:space="preserve">
<g>
	<g>
		<g>
			<g>
				<g>
					<path fill="#F0BD93" d="M862.27,111.503l0.195-8.571l-6.201,5.85C858.39,109.447,860.402,110.364,862.27,111.503z"/>
					<path fill="#F0BD93" d="M883.248,138.925l-7.857-4.297c0,0.073,0.006,0.144,0.006,0.218c0,2.304-0.287,4.542-0.826,6.678
						L883.248,138.925z"/>
					<path fill="#F0BD93" d="M874.977,130.091l6.734-5.787l-8.742-0.714C873.896,125.635,874.576,127.813,874.977,130.091z"/>
					<path fill="#F0BD93" d="M870.637,119.441l3.725-7.869l-8.146,2.856C867.885,115.909,869.373,117.592,870.637,119.441z"/>
					<path fill="#F0BD93" d="M850.08,162.072l5.355,7.741l1.74-9.216C854.93,161.389,852.551,161.895,850.08,162.072z"/>
					<path fill="#F0BD93" d="M869.541,151.728l9.162,1.179l-5.535-7.257C872.223,147.84,870.998,149.881,869.541,151.728z"/>
					<path fill="#F0BD93" d="M860.879,158.971l7.986,4.859l-2.139-9.036C864.977,156.43,863.014,157.836,860.879,158.971z"/>
				</g>
			</g>
		</g>
		<path fill="#EDAE7C" d="M817.469,152.906l9.164-1.179c-1.458-1.847-2.686-3.888-3.632-6.078L817.469,152.906z M823.203,123.59
			l-8.742,0.714l6.736,5.787C821.598,127.813,822.277,125.635,823.203,123.59z M848.086,99.874l-3.287,7.863
			c1.08-0.129,2.174-0.203,3.289-0.203l0,0L848.086,99.874L848.086,99.874z M839.907,108.781l-6.202-5.85l0.198,8.571
			C835.771,110.364,837.783,109.447,839.907,108.781z M820.777,134.846c0-0.074,0.002-0.146,0.006-0.218l-7.857,4.297l8.677,2.599
			C821.066,139.388,820.777,137.149,820.777,134.846z M840.734,169.813l5.355-7.741c-2.471-0.178-4.848-0.684-7.092-1.474
			L840.734,169.813z M829.954,114.426l-8.144-2.854l3.725,7.869C826.799,117.592,828.285,115.909,829.954,114.426z M827.305,163.83
			l7.988-4.859c-2.134-1.135-4.096-2.541-5.85-4.177L827.305,163.83z"/>
	</g>
	<path fill="#F0BD93" d="M848.086,99.874L848.086,99.874l0.002,7.66c1.113,0,2.205,0.074,3.283,0.204L848.086,99.874z"/>
	<path fill="#F0BD93" d="M848.088,110.698v48.289c13.332,0,24.141-10.813,24.141-24.142
		C872.229,121.509,861.42,110.698,848.088,110.698z"/>
	<path fill="#EDAE7C" d="M823.94,134.846c0.001,13.328,10.812,24.141,24.147,24.142l0,0v-48.289l0,0
		C834.753,110.698,823.94,121.509,823.94,134.846z"/>
</g>
</svg>
