<?xml version="1.0" encoding="utf-8"?>
<!-- Generator: Adobe Illustrator 16.0.0, SVG Export Plug-In . SVG Version: 6.00 Build 0)  -->
<!DOCTYPE svg PUBLIC "-//W3C//DTD SVG 1.1//EN" "http://www.w3.org/Graphics/SVG/1.1/DTD/svg11.dtd">
<svg version="1.1" id="textoJarraNivel05" xmlns="http://www.w3.org/2000/svg" xmlns:xlink="http://www.w3.org/1999/xlink" x="0px"
	 y="0px" width="1280px" height="700px" viewBox="0 0 1280 700" enable-background="new 0 0 1280 700" xml:space="preserve">
<g>
	<g>
		<polyline fill="none" stroke="#E2D4D5" stroke-miterlimit="10" points="772.999,157.504 719.689,230.504 661.999,230.504 		"/>
		<circle fill="none" stroke="#E2D4D5" stroke-miterlimit="10" cx="658.999" cy="230.504" r="3.205"/>
	</g>
	<g>
		<g enable-background="new    ">
			<path fill="#D0E9EF" d="M785.797,153.504h-0.98c-0.209,0-0.359-0.04-0.52-0.31l-2.279-3.938c-0.039-0.06-0.059-0.079-0.09-0.079
				c-0.029,0-0.049,0.02-0.049,0.079v4.048c0,0.11-0.09,0.2-0.2,0.2h-1.18c-0.11,0-0.2-0.09-0.2-0.2v-6.846
				c0-0.21,0.17-0.38,0.381-0.38h1.009c0.2,0,0.3,0.1,0.42,0.31l2.368,4.118c0.041,0.06,0.051,0.08,0.08,0.08
				c0.02,0,0.051-0.021,0.051-0.091v-4.228c0-0.109,0.09-0.189,0.199-0.189h1.18c0.109,0,0.199,0.08,0.199,0.189v6.856
				C786.186,153.334,786.006,153.504,785.797,153.504z"/>
			<path fill="#D0E9EF" d="M789.108,153.504h-1.339c-0.11,0-0.18-0.09-0.18-0.2v-7.036c0-0.109,0.069-0.189,0.18-0.189h1.339
				c0.11,0,0.19,0.08,0.19,0.189v7.036C789.299,153.414,789.219,153.504,789.108,153.504z"/>
			<path fill="#D0E9EF" d="M796.566,146.288l-1.49,6.196c-0.229,0.96-0.959,1.109-1.648,1.109s-1.43-0.149-1.659-1.109l-1.489-6.196
				c0-0.021-0.01-0.03-0.01-0.05c0-0.09,0.08-0.16,0.18-0.16h1.389c0.101,0,0.181,0.08,0.201,0.18l1.248,5.767
				c0.021,0.11,0.051,0.15,0.141,0.15s0.119-0.04,0.14-0.15l1.249-5.767c0.021-0.1,0.09-0.18,0.19-0.18h1.399
				c0.1,0,0.17,0.06,0.17,0.16C796.576,146.248,796.566,146.267,796.566,146.288z"/>
			<path fill="#D0E9EF" d="M801.566,153.464c-0.35,0.05-0.859,0.13-1.939,0.13c-1.289,0-2.428-0.33-2.428-2.148v-3.318
				c0-1.819,1.148-2.139,2.438-2.139c1.079,0,1.579,0.08,1.929,0.13c0.141,0.02,0.2,0.069,0.2,0.199v0.93c0,0.11-0.091,0.2-0.2,0.2
				h-2.029c-0.469,0-0.639,0.16-0.639,0.68v0.909h2.588c0.11,0,0.2,0.09,0.2,0.2v0.949c0,0.11-0.09,0.2-0.2,0.2h-2.588v1.06
				c0,0.52,0.17,0.68,0.639,0.68h2.029c0.109,0,0.2,0.09,0.2,0.199v0.93C801.767,153.384,801.707,153.444,801.566,153.464z"/>
			<path fill="#D0E9EF" d="M807.097,153.464c-0.33,0.07-1.1,0.13-1.63,0.13c-1.289,0-2.438-0.33-2.438-2.148v-5.167
				c0-0.11,0.09-0.2,0.199-0.2h1.31c0.11,0,0.2,0.09,0.2,0.2v5.167c0,0.52,0.17,0.68,0.639,0.68h1.72c0.11,0,0.2,0.09,0.2,0.199
				v0.93C807.297,153.384,807.236,153.433,807.097,153.464z"/>
			<path fill="#D0E9EF" d="M813.338,153.594c-1.699,0-2.689-0.97-2.689-3.368v-0.859c0-2.398,0.99-3.378,2.689-3.378
				s2.698,0.979,2.698,3.378v0.859C816.036,152.624,815.037,153.594,813.338,153.594z M814.326,149.366
				c0-1.579-0.43-1.959-0.988-1.959c-0.561,0-0.98,0.38-0.98,1.959v0.859c0,1.579,0.42,1.949,0.98,1.949
				c0.559,0,0.988-0.37,0.988-1.949V149.366z"/>
			<path fill="#D0E9EF" d="M819.527,153.594c-0.64,0-1.389-0.109-1.969-0.29c-0.1-0.029-0.2-0.08-0.2-0.22v-0.789
				c0-0.11,0.08-0.181,0.18-0.181c0,0,0.011,0,0.021,0c0.629,0.07,1.429,0.12,1.799,0.12c0.949,0,1.149-0.399,1.149-1.089v-0.08
				c0-0.67-0.31-0.92-1.419-0.92h-1.55c-0.079,0-0.14-0.069-0.14-0.14v-0.01l0.31-3.729c0.011-0.1,0.101-0.189,0.2-0.189h3.888
				c0.11,0,0.2,0.08,0.2,0.189v1c0,0.109-0.09,0.189-0.2,0.189h-2.718l-0.121,1.38h0.291c1.729,0,2.978,0.489,2.978,2.229v0.08
				C822.226,152.724,821.276,153.594,819.527,153.594z"/>
		</g>
		<g>
			<g enable-background="new    ">
				<path fill="#F5A85B" d="M780.355,172.378c-0.42,0-1.021-0.084-1.12-0.111c-0.084-0.028-0.14-0.099-0.14-0.196v-0.995
					c0-0.153,0.125-0.252,0.279-0.252h0.925c0.253,0,0.351-0.084,0.351-0.49v-10.436c0-0.154,0.126-0.266,0.279-0.266h1.387
					c0.154,0,0.281,0.111,0.281,0.266v10.436C782.598,171.818,781.869,172.378,780.355,172.378z"/>
				<path fill="#F5A85B" d="M788.479,170.151c-2.256,0-3.853-0.98-3.853-3.965v-6.289c0-0.154,0.126-0.266,0.28-0.266h1.387
					c0.154,0,0.28,0.111,0.28,0.266v6.289c0,1.598,0.392,2.354,1.905,2.354c1.512,0,1.904-0.756,1.904-2.354v-6.289
					c0-0.154,0.127-0.266,0.28-0.266h1.387c0.154,0,0.28,0.111,0.28,0.266v6.289C792.33,169.171,790.733,170.151,788.479,170.151z"
					/>
				<path fill="#F5A85B" d="M800.883,169.913c-0.699,0.14-1.61,0.238-3.053,0.238c-1.514,0-3.754-0.995-3.754-4.301v-2.017
					c0-3.32,2.129-4.314,3.795-4.314c1.346,0,2.55,0.168,3.012,0.252c0.183,0.042,0.267,0.112,0.267,0.294v0.938
					c0,0.196-0.056,0.295-0.28,0.295c-0.014,0-0.027,0-0.042,0c-0.644-0.057-1.61-0.112-2.956-0.112
					c-0.938,0-1.834,0.658-1.834,2.647v2.017c0,1.989,0.966,2.634,1.793,2.634c0.518,0,0.952-0.014,1.387-0.042v-3.572
					c0-0.154,0.111-0.28,0.266-0.28h1.387c0.154,0,0.28,0.126,0.28,0.28v4.707C801.149,169.759,801.065,169.871,800.883,169.913z"/>
				<path fill="#F5A85B" d="M806.958,170.151c-2.312,0-3.992-1.289-3.992-4.37v-1.892c0-3.082,1.681-4.37,3.992-4.37
					s3.992,1.288,3.992,4.37v1.892C810.95,168.862,809.27,170.151,806.958,170.151z M808.988,163.889
					c0-1.849-0.658-2.676-2.03-2.676c-1.373,0-2.031,0.827-2.031,2.676v1.892c0,1.849,0.658,2.675,2.031,2.675
					c1.372,0,2.03-0.826,2.03-2.675V163.889z"/>
				<path fill="#F5A85B" d="M817.021,170.039c-0.154,0-0.279-0.126-0.279-0.28v-1.064c0-0.154,0.125-0.252,0.279-0.252h1.877v-6.892
					l-1.834,0.56c-0.07,0.028-0.127,0.028-0.169,0.028c-0.098,0-0.153-0.042-0.153-0.168v-1.316c0-0.084,0.027-0.126,0.098-0.154
					l2.479-0.812c0.085-0.028,0.169-0.056,0.322-0.056h0.926c0.153,0,0.266,0.111,0.266,0.266v8.545h1.877
					c0.154,0,0.28,0.098,0.28,0.252v1.064c0,0.154-0.126,0.28-0.28,0.28H817.021z"/>
				<path fill="#F5A85B" d="M828.447,170.151c-2.27,0-3.656-1.303-3.656-4.791v-1.036c0-3.488,1.387-4.805,3.656-4.805
					s3.656,1.316,3.656,4.805v1.036C832.104,168.848,830.717,170.151,828.447,170.151z M830.156,164.324
					c0-2.535-0.742-3.222-1.709-3.222s-1.709,0.687-1.709,3.222v1.036c0,2.535,0.742,3.208,1.709,3.208s1.709-0.673,1.709-3.208
					V164.324z"/>
				<path fill="#F5A85B" d="M837.268,170.151c-2.27,0-3.656-1.303-3.656-4.791v-1.036c0-3.488,1.387-4.805,3.656-4.805
					s3.656,1.316,3.656,4.805v1.036C840.924,168.848,839.537,170.151,837.268,170.151z M838.977,164.324
					c0-2.535-0.742-3.222-1.709-3.222s-1.709,0.687-1.709,3.222v1.036c0,2.535,0.742,3.208,1.709,3.208s1.709-0.673,1.709-3.208
					V164.324z"/>
				<path fill="#F5A85B" d="M844.238,165.402c-1.261,0-2.003-0.756-2.003-2.354V161.9c0-1.597,0.742-2.339,2.003-2.339
					s1.988,0.742,1.988,2.339v1.148C846.227,164.646,845.499,165.402,844.238,165.402z M845.037,161.9
					c0-0.994-0.295-1.303-0.799-1.303s-0.812,0.309-0.812,1.303v1.148c0,0.995,0.309,1.317,0.812,1.317s0.799-0.322,0.799-1.317
					V161.9z M851.061,159.911l-5.842,9.876c-0.112,0.196-0.168,0.294-0.322,0.294h-1.177c-0.098,0-0.14-0.056-0.14-0.126
					c0-0.056,0.014-0.112,0.056-0.168l5.841-9.876c0.127-0.21,0.183-0.279,0.336-0.279h1.178c0.084,0,0.125,0.042,0.125,0.111
					C851.115,159.785,851.102,159.842,851.061,159.911z M850.5,170.123c-1.262,0-2.004-0.756-2.004-2.354v-1.148
					c0-1.597,0.742-2.354,2.004-2.354c1.26,0,1.988,0.757,1.988,2.354v1.148C852.488,169.367,851.76,170.123,850.5,170.123z
					 M851.298,166.621c0-0.994-0.294-1.303-0.798-1.303c-0.505,0-0.812,0.309-0.812,1.303v1.148c0,0.995,0.308,1.303,0.812,1.303
					c0.504,0,0.798-0.308,0.798-1.303V166.621z"/>
				<path fill="#F5A85B" d="M860.703,170.151c-0.995,0-2.34-0.099-2.76-0.168c-0.238-0.042-0.364-0.154-0.364-0.435v-9.427
					c0-0.28,0.126-0.393,0.364-0.435c0.42-0.07,1.765-0.168,2.76-0.168c2.801,0,4.398,1.513,4.398,4.286v2.06
					C865.102,168.638,863.504,170.151,860.703,170.151z M863.168,163.805c0-2.102-1.064-2.647-2.465-2.647
					c-0.52,0-0.883,0.028-1.178,0.042v7.271c0.295,0.014,0.658,0.042,1.178,0.042c1.4,0,2.465-0.547,2.465-2.647V163.805z"/>
				<path fill="#F5A85B" d="M872.814,169.955c-0.449,0.07-0.995,0.196-2.662,0.196c-1.82,0-3.235-0.49-3.235-2.872v-4.889
					c0-2.381,1.415-2.871,3.235-2.871c1.667,0,2.213,0.126,2.662,0.196c0.209,0.027,0.279,0.098,0.279,0.294v0.896
					c0,0.154-0.125,0.28-0.279,0.28h-2.857c-0.812,0-1.107,0.28-1.107,1.204v1.513h3.797c0.153,0,0.279,0.127,0.279,0.28v1.009
					c0,0.154-0.126,0.28-0.279,0.28h-3.797v1.807c0,0.925,0.295,1.205,1.107,1.205h2.857c0.154,0,0.279,0.126,0.279,0.28v0.896
					C873.094,169.857,873.023,169.927,872.814,169.955z"/>
				<path fill="#F5A85B" d="M884.378,161.186h-2.857c-0.812,0-1.106,0.28-1.106,1.204v1.513h3.796c0.153,0,0.28,0.127,0.28,0.28
					v1.009c0,0.154-0.127,0.28-0.28,0.28h-3.796v4.286c0,0.154-0.127,0.28-0.28,0.28h-1.373c-0.153,0-0.28-0.126-0.28-0.28v-7.368
					c0-2.381,1.415-2.871,3.236-2.871c1.666,0,2.213,0.126,2.661,0.196c0.21,0.027,0.28,0.098,0.28,0.294v0.896
					C884.658,161.06,884.532,161.186,884.378,161.186z"/>
				<path fill="#F5A85B" d="M893.941,170.039h-1.709c-0.154,0-0.211-0.14-0.281-0.28l-2.017-3.74h-0.196
					c-0.364,0-0.924-0.042-1.246-0.056v3.796c0,0.154-0.112,0.28-0.267,0.28h-1.401c-0.153,0-0.279-0.126-0.279-0.28v-9.637
					c0-0.28,0.168-0.379,0.448-0.421c0.728-0.111,1.723-0.182,2.745-0.182c2.157,0,4.034,0.771,4.034,3.166v0.126
					c0,1.484-0.742,2.409-1.891,2.857l2.198,4.09c0.029,0.042,0.029,0.084,0.029,0.112
					C894.109,169.969,894.053,170.039,893.941,170.039z M891.84,162.685c0-1.051-0.701-1.499-2.102-1.499
					c-0.294,0-0.994,0.027-1.246,0.056v3.151c0.224,0.015,1.008,0.042,1.246,0.042c1.443,0,2.102-0.392,2.102-1.624V162.685z"/>
				<path fill="#F5A85B" d="M899.469,170.151c-2.255,0-3.852-0.98-3.852-3.965v-6.289c0-0.154,0.125-0.266,0.279-0.266h1.387
					c0.154,0,0.281,0.111,0.281,0.266v6.289c0,1.598,0.392,2.354,1.904,2.354s1.905-0.756,1.905-2.354v-6.289
					c0-0.154,0.126-0.266,0.28-0.266h1.387c0.154,0,0.279,0.111,0.279,0.266v6.289C903.32,169.171,901.725,170.151,899.469,170.151z
					"/>
				<path fill="#F5A85B" d="M911.775,161.256h-2.451v8.503c0,0.154-0.125,0.28-0.279,0.28h-1.387c-0.154,0-0.281-0.126-0.281-0.28
					v-8.503h-2.451c-0.154,0-0.279-0.098-0.279-0.252v-1.106c0-0.154,0.125-0.266,0.279-0.266h6.85c0.154,0,0.281,0.111,0.281,0.266
					v1.106C912.057,161.158,911.93,161.256,911.775,161.256z"/>
				<path fill="#F5A85B" d="M919.883,170.039h-1.484c-0.127,0-0.238-0.112-0.267-0.238l-0.645-2.661h-3.222l-0.645,2.661
					c-0.027,0.126-0.14,0.238-0.266,0.238h-1.485c-0.14,0-0.252-0.098-0.252-0.238c0-0.014,0.015-0.042,0.015-0.07l2.297-8.782
					c0.336-1.303,1.345-1.429,1.947-1.429c0.602,0,1.61,0.126,1.947,1.429l2.297,8.782c0,0.028,0.014,0.057,0.014,0.07
					C920.135,169.941,920.023,170.039,919.883,170.039z M916.101,161.383c-0.042-0.169-0.084-0.225-0.224-0.225
					c-0.141,0-0.183,0.056-0.225,0.225l-1.008,4.16h2.465L916.101,161.383z"/>
				<path fill="#F5A85B" d="M924.066,170.151c-1.051,0-1.808-0.099-2.48-0.252c-0.139-0.028-0.266-0.127-0.266-0.28v-1.009
					c0-0.154,0.127-0.267,0.266-0.267c0.015,0,0.015,0,0.029,0c0.56,0.07,1.961,0.141,2.479,0.141c1.247,0,1.625-0.448,1.625-1.261
					c0-0.546-0.266-0.826-1.19-1.373l-1.849-1.106c-1.303-0.771-1.653-1.583-1.653-2.563c0-1.541,0.896-2.661,3.502-2.661
					c0.925,0,2.213,0.14,2.689,0.252c0.14,0.028,0.252,0.126,0.252,0.267v1.036c0,0.14-0.099,0.252-0.238,0.252
					c-0.014,0-0.014,0-0.028,0c-0.924-0.084-1.849-0.14-2.759-0.14c-1.036,0-1.471,0.364-1.471,0.994
					c0,0.462,0.237,0.742,1.148,1.247l1.681,0.938c1.541,0.854,1.947,1.751,1.947,2.857
					C927.75,168.638,926.867,170.151,924.066,170.151z"/>
				<path fill="#F5A85B" d="M931.191,168.176l-1.219,2.941c-0.07,0.169-0.112,0.28-0.267,0.28h-0.966
					c-0.127,0-0.211-0.084-0.211-0.195c0-0.028,0-0.057,0.014-0.085l0.855-2.941c0.056-0.168,0.125-0.266,0.279-0.266h1.346
					c0.111,0,0.195,0.069,0.195,0.168C931.219,168.106,931.205,168.134,931.191,168.176z"/>
			</g>
			<g enable-background="new    ">
				<path fill="#F5A85B" d="M786.268,185.955c-0.42,0.098-1.639,0.196-2.382,0.196c-1.821,0-3.235-0.49-3.235-2.872v-7.368
					c0-0.153,0.126-0.279,0.279-0.279h1.387c0.154,0,0.281,0.126,0.281,0.279v7.368c0,0.925,0.279,1.205,1.092,1.205h2.578
					c0.154,0,0.279,0.126,0.279,0.28v0.896C786.547,185.857,786.478,185.913,786.268,185.955z"/>
				<path fill="#F5A85B" d="M793.491,185.955c-0.448,0.07-0.995,0.196-2.661,0.196c-1.821,0-3.236-0.49-3.236-2.872v-4.889
					c0-2.381,1.415-2.871,3.236-2.871c1.666,0,2.213,0.126,2.661,0.196c0.21,0.027,0.28,0.098,0.28,0.294v0.896
					c0,0.154-0.126,0.28-0.28,0.28h-2.857c-0.812,0-1.106,0.28-1.106,1.204v1.513h3.796c0.153,0,0.28,0.127,0.28,0.28v1.009
					c0,0.154-0.127,0.28-0.28,0.28h-3.796v1.807c0,0.925,0.294,1.205,1.106,1.205h2.857c0.154,0,0.28,0.126,0.28,0.28v0.896
					C793.771,185.857,793.701,185.927,793.491,185.955z"/>
				<path fill="#F5A85B" d="M801.555,185.927c-0.209,0.057-1.135,0.225-2.213,0.225c-1.681,0-3.964-0.827-3.964-4.286v-2.06
					c0-3.516,2.283-4.286,3.964-4.286c1.078,0,2.004,0.168,2.213,0.224c0.183,0.057,0.309,0.126,0.309,0.322v0.938
					c0,0.168-0.07,0.295-0.28,0.295c0,0-0.014,0-0.028,0c-0.49-0.043-1.442-0.112-2.185-0.112c-1.177,0-2.031,0.63-2.031,2.619v2.06
					c0,1.946,0.854,2.619,2.031,2.619c0.742,0,1.694-0.07,2.185-0.112c0.015,0,0.028,0,0.028,0c0.21,0,0.28,0.126,0.28,0.294v0.938
					C801.863,185.801,801.737,185.871,801.555,185.927z"/>
				<path fill="#F5A85B" d="M811.132,186.039h-1.387c-0.153,0-0.28-0.126-0.28-0.28v-4.286h-3.979v4.286
					c0,0.154-0.125,0.28-0.279,0.28h-1.387c-0.154,0-0.28-0.126-0.28-0.28v-9.861c0-0.154,0.126-0.266,0.28-0.266h1.387
					c0.154,0,0.279,0.111,0.279,0.266v3.866h3.979v-3.866c0-0.154,0.127-0.266,0.28-0.266h1.387c0.154,0,0.28,0.111,0.28,0.266
					v9.861C811.412,185.913,811.286,186.039,811.132,186.039z"/>
				<path fill="#F5A85B" d="M819.404,185.955c-0.447,0.07-0.994,0.196-2.661,0.196c-1.821,0-3.235-0.49-3.235-2.872v-4.889
					c0-2.381,1.414-2.871,3.235-2.871c1.667,0,2.214,0.126,2.661,0.196c0.211,0.027,0.281,0.098,0.281,0.294v0.896
					c0,0.154-0.127,0.28-0.281,0.28h-2.857c-0.812,0-1.106,0.28-1.106,1.204v1.513h3.796c0.154,0,0.28,0.127,0.28,0.28v1.009
					c0,0.154-0.126,0.28-0.28,0.28h-3.796v1.807c0,0.925,0.294,1.205,1.106,1.205h2.857c0.154,0,0.281,0.126,0.281,0.28v0.896
					C819.686,185.857,819.615,185.927,819.404,185.955z"/>
				<path fill="#F5A85B" d="M830.969,185.955c-0.448,0.07-0.994,0.196-2.662,0.196c-1.82,0-3.234-0.49-3.234-2.872v-4.889
					c0-2.381,1.414-2.871,3.234-2.871c1.668,0,2.214,0.126,2.662,0.196c0.21,0.027,0.28,0.098,0.28,0.294v0.896
					c0,0.154-0.126,0.28-0.28,0.28h-2.857c-0.812,0-1.107,0.28-1.107,1.204v1.513h3.797c0.154,0,0.28,0.127,0.28,0.28v1.009
					c0,0.154-0.126,0.28-0.28,0.28h-3.797v1.807c0,0.925,0.295,1.205,1.107,1.205h2.857c0.154,0,0.28,0.126,0.28,0.28v0.896
					C831.249,185.857,831.179,185.927,830.969,185.955z"/>
				<path fill="#F5A85B" d="M840.447,186.039h-1.414c-0.337,0-0.631,0-0.855-0.504l-3.109-6.822
					c-0.042-0.084-0.084-0.112-0.126-0.112s-0.069,0.028-0.069,0.112v7.046c0,0.154-0.113,0.28-0.267,0.28h-1.19
					c-0.154,0-0.28-0.126-0.28-0.28v-9.567c0-0.308,0.252-0.56,0.56-0.56h1.514c0.294,0,0.447,0.084,0.616,0.448l3.264,7.199
					c0.028,0.07,0.069,0.112,0.112,0.112c0.027,0,0.07-0.042,0.07-0.126v-7.368c0-0.154,0.111-0.266,0.266-0.266h1.205
					c0.153,0,0.266,0.111,0.266,0.266v9.581C841.008,185.787,840.756,186.039,840.447,186.039z"/>
				<path fill="#F5A85B" d="M849.127,177.256h-2.451v8.503c0,0.154-0.126,0.28-0.28,0.28h-1.387c-0.154,0-0.28-0.126-0.28-0.28
					v-8.503h-2.451c-0.154,0-0.28-0.098-0.28-0.252v-1.106c0-0.154,0.126-0.266,0.28-0.266h6.85c0.154,0,0.28,0.111,0.28,0.266
					v1.106C849.407,177.158,849.281,177.256,849.127,177.256z"/>
				<path fill="#F5A85B" d="M856.351,185.955c-0.448,0.07-0.995,0.196-2.661,0.196c-1.821,0-3.236-0.49-3.236-2.872v-4.889
					c0-2.381,1.415-2.871,3.236-2.871c1.666,0,2.213,0.126,2.661,0.196c0.21,0.027,0.28,0.098,0.28,0.294v0.896
					c0,0.154-0.126,0.28-0.28,0.28h-2.857c-0.812,0-1.106,0.28-1.106,1.204v1.513h3.796c0.153,0,0.28,0.127,0.28,0.28v1.009
					c0,0.154-0.127,0.28-0.28,0.28h-3.796v1.807c0,0.925,0.294,1.205,1.106,1.205h2.857c0.154,0,0.28,0.126,0.28,0.28v0.896
					C856.631,185.857,856.561,185.927,856.351,185.955z"/>
				<path fill="#F5A85B" d="M865.914,186.039h-1.709c-0.154,0-0.211-0.14-0.281-0.28l-2.017-3.74h-0.196
					c-0.364,0-0.924-0.042-1.246-0.056v3.796c0,0.154-0.112,0.28-0.267,0.28h-1.401c-0.153,0-0.279-0.126-0.279-0.28v-9.637
					c0-0.28,0.168-0.379,0.448-0.421c0.728-0.111,1.723-0.182,2.745-0.182c2.157,0,4.034,0.771,4.034,3.166v0.126
					c0,1.484-0.742,2.409-1.891,2.857l2.198,4.09c0.029,0.042,0.029,0.084,0.029,0.112
					C866.082,185.969,866.025,186.039,865.914,186.039z M863.812,178.685c0-1.051-0.701-1.499-2.102-1.499
					c-0.294,0-0.994,0.027-1.246,0.056v3.151c0.224,0.015,1.008,0.042,1.246,0.042c1.443,0,2.102-0.392,2.102-1.624V178.685z"/>
				<path fill="#F5A85B" d="M875.14,186.039h-1.485c-0.125,0-0.238-0.112-0.266-0.238l-0.645-2.661h-3.222l-0.645,2.661
					c-0.028,0.126-0.14,0.238-0.267,0.238h-1.484c-0.14,0-0.252-0.098-0.252-0.238c0-0.014,0.014-0.042,0.014-0.07l2.298-8.782
					c0.336-1.303,1.345-1.429,1.946-1.429c0.604,0,1.611,0.126,1.947,1.429l2.297,8.782c0,0.028,0.015,0.057,0.015,0.07
					C875.392,185.941,875.279,186.039,875.14,186.039z M871.357,177.383c-0.042-0.169-0.084-0.225-0.225-0.225
					c-0.14,0-0.182,0.056-0.224,0.225l-1.009,4.16h2.466L871.357,177.383z"/>
				<path fill="#F5A85B" d="M878.469,184.176l-1.219,2.941c-0.07,0.169-0.112,0.28-0.267,0.28h-0.966
					c-0.127,0-0.211-0.084-0.211-0.195c0-0.028,0-0.057,0.014-0.085l0.855-2.941c0.056-0.168,0.125-0.266,0.279-0.266h1.346
					c0.111,0,0.195,0.069,0.195,0.168C878.496,184.106,878.482,184.134,878.469,184.176z"/>
				<path fill="#F5A85B" d="M886.925,186.151c-1.135,0-1.989-0.07-2.423-0.154c-0.463-0.084-0.673-0.238-0.673-0.757v-8.824
					c0-0.505,0.182-0.687,0.63-0.757c0.364-0.056,1.247-0.14,2.34-0.14c2.535,0,4.314,0.729,4.314,2.844v0.279
					c0,0.925-0.435,1.751-1.289,2.115c0.854,0.364,1.358,1.079,1.358,2.13v0.237C891.183,185.352,889.529,186.151,886.925,186.151z
					 M889.222,178.474c0-0.98-0.63-1.345-2.423-1.345c-0.336,0-0.729,0.015-1.023,0.028v2.844h1.779
					c1.303,0,1.667-0.616,1.667-1.331V178.474z M889.277,182.915c0-0.771-0.406-1.484-1.723-1.484h-1.779v3.082
					c0.337,0,0.855,0.027,1.149,0.027c1.793,0,2.353-0.462,2.353-1.442V182.915z"/>
				<path fill="#F5A85B" d="M898.826,185.955c-0.448,0.07-0.994,0.196-2.662,0.196c-1.82,0-3.234-0.49-3.234-2.872v-4.889
					c0-2.381,1.414-2.871,3.234-2.871c1.668,0,2.214,0.126,2.662,0.196c0.21,0.027,0.28,0.098,0.28,0.294v0.896
					c0,0.154-0.126,0.28-0.28,0.28h-2.857c-0.812,0-1.107,0.28-1.107,1.204v1.513h3.797c0.154,0,0.28,0.127,0.28,0.28v1.009
					c0,0.154-0.126,0.28-0.28,0.28h-3.797v1.807c0,0.925,0.295,1.205,1.107,1.205h2.857c0.154,0,0.28,0.126,0.28,0.28v0.896
					C899.106,185.857,899.036,185.927,898.826,185.955z"/>
				<path fill="#F5A85B" d="M904.089,186.151c-1.135,0-1.989-0.07-2.423-0.154c-0.463-0.084-0.673-0.238-0.673-0.757v-8.824
					c0-0.505,0.182-0.687,0.63-0.757c0.364-0.056,1.247-0.14,2.34-0.14c2.535,0,4.314,0.729,4.314,2.844v0.279
					c0,0.925-0.435,1.751-1.289,2.115c0.854,0.364,1.358,1.079,1.358,2.13v0.237C908.347,185.352,906.693,186.151,904.089,186.151z
					 M906.386,178.474c0-0.98-0.63-1.345-2.423-1.345c-0.336,0-0.729,0.015-1.023,0.028v2.844h1.779
					c1.303,0,1.667-0.616,1.667-1.331V178.474z M906.441,182.915c0-0.771-0.406-1.484-1.723-1.484h-1.779v3.082
					c0.337,0,0.855,0.027,1.149,0.027c1.793,0,2.353-0.462,2.353-1.442V182.915z"/>
				<path fill="#F5A85B" d="M911.76,186.039h-1.387c-0.154,0-0.28-0.126-0.28-0.28v-9.861c0-0.154,0.126-0.266,0.28-0.266h1.387
					c0.154,0,0.279,0.111,0.279,0.266v9.861C912.039,185.913,911.914,186.039,911.76,186.039z"/>
				<path fill="#F5A85B" d="M917.262,186.151c-0.994,0-2.339-0.099-2.76-0.168c-0.237-0.042-0.363-0.154-0.363-0.435v-9.427
					c0-0.28,0.126-0.393,0.363-0.435c0.421-0.07,1.766-0.168,2.76-0.168c2.802,0,4.398,1.513,4.398,4.286v2.06
					C921.66,184.638,920.063,186.151,917.262,186.151z M919.728,179.805c0-2.102-1.064-2.647-2.466-2.647
					c-0.518,0-0.882,0.028-1.176,0.042v7.271c0.294,0.014,0.658,0.042,1.176,0.042c1.401,0,2.466-0.547,2.466-2.647V179.805z"/>
				<path fill="#F5A85B" d="M930.732,186.039h-1.484c-0.126,0-0.238-0.112-0.266-0.238l-0.645-2.661h-3.223l-0.645,2.661
					c-0.027,0.126-0.14,0.238-0.266,0.238h-1.484c-0.141,0-0.252-0.098-0.252-0.238c0-0.014,0.014-0.042,0.014-0.07l2.297-8.782
					c0.336-1.303,1.345-1.429,1.947-1.429s1.611,0.126,1.947,1.429l2.297,8.782c0,0.028,0.014,0.057,0.014,0.07
					C930.984,185.941,930.873,186.039,930.732,186.039z M926.951,177.383c-0.043-0.169-0.084-0.225-0.225-0.225
					s-0.182,0.056-0.225,0.225l-1.008,4.16h2.465L926.951,177.383z"/>
				<path fill="#F5A85B" d="M934.916,186.151c-1.051,0-1.807-0.099-2.479-0.252c-0.14-0.028-0.267-0.127-0.267-0.28v-1.009
					c0-0.154,0.127-0.267,0.267-0.267c0.015,0,0.015,0,0.028,0c0.561,0.07,1.961,0.141,2.479,0.141c1.247,0,1.624-0.448,1.624-1.261
					c0-0.546-0.266-0.826-1.189-1.373l-1.85-1.106c-1.303-0.771-1.652-1.583-1.652-2.563c0-1.541,0.896-2.661,3.502-2.661
					c0.924,0,2.213,0.14,2.689,0.252c0.14,0.028,0.252,0.126,0.252,0.267v1.036c0,0.14-0.099,0.252-0.238,0.252
					c-0.014,0-0.014,0-0.028,0c-0.925-0.084-1.849-0.14-2.759-0.14c-1.037,0-1.472,0.364-1.472,0.994
					c0,0.462,0.238,0.742,1.149,1.247l1.68,0.938c1.541,0.854,1.947,1.751,1.947,2.857
					C938.6,184.638,937.718,186.151,934.916,186.151z"/>
			</g>
			<g enable-background="new    ">
				<path fill="#F5A85B" d="M783.773,202.151c-0.994,0-2.339-0.099-2.76-0.168c-0.237-0.042-0.363-0.154-0.363-0.435v-9.427
					c0-0.28,0.126-0.393,0.363-0.435c0.421-0.07,1.766-0.168,2.76-0.168c2.802,0,4.398,1.513,4.398,4.286v2.06
					C788.172,200.638,786.575,202.151,783.773,202.151z M786.239,195.805c0-2.102-1.064-2.647-2.466-2.647
					c-0.518,0-0.882,0.028-1.176,0.042v7.271c0.294,0.014,0.658,0.042,1.176,0.042c1.401,0,2.466-0.547,2.466-2.647V195.805z"/>
				<path fill="#F5A85B" d="M795.885,201.955c-0.447,0.07-0.994,0.196-2.661,0.196c-1.821,0-3.235-0.49-3.235-2.872v-4.889
					c0-2.381,1.414-2.871,3.235-2.871c1.667,0,2.214,0.126,2.661,0.196c0.211,0.027,0.281,0.098,0.281,0.294v0.896
					c0,0.154-0.127,0.28-0.281,0.28h-2.857c-0.812,0-1.106,0.28-1.106,1.204v1.513h3.796c0.154,0,0.28,0.127,0.28,0.28v1.009
					c0,0.154-0.126,0.28-0.28,0.28h-3.796v1.807c0,0.925,0.294,1.205,1.106,1.205h2.857c0.154,0,0.281,0.126,0.281,0.28v0.896
					C796.166,201.857,796.096,201.927,795.885,201.955z"/>
				<path fill="#F5A85B" d="M801.246,198.159c-0.365,0-0.925-0.042-1.247-0.057v3.656c0,0.154-0.112,0.28-0.267,0.28h-1.4
					c-0.154,0-0.279-0.126-0.279-0.28v-9.637c0-0.28,0.168-0.379,0.447-0.421c0.729-0.111,1.723-0.182,2.746-0.182
					c2.156,0,4.033,0.756,4.033,3.235v0.126C805.279,197.36,803.402,198.159,801.246,198.159z M803.347,194.755
					c0-1.177-0.7-1.625-2.101-1.625c-0.295,0-0.995,0.028-1.247,0.057v3.334c0.224,0.014,1.009,0.042,1.247,0.042
					c1.513,0,2.101-0.561,2.101-1.682V194.755z"/>
				<path fill="#F5A85B" d="M810.527,202.151c-2.311,0-3.992-1.289-3.992-4.37v-1.892c0-3.082,1.682-4.37,3.992-4.37
					c2.312,0,3.992,1.288,3.992,4.37v1.892C814.52,200.862,812.839,202.151,810.527,202.151z M812.559,195.889
					c0-1.849-0.658-2.676-2.031-2.676s-2.031,0.827-2.031,2.676v1.892c0,1.849,0.658,2.675,2.031,2.675s2.031-0.826,2.031-2.675
					V195.889z"/>
				<path fill="#F5A85B" d="M823.732,202.039h-1.709c-0.154,0-0.211-0.14-0.281-0.28l-2.017-3.74h-0.196
					c-0.364,0-0.924-0.042-1.246-0.056v3.796c0,0.154-0.112,0.28-0.267,0.28h-1.401c-0.153,0-0.279-0.126-0.279-0.28v-9.637
					c0-0.28,0.168-0.379,0.448-0.421c0.728-0.111,1.723-0.182,2.745-0.182c2.157,0,4.034,0.771,4.034,3.166v0.126
					c0,1.484-0.742,2.409-1.891,2.857l2.198,4.09c0.029,0.042,0.029,0.084,0.029,0.112
					C823.9,201.969,823.844,202.039,823.732,202.039z M821.631,194.685c0-1.051-0.701-1.499-2.102-1.499
					c-0.294,0-0.994,0.027-1.246,0.056v3.151c0.224,0.015,1.008,0.042,1.246,0.042c1.443,0,2.102-0.392,2.102-1.624V194.685z"/>
				<path fill="#F5A85B" d="M831.403,193.256h-2.451v8.503c0,0.154-0.126,0.28-0.28,0.28h-1.387c-0.154,0-0.28-0.126-0.28-0.28
					v-8.503h-2.451c-0.154,0-0.28-0.098-0.28-0.252v-1.106c0-0.154,0.126-0.266,0.28-0.266h6.85c0.154,0,0.28,0.111,0.28,0.266
					v1.106C831.684,193.158,831.558,193.256,831.403,193.256z"/>
				<path fill="#F5A85B" d="M834.746,202.039h-1.387c-0.153,0-0.279-0.126-0.279-0.28v-9.861c0-0.154,0.126-0.266,0.279-0.266h1.387
					c0.154,0,0.281,0.111,0.281,0.266v9.861C835.027,201.913,834.9,202.039,834.746,202.039z"/>
				<path fill="#F5A85B" d="M844.914,191.939l-2.298,8.783c-0.336,1.303-1.345,1.429-1.947,1.429s-1.61-0.126-1.946-1.429
					l-2.298-8.783c0-0.028-0.014-0.042-0.014-0.07c0-0.14,0.112-0.237,0.252-0.237h1.485c0.125,0,0.237,0.111,0.266,0.237
					l2.031,8.419c0.042,0.168,0.084,0.225,0.224,0.225s0.183-0.057,0.225-0.225l2.03-8.419c0.029-0.126,0.141-0.237,0.267-0.237
					h1.485c0.14,0,0.252,0.098,0.252,0.237C844.928,191.897,844.914,191.911,844.914,191.939z"/>
				<path fill="#F5A85B" d="M852.949,202.039h-1.484c-0.126,0-0.238-0.112-0.266-0.238l-0.645-2.661h-3.223l-0.645,2.661
					c-0.027,0.126-0.14,0.238-0.266,0.238h-1.484c-0.141,0-0.252-0.098-0.252-0.238c0-0.014,0.014-0.042,0.014-0.07l2.297-8.782
					c0.336-1.303,1.345-1.429,1.947-1.429s1.611,0.126,1.947,1.429l2.297,8.782c0,0.028,0.014,0.057,0.014,0.07
					C853.201,201.941,853.09,202.039,852.949,202.039z M849.168,193.383c-0.043-0.169-0.084-0.225-0.225-0.225
					s-0.182,0.056-0.225,0.225l-1.008,4.16h2.465L849.168,193.383z"/>
				<path fill="#F5A85B" d="M857.133,202.151c-1.051,0-1.807-0.099-2.479-0.252c-0.14-0.028-0.267-0.127-0.267-0.28v-1.009
					c0-0.154,0.127-0.267,0.267-0.267c0.015,0,0.015,0,0.028,0c0.561,0.07,1.961,0.141,2.479,0.141c1.247,0,1.624-0.448,1.624-1.261
					c0-0.546-0.266-0.826-1.189-1.373l-1.85-1.106c-1.303-0.771-1.652-1.583-1.652-2.563c0-1.541,0.896-2.661,3.502-2.661
					c0.924,0,2.213,0.14,2.689,0.252c0.14,0.028,0.252,0.126,0.252,0.267v1.036c0,0.14-0.099,0.252-0.238,0.252
					c-0.014,0-0.014,0-0.028,0c-0.925-0.084-1.849-0.14-2.759-0.14c-1.037,0-1.472,0.364-1.472,0.994
					c0,0.462,0.238,0.742,1.149,1.247l1.68,0.938c1.541,0.854,1.947,1.751,1.947,2.857
					C860.816,200.638,859.935,202.151,857.133,202.151z"/>
				<path fill="#F5A85B" d="M869.705,202.151c-2.311,0-3.992-1.289-3.992-4.37v-1.892c0-3.082,1.682-4.37,3.992-4.37
					c2.312,0,3.992,1.288,3.992,4.37v1.892C873.697,200.862,872.017,202.151,869.705,202.151z M871.736,195.889
					c0-1.849-0.658-2.676-2.031-2.676s-2.031,0.827-2.031,2.676v1.892c0,1.849,0.658,2.675,2.031,2.675s2.031-0.826,2.031-2.675
					V195.889z M871.723,188.998l-1.652,1.737c-0.113,0.126-0.169,0.182-0.337,0.182h-1.204c-0.084,0-0.127-0.042-0.127-0.098
					c0-0.042,0.015-0.099,0.057-0.141l1.33-1.681c0.127-0.154,0.183-0.21,0.365-0.21h1.471c0.098,0,0.153,0.042,0.153,0.098
					C871.778,188.914,871.765,188.956,871.723,188.998z"/>
				<path fill="#F5A85B" d="M882.108,202.151c-1.134,0-1.989-0.07-2.423-0.154c-0.463-0.084-0.672-0.238-0.672-0.757v-8.824
					c0-0.505,0.182-0.687,0.63-0.757c0.364-0.056,1.247-0.14,2.339-0.14c2.535,0,4.314,0.729,4.314,2.844v0.279
					c0,0.925-0.434,1.751-1.289,2.115c0.855,0.364,1.359,1.079,1.359,2.13v0.237C886.367,201.352,884.714,202.151,882.108,202.151z
					 M884.406,194.474c0-0.98-0.631-1.345-2.424-1.345c-0.336,0-0.729,0.015-1.022,0.028v2.844h1.778
					c1.303,0,1.668-0.616,1.668-1.331V194.474z M884.462,198.915c0-0.771-0.406-1.484-1.724-1.484h-1.778v3.082
					c0.337,0,0.854,0.027,1.148,0.027c1.793,0,2.354-0.462,2.354-1.442V198.915z"/>
				<path fill="#F5A85B" d="M894.01,201.955c-0.447,0.07-0.994,0.196-2.661,0.196c-1.821,0-3.235-0.49-3.235-2.872v-4.889
					c0-2.381,1.414-2.871,3.235-2.871c1.667,0,2.214,0.126,2.661,0.196c0.211,0.027,0.281,0.098,0.281,0.294v0.896
					c0,0.154-0.127,0.28-0.281,0.28h-2.857c-0.812,0-1.106,0.28-1.106,1.204v1.513h3.796c0.154,0,0.28,0.127,0.28,0.28v1.009
					c0,0.154-0.126,0.28-0.28,0.28h-3.796v1.807c0,0.925,0.294,1.205,1.106,1.205h2.857c0.154,0,0.281,0.126,0.281,0.28v0.896
					C894.291,201.857,894.221,201.927,894.01,201.955z"/>
				<path fill="#F5A85B" d="M899.272,202.151c-1.134,0-1.989-0.07-2.423-0.154c-0.463-0.084-0.672-0.238-0.672-0.757v-8.824
					c0-0.505,0.182-0.687,0.63-0.757c0.364-0.056,1.247-0.14,2.339-0.14c2.535,0,4.314,0.729,4.314,2.844v0.279
					c0,0.925-0.434,1.751-1.289,2.115c0.855,0.364,1.359,1.079,1.359,2.13v0.237C903.531,201.352,901.878,202.151,899.272,202.151z
					 M901.57,194.474c0-0.98-0.631-1.345-2.424-1.345c-0.336,0-0.729,0.015-1.022,0.028v2.844h1.778
					c1.303,0,1.668-0.616,1.668-1.331V194.474z M901.626,198.915c0-0.771-0.406-1.484-1.724-1.484h-1.778v3.082
					c0.337,0,0.854,0.027,1.148,0.027c1.793,0,2.354-0.462,2.354-1.442V198.915z"/>
				<path fill="#F5A85B" d="M906.943,202.039h-1.387c-0.154,0-0.279-0.126-0.279-0.28v-9.861c0-0.154,0.125-0.266,0.279-0.266h1.387
					c0.154,0,0.28,0.111,0.28,0.266v9.861C907.224,201.913,907.098,202.039,906.943,202.039z"/>
				<path fill="#F5A85B" d="M912.446,202.151c-0.995,0-2.339-0.099-2.76-0.168c-0.237-0.042-0.364-0.154-0.364-0.435v-9.427
					c0-0.28,0.127-0.393,0.364-0.435c0.421-0.07,1.765-0.168,2.76-0.168c2.802,0,4.398,1.513,4.398,4.286v2.06
					C916.845,200.638,915.248,202.151,912.446,202.151z M914.912,195.805c0-2.102-1.064-2.647-2.466-2.647
					c-0.519,0-0.882,0.028-1.177,0.042v7.271c0.295,0.014,0.658,0.042,1.177,0.042c1.401,0,2.466-0.547,2.466-2.647V195.805z"/>
				<path fill="#F5A85B" d="M925.917,202.039h-1.485c-0.125,0-0.238-0.112-0.266-0.238l-0.645-2.661H920.3l-0.645,2.661
					c-0.028,0.126-0.14,0.238-0.267,0.238h-1.484c-0.14,0-0.252-0.098-0.252-0.238c0-0.014,0.014-0.042,0.014-0.07l2.298-8.782
					c0.336-1.303,1.345-1.429,1.946-1.429c0.604,0,1.611,0.126,1.947,1.429l2.297,8.782c0,0.028,0.015,0.057,0.015,0.07
					C926.169,201.941,926.057,202.039,925.917,202.039z M922.135,193.383c-0.042-0.169-0.084-0.225-0.225-0.225
					c-0.14,0-0.182,0.056-0.224,0.225l-1.009,4.16h2.466L922.135,193.383z"/>
				<path fill="#F5A85B" d="M930.1,202.151c-1.05,0-1.807-0.099-2.479-0.252c-0.141-0.028-0.267-0.127-0.267-0.28v-1.009
					c0-0.154,0.126-0.267,0.267-0.267c0.014,0,0.014,0,0.027,0c0.561,0.07,1.961,0.141,2.479,0.141c1.247,0,1.625-0.448,1.625-1.261
					c0-0.546-0.267-0.826-1.19-1.373l-1.85-1.106c-1.303-0.771-1.652-1.583-1.652-2.563c0-1.541,0.896-2.661,3.502-2.661
					c0.924,0,2.213,0.14,2.689,0.252c0.141,0.028,0.252,0.126,0.252,0.267v1.036c0,0.14-0.098,0.252-0.238,0.252
					c-0.014,0-0.014,0-0.027,0c-0.925-0.084-1.85-0.14-2.76-0.14c-1.037,0-1.471,0.364-1.471,0.994c0,0.462,0.238,0.742,1.148,1.247
					l1.681,0.938c1.541,0.854,1.947,1.751,1.947,2.857C933.784,200.638,932.902,202.151,930.1,202.151z"/>
			</g>
			<g enable-background="new    ">
				<path fill="#F5A85B" d="M788.131,218.039h-1.485c-0.126,0-0.238-0.112-0.267-0.238l-0.645-2.661h-3.221l-0.645,2.661
					c-0.028,0.126-0.141,0.238-0.267,0.238h-1.485c-0.139,0-0.252-0.098-0.252-0.238c0-0.014,0.015-0.042,0.015-0.07l2.297-8.782
					c0.337-1.303,1.345-1.429,1.947-1.429s1.61,0.126,1.947,1.429l2.297,8.782c0,0.028,0.015,0.057,0.015,0.07
					C788.383,217.941,788.271,218.039,788.131,218.039z M784.348,209.383c-0.041-0.169-0.084-0.225-0.224-0.225
					s-0.183,0.056-0.224,0.225l-1.009,4.16h2.466L784.348,209.383z"/>
				<path fill="#F5A85B" d="M795.031,217.955c-0.42,0.098-1.639,0.196-2.381,0.196c-1.821,0-3.236-0.49-3.236-2.872v-7.368
					c0-0.153,0.127-0.279,0.28-0.279h1.387c0.154,0,0.28,0.126,0.28,0.279v7.368c0,0.925,0.28,1.205,1.093,1.205h2.577
					c0.154,0,0.28,0.126,0.28,0.28v0.896C795.312,217.857,795.242,217.913,795.031,217.955z"/>
				<path fill="#F5A85B" d="M802.256,217.927c-0.211,0.057-1.135,0.225-2.214,0.225c-1.681,0-3.964-0.827-3.964-4.286v-2.06
					c0-3.516,2.283-4.286,3.964-4.286c1.079,0,2.003,0.168,2.214,0.224c0.182,0.057,0.308,0.126,0.308,0.322v0.938
					c0,0.168-0.069,0.295-0.28,0.295c0,0-0.014,0-0.027,0c-0.49-0.043-1.443-0.112-2.186-0.112c-1.177,0-2.031,0.63-2.031,2.619
					v2.06c0,1.946,0.854,2.619,2.031,2.619c0.742,0,1.695-0.07,2.186-0.112c0.014,0,0.027,0,0.027,0c0.211,0,0.28,0.126,0.28,0.294
					v0.938C802.563,217.801,802.438,217.871,802.256,217.927z"/>
				<path fill="#F5A85B" d="M807.603,218.151c-2.312,0-3.992-1.289-3.992-4.37v-1.892c0-3.082,1.681-4.37,3.992-4.37
					s3.992,1.288,3.992,4.37v1.892C811.595,216.862,809.914,218.151,807.603,218.151z M809.633,211.889
					c0-1.849-0.658-2.676-2.03-2.676c-1.373,0-2.031,0.827-2.031,2.676v1.892c0,1.849,0.658,2.675,2.031,2.675
					c1.372,0,2.03-0.826,2.03-2.675V211.889z"/>
				<path fill="#F5A85B" d="M821.002,218.039h-1.387c-0.154,0-0.28-0.126-0.28-0.28v-4.286h-3.978v4.286
					c0,0.154-0.127,0.28-0.281,0.28h-1.387c-0.153,0-0.279-0.126-0.279-0.28v-9.861c0-0.154,0.126-0.266,0.279-0.266h1.387
					c0.154,0,0.281,0.111,0.281,0.266v3.866h3.978v-3.866c0-0.154,0.126-0.266,0.28-0.266h1.387c0.154,0,0.28,0.111,0.28,0.266
					v9.861C821.282,217.913,821.156,218.039,821.002,218.039z"/>
				<path fill="#F5A85B" d="M827.09,218.151c-2.311,0-3.992-1.289-3.992-4.37v-1.892c0-3.082,1.682-4.37,3.992-4.37
					c2.312,0,3.992,1.288,3.992,4.37v1.892C831.082,216.862,829.401,218.151,827.09,218.151z M829.121,211.889
					c0-1.849-0.658-2.676-2.031-2.676s-2.031,0.827-2.031,2.676v1.892c0,1.849,0.658,2.675,2.031,2.675s2.031-0.826,2.031-2.675
					V211.889z M829.107,204.998l-1.652,1.737c-0.113,0.126-0.169,0.182-0.337,0.182h-1.204c-0.084,0-0.127-0.042-0.127-0.098
					c0-0.042,0.015-0.099,0.057-0.141l1.33-1.681c0.127-0.154,0.183-0.21,0.365-0.21h1.471c0.098,0,0.153,0.042,0.153,0.098
					C829.163,204.914,829.149,204.956,829.107,204.998z"/>
				<path fill="#F5A85B" d="M838.515,217.955c-0.42,0.098-1.639,0.196-2.382,0.196c-1.82,0-3.234-0.49-3.234-2.872v-7.368
					c0-0.153,0.125-0.279,0.279-0.279h1.387c0.154,0,0.28,0.126,0.28,0.279v7.368c0,0.925,0.28,1.205,1.093,1.205h2.577
					c0.154,0,0.28,0.126,0.28,0.28v0.896C838.795,217.857,838.725,217.913,838.515,217.955z"/>
				<path fill="#F5A85B" d="M841.789,218.039h-1.387c-0.154,0-0.28-0.126-0.28-0.28v-9.861c0-0.154,0.126-0.266,0.28-0.266h1.387
					c0.154,0,0.279,0.111,0.279,0.266v9.861C842.068,217.913,841.943,218.039,841.789,218.039z"/>
				<path fill="#F5A85B" d="M850.064,217.927c-0.209,0.057-1.135,0.225-2.213,0.225c-1.681,0-3.964-0.827-3.964-4.286v-2.06
					c0-3.516,2.283-4.286,3.964-4.286c1.078,0,2.004,0.168,2.213,0.224c0.183,0.057,0.309,0.126,0.309,0.322v0.938
					c0,0.168-0.07,0.295-0.28,0.295c0,0-0.014,0-0.028,0c-0.49-0.043-1.442-0.112-2.185-0.112c-1.177,0-2.031,0.63-2.031,2.619v2.06
					c0,1.946,0.854,2.619,2.031,2.619c0.742,0,1.694-0.07,2.185-0.112c0.015,0,0.028,0,0.028,0c0.21,0,0.28,0.126,0.28,0.294v0.938
					C850.373,217.801,850.247,217.871,850.064,217.927z"/>
				<path fill="#F5A85B" d="M859.529,218.039h-1.484c-0.126,0-0.238-0.112-0.266-0.238l-0.645-2.661h-3.223l-0.645,2.661
					c-0.027,0.126-0.14,0.238-0.266,0.238h-1.484c-0.141,0-0.252-0.098-0.252-0.238c0-0.014,0.014-0.042,0.014-0.07l2.297-8.782
					c0.336-1.303,1.345-1.429,1.947-1.429s1.611,0.126,1.947,1.429l2.297,8.782c0,0.028,0.014,0.057,0.014,0.07
					C859.781,217.941,859.67,218.039,859.529,218.039z M855.748,209.383c-0.043-0.169-0.084-0.225-0.225-0.225
					s-0.182,0.056-0.225,0.225l-1.008,4.16h2.465L855.748,209.383z"/>
				<path fill="#F5A85B" d="M863.713,218.151c-1.051,0-1.807-0.099-2.479-0.252c-0.14-0.028-0.267-0.127-0.267-0.28v-1.009
					c0-0.154,0.127-0.267,0.267-0.267c0.015,0,0.015,0,0.028,0c0.561,0.07,1.961,0.141,2.479,0.141c1.247,0,1.624-0.448,1.624-1.261
					c0-0.546-0.266-0.826-1.189-1.373l-1.85-1.106c-1.303-0.771-1.652-1.583-1.652-2.563c0-1.541,0.896-2.661,3.502-2.661
					c0.924,0,2.213,0.14,2.689,0.252c0.14,0.028,0.252,0.126,0.252,0.267v1.036c0,0.14-0.099,0.252-0.238,0.252
					c-0.014,0-0.014,0-0.028,0c-0.925-0.084-1.849-0.14-2.759-0.14c-1.037,0-1.472,0.364-1.472,0.994
					c0,0.462,0.238,0.742,1.149,1.247l1.68,0.938c1.541,0.854,1.947,1.751,1.947,2.857
					C867.396,216.638,866.515,218.151,863.713,218.151z"/>
			</g>
		</g>
		<g enable-background="new    ">
			<path fill="#F7BC81" d="M789.783,239.126c-1.303,0.336-2.877,0.546-4.221,0.546c-3.381,0-5.018-1.994-5.018-5.27v-1.617
				c0-3.275,1.637-5.27,5.018-5.27c0.504,0,1.238,0.041,2.016,0.146v-3.717c0-0.23,0.189-0.42,0.42-0.42h1.932
				c0.23,0,0.42,0.189,0.42,0.42v14.613C790.35,238.874,790.266,239,789.783,239.126z M787.578,229.929
				c-0.588-0.084-1.512-0.146-2.016-0.146c-1.806,0-2.246,1.28-2.246,3.002v1.617c0,1.721,0.44,3.002,2.246,3.002
				c0.756,0,1.617-0.062,2.016-0.146V229.929z"/>
			<path fill="#F7BC81" d="M802.34,234.549h-6.844v0.062c0,1.219,0.504,2.667,2.52,2.667c1.532,0,2.98-0.126,3.863-0.21
				c0.021,0,0.041,0,0.062,0c0.21,0,0.378,0.105,0.378,0.314v1.387c0,0.336-0.063,0.482-0.44,0.545
				c-1.365,0.252-2.184,0.357-4.074,0.357c-2.1,0-5.08-1.134-5.08-5.27v-1.555c0-3.275,1.826-5.332,5.039-5.332
				c3.232,0,4.996,2.204,4.996,5.332v1.176C802.76,234.359,802.635,234.549,802.34,234.549z M799.968,232.491
				c0-1.638-0.903-2.583-2.204-2.583c-1.303,0-2.247,0.924-2.247,2.583v0.084h4.451V232.491z"/>
			<path fill="#F7BC81" d="M815.635,239.672c-3.402,0-5.48-1.953-5.48-7.181v-1.554c0-5.229,2.078-7.201,5.48-7.201
				c3.4,0,5.479,1.973,5.479,7.201v1.554C821.114,237.719,819.035,239.672,815.635,239.672z M818.195,230.937
				c0-3.801-1.112-4.829-2.561-4.829c-1.449,0-2.562,1.028-2.562,4.829v1.554c0,3.8,1.113,4.808,2.562,4.808
				c1.448,0,2.561-1.008,2.561-4.808V230.937z"/>
			<path fill="#F7BC81" d="M837.221,239.504h-1.784c-0.231,0-0.42-0.189-0.42-0.42v-0.336c-0.966,0.588-1.952,0.924-2.96,0.924
				c-1.743,0-3.633-0.672-3.633-3.506v-0.084c0-2.395,1.47-3.633,5.123-3.633h1.322v-0.924c0-1.365-0.608-1.701-1.848-1.701
				c-1.344,0-2.729,0.084-3.422,0.168c-0.042,0-0.084,0-0.105,0c-0.209,0-0.377-0.062-0.377-0.356v-1.344
				c0-0.231,0.125-0.378,0.398-0.44c0.84-0.168,2.058-0.336,3.506-0.336c2.982,0,4.619,1.322,4.619,4.01v7.559
				C837.641,239.314,837.452,239.504,837.221,239.504z M834.869,234.297h-1.322c-1.91,0-2.33,0.609-2.33,1.785v0.084
				c0,1.028,0.461,1.301,1.512,1.301c0.756,0,1.532-0.252,2.141-0.588V234.297z"/>
			<path fill="#F7BC81" d="M846.967,239.504c-0.231,0-0.42-0.189-0.42-0.42v-1.596c0-0.23,0.188-0.378,0.42-0.378h2.812v-10.33
				l-2.75,0.84c-0.105,0.042-0.189,0.042-0.252,0.042c-0.146,0-0.23-0.062-0.23-0.252v-1.974c0-0.126,0.041-0.188,0.146-0.231
				l3.717-1.217c0.125-0.043,0.252-0.084,0.482-0.084h1.386c0.231,0,0.399,0.168,0.399,0.398v12.808h2.812
				c0.231,0,0.42,0.147,0.42,0.378v1.596c0,0.23-0.188,0.42-0.42,0.42H846.967z"/>
			<path fill="#F7BC81" d="M862.8,223.904h1.7c0.211,0,0.399,0.125,0.315,0.42l-4.556,14.738c-0.063,0.211-0.168,0.441-0.399,0.441
				h-1.7c-0.295,0-0.399-0.23-0.336-0.441l4.576-14.738C862.464,224.113,862.568,223.904,862.8,223.904z"/>
			<path fill="#F7BC81" d="M874.139,231.651l-1.89,1.26c-1.974,1.323-2.981,2.372-2.981,4.115v0.084h6.908
				c0.23,0,0.42,0.147,0.42,0.378v1.596c0,0.23-0.189,0.42-0.42,0.42h-8.902c-0.231,0-0.42-0.189-0.42-0.42v-2.058
				c0-2.31,1.448-4.347,3.191-5.501l2.078-1.386c1.617-1.071,1.932-1.407,1.932-2.562c0-1.134-0.714-1.554-2.457-1.554
				c-1.238,0-2.939,0.168-4.199,0.315c-0.021,0-0.021,0-0.041,0c-0.231,0-0.379-0.189-0.379-0.42v-1.26
				c0-0.211,0.189-0.336,0.399-0.399c1.092-0.294,2.855-0.524,4.22-0.524c3.675,0,5.166,1.238,5.166,3.842
				C876.764,229.32,875.86,230.496,874.139,231.651z"/>
			<path fill="#F7BC81" d="M896.881,224.365l-3.443,13.165c-0.504,1.952-2.016,2.142-2.918,2.142c-0.903,0-2.415-0.189-2.919-2.142
				l-3.443-13.165c0-0.041-0.021-0.062-0.021-0.104c0-0.21,0.168-0.356,0.377-0.356h2.227c0.188,0,0.356,0.168,0.398,0.356
				l3.045,12.618c0.062,0.252,0.125,0.336,0.336,0.336c0.209,0,0.272-0.084,0.336-0.336l3.044-12.618
				c0.042-0.188,0.21-0.356,0.399-0.356h2.225c0.211,0,0.379,0.146,0.379,0.356C896.902,224.302,896.881,224.324,896.881,224.365z"
				/>
			<path fill="#F7BC81" d="M905.975,239.504h-1.785c-0.23,0-0.42-0.189-0.42-0.42v-0.336c-0.966,0.588-1.953,0.924-2.961,0.924
				c-1.742,0-3.632-0.672-3.632-3.506v-0.084c0-2.395,1.47-3.633,5.123-3.633h1.323v-0.924c0-1.365-0.609-1.701-1.848-1.701
				c-1.344,0-2.73,0.084-3.423,0.168c-0.042,0-0.084,0-0.104,0c-0.211,0-0.379-0.062-0.379-0.356v-1.344
				c0-0.231,0.127-0.378,0.399-0.44c0.84-0.168,2.058-0.336,3.507-0.336c2.98,0,4.619,1.322,4.619,4.01v7.559
				C906.395,239.314,906.205,239.504,905.975,239.504z M903.623,234.297H902.3c-1.911,0-2.331,0.609-2.331,1.785v0.084
				c0,1.028,0.463,1.301,1.512,1.301c0.756,0,1.533-0.252,2.143-0.588V234.297z"/>
			<path fill="#F7BC81" d="M912.968,239.672c-0.819,0-2.583-0.105-3.759-0.42c-0.252-0.062-0.398-0.23-0.398-0.482v-1.26
				c0-0.168,0.146-0.336,0.357-0.336c0.041,0,0.062,0,0.084,0c1.008,0.125,2.896,0.23,3.527,0.23c1.301,0,1.49-0.441,1.49-1.008
				c0-0.398-0.252-0.65-0.924-1.07l-2.877-1.764c-1.028-0.631-1.764-1.68-1.764-2.898c0-2.1,1.323-3.148,3.99-3.148
				c1.7,0,2.666,0.188,3.736,0.42c0.252,0.062,0.379,0.23,0.379,0.482v1.218c0,0.252-0.127,0.399-0.336,0.399
				c-0.043,0-0.063,0-0.084,0c-0.588-0.084-2.268-0.252-3.465-0.252c-1.008,0-1.449,0.23-1.449,0.881
				c0,0.336,0.315,0.547,0.84,0.861l2.751,1.68c1.764,1.07,2.016,2.121,2.016,3.191
				C917.083,238.222,915.719,239.672,912.968,239.672z"/>
			<path fill="#F7BC81" d="M924.056,239.672c-3.296,0-5.019-2.226-5.019-5.229v-1.7c0-3.003,1.723-5.228,5.019-5.228
				s5.019,2.225,5.019,5.228v1.7C929.074,237.446,927.352,239.672,924.056,239.672z M926.303,232.743
				c0-1.722-0.777-2.835-2.247-2.835s-2.247,1.113-2.247,2.835v1.7c0,1.723,0.777,2.835,2.247,2.835s2.247-1.112,2.247-2.835
				V232.743z"/>
		</g>
		<g>
			<g>
				<g>
					<g>
						<polygon fill="#E6FFE5" points="781.417,257.398 780.49,249.305 784.402,249.305 784.402,246.177 779.6,246.177 
							779.908,248.876 780.972,258.177 784.402,258.177 784.402,257.398 						"/>
						<polygon fill="#D0E9EF" points="784.402,246.177 784.402,249.305 788.313,249.305 787.388,257.398 784.402,257.398 
							784.402,258.177 787.832,258.177 788.896,248.876 789.205,246.177 						"/>
						<polygon fill="#F7BC81" points="787.388,257.398 788.313,249.305 784.402,249.305 784.402,257.398 						"/>
						<polygon fill="#F5A85B" points="781.417,257.398 784.402,257.398 784.402,249.305 780.49,249.305 						"/>
					</g>
				</g>
			</g>
			<g>
				<g>
					<g>
						<polygon fill="#E6FFE5" points="793.931,257.398 793.004,249.305 796.916,249.305 796.916,246.177 792.113,246.177 
							792.422,248.876 793.485,258.177 796.916,258.177 796.916,257.398 						"/>
						<polygon fill="#D0E9EF" points="796.916,246.177 796.916,249.305 800.827,249.305 799.901,257.398 796.916,257.398 
							796.916,258.177 800.346,258.177 801.409,248.876 801.719,246.177 						"/>
						<polygon fill="#F7BC81" points="799.901,257.398 800.827,249.305 796.916,249.305 796.916,257.398 						"/>
						<polygon fill="#F5A85B" points="793.931,257.398 796.916,257.398 796.916,249.305 793.004,249.305 						"/>
					</g>
				</g>
			</g>
		</g>
	</g>
</g>
</svg>
