<?xml version="1.0" encoding="utf-8"?>
<!-- Generator: Adobe Illustrator 16.0.0, SVG Export Plug-In . SVG Version: 6.00 Build 0)  -->
<!DOCTYPE svg PUBLIC "-//W3C//DTD SVG 1.1//EN" "http://www.w3.org/Graphics/SVG/1.1/DTD/svg11.dtd">
<svg version="1.1" id="Layer_1" xmlns="http://www.w3.org/2000/svg" xmlns:xlink="http://www.w3.org/1999/xlink" x="0px" y="0px"
	 width="1280px" height="700px" viewBox="0 0 1280 700" enable-background="new 0 0 1280 700" xml:space="preserve">
<g id="Miscelaneas">
	<g>
		<g>
			<g>
				<path fill="none" stroke="#5BA4C2" stroke-width="0.75" stroke-miterlimit="10" d="M640.4,652c0,0,0-14.3,0-19.3
					c0-3.1,1-4.1,3.699-4.1c2.7,0,181.801,0,181.801,0c3,0,3.8-1.4,3.8-5c0-3.4-0.3-8.3-0.3-12c0-3.5,0.899-5.4,3.3-6v-0.2
					c-2.4-0.7-3.3-2.4-3.3-6c0-3.8,0.3-6.6,0.3-10"/>
			</g>
			<g>
				<path fill="none" stroke="#5BA4C2" stroke-width="0.75" stroke-miterlimit="10" d="M451,589.2c0,3.4,0.3,6.3,0.3,10
					c0,3.601-0.899,5.4-3.3,6v0.2c2.4,0.7,3.3,2.5,3.3,6c0,3.8-0.3,8.6-0.3,12c0,3.6,0.8,5,3.8,5c0,0,179.101,0,181.8,0
					c2.7,0,3.7,1,3.7,4.1c0,5,0,19.301,0,19.301"/>
			</g>
		</g>
		<g>
			<g>
				<path fill="#5BA4C2" d="M643.7,651.9L643.7,651.9l-3.5-6.9l0,0l0,0l0,0l0,0l-3.7,6.801l0,0c-0.3,0.6-0.5,1.3-0.6,2
					c0,2.3,1.8,4.1,4.1,4.199c2.3,0,4.1-1.8,4.2-4.1C644.2,653.2,644,652.5,643.7,651.9z"/>
				<g>
					<g>
						<path fill="#72ADC8" d="M638.8,657L638.8,657c-2.1-0.399-2.399-2.6-2.3-3.699c0-0.2,0.2-0.301,0.4-0.301
							c0.199,0,0.3,0.2,0.3,0.4c0,0.1-0.3,2.5,1.6,2.9c0.2,0,0.3,0.2,0.3,0.399C639.1,656.9,639,657,638.8,657z"/>
					</g>
				</g>
			</g>
			<path fill="#72ADC8" d="M644.2,653.9c0-0.7-0.2-1.4-0.5-2l0,0l-3.5-6.9l0,0l0,0l0,0v13C642.4,657.9,644.2,656.2,644.2,653.9z"/>
			<g>
				<g>
					<path fill="#E2D4D5" d="M641.8,651.4l-0.8-2c-0.1-0.1-0.1-0.4,0-0.4s0.3,0.101,0.3,0.301l1,1.899c0.101,0.101,0,0.4-0.1,0.5
						C642,651.7,641.8,651.6,641.8,651.4z"/>
				</g>
				<ellipse fill="#E2D4D5" cx="642.482" cy="652.278" rx="0.4" ry="0.4"/>
			</g>
		</g>
	</g>
</g>
<g enable-background="new    ">
	<path fill="#5BA4C2" d="M527.76,592.026c-0.21,0.057-1.135,0.225-2.213,0.225c-1.681,0-3.964-0.827-3.964-4.286v-2.06
		c0-3.516,2.283-4.286,3.964-4.286c1.079,0,2.003,0.168,2.213,0.224c0.182,0.057,0.308,0.126,0.308,0.322v0.938
		c0,0.168-0.07,0.295-0.28,0.295c0,0-0.014,0-0.028,0c-0.49-0.043-1.443-0.112-2.185-0.112c-1.177,0-2.031,0.63-2.031,2.619v2.06
		c0,1.946,0.854,2.619,2.031,2.619c0.742,0,1.695-0.07,2.185-0.112c0.014,0,0.028,0,0.028,0c0.21,0,0.28,0.126,0.28,0.294v0.938
		C528.068,591.9,527.942,591.97,527.76,592.026z"/>
	<path fill="#5BA4C2" d="M535.796,592.138h-1.289c-0.154,0-0.28-0.126-0.28-0.28v-0.322c-0.729,0.477-1.303,0.7-2.199,0.7
		c-0.701,0-1.317-0.182-1.723-0.588c-0.518-0.519-0.7-1.387-0.7-2.55v-4.566c0-0.153,0.126-0.294,0.28-0.294h1.289
		c0.154,0,0.28,0.141,0.28,0.294v4.566c0,0.701,0.056,1.107,0.322,1.345c0.196,0.169,0.435,0.253,0.869,0.253
		c0.518,0,1.19-0.351,1.583-0.561v-5.604c0-0.153,0.126-0.294,0.28-0.294h1.289c0.154,0,0.28,0.141,0.28,0.294v7.326
		C536.076,592.012,535.95,592.138,535.796,592.138z"/>
	<path fill="#5BA4C2" d="M543.468,592.138h-1.19c-0.154,0-0.28-0.126-0.28-0.28v-0.224c-0.645,0.392-1.303,0.616-1.975,0.616
		c-1.163,0-2.423-0.448-2.423-2.34v-0.056c0-1.597,0.98-2.424,3.418-2.424h0.882v-0.616c0-0.91-0.406-1.134-1.232-1.134
		c-0.896,0-1.821,0.056-2.283,0.111c-0.028,0-0.056,0-0.07,0c-0.14,0-0.252-0.042-0.252-0.238v-0.896
		c0-0.153,0.084-0.252,0.266-0.294c0.561-0.112,1.373-0.224,2.339-0.224c1.989,0,3.082,0.882,3.082,2.675v5.043
		C543.748,592.012,543.622,592.138,543.468,592.138z M541.899,588.665h-0.882c-1.275,0-1.555,0.406-1.555,1.19v0.056
		c0,0.687,0.308,0.869,1.008,0.869c0.504,0,1.022-0.168,1.429-0.393V588.665z"/>
	<path fill="#5BA4C2" d="M551.756,592.138h-1.289c-0.154,0-0.28-0.14-0.28-0.294v-4.566c0-1.219-0.112-1.569-1.191-1.569
		c-0.476,0-0.995,0.196-1.583,0.505v5.631c0,0.154-0.126,0.294-0.28,0.294h-1.289c-0.154,0-0.28-0.14-0.28-0.294v-7.326
		c0-0.154,0.126-0.28,0.28-0.28h1.219c0.154,0,0.28,0.126,0.28,0.28v0.294c0.812-0.518,1.345-0.672,2.269-0.672
		c2.017,0,2.423,1.358,2.423,3.138v4.566C552.036,591.999,551.91,592.138,551.756,592.138z"/>
	<path fill="#5BA4C2" d="M559.735,591.886c-0.868,0.224-1.919,0.364-2.815,0.364c-2.255,0-3.348-1.331-3.348-3.517v-1.078
		c0-2.186,1.093-3.516,3.348-3.516c0.336,0,0.827,0.027,1.345,0.098v-2.479c0-0.153,0.126-0.28,0.28-0.28h1.289
		c0.154,0,0.28,0.127,0.28,0.28v9.75C560.114,591.719,560.058,591.802,559.735,591.886z M558.265,585.751
		c-0.392-0.056-1.008-0.098-1.345-0.098c-1.205,0-1.499,0.854-1.499,2.003v1.078c0,1.149,0.294,2.004,1.499,2.004
		c0.504,0,1.079-0.042,1.345-0.099V585.751z"/>
	<path fill="#5BA4C2" d="M565.04,592.251c-2.199,0-3.348-1.485-3.348-3.488v-1.135c0-2.003,1.148-3.487,3.348-3.487
		s3.348,1.484,3.348,3.487v1.135C568.388,590.765,567.239,592.251,565.04,592.251z M566.539,587.628
		c0-1.148-0.519-1.891-1.499-1.891s-1.499,0.742-1.499,1.891v1.135c0,1.148,0.518,1.892,1.499,1.892s1.499-0.743,1.499-1.892
		V587.628z"/>
	<path fill="#5BA4C2" d="M576.029,592.251c-0.546,0-1.723-0.07-2.507-0.28c-0.168-0.042-0.266-0.154-0.266-0.322v-0.841
		c0-0.111,0.098-0.224,0.238-0.224c0.028,0,0.042,0,0.056,0c0.672,0.084,1.933,0.154,2.353,0.154c0.869,0,0.995-0.295,0.995-0.673
		c0-0.266-0.168-0.435-0.616-0.714l-1.919-1.177c-0.687-0.421-1.177-1.121-1.177-1.934c0-1.4,0.882-2.101,2.662-2.101
		c1.134,0,1.779,0.126,2.493,0.28c0.168,0.042,0.252,0.153,0.252,0.321v0.812c0,0.169-0.084,0.267-0.224,0.267
		c-0.028,0-0.042,0-0.056,0c-0.393-0.056-1.513-0.168-2.312-0.168c-0.672,0-0.966,0.154-0.966,0.588c0,0.225,0.21,0.364,0.56,0.574
		l1.835,1.121c1.177,0.714,1.345,1.415,1.345,2.129C578.775,591.284,577.865,592.251,576.029,592.251z"/>
	<path fill="#5BA4C2" d="M586.504,592.138h-1.289c-0.154,0-0.28-0.126-0.28-0.28v-0.322c-0.729,0.477-1.303,0.7-2.199,0.7
		c-0.701,0-1.317-0.182-1.723-0.588c-0.518-0.519-0.7-1.387-0.7-2.55v-4.566c0-0.153,0.126-0.294,0.28-0.294h1.289
		c0.154,0,0.28,0.141,0.28,0.294v4.566c0,0.701,0.056,1.107,0.322,1.345c0.196,0.169,0.435,0.253,0.869,0.253
		c0.518,0,1.19-0.351,1.583-0.561v-5.604c0-0.153,0.126-0.294,0.28-0.294h1.289c0.154,0,0.28,0.141,0.28,0.294v7.326
		C586.784,592.012,586.658,592.138,586.504,592.138z"/>
	<path fill="#5BA4C2" d="M594.483,591.886c-0.868,0.224-1.919,0.364-2.815,0.364c-2.255,0-3.348-1.331-3.348-3.517v-1.078
		c0-2.186,1.093-3.516,3.348-3.516c0.336,0,0.827,0.027,1.345,0.098v-2.479c0-0.153,0.126-0.28,0.28-0.28h1.289
		c0.154,0,0.28,0.127,0.28,0.28v9.75C594.862,591.719,594.806,591.802,594.483,591.886z M593.013,585.751
		c-0.392-0.056-1.008-0.098-1.345-0.098c-1.205,0-1.499,0.854-1.499,2.003v1.078c0,1.149,0.294,2.004,1.499,2.004
		c0.504,0,1.079-0.042,1.345-0.099V585.751z"/>
	<path fill="#5BA4C2" d="M602.253,592.138h-1.19c-0.154,0-0.28-0.126-0.28-0.28v-0.224c-0.645,0.392-1.303,0.616-1.975,0.616
		c-1.163,0-2.423-0.448-2.423-2.34v-0.056c0-1.597,0.98-2.424,3.418-2.424h0.882v-0.616c0-0.91-0.406-1.134-1.232-1.134
		c-0.896,0-1.821,0.056-2.283,0.111c-0.028,0-0.056,0-0.07,0c-0.14,0-0.252-0.042-0.252-0.238v-0.896
		c0-0.153,0.084-0.252,0.266-0.294c0.561-0.112,1.373-0.224,2.339-0.224c1.989,0,3.082,0.882,3.082,2.675v5.043
		C602.533,592.012,602.407,592.138,602.253,592.138z M600.684,588.665h-0.882c-1.275,0-1.555,0.406-1.555,1.19v0.056
		c0,0.687,0.308,0.869,1.008,0.869c0.504,0,1.022-0.168,1.429-0.393V588.665z"/>
	<path fill="#5BA4C2" d="M606.913,592.251c-0.546,0-1.723-0.07-2.507-0.28c-0.168-0.042-0.266-0.154-0.266-0.322v-0.841
		c0-0.111,0.098-0.224,0.238-0.224c0.028,0,0.042,0,0.056,0c0.672,0.084,1.933,0.154,2.353,0.154c0.869,0,0.995-0.295,0.995-0.673
		c0-0.266-0.168-0.435-0.616-0.714l-1.919-1.177c-0.687-0.421-1.177-1.121-1.177-1.934c0-1.4,0.882-2.101,2.662-2.101
		c1.134,0,1.779,0.126,2.493,0.28c0.168,0.042,0.252,0.153,0.252,0.321v0.812c0,0.169-0.084,0.267-0.224,0.267
		c-0.028,0-0.042,0-0.056,0c-0.393-0.056-1.513-0.168-2.312-0.168c-0.672,0-0.966,0.154-0.966,0.588c0,0.225,0.21,0.364,0.56,0.574
		l1.835,1.121c1.177,0.714,1.345,1.415,1.345,2.129C609.659,591.284,608.749,592.251,606.913,592.251z"/>
	<path fill="#5BA4C2" d="M617.89,592.251c-0.336,0-0.826-0.028-1.345-0.099v2.479c0,0.154-0.126,0.28-0.28,0.28h-1.289
		c-0.154,0-0.28-0.126-0.28-0.28v-9.749c0-0.21,0.056-0.294,0.378-0.378c0.869-0.225,1.919-0.364,2.815-0.364
		c2.255,0,3.348,1.33,3.348,3.516v1.078C621.238,590.92,620.145,592.251,617.89,592.251z M619.389,587.656
		c0-1.148-0.294-2.003-1.499-2.003c-0.504,0-1.078,0.042-1.345,0.098v4.889c0.393,0.057,1.009,0.099,1.345,0.099
		c1.205,0,1.499-0.854,1.499-2.004V587.656z"/>
	<path fill="#5BA4C2" d="M624.427,583.187h-1.359c-0.154,0-0.294-0.126-0.294-0.28v-1.232c0-0.154,0.14-0.28,0.294-0.28h1.359
		c0.154,0,0.28,0.126,0.28,0.28v1.232C624.707,583.061,624.581,583.187,624.427,583.187z M624.385,592.138h-1.289
		c-0.154,0-0.28-0.14-0.28-0.294v-7.326c0-0.154,0.126-0.28,0.28-0.28h1.289c0.154,0,0.28,0.126,0.28,0.28v7.326
		C624.665,591.999,624.539,592.138,624.385,592.138z"/>
	<path fill="#5BA4C2" d="M632.703,588.833h-4.566v0.042c0,0.812,0.336,1.779,1.681,1.779c1.022,0,1.989-0.084,2.578-0.141
		c0.014,0,0.028,0,0.042,0c0.14,0,0.252,0.07,0.252,0.21v0.925c0,0.224-0.042,0.322-0.294,0.364
		c-0.911,0.168-1.457,0.238-2.718,0.238c-1.4,0-3.39-0.757-3.39-3.517v-1.036c0-2.186,1.219-3.558,3.362-3.558
		c2.157,0,3.334,1.471,3.334,3.558v0.784C632.983,588.707,632.899,588.833,632.703,588.833z M631.12,587.46
		c0-1.093-0.602-1.723-1.471-1.723s-1.499,0.616-1.499,1.723v0.057h2.97V587.46z"/>
	<path fill="#5BA4C2" d="M638.344,585.709c-0.756,0-1.345,0.196-1.933,0.505v5.631c0,0.154-0.126,0.294-0.28,0.294h-1.289
		c-0.154,0-0.28-0.14-0.28-0.294v-7.326c0-0.154,0.126-0.28,0.28-0.28h1.219c0.154,0,0.28,0.126,0.28,0.28v0.294
		c0.687-0.532,1.443-0.672,2.003-0.672c0.154,0,0.28,0.126,0.28,0.28v1.008C638.624,585.583,638.498,585.709,638.344,585.709z"/>
	<path fill="#5BA4C2" d="M645.443,591.886c-0.869,0.224-1.92,0.364-2.816,0.364c-2.254,0-3.347-1.331-3.347-3.517v-1.078
		c0-2.186,1.093-3.516,3.347-3.516c0.337,0,0.827,0.027,1.346,0.098v-2.479c0-0.153,0.125-0.28,0.279-0.28h1.289
		c0.154,0,0.28,0.127,0.28,0.28v9.75C645.821,591.719,645.766,591.802,645.443,591.886z M643.973,585.751
		c-0.393-0.056-1.009-0.098-1.346-0.098c-1.204,0-1.498,0.854-1.498,2.003v1.078c0,1.149,0.294,2.004,1.498,2.004
		c0.505,0,1.079-0.042,1.346-0.099V585.751z"/>
	<path fill="#5BA4C2" d="M653.814,588.833h-4.566v0.042c0,0.812,0.336,1.779,1.682,1.779c1.021,0,1.988-0.084,2.577-0.141
		c0.014,0,0.028,0,0.042,0c0.141,0,0.252,0.07,0.252,0.21v0.925c0,0.224-0.042,0.322-0.294,0.364
		c-0.911,0.168-1.457,0.238-2.718,0.238c-1.4,0-3.39-0.757-3.39-3.517v-1.036c0-2.186,1.219-3.558,3.362-3.558
		c2.156,0,3.334,1.471,3.334,3.558v0.784C654.096,588.707,654.011,588.833,653.814,588.833z M652.232,587.46
		c0-1.093-0.603-1.723-1.471-1.723c-0.869,0-1.5,0.616-1.5,1.723v0.057h2.971V587.46z"/>
	<path fill="#5BA4C2" d="M658.237,592.251c-0.546,0-1.724-0.07-2.508-0.28c-0.168-0.042-0.267-0.154-0.267-0.322v-0.841
		c0-0.111,0.099-0.224,0.238-0.224c0.028,0,0.043,0,0.057,0c0.672,0.084,1.934,0.154,2.354,0.154c0.868,0,0.994-0.295,0.994-0.673
		c0-0.266-0.168-0.435-0.616-0.714l-1.919-1.177c-0.687-0.421-1.177-1.121-1.177-1.934c0-1.4,0.882-2.101,2.661-2.101
		c1.135,0,1.779,0.126,2.494,0.28c0.168,0.042,0.252,0.153,0.252,0.321v0.812c0,0.169-0.084,0.267-0.225,0.267
		c-0.027,0-0.042,0-0.056,0c-0.393-0.056-1.513-0.168-2.312-0.168c-0.672,0-0.967,0.154-0.967,0.588
		c0,0.225,0.211,0.364,0.561,0.574l1.835,1.121c1.177,0.714,1.345,1.415,1.345,2.129
		C660.982,591.284,660.072,592.251,658.237,592.251z"/>
	<path fill="#5BA4C2" d="M675.797,592.138h-1.289c-0.154,0-0.279-0.14-0.279-0.294v-4.763c0-1.079-0.225-1.358-1.01-1.358
		c-0.266,0-0.798,0.084-1.303,0.35c0.043,0.309,0.057,0.658,0.057,1.009v4.763c0,0.154-0.126,0.294-0.28,0.294h-1.288
		c-0.154,0-0.281-0.14-0.281-0.294v-4.763c0-1.079-0.182-1.358-0.966-1.358c-0.294,0-0.714,0.153-1.289,0.462v5.659
		c0,0.154-0.126,0.294-0.28,0.294h-1.289c-0.153,0-0.279-0.14-0.279-0.294v-7.326c0-0.154,0.126-0.28,0.279-0.28h1.219
		c0.154,0,0.281,0.126,0.281,0.28v0.294c0.588-0.378,1.176-0.672,2.002-0.672c0.799,0,1.317,0.238,1.64,0.63
		c0.714-0.392,1.345-0.63,2.312-0.63c1.904,0,2.324,1.303,2.324,2.941v4.763C676.076,591.999,675.951,592.138,675.797,592.138z"/>
	<path fill="#5BA4C2" d="M684.083,592.138h-1.289c-0.153,0-0.28-0.126-0.28-0.28v-0.322c-0.729,0.477-1.303,0.7-2.199,0.7
		c-0.7,0-1.316-0.182-1.723-0.588c-0.518-0.519-0.7-1.387-0.7-2.55v-4.566c0-0.153,0.126-0.294,0.28-0.294h1.289
		c0.153,0,0.279,0.141,0.279,0.294v4.566c0,0.701,0.057,1.107,0.322,1.345c0.196,0.169,0.435,0.253,0.869,0.253
		c0.518,0,1.189-0.351,1.582-0.561v-5.604c0-0.153,0.127-0.294,0.28-0.294h1.289c0.153,0,0.28,0.141,0.28,0.294v7.326
		C684.363,592.012,684.236,592.138,684.083,592.138z"/>
	<path fill="#5BA4C2" d="M690.9,592.068c-0.322,0.084-0.953,0.183-1.807,0.183c-1.822,0-3.194-1.121-3.194-3.404v-1.303
		c0-2.283,1.372-3.403,3.194-3.403c0.854,0,1.484,0.098,1.807,0.182c0.238,0.057,0.294,0.141,0.294,0.364v0.91
		c0,0.141-0.112,0.211-0.253,0.211c-0.014,0-0.027,0-0.041,0c-0.561-0.07-0.896-0.099-1.807-0.099c-0.659,0-1.346,0.379-1.346,1.835
		v1.303c0,1.457,0.687,1.835,1.346,1.835c0.91,0,1.246-0.027,1.807-0.098c0.014,0,0.027,0,0.041,0c0.141,0,0.253,0.07,0.253,0.21
		v0.91C691.194,591.928,691.139,592.012,690.9,592.068z"/>
	<path fill="#5BA4C2" d="M698.923,592.138h-1.289c-0.153,0-0.28-0.14-0.28-0.294v-4.608c0-1.219-0.21-1.527-1.148-1.527
		c-0.477,0-1.037,0.168-1.625,0.477v5.659c0,0.154-0.126,0.294-0.279,0.294h-1.289c-0.154,0-0.28-0.14-0.28-0.294v-10.086
		c0-0.153,0.126-0.28,0.28-0.28h1.289c0.153,0,0.279,0.127,0.279,0.28v2.899c0.533-0.321,1.121-0.518,2.115-0.518
		c1.934,0,2.508,1.372,2.508,3.096v4.608C699.203,591.999,699.076,592.138,698.923,592.138z"/>
	<path fill="#5BA4C2" d="M704.129,592.251c-2.199,0-3.348-1.485-3.348-3.488v-1.135c0-2.003,1.148-3.487,3.348-3.487
		s3.348,1.484,3.348,3.487v1.135C707.477,590.765,706.328,592.251,704.129,592.251z M705.628,587.628
		c0-1.148-0.519-1.891-1.499-1.891s-1.498,0.742-1.498,1.891v1.135c0,1.148,0.518,1.892,1.498,1.892s1.499-0.743,1.499-1.892
		V587.628z"/>
	<path fill="#5BA4C2" d="M714.208,592.138h-1.303c-0.154,0-0.28-0.14-0.28-0.294v-10.086c0-0.153,0.126-0.28,0.28-0.28h1.303
		c0.153,0,0.267,0.127,0.267,0.28v10.086C714.475,591.999,714.361,592.138,714.208,592.138z"/>
	<path fill="#5BA4C2" d="M719.627,581.436l-1.653,1.737c-0.112,0.126-0.168,0.182-0.337,0.182h-1.204
		c-0.084,0-0.126-0.042-0.126-0.098c0-0.042,0.014-0.098,0.057-0.14l1.33-1.682c0.126-0.153,0.182-0.21,0.364-0.21h1.471
		c0.099,0,0.154,0.042,0.154,0.099C719.683,581.352,719.668,581.394,719.627,581.436z M718.268,591.844
		c0,0.154-0.126,0.294-0.28,0.294h-1.288c-0.154,0-0.295-0.14-0.295-0.294v-7.326c0-0.154,0.127-0.28,0.28-0.28h1.289
		c0.153,0,0.28,0.126,0.28,0.28v7.326H718.268z"/>
	<path fill="#5BA4C2" d="M726.096,594.912h-1.289c-0.154,0-0.279-0.126-0.279-0.28v-2.479c-0.519,0.07-1.009,0.099-1.346,0.099
		c-2.254,0-3.348-1.331-3.348-3.517v-1.078c0-2.186,1.094-3.516,3.348-3.516c0.896,0,1.947,0.14,2.816,0.364
		c0.322,0.084,0.378,0.168,0.378,0.378v9.749C726.376,594.786,726.25,594.912,726.096,594.912z M724.527,585.751
		c-0.267-0.056-0.841-0.098-1.346-0.098c-1.204,0-1.498,0.854-1.498,2.003v1.078c0,1.149,0.294,2.004,1.498,2.004
		c0.337,0,0.953-0.042,1.346-0.099V585.751z"/>
	<path fill="#5BA4C2" d="M734.385,592.138h-1.289c-0.154,0-0.28-0.126-0.28-0.28v-0.322c-0.729,0.477-1.303,0.7-2.199,0.7
		c-0.7,0-1.317-0.182-1.724-0.588c-0.518-0.519-0.699-1.387-0.699-2.55v-4.566c0-0.153,0.125-0.294,0.279-0.294h1.289
		c0.154,0,0.279,0.141,0.279,0.294v4.566c0,0.701,0.057,1.107,0.322,1.345c0.197,0.169,0.436,0.253,0.869,0.253
		c0.518,0,1.19-0.351,1.583-0.561v-5.604c0-0.153,0.126-0.294,0.28-0.294h1.289c0.153,0,0.279,0.141,0.279,0.294v7.326
		C734.664,592.012,734.538,592.138,734.385,592.138z"/>
	<path fill="#5BA4C2" d="M738.134,583.187h-1.358c-0.154,0-0.295-0.126-0.295-0.28v-1.232c0-0.154,0.141-0.28,0.295-0.28h1.358
		c0.153,0,0.28,0.126,0.28,0.28v1.232C738.414,583.061,738.287,583.187,738.134,583.187z M738.092,592.138h-1.289
		c-0.154,0-0.279-0.14-0.279-0.294v-7.326c0-0.154,0.125-0.28,0.279-0.28h1.289c0.154,0,0.28,0.126,0.28,0.28v7.326
		C738.372,591.999,738.246,592.138,738.092,592.138z"/>
	<path fill="#5BA4C2" d="M746.115,591.886c-0.868,0.224-1.919,0.364-2.815,0.364c-2.255,0-3.348-1.331-3.348-3.517v-1.078
		c0-2.186,1.093-3.516,3.348-3.516c0.337,0,0.827,0.027,1.345,0.098v-2.479c0-0.153,0.126-0.28,0.28-0.28h1.288
		c0.154,0,0.281,0.127,0.281,0.28v9.75C746.494,591.719,746.438,591.802,746.115,591.886z M744.645,585.751
		c-0.393-0.056-1.008-0.098-1.345-0.098c-1.204,0-1.499,0.854-1.499,2.003v1.078c0,1.149,0.295,2.004,1.499,2.004
		c0.505,0,1.079-0.042,1.345-0.099V585.751z"/>
	<path fill="#5BA4C2" d="M751.42,592.251c-2.199,0-3.348-1.485-3.348-3.488v-1.135c0-2.003,1.148-3.487,3.348-3.487
		s3.348,1.484,3.348,3.487v1.135C754.768,590.765,753.619,592.251,751.42,592.251z M752.919,587.628
		c0-1.148-0.519-1.891-1.499-1.891s-1.498,0.742-1.498,1.891v1.135c0,1.148,0.518,1.892,1.498,1.892s1.499-0.743,1.499-1.892
		V587.628z"/>
	<path fill="#5BA4C2" d="M758.251,590.275l-1.219,2.941c-0.069,0.169-0.112,0.28-0.267,0.28H755.8c-0.126,0-0.21-0.084-0.21-0.195
		c0-0.028,0-0.057,0.014-0.085l0.854-2.941c0.056-0.168,0.126-0.266,0.28-0.266h1.345c0.112,0,0.196,0.069,0.196,0.168
		C758.279,590.206,758.266,590.233,758.251,590.275z"/>
</g>
<g enable-background="new    ">
	<path fill="#5BA4C2" d="M475.169,610.152c-0.336,0.057-0.644,0.099-0.953,0.099c-1.583,0-2.227-0.351-2.227-2.228v-4.398
		l-1.316-0.196c-0.154-0.027-0.28-0.126-0.28-0.28v-0.63c0-0.154,0.126-0.28,0.28-0.28h1.316v-1.148c0-0.154,0.126-0.252,0.28-0.28
		l1.303-0.224c0.014,0,0.042,0,0.056,0c0.126,0,0.224,0.069,0.224,0.21v1.442h1.26c0.154,0,0.28,0.126,0.28,0.28v0.826
		c0,0.154-0.126,0.28-0.28,0.28h-1.26v4.398c0,0.7,0.042,0.784,0.546,0.784h0.743c0.182,0,0.294,0.07,0.294,0.21v0.883
		C475.435,610.041,475.351,610.125,475.169,610.152z"/>
	<path fill="#5BA4C2" d="M479.663,610.251c-2.199,0-3.348-1.485-3.348-3.488v-1.135c0-2.003,1.148-3.487,3.348-3.487
		s3.348,1.484,3.348,3.487v1.135C483.011,608.765,481.862,610.251,479.663,610.251z M481.162,605.628
		c0-1.148-0.519-1.891-1.499-1.891s-1.499,0.742-1.499,1.891v1.135c0,1.148,0.518,1.892,1.499,1.892s1.499-0.743,1.499-1.892
		V605.628z"/>
	<path fill="#5BA4C2" d="M494.366,610.138h-1.289c-0.154,0-0.28-0.14-0.28-0.294v-4.763c0-1.079-0.224-1.358-1.009-1.358
		c-0.266,0-0.798,0.084-1.303,0.35c0.042,0.309,0.056,0.658,0.056,1.009v4.763c0,0.154-0.126,0.294-0.28,0.294h-1.289
		c-0.154,0-0.28-0.14-0.28-0.294v-4.763c0-1.079-0.182-1.358-0.966-1.358c-0.294,0-0.714,0.153-1.289,0.462v5.659
		c0,0.154-0.126,0.294-0.28,0.294h-1.289c-0.154,0-0.28-0.14-0.28-0.294v-7.326c0-0.154,0.126-0.28,0.28-0.28h1.219
		c0.154,0,0.28,0.126,0.28,0.28v0.294c0.588-0.378,1.177-0.672,2.003-0.672c0.798,0,1.317,0.238,1.639,0.63
		c0.714-0.392,1.345-0.63,2.311-0.63c1.905,0,2.325,1.303,2.325,2.941v4.763C494.646,609.999,494.52,610.138,494.366,610.138z"/>
	<path fill="#5BA4C2" d="M502.036,610.138h-1.19c-0.154,0-0.28-0.126-0.28-0.28v-0.224c-0.644,0.392-1.303,0.616-1.975,0.616
		c-1.163,0-2.423-0.448-2.423-2.34v-0.056c0-1.597,0.98-2.424,3.418-2.424h0.882v-0.616c0-0.91-0.406-1.134-1.232-1.134
		c-0.896,0-1.821,0.056-2.283,0.111c-0.028,0-0.056,0-0.07,0c-0.14,0-0.252-0.042-0.252-0.238v-0.896
		c0-0.153,0.084-0.252,0.266-0.294c0.56-0.112,1.373-0.224,2.339-0.224c1.989,0,3.082,0.882,3.082,2.675v5.043
		C502.316,610.012,502.19,610.138,502.036,610.138z M500.467,606.665h-0.882c-1.275,0-1.555,0.406-1.555,1.19v0.056
		c0,0.687,0.308,0.869,1.008,0.869c0.504,0,1.022-0.168,1.429-0.393V606.665z"/>
</g>
<g enable-background="new    ">
	<path fill="#2B4E6B" d="M513.9,609.9c-0.798,0.196-1.905,0.364-2.984,0.364c-2.269,0-3.516-1.316-3.516-3.586v-1.093
		c0-2.199,1.148-3.586,3.516-3.586c0.28,0,0.743,0.042,1.149,0.099v-2.424c0-0.154,0.126-0.28,0.28-0.28h1.695
		c0.154,0,0.294,0.126,0.294,0.28v9.819C514.334,609.719,514.278,609.816,513.9,609.9z M512.065,603.947
		c-0.336-0.042-0.812-0.07-1.149-0.07c-0.994,0-1.247,0.729-1.247,1.709v1.093c0,0.995,0.252,1.723,1.247,1.723
		c0.462,0,0.883-0.042,1.149-0.084V603.947z"/>
	<path fill="#2B4E6B" d="M519.303,610.264c-2.27,0-3.516-1.415-3.516-3.642v-0.98c0-2.228,1.247-3.643,3.516-3.643
		c2.269,0,3.502,1.415,3.502,3.643v0.98C522.805,608.849,521.572,610.264,519.303,610.264z M520.549,605.642
		c0-1.135-0.434-1.709-1.247-1.709s-1.261,0.574-1.261,1.709v0.98c0,1.135,0.448,1.723,1.261,1.723s1.247-0.588,1.247-1.723V605.642
		z"/>
	<path fill="#2B4E6B" d="M526.876,610.264c-0.771,0-1.835-0.112-2.549-0.308c-0.168-0.043-0.266-0.154-0.266-0.322V608.5
		c0-0.141,0.098-0.267,0.266-0.267c0.014,0,0.042,0,0.056,0c0.757,0.099,1.933,0.196,2.381,0.196c0.672,0,0.827-0.182,0.827-0.546
		c0-0.21-0.126-0.364-0.519-0.589l-1.821-1.051c-0.784-0.448-1.247-1.162-1.247-2.072c0-1.415,0.938-2.172,2.872-2.172
		c1.106,0,1.779,0.141,2.493,0.322c0.168,0.042,0.266,0.154,0.266,0.322v1.135c0,0.168-0.098,0.266-0.238,0.266
		c-0.014,0-0.028,0-0.042,0c-0.406-0.056-1.611-0.182-2.326-0.182c-0.546,0-0.742,0.084-0.742,0.406c0,0.21,0.154,0.322,0.434,0.49
		l1.737,0.994c1.163,0.673,1.415,1.401,1.415,2.157C529.874,609.228,528.921,610.264,526.876,610.264z"/>
	<path fill="#2B4E6B" d="M543.301,600.025l-2.087,8.685c-0.322,1.345-1.345,1.555-2.311,1.555c-0.967,0-2.003-0.21-2.325-1.555
		l-2.087-8.685c0-0.028-0.014-0.042-0.014-0.07c0-0.126,0.112-0.224,0.252-0.224h1.947c0.14,0,0.252,0.111,0.28,0.252l1.751,8.082
		c0.028,0.154,0.07,0.21,0.196,0.21s0.168-0.056,0.196-0.21l1.751-8.082c0.028-0.141,0.126-0.252,0.266-0.252h1.961
		c0.14,0,0.238,0.084,0.238,0.224C543.315,599.969,543.301,599.997,543.301,600.025z"/>
	<path fill="#2B4E6B" d="M549.753,610.138h-1.569c-0.154,0-0.28-0.126-0.28-0.28v-0.224c-0.546,0.392-1.107,0.63-1.947,0.63
		c-1.219,0-2.395-0.588-2.395-2.409v-0.126c0-1.639,1.05-2.367,3.446-2.367h0.756v-0.505c0-0.798-0.393-0.966-1.051-0.966
		c-0.896,0-1.891,0.056-2.325,0.098h-0.07c-0.14,0-0.252-0.07-0.252-0.252v-1.135c0-0.154,0.098-0.266,0.266-0.308
		c0.519-0.127,1.499-0.295,2.423-0.295c2.017,0,3.278,0.812,3.278,2.857v5.001C550.034,610.012,549.908,610.138,549.753,610.138z
		 M547.807,606.707h-0.798c-0.981,0-1.233,0.336-1.233,1.022v0.126c0,0.588,0.294,0.7,0.882,0.7c0.42,0,0.812-0.14,1.149-0.308
		V606.707z"/>
	<path fill="#2B4E6B" d="M554.33,610.264c-0.771,0-1.835-0.112-2.549-0.308c-0.168-0.043-0.266-0.154-0.266-0.322V608.5
		c0-0.141,0.098-0.267,0.266-0.267c0.014,0,0.042,0,0.056,0c0.757,0.099,1.933,0.196,2.381,0.196c0.672,0,0.827-0.182,0.827-0.546
		c0-0.21-0.126-0.364-0.519-0.589l-1.821-1.051c-0.784-0.448-1.247-1.162-1.247-2.072c0-1.415,0.938-2.172,2.872-2.172
		c1.106,0,1.779,0.141,2.493,0.322c0.168,0.042,0.266,0.154,0.266,0.322v1.135c0,0.168-0.098,0.266-0.238,0.266
		c-0.014,0-0.028,0-0.042,0c-0.406-0.056-1.611-0.182-2.326-0.182c-0.546,0-0.742,0.084-0.742,0.406c0,0.21,0.154,0.322,0.434,0.49
		l1.737,0.994c1.163,0.673,1.415,1.401,1.415,2.157C557.328,609.228,556.375,610.264,554.33,610.264z"/>
	<path fill="#2B4E6B" d="M562.044,610.264c-2.27,0-3.516-1.415-3.516-3.642v-0.98c0-2.228,1.247-3.643,3.516-3.643
		c2.269,0,3.502,1.415,3.502,3.643v0.98C565.546,608.849,564.313,610.264,562.044,610.264z M563.291,605.642
		c0-1.135-0.434-1.709-1.247-1.709s-1.261,0.574-1.261,1.709v0.98c0,1.135,0.448,1.723,1.261,1.723s1.247-0.588,1.247-1.723V605.642
		z"/>
	<path fill="#2B4E6B" d="M569.618,610.264c-0.771,0-1.835-0.112-2.549-0.308c-0.168-0.043-0.266-0.154-0.266-0.322V608.5
		c0-0.141,0.098-0.267,0.266-0.267c0.014,0,0.042,0,0.056,0c0.757,0.099,1.933,0.196,2.381,0.196c0.672,0,0.827-0.182,0.827-0.546
		c0-0.21-0.126-0.364-0.519-0.589l-1.821-1.051c-0.784-0.448-1.247-1.162-1.247-2.072c0-1.415,0.938-2.172,2.872-2.172
		c1.106,0,1.779,0.141,2.493,0.322c0.168,0.042,0.266,0.154,0.266,0.322v1.135c0,0.168-0.098,0.266-0.238,0.266
		c-0.014,0-0.028,0-0.042,0c-0.406-0.056-1.611-0.182-2.325-0.182c-0.546,0-0.742,0.084-0.742,0.406c0,0.21,0.154,0.322,0.434,0.49
		l1.737,0.994c1.163,0.673,1.415,1.401,1.415,2.157C572.615,609.228,571.663,610.264,569.618,610.264z"/>
	<path fill="#2B4E6B" d="M583.927,609.9c-0.798,0.196-1.905,0.364-2.984,0.364c-2.269,0-3.516-1.316-3.516-3.586v-1.093
		c0-2.199,1.148-3.586,3.516-3.586c0.28,0,0.743,0.042,1.149,0.099v-2.424c0-0.154,0.126-0.28,0.28-0.28h1.695
		c0.154,0,0.294,0.126,0.294,0.28v9.819C584.361,609.719,584.305,609.816,583.927,609.9z M582.092,603.947
		c-0.336-0.042-0.812-0.07-1.149-0.07c-0.994,0-1.247,0.729-1.247,1.709v1.093c0,0.995,0.252,1.723,1.247,1.723
		c0.462,0,0.883-0.042,1.149-0.084V603.947z"/>
	<path fill="#2B4E6B" d="M592.537,606.833h-4.468v0.028c0,0.798,0.336,1.526,1.443,1.526c0.882,0,2.129-0.07,2.689-0.126
		c0.014,0,0.028,0,0.042,0c0.154,0,0.266,0.07,0.266,0.224v1.065c0,0.224-0.056,0.321-0.294,0.378
		c-0.896,0.224-1.653,0.336-2.871,0.336c-1.695,0-3.516-0.896-3.516-3.6v-0.98c0-2.256,1.317-3.685,3.544-3.685
		c2.297,0,3.46,1.569,3.46,3.685v0.812C592.832,606.707,592.719,606.833,592.537,606.833z M590.618,605.376
		c0-1.036-0.476-1.555-1.261-1.555c-0.771,0-1.289,0.532-1.289,1.555v0.056h2.549V605.376z"/>
	<path fill="#2B4E6B" d="M605.964,610.138h-1.961c-0.14,0-0.252-0.112-0.28-0.252l-0.504-2.298h-2.872l-0.504,2.298
		c-0.028,0.14-0.14,0.252-0.28,0.252h-1.961c-0.14,0-0.238-0.084-0.238-0.225c0-0.014,0.014-0.042,0.014-0.069l2.087-8.685
		c0.322-1.345,1.359-1.555,2.325-1.555c0.967,0,1.989,0.21,2.312,1.555l2.087,8.685c0,0.027,0.014,0.056,0.014,0.069
		C606.202,610.054,606.104,610.138,605.964,610.138z M601.972,601.803c-0.028-0.14-0.056-0.21-0.182-0.21
		c-0.126,0-0.168,0.07-0.196,0.21l-0.854,3.866h2.087L601.972,601.803z"/>
	<path fill="#2B4E6B" d="M614.293,603.583l-0.434,0.141c0.168,0.252,0.308,0.7,0.308,1.036v0.112c0,1.82-1.274,2.619-3.46,2.619
		c-0.658,0-1.176-0.098-1.457-0.21c-0.154,0.098-0.196,0.196-0.196,0.322c0,0.224,0.084,0.322,0.42,0.392l1.583,0.351
		c2.437,0.532,3.277,0.91,3.277,2.255v0.112c0,1.541-1.205,2.283-3.67,2.283c-2.325,0-3.558-0.812-3.558-2.283V610.6
		c0-0.574,0.238-1.106,0.84-1.568c-0.504-0.28-0.714-0.841-0.714-1.303c0-0.519,0.266-0.91,0.616-1.19
		c-0.448-0.393-0.645-1.107-0.645-1.667v-0.112c0-1.583,1.051-2.647,3.502-2.647h3.488c0.196,0,0.35,0.168,0.35,0.364v0.799
		C614.545,603.47,614.461,603.527,614.293,603.583z M612.024,610.6c0-0.266-0.182-0.448-1.443-0.729l-1.037-0.224
		c-0.168,0.238-0.28,0.462-0.28,0.952v0.112c0,0.477,0.322,0.715,1.4,0.715c1.149,0,1.359-0.295,1.359-0.715V610.6z M611.954,604.76
		c0-0.574-0.252-1.009-1.247-1.009c-0.994,0-1.274,0.435-1.274,1.009v0.112c0,0.476,0.21,0.98,1.274,0.98
		c0.98,0,1.247-0.378,1.247-0.98V604.76z"/>
	<path fill="#2B4E6B" d="M622.301,610.138h-1.569c-0.154,0-0.28-0.126-0.28-0.28v-0.336c-0.771,0.546-1.387,0.729-2.283,0.729
		c-2.031,0-2.479-1.415-2.479-3.18v-4.665c0-0.154,0.14-0.294,0.294-0.294h1.695c0.154,0,0.28,0.14,0.28,0.294v4.665
		c0,0.98,0.182,1.303,1.036,1.303c0.406,0,0.841-0.196,1.317-0.448v-5.52c0-0.154,0.126-0.294,0.28-0.294h1.695
		c0.154,0,0.294,0.14,0.294,0.294v7.452C622.581,610.012,622.455,610.138,622.301,610.138z"/>
	<path fill="#2B4E6B" d="M630.168,610.138H628.6c-0.154,0-0.28-0.126-0.28-0.28v-0.224c-0.546,0.392-1.107,0.63-1.947,0.63
		c-1.219,0-2.395-0.588-2.395-2.409v-0.126c0-1.639,1.05-2.367,3.446-2.367h0.756v-0.505c0-0.798-0.393-0.966-1.051-0.966
		c-0.896,0-1.891,0.056-2.325,0.098h-0.07c-0.14,0-0.252-0.07-0.252-0.252v-1.135c0-0.154,0.098-0.266,0.266-0.308
		c0.519-0.127,1.499-0.295,2.423-0.295c2.017,0,3.278,0.812,3.278,2.857v5.001C630.449,610.012,630.323,610.138,630.168,610.138z
		 M628.222,606.707h-0.798c-0.981,0-1.233,0.336-1.233,1.022v0.126c0,0.588,0.294,0.7,0.882,0.7c0.42,0,0.812-0.14,1.149-0.308
		V606.707z"/>
</g>
<g enable-background="new    ">
	<path fill="#5BA4C2" d="M639.716,610.251c-0.336,0-0.826-0.028-1.345-0.099v2.479c0,0.154-0.126,0.28-0.28,0.28h-1.289
		c-0.154,0-0.28-0.126-0.28-0.28v-9.749c0-0.21,0.056-0.294,0.378-0.378c0.869-0.225,1.919-0.364,2.815-0.364
		c2.255,0,3.348,1.33,3.348,3.516v1.078C643.064,608.92,641.972,610.251,639.716,610.251z M641.215,605.656
		c0-1.148-0.293-2.003-1.499-2.003c-0.504,0-1.079,0.042-1.345,0.098v4.889c0.393,0.057,1.009,0.099,1.345,0.099
		c1.206,0,1.499-0.854,1.499-2.004V605.656z"/>
	<path fill="#5BA4C2" d="M647.711,610.251c-2.199,0-3.348-1.485-3.348-3.488v-1.135c0-2.003,1.148-3.487,3.348-3.487
		s3.348,1.484,3.348,3.487v1.135C651.059,608.765,649.91,610.251,647.711,610.251z M649.209,605.628
		c0-1.148-0.518-1.891-1.498-1.891s-1.499,0.742-1.499,1.891v1.135c0,1.148,0.519,1.892,1.499,1.892s1.498-0.743,1.498-1.892
		V605.628z"/>
	<path fill="#5BA4C2" d="M656.418,603.709c-0.756,0-1.344,0.196-1.933,0.505v5.631c0,0.154-0.126,0.294-0.28,0.294h-1.289
		c-0.153,0-0.279-0.14-0.279-0.294v-7.326c0-0.154,0.126-0.28,0.279-0.28h1.219c0.154,0,0.281,0.126,0.281,0.28v0.294
		c0.686-0.532,1.442-0.672,2.002-0.672c0.154,0,0.281,0.126,0.281,0.28v1.008C656.699,603.583,656.572,603.709,656.418,603.709z"/>
	<path fill="#5BA4C2" d="M663.039,610.138h-1.303c-0.154,0-0.279-0.14-0.279-0.294v-10.086c0-0.153,0.125-0.28,0.279-0.28h1.303
		c0.154,0,0.267,0.127,0.267,0.28v10.086C663.306,609.999,663.193,610.138,663.039,610.138z"/>
	<path fill="#5BA4C2" d="M670.77,610.138h-1.19c-0.154,0-0.28-0.126-0.28-0.28v-0.224c-0.645,0.392-1.303,0.616-1.975,0.616
		c-1.163,0-2.424-0.448-2.424-2.34v-0.056c0-1.597,0.98-2.424,3.418-2.424h0.883v-0.616c0-0.91-0.406-1.134-1.232-1.134
		c-0.896,0-1.822,0.056-2.283,0.111c-0.029,0-0.057,0-0.07,0c-0.141,0-0.252-0.042-0.252-0.238v-0.896
		c0-0.153,0.084-0.252,0.266-0.294c0.561-0.112,1.373-0.224,2.34-0.224c1.988,0,3.081,0.882,3.081,2.675v5.043
		C671.05,610.012,670.924,610.138,670.77,610.138z M669.201,606.665h-0.883c-1.275,0-1.555,0.406-1.555,1.19v0.056
		c0,0.687,0.309,0.869,1.008,0.869c0.505,0,1.023-0.168,1.43-0.393V606.665z"/>
	<path fill="#5BA4C2" d="M680.512,610.152c-0.336,0.057-0.644,0.099-0.952,0.099c-1.583,0-2.228-0.351-2.228-2.228v-4.398
		l-1.316-0.196c-0.154-0.027-0.279-0.126-0.279-0.28v-0.63c0-0.154,0.125-0.28,0.279-0.28h1.316v-1.148
		c0-0.154,0.127-0.252,0.281-0.28l1.303-0.224c0.014,0,0.041,0,0.056,0c0.126,0,0.224,0.069,0.224,0.21v1.442h1.261
		c0.154,0,0.28,0.126,0.28,0.28v0.826c0,0.154-0.126,0.28-0.28,0.28h-1.261v4.398c0,0.7,0.043,0.784,0.547,0.784h0.742
		c0.182,0,0.294,0.07,0.294,0.21v0.883C680.778,610.041,680.694,610.125,680.512,610.152z"/>
	<path fill="#5BA4C2" d="M687.611,610.138h-1.19c-0.154,0-0.28-0.126-0.28-0.28v-0.224c-0.645,0.392-1.303,0.616-1.975,0.616
		c-1.163,0-2.424-0.448-2.424-2.34v-0.056c0-1.597,0.98-2.424,3.418-2.424h0.883v-0.616c0-0.91-0.406-1.134-1.232-1.134
		c-0.896,0-1.822,0.056-2.283,0.111c-0.029,0-0.057,0-0.07,0c-0.141,0-0.252-0.042-0.252-0.238v-0.896
		c0-0.153,0.084-0.252,0.266-0.294c0.561-0.112,1.373-0.224,2.34-0.224c1.988,0,3.081,0.882,3.081,2.675v5.043
		C687.892,610.012,687.766,610.138,687.611,610.138z M686.043,606.665h-0.883c-1.275,0-1.555,0.406-1.555,1.19v0.056
		c0,0.687,0.309,0.869,1.008,0.869c0.505,0,1.023-0.168,1.43-0.393V606.665z"/>
	<path fill="#5BA4C2" d="M693.49,603.709c-0.756,0-1.345,0.196-1.934,0.505v5.631c0,0.154-0.125,0.294-0.279,0.294h-1.289
		c-0.154,0-0.279-0.14-0.279-0.294v-7.326c0-0.154,0.125-0.28,0.279-0.28h1.219c0.154,0,0.28,0.126,0.28,0.28v0.294
		c0.687-0.532,1.442-0.672,2.003-0.672c0.154,0,0.28,0.126,0.28,0.28v1.008C693.771,603.583,693.645,603.709,693.49,603.709z"/>
	<path fill="#5BA4C2" d="M700.59,609.886c-0.869,0.224-1.92,0.364-2.816,0.364c-2.254,0-3.348-1.331-3.348-3.517v-1.078
		c0-2.186,1.094-3.516,3.348-3.516c0.337,0,0.827,0.027,1.346,0.098v-2.479c0-0.153,0.125-0.28,0.279-0.28h1.289
		c0.154,0,0.28,0.127,0.28,0.28v9.75C700.968,609.719,700.912,609.802,700.59,609.886z M699.119,603.751
		c-0.393-0.056-1.009-0.098-1.346-0.098c-1.204,0-1.498,0.854-1.498,2.003v1.078c0,1.149,0.294,2.004,1.498,2.004
		c0.505,0,1.079-0.042,1.346-0.099V603.751z"/>
	<path fill="#5BA4C2" d="M708.961,606.833h-4.566v0.042c0,0.812,0.336,1.779,1.682,1.779c1.021,0,1.988-0.084,2.577-0.141
		c0.014,0,0.028,0,0.042,0c0.141,0,0.252,0.07,0.252,0.21v0.925c0,0.224-0.042,0.322-0.294,0.364
		c-0.911,0.168-1.457,0.238-2.718,0.238c-1.4,0-3.39-0.757-3.39-3.517v-1.036c0-2.186,1.219-3.558,3.362-3.558
		c2.156,0,3.334,1.471,3.334,3.558v0.784C709.242,606.707,709.157,606.833,708.961,606.833z M707.379,605.46
		c0-1.093-0.603-1.723-1.471-1.723c-0.869,0-1.5,0.616-1.5,1.723v0.057h2.971V605.46z"/>
	<path fill="#5BA4C2" d="M712.725,608.275l-1.219,2.941c-0.069,0.169-0.111,0.28-0.266,0.28h-0.967
		c-0.125,0-0.209-0.084-0.209-0.195c0-0.028,0-0.057,0.014-0.085l0.854-2.941c0.057-0.168,0.127-0.266,0.281-0.266h1.344
		c0.112,0,0.197,0.069,0.197,0.168C712.754,608.206,712.739,608.233,712.725,608.275z"/>
	<path fill="#5BA4C2" d="M723.521,610.138h-1.19c-0.154,0-0.28-0.126-0.28-0.28v-0.224c-0.645,0.392-1.303,0.616-1.976,0.616
		c-1.162,0-2.423-0.448-2.423-2.34v-0.056c0-1.597,0.98-2.424,3.418-2.424h0.882v-0.616c0-0.91-0.406-1.134-1.232-1.134
		c-0.896,0-1.82,0.056-2.283,0.111c-0.027,0-0.056,0-0.07,0c-0.14,0-0.252-0.042-0.252-0.238v-0.896
		c0-0.153,0.084-0.252,0.267-0.294c0.561-0.112,1.372-0.224,2.339-0.224c1.989,0,3.082,0.882,3.082,2.675v5.043
		C723.801,610.012,723.675,610.138,723.521,610.138z M721.951,606.665h-0.882c-1.274,0-1.555,0.406-1.555,1.19v0.056
		c0,0.687,0.308,0.869,1.009,0.869c0.504,0,1.021-0.168,1.428-0.393V606.665z"/>
	<path fill="#5BA4C2" d="M731.809,610.138h-1.289c-0.153,0-0.279-0.14-0.279-0.294v-4.566c0-1.219-0.112-1.569-1.191-1.569
		c-0.476,0-0.994,0.196-1.582,0.505v5.631c0,0.154-0.127,0.294-0.28,0.294h-1.289c-0.153,0-0.28-0.14-0.28-0.294v-7.326
		c0-0.154,0.127-0.28,0.28-0.28h1.219c0.154,0,0.28,0.126,0.28,0.28v0.294c0.812-0.518,1.345-0.672,2.27-0.672
		c2.017,0,2.423,1.358,2.423,3.138v4.566C732.089,609.999,731.963,610.138,731.809,610.138z"/>
	<path fill="#5BA4C2" d="M737.771,610.152c-0.336,0.057-0.644,0.099-0.952,0.099c-1.583,0-2.228-0.351-2.228-2.228v-4.398
		l-1.316-0.196c-0.154-0.027-0.279-0.126-0.279-0.28v-0.63c0-0.154,0.125-0.28,0.279-0.28h1.316v-1.148
		c0-0.154,0.127-0.252,0.281-0.28l1.303-0.224c0.014,0,0.041,0,0.056,0c0.126,0,0.224,0.069,0.224,0.21v1.442h1.261
		c0.154,0,0.28,0.126,0.28,0.28v0.826c0,0.154-0.126,0.28-0.28,0.28h-1.261v4.398c0,0.7,0.043,0.784,0.547,0.784h0.742
		c0.182,0,0.294,0.07,0.294,0.21v0.883C738.038,610.041,737.954,610.125,737.771,610.152z"/>
	<path fill="#5BA4C2" d="M745.473,606.833h-4.566v0.042c0,0.812,0.336,1.779,1.682,1.779c1.021,0,1.988-0.084,2.577-0.141
		c0.014,0,0.028,0,0.042,0c0.141,0,0.252,0.07,0.252,0.21v0.925c0,0.224-0.042,0.322-0.294,0.364
		c-0.911,0.168-1.457,0.238-2.718,0.238c-1.4,0-3.39-0.757-3.39-3.517v-1.036c0-2.186,1.219-3.558,3.362-3.558
		c2.156,0,3.334,1.471,3.334,3.558v0.784C745.754,606.707,745.669,606.833,745.473,606.833z M743.891,605.46
		c0-1.093-0.603-1.723-1.471-1.723c-0.869,0-1.5,0.616-1.5,1.723v0.057h2.971V605.46z"/>
	<path fill="#5BA4C2" d="M749.895,610.251c-0.546,0-1.723-0.07-2.508-0.28c-0.168-0.042-0.266-0.154-0.266-0.322v-0.841
		c0-0.111,0.098-0.224,0.238-0.224c0.027,0,0.042,0,0.057,0c0.672,0.084,1.933,0.154,2.353,0.154c0.868,0,0.995-0.295,0.995-0.673
		c0-0.266-0.168-0.435-0.617-0.714l-1.918-1.177c-0.688-0.421-1.178-1.121-1.178-1.934c0-1.4,0.883-2.101,2.662-2.101
		c1.135,0,1.779,0.126,2.493,0.28c0.168,0.042,0.252,0.153,0.252,0.321v0.812c0,0.169-0.084,0.267-0.224,0.267
		c-0.028,0-0.043,0-0.057,0c-0.393-0.056-1.513-0.168-2.311-0.168c-0.673,0-0.967,0.154-0.967,0.588c0,0.225,0.21,0.364,0.561,0.574
		l1.834,1.121c1.178,0.714,1.346,1.415,1.346,2.129C752.641,609.284,751.73,610.251,749.895,610.251z"/>
	<path fill="#5BA4C2" d="M763.561,609.886c-0.868,0.224-1.919,0.364-2.815,0.364c-2.255,0-3.348-1.331-3.348-3.517v-1.078
		c0-2.186,1.093-3.516,3.348-3.516c0.337,0,0.827,0.027,1.345,0.098v-2.479c0-0.153,0.126-0.28,0.28-0.28h1.288
		c0.154,0,0.281,0.127,0.281,0.28v9.75C763.939,609.719,763.883,609.802,763.561,609.886z M762.09,603.751
		c-0.393-0.056-1.008-0.098-1.345-0.098c-1.204,0-1.499,0.854-1.499,2.003v1.078c0,1.149,0.295,2.004,1.499,2.004
		c0.505,0,1.079-0.042,1.345-0.099V603.751z"/>
	<path fill="#5BA4C2" d="M771.934,606.833h-4.566v0.042c0,0.812,0.336,1.779,1.68,1.779c1.023,0,1.99-0.084,2.578-0.141
		c0.014,0,0.027,0,0.042,0c0.14,0,0.252,0.07,0.252,0.21v0.925c0,0.224-0.042,0.322-0.294,0.364
		c-0.91,0.168-1.457,0.238-2.718,0.238c-1.4,0-3.39-0.757-3.39-3.517v-1.036c0-2.186,1.219-3.558,3.361-3.558
		c2.158,0,3.334,1.471,3.334,3.558v0.784C772.213,606.707,772.129,606.833,771.934,606.833z M770.35,605.46
		c0-1.093-0.602-1.723-1.471-1.723c-0.868,0-1.498,0.616-1.498,1.723v0.057h2.969V605.46z"/>
	<path fill="#5BA4C2" d="M777.109,612.94c-0.309,0-0.588-0.028-0.925-0.084c-0.183-0.028-0.267-0.112-0.267-0.253v-0.91
		c0-0.14,0.113-0.224,0.295-0.224h0.631c0.447,0,0.49-0.183,0.49-0.743v-8.208c0-0.154,0.125-0.28,0.279-0.28h1.289
		c0.154,0,0.28,0.126,0.28,0.28v8.208C779.183,612.435,778.412,612.94,777.109,612.94z M778.93,601.187h-1.344
		c-0.154,0-0.281-0.126-0.281-0.28v-1.232c0-0.154,0.127-0.28,0.281-0.28h1.344c0.154,0,0.295,0.126,0.295,0.28v1.232
		C779.225,601.061,779.084,601.187,778.93,601.187z"/>
	<path fill="#5BA4C2" d="M787.234,610.138h-1.289c-0.153,0-0.279-0.126-0.279-0.28v-0.322c-0.729,0.477-1.303,0.7-2.199,0.7
		c-0.701,0-1.316-0.182-1.723-0.588c-0.519-0.519-0.701-1.387-0.701-2.55v-4.566c0-0.153,0.127-0.294,0.28-0.294h1.289
		c0.153,0,0.28,0.141,0.28,0.294v4.566c0,0.701,0.056,1.107,0.322,1.345c0.195,0.169,0.434,0.253,0.868,0.253
		c0.519,0,1.19-0.351,1.583-0.561v-5.604c0-0.153,0.126-0.294,0.279-0.294h1.289c0.154,0,0.28,0.141,0.28,0.294v7.326
		C787.515,610.012,787.389,610.138,787.234,610.138z"/>
	<path fill="#5BA4C2" d="M795.984,603.512l-0.461,0.183c0.224,0.322,0.35,0.63,0.35,1.12v0.099c0,1.751-1.205,2.549-3.32,2.549
		c-0.742,0-1.246-0.126-1.526-0.238c-0.168,0.112-0.238,0.238-0.238,0.364c0,0.28,0.154,0.393,0.477,0.463l1.653,0.392
		c1.904,0.448,3.137,0.743,3.137,2.241v0.099c0,1.429-1.051,2.199-3.432,2.199c-2.27,0-3.474-0.854-3.474-2.325v-0.126
		c0-0.574,0.267-1.135,0.714-1.541c-0.392-0.294-0.63-0.784-0.63-1.289v-0.014c0-0.435,0.183-0.868,0.56-1.135
		c-0.42-0.435-0.574-0.938-0.574-1.639v-0.099c0-1.4,0.911-2.577,3.334-2.577h3.278c0.21,0,0.378,0.168,0.378,0.378v0.589
		C796.209,603.415,796.153,603.443,795.984,603.512z M794.206,610.684c0-0.308-0.183-0.49-1.653-0.84l-1.246-0.294
		c-0.211,0.294-0.351,0.476-0.351,0.98v0.126c0,0.574,0.351,0.924,1.667,0.924c1.345,0,1.583-0.294,1.583-0.798V610.684z
		 M794.052,604.844c0-0.672-0.294-1.19-1.499-1.19c-1.19,0-1.512,0.532-1.512,1.19v0.112c0,0.519,0.209,1.106,1.512,1.106
		c1.163,0,1.499-0.406,1.499-1.106V604.844z"/>
	<path fill="#5BA4C2" d="M803.082,610.138h-1.19c-0.154,0-0.28-0.126-0.28-0.28v-0.224c-0.645,0.392-1.303,0.616-1.975,0.616
		c-1.163,0-2.424-0.448-2.424-2.34v-0.056c0-1.597,0.98-2.424,3.418-2.424h0.883v-0.616c0-0.91-0.406-1.134-1.232-1.134
		c-0.896,0-1.822,0.056-2.283,0.111c-0.029,0-0.057,0-0.07,0c-0.141,0-0.252-0.042-0.252-0.238v-0.896
		c0-0.153,0.084-0.252,0.266-0.294c0.561-0.112,1.373-0.224,2.34-0.224c1.988,0,3.081,0.882,3.081,2.675v5.043
		C803.362,610.012,803.236,610.138,803.082,610.138z M801.514,606.665h-0.883c-1.275,0-1.555,0.406-1.555,1.19v0.056
		c0,0.687,0.309,0.869,1.008,0.869c0.505,0,1.023-0.168,1.43-0.393V606.665z"/>
	<path fill="#5BA4C2" d="M808.961,603.709c-0.756,0-1.345,0.196-1.934,0.505v5.631c0,0.154-0.125,0.294-0.279,0.294h-1.289
		c-0.154,0-0.279-0.14-0.279-0.294v-7.326c0-0.154,0.125-0.28,0.279-0.28h1.219c0.154,0,0.28,0.126,0.28,0.28v0.294
		c0.687-0.532,1.442-0.672,2.003-0.672c0.154,0,0.28,0.126,0.28,0.28v1.008C809.241,603.583,809.115,603.709,808.961,603.709z"/>
</g>
</svg>
