<?xml version="1.0" encoding="utf-8"?>
<!-- Generator: Adobe Illustrator 16.0.0, SVG Export Plug-In . SVG Version: 6.00 Build 0)  -->
<!DOCTYPE svg PUBLIC "-//W3C//DTD SVG 1.1//EN" "http://www.w3.org/Graphics/SVG/1.1/DTD/svg11.dtd">
<svg version="1.1" id="Layer_1" xmlns="http://www.w3.org/2000/svg" xmlns:xlink="http://www.w3.org/1999/xlink" x="0px" y="0px"
	 width="1280px" height="700px" viewBox="0 0 1280 700" enable-background="new 0 0 1280 700" xml:space="preserve">
<g id="Miscelaneas">
	<g>
		<g>
			<path fill="none" stroke="#5BA4C2" stroke-width="0.75" stroke-miterlimit="10" d="M640.316,644c0,0,0-14.332,0-19.332
				c0-3.087,1.002-4.066,3.666-4.066c2.663,0,131.926,0,131.926,0c2.987,0,3.763-1.438,3.763-5.035
				c0-3.375-0.331-19.253-0.331-23.016c0-3.542,0.941-5.367,3.32-6.032v-0.222c-2.379-0.663-3.32-2.435-3.32-6.031
				c0-3.762,0.331-16.641,0.331-20.018"/>
		</g>
		<g>
			<path fill="none" stroke="#5BA4C2" stroke-width="0.75" stroke-miterlimit="10" d="M500.021,560.248
				c0,3.376,0.331,16.256,0.331,20.018c0,3.598-0.94,5.368-3.319,6.031v0.222c2.379,0.665,3.319,2.49,3.319,6.032
				c0,3.763-0.331,19.641-0.331,23.016c0,3.597,0.774,5.035,3.764,5.035c0,0,130.2,0,132.864,0c2.663,0,3.666,0.979,3.666,4.065
				c0,5,0,19.333,0,19.333"/>
		</g>
	</g>
	<g>
		<g>
			<path fill="#5BA4C2" d="M643.808,643.882l-0.002-0.009l-3.489-6.875v-0.017l-0.005,0.008l-0.004-0.008l-0.003,0.021l-3.662,6.781
				l-0.006,0.025c-0.343,0.594-0.547,1.281-0.558,2.014c-0.029,2.277,1.794,4.147,4.071,4.178c2.276,0.027,4.145-1.795,4.175-4.071
				C644.333,645.186,644.146,644.486,643.808,643.882z"/>
			<g>
				<g>
					<path fill="#72ADC8" d="M638.954,649.033c-0.021,0-0.045-0.002-0.068-0.008c-2.028-0.41-2.326-2.586-2.202-3.682
						c0.022-0.199,0.202-0.34,0.403-0.319c0.2,0.023,0.344,0.204,0.32,0.403c-0.012,0.104-0.254,2.504,1.623,2.883
						c0.196,0.039,0.323,0.232,0.285,0.43C639.28,648.916,639.125,649.035,638.954,649.033z"/>
				</g>
			</g>
		</g>
		<path fill="#72ADC8" d="M644.325,645.928c0.008-0.742-0.182-1.441-0.519-2.047l-0.002-0.009l-3.489-6.875v-0.017l-0.005,0.008
			l-0.004-0.008v13.011C642.512,649.936,644.296,648.152,644.325,645.928z"/>
		<g>
			<g>
				<path fill="#E2D4D5" d="M641.925,643.449l-0.758-2.031c-0.061-0.137-0.11-0.383,0.025-0.442
					c0.135-0.061,0.278,0.131,0.339,0.266l0.981,1.905c0.061,0.136,0.025,0.396-0.108,0.457
					C642.151,643.718,641.97,643.557,641.925,643.449z"/>
			</g>
			
				<ellipse transform="matrix(-0.08 -0.9968 0.9968 -0.08 51.7795 1336.3521)" fill="#E2D4D5" cx="642.572" cy="644.281" rx="0.415" ry="0.393"/>
		</g>
	</g>
	<g>
		<g>
			<path fill="#5BA4C2" d="M644.012,655.873l-0.001-0.004l-1.927-3.795v-0.01l-0.002,0.005l-0.002-0.005l-0.002,0.012l-2.021,3.742
				l-0.003,0.016c-0.188,0.326-0.302,0.706-0.308,1.11c-0.017,1.257,0.99,2.289,2.247,2.307c1.257,0.016,2.287-0.99,2.304-2.248
				C644.302,656.594,644.197,656.207,644.012,655.873z"/>
			<g>
				<g>
					<path fill="#72ADC8" d="M641.333,658.718c-0.013,0-0.025-0.002-0.038-0.004c-1.12-0.228-1.284-1.429-1.215-2.033
						c0.012-0.109,0.111-0.188,0.223-0.177c0.109,0.015,0.189,0.113,0.177,0.224c-0.007,0.059-0.141,1.382,0.896,1.592
						c0.108,0.021,0.179,0.127,0.157,0.236C641.513,658.652,641.427,658.719,641.333,658.718z"/>
				</g>
			</g>
		</g>
		<path fill="#72ADC8" d="M644.297,657.003c0.005-0.409-0.1-0.796-0.285-1.13l-0.001-0.004l-1.927-3.795v-0.01l-0.002,0.005
			l-0.002-0.005v7.182C643.296,659.216,644.281,658.23,644.297,657.003z"/>
		<g>
			<g>
				<path fill="#E2D4D5" d="M642.973,655.635l-0.419-1.122c-0.033-0.075-0.061-0.21,0.016-0.244
					c0.073-0.033,0.153,0.072,0.187,0.146l0.542,1.052c0.033,0.075,0.016,0.219-0.061,0.252
					C643.098,655.782,642.997,655.693,642.973,655.635z"/>
			</g>
			
				<ellipse transform="matrix(-0.0747 -0.9972 0.9972 -0.0747 37.1555 1346.7255)" fill="#E2D4D5" cx="643.363" cy="656.125" rx="0.229" ry="0.217"/>
		</g>
	</g>
</g>
<g enable-background="new    ">
	<path fill="#5BA4C2" d="M526.752,564.912h-1.289c-0.154,0-0.28-0.126-0.28-0.28v-2.479c-0.518,0.07-1.008,0.099-1.345,0.099
		c-2.255,0-3.348-1.331-3.348-3.517v-1.078c0-2.186,1.093-3.516,3.348-3.516c0.896,0,1.947,0.14,2.815,0.364
		c0.322,0.084,0.378,0.168,0.378,0.378v9.749C527.032,564.786,526.906,564.912,526.752,564.912z M525.183,555.751
		c-0.266-0.056-0.84-0.098-1.345-0.098c-1.205,0-1.499,0.854-1.499,2.003v1.078c0,1.149,0.294,2.004,1.499,2.004
		c0.336,0,0.953-0.042,1.345-0.099V555.751z"/>
	<path fill="#5BA4C2" d="M535.041,562.138h-1.289c-0.154,0-0.28-0.126-0.28-0.28v-0.322c-0.729,0.477-1.303,0.7-2.199,0.7
		c-0.701,0-1.317-0.182-1.723-0.588c-0.518-0.519-0.7-1.387-0.7-2.55v-4.566c0-0.153,0.126-0.294,0.28-0.294h1.289
		c0.154,0,0.28,0.141,0.28,0.294v4.566c0,0.701,0.056,1.107,0.322,1.345c0.196,0.169,0.435,0.253,0.869,0.253
		c0.518,0,1.19-0.351,1.583-0.561v-5.604c0-0.153,0.126-0.294,0.28-0.294h1.289c0.154,0,0.28,0.141,0.28,0.294v7.326
		C535.32,562.012,535.194,562.138,535.041,562.138z"/>
	<path fill="#5BA4C2" d="M543.314,558.833h-4.566v0.042c0,0.812,0.336,1.779,1.681,1.779c1.022,0,1.989-0.084,2.578-0.141
		c0.014,0,0.028,0,0.042,0c0.14,0,0.252,0.07,0.252,0.21v0.925c0,0.224-0.042,0.322-0.294,0.364
		c-0.911,0.168-1.457,0.238-2.718,0.238c-1.4,0-3.39-0.757-3.39-3.517v-1.036c0-2.186,1.219-3.558,3.362-3.558
		c2.157,0,3.334,1.471,3.334,3.558v0.784C543.594,558.707,543.51,558.833,543.314,558.833z M541.731,557.46
		c0-1.093-0.602-1.723-1.471-1.723s-1.499,0.616-1.499,1.723v0.057h2.97V557.46z"/>
	<path fill="#5BA4C2" d="M552.819,562.152c-0.336,0.057-0.644,0.099-0.953,0.099c-1.583,0-2.227-0.351-2.227-2.228v-4.398
		l-1.317-0.196c-0.154-0.027-0.28-0.126-0.28-0.28v-0.63c0-0.154,0.126-0.28,0.28-0.28h1.317v-1.148c0-0.154,0.126-0.252,0.28-0.28
		l1.303-0.224c0.014,0,0.042,0,0.056,0c0.126,0,0.224,0.069,0.224,0.21v1.442h1.26c0.154,0,0.28,0.126,0.28,0.28v0.826
		c0,0.154-0.126,0.28-0.28,0.28h-1.26v4.398c0,0.7,0.042,0.784,0.546,0.784h0.743c0.182,0,0.294,0.07,0.294,0.21v0.883
		C553.085,562.041,553.001,562.125,552.819,562.152z"/>
	<path fill="#5BA4C2" d="M557.312,562.251c-2.199,0-3.348-1.485-3.348-3.488v-1.135c0-2.003,1.148-3.487,3.348-3.487
		s3.348,1.484,3.348,3.487v1.135C560.66,560.765,559.511,562.251,557.312,562.251z M558.811,557.628
		c0-1.148-0.519-1.891-1.499-1.891s-1.499,0.742-1.499,1.891v1.135c0,1.148,0.518,1.892,1.499,1.892s1.499-0.743,1.499-1.892
		V557.628z"/>
	<path fill="#5BA4C2" d="M572.016,562.138h-1.289c-0.154,0-0.28-0.14-0.28-0.294v-4.763c0-1.079-0.224-1.358-1.009-1.358
		c-0.266,0-0.798,0.084-1.303,0.35c0.042,0.309,0.056,0.658,0.056,1.009v4.763c0,0.154-0.126,0.294-0.28,0.294h-1.289
		c-0.154,0-0.28-0.14-0.28-0.294v-4.763c0-1.079-0.182-1.358-0.966-1.358c-0.294,0-0.714,0.153-1.289,0.462v5.659
		c0,0.154-0.126,0.294-0.28,0.294h-1.289c-0.154,0-0.28-0.14-0.28-0.294v-7.326c0-0.154,0.126-0.28,0.28-0.28h1.219
		c0.154,0,0.28,0.126,0.28,0.28v0.294c0.588-0.378,1.177-0.672,2.003-0.672c0.799,0,1.317,0.238,1.639,0.63
		c0.714-0.392,1.345-0.63,2.311-0.63c1.905,0,2.325,1.303,2.325,2.941v4.763C572.296,561.999,572.17,562.138,572.016,562.138z"/>
	<path fill="#5BA4C2" d="M579.685,562.138h-1.19c-0.154,0-0.28-0.126-0.28-0.28v-0.224c-0.644,0.392-1.303,0.616-1.975,0.616
		c-1.163,0-2.423-0.448-2.423-2.34v-0.056c0-1.597,0.98-2.424,3.418-2.424h0.882v-0.616c0-0.91-0.406-1.134-1.232-1.134
		c-0.896,0-1.821,0.056-2.283,0.111c-0.028,0-0.056,0-0.07,0c-0.14,0-0.252-0.042-0.252-0.238v-0.896
		c0-0.153,0.084-0.252,0.266-0.294c0.56-0.112,1.373-0.224,2.339-0.224c1.989,0,3.082,0.882,3.082,2.675v5.043
		C579.965,562.012,579.839,562.138,579.685,562.138z M578.116,558.665h-0.882c-1.275,0-1.555,0.406-1.555,1.19v0.056
		c0,0.687,0.308,0.869,1.008,0.869c0.504,0,1.022-0.168,1.429-0.393V558.665z"/>
	<path fill="#5BA4C2" d="M584.976,562.251c-0.896,0-1.947-0.141-2.815-0.364c-0.322-0.084-0.378-0.168-0.378-0.378v-9.75
		c0-0.153,0.126-0.28,0.28-0.28h1.289c0.154,0,0.28,0.127,0.28,0.28v2.479c0.519-0.07,1.009-0.098,1.345-0.098
		c2.255,0,3.348,1.33,3.348,3.516v1.078C588.324,560.92,587.231,562.251,584.976,562.251z M586.475,557.656
		c0-1.148-0.294-2.003-1.499-2.003c-0.336,0-0.952,0.042-1.345,0.098v4.889c0.267,0.057,0.841,0.099,1.345,0.099
		c1.205,0,1.499-0.854,1.499-2.004V557.656z"/>
	<path fill="#5BA4C2" d="M595.435,562.138h-1.19c-0.154,0-0.28-0.126-0.28-0.28v-0.224c-0.644,0.392-1.303,0.616-1.975,0.616
		c-1.163,0-2.423-0.448-2.423-2.34v-0.056c0-1.597,0.98-2.424,3.418-2.424h0.882v-0.616c0-0.91-0.406-1.134-1.232-1.134
		c-0.896,0-1.821,0.056-2.283,0.111c-0.028,0-0.056,0-0.07,0c-0.14,0-0.252-0.042-0.252-0.238v-0.896
		c0-0.153,0.084-0.252,0.266-0.294c0.56-0.112,1.373-0.224,2.339-0.224c1.989,0,3.082,0.882,3.082,2.675v5.043
		C595.715,562.012,595.589,562.138,595.435,562.138z M593.866,558.665h-0.882c-1.275,0-1.555,0.406-1.555,1.19v0.056
		c0,0.687,0.308,0.869,1.008,0.869c0.504,0,1.022-0.168,1.429-0.393V558.665z"/>
	<path fill="#5BA4C2" d="M603.724,562.138h-1.289c-0.154,0-0.28-0.14-0.28-0.294v-4.566c0-1.219-0.112-1.569-1.191-1.569
		c-0.476,0-0.995,0.196-1.583,0.505v5.631c0,0.154-0.126,0.294-0.28,0.294h-1.289c-0.154,0-0.28-0.14-0.28-0.294v-7.326
		c0-0.154,0.126-0.28,0.28-0.28h1.219c0.154,0,0.28,0.126,0.28,0.28v0.294c0.812-0.518,1.345-0.672,2.269-0.672
		c2.017,0,2.423,1.358,2.423,3.138v4.566C604.003,561.999,603.877,562.138,603.724,562.138z"/>
	<path fill="#5BA4C2" d="M614.895,562.138h-1.19c-0.154,0-0.28-0.126-0.28-0.28v-0.224c-0.644,0.392-1.303,0.616-1.975,0.616
		c-1.163,0-2.423-0.448-2.423-2.34v-0.056c0-1.597,0.98-2.424,3.418-2.424h0.882v-0.616c0-0.91-0.406-1.134-1.232-1.134
		c-0.896,0-1.821,0.056-2.283,0.111c-0.028,0-0.056,0-0.07,0c-0.14,0-0.252-0.042-0.252-0.238v-0.896
		c0-0.153,0.084-0.252,0.266-0.294c0.56-0.112,1.373-0.224,2.339-0.224c1.989,0,3.082,0.882,3.082,2.675v5.043
		C615.175,562.012,615.049,562.138,614.895,562.138z M613.326,558.665h-0.882c-1.275,0-1.555,0.406-1.555,1.19v0.056
		c0,0.687,0.308,0.869,1.008,0.869c0.504,0,1.022-0.168,1.429-0.393V558.665z"/>
	<path fill="#5BA4C2" d="M623.645,555.512l-0.462,0.183c0.224,0.322,0.35,0.63,0.35,1.12v0.099c0,1.751-1.205,2.549-3.32,2.549
		c-0.743,0-1.247-0.126-1.527-0.238c-0.168,0.112-0.238,0.238-0.238,0.364c0,0.28,0.154,0.393,0.477,0.463l1.653,0.392
		c1.905,0.448,3.138,0.743,3.138,2.241v0.099c0,1.429-1.051,2.199-3.432,2.199c-2.269,0-3.474-0.854-3.474-2.325v-0.126
		c0-0.574,0.266-1.135,0.714-1.541c-0.392-0.294-0.63-0.784-0.63-1.289v-0.014c0-0.435,0.182-0.868,0.56-1.135
		c-0.42-0.435-0.574-0.938-0.574-1.639v-0.099c0-1.4,0.911-2.577,3.334-2.577h3.278c0.21,0,0.378,0.168,0.378,0.378v0.589
		C623.869,555.415,623.813,555.443,623.645,555.512z M621.866,562.684c0-0.308-0.182-0.49-1.653-0.84l-1.247-0.294
		c-0.21,0.294-0.351,0.476-0.351,0.98v0.126c0,0.574,0.351,0.924,1.667,0.924c1.345,0,1.583-0.294,1.583-0.798V562.684z
		 M621.712,556.844c0-0.672-0.294-1.19-1.499-1.19c-1.191,0-1.513,0.532-1.513,1.19v0.112c0,0.519,0.21,1.106,1.513,1.106
		c1.163,0,1.499-0.406,1.499-1.106V556.844z"/>
	<path fill="#5BA4C2" d="M631.359,562.138h-1.289c-0.154,0-0.28-0.126-0.28-0.28v-0.322c-0.729,0.477-1.303,0.7-2.199,0.7
		c-0.701,0-1.317-0.182-1.723-0.588c-0.518-0.519-0.7-1.387-0.7-2.55v-4.566c0-0.153,0.126-0.294,0.28-0.294h1.289
		c0.154,0,0.28,0.141,0.28,0.294v4.566c0,0.701,0.056,1.107,0.322,1.345c0.196,0.169,0.435,0.253,0.869,0.253
		c0.518,0,1.19-0.351,1.583-0.561v-5.604c0-0.153,0.126-0.294,0.28-0.294h1.289c0.154,0,0.28,0.141,0.28,0.294v7.326
		C631.639,562.012,631.513,562.138,631.359,562.138z"/>
	<path fill="#5BA4C2" d="M639.031,562.138h-1.19c-0.154,0-0.28-0.126-0.28-0.28v-0.224c-0.644,0.392-1.303,0.616-1.975,0.616
		c-1.163,0-2.423-0.448-2.423-2.34v-0.056c0-1.597,0.98-2.424,3.418-2.424h0.882v-0.616c0-0.91-0.406-1.134-1.232-1.134
		c-0.896,0-1.821,0.056-2.283,0.111c-0.028,0-0.056,0-0.07,0c-0.14,0-0.252-0.042-0.252-0.238v-0.896
		c0-0.153,0.084-0.252,0.266-0.294c0.56-0.112,1.373-0.224,2.339-0.224c1.989,0,3.082,0.882,3.082,2.675v5.043
		C639.311,562.012,639.185,562.138,639.031,562.138z M637.462,558.665h-0.882c-1.275,0-1.555,0.406-1.555,1.19v0.056
		c0,0.687,0.308,0.869,1.008,0.869c0.504,0,1.022-0.168,1.429-0.393V558.665z"/>
	<path fill="#5BA4C2" d="M650.511,561.886c-0.868,0.224-1.919,0.364-2.815,0.364c-2.255,0-3.348-1.331-3.348-3.517v-1.078
		c0-2.186,1.093-3.516,3.348-3.516c0.336,0,0.826,0.027,1.345,0.098v-2.479c0-0.153,0.126-0.28,0.28-0.28h1.289
		c0.154,0,0.279,0.127,0.279,0.28v9.75C650.889,561.719,650.833,561.802,650.511,561.886z M649.04,555.751
		c-0.392-0.056-1.009-0.098-1.345-0.098c-1.205,0-1.498,0.854-1.498,2.003v1.078c0,1.149,0.293,2.004,1.498,2.004
		c0.504,0,1.078-0.042,1.345-0.099V555.751z"/>
	<path fill="#5BA4C2" d="M658.896,562.138h-1.289c-0.153,0-0.279-0.126-0.279-0.28v-0.322c-0.729,0.477-1.303,0.7-2.199,0.7
		c-0.701,0-1.316-0.182-1.723-0.588c-0.519-0.519-0.701-1.387-0.701-2.55v-4.566c0-0.153,0.127-0.294,0.28-0.294h1.289
		c0.153,0,0.28,0.141,0.28,0.294v4.566c0,0.701,0.056,1.107,0.322,1.345c0.195,0.169,0.434,0.253,0.868,0.253
		c0.519,0,1.19-0.351,1.583-0.561v-5.604c0-0.153,0.126-0.294,0.279-0.294h1.289c0.154,0,0.28,0.141,0.28,0.294v7.326
		C659.177,562.012,659.051,562.138,658.896,562.138z"/>
	<path fill="#5BA4C2" d="M664.775,555.709c-0.756,0-1.345,0.196-1.934,0.505v5.631c0,0.154-0.125,0.294-0.279,0.294h-1.289
		c-0.154,0-0.279-0.14-0.279-0.294v-7.326c0-0.154,0.125-0.28,0.279-0.28h1.219c0.154,0,0.28,0.126,0.28,0.28v0.294
		c0.687-0.532,1.442-0.672,2.003-0.672c0.154,0,0.28,0.126,0.28,0.28v1.008C665.056,555.583,664.93,555.709,664.775,555.709z"/>
	<path fill="#5BA4C2" d="M671.482,562.138h-1.19c-0.154,0-0.28-0.126-0.28-0.28v-0.224c-0.645,0.392-1.303,0.616-1.975,0.616
		c-1.163,0-2.424-0.448-2.424-2.34v-0.056c0-1.597,0.98-2.424,3.418-2.424h0.883v-0.616c0-0.91-0.406-1.134-1.232-1.134
		c-0.896,0-1.822,0.056-2.283,0.111c-0.029,0-0.057,0-0.07,0c-0.141,0-0.252-0.042-0.252-0.238v-0.896
		c0-0.153,0.084-0.252,0.266-0.294c0.561-0.112,1.373-0.224,2.34-0.224c1.988,0,3.081,0.882,3.081,2.675v5.043
		C671.763,562.012,671.637,562.138,671.482,562.138z M669.914,558.665h-0.883c-1.275,0-1.555,0.406-1.555,1.19v0.056
		c0,0.687,0.309,0.869,1.008,0.869c0.505,0,1.023-0.168,1.43-0.393V558.665z"/>
	<path fill="#5BA4C2" d="M679.771,562.138h-1.289c-0.154,0-0.28-0.14-0.28-0.294v-4.566c0-1.219-0.112-1.569-1.19-1.569
		c-0.477,0-0.995,0.196-1.584,0.505v5.631c0,0.154-0.125,0.294-0.279,0.294h-1.289c-0.154,0-0.279-0.14-0.279-0.294v-7.326
		c0-0.154,0.125-0.28,0.279-0.28h1.219c0.154,0,0.28,0.126,0.28,0.28v0.294c0.812-0.518,1.345-0.672,2.269-0.672
		c2.018,0,2.424,1.358,2.424,3.138v4.566C680.051,561.999,679.925,562.138,679.771,562.138z"/>
	<path fill="#5BA4C2" d="M685.734,562.152c-0.336,0.057-0.645,0.099-0.953,0.099c-1.582,0-2.227-0.351-2.227-2.228v-4.398
		l-1.317-0.196c-0.153-0.027-0.28-0.126-0.28-0.28v-0.63c0-0.154,0.127-0.28,0.28-0.28h1.317v-1.148c0-0.154,0.125-0.252,0.279-0.28
		l1.303-0.224c0.015,0,0.043,0,0.057,0c0.126,0,0.225,0.069,0.225,0.21v1.442h1.26c0.154,0,0.28,0.126,0.28,0.28v0.826
		c0,0.154-0.126,0.28-0.28,0.28h-1.26v4.398c0,0.7,0.041,0.784,0.545,0.784h0.743c0.183,0,0.294,0.07,0.294,0.21v0.883
		C686,562.041,685.916,562.125,685.734,562.152z"/>
	<path fill="#5BA4C2" d="M693.436,558.833h-4.566v0.042c0,0.812,0.336,1.779,1.68,1.779c1.023,0,1.99-0.084,2.578-0.141
		c0.014,0,0.027,0,0.042,0c0.14,0,0.252,0.07,0.252,0.21v0.925c0,0.224-0.042,0.322-0.294,0.364
		c-0.91,0.168-1.457,0.238-2.718,0.238c-1.4,0-3.39-0.757-3.39-3.517v-1.036c0-2.186,1.219-3.558,3.361-3.558
		c2.158,0,3.334,1.471,3.334,3.558v0.784C693.715,558.707,693.631,558.833,693.436,558.833z M691.852,557.46
		c0-1.093-0.602-1.723-1.471-1.723c-0.868,0-1.498,0.616-1.498,1.723v0.057h2.969V557.46z"/>
	<path fill="#5BA4C2" d="M704.971,558.833h-4.566v0.042c0,0.812,0.336,1.779,1.681,1.779c1.022,0,1.989-0.084,2.577-0.141
		c0.014,0,0.028,0,0.043,0c0.14,0,0.252,0.07,0.252,0.21v0.925c0,0.224-0.043,0.322-0.295,0.364
		c-0.91,0.168-1.457,0.238-2.717,0.238c-1.4,0-3.391-0.757-3.391-3.517v-1.036c0-2.186,1.219-3.558,3.362-3.558
		c2.157,0,3.334,1.471,3.334,3.558v0.784C705.251,558.707,705.167,558.833,704.971,558.833z M703.388,557.46
		c0-1.093-0.603-1.723-1.471-1.723s-1.499,0.616-1.499,1.723v0.057h2.97V557.46z"/>
	<path fill="#5BA4C2" d="M708.482,562.138h-1.303c-0.154,0-0.28-0.14-0.28-0.294v-10.086c0-0.153,0.126-0.28,0.28-0.28h1.303
		c0.154,0,0.266,0.127,0.266,0.28v10.086C708.748,561.999,708.637,562.138,708.482,562.138z"/>
	<path fill="#5BA4C2" d="M720.328,562.138h-1.289c-0.153,0-0.279-0.14-0.279-0.294v-4.608c0-1.219-0.211-1.527-1.148-1.527
		c-0.477,0-1.037,0.168-1.625,0.477v5.659c0,0.154-0.127,0.294-0.28,0.294h-1.289c-0.153,0-0.28-0.14-0.28-0.294v-10.086
		c0-0.153,0.127-0.28,0.28-0.28h1.289c0.153,0,0.28,0.127,0.28,0.28v2.899c0.532-0.321,1.12-0.518,2.115-0.518
		c1.933,0,2.507,1.372,2.507,3.096v4.608C720.608,561.999,720.482,562.138,720.328,562.138z"/>
	<path fill="#5BA4C2" d="M725.535,562.251c-2.199,0-3.348-1.485-3.348-3.488v-1.135c0-2.003,1.148-3.487,3.348-3.487
		s3.348,1.484,3.348,3.487v1.135C728.883,560.765,727.734,562.251,725.535,562.251z M727.033,557.628
		c0-1.148-0.518-1.891-1.498-1.891s-1.499,0.742-1.499,1.891v1.135c0,1.148,0.519,1.892,1.499,1.892s1.498-0.743,1.498-1.892
		V557.628z"/>
	<path fill="#5BA4C2" d="M734.242,555.709c-0.756,0-1.344,0.196-1.933,0.505v5.631c0,0.154-0.126,0.294-0.28,0.294h-1.289
		c-0.153,0-0.279-0.14-0.279-0.294v-7.326c0-0.154,0.126-0.28,0.279-0.28h1.219c0.154,0,0.281,0.126,0.281,0.28v0.294
		c0.686-0.532,1.442-0.672,2.002-0.672c0.154,0,0.281,0.126,0.281,0.28v1.008C734.523,555.583,734.396,555.709,734.242,555.709z"/>
	<path fill="#5BA4C2" d="M740.949,562.138h-1.189c-0.154,0-0.281-0.126-0.281-0.28v-0.224c-0.644,0.392-1.303,0.616-1.975,0.616
		c-1.162,0-2.424-0.448-2.424-2.34v-0.056c0-1.597,0.98-2.424,3.418-2.424h0.883v-0.616c0-0.91-0.406-1.134-1.232-1.134
		c-0.896,0-1.821,0.056-2.283,0.111c-0.028,0-0.057,0-0.07,0c-0.141,0-0.252-0.042-0.252-0.238v-0.896
		c0-0.153,0.084-0.252,0.266-0.294c0.561-0.112,1.373-0.224,2.34-0.224c1.988,0,3.082,0.882,3.082,2.675v5.043
		C741.23,562.012,741.104,562.138,740.949,562.138z M739.381,558.665h-0.883c-1.274,0-1.555,0.406-1.555,1.19v0.056
		c0,0.687,0.309,0.869,1.009,0.869c0.505,0,1.022-0.168,1.429-0.393V558.665z"/>
	<path fill="#5BA4C2" d="M746.828,555.709c-0.756,0-1.344,0.196-1.933,0.505v5.631c0,0.154-0.126,0.294-0.28,0.294h-1.289
		c-0.153,0-0.279-0.14-0.279-0.294v-7.326c0-0.154,0.126-0.28,0.279-0.28h1.219c0.154,0,0.281,0.126,0.281,0.28v0.294
		c0.686-0.532,1.442-0.672,2.002-0.672c0.154,0,0.281,0.126,0.281,0.28v1.008C747.109,555.583,746.982,555.709,746.828,555.709z"/>
	<path fill="#5BA4C2" d="M749.949,553.187h-1.358c-0.153,0-0.294-0.126-0.294-0.28v-1.232c0-0.154,0.141-0.28,0.294-0.28h1.358
		c0.154,0,0.281,0.126,0.281,0.28v1.232C750.23,553.061,750.104,553.187,749.949,553.187z M749.908,562.138h-1.289
		c-0.154,0-0.28-0.14-0.28-0.294v-7.326c0-0.154,0.126-0.28,0.28-0.28h1.289c0.153,0,0.279,0.126,0.279,0.28v7.326
		C750.188,561.999,750.062,562.138,749.908,562.138z"/>
	<path fill="#5BA4C2" d="M755.158,562.251c-2.199,0-3.348-1.485-3.348-3.488v-1.135c0-2.003,1.148-3.487,3.348-3.487
		s3.348,1.484,3.348,3.487v1.135C758.506,560.765,757.357,562.251,755.158,562.251z M756.657,557.628
		c0-1.148-0.519-1.891-1.499-1.891s-1.498,0.742-1.498,1.891v1.135c0,1.148,0.518,1.892,1.498,1.892s1.499-0.743,1.499-1.892
		V557.628z"/>
</g>
<g enable-background="new    ">
	<path fill="#5BA4C2" d="M528.6,576.833h-4.566v0.042c0,0.812,0.336,1.779,1.681,1.779c1.022,0,1.989-0.084,2.578-0.141
		c0.014,0,0.028,0,0.042,0c0.14,0,0.252,0.07,0.252,0.21v0.925c0,0.224-0.042,0.322-0.294,0.364
		c-0.911,0.168-1.457,0.238-2.718,0.238c-1.4,0-3.39-0.757-3.39-3.517v-1.036c0-2.186,1.219-3.558,3.362-3.558
		c2.157,0,3.334,1.471,3.334,3.558v0.784C528.88,576.707,528.796,576.833,528.6,576.833z M527.017,575.46
		c0-1.093-0.602-1.723-1.471-1.723s-1.499,0.616-1.499,1.723v0.057h2.97V575.46z"/>
	<path fill="#5BA4C2" d="M533.022,580.251c-0.546,0-1.723-0.07-2.508-0.28c-0.168-0.042-0.266-0.154-0.266-0.322v-0.841
		c0-0.111,0.098-0.224,0.238-0.224c0.028,0,0.042,0,0.056,0c0.672,0.084,1.933,0.154,2.353,0.154c0.869,0,0.995-0.295,0.995-0.673
		c0-0.266-0.168-0.435-0.616-0.714l-1.919-1.177c-0.687-0.421-1.177-1.121-1.177-1.934c0-1.4,0.882-2.101,2.662-2.101
		c1.134,0,1.779,0.126,2.493,0.28c0.168,0.042,0.252,0.153,0.252,0.321v0.812c0,0.169-0.084,0.267-0.224,0.267
		c-0.028,0-0.042,0-0.056,0c-0.393-0.056-1.513-0.168-2.312-0.168c-0.672,0-0.966,0.154-0.966,0.588c0,0.225,0.21,0.364,0.56,0.574
		l1.835,1.121c1.177,0.714,1.345,1.415,1.345,2.129C535.767,579.284,534.857,580.251,533.022,580.251z"/>
	<path fill="#5BA4C2" d="M542.025,580.068c-0.322,0.084-0.952,0.183-1.807,0.183c-1.821,0-3.194-1.121-3.194-3.404v-1.303
		c0-2.283,1.373-3.403,3.194-3.403c0.854,0,1.485,0.098,1.807,0.182c0.238,0.057,0.294,0.141,0.294,0.364v0.91
		c0,0.141-0.112,0.211-0.252,0.211c-0.014,0-0.028,0-0.042,0c-0.56-0.07-0.896-0.099-1.807-0.099c-0.659,0-1.345,0.379-1.345,1.835
		v1.303c0,1.457,0.686,1.835,1.345,1.835c0.91,0,1.247-0.027,1.807-0.098c0.014,0,0.028,0,0.042,0c0.14,0,0.252,0.07,0.252,0.21
		v0.91C542.319,579.928,542.263,580.012,542.025,580.068z"/>
	<path fill="#5BA4C2" d="M546.756,580.251c-2.199,0-3.348-1.485-3.348-3.488v-1.135c0-2.003,1.148-3.487,3.348-3.487
		s3.348,1.484,3.348,3.487v1.135C550.104,578.765,548.955,580.251,546.756,580.251z M548.255,575.628
		c0-1.148-0.519-1.891-1.499-1.891s-1.499,0.742-1.499,1.891v1.135c0,1.148,0.518,1.892,1.499,1.892s1.499-0.743,1.499-1.892
		V575.628z"/>
	<path fill="#5BA4C2" d="M553.335,580.138h-1.303c-0.154,0-0.28-0.14-0.28-0.294v-10.086c0-0.153,0.126-0.28,0.28-0.28h1.303
		c0.154,0,0.266,0.127,0.266,0.28v10.086C553.602,579.999,553.489,580.138,553.335,580.138z"/>
	<path fill="#5BA4C2" d="M561.065,580.138h-1.19c-0.154,0-0.28-0.126-0.28-0.28v-0.224c-0.645,0.392-1.303,0.616-1.975,0.616
		c-1.163,0-2.423-0.448-2.423-2.34v-0.056c0-1.597,0.98-2.424,3.418-2.424h0.882v-0.616c0-0.91-0.406-1.134-1.232-1.134
		c-0.896,0-1.821,0.056-2.283,0.111c-0.028,0-0.056,0-0.07,0c-0.14,0-0.252-0.042-0.252-0.238v-0.896
		c0-0.153,0.084-0.252,0.266-0.294c0.561-0.112,1.373-0.224,2.339-0.224c1.989,0,3.082,0.882,3.082,2.675v5.043
		C561.345,580.012,561.219,580.138,561.065,580.138z M559.496,576.665h-0.882c-1.275,0-1.555,0.406-1.555,1.19v0.056
		c0,0.687,0.308,0.869,1.008,0.869c0.504,0,1.022-0.168,1.429-0.393V576.665z"/>
	<path fill="#5BA4C2" d="M566.944,573.709c-0.756,0-1.345,0.196-1.933,0.505v5.631c0,0.154-0.126,0.294-0.28,0.294h-1.289
		c-0.154,0-0.28-0.14-0.28-0.294v-7.326c0-0.154,0.126-0.28,0.28-0.28h1.219c0.154,0,0.28,0.126,0.28,0.28v0.294
		c0.687-0.532,1.443-0.672,2.003-0.672c0.154,0,0.28,0.126,0.28,0.28v1.008C567.224,573.583,567.098,573.709,566.944,573.709z"/>
	<path fill="#5BA4C2" d="M573.565,580.138h-1.303c-0.154,0-0.28-0.14-0.28-0.294v-10.086c0-0.153,0.126-0.28,0.28-0.28h1.303
		c0.154,0,0.266,0.127,0.266,0.28v10.086C573.831,579.999,573.719,580.138,573.565,580.138z"/>
	<path fill="#5BA4C2" d="M577.373,580.138h-1.303c-0.154,0-0.28-0.14-0.28-0.294v-10.086c0-0.153,0.126-0.28,0.28-0.28h1.303
		c0.154,0,0.266,0.127,0.266,0.28v10.086C577.639,579.999,577.526,580.138,577.373,580.138z"/>
	<path fill="#5BA4C2" d="M585.705,576.833h-4.566v0.042c0,0.812,0.336,1.779,1.681,1.779c1.022,0,1.989-0.084,2.578-0.141
		c0.014,0,0.028,0,0.042,0c0.14,0,0.252,0.07,0.252,0.21v0.925c0,0.224-0.042,0.322-0.294,0.364
		c-0.911,0.168-1.457,0.238-2.718,0.238c-1.4,0-3.39-0.757-3.39-3.517v-1.036c0-2.186,1.219-3.558,3.362-3.558
		c2.157,0,3.334,1.471,3.334,3.558v0.784C585.985,576.707,585.901,576.833,585.705,576.833z M584.122,575.46
		c0-1.093-0.602-1.723-1.471-1.723s-1.499,0.616-1.499,1.723v0.057h2.97V575.46z"/>
	<path fill="#5BA4C2" d="M594.217,573.512l-0.462,0.183c0.224,0.322,0.35,0.63,0.35,1.12v0.099c0,1.751-1.205,2.549-3.32,2.549
		c-0.743,0-1.247-0.126-1.527-0.238c-0.168,0.112-0.238,0.238-0.238,0.364c0,0.28,0.154,0.393,0.477,0.463l1.653,0.392
		c1.905,0.448,3.138,0.743,3.138,2.241v0.099c0,1.429-1.051,2.199-3.432,2.199c-2.269,0-3.474-0.854-3.474-2.325v-0.126
		c0-0.574,0.266-1.135,0.714-1.541c-0.392-0.294-0.63-0.784-0.63-1.289v-0.014c0-0.435,0.182-0.868,0.56-1.135
		c-0.42-0.435-0.574-0.938-0.574-1.639v-0.099c0-1.4,0.911-2.577,3.334-2.577h3.278c0.21,0,0.378,0.168,0.378,0.378v0.589
		C594.441,573.415,594.385,573.443,594.217,573.512z M592.438,580.684c0-0.308-0.182-0.49-1.653-0.84l-1.247-0.294
		c-0.21,0.294-0.351,0.476-0.351,0.98v0.126c0,0.574,0.351,0.924,1.667,0.924c1.345,0,1.583-0.294,1.583-0.798V580.684z
		 M592.284,574.844c0-0.672-0.294-1.19-1.499-1.19c-1.191,0-1.513,0.532-1.513,1.19v0.112c0,0.519,0.21,1.106,1.513,1.106
		c1.163,0,1.499-0.406,1.499-1.106V574.844z"/>
	<path fill="#5BA4C2" d="M601.314,580.138h-1.19c-0.154,0-0.28-0.126-0.28-0.28v-0.224c-0.644,0.392-1.303,0.616-1.975,0.616
		c-1.163,0-2.423-0.448-2.423-2.34v-0.056c0-1.597,0.98-2.424,3.418-2.424h0.882v-0.616c0-0.91-0.406-1.134-1.232-1.134
		c-0.896,0-1.821,0.056-2.283,0.111c-0.028,0-0.056,0-0.07,0c-0.14,0-0.252-0.042-0.252-0.238v-0.896
		c0-0.153,0.084-0.252,0.266-0.294c0.56-0.112,1.373-0.224,2.339-0.224c1.989,0,3.082,0.882,3.082,2.675v5.043
		C601.595,580.012,601.469,580.138,601.314,580.138z M599.746,576.665h-0.882c-1.275,0-1.555,0.406-1.555,1.19v0.056
		c0,0.687,0.308,0.869,1.008,0.869c0.504,0,1.022-0.168,1.429-0.393V576.665z"/>
	<path fill="#5BA4C2" d="M606.605,580.251c-0.896,0-1.947-0.141-2.815-0.364c-0.322-0.084-0.378-0.168-0.378-0.378v-9.75
		c0-0.153,0.126-0.28,0.28-0.28h1.289c0.154,0,0.28,0.127,0.28,0.28v2.479c0.519-0.07,1.009-0.098,1.345-0.098
		c2.255,0,3.348,1.33,3.348,3.516v1.078C609.953,578.92,608.86,580.251,606.605,580.251z M608.104,575.656
		c0-1.148-0.294-2.003-1.499-2.003c-0.336,0-0.952,0.042-1.345,0.098v4.889c0.267,0.057,0.841,0.099,1.345,0.099
		c1.205,0,1.499-0.854,1.499-2.004V575.656z"/>
	<path fill="#5BA4C2" d="M617.064,580.138h-1.19c-0.154,0-0.28-0.126-0.28-0.28v-0.224c-0.645,0.392-1.303,0.616-1.975,0.616
		c-1.163,0-2.423-0.448-2.423-2.34v-0.056c0-1.597,0.98-2.424,3.418-2.424h0.882v-0.616c0-0.91-0.406-1.134-1.232-1.134
		c-0.896,0-1.821,0.056-2.283,0.111c-0.028,0-0.056,0-0.07,0c-0.14,0-0.252-0.042-0.252-0.238v-0.896
		c0-0.153,0.084-0.252,0.266-0.294c0.561-0.112,1.373-0.224,2.339-0.224c1.989,0,3.082,0.882,3.082,2.675v5.043
		C617.344,580.012,617.218,580.138,617.064,580.138z M615.495,576.665h-0.882c-1.275,0-1.555,0.406-1.555,1.19v0.056
		c0,0.687,0.308,0.869,1.008,0.869c0.504,0,1.022-0.168,1.429-0.393V576.665z"/>
	<path fill="#5BA4C2" d="M625.353,580.138h-1.289c-0.154,0-0.28-0.14-0.28-0.294v-4.566c0-1.219-0.112-1.569-1.191-1.569
		c-0.476,0-0.995,0.196-1.583,0.505v5.631c0,0.154-0.126,0.294-0.28,0.294h-1.289c-0.154,0-0.28-0.14-0.28-0.294v-7.326
		c0-0.154,0.126-0.28,0.28-0.28h1.219c0.154,0,0.28,0.126,0.28,0.28v0.294c0.812-0.518,1.345-0.672,2.269-0.672
		c2.017,0,2.423,1.358,2.423,3.138v4.566C625.632,579.999,625.506,580.138,625.353,580.138z"/>
	<path fill="#5BA4C2" d="M636.524,580.138h-1.19c-0.154,0-0.28-0.126-0.28-0.28v-0.224c-0.645,0.392-1.303,0.616-1.975,0.616
		c-1.163,0-2.423-0.448-2.423-2.34v-0.056c0-1.597,0.98-2.424,3.418-2.424h0.882v-0.616c0-0.91-0.406-1.134-1.232-1.134
		c-0.896,0-1.821,0.056-2.283,0.111c-0.028,0-0.056,0-0.07,0c-0.14,0-0.252-0.042-0.252-0.238v-0.896
		c0-0.153,0.084-0.252,0.266-0.294c0.561-0.112,1.373-0.224,2.339-0.224c1.989,0,3.082,0.882,3.082,2.675v5.043
		C636.804,580.012,636.678,580.138,636.524,580.138z M634.955,576.665h-0.882c-1.275,0-1.555,0.406-1.555,1.19v0.056
		c0,0.687,0.308,0.869,1.008,0.869c0.504,0,1.022-0.168,1.429-0.393V576.665z"/>
	<path fill="#5BA4C2" d="M645.314,580.251c-0.336,0-0.826-0.028-1.345-0.099v2.479c0,0.154-0.126,0.28-0.28,0.28H642.4
		c-0.153,0-0.279-0.126-0.279-0.28v-9.749c0-0.21,0.056-0.294,0.378-0.378c0.868-0.225,1.919-0.364,2.815-0.364
		c2.256,0,3.348,1.33,3.348,3.516v1.078C648.662,578.92,647.57,580.251,645.314,580.251z M646.813,575.656
		c0-1.148-0.294-2.003-1.499-2.003c-0.504,0-1.078,0.042-1.345,0.098v4.889c0.393,0.057,1.009,0.099,1.345,0.099
		c1.205,0,1.499-0.854,1.499-2.004V575.656z"/>
	<path fill="#5BA4C2" d="M656.376,576.833h-4.566v0.042c0,0.812,0.336,1.779,1.681,1.779c1.022,0,1.989-0.084,2.578-0.141
		c0.014,0,0.027,0,0.041,0c0.141,0,0.252,0.07,0.252,0.21v0.925c0,0.224-0.041,0.322-0.293,0.364
		c-0.911,0.168-1.457,0.238-2.719,0.238c-1.4,0-3.389-0.757-3.389-3.517v-1.036c0-2.186,1.219-3.558,3.361-3.558
		c2.157,0,3.334,1.471,3.334,3.558v0.784C656.656,576.707,656.572,576.833,656.376,576.833z M654.793,575.46
		c0-1.093-0.602-1.723-1.471-1.723s-1.499,0.616-1.499,1.723v0.057h2.97V575.46z"/>
	<path fill="#5BA4C2" d="M660.799,580.251c-0.547,0-1.724-0.07-2.508-0.28c-0.168-0.042-0.267-0.154-0.267-0.322v-0.841
		c0-0.111,0.099-0.224,0.238-0.224c0.028,0,0.042,0,0.056,0c0.673,0.084,1.934,0.154,2.354,0.154c0.869,0,0.994-0.295,0.994-0.673
		c0-0.266-0.168-0.435-0.615-0.714l-1.92-1.177c-0.686-0.421-1.176-1.121-1.176-1.934c0-1.4,0.882-2.101,2.661-2.101
		c1.134,0,1.778,0.126,2.493,0.28c0.168,0.042,0.252,0.153,0.252,0.321v0.812c0,0.169-0.084,0.267-0.225,0.267
		c-0.027,0-0.041,0-0.055,0c-0.393-0.056-1.514-0.168-2.312-0.168c-0.672,0-0.966,0.154-0.966,0.588c0,0.225,0.21,0.364,0.56,0.574
		l1.836,1.121c1.176,0.714,1.344,1.415,1.344,2.129C663.543,579.284,662.633,580.251,660.799,580.251z"/>
	<path fill="#5BA4C2" d="M670.655,580.138h-1.19c-0.154,0-0.28-0.126-0.28-0.28v-0.224c-0.644,0.392-1.303,0.616-1.976,0.616
		c-1.162,0-2.423-0.448-2.423-2.34v-0.056c0-1.597,0.98-2.424,3.418-2.424h0.882v-0.616c0-0.91-0.406-1.134-1.232-1.134
		c-0.896,0-1.82,0.056-2.283,0.111c-0.027,0-0.056,0-0.07,0c-0.14,0-0.252-0.042-0.252-0.238v-0.896
		c0-0.153,0.084-0.252,0.267-0.294c0.56-0.112,1.372-0.224,2.339-0.224c1.989,0,3.082,0.882,3.082,2.675v5.043
		C670.936,580.012,670.81,580.138,670.655,580.138z M669.086,576.665h-0.882c-1.274,0-1.555,0.406-1.555,1.19v0.056
		c0,0.687,0.308,0.869,1.009,0.869c0.504,0,1.021-0.168,1.428-0.393V576.665z"/>
	<path fill="#5BA4C2" d="M676.534,573.709c-0.757,0-1.345,0.196-1.933,0.505v5.631c0,0.154-0.127,0.294-0.28,0.294h-1.289
		c-0.153,0-0.28-0.14-0.28-0.294v-7.326c0-0.154,0.127-0.28,0.28-0.28h1.219c0.154,0,0.28,0.126,0.28,0.28v0.294
		c0.687-0.532,1.443-0.672,2.003-0.672c0.154,0,0.28,0.126,0.28,0.28v1.008C676.814,573.583,676.688,573.709,676.534,573.709z"/>
</g>
<g enable-background="new    ">
	<path fill="#2B4E6B" d="M685.074,580.264c-1.092,0-2.171-0.168-2.899-0.393c-0.14-0.042-0.267-0.126-0.267-0.266v-1.121
		c0-0.153,0.113-0.252,0.253-0.252c0.014,0,0.014,0,0.028,0c0.98,0.084,2.031,0.126,2.787,0.126c0.994,0,1.387-0.42,1.387-1.19
		v-0.252c0-0.631-0.225-1.205-1.135-1.205h-2.465c-0.154,0-0.267-0.126-0.267-0.28v-1.19c0-0.153,0.112-0.266,0.267-0.266h2.408
		c0.911,0,1.191-0.603,1.191-1.219v-0.196c0-0.63-0.295-1.051-1.387-1.051c-0.98,0-1.695,0.07-2.76,0.168c-0.014,0-0.014,0-0.027,0
		c-0.141,0-0.252-0.098-0.252-0.252v-1.12c0-0.141,0.14-0.225,0.279-0.267c0.729-0.224,1.766-0.434,2.857-0.434
		c2.283,0,3.656,0.77,3.656,2.871v0.196c0,0.812-0.504,1.723-1.246,2.143c0.77,0.406,1.246,1.191,1.246,2.102v0.252
		C688.73,579.312,687.246,580.264,685.074,580.264z"/>
	<path fill="#2B4E6B" d="M693.391,578.149v-6.023l-1.822,0.785c-0.069,0.027-0.125,0.042-0.168,0.042
		c-0.098,0-0.154-0.07-0.154-0.183v-1.597c0-0.098,0.043-0.154,0.141-0.196l2.535-1.19c0.099-0.042,0.183-0.056,0.322-0.056h1.261
		c0.154,0,0.267,0.111,0.267,0.266v8.152h1.863c0.154,0,0.279,0.112,0.279,0.267v1.442c0,0.154-0.125,0.28-0.279,0.28h-6.107
		c-0.154,0-0.281-0.126-0.281-0.28v-1.442c0-0.154,0.127-0.267,0.281-0.267H693.391z"/>
	<path fill="#2B4E6B" d="M701.467,575.516c-1.316,0-2.072-0.785-2.072-2.41v-1.05c0-1.625,0.756-2.396,2.072-2.396
		s2.074,0.771,2.074,2.396v1.05C703.541,574.731,702.783,575.516,701.467,575.516z M702.125,572.056
		c0-0.953-0.252-1.191-0.658-1.191s-0.672,0.238-0.672,1.191v1.05c0,0.953,0.266,1.205,0.672,1.205s0.658-0.252,0.658-1.205V572.056
		z M708.583,570.01l-5.827,9.834c-0.111,0.196-0.168,0.294-0.322,0.294h-1.443c-0.098,0-0.153-0.056-0.153-0.154
		c0-0.042,0.015-0.084,0.042-0.14l5.827-9.834c0.126-0.21,0.196-0.279,0.351-0.279h1.442c0.099,0,0.14,0.042,0.14,0.111
		C708.639,569.899,708.625,569.955,708.583,570.01z M708.023,580.222c-1.317,0-2.074-0.784-2.074-2.409v-1.051
		c0-1.625,0.757-2.409,2.074-2.409c1.316,0,2.059,0.784,2.059,2.409v1.051C710.082,579.438,709.34,580.222,708.023,580.222z
		 M708.682,576.762c0-0.952-0.252-1.19-0.658-1.19s-0.673,0.238-0.673,1.19v1.051c0,0.952,0.267,1.19,0.673,1.19
		s0.658-0.238,0.658-1.19V576.762z"/>
	<path fill="#2B4E6B" d="M725.369,580.138h-1.694c-0.154,0-0.28-0.14-0.28-0.294v-4.776c0-0.896-0.21-1.163-0.854-1.163
		c-0.238,0-0.658,0.056-1.079,0.252c0.028,0.28,0.043,0.603,0.043,0.911v4.776c0,0.154-0.127,0.294-0.281,0.294h-1.694
		c-0.153,0-0.294-0.14-0.294-0.294v-4.776c0-0.896-0.168-1.163-0.812-1.163c-0.266,0-0.631,0.14-1.064,0.364v5.575
		c0,0.154-0.127,0.294-0.28,0.294h-1.694c-0.154,0-0.295-0.14-0.295-0.294v-7.452c0-0.154,0.126-0.28,0.28-0.28h1.597
		c0.154,0,0.28,0.126,0.28,0.28v0.308c0.589-0.392,1.261-0.7,2.073-0.7c0.742,0,1.261,0.21,1.652,0.687
		c0.812-0.462,1.373-0.687,2.283-0.687c1.85,0,2.41,1.233,2.41,3.068v4.776C725.664,579.999,725.523,580.138,725.369,580.138z"/>
	<path fill="#2B4E6B" d="M733.838,576.833h-4.469v0.028c0,0.798,0.336,1.526,1.443,1.526c0.882,0,2.129-0.07,2.689-0.126
		c0.014,0,0.027,0,0.041,0c0.154,0,0.267,0.07,0.267,0.224v1.065c0,0.224-0.056,0.321-0.294,0.378
		c-0.896,0.224-1.653,0.336-2.871,0.336c-1.695,0-3.517-0.896-3.517-3.6v-0.98c0-2.256,1.317-3.685,3.544-3.685
		c2.297,0,3.46,1.569,3.46,3.685v0.812C734.132,576.707,734.02,576.833,733.838,576.833z M731.918,575.376
		c0-1.036-0.476-1.555-1.26-1.555c-0.771,0-1.289,0.532-1.289,1.555v0.056h2.549V575.376z"/>
	<path fill="#2B4E6B" d="M742.195,580.138h-1.694c-0.154,0-0.28-0.14-0.28-0.294v-4.665c0-0.98-0.182-1.303-1.037-1.303
		c-0.406,0-0.84,0.196-1.316,0.448v5.52c0,0.154-0.126,0.294-0.279,0.294h-1.695c-0.154,0-0.295-0.14-0.295-0.294v-7.452
		c0-0.154,0.127-0.28,0.281-0.28h1.568c0.154,0,0.28,0.126,0.28,0.28v0.336c0.771-0.546,1.387-0.729,2.283-0.729
		c2.03,0,2.479,1.415,2.479,3.18v4.665C742.49,579.999,742.35,580.138,742.195,580.138z"/>
	<path fill="#2B4E6B" d="M747.458,580.264c-2.27,0-3.517-1.415-3.517-3.642v-0.98c0-2.228,1.247-3.643,3.517-3.643
		c2.269,0,3.502,1.415,3.502,3.643v0.98C750.96,578.849,749.727,580.264,747.458,580.264z M748.705,575.642
		c0-1.135-0.435-1.709-1.247-1.709s-1.261,0.574-1.261,1.709v0.98c0,1.135,0.448,1.723,1.261,1.723s1.247-0.588,1.247-1.723V575.642
		z"/>
	<path fill="#2B4E6B" d="M755.031,580.264c-0.771,0-1.835-0.112-2.549-0.308c-0.169-0.043-0.267-0.154-0.267-0.322V578.5
		c0-0.141,0.098-0.267,0.267-0.267c0.014,0,0.041,0,0.055,0c0.758,0.099,1.934,0.196,2.382,0.196c0.673,0,0.827-0.182,0.827-0.546
		c0-0.21-0.127-0.364-0.52-0.589l-1.82-1.051c-0.784-0.448-1.246-1.162-1.246-2.072c0-1.415,0.938-2.172,2.871-2.172
		c1.106,0,1.779,0.141,2.493,0.322c0.168,0.042,0.267,0.154,0.267,0.322v1.135c0,0.168-0.099,0.266-0.238,0.266
		c-0.014,0-0.028,0-0.043,0c-0.405-0.056-1.61-0.182-2.324-0.182c-0.547,0-0.742,0.084-0.742,0.406c0,0.21,0.154,0.322,0.434,0.49
		l1.736,0.994c1.164,0.673,1.416,1.401,1.416,2.157C758.029,579.228,757.076,580.264,755.031,580.264z"/>
</g>
<g enable-background="new    ">
	<path fill="#2B4E6B" d="M559.547,600.87h-1.695c-0.154,0-0.28-0.126-0.28-0.28v-2.423c-0.406,0.056-0.869,0.098-1.149,0.098
		c-2.367,0-3.516-1.387-3.516-3.586v-1.093c0-2.269,1.247-3.586,3.516-3.586c1.079,0,2.186,0.168,2.984,0.364
		c0.378,0.084,0.434,0.183,0.434,0.406v9.819C559.841,600.744,559.701,600.87,559.547,600.87z M557.572,591.947
		c-0.266-0.042-0.687-0.07-1.149-0.07c-0.994,0-1.247,0.715-1.247,1.709v1.093c0,0.98,0.252,1.723,1.247,1.723
		c0.336,0,0.812-0.042,1.149-0.084V591.947z"/>
	<path fill="#2B4E6B" d="M568.129,598.138h-1.569c-0.154,0-0.28-0.126-0.28-0.28v-0.336c-0.771,0.546-1.387,0.729-2.283,0.729
		c-2.031,0-2.479-1.415-2.479-3.18v-4.665c0-0.154,0.14-0.294,0.294-0.294h1.695c0.154,0,0.28,0.14,0.28,0.294v4.665
		c0,0.98,0.182,1.303,1.036,1.303c0.406,0,0.841-0.196,1.317-0.448v-5.52c0-0.154,0.126-0.294,0.28-0.294h1.695
		c0.154,0,0.294,0.14,0.294,0.294v7.452C568.409,598.012,568.283,598.138,568.129,598.138z"/>
	<path fill="#2B4E6B" d="M576.585,594.833h-4.468v0.028c0,0.798,0.336,1.526,1.443,1.526c0.882,0,2.129-0.07,2.689-0.126
		c0.014,0,0.028,0,0.042,0c0.154,0,0.266,0.07,0.266,0.224v1.065c0,0.224-0.056,0.321-0.294,0.378
		c-0.896,0.224-1.653,0.336-2.871,0.336c-1.695,0-3.516-0.896-3.516-3.6v-0.98c0-2.256,1.317-3.685,3.544-3.685
		c2.297,0,3.46,1.569,3.46,3.685v0.812C576.879,594.707,576.767,594.833,576.585,594.833z M574.666,593.376
		c0-1.036-0.476-1.555-1.261-1.555c-0.771,0-1.289,0.532-1.289,1.555v0.056h2.549V593.376z"/>
	<path fill="#2B4E6B" d="M583.989,598.138h-1.709c-0.154,0-0.294-0.14-0.294-0.294v-10.17c0-0.154,0.14-0.28,0.294-0.28h1.709
		c0.154,0,0.266,0.126,0.266,0.28v10.17C584.255,597.999,584.143,598.138,583.989,598.138z"/>
	<path fill="#2B4E6B" d="M589.225,598.264c-2.27,0-3.516-1.415-3.516-3.642v-0.98c0-2.228,1.247-3.643,3.516-3.643
		c2.269,0,3.502,1.415,3.502,3.643v0.98C592.727,596.849,591.494,598.264,589.225,598.264z M590.472,593.642
		c0-1.135-0.434-1.709-1.247-1.709s-1.261,0.574-1.261,1.709v0.98c0,1.135,0.448,1.723,1.261,1.723s1.247-0.588,1.247-1.723V593.642
		z"/>
	<path fill="#2B4E6B" d="M596.799,598.264c-0.771,0-1.835-0.112-2.549-0.308c-0.168-0.043-0.266-0.154-0.266-0.322V596.5
		c0-0.141,0.098-0.267,0.266-0.267c0.014,0,0.042,0,0.056,0c0.757,0.099,1.933,0.196,2.381,0.196c0.672,0,0.827-0.182,0.827-0.546
		c0-0.21-0.126-0.364-0.519-0.589l-1.821-1.051c-0.784-0.448-1.247-1.162-1.247-2.072c0-1.415,0.938-2.172,2.872-2.172
		c1.106,0,1.779,0.141,2.493,0.322c0.168,0.042,0.266,0.154,0.266,0.322v1.135c0,0.168-0.098,0.266-0.238,0.266
		c-0.014,0-0.028,0-0.042,0c-0.406-0.056-1.611-0.182-2.326-0.182c-0.546,0-0.742,0.084-0.742,0.406c0,0.21,0.154,0.322,0.434,0.49
		l1.737,0.994c1.163,0.673,1.415,1.401,1.415,2.157C599.796,597.228,598.844,598.264,596.799,598.264z"/>
	<path fill="#2B4E6B" d="M611.249,600.87h-1.695c-0.154,0-0.28-0.126-0.28-0.28v-2.423c-0.406,0.056-0.869,0.098-1.149,0.098
		c-2.367,0-3.516-1.387-3.516-3.586v-1.093c0-2.269,1.247-3.586,3.516-3.586c1.079,0,2.186,0.168,2.984,0.364
		c0.378,0.084,0.434,0.183,0.434,0.406v9.819C611.542,600.744,611.402,600.87,611.249,600.87z M609.273,591.947
		c-0.266-0.042-0.687-0.07-1.149-0.07c-0.994,0-1.247,0.715-1.247,1.709v1.093c0,0.98,0.252,1.723,1.247,1.723
		c0.336,0,0.812-0.042,1.149-0.084V591.947z"/>
	<path fill="#2B4E6B" d="M619.831,598.138h-1.569c-0.154,0-0.28-0.126-0.28-0.28v-0.336c-0.771,0.546-1.387,0.729-2.283,0.729
		c-2.031,0-2.479-1.415-2.479-3.18v-4.665c0-0.154,0.14-0.294,0.294-0.294h1.695c0.154,0,0.28,0.14,0.28,0.294v4.665
		c0,0.98,0.182,1.303,1.036,1.303c0.406,0,0.841-0.196,1.317-0.448v-5.52c0-0.154,0.126-0.294,0.28-0.294h1.695
		c0.154,0,0.294,0.14,0.294,0.294v7.452C620.11,598.012,619.984,598.138,619.831,598.138z"/>
	<path fill="#2B4E6B" d="M628.286,594.833h-4.468v0.028c0,0.798,0.336,1.526,1.443,1.526c0.882,0,2.129-0.07,2.689-0.126
		c0.014,0,0.028,0,0.042,0c0.154,0,0.266,0.07,0.266,0.224v1.065c0,0.224-0.056,0.321-0.294,0.378
		c-0.896,0.224-1.653,0.336-2.871,0.336c-1.695,0-3.516-0.896-3.516-3.6v-0.98c0-2.256,1.317-3.685,3.544-3.685
		c2.297,0,3.46,1.569,3.46,3.685v0.812C628.581,594.707,628.468,594.833,628.286,594.833z M626.367,593.376
		c0-1.036-0.476-1.555-1.261-1.555c-0.771,0-1.289,0.532-1.289,1.555v0.056h2.549V593.376z"/>
	<path fill="#2B4E6B" d="M640.284,598.138h-1.695c-0.154,0-0.28-0.14-0.28-0.294v-4.665c0-0.98-0.182-1.303-1.037-1.303
		c-0.406,0-0.84,0.196-1.316,0.448v5.52c0,0.154-0.126,0.294-0.28,0.294h-1.695c-0.154,0-0.294-0.14-0.294-0.294v-7.452
		c0-0.154,0.126-0.28,0.28-0.28h1.569c0.154,0,0.28,0.126,0.28,0.28v0.336c0.771-0.546,1.387-0.729,2.283-0.729
		c2.031,0,2.479,1.415,2.479,3.18v4.665C640.578,597.999,640.438,598.138,640.284,598.138z"/>
	<path fill="#2B4E6B" d="M645.547,598.264c-2.27,0-3.517-1.415-3.517-3.642v-0.98c0-2.228,1.247-3.643,3.517-3.643
		c2.269,0,3.502,1.415,3.502,3.643v0.98C649.049,596.849,647.815,598.264,645.547,598.264z M646.793,593.642
		c0-1.135-0.434-1.709-1.246-1.709s-1.262,0.574-1.262,1.709v0.98c0,1.135,0.449,1.723,1.262,1.723s1.246-0.588,1.246-1.723V593.642
		z"/>
	<path fill="#2B4E6B" d="M656.144,598.138h-1.709c-0.154,0-0.294-0.14-0.294-0.294v-10.17c0-0.154,0.14-0.28,0.294-0.28h1.709
		c0.153,0,0.267,0.126,0.267,0.28v10.17C656.41,597.999,656.297,598.138,656.144,598.138z"/>
	<path fill="#2B4E6B" d="M664,598.138h-1.569c-0.153,0-0.28-0.126-0.28-0.28v-0.224c-0.546,0.392-1.106,0.63-1.947,0.63
		c-1.219,0-2.395-0.588-2.395-2.409v-0.126c0-1.639,1.051-2.367,3.445-2.367h0.757v-0.505c0-0.798-0.393-0.966-1.051-0.966
		c-0.896,0-1.892,0.056-2.325,0.098h-0.07c-0.14,0-0.252-0.07-0.252-0.252v-1.135c0-0.154,0.098-0.266,0.266-0.308
		c0.52-0.127,1.5-0.295,2.424-0.295c2.018,0,3.277,0.812,3.277,2.857v5.001C664.279,598.012,664.154,598.138,664,598.138z
		 M662.053,594.707h-0.799c-0.98,0-1.232,0.336-1.232,1.022v0.126c0,0.588,0.295,0.7,0.883,0.7c0.42,0,0.812-0.14,1.148-0.308
		V594.707z"/>
	<path fill="#2B4E6B" d="M673.953,598.152c-0.421,0.07-0.701,0.112-1.107,0.112c-1.541,0-2.354-0.406-2.354-2.396v-4.062
		l-1.12-0.183c-0.153-0.028-0.294-0.14-0.294-0.294v-0.925c0-0.154,0.141-0.294,0.294-0.294h1.12v-1.148
		c0-0.154,0.127-0.252,0.281-0.28l1.709-0.294c0.014,0,0.027,0,0.041,0c0.141,0,0.252,0.098,0.252,0.238v1.484h1.149
		c0.153,0,0.28,0.126,0.28,0.28v1.135c0,0.154-0.127,0.28-0.28,0.28h-1.149v4.076c0,0.56,0.043,0.658,0.463,0.658h0.687
		c0.183,0,0.294,0.084,0.294,0.238v1.092C674.219,598.012,674.121,598.125,673.953,598.152z"/>
	<path fill="#2B4E6B" d="M678.643,598.264c-2.27,0-3.517-1.415-3.517-3.642v-0.98c0-2.228,1.247-3.643,3.517-3.643
		c2.269,0,3.502,1.415,3.502,3.643v0.98C682.145,596.849,680.911,598.264,678.643,598.264z M679.889,593.642
		c0-1.135-0.434-1.709-1.246-1.709s-1.262,0.574-1.262,1.709v0.98c0,1.135,0.449,1.723,1.262,1.723s1.246-0.588,1.246-1.723V593.642
		z"/>
	<path fill="#2B4E6B" d="M693.878,598.138h-1.694c-0.154,0-0.281-0.14-0.281-0.294v-4.776c0-0.896-0.209-1.163-0.854-1.163
		c-0.238,0-0.658,0.056-1.079,0.252c0.028,0.28,0.042,0.603,0.042,0.911v4.776c0,0.154-0.126,0.294-0.28,0.294h-1.694
		c-0.154,0-0.295-0.14-0.295-0.294v-4.776c0-0.896-0.168-1.163-0.812-1.163c-0.266,0-0.63,0.14-1.064,0.364v5.575
		c0,0.154-0.126,0.294-0.279,0.294h-1.695c-0.154,0-0.295-0.14-0.295-0.294v-7.452c0-0.154,0.127-0.28,0.281-0.28h1.596
		c0.154,0,0.281,0.126,0.281,0.28v0.308c0.588-0.392,1.26-0.7,2.072-0.7c0.742,0,1.262,0.21,1.653,0.687
		c0.812-0.462,1.372-0.687,2.283-0.687c1.849,0,2.409,1.233,2.409,3.068v4.776C694.172,597.999,694.031,598.138,693.878,598.138z"/>
	<path fill="#2B4E6B" d="M701.758,598.138h-1.569c-0.153,0-0.28-0.126-0.28-0.28v-0.224c-0.546,0.392-1.106,0.63-1.947,0.63
		c-1.219,0-2.395-0.588-2.395-2.409v-0.126c0-1.639,1.051-2.367,3.445-2.367h0.757v-0.505c0-0.798-0.393-0.966-1.051-0.966
		c-0.896,0-1.892,0.056-2.325,0.098h-0.07c-0.14,0-0.252-0.07-0.252-0.252v-1.135c0-0.154,0.098-0.266,0.266-0.308
		c0.52-0.127,1.5-0.295,2.424-0.295c2.018,0,3.277,0.812,3.277,2.857v5.001C702.037,598.012,701.912,598.138,701.758,598.138z
		 M699.811,594.707h-0.799c-0.98,0-1.232,0.336-1.232,1.022v0.126c0,0.588,0.295,0.7,0.883,0.7c0.42,0,0.812-0.14,1.148-0.308
		V594.707z"/>
	<path fill="#2B4E6B" d="M707.132,598.264c-1.079,0-2.185-0.168-2.983-0.364c-0.379-0.084-0.435-0.182-0.435-0.406v-9.819
		c0-0.154,0.14-0.28,0.294-0.28h1.695c0.154,0,0.28,0.126,0.28,0.28v2.424c0.406-0.057,0.868-0.099,1.148-0.099
		c2.367,0,3.517,1.387,3.517,3.586v1.093C710.648,596.948,709.4,598.264,707.132,598.264z M708.379,593.586
		c0-0.98-0.252-1.709-1.247-1.709c-0.336,0-0.812,0.028-1.148,0.07v4.37c0.267,0.042,0.687,0.084,1.148,0.084
		c0.995,0,1.247-0.728,1.247-1.723V593.586z"/>
	<path fill="#2B4E6B" d="M717.982,598.138h-1.568c-0.154,0-0.279-0.126-0.279-0.28v-0.224c-0.547,0.392-1.107,0.63-1.947,0.63
		c-1.219,0-2.396-0.588-2.396-2.409v-0.126c0-1.639,1.05-2.367,3.446-2.367h0.756v-0.505c0-0.798-0.393-0.966-1.051-0.966
		c-0.896,0-1.891,0.056-2.325,0.098h-0.069c-0.141,0-0.253-0.07-0.253-0.252v-1.135c0-0.154,0.099-0.266,0.267-0.308
		c0.518-0.127,1.498-0.295,2.423-0.295c2.017,0,3.278,0.812,3.278,2.857v5.001C718.264,598.012,718.137,598.138,717.982,598.138z
		 M716.036,594.707h-0.798c-0.981,0-1.233,0.336-1.233,1.022v0.126c0,0.588,0.294,0.7,0.882,0.7c0.421,0,0.812-0.14,1.149-0.308
		V594.707z"/>
	<path fill="#2B4E6B" d="M726.537,598.138h-1.695c-0.154,0-0.279-0.14-0.279-0.294v-4.665c0-0.98-0.183-1.303-1.037-1.303
		c-0.406,0-0.84,0.196-1.316,0.448v5.52c0,0.154-0.127,0.294-0.28,0.294h-1.694c-0.154,0-0.295-0.14-0.295-0.294v-7.452
		c0-0.154,0.126-0.28,0.28-0.28h1.569c0.154,0,0.279,0.126,0.279,0.28v0.336c0.771-0.546,1.387-0.729,2.283-0.729
		c2.031,0,2.479,1.415,2.479,3.18v4.665C726.831,597.999,726.691,598.138,726.537,598.138z"/>
</g>
</svg>
