<?xml version="1.0" encoding="utf-8"?>
<!-- Generator: Adobe Illustrator 16.0.0, SVG Export Plug-In . SVG Version: 6.00 Build 0)  -->
<!DOCTYPE svg PUBLIC "-//W3C//DTD SVG 1.1//EN" "http://www.w3.org/Graphics/SVG/1.1/DTD/svg11.dtd">
<svg version="1.1" id="textoJarraNivel02" xmlns="http://www.w3.org/2000/svg" xmlns:xlink="http://www.w3.org/1999/xlink" x="0px"
	 y="0px" width="1280px" height="700px" viewBox="0 0 1280 700" enable-background="new 0 0 1280 700" xml:space="preserve">
<g>
	<g>
		<line fill="none" stroke="#E2D4D5" stroke-miterlimit="10" x1="479.595" y1="331.5" x2="610.595" y2="331.5"/>
		<circle fill="none" stroke="#E2D4D5" stroke-miterlimit="10" cx="613.595" cy="331.5" r="3.205"/>
	</g>
	<g>
		<g enable-background="new    ">
			<path fill="#D0E9EF" d="M435.442,332.5h-0.979c-0.21,0-0.36-0.04-0.52-0.31l-2.279-3.938c-0.04-0.06-0.06-0.079-0.09-0.079
				c-0.03,0-0.05,0.02-0.05,0.079v4.048c0,0.11-0.09,0.2-0.2,0.2h-1.18c-0.11,0-0.2-0.09-0.2-0.2v-6.846c0-0.21,0.17-0.38,0.38-0.38
				h1.009c0.2,0,0.3,0.1,0.42,0.31l2.369,4.118c0.04,0.06,0.05,0.08,0.08,0.08c0.02,0,0.05-0.021,0.05-0.091v-4.228
				c0-0.109,0.09-0.189,0.2-0.189h1.18c0.11,0,0.2,0.08,0.2,0.189v6.856C435.832,332.33,435.651,332.5,435.442,332.5z"/>
			<path fill="#D0E9EF" d="M438.754,332.5h-1.339c-0.11,0-0.18-0.09-0.18-0.2v-7.036c0-0.109,0.07-0.189,0.18-0.189h1.339
				c0.11,0,0.19,0.08,0.19,0.189v7.036C438.944,332.41,438.864,332.5,438.754,332.5z"/>
			<path fill="#D0E9EF" d="M446.211,325.284l-1.489,6.196c-0.23,0.96-0.959,1.109-1.649,1.109c-0.69,0-1.429-0.149-1.659-1.109
				l-1.489-6.196c0-0.021-0.01-0.03-0.01-0.05c0-0.09,0.08-0.16,0.18-0.16h1.389c0.1,0,0.18,0.08,0.2,0.18l1.249,5.767
				c0.02,0.11,0.05,0.15,0.14,0.15s0.12-0.04,0.14-0.15l1.25-5.767c0.02-0.1,0.09-0.18,0.19-0.18h1.399c0.1,0,0.17,0.06,0.17,0.16
				C446.221,325.244,446.211,325.263,446.211,325.284z"/>
			<path fill="#D0E9EF" d="M451.212,332.46c-0.35,0.05-0.859,0.13-1.939,0.13c-1.289,0-2.429-0.33-2.429-2.148v-3.318
				c0-1.819,1.149-2.139,2.439-2.139c1.079,0,1.579,0.08,1.929,0.13c0.14,0.02,0.2,0.069,0.2,0.199v0.93c0,0.11-0.09,0.2-0.2,0.2
				h-2.029c-0.47,0-0.64,0.16-0.64,0.68v0.909h2.588c0.11,0,0.2,0.09,0.2,0.2v0.949c0,0.11-0.09,0.2-0.2,0.2h-2.588v1.06
				c0,0.52,0.17,0.68,0.64,0.68h2.029c0.11,0,0.2,0.09,0.2,0.199v0.93C451.412,332.38,451.352,332.44,451.212,332.46z"/>
			<path fill="#D0E9EF" d="M456.742,332.46c-0.33,0.07-1.1,0.13-1.629,0.13c-1.289,0-2.438-0.33-2.438-2.148v-5.167
				c0-0.11,0.09-0.2,0.2-0.2h1.31c0.11,0,0.2,0.09,0.2,0.2v5.167c0,0.52,0.17,0.68,0.64,0.68h1.719c0.11,0,0.2,0.09,0.2,0.199v0.93
				C456.942,332.38,456.882,332.429,456.742,332.46z"/>
			<path fill="#D0E9EF" d="M462.983,332.59c-1.699,0-2.688-0.97-2.688-3.368v-0.859c0-2.398,0.989-3.378,2.688-3.378
				s2.699,0.979,2.699,3.378v0.859C465.682,331.62,464.682,332.59,462.983,332.59z M463.972,328.362c0-1.579-0.43-1.959-0.989-1.959
				s-0.979,0.38-0.979,1.959v0.859c0,1.579,0.42,1.949,0.979,1.949s0.989-0.37,0.989-1.949V328.362z"/>
			<path fill="#D0E9EF" d="M470.762,328.772l-0.85,0.569c-0.849,0.569-1.449,0.999-1.449,1.699v0.04h3.159
				c0.11,0,0.2,0.08,0.2,0.189v1.029c0,0.11-0.09,0.2-0.2,0.2h-4.448c-0.11,0-0.2-0.09-0.2-0.2v-1.02c0-1.099,0.6-1.998,1.359-2.538
				l0.92-0.649c0.869-0.61,1.019-0.69,1.019-1.16c0-0.43-0.25-0.6-1.059-0.6c-0.61,0-1.359,0.07-1.969,0.13c-0.01,0-0.01,0-0.02,0
				c-0.11,0-0.18-0.09-0.18-0.199v-0.78c0-0.1,0.09-0.159,0.19-0.189c0.56-0.17,1.389-0.31,2.129-0.31
				c1.839,0,2.548,0.63,2.548,1.909C471.911,327.703,471.501,328.272,470.762,328.772z"/>
		</g>
		<g>
			<path fill="#E9D4A9" d="M295.564,348.952c-0.42,0.098-1.639,0.196-2.381,0.196c-1.821,0-3.235-0.49-3.235-2.872v-7.368
				c0-0.153,0.126-0.279,0.28-0.279h1.387c0.154,0,0.28,0.126,0.28,0.279v7.368c0,0.925,0.28,1.205,1.093,1.205h2.577
				c0.154,0,0.28,0.126,0.28,0.28v0.896C295.844,348.854,295.774,348.91,295.564,348.952z"/>
			<path fill="#E9D4A9" d="M302.788,348.952c-0.448,0.07-0.995,0.196-2.662,0.196c-1.821,0-3.235-0.49-3.235-2.872v-4.889
				c0-2.381,1.415-2.871,3.235-2.871c1.667,0,2.213,0.126,2.662,0.196c0.21,0.027,0.28,0.098,0.28,0.294v0.896
				c0,0.154-0.126,0.28-0.28,0.28h-2.857c-0.812,0-1.107,0.28-1.107,1.204v1.513h3.796c0.154,0,0.28,0.127,0.28,0.28v1.009
				c0,0.154-0.126,0.28-0.28,0.28h-3.796v1.807c0,0.925,0.294,1.205,1.107,1.205h2.857c0.154,0,0.28,0.126,0.28,0.28v0.896
				C303.068,348.854,302.998,348.924,302.788,348.952z"/>
			<path fill="#E9D4A9" d="M310.852,348.924c-0.21,0.057-1.135,0.225-2.213,0.225c-1.681,0-3.964-0.827-3.964-4.286v-2.06
				c0-3.516,2.283-4.286,3.964-4.286c1.079,0,2.003,0.168,2.213,0.224c0.182,0.057,0.308,0.126,0.308,0.322v0.938
				c0,0.168-0.07,0.295-0.28,0.295c0,0-0.014,0-0.028,0c-0.49-0.043-1.443-0.112-2.185-0.112c-1.177,0-2.031,0.63-2.031,2.619v2.06
				c0,1.946,0.854,2.619,2.031,2.619c0.742,0,1.695-0.07,2.185-0.112c0.014,0,0.028,0,0.028,0c0.21,0,0.28,0.126,0.28,0.294v0.938
				C311.16,348.798,311.034,348.868,310.852,348.924z"/>
			<path fill="#E9D4A9" d="M320.429,349.036h-1.387c-0.154,0-0.28-0.126-0.28-0.28v-4.286h-3.978v4.286
				c0,0.154-0.126,0.28-0.28,0.28h-1.387c-0.154,0-0.28-0.126-0.28-0.28v-9.861c0-0.154,0.126-0.266,0.28-0.266h1.387
				c0.154,0,0.28,0.111,0.28,0.266v3.866h3.978v-3.866c0-0.154,0.126-0.266,0.28-0.266h1.387c0.154,0,0.28,0.111,0.28,0.266v9.861
				C320.709,348.91,320.583,349.036,320.429,349.036z"/>
			<path fill="#E9D4A9" d="M328.702,348.952c-0.448,0.07-0.995,0.196-2.662,0.196c-1.821,0-3.235-0.49-3.235-2.872v-4.889
				c0-2.381,1.415-2.871,3.235-2.871c1.667,0,2.213,0.126,2.662,0.196c0.21,0.027,0.28,0.098,0.28,0.294v0.896
				c0,0.154-0.126,0.28-0.28,0.28h-2.857c-0.812,0-1.107,0.28-1.107,1.204v1.513h3.796c0.154,0,0.28,0.127,0.28,0.28v1.009
				c0,0.154-0.126,0.28-0.28,0.28h-3.796v1.807c0,0.925,0.294,1.205,1.107,1.205h2.857c0.154,0,0.28,0.126,0.28,0.28v0.896
				C328.982,348.854,328.912,348.924,328.702,348.952z"/>
			<path fill="#E9D4A9" d="M336.988,349.148c-1.05,0-1.807-0.099-2.479-0.252c-0.14-0.028-0.266-0.127-0.266-0.28v-1.009
				c0-0.154,0.126-0.267,0.266-0.267c0.014,0,0.014,0,0.028,0c0.56,0.07,1.961,0.141,2.479,0.141c1.247,0,1.625-0.448,1.625-1.261
				c0-0.546-0.266-0.826-1.19-1.373l-1.849-1.106c-1.303-0.771-1.653-1.583-1.653-2.563c0-1.541,0.896-2.661,3.502-2.661
				c0.924,0,2.213,0.14,2.689,0.252c0.14,0.028,0.252,0.126,0.252,0.267v1.036c0,0.14-0.098,0.252-0.238,0.252
				c-0.014,0-0.014,0-0.028,0c-0.924-0.084-1.849-0.14-2.759-0.14c-1.037,0-1.471,0.364-1.471,0.994
				c0,0.462,0.238,0.742,1.148,1.247l1.681,0.938c1.541,0.854,1.947,1.751,1.947,2.857
				C340.672,347.635,339.79,349.148,336.988,349.148z"/>
			<path fill="#E9D4A9" d="M348.246,348.952c-0.448,0.07-0.995,0.196-2.662,0.196c-1.821,0-3.235-0.49-3.235-2.872v-4.889
				c0-2.381,1.415-2.871,3.235-2.871c1.667,0,2.213,0.126,2.662,0.196c0.21,0.027,0.28,0.098,0.28,0.294v0.896
				c0,0.154-0.126,0.28-0.28,0.28h-2.857c-0.812,0-1.107,0.28-1.107,1.204v1.513h3.796c0.154,0,0.28,0.127,0.28,0.28v1.009
				c0,0.154-0.126,0.28-0.28,0.28h-3.796v1.807c0,0.925,0.294,1.205,1.107,1.205h2.857c0.154,0,0.28,0.126,0.28,0.28v0.896
				C348.526,348.854,348.456,348.924,348.246,348.952z"/>
			<path fill="#E9D4A9" d="M359.167,349.036h-1.415c-0.126,0-0.224-0.14-0.224-0.28v-6.514c0-0.098-0.014-0.14-0.042-0.14
				c-0.014,0-0.042,0.042-0.07,0.084l-1.345,2.676c-0.084,0.153-0.266,0.237-0.448,0.237h-1.415c-0.182,0-0.364-0.084-0.448-0.237
				l-1.359-2.676c-0.028-0.042-0.056-0.084-0.07-0.084c-0.028,0-0.042,0.042-0.042,0.14v6.514c0,0.141-0.098,0.28-0.224,0.28h-1.415
				c-0.126,0-0.238-0.07-0.238-0.21v-9.638c0-0.308,0.252-0.56,0.56-0.56h1.148c0.224,0,0.42,0.14,0.519,0.336l2.115,4.286
				c0.07,0.126,0.098,0.196,0.154,0.196s0.084-0.07,0.154-0.196l2.115-4.286c0.098-0.196,0.294-0.336,0.518-0.336h1.148
				c0.309,0,0.561,0.252,0.561,0.56v9.638C359.405,348.966,359.293,349.036,359.167,349.036z"/>
			<path fill="#E9D4A9" d="M363.167,349.036h-1.387c-0.154,0-0.28-0.126-0.28-0.28v-9.861c0-0.154,0.126-0.266,0.28-0.266h1.387
				c0.154,0,0.28,0.111,0.28,0.266v9.861C363.447,348.91,363.321,349.036,363.167,349.036z"/>
			<path fill="#E9D4A9" d="M376.231,338.95l-2.129,4.861c-0.266,0.616-0.546,0.896-0.854,1.022v3.922c0,0.154-0.112,0.28-0.266,0.28
				h-1.401c-0.154,0-0.266-0.126-0.266-0.28v-3.922c-0.308-0.126-0.588-0.406-0.854-1.022l-2.115-4.861
				c-0.014-0.042-0.028-0.084-0.028-0.111c0-0.112,0.084-0.21,0.224-0.21h1.555c0.126,0,0.224,0.111,0.266,0.224l1.681,4.175
				c0.098,0.237,0.182,0.279,0.238,0.279c0.07,0,0.154-0.042,0.252-0.279l1.681-4.175c0.042-0.112,0.14-0.224,0.266-0.224h1.541
				c0.14,0,0.238,0.098,0.238,0.21C376.26,338.881,376.246,338.908,376.231,338.95z"/>
			<path fill="#E9D4A9" d="M384.279,349.148c-0.995,0-2.339-0.099-2.76-0.168c-0.238-0.042-0.364-0.154-0.364-0.435v-9.427
				c0-0.28,0.126-0.393,0.364-0.435c0.42-0.07,1.765-0.168,2.76-0.168c2.801,0,4.398,1.513,4.398,4.286v2.06
				C388.678,347.635,387.081,349.148,384.279,349.148z M386.745,342.802c0-2.102-1.064-2.647-2.465-2.647
				c-0.519,0-0.882,0.028-1.177,0.042v7.271c0.294,0.014,0.658,0.042,1.177,0.042c1.401,0,2.465-0.547,2.465-2.647V342.802z"/>
			<path fill="#E9D4A9" d="M396.391,348.952c-0.448,0.07-0.995,0.196-2.662,0.196c-1.821,0-3.235-0.49-3.235-2.872v-4.889
				c0-2.381,1.415-2.871,3.235-2.871c1.667,0,2.213,0.126,2.662,0.196c0.21,0.027,0.28,0.098,0.28,0.294v0.896
				c0,0.154-0.126,0.28-0.28,0.28h-2.857c-0.812,0-1.107,0.28-1.107,1.204v1.513h3.796c0.154,0,0.28,0.127,0.28,0.28v1.009
				c0,0.154-0.126,0.28-0.28,0.28h-3.796v1.807c0,0.925,0.294,1.205,1.107,1.205h2.857c0.154,0,0.28,0.126,0.28,0.28v0.896
				C396.671,348.854,396.601,348.924,396.391,348.952z"/>
			<path fill="#E9D4A9" d="M401.177,349.148c-1.05,0-1.807-0.099-2.479-0.252c-0.14-0.028-0.266-0.127-0.266-0.28v-1.009
				c0-0.154,0.126-0.267,0.266-0.267c0.014,0,0.014,0,0.028,0c0.56,0.07,1.961,0.141,2.479,0.141c1.247,0,1.625-0.448,1.625-1.261
				c0-0.546-0.266-0.826-1.19-1.373l-1.849-1.106c-1.303-0.771-1.653-1.583-1.653-2.563c0-1.541,0.896-2.661,3.502-2.661
				c0.924,0,2.213,0.14,2.689,0.252c0.14,0.028,0.252,0.126,0.252,0.267v1.036c0,0.14-0.098,0.252-0.238,0.252
				c-0.014,0-0.014,0-0.028,0c-0.924-0.084-1.849-0.14-2.759-0.14c-1.037,0-1.471,0.364-1.471,0.994
				c0,0.462,0.238,0.742,1.149,1.247l1.681,0.938c1.541,0.854,1.947,1.751,1.947,2.857
				C404.861,347.635,403.979,349.148,401.177,349.148z"/>
			<path fill="#E9D4A9" d="M412.435,348.924c-0.21,0.057-1.135,0.225-2.213,0.225c-1.681,0-3.964-0.827-3.964-4.286v-2.06
				c0-3.516,2.283-4.286,3.964-4.286c1.079,0,2.003,0.168,2.213,0.224c0.182,0.057,0.308,0.126,0.308,0.322v0.938
				c0,0.168-0.07,0.295-0.28,0.295c0,0-0.014,0-0.028,0c-0.49-0.043-1.443-0.112-2.185-0.112c-1.177,0-2.031,0.63-2.031,2.619v2.06
				c0,1.946,0.854,2.619,2.031,2.619c0.742,0,1.695-0.07,2.185-0.112c0.014,0,0.028,0,0.028,0c0.21,0,0.28,0.126,0.28,0.294v0.938
				C412.743,348.798,412.617,348.868,412.435,348.924z"/>
			<path fill="#E9D4A9" d="M421.815,349.036h-1.709c-0.154,0-0.21-0.14-0.28-0.28l-2.017-3.74h-0.196
				c-0.364,0-0.924-0.042-1.247-0.056v3.796c0,0.154-0.112,0.28-0.266,0.28h-1.401c-0.154,0-0.28-0.126-0.28-0.28v-9.637
				c0-0.28,0.168-0.379,0.448-0.421c0.728-0.111,1.723-0.182,2.745-0.182c2.157,0,4.034,0.771,4.034,3.166v0.126
				c0,1.484-0.742,2.409-1.891,2.857l2.199,4.09c0.028,0.042,0.028,0.084,0.028,0.112
				C421.983,348.966,421.927,349.036,421.815,349.036z M419.714,341.682c0-1.051-0.7-1.499-2.101-1.499
				c-0.294,0-0.995,0.027-1.247,0.056v3.151c0.224,0.015,1.009,0.042,1.247,0.042c1.443,0,2.101-0.392,2.101-1.624V341.682z"/>
			<path fill="#E9D4A9" d="M429.108,348.952c-0.448,0.07-0.995,0.196-2.662,0.196c-1.821,0-3.235-0.49-3.235-2.872v-4.889
				c0-2.381,1.415-2.871,3.235-2.871c1.667,0,2.213,0.126,2.662,0.196c0.21,0.027,0.28,0.098,0.28,0.294v0.896
				c0,0.154-0.126,0.28-0.28,0.28h-2.857c-0.812,0-1.107,0.28-1.107,1.204v1.513h3.796c0.154,0,0.28,0.127,0.28,0.28v1.009
				c0,0.154-0.126,0.28-0.28,0.28h-3.796v1.807c0,0.925,0.294,1.205,1.107,1.205h2.857c0.154,0,0.28,0.126,0.28,0.28v0.896
				C429.389,348.854,429.318,348.924,429.108,348.952z"/>
			<path fill="#E9D4A9" d="M440.03,349.036h-1.415c-0.126,0-0.224-0.14-0.224-0.28v-6.514c0-0.098-0.014-0.14-0.042-0.14
				c-0.014,0-0.042,0.042-0.07,0.084l-1.345,2.676c-0.084,0.153-0.266,0.237-0.448,0.237h-1.415c-0.182,0-0.364-0.084-0.448-0.237
				l-1.359-2.676c-0.028-0.042-0.056-0.084-0.07-0.084c-0.028,0-0.042,0.042-0.042,0.14v6.514c0,0.141-0.098,0.28-0.224,0.28h-1.415
				c-0.126,0-0.238-0.07-0.238-0.21v-9.638c0-0.308,0.252-0.56,0.56-0.56h1.148c0.224,0,0.42,0.14,0.519,0.336l2.115,4.286
				c0.07,0.126,0.098,0.196,0.154,0.196c0.056,0,0.084-0.07,0.154-0.196l2.115-4.286c0.098-0.196,0.294-0.336,0.518-0.336h1.148
				c0.309,0,0.561,0.252,0.561,0.56v9.638C440.268,348.966,440.156,349.036,440.03,349.036z"/>
			<path fill="#E9D4A9" d="M449.843,349.036h-1.485c-0.126,0-0.238-0.112-0.266-0.238l-0.645-2.661h-3.222l-0.645,2.661
				c-0.028,0.126-0.14,0.238-0.266,0.238h-1.485c-0.14,0-0.252-0.098-0.252-0.238c0-0.014,0.014-0.042,0.014-0.07l2.297-8.782
				c0.336-1.303,1.345-1.429,1.947-1.429s1.611,0.126,1.947,1.429l2.297,8.782c0,0.028,0.014,0.057,0.014,0.07
				C450.095,348.938,449.983,349.036,449.843,349.036z M446.061,340.38c-0.042-0.169-0.084-0.225-0.224-0.225
				s-0.182,0.056-0.224,0.225l-1.008,4.16h2.465L446.061,340.38z"/>
			<path fill="#E9D4A9" d="M454.531,349.148c-0.995,0-2.339-0.099-2.76-0.168c-0.238-0.042-0.364-0.154-0.364-0.435v-9.427
				c0-0.28,0.126-0.393,0.364-0.435c0.42-0.07,1.765-0.168,2.76-0.168c2.801,0,4.398,1.513,4.398,4.286v2.06
				C458.929,347.635,457.332,349.148,454.531,349.148z M456.996,342.802c0-2.102-1.064-2.647-2.465-2.647
				c-0.519,0-0.882,0.028-1.177,0.042v7.271c0.294,0.014,0.658,0.042,1.177,0.042c1.401,0,2.465-0.547,2.465-2.647V342.802z"/>
			<path fill="#E9D4A9" d="M468.001,349.036h-1.485c-0.126,0-0.238-0.112-0.266-0.238l-0.645-2.661h-3.222l-0.645,2.661
				c-0.028,0.126-0.14,0.238-0.266,0.238h-1.485c-0.14,0-0.252-0.098-0.252-0.238c0-0.014,0.014-0.042,0.014-0.07l2.297-8.782
				c0.336-1.303,1.345-1.429,1.947-1.429c0.603,0,1.611,0.126,1.947,1.429l2.297,8.782c0,0.028,0.014,0.057,0.014,0.07
				C468.253,348.938,468.141,349.036,468.001,349.036z M464.219,340.38c-0.042-0.169-0.084-0.225-0.224-0.225
				s-0.182,0.056-0.224,0.225l-1.008,4.16h2.465L464.219,340.38z"/>
			<path fill="#E9D4A9" d="M471.33,347.173l-1.219,2.941c-0.07,0.169-0.112,0.28-0.266,0.28h-0.966c-0.126,0-0.21-0.084-0.21-0.195
				c0-0.028,0-0.057,0.014-0.085l0.854-2.941c0.056-0.168,0.126-0.266,0.28-0.266h1.345c0.112,0,0.196,0.069,0.196,0.168
				C471.358,347.103,471.344,347.131,471.33,347.173z"/>
			<g enable-background="new    ">
				<path fill="#E9D4A9" d="M335.421,365.148c-1.135,0-1.989-0.07-2.423-0.154c-0.462-0.084-0.672-0.238-0.672-0.757v-8.824
					c0-0.505,0.182-0.687,0.63-0.757c0.364-0.056,1.247-0.14,2.339-0.14c2.536,0,4.314,0.729,4.314,2.844v0.279
					c0,0.925-0.434,1.751-1.289,2.115c0.854,0.364,1.358,1.079,1.358,2.13v0.237C339.679,364.349,338.026,365.148,335.421,365.148z
					 M337.718,357.471c0-0.98-0.63-1.345-2.423-1.345c-0.336,0-0.728,0.015-1.022,0.028v2.844h1.779
					c1.303,0,1.667-0.616,1.667-1.331V357.471z M337.774,361.912c0-0.771-0.406-1.484-1.723-1.484h-1.779v3.082
					c0.336,0,0.854,0.027,1.149,0.027c1.793,0,2.353-0.462,2.353-1.442V361.912z"/>
				<path fill="#E9D4A9" d="M347.322,364.952c-0.448,0.07-0.995,0.196-2.662,0.196c-1.821,0-3.235-0.49-3.235-2.872v-4.889
					c0-2.381,1.415-2.871,3.235-2.871c1.667,0,2.213,0.126,2.662,0.196c0.21,0.027,0.28,0.098,0.28,0.294v0.896
					c0,0.154-0.126,0.28-0.28,0.28h-2.857c-0.812,0-1.107,0.28-1.107,1.204v1.513h3.796c0.154,0,0.28,0.127,0.28,0.28v1.009
					c0,0.154-0.126,0.28-0.28,0.28h-3.796v1.807c0,0.925,0.294,1.205,1.107,1.205h2.857c0.154,0,0.28,0.126,0.28,0.28v0.896
					C347.603,364.854,347.532,364.924,347.322,364.952z"/>
				<path fill="#E9D4A9" d="M352.584,365.148c-1.134,0-1.989-0.07-2.423-0.154c-0.462-0.084-0.672-0.238-0.672-0.757v-8.824
					c0-0.505,0.182-0.687,0.63-0.757c0.364-0.056,1.247-0.14,2.339-0.14c2.536,0,4.314,0.729,4.314,2.844v0.279
					c0,0.925-0.434,1.751-1.289,2.115c0.854,0.364,1.359,1.079,1.359,2.13v0.237C356.843,364.349,355.189,365.148,352.584,365.148z
					 M354.881,357.471c0-0.98-0.63-1.345-2.423-1.345c-0.336,0-0.728,0.015-1.022,0.028v2.844h1.779
					c1.303,0,1.667-0.616,1.667-1.331V357.471z M354.938,361.912c0-0.771-0.406-1.484-1.723-1.484h-1.779v3.082
					c0.336,0,0.854,0.027,1.148,0.027c1.793,0,2.354-0.462,2.354-1.442V361.912z"/>
				<path fill="#E9D4A9" d="M360.255,365.036h-1.387c-0.154,0-0.28-0.126-0.28-0.28v-9.861c0-0.154,0.126-0.266,0.28-0.266h1.387
					c0.154,0,0.28,0.111,0.28,0.266v9.861C360.536,364.91,360.41,365.036,360.255,365.036z"/>
				<path fill="#E9D4A9" d="M365.758,365.148c-0.995,0-2.339-0.099-2.76-0.168c-0.238-0.042-0.364-0.154-0.364-0.435v-9.427
					c0-0.28,0.126-0.393,0.364-0.435c0.42-0.07,1.765-0.168,2.76-0.168c2.801,0,4.398,1.513,4.398,4.286v2.06
					C370.157,363.635,368.56,365.148,365.758,365.148z M368.224,358.802c0-2.102-1.064-2.647-2.465-2.647
					c-0.519,0-0.882,0.028-1.177,0.042v7.271c0.294,0.014,0.658,0.042,1.177,0.042c1.401,0,2.465-0.547,2.465-2.647V358.802z"/>
				<path fill="#E9D4A9" d="M379.229,365.036h-1.485c-0.126,0-0.238-0.112-0.266-0.238l-0.645-2.661h-3.222l-0.645,2.661
					c-0.028,0.126-0.14,0.238-0.266,0.238h-1.485c-0.14,0-0.252-0.098-0.252-0.238c0-0.014,0.014-0.042,0.014-0.07l2.297-8.782
					c0.336-1.303,1.345-1.429,1.947-1.429c0.603,0,1.611,0.126,1.947,1.429l2.297,8.782c0,0.028,0.014,0.057,0.014,0.07
					C379.48,364.938,379.369,365.036,379.229,365.036z M375.446,356.38c-0.042-0.169-0.084-0.225-0.224-0.225
					s-0.182,0.056-0.224,0.225l-1.008,4.16h2.465L375.446,356.38z"/>
				<path fill="#E9D4A9" d="M383.412,365.148c-1.05,0-1.807-0.099-2.479-0.252c-0.14-0.028-0.266-0.127-0.266-0.28v-1.009
					c0-0.154,0.126-0.267,0.266-0.267c0.014,0,0.014,0,0.028,0c0.56,0.07,1.961,0.141,2.479,0.141c1.247,0,1.625-0.448,1.625-1.261
					c0-0.546-0.266-0.826-1.19-1.373l-1.849-1.106c-1.303-0.771-1.653-1.583-1.653-2.563c0-1.541,0.896-2.661,3.502-2.661
					c0.924,0,2.213,0.14,2.689,0.252c0.14,0.028,0.252,0.126,0.252,0.267v1.036c0,0.14-0.098,0.252-0.238,0.252
					c-0.014,0-0.014,0-0.028,0c-0.924-0.084-1.849-0.14-2.759-0.14c-1.037,0-1.471,0.364-1.471,0.994
					c0,0.462,0.238,0.742,1.148,1.247l1.681,0.938c1.541,0.854,1.947,1.751,1.947,2.857
					C387.096,363.635,386.213,365.148,383.412,365.148z"/>
				<path fill="#E9D4A9" d="M395.396,365.148c-0.995,0-2.339-0.099-2.76-0.168c-0.238-0.042-0.364-0.154-0.364-0.435v-9.427
					c0-0.28,0.126-0.393,0.364-0.435c0.42-0.07,1.765-0.168,2.76-0.168c2.801,0,4.398,1.513,4.398,4.286v2.06
					C399.794,363.635,398.197,365.148,395.396,365.148z M397.861,358.802c0-2.102-1.064-2.647-2.465-2.647
					c-0.519,0-0.882,0.028-1.177,0.042v7.271c0.294,0.014,0.658,0.042,1.177,0.042c1.401,0,2.465-0.547,2.465-2.647V358.802z"/>
				<path fill="#E9D4A9" d="M407.507,364.952c-0.448,0.07-0.995,0.196-2.662,0.196c-1.821,0-3.235-0.49-3.235-2.872v-4.889
					c0-2.381,1.415-2.871,3.235-2.871c1.667,0,2.213,0.126,2.662,0.196c0.21,0.027,0.28,0.098,0.28,0.294v0.896
					c0,0.154-0.126,0.28-0.28,0.28h-2.857c-0.812,0-1.107,0.28-1.107,1.204v1.513h3.796c0.154,0,0.28,0.127,0.28,0.28v1.009
					c0,0.154-0.126,0.28-0.28,0.28h-3.796v1.807c0,0.925,0.294,1.205,1.107,1.205h2.857c0.154,0,0.28,0.126,0.28,0.28v0.896
					C407.788,364.854,407.717,364.924,407.507,364.952z"/>
				<path fill="#E9D4A9" d="M415.793,365.148c-1.05,0-1.807-0.099-2.479-0.252c-0.14-0.028-0.266-0.127-0.266-0.28v-1.009
					c0-0.154,0.126-0.267,0.266-0.267c0.014,0,0.014,0,0.028,0c0.56,0.07,1.961,0.141,2.479,0.141c1.247,0,1.625-0.448,1.625-1.261
					c0-0.546-0.266-0.826-1.19-1.373l-1.849-1.106c-1.303-0.771-1.653-1.583-1.653-2.563c0-1.541,0.896-2.661,3.502-2.661
					c0.924,0,2.213,0.14,2.689,0.252c0.14,0.028,0.252,0.126,0.252,0.267v1.036c0,0.14-0.098,0.252-0.238,0.252
					c-0.014,0-0.014,0-0.028,0c-0.924-0.084-1.849-0.14-2.759-0.14c-1.037,0-1.471,0.364-1.471,0.994
					c0,0.462,0.238,0.742,1.148,1.247l1.681,0.938c1.541,0.854,1.947,1.751,1.947,2.857
					C419.478,363.635,418.595,365.148,415.793,365.148z"/>
				<path fill="#E9D4A9" d="M424.866,365.148c-2.312,0-3.992-1.289-3.992-4.37v-1.892c0-3.082,1.681-4.37,3.992-4.37
					c2.311,0,3.992,1.288,3.992,4.37v1.892C428.858,363.859,427.177,365.148,424.866,365.148z M426.897,358.886
					c0-1.849-0.658-2.676-2.031-2.676c-1.373,0-2.031,0.827-2.031,2.676v1.892c0,1.849,0.658,2.675,2.031,2.675
					c1.373,0,2.031-0.826,2.031-2.675V358.886z"/>
				<path fill="#E9D4A9" d="M437.258,354.95l-2.129,4.861c-0.266,0.616-0.546,0.896-0.854,1.022v3.922
					c0,0.154-0.112,0.28-0.266,0.28h-1.401c-0.154,0-0.266-0.126-0.266-0.28v-3.922c-0.308-0.126-0.588-0.406-0.854-1.022
					l-2.115-4.861c-0.014-0.042-0.028-0.084-0.028-0.111c0-0.112,0.084-0.21,0.224-0.21h1.555c0.126,0,0.224,0.111,0.266,0.224
					l1.681,4.175c0.098,0.237,0.182,0.279,0.238,0.279c0.07,0,0.154-0.042,0.252-0.279l1.681-4.175
					c0.042-0.112,0.14-0.224,0.266-0.224h1.541c0.14,0,0.238,0.098,0.238,0.21C437.286,354.881,437.272,354.908,437.258,354.95z"/>
				<path fill="#E9D4A9" d="M445.112,365.036h-1.485c-0.126,0-0.238-0.112-0.266-0.238l-0.645-2.661h-3.222l-0.645,2.661
					c-0.028,0.126-0.14,0.238-0.266,0.238h-1.485c-0.14,0-0.252-0.098-0.252-0.238c0-0.014,0.014-0.042,0.014-0.07l2.297-8.782
					c0.336-1.303,1.345-1.429,1.947-1.429s1.611,0.126,1.947,1.429l2.297,8.782c0,0.028,0.014,0.057,0.014,0.07
					C445.364,364.938,445.252,365.036,445.112,365.036z M441.33,356.38c-0.042-0.169-0.084-0.225-0.224-0.225
					s-0.182,0.056-0.224,0.225l-1.008,4.16h2.465L441.33,356.38z"/>
				<path fill="#E9D4A9" d="M452.795,365.148c-1.05,0-1.807-0.099-2.479-0.252c-0.14-0.028-0.266-0.127-0.266-0.28v-1.009
					c0-0.154,0.126-0.267,0.266-0.267c0.014,0,0.014,0,0.028,0c0.56,0.07,1.961,0.141,2.479,0.141c1.247,0,1.625-0.448,1.625-1.261
					c0-0.546-0.266-0.826-1.19-1.373l-1.849-1.106c-1.303-0.771-1.653-1.583-1.653-2.563c0-1.541,0.896-2.661,3.502-2.661
					c0.924,0,2.213,0.14,2.689,0.252c0.14,0.028,0.252,0.126,0.252,0.267v1.036c0,0.14-0.098,0.252-0.238,0.252
					c-0.014,0-0.014,0-0.028,0c-0.924-0.084-1.849-0.14-2.759-0.14c-1.037,0-1.471,0.364-1.471,0.994
					c0,0.462,0.238,0.742,1.149,1.247l1.681,0.938c1.541,0.854,1.947,1.751,1.947,2.857
					C456.479,363.635,455.597,365.148,452.795,365.148z"/>
				<path fill="#E9D4A9" d="M459.822,365.036h-1.387c-0.154,0-0.28-0.126-0.28-0.28v-9.861c0-0.154,0.126-0.266,0.28-0.266h1.387
					c0.154,0,0.28,0.111,0.28,0.266v9.861C460.103,364.91,459.977,365.036,459.822,365.036z"/>
				<path fill="#E9D4A9" d="M469.513,365.036h-1.415c-0.336,0-0.63,0-0.854-0.504l-3.11-6.822c-0.042-0.084-0.084-0.112-0.126-0.112
					s-0.07,0.028-0.07,0.112v7.046c0,0.154-0.112,0.28-0.266,0.28h-1.191c-0.154,0-0.28-0.126-0.28-0.28v-9.567
					c0-0.308,0.252-0.56,0.56-0.56h1.513c0.294,0,0.448,0.084,0.617,0.448l3.264,7.199c0.028,0.07,0.07,0.112,0.112,0.112
					c0.028,0,0.07-0.042,0.07-0.126v-7.368c0-0.154,0.112-0.266,0.266-0.266h1.205c0.154,0,0.266,0.111,0.266,0.266v9.581
					C470.074,364.784,469.822,365.036,469.513,365.036z"/>
			</g>
			<g enable-background="new    ">
				<path fill="#E9D4A9" d="M343.752,381.036h-1.485c-0.126,0-0.238-0.112-0.266-0.238l-0.645-2.661h-3.222l-0.645,2.661
					c-0.028,0.126-0.14,0.238-0.266,0.238h-1.485c-0.14,0-0.252-0.098-0.252-0.238c0-0.014,0.014-0.042,0.014-0.07l2.297-8.782
					c0.336-1.303,1.345-1.429,1.947-1.429s1.611,0.126,1.947,1.429l2.297,8.782c0,0.028,0.014,0.057,0.014,0.07
					C344.004,380.938,343.893,381.036,343.752,381.036z M339.97,372.38c-0.042-0.169-0.084-0.225-0.224-0.225
					s-0.182,0.056-0.224,0.225l-1.008,4.16h2.465L339.97,372.38z"/>
				<path fill="#E9D4A9" d="M351.662,381.036h-6.121c-0.406,0-0.714-0.14-0.714-0.519v-0.771c0-0.168,0.042-0.322,0.182-0.532
					l4.44-6.653c0.028-0.042,0.042-0.084,0.042-0.126c0-0.07-0.042-0.112-0.14-0.112h-3.895c-0.154,0-0.266-0.098-0.266-0.252
					v-1.177c0-0.154,0.112-0.266,0.266-0.266h5.646c0.406,0,0.742,0.168,0.742,0.532v0.812c0,0.195-0.084,0.406-0.196,0.574
					l-4.37,6.541c-0.042,0.057-0.056,0.112-0.056,0.154c0,0.056,0.028,0.084,0.126,0.084h4.314c0.154,0,0.28,0.098,0.28,0.252v1.177
					C351.942,380.91,351.816,381.036,351.662,381.036z"/>
				<path fill="#E9D4A9" d="M357.33,381.148c-2.255,0-3.852-0.98-3.852-3.965v-6.289c0-0.154,0.126-0.266,0.28-0.266h1.387
					c0.154,0,0.28,0.111,0.28,0.266v6.289c0,1.598,0.392,2.354,1.905,2.354s1.905-0.756,1.905-2.354v-6.289
					c0-0.154,0.126-0.266,0.28-0.266h1.387c0.154,0,0.28,0.111,0.28,0.266v6.289C361.182,380.168,359.585,381.148,357.33,381.148z
					 M359.613,367.995l-1.653,1.737c-0.112,0.126-0.168,0.182-0.336,0.182h-1.205c-0.084,0-0.126-0.042-0.126-0.098
					c0-0.042,0.014-0.099,0.056-0.141l1.331-1.681c0.126-0.154,0.182-0.21,0.364-0.21h1.471c0.098,0,0.154,0.042,0.154,0.098
					C359.669,367.911,359.655,367.953,359.613,367.995z"/>
				<path fill="#E9D4A9" d="M369.105,380.924c-0.21,0.057-1.135,0.225-2.213,0.225c-1.681,0-3.964-0.827-3.964-4.286v-2.06
					c0-3.516,2.283-4.286,3.964-4.286c1.079,0,2.003,0.168,2.213,0.224c0.182,0.057,0.308,0.126,0.308,0.322v0.938
					c0,0.168-0.07,0.295-0.28,0.295c0,0-0.014,0-0.028,0c-0.49-0.043-1.443-0.112-2.185-0.112c-1.177,0-2.031,0.63-2.031,2.619v2.06
					c0,1.946,0.854,2.619,2.031,2.619c0.742,0,1.695-0.07,2.185-0.112c0.014,0,0.028,0,0.028,0c0.21,0,0.28,0.126,0.28,0.294v0.938
					C369.413,380.798,369.287,380.868,369.105,380.924z"/>
				<path fill="#E9D4A9" d="M378.57,381.036h-1.485c-0.126,0-0.238-0.112-0.266-0.238l-0.645-2.661h-3.222l-0.645,2.661
					c-0.028,0.126-0.14,0.238-0.266,0.238h-1.485c-0.14,0-0.252-0.098-0.252-0.238c0-0.014,0.014-0.042,0.014-0.07l2.297-8.782
					c0.336-1.303,1.345-1.429,1.947-1.429s1.611,0.126,1.947,1.429l2.297,8.782c0,0.028,0.014,0.057,0.014,0.07
					C378.822,380.938,378.71,381.036,378.57,381.036z M374.788,372.38c-0.042-0.169-0.084-0.225-0.224-0.225
					s-0.182,0.056-0.224,0.225l-1.008,4.16h2.465L374.788,372.38z"/>
				<path fill="#E9D4A9" d="M387.53,381.036h-1.709c-0.154,0-0.21-0.14-0.28-0.28l-2.017-3.74h-0.196
					c-0.364,0-0.924-0.042-1.247-0.056v3.796c0,0.154-0.112,0.28-0.266,0.28h-1.401c-0.154,0-0.28-0.126-0.28-0.28v-9.637
					c0-0.28,0.168-0.379,0.448-0.421c0.728-0.111,1.723-0.182,2.745-0.182c2.157,0,4.034,0.771,4.034,3.166v0.126
					c0,1.484-0.742,2.409-1.891,2.857l2.199,4.09c0.028,0.042,0.028,0.084,0.028,0.112
					C387.698,380.966,387.642,381.036,387.53,381.036z M385.428,373.682c0-1.051-0.7-1.499-2.101-1.499
					c-0.294,0-0.994,0.027-1.247,0.056v3.151c0.224,0.015,1.009,0.042,1.247,0.042c1.443,0,2.101-0.392,2.101-1.624V373.682z"/>
				<path fill="#E9D4A9" d="M400.256,381.036h-1.485c-0.126,0-0.238-0.112-0.266-0.238l-0.645-2.661h-3.222l-0.645,2.661
					c-0.028,0.126-0.14,0.238-0.266,0.238h-1.485c-0.14,0-0.252-0.098-0.252-0.238c0-0.014,0.014-0.042,0.014-0.07l2.297-8.782
					c0.336-1.303,1.345-1.429,1.947-1.429c0.603,0,1.611,0.126,1.947,1.429l2.297,8.782c0,0.028,0.014,0.057,0.014,0.07
					C400.508,380.938,400.396,381.036,400.256,381.036z M396.474,372.38c-0.042-0.169-0.084-0.225-0.224-0.225
					s-0.182,0.056-0.224,0.225l-1.008,4.16h2.465L396.474,372.38z"/>
				<path fill="#E9D4A9" d="M404.943,381.148c-0.995,0-2.339-0.099-2.76-0.168c-0.238-0.042-0.364-0.154-0.364-0.435v-9.427
					c0-0.28,0.126-0.393,0.364-0.435c0.42-0.07,1.765-0.168,2.76-0.168c2.801,0,4.398,1.513,4.398,4.286v2.06
					C409.342,379.635,407.745,381.148,404.943,381.148z M407.409,374.802c0-2.102-1.064-2.647-2.465-2.647
					c-0.519,0-0.882,0.028-1.177,0.042v7.271c0.294,0.014,0.658,0.042,1.177,0.042c1.401,0,2.465-0.547,2.465-2.647V374.802z"/>
				<path fill="#E9D4A9" d="M412.824,381.036h-1.387c-0.154,0-0.28-0.126-0.28-0.28v-9.861c0-0.154,0.126-0.266,0.28-0.266h1.387
					c0.154,0,0.28,0.111,0.28,0.266v9.861C413.104,380.91,412.979,381.036,412.824,381.036z"/>
				<path fill="#E9D4A9" d="M421.101,380.924c-0.21,0.057-1.135,0.225-2.213,0.225c-1.681,0-3.964-0.827-3.964-4.286v-2.06
					c0-3.516,2.283-4.286,3.964-4.286c1.079,0,2.003,0.168,2.213,0.224c0.182,0.057,0.308,0.126,0.308,0.322v0.938
					c0,0.168-0.07,0.295-0.28,0.295c0,0-0.014,0-0.028,0c-0.49-0.043-1.443-0.112-2.185-0.112c-1.177,0-2.031,0.63-2.031,2.619v2.06
					c0,1.946,0.854,2.619,2.031,2.619c0.742,0,1.695-0.07,2.185-0.112c0.014,0,0.028,0,0.028,0c0.21,0,0.28,0.126,0.28,0.294v0.938
					C421.409,380.798,421.283,380.868,421.101,380.924z"/>
				<path fill="#E9D4A9" d="M424.752,381.036h-1.387c-0.154,0-0.28-0.126-0.28-0.28v-9.861c0-0.154,0.126-0.266,0.28-0.266h1.387
					c0.154,0,0.28,0.111,0.28,0.266v9.861C425.032,380.91,424.906,381.036,424.752,381.036z"/>
				<path fill="#E9D4A9" d="M430.843,381.148c-2.312,0-3.992-1.289-3.992-4.37v-1.892c0-3.082,1.681-4.37,3.992-4.37
					c2.311,0,3.992,1.288,3.992,4.37v1.892C434.835,379.859,433.154,381.148,430.843,381.148z M432.874,374.886
					c0-1.849-0.658-2.676-2.031-2.676c-1.373,0-2.031,0.827-2.031,2.676v1.892c0,1.849,0.658,2.675,2.031,2.675
					c1.373,0,2.031-0.826,2.031-2.675V374.886z"/>
				<path fill="#E9D4A9" d="M443.963,381.036h-1.415c-0.336,0-0.63,0-0.854-0.504l-3.11-6.822c-0.042-0.084-0.084-0.112-0.126-0.112
					s-0.07,0.028-0.07,0.112v7.046c0,0.154-0.112,0.28-0.266,0.28h-1.191c-0.154,0-0.28-0.126-0.28-0.28v-9.567
					c0-0.308,0.252-0.56,0.56-0.56h1.513c0.294,0,0.448,0.084,0.617,0.448l3.264,7.199c0.028,0.07,0.07,0.112,0.112,0.112
					c0.028,0,0.07-0.042,0.07-0.126v-7.368c0-0.154,0.112-0.266,0.266-0.266h1.205c0.154,0,0.266,0.111,0.266,0.266v9.581
					C444.523,380.784,444.271,381.036,443.963,381.036z"/>
				<path fill="#E9D4A9" d="M454.099,381.036h-1.485c-0.126,0-0.238-0.112-0.266-0.238l-0.645-2.661h-3.222l-0.645,2.661
					c-0.028,0.126-0.14,0.238-0.266,0.238h-1.485c-0.14,0-0.252-0.098-0.252-0.238c0-0.014,0.014-0.042,0.014-0.07l2.297-8.782
					c0.336-1.303,1.345-1.429,1.947-1.429s1.611,0.126,1.947,1.429l2.297,8.782c0,0.028,0.014,0.057,0.014,0.07
					C454.351,380.938,454.239,381.036,454.099,381.036z M450.317,372.38c-0.042-0.169-0.084-0.225-0.224-0.225
					s-0.182,0.056-0.224,0.225l-1.008,4.16h2.465L450.317,372.38z"/>
				<path fill="#E9D4A9" d="M458.787,381.148c-0.995,0-2.339-0.099-2.76-0.168c-0.238-0.042-0.364-0.154-0.364-0.435v-9.427
					c0-0.28,0.126-0.393,0.364-0.435c0.42-0.07,1.765-0.168,2.76-0.168c2.801,0,4.398,1.513,4.398,4.286v2.06
					C463.185,379.635,461.588,381.148,458.787,381.148z M461.252,374.802c0-2.102-1.064-2.647-2.465-2.647
					c-0.519,0-0.882,0.028-1.177,0.042v7.271c0.294,0.014,0.658,0.042,1.177,0.042c1.401,0,2.465-0.547,2.465-2.647V374.802z"/>
				<path fill="#E9D4A9" d="M472.257,381.036h-1.485c-0.126,0-0.238-0.112-0.266-0.238l-0.645-2.661h-3.222l-0.645,2.661
					c-0.028,0.126-0.14,0.238-0.266,0.238h-1.485c-0.14,0-0.252-0.098-0.252-0.238c0-0.014,0.014-0.042,0.014-0.07l2.297-8.782
					c0.336-1.303,1.345-1.429,1.947-1.429c0.603,0,1.611,0.126,1.947,1.429l2.297,8.782c0,0.028,0.014,0.057,0.014,0.07
					C472.509,380.938,472.397,381.036,472.257,381.036z M468.475,372.38c-0.042-0.169-0.084-0.225-0.224-0.225
					s-0.182,0.056-0.224,0.225l-1.008,4.16h2.465L468.475,372.38z"/>
			</g>
		</g>
		<g enable-background="new    ">
			<path fill="#F7EBCF" d="M342.164,401.122c-1.302,0.336-2.876,0.546-4.22,0.546c-3.38,0-5.018-1.994-5.018-5.27v-1.617
				c0-3.275,1.638-5.27,5.018-5.27c0.504,0,1.239,0.041,2.016,0.146v-3.717c0-0.23,0.189-0.42,0.42-0.42h1.932
				c0.231,0,0.42,0.189,0.42,0.42v14.613C342.73,400.87,342.646,400.996,342.164,401.122z M339.959,391.926
				c-0.588-0.084-1.512-0.146-2.016-0.146c-1.806,0-2.247,1.28-2.247,3.002v1.617c0,1.721,0.441,3.002,2.247,3.002
				c0.756,0,1.617-0.062,2.016-0.146V391.926z"/>
			<path fill="#F7EBCF" d="M354.721,396.545h-6.845v0.062c0,1.219,0.504,2.667,2.52,2.667c1.533,0,2.981-0.126,3.863-0.21
				c0.021,0,0.042,0,0.063,0c0.21,0,0.378,0.105,0.378,0.314v1.387c0,0.336-0.063,0.482-0.441,0.545
				c-1.365,0.252-2.184,0.357-4.073,0.357c-2.1,0-5.081-1.134-5.081-5.27v-1.555c0-3.275,1.827-5.332,5.039-5.332
				c3.233,0,4.997,2.204,4.997,5.332v1.176C355.141,396.355,355.015,396.545,354.721,396.545z M352.349,394.487
				c0-1.638-0.903-2.583-2.205-2.583s-2.247,0.924-2.247,2.583v0.084h4.451V394.487z"/>
			<path fill="#F7EBCF" d="M368.015,401.668c-3.401,0-5.48-1.953-5.48-7.181v-1.554c0-5.229,2.079-7.201,5.48-7.201
				s5.48,1.973,5.48,7.201v1.554C373.495,399.715,371.417,401.668,368.015,401.668z M370.577,392.933
				c0-3.801-1.113-4.829-2.562-4.829s-2.562,1.028-2.562,4.829v1.554c0,3.8,1.113,4.808,2.562,4.808s2.562-1.008,2.562-4.808
				V392.933z"/>
			<path fill="#F7EBCF" d="M389.602,401.5h-1.785c-0.231,0-0.42-0.189-0.42-0.42v-0.336c-0.966,0.588-1.953,0.924-2.96,0.924
				c-1.743,0-3.632-0.672-3.632-3.506v-0.084c0-2.395,1.47-3.633,5.123-3.633h1.323v-0.924c0-1.365-0.609-1.701-1.848-1.701
				c-1.344,0-2.729,0.084-3.422,0.168c-0.042,0-0.084,0-0.105,0c-0.21,0-0.378-0.062-0.378-0.356v-1.344
				c0-0.231,0.126-0.378,0.399-0.44c0.84-0.168,2.058-0.336,3.506-0.336c2.981,0,4.619,1.322,4.619,4.01v7.559
				C390.022,401.31,389.833,401.5,389.602,401.5z M387.25,396.293h-1.323c-1.911,0-2.331,0.609-2.331,1.785v0.084
				c0,1.028,0.462,1.301,1.512,1.301c0.756,0,1.533-0.252,2.142-0.588V396.293z"/>
			<path fill="#F7EBCF" d="M405.625,393.647l-1.89,1.26c-1.974,1.323-2.981,2.372-2.981,4.115v0.084h6.908
				c0.231,0,0.42,0.147,0.42,0.378v1.596c0,0.23-0.189,0.42-0.42,0.42h-8.902c-0.231,0-0.42-0.189-0.42-0.42v-2.058
				c0-2.31,1.449-4.347,3.191-5.501l2.079-1.386c1.617-1.071,1.932-1.407,1.932-2.562c0-1.134-0.714-1.554-2.457-1.554
				c-1.239,0-2.939,0.168-4.199,0.315c-0.021,0-0.021,0-0.042,0c-0.231,0-0.378-0.189-0.378-0.42v-1.26
				c0-0.211,0.189-0.336,0.399-0.399c1.092-0.294,2.855-0.524,4.22-0.524c3.674,0,5.165,1.238,5.165,3.842
				C408.25,391.316,407.347,392.492,405.625,393.647z"/>
			<path fill="#F7EBCF" d="M428.367,386.361l-3.443,13.165c-0.504,1.952-2.016,2.142-2.918,2.142s-2.415-0.189-2.918-2.142
				l-3.443-13.165c0-0.041-0.021-0.062-0.021-0.104c0-0.21,0.168-0.356,0.378-0.356h2.226c0.189,0,0.357,0.168,0.399,0.356
				l3.044,12.618c0.063,0.252,0.126,0.336,0.336,0.336s0.273-0.084,0.336-0.336l3.044-12.618c0.042-0.188,0.21-0.356,0.399-0.356
				h2.226c0.21,0,0.378,0.146,0.378,0.356C428.388,386.299,428.367,386.32,428.367,386.361z"/>
			<path fill="#F7EBCF" d="M437.46,401.5h-1.785c-0.231,0-0.42-0.189-0.42-0.42v-0.336c-0.966,0.588-1.953,0.924-2.96,0.924
				c-1.743,0-3.632-0.672-3.632-3.506v-0.084c0-2.395,1.47-3.633,5.123-3.633h1.323v-0.924c0-1.365-0.609-1.701-1.848-1.701
				c-1.344,0-2.729,0.084-3.422,0.168c-0.042,0-0.084,0-0.105,0c-0.21,0-0.378-0.062-0.378-0.356v-1.344
				c0-0.231,0.126-0.378,0.399-0.44c0.84-0.168,2.058-0.336,3.506-0.336c2.981,0,4.619,1.322,4.619,4.01v7.559
				C437.88,401.31,437.691,401.5,437.46,401.5z M435.109,396.293h-1.323c-1.911,0-2.331,0.609-2.331,1.785v0.084
				c0,1.028,0.462,1.301,1.512,1.301c0.756,0,1.533-0.252,2.142-0.588V396.293z"/>
			<path fill="#F7EBCF" d="M444.454,401.668c-0.819,0-2.583-0.105-3.758-0.42c-0.252-0.062-0.399-0.23-0.399-0.482v-1.26
				c0-0.168,0.147-0.336,0.357-0.336c0.042,0,0.063,0,0.084,0c1.008,0.125,2.897,0.23,3.527,0.23c1.302,0,1.491-0.441,1.491-1.008
				c0-0.398-0.252-0.65-0.924-1.07l-2.876-1.764c-1.029-0.631-1.764-1.68-1.764-2.898c0-2.1,1.323-3.148,3.989-3.148
				c1.701,0,2.667,0.188,3.737,0.42c0.252,0.062,0.378,0.23,0.378,0.482v1.218c0,0.252-0.126,0.399-0.336,0.399
				c-0.042,0-0.063,0-0.084,0c-0.588-0.084-2.268-0.252-3.464-0.252c-1.008,0-1.449,0.23-1.449,0.881
				c0,0.336,0.315,0.547,0.84,0.861l2.75,1.68c1.764,1.07,2.016,2.121,2.016,3.191C448.569,400.219,447.205,401.668,444.454,401.668
				z"/>
			<path fill="#F7EBCF" d="M455.542,401.668c-3.296,0-5.018-2.226-5.018-5.229v-1.7c0-3.003,1.722-5.228,5.018-5.228
				s5.018,2.225,5.018,5.228v1.7C460.56,399.442,458.838,401.668,455.542,401.668z M457.789,394.739
				c0-1.722-0.777-2.835-2.247-2.835s-2.247,1.113-2.247,2.835v1.7c0,1.723,0.777,2.835,2.247,2.835s2.247-1.112,2.247-2.835
				V394.739z"/>
			<path fill="#F7EBCF" d="M466.777,401.668c-0.819,0-2.583-0.105-3.758-0.42c-0.252-0.062-0.399-0.23-0.399-0.482v-1.26
				c0-0.168,0.147-0.336,0.357-0.336c0.042,0,0.063,0,0.084,0c1.008,0.125,2.897,0.23,3.527,0.23c1.302,0,1.491-0.441,1.491-1.008
				c0-0.398-0.252-0.65-0.924-1.07l-2.876-1.764c-1.029-0.631-1.764-1.68-1.764-2.898c0-2.1,1.323-3.148,3.989-3.148
				c1.701,0,2.667,0.188,3.737,0.42c0.252,0.062,0.378,0.23,0.378,0.482v1.218c0,0.252-0.126,0.399-0.336,0.399
				c-0.042,0-0.063,0-0.084,0c-0.588-0.084-2.268-0.252-3.464-0.252c-1.008,0-1.449,0.23-1.449,0.881
				c0,0.336,0.315,0.547,0.84,0.861l2.75,1.68c1.764,1.07,2.016,2.121,2.016,3.191C470.892,400.219,469.527,401.668,466.777,401.668
				z"/>
		</g>
		<g>
			<g>
				<g>
					<g>
						<polygon fill="#E6FFE5" points="471.177,419.395 472.104,411.302 468.191,411.302 468.191,408.174 472.994,408.174 
							472.686,410.872 471.622,420.174 468.191,420.174 468.191,419.395 						"/>
						<polygon fill="#D0E9EF" points="468.191,408.174 468.191,411.302 464.28,411.302 465.206,419.395 468.191,419.395 
							468.191,420.174 464.762,420.174 463.698,410.872 463.389,408.174 						"/>
						<polygon fill="#E4CA95" points="465.206,419.395 464.28,411.302 468.191,411.302 468.191,419.395 						"/>
						<polygon fill="#F7EBCF" points="471.177,419.395 468.191,419.395 468.191,411.302 472.104,411.302 						"/>
					</g>
				</g>
			</g>
			<g>
				<g>
					<g>
						<polygon fill="#E6FFE5" points="458.663,419.395 459.59,411.302 455.678,411.302 455.678,408.174 460.48,408.174 
							460.172,410.872 459.108,420.174 455.678,420.174 455.678,419.395 						"/>
						<polygon fill="#D0E9EF" points="455.678,408.174 455.678,411.302 451.767,411.302 452.692,419.395 455.678,419.395 
							455.678,420.174 452.248,420.174 451.185,410.872 450.875,408.174 						"/>
						<polygon fill="#E4CA95" points="452.692,419.395 451.767,411.302 455.678,411.302 455.678,419.395 						"/>
						<polygon fill="#F7EBCF" points="458.663,419.395 455.678,419.395 455.678,411.302 459.59,411.302 						"/>
					</g>
				</g>
			</g>
		</g>
	</g>
</g>
</svg>
