<?xml version="1.0" encoding="utf-8"?>
<!-- Generator: Adobe Illustrator 16.0.0, SVG Export Plug-In . SVG Version: 6.00 Build 0)  -->
<!DOCTYPE svg PUBLIC "-//W3C//DTD SVG 1.1//EN" "http://www.w3.org/Graphics/SVG/1.1/DTD/svg11.dtd">
<svg version="1.1" id="Layer_1" xmlns="http://www.w3.org/2000/svg" xmlns:xlink="http://www.w3.org/1999/xlink" x="0px" y="0px"
	 width="1280px" height="700px" viewBox="0 0 1280 700" enable-background="new 0 0 1280 700" xml:space="preserve">
<g id="Miscelaneas">
	<g>
		<g>
			<g>
				<path fill="none" stroke="#5BA4C2" stroke-width="0.75" stroke-miterlimit="10" d="M640.3,654c0,0,0-14.3,0-19.3
					c0-3.1,1-4.1,3.7-4.1s145.9,0,145.9,0c3,0,3.8-1.4,3.8-5c0-3.4-0.3-9.3-0.3-13c0-3.5,0.899-5.4,3.3-6v-0.2
					c-2.4-0.7-3.3-2.4-3.3-6c0-3.8,0.3-6.6,0.3-10"/>
			</g>
			<g>
				<path fill="none" stroke="#5BA4C2" stroke-width="0.75" stroke-miterlimit="10" d="M487,590.2c0,3.4,0.3,6.3,0.3,10
					c0,3.601-0.899,5.4-3.3,6v0.2c2.4,0.7,3.3,2.5,3.3,6c0,3.8-0.3,9.6-0.3,13c0,3.6,0.8,5,3.8,5c0,0,143.2,0,145.9,0
					c2.699,0,3.7,1,3.7,4.1c0,5,0,19.301,0,19.301"/>
			</g>
		</g>
		<g>
			<g>
				<path fill="#5BA4C2" d="M643.8,653.9L643.8,653.9l-3.5-6.9l0,0l0,0l0,0l0,0l-3.7,6.801l0,0c-0.3,0.6-0.5,1.3-0.6,2
					c0,2.3,1.8,4.1,4.1,4.199c2.301,0,4.101-1.8,4.2-4.1C644.3,655.2,644.1,654.5,643.8,653.9z"/>
				<g>
					<g>
						<path fill="#72ADC8" d="M639,659C638.9,659,638.9,659,639,659c-2.1-0.399-2.4-2.6-2.3-3.699c0-0.2,0.2-0.301,0.399-0.301
							c0.2,0,0.301,0.2,0.301,0.4c0,0.1-0.301,2.5,1.6,2.9c0.2,0,0.3,0.2,0.3,0.399C639.3,658.9,639.1,659,639,659z"/>
					</g>
				</g>
			</g>
			<path fill="#72ADC8" d="M644.3,655.9c0-0.7-0.2-1.4-0.5-2l0,0l-3.5-6.9l0,0l0,0l0,0v13C642.5,659.9,644.3,658.2,644.3,655.9z"/>
			<g>
				<g>
					<path fill="#E2D4D5" d="M641.9,653.4l-0.801-2c-0.1-0.1-0.1-0.4,0-0.4c0.101,0,0.301,0.101,0.301,0.301l1,1.899
						c0.1,0.101,0,0.4-0.101,0.5C642.2,653.7,642,653.6,641.9,653.4z"/>
				</g>
				<ellipse fill="#E2D4D5" cx="642.582" cy="654.281" rx="0.4" ry="0.4"/>
			</g>
		</g>
		<g>
			<g>
				<path fill="#5BA4C2" d="M644,665.9L644,665.9l-1.9-3.8l0,0l0,0l0,0l0,0l-2,3.7l0,0c-0.199,0.3-0.3,0.7-0.3,1.1
					c0,1.3,1,2.3,2.2,2.3c1.3,0,2.3-1,2.3-2.2C644.3,666.6,644.2,666.2,644,665.9z"/>
				<g>
					<g>
						<path fill="#72ADC8" d="M641.3,668.7L641.3,668.7c-1.2-0.2-1.3-1.399-1.3-2c0-0.1,0.1-0.2,0.2-0.2c0.1,0,0.2,0.101,0.2,0.2
							c0,0.101-0.101,1.4,0.899,1.601c0.101,0,0.2,0.1,0.2,0.199C641.5,668.7,641.4,668.7,641.3,668.7z"/>
					</g>
				</g>
			</g>
			<path fill="#72ADC8" d="M644.3,667c0-0.399-0.1-0.8-0.3-1.1l0,0l-1.9-3.8l0,0l0,0l0,0v7.2C643.3,669.2,644.3,668.2,644.3,667z"/>
			<g>
				<g>
					<path fill="#E2D4D5" d="M643,665.6l-0.4-1.101c0-0.1-0.1-0.199,0-0.199c0.101,0,0.2,0.1,0.2,0.1l0.5,1.1
						c0,0.101,0,0.2-0.1,0.301C643.1,665.801,643,665.7,643,665.6z"/>
				</g>
				<ellipse fill="#E2D4D5" cx="643.405" cy="666.101" rx="0.2" ry="0.2"/>
			</g>
		</g>
	</g>
</g>
<g enable-background="new    ">
	<path fill="#F5E5E5" d="M515.258,592.264c-2.227,0-4.034-0.841-4.034-4.034v-6.233c0-0.154,0.126-0.266,0.28-0.266h1.835
		c0.154,0,0.28,0.111,0.28,0.266v6.233c0,1.429,0.378,2.031,1.639,2.031s1.653-0.603,1.653-2.031v-6.233
		c0-0.154,0.126-0.266,0.28-0.266h1.821c0.154,0,0.294,0.111,0.294,0.266v6.233C519.306,591.424,517.485,592.264,515.258,592.264z"
		/>
	<path fill="#F5E5E5" d="M527.677,592.138h-1.695c-0.154,0-0.28-0.14-0.28-0.294v-4.665c0-0.98-0.182-1.303-1.037-1.303
		c-0.406,0-0.84,0.196-1.316,0.448v5.52c0,0.154-0.126,0.294-0.28,0.294h-1.695c-0.154,0-0.294-0.14-0.294-0.294v-7.452
		c0-0.154,0.126-0.28,0.28-0.28h1.569c0.154,0,0.28,0.126,0.28,0.28v0.336c0.771-0.546,1.387-0.729,2.283-0.729
		c2.031,0,2.479,1.415,2.479,3.18v4.665C527.972,591.999,527.832,592.138,527.677,592.138z"/>
	<path fill="#F5E5E5" d="M537.42,592.264c-2.227,0-4.034-0.841-4.034-4.034v-6.233c0-0.154,0.126-0.266,0.28-0.266h1.835
		c0.154,0,0.28,0.111,0.28,0.266v6.233c0,1.429,0.378,2.031,1.639,2.031s1.653-0.603,1.653-2.031v-6.233
		c0-0.154,0.126-0.266,0.28-0.266h1.821c0.154,0,0.294,0.111,0.294,0.266v6.233C541.468,591.424,539.647,592.264,537.42,592.264z
		 M539.871,579.139l-1.709,1.709c-0.112,0.112-0.154,0.168-0.336,0.168h-1.499c-0.084,0-0.126-0.042-0.126-0.098
		c0-0.042,0.014-0.084,0.056-0.141l1.303-1.639c0.126-0.154,0.182-0.21,0.378-0.21h1.835c0.098,0,0.154,0.042,0.154,0.098
		C539.927,579.055,539.913,579.097,539.871,579.139z"/>
	<path fill="#F5E5E5" d="M545.245,592.138h-1.709c-0.154,0-0.294-0.14-0.294-0.294v-10.17c0-0.154,0.14-0.28,0.294-0.28h1.709
		c0.154,0,0.266,0.126,0.266,0.28v10.17C545.511,591.999,545.398,592.138,545.245,592.138z"/>
	<path fill="#F5E5E5" d="M551.546,592.152c-0.42,0.07-0.7,0.112-1.106,0.112c-1.541,0-2.354-0.406-2.354-2.396v-4.062l-1.121-0.183
		c-0.154-0.028-0.294-0.14-0.294-0.294v-0.925c0-0.154,0.14-0.294,0.294-0.294h1.121v-1.148c0-0.154,0.126-0.252,0.28-0.28
		l1.709-0.294c0.014,0,0.028,0,0.042,0c0.14,0,0.252,0.098,0.252,0.238v1.484h1.149c0.154,0,0.28,0.126,0.28,0.28v1.135
		c0,0.154-0.126,0.28-0.28,0.28h-1.149v4.076c0,0.56,0.042,0.658,0.462,0.658h0.687c0.182,0,0.294,0.084,0.294,0.238v1.092
		C551.812,592.012,551.714,592.125,551.546,592.152z"/>
	<path fill="#F5E5E5" d="M555.184,583.202h-1.821c-0.154,0-0.28-0.126-0.28-0.28v-1.303c0-0.154,0.126-0.28,0.28-0.28h1.821
		c0.154,0,0.28,0.126,0.28,0.28v1.303C555.464,583.076,555.338,583.202,555.184,583.202z M555.128,592.138h-1.709
		c-0.154,0-0.28-0.126-0.28-0.28v-7.466c0-0.154,0.126-0.28,0.28-0.28h1.709c0.154,0,0.28,0.126,0.28,0.28v7.466
		C555.408,592.012,555.282,592.138,555.128,592.138z"/>
	<path fill="#F5E5E5" d="M567.425,592.138h-1.695c-0.154,0-0.28-0.14-0.28-0.294v-4.776c0-0.896-0.21-1.163-0.854-1.163
		c-0.238,0-0.658,0.056-1.079,0.252c0.028,0.28,0.042,0.603,0.042,0.911v4.776c0,0.154-0.126,0.294-0.28,0.294h-1.695
		c-0.154,0-0.294-0.14-0.294-0.294v-4.776c0-0.896-0.168-1.163-0.812-1.163c-0.266,0-0.63,0.14-1.064,0.364v5.575
		c0,0.154-0.126,0.294-0.28,0.294h-1.695c-0.154,0-0.294-0.14-0.294-0.294v-7.452c0-0.154,0.126-0.28,0.28-0.28h1.597
		c0.154,0,0.28,0.126,0.28,0.28v0.308c0.588-0.392,1.261-0.7,2.073-0.7c0.742,0,1.261,0.21,1.653,0.687
		c0.812-0.462,1.373-0.687,2.283-0.687c1.849,0,2.409,1.233,2.409,3.068v4.776C567.719,591.999,567.579,592.138,567.425,592.138z"/>
	<path fill="#F5E5E5" d="M572.685,592.264c-2.27,0-3.516-1.415-3.516-3.642v-0.98c0-2.228,1.247-3.643,3.516-3.643
		c2.269,0,3.502,1.415,3.502,3.643v0.98C576.187,590.849,574.954,592.264,572.685,592.264z M573.932,587.642
		c0-1.135-0.434-1.709-1.247-1.709s-1.261,0.574-1.261,1.709v0.98c0,1.135,0.448,1.723,1.261,1.723s1.247-0.588,1.247-1.723V587.642
		z"/>
	<path fill="#F5E5E5" d="M588.325,584.434l-1.765,6.359c-0.35,1.247-1.205,1.471-2.031,1.471c-0.827,0-1.667-0.224-2.017-1.471
		l-1.751-6.359c-0.014-0.028-0.014-0.056-0.014-0.084c0-0.141,0.098-0.238,0.224-0.238h1.849c0.14,0,0.252,0.126,0.294,0.294
		l1.205,5.491c0.042,0.21,0.112,0.294,0.21,0.294s0.182-0.084,0.224-0.294l1.205-5.491c0.042-0.168,0.154-0.294,0.294-0.294h1.849
		c0.126,0,0.238,0.098,0.238,0.238C588.339,584.379,588.339,584.406,588.325,584.434z"/>
	<path fill="#F5E5E5" d="M595.058,592.138h-1.569c-0.154,0-0.28-0.126-0.28-0.28v-0.224c-0.546,0.392-1.107,0.63-1.947,0.63
		c-1.219,0-2.395-0.588-2.395-2.409v-0.126c0-1.639,1.05-2.367,3.446-2.367h0.756v-0.505c0-0.798-0.393-0.966-1.051-0.966
		c-0.896,0-1.891,0.056-2.325,0.098h-0.07c-0.14,0-0.252-0.07-0.252-0.252v-1.135c0-0.154,0.098-0.266,0.266-0.308
		c0.519-0.127,1.499-0.295,2.423-0.295c2.017,0,3.278,0.812,3.278,2.857v5.001C595.338,592.012,595.212,592.138,595.058,592.138z
		 M593.111,588.707h-0.798c-0.981,0-1.233,0.336-1.233,1.022v0.126c0,0.588,0.294,0.7,0.882,0.7c0.42,0,0.812-0.14,1.149-0.308
		V588.707z"/>
	<path fill="#F5E5E5" d="M599.634,592.264c-0.771,0-1.835-0.112-2.549-0.308c-0.168-0.043-0.266-0.154-0.266-0.322V590.5
		c0-0.141,0.098-0.267,0.266-0.267c0.014,0,0.042,0,0.056,0c0.757,0.099,1.933,0.196,2.381,0.196c0.672,0,0.827-0.182,0.827-0.546
		c0-0.21-0.126-0.364-0.519-0.589l-1.821-1.051c-0.784-0.448-1.247-1.162-1.247-2.072c0-1.415,0.938-2.172,2.872-2.172
		c1.106,0,1.779,0.141,2.493,0.322c0.168,0.042,0.266,0.154,0.266,0.322v1.135c0,0.168-0.098,0.266-0.238,0.266
		c-0.014,0-0.028,0-0.042,0c-0.406-0.056-1.611-0.182-2.325-0.182c-0.546,0-0.742,0.084-0.742,0.406c0,0.21,0.154,0.322,0.434,0.49
		l1.737,0.994c1.163,0.673,1.415,1.401,1.415,2.157C602.632,591.228,601.679,592.264,599.634,592.264z"/>
	<path fill="#F5E5E5" d="M607.349,592.264c-2.27,0-3.516-1.415-3.516-3.642v-0.98c0-2.228,1.247-3.643,3.516-3.643
		c2.269,0,3.502,1.415,3.502,3.643v0.98C610.851,590.849,609.618,592.264,607.349,592.264z M608.595,587.642
		c0-1.135-0.434-1.709-1.247-1.709s-1.261,0.574-1.261,1.709v0.98c0,1.135,0.448,1.723,1.261,1.723s1.247-0.588,1.247-1.723V587.642
		z"/>
</g>
<g enable-background="new    ">
	<path fill="#5BA4C2" d="M621.771,592.138h-1.19c-0.154,0-0.28-0.126-0.28-0.28v-0.224c-0.645,0.392-1.303,0.616-1.975,0.616
		c-1.163,0-2.423-0.448-2.423-2.34v-0.056c0-1.597,0.98-2.424,3.418-2.424h0.882v-0.616c0-0.91-0.406-1.134-1.232-1.134
		c-0.896,0-1.821,0.056-2.283,0.111c-0.028,0-0.056,0-0.07,0c-0.14,0-0.252-0.042-0.252-0.238v-0.896
		c0-0.153,0.084-0.252,0.266-0.294c0.561-0.112,1.373-0.224,2.339-0.224c1.989,0,3.082,0.882,3.082,2.675v5.043
		C622.051,592.012,621.925,592.138,621.771,592.138z M620.202,588.665h-0.882c-1.275,0-1.555,0.406-1.555,1.19v0.056
		c0,0.687,0.308,0.869,1.008,0.869c0.504,0,1.022-0.168,1.429-0.393V588.665z"/>
	<path fill="#5BA4C2" d="M629.021,592.138h-1.303c-0.154,0-0.28-0.14-0.28-0.294v-10.086c0-0.153,0.126-0.28,0.28-0.28h1.303
		c0.154,0,0.266,0.127,0.266,0.28v10.086C629.287,591.999,629.174,592.138,629.021,592.138z"/>
	<path fill="#5BA4C2" d="M636.75,592.138h-1.19c-0.154,0-0.28-0.126-0.28-0.28v-0.224c-0.645,0.392-1.303,0.616-1.975,0.616
		c-1.163,0-2.423-0.448-2.423-2.34v-0.056c0-1.597,0.98-2.424,3.418-2.424h0.882v-0.616c0-0.91-0.406-1.134-1.232-1.134
		c-0.896,0-1.821,0.056-2.283,0.111c-0.028,0-0.056,0-0.07,0c-0.14,0-0.252-0.042-0.252-0.238v-0.896
		c0-0.153,0.084-0.252,0.266-0.294c0.561-0.112,1.373-0.224,2.339-0.224c1.989,0,3.082,0.882,3.082,2.675v5.043
		C637.03,592.012,636.904,592.138,636.75,592.138z M635.181,588.665h-0.882c-1.275,0-1.555,0.406-1.555,1.19v0.056
		c0,0.687,0.308,0.869,1.008,0.869c0.504,0,1.022-0.168,1.429-0.393V588.665z"/>
	<path fill="#5BA4C2" d="M648.539,592.138h-1.289c-0.154,0-0.28-0.14-0.28-0.294v-4.608c0-1.219-0.21-1.527-1.149-1.527
		c-0.476,0-1.036,0.168-1.625,0.477v5.659c0,0.154-0.125,0.294-0.279,0.294h-1.289c-0.154,0-0.279-0.14-0.279-0.294v-10.086
		c0-0.153,0.125-0.28,0.279-0.28h1.289c0.154,0,0.279,0.127,0.279,0.28v2.899c0.533-0.321,1.121-0.518,2.115-0.518
		c1.934,0,2.508,1.372,2.508,3.096v4.608C648.818,591.999,648.692,592.138,648.539,592.138z"/>
	<path fill="#5BA4C2" d="M653.744,592.251c-2.199,0-3.348-1.485-3.348-3.488v-1.135c0-2.003,1.148-3.487,3.348-3.487
		s3.349,1.484,3.349,3.487v1.135C657.093,590.765,655.943,592.251,653.744,592.251z M655.244,587.628c0-1.148-0.52-1.891-1.5-1.891
		s-1.498,0.742-1.498,1.891v1.135c0,1.148,0.518,1.892,1.498,1.892s1.5-0.743,1.5-1.892V587.628z"/>
	<path fill="#5BA4C2" d="M662.453,585.709c-0.757,0-1.346,0.196-1.934,0.505v5.631c0,0.154-0.126,0.294-0.279,0.294h-1.289
		c-0.154,0-0.28-0.14-0.28-0.294v-7.326c0-0.154,0.126-0.28,0.28-0.28h1.219c0.154,0,0.279,0.126,0.279,0.28v0.294
		c0.688-0.532,1.443-0.672,2.004-0.672c0.154,0,0.279,0.126,0.279,0.28v1.008C662.732,585.583,662.607,585.709,662.453,585.709z"/>
	<path fill="#5BA4C2" d="M669.16,592.138h-1.19c-0.154,0-0.28-0.126-0.28-0.28v-0.224c-0.645,0.392-1.303,0.616-1.975,0.616
		c-1.163,0-2.424-0.448-2.424-2.34v-0.056c0-1.597,0.98-2.424,3.418-2.424h0.883v-0.616c0-0.91-0.406-1.134-1.232-1.134
		c-0.896,0-1.822,0.056-2.283,0.111c-0.029,0-0.057,0-0.07,0c-0.141,0-0.252-0.042-0.252-0.238v-0.896
		c0-0.153,0.084-0.252,0.266-0.294c0.561-0.112,1.373-0.224,2.34-0.224c1.988,0,3.081,0.882,3.081,2.675v5.043
		C669.44,592.012,669.314,592.138,669.16,592.138z M667.592,588.665h-0.883c-1.275,0-1.555,0.406-1.555,1.19v0.056
		c0,0.687,0.309,0.869,1.008,0.869c0.505,0,1.023-0.168,1.43-0.393V588.665z"/>
	<path fill="#5BA4C2" d="M680.641,591.886c-0.869,0.224-1.92,0.364-2.816,0.364c-2.254,0-3.348-1.331-3.348-3.517v-1.078
		c0-2.186,1.094-3.516,3.348-3.516c0.337,0,0.827,0.027,1.346,0.098v-2.479c0-0.153,0.125-0.28,0.279-0.28h1.289
		c0.154,0,0.28,0.127,0.28,0.28v9.75C681.019,591.719,680.963,591.802,680.641,591.886z M679.17,585.751
		c-0.393-0.056-1.009-0.098-1.346-0.098c-1.204,0-1.498,0.854-1.498,2.003v1.078c0,1.149,0.294,2.004,1.498,2.004
		c0.505,0,1.079-0.042,1.346-0.099V585.751z"/>
	<path fill="#5BA4C2" d="M689.012,588.833h-4.566v0.042c0,0.812,0.336,1.779,1.682,1.779c1.021,0,1.988-0.084,2.577-0.141
		c0.014,0,0.028,0,0.042,0c0.141,0,0.252,0.07,0.252,0.21v0.925c0,0.224-0.042,0.322-0.294,0.364
		c-0.911,0.168-1.457,0.238-2.718,0.238c-1.4,0-3.39-0.757-3.39-3.517v-1.036c0-2.186,1.219-3.558,3.362-3.558
		c2.156,0,3.334,1.471,3.334,3.558v0.784C689.293,588.707,689.208,588.833,689.012,588.833z M687.43,587.46
		c0-1.093-0.603-1.723-1.471-1.723c-0.869,0-1.5,0.616-1.5,1.723v0.057h2.971V587.46z"/>
	<path fill="#5BA4C2" d="M696.023,583.187h-1.358c-0.153,0-0.294-0.126-0.294-0.28v-1.232c0-0.154,0.141-0.28,0.294-0.28h1.358
		c0.154,0,0.281,0.126,0.281,0.28v1.232C696.305,583.061,696.178,583.187,696.023,583.187z M695.982,592.138h-1.289
		c-0.154,0-0.28-0.14-0.28-0.294v-7.326c0-0.154,0.126-0.28,0.28-0.28h1.289c0.153,0,0.279,0.126,0.279,0.28v7.326
		C696.262,591.999,696.136,592.138,695.982,592.138z"/>
	<path fill="#5BA4C2" d="M701.904,585.709c-0.756,0-1.345,0.196-1.934,0.505v5.631c0,0.154-0.125,0.294-0.279,0.294h-1.289
		c-0.154,0-0.279-0.14-0.279-0.294v-7.326c0-0.154,0.125-0.28,0.279-0.28h1.219c0.154,0,0.28,0.126,0.28,0.28v0.294
		c0.687-0.532,1.442-0.672,2.003-0.672c0.154,0,0.28,0.126,0.28,0.28v1.008C702.185,585.583,702.059,585.709,701.904,585.709z"/>
	<path fill="#5BA4C2" d="M712.447,592.138h-1.19c-0.154,0-0.28-0.126-0.28-0.28v-0.224c-0.645,0.392-1.303,0.616-1.975,0.616
		c-1.163,0-2.424-0.448-2.424-2.34v-0.056c0-1.597,0.98-2.424,3.418-2.424h0.883v-0.616c0-0.91-0.406-1.134-1.232-1.134
		c-0.896,0-1.822,0.056-2.283,0.111c-0.029,0-0.057,0-0.07,0c-0.141,0-0.252-0.042-0.252-0.238v-0.896
		c0-0.153,0.084-0.252,0.266-0.294c0.561-0.112,1.373-0.224,2.34-0.224c1.988,0,3.081,0.882,3.081,2.675v5.043
		C712.728,592.012,712.602,592.138,712.447,592.138z M710.879,588.665h-0.883c-1.275,0-1.555,0.406-1.555,1.19v0.056
		c0,0.687,0.309,0.869,1.008,0.869c0.505,0,1.023-0.168,1.43-0.393V588.665z"/>
	<path fill="#5BA4C2" d="M719.697,592.138h-1.303c-0.154,0-0.28-0.14-0.28-0.294v-10.086c0-0.153,0.126-0.28,0.28-0.28h1.303
		c0.154,0,0.266,0.127,0.266,0.28v10.086C719.963,591.999,719.852,592.138,719.697,592.138z"/>
	<path fill="#5BA4C2" d="M727.428,592.138h-1.191c-0.154,0-0.279-0.126-0.279-0.28v-0.224c-0.645,0.392-1.303,0.616-1.976,0.616
		c-1.163,0-2.423-0.448-2.423-2.34v-0.056c0-1.597,0.98-2.424,3.418-2.424h0.882v-0.616c0-0.91-0.406-1.134-1.232-1.134
		c-0.896,0-1.821,0.056-2.283,0.111c-0.028,0-0.056,0-0.07,0c-0.14,0-0.252-0.042-0.252-0.238v-0.896
		c0-0.153,0.084-0.252,0.267-0.294c0.56-0.112,1.372-0.224,2.339-0.224c1.989,0,3.081,0.882,3.081,2.675v5.043
		C727.707,592.012,727.582,592.138,727.428,592.138z M725.858,588.665h-0.882c-1.275,0-1.555,0.406-1.555,1.19v0.056
		c0,0.687,0.308,0.869,1.008,0.869c0.504,0,1.022-0.168,1.429-0.393V588.665z"/>
	<path fill="#5BA4C2" d="M737.744,592.068c-0.321,0.084-0.951,0.183-1.807,0.183c-1.82,0-3.193-1.121-3.193-3.404v-1.303
		c0-2.283,1.373-3.403,3.193-3.403c0.855,0,1.485,0.098,1.807,0.182c0.238,0.057,0.295,0.141,0.295,0.364v0.91
		c0,0.141-0.112,0.211-0.252,0.211c-0.014,0-0.028,0-0.043,0c-0.56-0.07-0.896-0.099-1.807-0.099c-0.658,0-1.344,0.379-1.344,1.835
		v1.303c0,1.457,0.686,1.835,1.344,1.835c0.91,0,1.247-0.027,1.807-0.098c0.015,0,0.029,0,0.043,0c0.14,0,0.252,0.07,0.252,0.21
		v0.91C738.039,591.928,737.982,592.012,737.744,592.068z"/>
	<path fill="#5BA4C2" d="M745.15,592.138h-1.189c-0.154,0-0.281-0.126-0.281-0.28v-0.224c-0.644,0.392-1.303,0.616-1.975,0.616
		c-1.162,0-2.424-0.448-2.424-2.34v-0.056c0-1.597,0.98-2.424,3.418-2.424h0.883v-0.616c0-0.91-0.406-1.134-1.232-1.134
		c-0.896,0-1.821,0.056-2.283,0.111c-0.028,0-0.057,0-0.07,0c-0.141,0-0.252-0.042-0.252-0.238v-0.896
		c0-0.153,0.084-0.252,0.266-0.294c0.561-0.112,1.373-0.224,2.34-0.224c1.988,0,3.082,0.882,3.082,2.675v5.043
		C745.432,592.012,745.305,592.138,745.15,592.138z M743.582,588.665h-0.883c-1.274,0-1.555,0.406-1.555,1.19v0.056
		c0,0.687,0.309,0.869,1.009,0.869c0.505,0,1.022-0.168,1.429-0.393V588.665z"/>
	<path fill="#5BA4C2" d="M757.025,592.138h-1.289c-0.154,0-0.279-0.14-0.279-0.294v-4.763c0-1.079-0.225-1.358-1.01-1.358
		c-0.266,0-0.798,0.084-1.303,0.35c0.043,0.309,0.057,0.658,0.057,1.009v4.763c0,0.154-0.126,0.294-0.28,0.294h-1.288
		c-0.154,0-0.281-0.14-0.281-0.294v-4.763c0-1.079-0.182-1.358-0.966-1.358c-0.294,0-0.714,0.153-1.289,0.462v5.659
		c0,0.154-0.126,0.294-0.28,0.294h-1.289c-0.153,0-0.279-0.14-0.279-0.294v-7.326c0-0.154,0.126-0.28,0.279-0.28h1.219
		c0.154,0,0.281,0.126,0.281,0.28v0.294c0.588-0.378,1.176-0.672,2.002-0.672c0.799,0,1.317,0.238,1.64,0.63
		c0.714-0.392,1.345-0.63,2.312-0.63c1.904,0,2.324,1.303,2.324,2.941v4.763C757.305,591.999,757.18,592.138,757.025,592.138z"/>
	<path fill="#5BA4C2" d="M764.694,592.138h-1.19c-0.154,0-0.28-0.126-0.28-0.28v-0.224c-0.645,0.392-1.303,0.616-1.976,0.616
		c-1.162,0-2.423-0.448-2.423-2.34v-0.056c0-1.597,0.98-2.424,3.418-2.424h0.882v-0.616c0-0.91-0.406-1.134-1.232-1.134
		c-0.896,0-1.82,0.056-2.283,0.111c-0.027,0-0.056,0-0.07,0c-0.14,0-0.252-0.042-0.252-0.238v-0.896
		c0-0.153,0.084-0.252,0.267-0.294c0.561-0.112,1.372-0.224,2.339-0.224c1.989,0,3.082,0.882,3.082,2.675v5.043
		C764.975,592.012,764.849,592.138,764.694,592.138z M763.125,588.665h-0.882c-1.274,0-1.555,0.406-1.555,1.19v0.056
		c0,0.687,0.308,0.869,1.009,0.869c0.504,0,1.021-0.168,1.428-0.393V588.665z"/>
	<path fill="#5BA4C2" d="M768.696,590.275l-1.219,2.941c-0.069,0.169-0.112,0.28-0.267,0.28h-0.966c-0.126,0-0.21-0.084-0.21-0.195
		c0-0.028,0-0.057,0.014-0.085l0.854-2.941c0.056-0.168,0.126-0.266,0.28-0.266h1.345c0.112,0,0.196,0.069,0.196,0.168
		C768.725,590.206,768.711,590.233,768.696,590.275z"/>
</g>
<g enable-background="new    ">
	<path fill="#5BA4C2" d="M516.873,610.138h-1.289c-0.154,0-0.28-0.14-0.28-0.294v-4.763c0-1.079-0.224-1.358-1.009-1.358
		c-0.266,0-0.798,0.084-1.303,0.35c0.042,0.309,0.056,0.658,0.056,1.009v4.763c0,0.154-0.126,0.294-0.28,0.294h-1.289
		c-0.154,0-0.28-0.14-0.28-0.294v-4.763c0-1.079-0.182-1.358-0.966-1.358c-0.294,0-0.714,0.153-1.289,0.462v5.659
		c0,0.154-0.126,0.294-0.28,0.294h-1.289c-0.154,0-0.28-0.14-0.28-0.294v-7.326c0-0.154,0.126-0.28,0.28-0.28h1.219
		c0.154,0,0.28,0.126,0.28,0.28v0.294c0.588-0.378,1.177-0.672,2.003-0.672c0.799,0,1.317,0.238,1.639,0.63
		c0.714-0.392,1.345-0.63,2.311-0.63c1.905,0,2.325,1.303,2.325,2.941v4.763C517.153,609.999,517.027,610.138,516.873,610.138z"/>
	<path fill="#5BA4C2" d="M525.145,606.833h-4.566v0.042c0,0.812,0.336,1.779,1.681,1.779c1.022,0,1.989-0.084,2.578-0.141
		c0.014,0,0.028,0,0.042,0c0.14,0,0.252,0.07,0.252,0.21v0.925c0,0.224-0.042,0.322-0.294,0.364
		c-0.911,0.168-1.457,0.238-2.718,0.238c-1.4,0-3.39-0.757-3.39-3.517v-1.036c0-2.186,1.219-3.558,3.362-3.558
		c2.157,0,3.334,1.471,3.334,3.558v0.784C525.425,606.707,525.341,606.833,525.145,606.833z M523.562,605.46
		c0-1.093-0.602-1.723-1.471-1.723s-1.499,0.616-1.499,1.723v0.057h2.97V605.46z"/>
	<path fill="#5BA4C2" d="M526.821,612.94c-0.308,0-0.588-0.028-0.925-0.084c-0.182-0.028-0.266-0.112-0.266-0.253v-0.91
		c0-0.14,0.112-0.224,0.294-0.224h0.63c0.448,0,0.49-0.183,0.49-0.743v-8.208c0-0.154,0.126-0.28,0.28-0.28h1.289
		c0.154,0,0.28,0.126,0.28,0.28v8.208C528.894,612.435,528.124,612.94,526.821,612.94z M528.642,601.187h-1.345
		c-0.154,0-0.28-0.126-0.28-0.28v-1.232c0-0.154,0.126-0.28,0.28-0.28h1.345c0.154,0,0.294,0.126,0.294,0.28v1.232
		C528.937,601.061,528.796,601.187,528.642,601.187z"/>
	<path fill="#5BA4C2" d="M533.865,610.251c-2.199,0-3.348-1.485-3.348-3.488v-1.135c0-2.003,1.148-3.487,3.348-3.487
		s3.348,1.484,3.348,3.487v1.135C537.213,608.765,536.064,610.251,533.865,610.251z M535.364,605.628
		c0-1.148-0.519-1.891-1.499-1.891s-1.499,0.742-1.499,1.891v1.135c0,1.148,0.518,1.892,1.499,1.892s1.499-0.743,1.499-1.892
		V605.628z"/>
	<path fill="#5BA4C2" d="M542.573,603.709c-0.756,0-1.345,0.196-1.933,0.505v5.631c0,0.154-0.126,0.294-0.28,0.294h-1.289
		c-0.154,0-0.28-0.14-0.28-0.294v-7.326c0-0.154,0.126-0.28,0.28-0.28h1.219c0.154,0,0.28,0.126,0.28,0.28v0.294
		c0.687-0.532,1.443-0.672,2.003-0.672c0.154,0,0.28,0.126,0.28,0.28v1.008C542.853,603.583,542.727,603.709,542.573,603.709z"/>
	<path fill="#5BA4C2" d="M549.28,610.138h-1.19c-0.154,0-0.28-0.126-0.28-0.28v-0.224c-0.644,0.392-1.303,0.616-1.975,0.616
		c-1.163,0-2.423-0.448-2.423-2.34v-0.056c0-1.597,0.98-2.424,3.418-2.424h0.882v-0.616c0-0.91-0.406-1.134-1.232-1.134
		c-0.896,0-1.821,0.056-2.283,0.111c-0.028,0-0.056,0-0.07,0c-0.14,0-0.252-0.042-0.252-0.238v-0.896
		c0-0.153,0.084-0.252,0.266-0.294c0.56-0.112,1.373-0.224,2.339-0.224c1.989,0,3.082,0.882,3.082,2.675v5.043
		C549.561,610.012,549.435,610.138,549.28,610.138z M547.711,606.665h-0.882c-1.275,0-1.555,0.406-1.555,1.19v0.056
		c0,0.687,0.308,0.869,1.008,0.869c0.504,0,1.022-0.168,1.429-0.393V606.665z"/>
	<path fill="#5BA4C2" d="M559.023,610.152c-0.336,0.057-0.644,0.099-0.953,0.099c-1.583,0-2.227-0.351-2.227-2.228v-4.398
		l-1.316-0.196c-0.154-0.027-0.28-0.126-0.28-0.28v-0.63c0-0.154,0.126-0.28,0.28-0.28h1.316v-1.148c0-0.154,0.126-0.252,0.28-0.28
		l1.303-0.224c0.014,0,0.042,0,0.056,0c0.126,0,0.224,0.069,0.224,0.21v1.442h1.26c0.154,0,0.28,0.126,0.28,0.28v0.826
		c0,0.154-0.126,0.28-0.28,0.28h-1.26v4.398c0,0.7,0.042,0.784,0.546,0.784h0.743c0.182,0,0.294,0.07,0.294,0.21v0.883
		C559.289,610.041,559.205,610.125,559.023,610.152z"/>
	<path fill="#5BA4C2" d="M566.739,610.138h-1.289c-0.154,0-0.28-0.126-0.28-0.28v-0.322c-0.729,0.477-1.303,0.7-2.199,0.7
		c-0.701,0-1.317-0.182-1.723-0.588c-0.518-0.519-0.7-1.387-0.7-2.55v-4.566c0-0.153,0.126-0.294,0.28-0.294h1.289
		c0.154,0,0.28,0.141,0.28,0.294v4.566c0,0.701,0.056,1.107,0.322,1.345c0.196,0.169,0.435,0.253,0.869,0.253
		c0.518,0,1.19-0.351,1.583-0.561v-5.604c0-0.153,0.126-0.294,0.28-0.294h1.289c0.154,0,0.28,0.141,0.28,0.294v7.326
		C567.019,610.012,566.893,610.138,566.739,610.138z"/>
	<path fill="#5BA4C2" d="M575.528,610.251c-0.336,0-0.826-0.028-1.345-0.099v2.479c0,0.154-0.126,0.28-0.28,0.28h-1.289
		c-0.154,0-0.28-0.126-0.28-0.28v-9.749c0-0.21,0.056-0.294,0.378-0.378c0.869-0.225,1.919-0.364,2.815-0.364
		c2.255,0,3.348,1.33,3.348,3.516v1.078C578.876,608.92,577.784,610.251,575.528,610.251z M577.027,605.656
		c0-1.148-0.294-2.003-1.499-2.003c-0.504,0-1.079,0.042-1.345,0.098v4.889c0.393,0.057,1.009,0.099,1.345,0.099
		c1.205,0,1.499-0.854,1.499-2.004V605.656z"/>
	<path fill="#5BA4C2" d="M584.195,603.709c-0.756,0-1.345,0.196-1.933,0.505v5.631c0,0.154-0.126,0.294-0.28,0.294h-1.289
		c-0.154,0-0.28-0.14-0.28-0.294v-7.326c0-0.154,0.126-0.28,0.28-0.28h1.219c0.154,0,0.28,0.126,0.28,0.28v0.294
		c0.687-0.532,1.443-0.672,2.003-0.672c0.154,0,0.28,0.126,0.28,0.28v1.008C584.475,603.583,584.349,603.709,584.195,603.709z"/>
	<path fill="#5BA4C2" d="M591.574,606.833h-4.566v0.042c0,0.812,0.336,1.779,1.681,1.779c1.022,0,1.989-0.084,2.578-0.141
		c0.014,0,0.028,0,0.042,0c0.14,0,0.252,0.07,0.252,0.21v0.925c0,0.224-0.042,0.322-0.294,0.364
		c-0.911,0.168-1.457,0.238-2.718,0.238c-1.4,0-3.39-0.757-3.39-3.517v-1.036c0-2.186,1.219-3.558,3.362-3.558
		c2.157,0,3.334,1.471,3.334,3.558v0.784C591.854,606.707,591.77,606.833,591.574,606.833z M589.991,605.46
		c0-1.093-0.602-1.723-1.471-1.723s-1.499,0.616-1.499,1.723v0.057h2.97V605.46z"/>
	<path fill="#5BA4C2" d="M595.997,610.251c-0.546,0-1.723-0.07-2.508-0.28c-0.168-0.042-0.266-0.154-0.266-0.322v-0.841
		c0-0.111,0.098-0.224,0.238-0.224c0.028,0,0.042,0,0.056,0c0.672,0.084,1.933,0.154,2.353,0.154c0.869,0,0.995-0.295,0.995-0.673
		c0-0.266-0.168-0.435-0.616-0.714l-1.919-1.177c-0.687-0.421-1.177-1.121-1.177-1.934c0-1.4,0.882-2.101,2.662-2.101
		c1.134,0,1.779,0.126,2.493,0.28c0.168,0.042,0.252,0.153,0.252,0.321v0.812c0,0.169-0.084,0.267-0.224,0.267
		c-0.028,0-0.042,0-0.056,0c-0.393-0.056-1.513-0.168-2.312-0.168c-0.672,0-0.966,0.154-0.966,0.588c0,0.225,0.21,0.364,0.56,0.574
		l1.835,1.121c1.177,0.714,1.345,1.415,1.345,2.129C598.742,609.284,597.832,610.251,595.997,610.251z"/>
	<path fill="#5BA4C2" d="M601.932,601.187h-1.359c-0.154,0-0.294-0.126-0.294-0.28v-1.232c0-0.154,0.14-0.28,0.294-0.28h1.359
		c0.154,0,0.28,0.126,0.28,0.28v1.232C602.212,601.061,602.085,601.187,601.932,601.187z M601.89,610.138h-1.289
		c-0.154,0-0.28-0.14-0.28-0.294v-7.326c0-0.154,0.126-0.28,0.28-0.28h1.289c0.154,0,0.28,0.126,0.28,0.28v7.326
		C602.169,609.999,602.043,610.138,601.89,610.138z"/>
	<path fill="#5BA4C2" d="M607.14,610.251c-2.199,0-3.348-1.485-3.348-3.488v-1.135c0-2.003,1.148-3.487,3.348-3.487
		s3.348,1.484,3.348,3.487v1.135C610.488,608.765,609.339,610.251,607.14,610.251z M608.639,605.628
		c0-1.148-0.519-1.891-1.499-1.891s-1.499,0.742-1.499,1.891v1.135c0,1.148,0.518,1.892,1.499,1.892s1.499-0.743,1.499-1.892
		V605.628z M609.241,599.436l-1.653,1.737c-0.112,0.126-0.168,0.182-0.336,0.182h-1.205c-0.084,0-0.126-0.042-0.126-0.098
		c0-0.042,0.014-0.098,0.056-0.14l1.331-1.682c0.126-0.153,0.182-0.21,0.364-0.21h1.471c0.098,0,0.154,0.042,0.154,0.099
		C609.297,599.352,609.284,599.394,609.241,599.436z"/>
	<path fill="#5BA4C2" d="M618.258,610.138h-1.289c-0.154,0-0.28-0.14-0.28-0.294v-4.566c0-1.219-0.112-1.569-1.191-1.569
		c-0.476,0-0.995,0.196-1.583,0.505v5.631c0,0.154-0.126,0.294-0.28,0.294h-1.289c-0.154,0-0.28-0.14-0.28-0.294v-7.326
		c0-0.154,0.126-0.28,0.28-0.28h1.219c0.154,0,0.28,0.126,0.28,0.28v0.294c0.812-0.518,1.345-0.672,2.269-0.672
		c2.017,0,2.423,1.358,2.423,3.138v4.566C618.538,609.999,618.412,610.138,618.258,610.138z"/>
	<path fill="#5BA4C2" d="M630.424,602.56l-2.339,8.181c-0.434,1.526-0.952,2.199-2.857,2.199c-0.462,0-1.163-0.084-1.485-0.183
		c-0.154-0.042-0.294-0.098-0.294-0.238v-0.896c0-0.153,0.126-0.252,0.28-0.252c0.014,0,0.014,0,0.028,0
		c0.392,0.015,1.19,0.084,1.583,0.084c0.602,0,0.91-0.168,1.106-0.896l0.112-0.42h-0.21c-0.406,0-0.911-0.098-1.219-1.163
		l-1.835-6.415c-0.014-0.042-0.014-0.07-0.014-0.098c0-0.141,0.084-0.225,0.267-0.225h1.415c0.126,0,0.238,0.126,0.266,0.252
		l1.415,5.701c0.056,0.238,0.112,0.309,0.196,0.309h0.014c0.028,0,0.056,0,0.07,0c0.042,0,0.042,0,0.042,0l1.513-6.023
		c0.028-0.126,0.14-0.238,0.28-0.238h1.429c0.14,0,0.252,0.112,0.252,0.238C630.438,602.505,630.438,602.532,630.424,602.56z"/>
	<path fill="#5BA4C2" d="M639.915,610.068c-0.322,0.084-0.952,0.183-1.807,0.183c-1.821,0-3.194-1.121-3.194-3.404v-1.303
		c0-2.283,1.373-3.403,3.194-3.403c0.854,0,1.485,0.098,1.807,0.182c0.238,0.057,0.294,0.141,0.294,0.364v0.91
		c0,0.141-0.112,0.211-0.252,0.211c-0.014,0-0.028,0-0.042,0c-0.56-0.07-0.896-0.099-1.807-0.099c-0.659,0-1.345,0.379-1.345,1.835
		v1.303c0,1.457,0.686,1.835,1.345,1.835c0.91,0,1.247-0.027,1.807-0.098c0.014,0,0.028,0,0.042,0c0.14,0,0.252,0.07,0.252,0.21
		v0.91C640.209,609.928,640.153,610.012,639.915,610.068z"/>
	<path fill="#5BA4C2" d="M643.399,601.187h-1.358c-0.154,0-0.295-0.126-0.295-0.28v-1.232c0-0.154,0.141-0.28,0.295-0.28h1.358
		c0.153,0,0.28,0.126,0.28,0.28v1.232C643.68,601.061,643.553,601.187,643.399,601.187z M643.357,610.138h-1.289
		c-0.154,0-0.279-0.14-0.279-0.294v-7.326c0-0.154,0.125-0.28,0.279-0.28h1.289c0.154,0,0.279,0.126,0.279,0.28v7.326
		C643.637,609.999,643.512,610.138,643.357,610.138z"/>
	<path fill="#5BA4C2" d="M649.279,603.709c-0.756,0-1.344,0.196-1.933,0.505v5.631c0,0.154-0.126,0.294-0.28,0.294h-1.289
		c-0.153,0-0.279-0.14-0.279-0.294v-7.326c0-0.154,0.126-0.28,0.279-0.28h1.219c0.154,0,0.281,0.126,0.281,0.28v0.294
		c0.686-0.532,1.442-0.672,2.002-0.672c0.154,0,0.281,0.126,0.281,0.28v1.008C649.561,603.583,649.434,603.709,649.279,603.709z"/>
	<path fill="#5BA4C2" d="M655.258,610.068c-0.321,0.084-0.951,0.183-1.807,0.183c-1.82,0-3.193-1.121-3.193-3.404v-1.303
		c0-2.283,1.373-3.403,3.193-3.403c0.855,0,1.485,0.098,1.807,0.182c0.238,0.057,0.295,0.141,0.295,0.364v0.91
		c0,0.141-0.112,0.211-0.252,0.211c-0.014,0-0.028,0-0.043,0c-0.56-0.07-0.896-0.099-1.807-0.099c-0.658,0-1.344,0.379-1.344,1.835
		v1.303c0,1.457,0.686,1.835,1.344,1.835c0.91,0,1.247-0.027,1.807-0.098c0.015,0,0.029,0,0.043,0c0.14,0,0.252,0.07,0.252,0.21
		v0.91C655.553,609.928,655.496,610.012,655.258,610.068z"/>
	<path fill="#5BA4C2" d="M663.281,610.138h-1.289c-0.154,0-0.279-0.126-0.279-0.28v-0.322c-0.729,0.477-1.303,0.7-2.199,0.7
		c-0.701,0-1.317-0.182-1.724-0.588c-0.519-0.519-0.7-1.387-0.7-2.55v-4.566c0-0.153,0.126-0.294,0.279-0.294h1.289
		c0.154,0,0.28,0.141,0.28,0.294v4.566c0,0.701,0.056,1.107,0.322,1.345c0.196,0.169,0.435,0.253,0.868,0.253
		c0.519,0,1.191-0.351,1.584-0.561v-5.604c0-0.153,0.125-0.294,0.279-0.294h1.289c0.154,0,0.279,0.141,0.279,0.294v7.326
		C663.561,610.012,663.436,610.138,663.281,610.138z"/>
	<path fill="#5BA4C2" d="M667.031,610.138h-1.303c-0.154,0-0.281-0.14-0.281-0.294v-10.086c0-0.153,0.127-0.28,0.281-0.28h1.303
		c0.153,0,0.266,0.127,0.266,0.28v10.086C667.297,609.999,667.185,610.138,667.031,610.138z"/>
	<path fill="#5BA4C2" d="M674.761,610.138h-1.19c-0.154,0-0.28-0.126-0.28-0.28v-0.224c-0.644,0.392-1.303,0.616-1.976,0.616
		c-1.162,0-2.423-0.448-2.423-2.34v-0.056c0-1.597,0.98-2.424,3.418-2.424h0.882v-0.616c0-0.91-0.406-1.134-1.232-1.134
		c-0.896,0-1.82,0.056-2.283,0.111c-0.027,0-0.056,0-0.07,0c-0.14,0-0.252-0.042-0.252-0.238v-0.896
		c0-0.153,0.084-0.252,0.267-0.294c0.56-0.112,1.372-0.224,2.339-0.224c1.989,0,3.082,0.882,3.082,2.675v5.043
		C675.041,610.012,674.915,610.138,674.761,610.138z M673.191,606.665h-0.882c-1.274,0-1.555,0.406-1.555,1.19v0.056
		c0,0.687,0.308,0.869,1.009,0.869c0.504,0,1.021-0.168,1.428-0.393V606.665z"/>
	<path fill="#5BA4C2" d="M681.578,610.068c-0.322,0.084-0.953,0.183-1.807,0.183c-1.822,0-3.194-1.121-3.194-3.404v-1.303
		c0-2.283,1.372-3.403,3.194-3.403c0.854,0,1.484,0.098,1.807,0.182c0.238,0.057,0.294,0.141,0.294,0.364v0.91
		c0,0.141-0.112,0.211-0.253,0.211c-0.014,0-0.027,0-0.041,0c-0.561-0.07-0.896-0.099-1.807-0.099c-0.659,0-1.346,0.379-1.346,1.835
		v1.303c0,1.457,0.687,1.835,1.346,1.835c0.91,0,1.246-0.027,1.807-0.098c0.014,0,0.027,0,0.041,0c0.141,0,0.253,0.07,0.253,0.21
		v0.91C681.872,609.928,681.816,610.012,681.578,610.068z"/>
	<path fill="#5BA4C2" d="M685.062,601.187h-1.359c-0.153,0-0.293-0.126-0.293-0.28v-1.232c0-0.154,0.14-0.28,0.293-0.28h1.359
		c0.154,0,0.28,0.126,0.28,0.28v1.232C685.343,601.061,685.217,601.187,685.062,601.187z M685.021,610.138h-1.288
		c-0.154,0-0.281-0.14-0.281-0.294v-7.326c0-0.154,0.127-0.28,0.281-0.28h1.288c0.153,0,0.28,0.126,0.28,0.28v7.326
		C685.301,609.999,685.174,610.138,685.021,610.138z"/>
	<path fill="#5BA4C2" d="M690.271,610.251c-2.199,0-3.348-1.485-3.348-3.488v-1.135c0-2.003,1.148-3.487,3.348-3.487
		s3.349,1.484,3.349,3.487v1.135C693.619,608.765,692.47,610.251,690.271,610.251z M691.77,605.628c0-1.148-0.519-1.891-1.499-1.891
		s-1.499,0.742-1.499,1.891v1.135c0,1.148,0.519,1.892,1.499,1.892s1.499-0.743,1.499-1.892V605.628z M692.371,599.436l-1.652,1.737
		c-0.111,0.126-0.168,0.182-0.336,0.182h-1.205c-0.084,0-0.125-0.042-0.125-0.098c0-0.042,0.014-0.098,0.055-0.14l1.332-1.682
		c0.125-0.153,0.182-0.21,0.363-0.21h1.471c0.098,0,0.154,0.042,0.154,0.099C692.428,599.352,692.414,599.394,692.371,599.436z"/>
	<path fill="#5BA4C2" d="M701.389,610.138H700.1c-0.154,0-0.279-0.14-0.279-0.294v-4.566c0-1.219-0.113-1.569-1.191-1.569
		c-0.477,0-0.994,0.196-1.583,0.505v5.631c0,0.154-0.126,0.294-0.28,0.294h-1.289c-0.153,0-0.279-0.14-0.279-0.294v-7.326
		c0-0.154,0.126-0.28,0.279-0.28h1.219c0.154,0,0.281,0.126,0.281,0.28v0.294c0.812-0.518,1.344-0.672,2.269-0.672
		c2.017,0,2.423,1.358,2.423,3.138v4.566C701.668,609.999,701.543,610.138,701.389,610.138z"/>
	<path fill="#5BA4C2" d="M709.549,610.251c-0.547,0-1.723-0.07-2.508-0.28c-0.168-0.042-0.266-0.154-0.266-0.322v-0.841
		c0-0.111,0.098-0.224,0.238-0.224c0.027,0,0.041,0,0.056,0c0.673,0.084,1.933,0.154,2.353,0.154c0.869,0,0.995-0.295,0.995-0.673
		c0-0.266-0.168-0.435-0.616-0.714l-1.919-1.177c-0.687-0.421-1.177-1.121-1.177-1.934c0-1.4,0.883-2.101,2.662-2.101
		c1.134,0,1.778,0.126,2.492,0.28c0.168,0.042,0.252,0.153,0.252,0.321v0.812c0,0.169-0.084,0.267-0.224,0.267
		c-0.028,0-0.042,0-0.056,0c-0.393-0.056-1.514-0.168-2.312-0.168c-0.673,0-0.966,0.154-0.966,0.588c0,0.225,0.209,0.364,0.56,0.574
		l1.835,1.121c1.177,0.714,1.345,1.415,1.345,2.129C712.294,609.284,711.384,610.251,709.549,610.251z"/>
	<path fill="#5BA4C2" d="M719.406,610.138h-1.191c-0.154,0-0.279-0.126-0.279-0.28v-0.224c-0.645,0.392-1.303,0.616-1.976,0.616
		c-1.163,0-2.423-0.448-2.423-2.34v-0.056c0-1.597,0.98-2.424,3.418-2.424h0.882v-0.616c0-0.91-0.406-1.134-1.232-1.134
		c-0.896,0-1.821,0.056-2.283,0.111c-0.028,0-0.056,0-0.07,0c-0.14,0-0.252-0.042-0.252-0.238v-0.896
		c0-0.153,0.084-0.252,0.267-0.294c0.561-0.112,1.372-0.224,2.339-0.224c1.989,0,3.081,0.882,3.081,2.675v5.043
		C719.686,610.012,719.561,610.138,719.406,610.138z M717.837,606.665h-0.882c-1.275,0-1.555,0.406-1.555,1.19v0.056
		c0,0.687,0.308,0.869,1.008,0.869c0.504,0,1.022-0.168,1.429-0.393V606.665z"/>
	<path fill="#5BA4C2" d="M727.694,610.138h-1.289c-0.153,0-0.28-0.14-0.28-0.294v-4.566c0-1.219-0.111-1.569-1.19-1.569
		c-0.476,0-0.995,0.196-1.583,0.505v5.631c0,0.154-0.126,0.294-0.279,0.294h-1.289c-0.154,0-0.28-0.14-0.28-0.294v-7.326
		c0-0.154,0.126-0.28,0.28-0.28h1.219c0.154,0,0.279,0.126,0.279,0.28v0.294c0.812-0.518,1.346-0.672,2.27-0.672
		c2.018,0,2.424,1.358,2.424,3.138v4.566C727.975,609.999,727.848,610.138,727.694,610.138z"/>
	<path fill="#5BA4C2" d="M736.444,603.512l-0.462,0.183c0.225,0.322,0.35,0.63,0.35,1.12v0.099c0,1.751-1.204,2.549-3.319,2.549
		c-0.743,0-1.247-0.126-1.526-0.238c-0.168,0.112-0.238,0.238-0.238,0.364c0,0.28,0.154,0.393,0.477,0.463l1.652,0.392
		c1.904,0.448,3.138,0.743,3.138,2.241v0.099c0,1.429-1.051,2.199-3.433,2.199c-2.269,0-3.473-0.854-3.473-2.325v-0.126
		c0-0.574,0.266-1.135,0.714-1.541c-0.392-0.294-0.63-0.784-0.63-1.289v-0.014c0-0.435,0.182-0.868,0.56-1.135
		c-0.42-0.435-0.574-0.938-0.574-1.639v-0.099c0-1.4,0.911-2.577,3.334-2.577h3.278c0.209,0,0.377,0.168,0.377,0.378v0.589
		C736.668,603.415,736.613,603.443,736.444,603.512z M734.666,610.684c0-0.308-0.183-0.49-1.653-0.84l-1.247-0.294
		c-0.21,0.294-0.35,0.476-0.35,0.98v0.126c0,0.574,0.35,0.924,1.666,0.924c1.346,0,1.584-0.294,1.584-0.798V610.684z
		 M734.512,604.844c0-0.672-0.295-1.19-1.499-1.19c-1.19,0-1.513,0.532-1.513,1.19v0.112c0,0.519,0.21,1.106,1.513,1.106
		c1.163,0,1.499-0.406,1.499-1.106V604.844z"/>
	<path fill="#5BA4C2" d="M744.158,610.138h-1.289c-0.154,0-0.279-0.126-0.279-0.28v-0.322c-0.729,0.477-1.303,0.7-2.199,0.7
		c-0.701,0-1.317-0.182-1.724-0.588c-0.519-0.519-0.7-1.387-0.7-2.55v-4.566c0-0.153,0.126-0.294,0.279-0.294h1.289
		c0.154,0,0.28,0.141,0.28,0.294v4.566c0,0.701,0.056,1.107,0.322,1.345c0.196,0.169,0.435,0.253,0.868,0.253
		c0.519,0,1.191-0.351,1.584-0.561v-5.604c0-0.153,0.125-0.294,0.279-0.294h1.289c0.154,0,0.279,0.141,0.279,0.294v7.326
		C744.438,610.012,744.312,610.138,744.158,610.138z"/>
	<path fill="#5BA4C2" d="M749.519,599.436l-1.653,1.737c-0.111,0.126-0.168,0.182-0.336,0.182h-1.205
		c-0.084,0-0.125-0.042-0.125-0.098c0-0.042,0.014-0.098,0.056-0.14l1.331-1.682c0.125-0.153,0.182-0.21,0.363-0.21h1.471
		c0.099,0,0.154,0.042,0.154,0.099C749.574,599.352,749.561,599.394,749.519,599.436z M748.16,609.844
		c0,0.154-0.127,0.294-0.281,0.294h-1.288c-0.153,0-0.294-0.14-0.294-0.294v-7.326c0-0.154,0.126-0.28,0.279-0.28h1.289
		c0.154,0,0.281,0.126,0.281,0.28v7.326H748.16z"/>
	<path fill="#5BA4C2" d="M756.198,610.138h-1.289c-0.153,0-0.28-0.14-0.28-0.294v-4.566c0-1.219-0.111-1.569-1.19-1.569
		c-0.476,0-0.995,0.196-1.583,0.505v5.631c0,0.154-0.126,0.294-0.279,0.294h-1.289c-0.154,0-0.28-0.14-0.28-0.294v-7.326
		c0-0.154,0.126-0.28,0.28-0.28h1.219c0.154,0,0.279,0.126,0.279,0.28v0.294c0.812-0.518,1.346-0.672,2.27-0.672
		c2.018,0,2.424,1.358,2.424,3.138v4.566C756.479,609.999,756.352,610.138,756.198,610.138z"/>
	<path fill="#5BA4C2" d="M764.472,606.833h-4.566v0.042c0,0.812,0.336,1.779,1.681,1.779c1.022,0,1.989-0.084,2.578-0.141
		c0.014,0,0.027,0,0.041,0c0.141,0,0.252,0.07,0.252,0.21v0.925c0,0.224-0.041,0.322-0.293,0.364
		c-0.911,0.168-1.457,0.238-2.719,0.238c-1.4,0-3.389-0.757-3.389-3.517v-1.036c0-2.186,1.219-3.558,3.361-3.558
		c2.157,0,3.334,1.471,3.334,3.558v0.784C764.752,606.707,764.668,606.833,764.472,606.833z M762.889,605.46
		c0-1.093-0.602-1.723-1.471-1.723s-1.499,0.616-1.499,1.723v0.057h2.97V605.46z"/>
	<path fill="#5BA4C2" d="M771.905,610.138h-1.19c-0.154,0-0.28-0.126-0.28-0.28v-0.224c-0.644,0.392-1.303,0.616-1.976,0.616
		c-1.162,0-2.423-0.448-2.423-2.34v-0.056c0-1.597,0.98-2.424,3.418-2.424h0.882v-0.616c0-0.91-0.406-1.134-1.232-1.134
		c-0.896,0-1.82,0.056-2.283,0.111c-0.027,0-0.056,0-0.07,0c-0.14,0-0.252-0.042-0.252-0.238v-0.896
		c0-0.153,0.084-0.252,0.267-0.294c0.56-0.112,1.372-0.224,2.339-0.224c1.989,0,3.082,0.882,3.082,2.675v5.043
		C772.186,610.012,772.06,610.138,771.905,610.138z M770.336,606.665h-0.882c-1.274,0-1.555,0.406-1.555,1.19v0.056
		c0,0.687,0.308,0.869,1.009,0.869c0.504,0,1.021-0.168,1.428-0.393V606.665z"/>
</g>
</svg>
