<?xml version="1.0" encoding="utf-8"?>
<!-- Generator: Adobe Illustrator 16.0.0, SVG Export Plug-In . SVG Version: 6.00 Build 0)  -->
<!DOCTYPE svg PUBLIC "-//W3C//DTD SVG 1.1//EN" "http://www.w3.org/Graphics/SVG/1.1/DTD/svg11.dtd">
<svg version="1.1" id="Layer_1" xmlns="http://www.w3.org/2000/svg" xmlns:xlink="http://www.w3.org/1999/xlink" x="0px" y="0px"
	 width="1280px" height="700px" viewBox="0 0 1280 700" enable-background="new 0 0 1280 700" xml:space="preserve">
<g id="Miscelaneas">
	<g>
		<g>
			<g>
				<path fill="none" stroke="#5BA4C2" stroke-width="0.75" stroke-miterlimit="10" d="M640.3,654c0,0,0-14.3,0-19.3
					c0-3.1,1-4.1,3.7-4.1s189.9,0,189.9,0c3,0,3.8-1.4,3.8-5c0-3.4-0.3-9.3-0.3-13c0-3.5,0.899-5.4,3.3-6v-0.2
					c-2.4-0.7-3.3-2.4-3.3-6c0-3.8,0.3-6.6,0.3-10"/>
			</g>
			<g>
				<path fill="none" stroke="#5BA4C2" stroke-width="0.75" stroke-miterlimit="10" d="M444,590.2c0,3.4,0.3,6.3,0.3,10
					c0,3.601-0.899,5.4-3.3,6v0.2c2.4,0.7,3.3,2.5,3.3,6c0,3.8-0.3,9.6-0.3,13c0,3.6,0.8,5,3.8,5c0,0,186.2,0,188.9,0
					c2.699,0,3.7,1,3.7,4.1c0,5,0,19.301,0,19.301"/>
			</g>
		</g>
		<g>
			<g>
				<path fill="#5BA4C2" d="M643.8,653.9L643.8,653.9l-3.5-6.9l0,0l0,0l0,0l0,0l-3.7,6.801l0,0c-0.3,0.6-0.5,1.3-0.6,2
					c0,2.3,1.8,4.1,4.1,4.199c2.301,0,4.101-1.8,4.2-4.1C644.3,655.2,644.1,654.5,643.8,653.9z"/>
				<g>
					<g>
						<path fill="#72ADC8" d="M639,659C638.9,659,638.9,659,639,659c-2.1-0.399-2.4-2.6-2.3-3.699c0-0.2,0.2-0.301,0.399-0.301
							c0.2,0,0.301,0.2,0.301,0.4c0,0.1-0.301,2.5,1.6,2.9c0.2,0,0.3,0.2,0.3,0.399C639.3,658.9,639.1,659,639,659z"/>
					</g>
				</g>
			</g>
			<path fill="#72ADC8" d="M644.3,655.9c0-0.7-0.2-1.4-0.5-2l0,0l-3.5-6.9l0,0l0,0l0,0v13C642.5,659.9,644.3,658.2,644.3,655.9z"/>
			<g>
				<g>
					<path fill="#E2D4D5" d="M641.9,653.4l-0.801-2c-0.1-0.1-0.1-0.4,0-0.4c0.101,0,0.301,0.101,0.301,0.301l1,1.899
						c0.1,0.101,0,0.4-0.101,0.5C642.2,653.7,642,653.6,641.9,653.4z"/>
				</g>
				<ellipse fill="#E2D4D5" cx="642.582" cy="654.281" rx="0.4" ry="0.4"/>
			</g>
		</g>
		<g>
			<g>
				<path fill="#5BA4C2" d="M644,665.9L644,665.9l-1.9-3.8l0,0l0,0l0,0l0,0l-2,3.7l0,0c-0.199,0.3-0.3,0.7-0.3,1.1
					c0,1.3,1,2.3,2.2,2.3c1.3,0,2.3-1,2.3-2.2C644.3,666.6,644.2,666.2,644,665.9z"/>
				<g>
					<g>
						<path fill="#72ADC8" d="M641.3,668.7L641.3,668.7c-1.2-0.2-1.3-1.399-1.3-2c0-0.1,0.1-0.2,0.2-0.2c0.1,0,0.2,0.101,0.2,0.2
							c0,0.101-0.101,1.4,0.899,1.601c0.101,0,0.2,0.1,0.2,0.199C641.5,668.7,641.4,668.7,641.3,668.7z"/>
					</g>
				</g>
			</g>
			<path fill="#72ADC8" d="M644.3,667c0-0.399-0.1-0.8-0.3-1.1l0,0l-1.9-3.8l0,0l0,0l0,0v7.2C643.3,669.2,644.3,668.2,644.3,667z"/>
			<g>
				<g>
					<path fill="#E2D4D5" d="M643,665.6l-0.4-1.101c0-0.1-0.1-0.199,0-0.199c0.101,0,0.2,0.1,0.2,0.1l0.5,1.1
						c0,0.101,0,0.2-0.1,0.301C643.1,665.801,643,665.7,643,665.6z"/>
				</g>
				<ellipse fill="#E2D4D5" cx="643.405" cy="666.101" rx="0.2" ry="0.2"/>
			</g>
		</g>
	</g>
</g>
<g enable-background="new    ">
	<path fill="#5BA4C2" d="M510.554,584.56l-2.339,8.181c-0.434,1.526-0.952,2.199-2.857,2.199c-0.462,0-1.163-0.084-1.485-0.183
		c-0.154-0.042-0.294-0.098-0.294-0.238v-0.896c0-0.153,0.126-0.252,0.28-0.252c0.014,0,0.014,0,0.028,0
		c0.392,0.015,1.19,0.084,1.583,0.084c0.602,0,0.91-0.168,1.106-0.896l0.112-0.42h-0.21c-0.406,0-0.911-0.098-1.219-1.163
		l-1.835-6.415c-0.014-0.042-0.014-0.07-0.014-0.098c0-0.141,0.084-0.225,0.267-0.225h1.415c0.126,0,0.238,0.126,0.266,0.252
		l1.415,5.701c0.056,0.238,0.112,0.309,0.196,0.309h0.014c0.028,0,0.056,0,0.07,0c0.042,0,0.042,0,0.042,0l1.513-6.023
		c0.028-0.126,0.14-0.238,0.28-0.238h1.429c0.14,0,0.252,0.112,0.252,0.238C510.568,584.505,510.568,584.532,510.554,584.56z"/>
	<path fill="#5BA4C2" d="M521.516,592.138h-1.289c-0.154,0-0.28-0.126-0.28-0.28v-0.322c-0.729,0.477-1.303,0.7-2.199,0.7
		c-0.701,0-1.317-0.182-1.723-0.588c-0.518-0.519-0.7-1.387-0.7-2.55v-4.566c0-0.153,0.126-0.294,0.28-0.294h1.289
		c0.154,0,0.28,0.141,0.28,0.294v4.566c0,0.701,0.056,1.107,0.322,1.345c0.196,0.169,0.435,0.253,0.869,0.253
		c0.518,0,1.19-0.351,1.583-0.561v-5.604c0-0.153,0.126-0.294,0.28-0.294h1.289c0.154,0,0.28,0.141,0.28,0.294v7.326
		C521.796,592.012,521.67,592.138,521.516,592.138z"/>
	<path fill="#5BA4C2" d="M529.804,592.138h-1.289c-0.154,0-0.28-0.14-0.28-0.294v-4.566c0-1.219-0.112-1.569-1.191-1.569
		c-0.476,0-0.995,0.196-1.583,0.505v5.631c0,0.154-0.126,0.294-0.28,0.294h-1.289c-0.154,0-0.28-0.14-0.28-0.294v-7.326
		c0-0.154,0.126-0.28,0.28-0.28h1.219c0.154,0,0.28,0.126,0.28,0.28v0.294c0.812-0.518,1.345-0.672,2.269-0.672
		c2.017,0,2.423,1.358,2.423,3.138v4.566C530.084,591.999,529.958,592.138,529.804,592.138z"/>
</g>
<g enable-background="new    ">
	<path fill="#2B4E6B" d="M543.677,582.025l-2.087,8.685c-0.322,1.345-1.345,1.555-2.311,1.555c-0.967,0-2.003-0.21-2.325-1.555
		l-2.087-8.685c0-0.028-0.014-0.042-0.014-0.07c0-0.126,0.112-0.224,0.252-0.224h1.947c0.14,0,0.252,0.111,0.28,0.252l1.751,8.082
		c0.028,0.154,0.07,0.21,0.196,0.21s0.168-0.056,0.196-0.21l1.751-8.082c0.028-0.141,0.126-0.252,0.266-0.252h1.961
		c0.14,0,0.238,0.084,0.238,0.224C543.691,581.969,543.677,581.997,543.677,582.025z"/>
	<path fill="#2B4E6B" d="M550.129,592.138h-1.569c-0.154,0-0.28-0.126-0.28-0.28v-0.224c-0.546,0.392-1.107,0.63-1.947,0.63
		c-1.219,0-2.396-0.588-2.396-2.409v-0.126c0-1.639,1.051-2.367,3.446-2.367h0.756v-0.505c0-0.798-0.392-0.966-1.051-0.966
		c-0.896,0-1.891,0.056-2.325,0.098h-0.07c-0.14,0-0.252-0.07-0.252-0.252v-1.135c0-0.154,0.098-0.266,0.266-0.308
		c0.519-0.127,1.499-0.295,2.423-0.295c2.017,0,3.278,0.812,3.278,2.857v5.001C550.41,592.012,550.284,592.138,550.129,592.138z
		 M548.183,588.707h-0.798c-0.98,0-1.233,0.336-1.233,1.022v0.126c0,0.588,0.294,0.7,0.882,0.7c0.42,0,0.812-0.14,1.149-0.308
		V588.707z"/>
	<path fill="#2B4E6B" d="M554.706,592.264c-0.771,0-1.835-0.112-2.549-0.308c-0.168-0.043-0.266-0.154-0.266-0.322V590.5
		c0-0.141,0.098-0.267,0.266-0.267c0.014,0,0.042,0,0.056,0c0.757,0.099,1.933,0.196,2.381,0.196c0.672,0,0.827-0.182,0.827-0.546
		c0-0.21-0.126-0.364-0.519-0.589l-1.821-1.051c-0.784-0.448-1.247-1.162-1.247-2.072c0-1.415,0.938-2.172,2.872-2.172
		c1.106,0,1.779,0.141,2.493,0.322c0.168,0.042,0.266,0.154,0.266,0.322v1.135c0,0.168-0.098,0.266-0.238,0.266
		c-0.014,0-0.028,0-0.042,0c-0.406-0.056-1.611-0.182-2.325-0.182c-0.546,0-0.742,0.084-0.742,0.406c0,0.21,0.154,0.322,0.434,0.49
		l1.737,0.994c1.163,0.673,1.415,1.401,1.415,2.157C557.704,591.228,556.751,592.264,554.706,592.264z"/>
	<path fill="#2B4E6B" d="M562.42,592.264c-2.27,0-3.516-1.415-3.516-3.642v-0.98c0-2.228,1.247-3.643,3.516-3.643
		c2.269,0,3.502,1.415,3.502,3.643v0.98C565.922,590.849,564.689,592.264,562.42,592.264z M563.667,587.642
		c0-1.135-0.434-1.709-1.247-1.709s-1.261,0.574-1.261,1.709v0.98c0,1.135,0.448,1.723,1.261,1.723s1.247-0.588,1.247-1.723V587.642
		z"/>
	<path fill="#2B4E6B" d="M581.296,592.138h-1.695c-0.154,0-0.28-0.14-0.28-0.294v-4.776c0-0.896-0.21-1.163-0.854-1.163
		c-0.238,0-0.658,0.056-1.079,0.252c0.028,0.28,0.042,0.603,0.042,0.911v4.776c0,0.154-0.126,0.294-0.28,0.294h-1.695
		c-0.154,0-0.294-0.14-0.294-0.294v-4.776c0-0.896-0.168-1.163-0.812-1.163c-0.266,0-0.63,0.14-1.064,0.364v5.575
		c0,0.154-0.126,0.294-0.28,0.294h-1.695c-0.154,0-0.294-0.14-0.294-0.294v-7.452c0-0.154,0.126-0.28,0.28-0.28h1.597
		c0.154,0,0.28,0.126,0.28,0.28v0.308c0.588-0.392,1.261-0.7,2.073-0.7c0.742,0,1.261,0.21,1.653,0.687
		c0.812-0.462,1.373-0.687,2.283-0.687c1.849,0,2.409,1.233,2.409,3.068v4.776C581.59,591.999,581.45,592.138,581.296,592.138z"/>
	<path fill="#2B4E6B" d="M589.175,592.138h-1.569c-0.154,0-0.28-0.126-0.28-0.28v-0.224c-0.546,0.392-1.107,0.63-1.947,0.63
		c-1.219,0-2.396-0.588-2.396-2.409v-0.126c0-1.639,1.051-2.367,3.446-2.367h0.756v-0.505c0-0.798-0.392-0.966-1.051-0.966
		c-0.896,0-1.891,0.056-2.325,0.098h-0.07c-0.14,0-0.252-0.07-0.252-0.252v-1.135c0-0.154,0.098-0.266,0.266-0.308
		c0.519-0.127,1.499-0.295,2.423-0.295c2.017,0,3.278,0.812,3.278,2.857v5.001C589.456,592.012,589.33,592.138,589.175,592.138z
		 M587.229,588.707h-0.798c-0.98,0-1.233,0.336-1.233,1.022v0.126c0,0.588,0.294,0.7,0.882,0.7c0.42,0,0.812-0.14,1.149-0.308
		V588.707z M588.881,581.436l-1.709,1.709c-0.112,0.112-0.154,0.168-0.336,0.168h-1.499c-0.084,0-0.126-0.042-0.126-0.098
		c0-0.042,0.014-0.084,0.056-0.14l1.302-1.64c0.126-0.153,0.182-0.21,0.378-0.21h1.835c0.098,0,0.154,0.042,0.154,0.099
		C588.938,581.352,588.923,581.394,588.881,581.436z"/>
	<path fill="#2B4E6B" d="M593.751,592.264c-0.771,0-1.835-0.112-2.549-0.308c-0.168-0.043-0.266-0.154-0.266-0.322V590.5
		c0-0.141,0.098-0.267,0.266-0.267c0.014,0,0.042,0,0.056,0c0.757,0.099,1.933,0.196,2.381,0.196c0.672,0,0.827-0.182,0.827-0.546
		c0-0.21-0.126-0.364-0.519-0.589l-1.821-1.051c-0.784-0.448-1.247-1.162-1.247-2.072c0-1.415,0.938-2.172,2.872-2.172
		c1.106,0,1.779,0.141,2.493,0.322c0.168,0.042,0.266,0.154,0.266,0.322v1.135c0,0.168-0.098,0.266-0.238,0.266
		c-0.014,0-0.028,0-0.042,0c-0.406-0.056-1.611-0.182-2.326-0.182c-0.546,0-0.742,0.084-0.742,0.406c0,0.21,0.154,0.322,0.434,0.49
		l1.737,0.994c1.163,0.673,1.415,1.401,1.415,2.157C596.749,591.228,595.796,592.264,593.751,592.264z"/>
</g>
<g enable-background="new    ">
	<path fill="#5BA4C2" d="M608.368,591.886c-0.868,0.224-1.919,0.364-2.815,0.364c-2.255,0-3.348-1.331-3.348-3.517v-1.078
		c0-2.186,1.093-3.516,3.348-3.516c0.336,0,0.827,0.027,1.345,0.098v-2.479c0-0.153,0.126-0.28,0.28-0.28h1.289
		c0.154,0,0.28,0.127,0.28,0.28v9.75C608.746,591.719,608.69,591.802,608.368,591.886z M606.897,585.751
		c-0.392-0.056-1.008-0.098-1.345-0.098c-1.205,0-1.499,0.854-1.499,2.003v1.078c0,1.149,0.294,2.004,1.499,2.004
		c0.504,0,1.079-0.042,1.345-0.099V585.751z"/>
	<path fill="#5BA4C2" d="M616.74,588.833h-4.566v0.042c0,0.812,0.336,1.779,1.681,1.779c1.022,0,1.989-0.084,2.578-0.141
		c0.014,0,0.028,0,0.042,0c0.14,0,0.252,0.07,0.252,0.21v0.925c0,0.224-0.042,0.322-0.294,0.364
		c-0.911,0.168-1.457,0.238-2.718,0.238c-1.4,0-3.39-0.757-3.39-3.517v-1.036c0-2.186,1.219-3.558,3.362-3.558
		c2.157,0,3.334,1.471,3.334,3.558v0.784C617.021,588.707,616.937,588.833,616.74,588.833z M615.157,587.46
		c0-1.093-0.602-1.723-1.471-1.723s-1.499,0.616-1.499,1.723v0.057h2.97V587.46z"/>
	<path fill="#5BA4C2" d="M621.162,592.251c-0.546,0-1.723-0.07-2.508-0.28c-0.168-0.042-0.266-0.154-0.266-0.322v-0.841
		c0-0.111,0.098-0.224,0.238-0.224c0.028,0,0.042,0,0.056,0c0.672,0.084,1.933,0.154,2.353,0.154c0.869,0,0.995-0.295,0.995-0.673
		c0-0.266-0.168-0.435-0.616-0.714l-1.919-1.177c-0.687-0.421-1.177-1.121-1.177-1.934c0-1.4,0.882-2.101,2.662-2.101
		c1.134,0,1.779,0.126,2.493,0.28c0.168,0.042,0.252,0.153,0.252,0.321v0.812c0,0.169-0.084,0.267-0.224,0.267
		c-0.028,0-0.042,0-0.056,0c-0.393-0.056-1.513-0.168-2.312-0.168c-0.672,0-0.966,0.154-0.966,0.588c0,0.225,0.21,0.364,0.56,0.574
		l1.835,1.121c1.177,0.714,1.345,1.415,1.345,2.129C623.907,591.284,622.997,592.251,621.162,592.251z"/>
	<path fill="#5BA4C2" d="M628.638,592.251c-0.336,0-0.826-0.028-1.345-0.099v2.479c0,0.154-0.126,0.28-0.28,0.28h-1.289
		c-0.154,0-0.28-0.126-0.28-0.28v-9.749c0-0.21,0.056-0.294,0.378-0.378c0.869-0.225,1.919-0.364,2.815-0.364
		c2.255,0,3.348,1.33,3.348,3.516v1.078C631.986,590.92,630.894,592.251,628.638,592.251z M630.137,587.656
		c0-1.148-0.294-2.003-1.499-2.003c-0.504,0-1.079,0.042-1.345,0.098v4.889c0.393,0.057,1.009,0.099,1.345,0.099
		c1.205,0,1.499-0.854,1.499-2.004V587.656z"/>
	<path fill="#5BA4C2" d="M639.714,592.138h-1.289c-0.154,0-0.28-0.126-0.28-0.28v-0.322c-0.729,0.477-1.303,0.7-2.199,0.7
		c-0.701,0-1.317-0.182-1.723-0.588c-0.518-0.519-0.7-1.387-0.7-2.55v-4.566c0-0.153,0.126-0.294,0.28-0.294h1.289
		c0.154,0,0.28,0.141,0.28,0.294v4.566c0,0.701,0.056,1.107,0.322,1.345c0.196,0.169,0.435,0.253,0.869,0.253
		c0.518,0,1.19-0.351,1.583-0.561v-5.604c0-0.153,0.126-0.294,0.28-0.294h1.289c0.154,0,0.28,0.141,0.28,0.294v7.326
		C639.994,592.012,639.868,592.138,639.714,592.138z"/>
	<path fill="#5BA4C2" d="M647.988,588.833h-4.566v0.042c0,0.812,0.336,1.779,1.68,1.779c1.023,0,1.99-0.084,2.578-0.141
		c0.014,0,0.027,0,0.042,0c0.14,0,0.252,0.07,0.252,0.21v0.925c0,0.224-0.042,0.322-0.294,0.364
		c-0.91,0.168-1.457,0.238-2.718,0.238c-1.4,0-3.39-0.757-3.39-3.517v-1.036c0-2.186,1.219-3.558,3.361-3.558
		c2.158,0,3.334,1.471,3.334,3.558v0.784C648.268,588.707,648.184,588.833,647.988,588.833z M646.404,587.46
		c0-1.093-0.602-1.723-1.471-1.723c-0.868,0-1.498,0.616-1.498,1.723v0.057h2.969V587.46z"/>
	<path fill="#5BA4C2" d="M652.409,592.251c-0.546,0-1.723-0.07-2.507-0.28c-0.168-0.042-0.267-0.154-0.267-0.322v-0.841
		c0-0.111,0.099-0.224,0.238-0.224c0.028,0,0.042,0,0.056,0c0.673,0.084,1.934,0.154,2.354,0.154c0.869,0,0.994-0.295,0.994-0.673
		c0-0.266-0.168-0.435-0.615-0.714l-1.92-1.177c-0.686-0.421-1.176-1.121-1.176-1.934c0-1.4,0.882-2.101,2.661-2.101
		c1.134,0,1.778,0.126,2.493,0.28c0.168,0.042,0.252,0.153,0.252,0.321v0.812c0,0.169-0.084,0.267-0.225,0.267
		c-0.027,0-0.041,0-0.055,0c-0.393-0.056-1.514-0.168-2.312-0.168c-0.672,0-0.966,0.154-0.966,0.588c0,0.225,0.21,0.364,0.56,0.574
		l1.836,1.121c1.176,0.714,1.344,1.415,1.344,2.129C655.154,591.284,654.244,592.251,652.409,592.251z"/>
	<path fill="#5BA4C2" d="M666.075,591.886c-0.868,0.224-1.919,0.364-2.815,0.364c-2.255,0-3.348-1.331-3.348-3.517v-1.078
		c0-2.186,1.093-3.516,3.348-3.516c0.336,0,0.826,0.027,1.345,0.098v-2.479c0-0.153,0.126-0.28,0.28-0.28h1.289
		c0.154,0,0.279,0.127,0.279,0.28v9.75C666.453,591.719,666.397,591.802,666.075,591.886z M664.604,585.751
		c-0.392-0.056-1.009-0.098-1.345-0.098c-1.205,0-1.498,0.854-1.498,2.003v1.078c0,1.149,0.293,2.004,1.498,2.004
		c0.504,0,1.078-0.042,1.345-0.099V585.751z"/>
	<path fill="#5BA4C2" d="M674.447,588.833h-4.566v0.042c0,0.812,0.336,1.779,1.682,1.779c1.021,0,1.988-0.084,2.577-0.141
		c0.014,0,0.028,0,0.042,0c0.141,0,0.252,0.07,0.252,0.21v0.925c0,0.224-0.042,0.322-0.294,0.364
		c-0.911,0.168-1.457,0.238-2.718,0.238c-1.4,0-3.39-0.757-3.39-3.517v-1.036c0-2.186,1.219-3.558,3.362-3.558
		c2.156,0,3.334,1.471,3.334,3.558v0.784C674.729,588.707,674.644,588.833,674.447,588.833z M672.865,587.46
		c0-1.093-0.603-1.723-1.471-1.723c-0.869,0-1.5,0.616-1.5,1.723v0.057h2.971V587.46z"/>
	<path fill="#5BA4C2" d="M685.998,592.138h-1.289c-0.154,0-0.28-0.14-0.28-0.294v-4.608c0-1.219-0.21-1.527-1.149-1.527
		c-0.476,0-1.036,0.168-1.625,0.477v5.659c0,0.154-0.125,0.294-0.279,0.294h-1.289c-0.154,0-0.279-0.14-0.279-0.294v-10.086
		c0-0.153,0.125-0.28,0.279-0.28h1.289c0.154,0,0.279,0.127,0.279,0.28v2.899c0.533-0.321,1.121-0.518,2.115-0.518
		c1.934,0,2.508,1.372,2.508,3.096v4.608C686.277,591.999,686.151,592.138,685.998,592.138z"/>
	<path fill="#5BA4C2" d="M693.669,592.138h-1.19c-0.154,0-0.28-0.126-0.28-0.28v-0.224c-0.645,0.392-1.303,0.616-1.976,0.616
		c-1.162,0-2.423-0.448-2.423-2.34v-0.056c0-1.597,0.98-2.424,3.418-2.424h0.882v-0.616c0-0.91-0.406-1.134-1.232-1.134
		c-0.896,0-1.82,0.056-2.283,0.111c-0.027,0-0.056,0-0.07,0c-0.14,0-0.252-0.042-0.252-0.238v-0.896
		c0-0.153,0.084-0.252,0.267-0.294c0.561-0.112,1.372-0.224,2.339-0.224c1.989,0,3.082,0.882,3.082,2.675v5.043
		C693.949,592.012,693.823,592.138,693.669,592.138z M692.1,588.665h-0.882c-1.274,0-1.555,0.406-1.555,1.19v0.056
		c0,0.687,0.308,0.869,1.009,0.869c0.504,0,1.021-0.168,1.428-0.393V588.665z"/>
	<path fill="#5BA4C2" d="M700.486,592.068c-0.322,0.084-0.952,0.183-1.807,0.183c-1.821,0-3.193-1.121-3.193-3.404v-1.303
		c0-2.283,1.372-3.403,3.193-3.403c0.854,0,1.484,0.098,1.807,0.182c0.238,0.057,0.295,0.141,0.295,0.364v0.91
		c0,0.141-0.113,0.211-0.253,0.211c-0.014,0-0.028,0-0.042,0c-0.561-0.07-0.896-0.099-1.807-0.099c-0.658,0-1.345,0.379-1.345,1.835
		v1.303c0,1.457,0.687,1.835,1.345,1.835c0.91,0,1.246-0.027,1.807-0.098c0.014,0,0.028,0,0.042,0c0.14,0,0.253,0.07,0.253,0.21
		v0.91C700.781,591.928,700.725,592.012,700.486,592.068z"/>
	<path fill="#5BA4C2" d="M708.285,588.833h-4.566v0.042c0,0.812,0.336,1.779,1.681,1.779c1.022,0,1.989-0.084,2.577-0.141
		c0.014,0,0.028,0,0.043,0c0.14,0,0.252,0.07,0.252,0.21v0.925c0,0.224-0.043,0.322-0.295,0.364
		c-0.91,0.168-1.457,0.238-2.717,0.238c-1.4,0-3.391-0.757-3.391-3.517v-1.036c0-2.186,1.219-3.558,3.362-3.558
		c2.157,0,3.334,1.471,3.334,3.558v0.784C708.565,588.707,708.481,588.833,708.285,588.833z M706.702,587.46
		c0-1.093-0.603-1.723-1.471-1.723s-1.499,0.616-1.499,1.723v0.057h2.97V587.46z"/>
	<path fill="#5BA4C2" d="M713.926,585.709c-0.757,0-1.346,0.196-1.934,0.505v5.631c0,0.154-0.126,0.294-0.279,0.294h-1.289
		c-0.154,0-0.28-0.14-0.28-0.294v-7.326c0-0.154,0.126-0.28,0.28-0.28h1.219c0.154,0,0.279,0.126,0.279,0.28v0.294
		c0.688-0.532,1.443-0.672,2.004-0.672c0.154,0,0.279,0.126,0.279,0.28v1.008C714.205,585.583,714.08,585.709,713.926,585.709z"/>
	<path fill="#5BA4C2" d="M717.047,592.138h-1.303c-0.154,0-0.281-0.14-0.281-0.294v-10.086c0-0.153,0.127-0.28,0.281-0.28h1.303
		c0.153,0,0.266,0.127,0.266,0.28v10.086C717.312,591.999,717.2,592.138,717.047,592.138z"/>
	<path fill="#5BA4C2" d="M722.311,592.251c-2.199,0-3.348-1.485-3.348-3.488v-1.135c0-2.003,1.148-3.487,3.348-3.487
		s3.349,1.484,3.349,3.487v1.135C725.659,590.765,724.51,592.251,722.311,592.251z M723.811,587.628c0-1.148-0.52-1.891-1.5-1.891
		s-1.498,0.742-1.498,1.891v1.135c0,1.148,0.518,1.892,1.498,1.892s1.5-0.743,1.5-1.892V587.628z"/>
	<path fill="#5BA4C2" d="M729.143,590.275l-1.219,2.941c-0.07,0.169-0.112,0.28-0.267,0.28h-0.966c-0.127,0-0.211-0.084-0.211-0.195
		c0-0.028,0-0.057,0.014-0.085l0.855-2.941c0.056-0.168,0.125-0.266,0.279-0.266h1.346c0.111,0,0.195,0.069,0.195,0.168
		C729.17,590.206,729.156,590.233,729.143,590.275z"/>
	<path fill="#5BA4C2" d="M740.933,584.56l-2.339,8.181c-0.435,1.526-0.953,2.199-2.857,2.199c-0.463,0-1.163-0.084-1.485-0.183
		c-0.153-0.042-0.294-0.098-0.294-0.238v-0.896c0-0.153,0.126-0.252,0.28-0.252c0.014,0,0.014,0,0.028,0
		c0.392,0.015,1.189,0.084,1.582,0.084c0.603,0,0.91-0.168,1.107-0.896l0.111-0.42h-0.21c-0.406,0-0.911-0.098-1.219-1.163
		l-1.835-6.415c-0.014-0.042-0.014-0.07-0.014-0.098c0-0.141,0.084-0.225,0.266-0.225h1.415c0.126,0,0.238,0.126,0.267,0.252
		l1.414,5.701c0.057,0.238,0.112,0.309,0.196,0.309h0.015c0.027,0,0.056,0,0.069,0c0.042,0,0.042,0,0.042,0l1.514-6.023
		c0.027-0.126,0.139-0.238,0.279-0.238h1.429c0.14,0,0.253,0.112,0.253,0.238C740.947,584.505,740.947,584.532,740.933,584.56z"/>
	<path fill="#5BA4C2" d="M747.441,592.138h-1.189c-0.154,0-0.281-0.126-0.281-0.28v-0.224c-0.644,0.392-1.303,0.616-1.975,0.616
		c-1.162,0-2.424-0.448-2.424-2.34v-0.056c0-1.597,0.98-2.424,3.418-2.424h0.883v-0.616c0-0.91-0.406-1.134-1.232-1.134
		c-0.896,0-1.821,0.056-2.283,0.111c-0.028,0-0.057,0-0.07,0c-0.141,0-0.252-0.042-0.252-0.238v-0.896
		c0-0.153,0.084-0.252,0.266-0.294c0.561-0.112,1.373-0.224,2.34-0.224c1.988,0,3.082,0.882,3.082,2.675v5.043
		C747.723,592.012,747.596,592.138,747.441,592.138z M745.873,588.665h-0.883c-1.274,0-1.555,0.406-1.555,1.19v0.056
		c0,0.687,0.309,0.869,1.009,0.869c0.505,0,1.022-0.168,1.429-0.393V588.665z"/>
	<path fill="#5BA4C2" d="M759.02,594.912h-1.288c-0.154,0-0.28-0.126-0.28-0.28v-2.479c-0.518,0.07-1.008,0.099-1.345,0.099
		c-2.255,0-3.348-1.331-3.348-3.517v-1.078c0-2.186,1.093-3.516,3.348-3.516c0.896,0,1.947,0.14,2.815,0.364
		c0.322,0.084,0.379,0.168,0.379,0.378v9.749C759.301,594.786,759.174,594.912,759.02,594.912z M757.451,585.751
		c-0.266-0.056-0.84-0.098-1.345-0.098c-1.204,0-1.499,0.854-1.499,2.003v1.078c0,1.149,0.295,2.004,1.499,2.004
		c0.337,0,0.952-0.042,1.345-0.099V585.751z"/>
	<path fill="#5BA4C2" d="M767.309,592.138h-1.289c-0.154,0-0.279-0.126-0.279-0.28v-0.322c-0.729,0.477-1.303,0.7-2.199,0.7
		c-0.701,0-1.317-0.182-1.724-0.588c-0.519-0.519-0.7-1.387-0.7-2.55v-4.566c0-0.153,0.126-0.294,0.279-0.294h1.289
		c0.154,0,0.28,0.141,0.28,0.294v4.566c0,0.701,0.056,1.107,0.322,1.345c0.196,0.169,0.435,0.253,0.868,0.253
		c0.519,0,1.191-0.351,1.584-0.561v-5.604c0-0.153,0.125-0.294,0.279-0.294h1.289c0.154,0,0.279,0.141,0.279,0.294v7.326
		C767.588,592.012,767.463,592.138,767.309,592.138z"/>
	<path fill="#5BA4C2" d="M775.582,588.833h-4.566v0.042c0,0.812,0.336,1.779,1.681,1.779c1.022,0,1.989-0.084,2.577-0.141
		c0.014,0,0.028,0,0.043,0c0.14,0,0.252,0.07,0.252,0.21v0.925c0,0.224-0.043,0.322-0.295,0.364
		c-0.91,0.168-1.457,0.238-2.717,0.238c-1.4,0-3.391-0.757-3.391-3.517v-1.036c0-2.186,1.219-3.558,3.362-3.558
		c2.157,0,3.334,1.471,3.334,3.558v0.784C775.862,588.707,775.778,588.833,775.582,588.833z M773.999,587.46
		c0-1.093-0.603-1.723-1.471-1.723s-1.499,0.616-1.499,1.723v0.057h2.97V587.46z"/>
</g>
<g enable-background="new    ">
	<path fill="#5BA4C2" d="M471.962,610.138h-1.289c-0.154,0-0.28-0.14-0.28-0.294v-4.763c0-1.079-0.224-1.358-1.009-1.358
		c-0.266,0-0.798,0.084-1.303,0.35c0.042,0.309,0.056,0.658,0.056,1.009v4.763c0,0.154-0.126,0.294-0.28,0.294h-1.289
		c-0.154,0-0.28-0.14-0.28-0.294v-4.763c0-1.079-0.182-1.358-0.966-1.358c-0.294,0-0.714,0.153-1.289,0.462v5.659
		c0,0.154-0.126,0.294-0.28,0.294h-1.289c-0.154,0-0.28-0.14-0.28-0.294v-7.326c0-0.154,0.126-0.28,0.28-0.28h1.219
		c0.154,0,0.28,0.126,0.28,0.28v0.294c0.588-0.378,1.177-0.672,2.003-0.672c0.799,0,1.317,0.238,1.639,0.63
		c0.714-0.392,1.345-0.63,2.311-0.63c1.905,0,2.325,1.303,2.325,2.941v4.763C472.242,609.999,472.116,610.138,471.962,610.138z"/>
	<path fill="#5BA4C2" d="M479.632,610.138h-1.19c-0.154,0-0.28-0.126-0.28-0.28v-0.224c-0.645,0.392-1.303,0.616-1.975,0.616
		c-1.163,0-2.423-0.448-2.423-2.34v-0.056c0-1.597,0.98-2.424,3.418-2.424h0.882v-0.616c0-0.91-0.406-1.134-1.232-1.134
		c-0.896,0-1.821,0.056-2.283,0.111c-0.028,0-0.056,0-0.07,0c-0.14,0-0.252-0.042-0.252-0.238v-0.896
		c0-0.153,0.084-0.252,0.266-0.294c0.561-0.112,1.373-0.224,2.339-0.224c1.989,0,3.082,0.882,3.082,2.675v5.043
		C479.912,610.012,479.786,610.138,479.632,610.138z M478.063,606.665h-0.882c-1.275,0-1.555,0.406-1.555,1.19v0.056
		c0,0.687,0.308,0.869,1.008,0.869c0.504,0,1.022-0.168,1.429-0.393V606.665z"/>
	<path fill="#5BA4C2" d="M487.92,610.138h-1.289c-0.154,0-0.28-0.14-0.28-0.294v-4.566c0-1.219-0.112-1.569-1.191-1.569
		c-0.476,0-0.995,0.196-1.583,0.505v5.631c0,0.154-0.126,0.294-0.28,0.294h-1.289c-0.154,0-0.28-0.14-0.28-0.294v-7.326
		c0-0.154,0.126-0.28,0.28-0.28h1.219c0.154,0,0.28,0.126,0.28,0.28v0.294c0.812-0.518,1.345-0.672,2.269-0.672
		c2.017,0,2.423,1.358,2.423,3.138v4.566C488.2,609.999,488.074,610.138,487.92,610.138z"/>
	<path fill="#5BA4C2" d="M493.883,610.152c-0.336,0.057-0.644,0.099-0.953,0.099c-1.583,0-2.227-0.351-2.227-2.228v-4.398
		l-1.316-0.196c-0.154-0.027-0.28-0.126-0.28-0.28v-0.63c0-0.154,0.126-0.28,0.28-0.28h1.316v-1.148c0-0.154,0.126-0.252,0.28-0.28
		l1.303-0.224c0.014,0,0.042,0,0.056,0c0.126,0,0.224,0.069,0.224,0.21v1.442h1.26c0.154,0,0.28,0.126,0.28,0.28v0.826
		c0,0.154-0.126,0.28-0.28,0.28h-1.26v4.398c0,0.7,0.042,0.784,0.546,0.784h0.743c0.182,0,0.294,0.07,0.294,0.21v0.883
		C494.149,610.041,494.065,610.125,493.883,610.152z"/>
	<path fill="#5BA4C2" d="M497.06,601.187h-1.359c-0.154,0-0.294-0.126-0.294-0.28v-1.232c0-0.154,0.14-0.28,0.294-0.28h1.359
		c0.154,0,0.28,0.126,0.28,0.28v1.232C497.34,601.061,497.213,601.187,497.06,601.187z M497.018,610.138h-1.289
		c-0.154,0-0.28-0.14-0.28-0.294v-7.326c0-0.154,0.126-0.28,0.28-0.28h1.289c0.154,0,0.28,0.126,0.28,0.28v7.326
		C497.298,609.999,497.171,610.138,497.018,610.138z"/>
	<path fill="#5BA4C2" d="M505.336,606.833h-4.566v0.042c0,0.812,0.336,1.779,1.681,1.779c1.022,0,1.989-0.084,2.578-0.141
		c0.014,0,0.028,0,0.042,0c0.14,0,0.252,0.07,0.252,0.21v0.925c0,0.224-0.042,0.322-0.294,0.364
		c-0.911,0.168-1.457,0.238-2.718,0.238c-1.4,0-3.39-0.757-3.39-3.517v-1.036c0-2.186,1.219-3.558,3.362-3.558
		c2.157,0,3.334,1.471,3.334,3.558v0.784C505.616,606.707,505.532,606.833,505.336,606.833z M503.753,605.46
		c0-1.093-0.602-1.723-1.471-1.723s-1.499,0.616-1.499,1.723v0.057h2.97V605.46z"/>
	<path fill="#5BA4C2" d="M513.386,610.138h-1.289c-0.154,0-0.28-0.14-0.28-0.294v-4.566c0-1.219-0.112-1.569-1.191-1.569
		c-0.476,0-0.995,0.196-1.583,0.505v5.631c0,0.154-0.126,0.294-0.28,0.294h-1.289c-0.154,0-0.28-0.14-0.28-0.294v-7.326
		c0-0.154,0.126-0.28,0.28-0.28h1.219c0.154,0,0.28,0.126,0.28,0.28v0.294c0.812-0.518,1.345-0.672,2.269-0.672
		c2.017,0,2.423,1.358,2.423,3.138v4.566C513.666,609.999,513.54,610.138,513.386,610.138z"/>
	<path fill="#5BA4C2" d="M521.66,606.833h-4.566v0.042c0,0.812,0.336,1.779,1.681,1.779c1.022,0,1.989-0.084,2.578-0.141
		c0.014,0,0.028,0,0.042,0c0.14,0,0.252,0.07,0.252,0.21v0.925c0,0.224-0.042,0.322-0.294,0.364
		c-0.911,0.168-1.457,0.238-2.718,0.238c-1.4,0-3.39-0.757-3.39-3.517v-1.036c0-2.186,1.219-3.558,3.362-3.558
		c2.157,0,3.334,1.471,3.334,3.558v0.784C521.94,606.707,521.855,606.833,521.66,606.833z M520.077,605.46
		c0-1.093-0.602-1.723-1.471-1.723s-1.499,0.616-1.499,1.723v0.057h2.97V605.46z"/>
	<path fill="#5BA4C2" d="M526.082,610.251c-0.546,0-1.723-0.07-2.508-0.28c-0.168-0.042-0.266-0.154-0.266-0.322v-0.841
		c0-0.111,0.098-0.224,0.238-0.224c0.028,0,0.042,0,0.056,0c0.672,0.084,1.933,0.154,2.353,0.154c0.869,0,0.995-0.295,0.995-0.673
		c0-0.266-0.168-0.435-0.616-0.714l-1.919-1.177c-0.687-0.421-1.177-1.121-1.177-1.934c0-1.4,0.882-2.101,2.662-2.101
		c1.134,0,1.779,0.126,2.493,0.28c0.168,0.042,0.252,0.153,0.252,0.321v0.812c0,0.169-0.084,0.267-0.224,0.267
		c-0.028,0-0.042,0-0.056,0c-0.393-0.056-1.513-0.168-2.312-0.168c-0.672,0-0.966,0.154-0.966,0.588c0,0.225,0.21,0.364,0.56,0.574
		l1.835,1.121c1.177,0.714,1.345,1.415,1.345,2.129C528.827,609.284,527.917,610.251,526.082,610.251z"/>
	<path fill="#5BA4C2" d="M538.01,610.152c-0.336,0.057-0.644,0.099-0.953,0.099c-1.583,0-2.227-0.351-2.227-2.228v-4.398
		l-1.317-0.196c-0.154-0.027-0.28-0.126-0.28-0.28v-0.63c0-0.154,0.126-0.28,0.28-0.28h1.317v-1.148c0-0.154,0.126-0.252,0.28-0.28
		l1.303-0.224c0.014,0,0.042,0,0.056,0c0.126,0,0.224,0.069,0.224,0.21v1.442h1.26c0.154,0,0.28,0.126,0.28,0.28v0.826
		c0,0.154-0.126,0.28-0.28,0.28h-1.26v4.398c0,0.7,0.042,0.784,0.546,0.784h0.743c0.182,0,0.294,0.07,0.294,0.21v0.883
		C538.276,610.041,538.192,610.125,538.01,610.152z"/>
	<path fill="#5BA4C2" d="M545.726,610.138h-1.289c-0.154,0-0.28-0.126-0.28-0.28v-0.322c-0.729,0.477-1.303,0.7-2.199,0.7
		c-0.701,0-1.317-0.182-1.723-0.588c-0.518-0.519-0.7-1.387-0.7-2.55v-4.566c0-0.153,0.126-0.294,0.28-0.294h1.289
		c0.154,0,0.28,0.141,0.28,0.294v4.566c0,0.701,0.056,1.107,0.322,1.345c0.196,0.169,0.435,0.253,0.869,0.253
		c0.518,0,1.19-0.351,1.583-0.561v-5.604c0-0.153,0.126-0.294,0.28-0.294h1.289c0.154,0,0.28,0.141,0.28,0.294v7.326
		C546.005,610.012,545.879,610.138,545.726,610.138z"/>
	<path fill="#5BA4C2" d="M554.516,610.251c-0.336,0-0.826-0.028-1.345-0.099v2.479c0,0.154-0.126,0.28-0.28,0.28h-1.289
		c-0.154,0-0.28-0.126-0.28-0.28v-9.749c0-0.21,0.056-0.294,0.378-0.378c0.869-0.225,1.919-0.364,2.815-0.364
		c2.255,0,3.348,1.33,3.348,3.516v1.078C557.864,608.92,556.771,610.251,554.516,610.251z M556.015,605.656
		c0-1.148-0.294-2.003-1.499-2.003c-0.504,0-1.078,0.042-1.345,0.098v4.889c0.393,0.057,1.009,0.099,1.345,0.099
		c1.205,0,1.499-0.854,1.499-2.004V605.656z"/>
	<path fill="#5BA4C2" d="M561.053,601.187h-1.359c-0.154,0-0.294-0.126-0.294-0.28v-1.232c0-0.154,0.14-0.28,0.294-0.28h1.359
		c0.154,0,0.28,0.126,0.28,0.28v1.232C561.333,601.061,561.207,601.187,561.053,601.187z M561.011,610.138h-1.289
		c-0.154,0-0.28-0.14-0.28-0.294v-7.326c0-0.154,0.126-0.28,0.28-0.28h1.289c0.154,0,0.28,0.126,0.28,0.28v7.326
		C561.291,609.999,561.165,610.138,561.011,610.138z"/>
	<path fill="#5BA4C2" d="M569.329,606.833h-4.566v0.042c0,0.812,0.336,1.779,1.681,1.779c1.022,0,1.989-0.084,2.578-0.141
		c0.014,0,0.028,0,0.042,0c0.14,0,0.252,0.07,0.252,0.21v0.925c0,0.224-0.042,0.322-0.294,0.364
		c-0.911,0.168-1.457,0.238-2.718,0.238c-1.4,0-3.39-0.757-3.39-3.517v-1.036c0-2.186,1.219-3.558,3.362-3.558
		c2.157,0,3.334,1.471,3.334,3.558v0.784C569.609,606.707,569.525,606.833,569.329,606.833z M567.746,605.46
		c0-1.093-0.602-1.723-1.471-1.723s-1.499,0.616-1.499,1.723v0.057h2.97V605.46z"/>
	<path fill="#5BA4C2" d="M572.841,610.138h-1.303c-0.154,0-0.28-0.14-0.28-0.294v-10.086c0-0.153,0.126-0.28,0.28-0.28h1.303
		c0.154,0,0.266,0.127,0.266,0.28v10.086C573.107,609.999,572.995,610.138,572.841,610.138z"/>
	<path fill="#5BA4C2" d="M584.687,610.138h-1.289c-0.154,0-0.28-0.14-0.28-0.294v-4.608c0-1.219-0.21-1.527-1.149-1.527
		c-0.476,0-1.037,0.168-1.625,0.477v5.659c0,0.154-0.126,0.294-0.28,0.294h-1.289c-0.154,0-0.28-0.14-0.28-0.294v-10.086
		c0-0.153,0.126-0.28,0.28-0.28h1.289c0.154,0,0.28,0.127,0.28,0.28v2.899c0.533-0.321,1.121-0.518,2.115-0.518
		c1.933,0,2.507,1.372,2.507,3.096v4.608C584.967,609.999,584.841,610.138,584.687,610.138z"/>
	<path fill="#5BA4C2" d="M588.437,601.187h-1.359c-0.154,0-0.294-0.126-0.294-0.28v-1.232c0-0.154,0.14-0.28,0.294-0.28h1.359
		c0.154,0,0.28,0.126,0.28,0.28v1.232C588.717,601.061,588.59,601.187,588.437,601.187z M588.395,610.138h-1.289
		c-0.154,0-0.28-0.14-0.28-0.294v-7.326c0-0.154,0.126-0.28,0.28-0.28h1.289c0.154,0,0.28,0.126,0.28,0.28v7.326
		C588.675,609.999,588.548,610.138,588.395,610.138z"/>
	<path fill="#5BA4C2" d="M596.418,609.886c-0.868,0.224-1.919,0.364-2.815,0.364c-2.255,0-3.348-1.331-3.348-3.517v-1.078
		c0-2.186,1.093-3.516,3.348-3.516c0.336,0,0.827,0.027,1.345,0.098v-2.479c0-0.153,0.126-0.28,0.28-0.28h1.289
		c0.154,0,0.28,0.127,0.28,0.28v9.75C596.797,609.719,596.741,609.802,596.418,609.886z M594.948,603.751
		c-0.392-0.056-1.008-0.098-1.345-0.098c-1.205,0-1.499,0.854-1.499,2.003v1.078c0,1.149,0.294,2.004,1.499,2.004
		c0.504,0,1.079-0.042,1.345-0.099V603.751z"/>
	<path fill="#5BA4C2" d="M602.395,603.709c-0.756,0-1.345,0.196-1.933,0.505v5.631c0,0.154-0.126,0.294-0.28,0.294h-1.289
		c-0.154,0-0.28-0.14-0.28-0.294v-7.326c0-0.154,0.126-0.28,0.28-0.28h1.219c0.154,0,0.28,0.126,0.28,0.28v0.294
		c0.687-0.532,1.443-0.672,2.003-0.672c0.154,0,0.28,0.126,0.28,0.28v1.008C602.675,603.583,602.549,603.709,602.395,603.709z"/>
	<path fill="#5BA4C2" d="M609.103,610.138h-1.19c-0.154,0-0.28-0.126-0.28-0.28v-0.224c-0.645,0.392-1.303,0.616-1.975,0.616
		c-1.163,0-2.423-0.448-2.423-2.34v-0.056c0-1.597,0.98-2.424,3.418-2.424h0.882v-0.616c0-0.91-0.406-1.134-1.232-1.134
		c-0.896,0-1.821,0.056-2.283,0.111c-0.028,0-0.056,0-0.07,0c-0.14,0-0.252-0.042-0.252-0.238v-0.896
		c0-0.153,0.084-0.252,0.266-0.294c0.561-0.112,1.373-0.224,2.339-0.224c1.989,0,3.082,0.882,3.082,2.675v5.043
		C609.383,610.012,609.257,610.138,609.103,610.138z M607.534,606.665h-0.882c-1.275,0-1.555,0.406-1.555,1.19v0.056
		c0,0.687,0.308,0.869,1.008,0.869c0.504,0,1.022-0.168,1.429-0.393V606.665z"/>
	<path fill="#5BA4C2" d="M614.954,610.152c-0.336,0.057-0.644,0.099-0.953,0.099c-1.583,0-2.227-0.351-2.227-2.228v-4.398
		l-1.317-0.196c-0.154-0.027-0.28-0.126-0.28-0.28v-0.63c0-0.154,0.126-0.28,0.28-0.28h1.317v-1.148c0-0.154,0.126-0.252,0.28-0.28
		l1.303-0.224c0.014,0,0.042,0,0.056,0c0.126,0,0.224,0.069,0.224,0.21v1.442h1.26c0.154,0,0.28,0.126,0.28,0.28v0.826
		c0,0.154-0.126,0.28-0.28,0.28h-1.26v4.398c0,0.7,0.042,0.784,0.546,0.784h0.743c0.182,0,0.294,0.07,0.294,0.21v0.883
		C615.22,610.041,615.136,610.125,614.954,610.152z"/>
	<path fill="#5BA4C2" d="M622.052,610.138h-1.19c-0.154,0-0.28-0.126-0.28-0.28v-0.224c-0.644,0.392-1.303,0.616-1.975,0.616
		c-1.163,0-2.423-0.448-2.423-2.34v-0.056c0-1.597,0.98-2.424,3.418-2.424h0.882v-0.616c0-0.91-0.406-1.134-1.232-1.134
		c-0.896,0-1.821,0.056-2.283,0.111c-0.028,0-0.056,0-0.07,0c-0.14,0-0.252-0.042-0.252-0.238v-0.896
		c0-0.153,0.084-0.252,0.266-0.294c0.56-0.112,1.373-0.224,2.339-0.224c1.989,0,3.082,0.882,3.082,2.675v5.043
		C622.333,610.012,622.207,610.138,622.052,610.138z M620.483,606.665h-0.882c-1.275,0-1.555,0.406-1.555,1.19v0.056
		c0,0.687,0.308,0.869,1.008,0.869c0.504,0,1.022-0.168,1.429-0.393V606.665z"/>
	<path fill="#5BA4C2" d="M630.032,609.886c-0.868,0.224-1.919,0.364-2.815,0.364c-2.255,0-3.348-1.331-3.348-3.517v-1.078
		c0-2.186,1.093-3.516,3.348-3.516c0.336,0,0.827,0.027,1.345,0.098v-2.479c0-0.153,0.126-0.28,0.28-0.28h1.289
		c0.154,0,0.28,0.127,0.28,0.28v9.75C630.411,609.719,630.354,609.802,630.032,609.886z M628.562,603.751
		c-0.392-0.056-1.008-0.098-1.345-0.098c-1.205,0-1.499,0.854-1.499,2.003v1.078c0,1.149,0.294,2.004,1.499,2.004
		c0.504,0,1.079-0.042,1.345-0.099V603.751z"/>
	<path fill="#5BA4C2" d="M637.802,610.138h-1.19c-0.154,0-0.28-0.126-0.28-0.28v-0.224c-0.645,0.392-1.303,0.616-1.975,0.616
		c-1.163,0-2.423-0.448-2.423-2.34v-0.056c0-1.597,0.98-2.424,3.418-2.424h0.882v-0.616c0-0.91-0.406-1.134-1.232-1.134
		c-0.896,0-1.821,0.056-2.283,0.111c-0.028,0-0.056,0-0.07,0c-0.14,0-0.252-0.042-0.252-0.238v-0.896
		c0-0.153,0.084-0.252,0.266-0.294c0.561-0.112,1.373-0.224,2.339-0.224c1.989,0,3.082,0.882,3.082,2.675v5.043
		C638.082,610.012,637.956,610.138,637.802,610.138z M636.233,606.665h-0.882c-1.275,0-1.555,0.406-1.555,1.19v0.056
		c0,0.687,0.308,0.869,1.008,0.869c0.504,0,1.022-0.168,1.429-0.393V606.665z"/>
	<path fill="#5BA4C2" d="M649.969,602.56l-2.34,8.181c-0.434,1.526-0.952,2.199-2.857,2.199c-0.463,0-1.162-0.084-1.484-0.183
		c-0.154-0.042-0.295-0.098-0.295-0.238v-0.896c0-0.153,0.127-0.252,0.28-0.252c0.015,0,0.015,0,0.028,0
		c0.393,0.015,1.19,0.084,1.583,0.084c0.603,0,0.91-0.168,1.106-0.896l0.111-0.42h-0.209c-0.406,0-0.911-0.098-1.219-1.163
		l-1.836-6.415c-0.014-0.042-0.014-0.07-0.014-0.098c0-0.141,0.084-0.225,0.267-0.225h1.415c0.125,0,0.238,0.126,0.266,0.252
		l1.415,5.701c0.056,0.238,0.112,0.309,0.196,0.309h0.014c0.027,0,0.057,0,0.07,0c0.041,0,0.041,0,0.041,0l1.514-6.023
		c0.027-0.126,0.14-0.238,0.279-0.238h1.43c0.14,0,0.252,0.112,0.252,0.238C649.982,602.505,649.982,602.532,649.969,602.56z"/>
	<path fill="#5BA4C2" d="M658.885,610.152c-0.336,0.057-0.644,0.099-0.952,0.099c-1.583,0-2.228-0.351-2.228-2.228v-4.398
		l-1.316-0.196c-0.154-0.027-0.279-0.126-0.279-0.28v-0.63c0-0.154,0.125-0.28,0.279-0.28h1.316v-1.148
		c0-0.154,0.127-0.252,0.281-0.28l1.303-0.224c0.014,0,0.041,0,0.056,0c0.126,0,0.224,0.069,0.224,0.21v1.442h1.261
		c0.154,0,0.28,0.126,0.28,0.28v0.826c0,0.154-0.126,0.28-0.28,0.28h-1.261v4.398c0,0.7,0.043,0.784,0.547,0.784h0.742
		c0.182,0,0.294,0.07,0.294,0.21v0.883C659.151,610.041,659.067,610.125,658.885,610.152z"/>
	<path fill="#5BA4C2" d="M666.601,610.138h-1.289c-0.153,0-0.28-0.126-0.28-0.28v-0.322c-0.729,0.477-1.303,0.7-2.199,0.7
		c-0.7,0-1.316-0.182-1.723-0.588c-0.518-0.519-0.7-1.387-0.7-2.55v-4.566c0-0.153,0.126-0.294,0.28-0.294h1.289
		c0.153,0,0.279,0.141,0.279,0.294v4.566c0,0.701,0.057,1.107,0.322,1.345c0.196,0.169,0.435,0.253,0.869,0.253
		c0.518,0,1.189-0.351,1.582-0.561v-5.604c0-0.153,0.127-0.294,0.28-0.294h1.289c0.153,0,0.28,0.141,0.28,0.294v7.326
		C666.881,610.012,666.754,610.138,666.601,610.138z"/>
	<path fill="#5BA4C2" d="M676.917,610.068c-0.321,0.084-0.952,0.183-1.807,0.183c-1.821,0-3.194-1.121-3.194-3.404v-1.303
		c0-2.283,1.373-3.403,3.194-3.403c0.854,0,1.485,0.098,1.807,0.182c0.238,0.057,0.294,0.141,0.294,0.364v0.91
		c0,0.141-0.111,0.211-0.252,0.211c-0.014,0-0.027,0-0.042,0c-0.56-0.07-0.896-0.099-1.807-0.099c-0.659,0-1.345,0.379-1.345,1.835
		v1.303c0,1.457,0.686,1.835,1.345,1.835c0.91,0,1.247-0.027,1.807-0.098c0.015,0,0.028,0,0.042,0c0.141,0,0.252,0.07,0.252,0.21
		v0.91C677.211,609.928,677.155,610.012,676.917,610.068z"/>
	<path fill="#5BA4C2" d="M684.94,610.138h-1.289c-0.153,0-0.28-0.126-0.28-0.28v-0.322c-0.729,0.477-1.303,0.7-2.199,0.7
		c-0.7,0-1.316-0.182-1.723-0.588c-0.518-0.519-0.7-1.387-0.7-2.55v-4.566c0-0.153,0.126-0.294,0.28-0.294h1.289
		c0.153,0,0.279,0.141,0.279,0.294v4.566c0,0.701,0.057,1.107,0.322,1.345c0.196,0.169,0.435,0.253,0.869,0.253
		c0.518,0,1.189-0.351,1.582-0.561v-5.604c0-0.153,0.127-0.294,0.28-0.294h1.289c0.153,0,0.28,0.141,0.28,0.294v7.326
		C685.221,610.012,685.094,610.138,684.94,610.138z"/>
	<path fill="#5BA4C2" d="M693.214,606.833h-4.566v0.042c0,0.812,0.336,1.779,1.681,1.779c1.022,0,1.989-0.084,2.578-0.141
		c0.014,0,0.027,0,0.041,0c0.141,0,0.252,0.07,0.252,0.21v0.925c0,0.224-0.041,0.322-0.293,0.364
		c-0.911,0.168-1.457,0.238-2.719,0.238c-1.4,0-3.389-0.757-3.389-3.517v-1.036c0-2.186,1.219-3.558,3.361-3.558
		c2.157,0,3.334,1.471,3.334,3.558v0.784C693.494,606.707,693.41,606.833,693.214,606.833z M691.631,605.46
		c0-1.093-0.602-1.723-1.471-1.723s-1.499,0.616-1.499,1.723v0.057h2.97V605.46z"/>
	<path fill="#5BA4C2" d="M698.854,603.709c-0.757,0-1.345,0.196-1.933,0.505v5.631c0,0.154-0.127,0.294-0.28,0.294h-1.289
		c-0.153,0-0.28-0.14-0.28-0.294v-7.326c0-0.154,0.127-0.28,0.28-0.28h1.219c0.154,0,0.28,0.126,0.28,0.28v0.294
		c0.687-0.532,1.443-0.672,2.003-0.672c0.154,0,0.28,0.126,0.28,0.28v1.008C699.135,603.583,699.009,603.709,698.854,603.709z"/>
	<path fill="#5BA4C2" d="M703.516,610.251c-0.336,0-0.826-0.028-1.344-0.099v2.479c0,0.154-0.127,0.28-0.28,0.28h-1.289
		c-0.153,0-0.28-0.126-0.28-0.28v-9.749c0-0.21,0.057-0.294,0.379-0.378c0.868-0.225,1.918-0.364,2.814-0.364
		c2.256,0,3.349,1.33,3.349,3.516v1.078C706.864,608.92,705.771,610.251,703.516,610.251z M705.016,605.656
		c0-1.148-0.295-2.003-1.5-2.003c-0.504,0-1.078,0.042-1.344,0.098v4.889c0.393,0.057,1.008,0.099,1.344,0.099
		c1.205,0,1.5-0.854,1.5-2.004V605.656z"/>
	<path fill="#5BA4C2" d="M711.51,610.251c-2.199,0-3.348-1.485-3.348-3.488v-1.135c0-2.003,1.148-3.487,3.348-3.487
		s3.348,1.484,3.348,3.487v1.135C714.857,608.765,713.709,610.251,711.51,610.251z M713.009,605.628
		c0-1.148-0.519-1.891-1.499-1.891s-1.498,0.742-1.498,1.891v1.135c0,1.148,0.518,1.892,1.498,1.892s1.499-0.743,1.499-1.892
		V605.628z"/>
	<path fill="#5BA4C2" d="M726.113,606.833h-4.566v0.042c0,0.812,0.336,1.779,1.682,1.779c1.021,0,1.988-0.084,2.577-0.141
		c0.014,0,0.028,0,0.042,0c0.141,0,0.252,0.07,0.252,0.21v0.925c0,0.224-0.042,0.322-0.294,0.364
		c-0.911,0.168-1.457,0.238-2.718,0.238c-1.4,0-3.39-0.757-3.39-3.517v-1.036c0-2.186,1.219-3.558,3.362-3.558
		c2.156,0,3.334,1.471,3.334,3.558v0.784C726.395,606.707,726.31,606.833,726.113,606.833z M724.531,605.46
		c0-1.093-0.603-1.723-1.471-1.723c-0.869,0-1.5,0.616-1.5,1.723v0.057h2.971V605.46z"/>
	<path fill="#5BA4C2" d="M729.625,610.138h-1.303c-0.154,0-0.28-0.14-0.28-0.294v-10.086c0-0.153,0.126-0.28,0.28-0.28h1.303
		c0.154,0,0.266,0.127,0.266,0.28v10.086C729.891,609.999,729.779,610.138,729.625,610.138z"/>
	<path fill="#5BA4C2" d="M733.434,601.187h-1.359c-0.154,0-0.294-0.126-0.294-0.28v-1.232c0-0.154,0.14-0.28,0.294-0.28h1.359
		c0.153,0,0.279,0.126,0.279,0.28v1.232C733.713,601.061,733.587,601.187,733.434,601.187z M733.391,610.138h-1.288
		c-0.154,0-0.28-0.14-0.28-0.294v-7.326c0-0.154,0.126-0.28,0.28-0.28h1.288c0.154,0,0.28,0.126,0.28,0.28v7.326
		C733.671,609.999,733.545,610.138,733.391,610.138z"/>
	<path fill="#5BA4C2" d="M745.309,610.138h-1.289c-0.153,0-0.279-0.14-0.279-0.294v-4.763c0-1.079-0.225-1.358-1.009-1.358
		c-0.267,0-0.798,0.084-1.303,0.35c0.042,0.309,0.056,0.658,0.056,1.009v4.763c0,0.154-0.125,0.294-0.279,0.294h-1.289
		c-0.154,0-0.28-0.14-0.28-0.294v-4.763c0-1.079-0.183-1.358-0.966-1.358c-0.295,0-0.715,0.153-1.289,0.462v5.659
		c0,0.154-0.127,0.294-0.28,0.294h-1.289c-0.153,0-0.28-0.14-0.28-0.294v-7.326c0-0.154,0.127-0.28,0.28-0.28h1.219
		c0.154,0,0.28,0.126,0.28,0.28v0.294c0.588-0.378,1.177-0.672,2.003-0.672c0.799,0,1.317,0.238,1.64,0.63
		c0.714-0.392,1.344-0.63,2.311-0.63c1.905,0,2.325,1.303,2.325,2.941v4.763C745.589,609.999,745.463,610.138,745.309,610.138z"/>
	<path fill="#5BA4C2" d="M749.057,601.187h-1.359c-0.153,0-0.293-0.126-0.293-0.28v-1.232c0-0.154,0.14-0.28,0.293-0.28h1.359
		c0.154,0,0.28,0.126,0.28,0.28v1.232C749.337,601.061,749.211,601.187,749.057,601.187z M749.015,610.138h-1.289
		c-0.153,0-0.28-0.14-0.28-0.294v-7.326c0-0.154,0.127-0.28,0.28-0.28h1.289c0.153,0,0.28,0.126,0.28,0.28v7.326
		C749.295,609.999,749.168,610.138,749.015,610.138z"/>
	<path fill="#5BA4C2" d="M757.347,610.138h-1.288c-0.154,0-0.28-0.14-0.28-0.294v-4.566c0-1.219-0.112-1.569-1.19-1.569
		c-0.477,0-0.995,0.196-1.583,0.505v5.631c0,0.154-0.126,0.294-0.28,0.294h-1.289c-0.154,0-0.279-0.14-0.279-0.294v-7.326
		c0-0.154,0.125-0.28,0.279-0.28h1.219c0.154,0,0.28,0.126,0.28,0.28v0.294c0.812-0.518,1.345-0.672,2.27-0.672
		c2.017,0,2.423,1.358,2.423,3.138v4.566C757.627,609.999,757.501,610.138,757.347,610.138z"/>
	<path fill="#5BA4C2" d="M765.019,610.138h-1.19c-0.154,0-0.28-0.126-0.28-0.28v-0.224c-0.645,0.392-1.303,0.616-1.975,0.616
		c-1.163,0-2.424-0.448-2.424-2.34v-0.056c0-1.597,0.98-2.424,3.418-2.424h0.883v-0.616c0-0.91-0.406-1.134-1.233-1.134
		c-0.896,0-1.82,0.056-2.283,0.111c-0.027,0-0.056,0-0.069,0c-0.141,0-0.253-0.042-0.253-0.238v-0.896
		c0-0.153,0.085-0.252,0.267-0.294c0.561-0.112,1.373-0.224,2.339-0.224c1.989,0,3.082,0.882,3.082,2.675v5.043
		C765.299,610.012,765.173,610.138,765.019,610.138z M763.45,606.665h-0.883c-1.274,0-1.555,0.406-1.555,1.19v0.056
		c0,0.687,0.308,0.869,1.009,0.869c0.504,0,1.022-0.168,1.429-0.393V606.665z"/>
	<path fill="#5BA4C2" d="M774.762,610.152c-0.336,0.057-0.645,0.099-0.952,0.099c-1.583,0-2.228-0.351-2.228-2.228v-4.398
		l-1.316-0.196c-0.154-0.027-0.28-0.126-0.28-0.28v-0.63c0-0.154,0.126-0.28,0.28-0.28h1.316v-1.148c0-0.154,0.126-0.252,0.28-0.28
		l1.303-0.224c0.014,0,0.042,0,0.056,0c0.126,0,0.225,0.069,0.225,0.21v1.442h1.261c0.154,0,0.28,0.126,0.28,0.28v0.826
		c0,0.154-0.126,0.28-0.28,0.28h-1.261v4.398c0,0.7,0.042,0.784,0.546,0.784h0.742c0.183,0,0.295,0.07,0.295,0.21v0.883
		C775.028,610.041,774.944,610.125,774.762,610.152z"/>
	<path fill="#5BA4C2" d="M779.256,610.251c-2.199,0-3.349-1.485-3.349-3.488v-1.135c0-2.003,1.149-3.487,3.349-3.487
		s3.348,1.484,3.348,3.487v1.135C782.604,608.765,781.455,610.251,779.256,610.251z M780.754,605.628
		c0-1.148-0.518-1.891-1.498-1.891s-1.499,0.742-1.499,1.891v1.135c0,1.148,0.519,1.892,1.499,1.892s1.498-0.743,1.498-1.892
		V605.628z"/>
	<path fill="#5BA4C2" d="M790.022,610.138h-1.597c-0.154,0-0.224-0.042-0.378-0.28l-1.597-2.465l-1.513,2.465
		c-0.154,0.238-0.225,0.28-0.379,0.28h-1.442c-0.112,0-0.168-0.07-0.168-0.154c0-0.042,0.014-0.084,0.042-0.126l2.507-3.796
		l-2.367-3.544c-0.014-0.028-0.027-0.056-0.027-0.084c0-0.098,0.098-0.196,0.224-0.196h1.597c0.154,0,0.225,0.07,0.364,0.28
		l1.415,2.186l1.316-2.186c0.154-0.252,0.225-0.28,0.379-0.28h1.442c0.112,0,0.168,0.07,0.168,0.154
		c0,0.042-0.014,0.084-0.042,0.126l-2.312,3.53l2.55,3.81c0.014,0.028,0.028,0.056,0.028,0.099
		C790.233,610.054,790.135,610.138,790.022,610.138z"/>
	<path fill="#5BA4C2" d="M793.072,601.187h-1.358c-0.154,0-0.295-0.126-0.295-0.28v-1.232c0-0.154,0.141-0.28,0.295-0.28h1.358
		c0.154,0,0.28,0.126,0.28,0.28v1.232C793.353,601.061,793.227,601.187,793.072,601.187z M793.03,610.138h-1.289
		c-0.154,0-0.28-0.14-0.28-0.294v-7.326c0-0.154,0.126-0.28,0.28-0.28h1.289c0.154,0,0.28,0.126,0.28,0.28v7.326
		C793.311,609.999,793.185,610.138,793.03,610.138z"/>
	<path fill="#5BA4C2" d="M801.362,610.138h-1.288c-0.154,0-0.28-0.14-0.28-0.294v-4.566c0-1.219-0.112-1.569-1.19-1.569
		c-0.477,0-0.995,0.196-1.583,0.505v5.631c0,0.154-0.126,0.294-0.28,0.294h-1.289c-0.154,0-0.28-0.14-0.28-0.294v-7.326
		c0-0.154,0.126-0.28,0.28-0.28h1.219c0.154,0,0.28,0.126,0.28,0.28v0.294c0.812-0.518,1.345-0.672,2.27-0.672
		c2.017,0,2.423,1.358,2.423,3.138v4.566C801.643,609.999,801.517,610.138,801.362,610.138z"/>
	<path fill="#5BA4C2" d="M809.034,610.138h-1.19c-0.154,0-0.28-0.126-0.28-0.28v-0.224c-0.645,0.392-1.303,0.616-1.975,0.616
		c-1.163,0-2.424-0.448-2.424-2.34v-0.056c0-1.597,0.98-2.424,3.418-2.424h0.883v-0.616c0-0.91-0.406-1.134-1.233-1.134
		c-0.896,0-1.82,0.056-2.283,0.111c-0.027,0-0.056,0-0.069,0c-0.141,0-0.253-0.042-0.253-0.238v-0.896
		c0-0.153,0.085-0.252,0.267-0.294c0.561-0.112,1.373-0.224,2.339-0.224c1.989,0,3.082,0.882,3.082,2.675v5.043
		C809.314,610.012,809.188,610.138,809.034,610.138z M807.466,606.665h-0.883c-1.274,0-1.555,0.406-1.555,1.19v0.056
		c0,0.687,0.308,0.869,1.009,0.869c0.504,0,1.022-0.168,1.429-0.393V606.665z"/>
	<path fill="#5BA4C2" d="M813.694,610.251c-0.546,0-1.723-0.07-2.507-0.28c-0.168-0.042-0.267-0.154-0.267-0.322v-0.841
		c0-0.111,0.099-0.224,0.238-0.224c0.028,0,0.042,0,0.056,0c0.673,0.084,1.934,0.154,2.354,0.154c0.868,0,0.995-0.295,0.995-0.673
		c0-0.266-0.169-0.435-0.617-0.714l-1.919-1.177c-0.687-0.421-1.177-1.121-1.177-1.934c0-1.4,0.883-2.101,2.662-2.101
		c1.135,0,1.778,0.126,2.493,0.28c0.168,0.042,0.252,0.153,0.252,0.321v0.812c0,0.169-0.084,0.267-0.224,0.267
		c-0.028,0-0.042,0-0.057,0c-0.392-0.056-1.513-0.168-2.311-0.168c-0.673,0-0.967,0.154-0.967,0.588c0,0.225,0.21,0.364,0.561,0.574
		l1.835,1.121c1.177,0.714,1.345,1.415,1.345,2.129C816.44,609.284,815.529,610.251,813.694,610.251z"/>
</g>
</svg>
