<?xml version="1.0" encoding="utf-8"?>
<!-- Generator: Adobe Illustrator 16.0.0, SVG Export Plug-In . SVG Version: 6.00 Build 0)  -->
<!DOCTYPE svg PUBLIC "-//W3C//DTD SVG 1.1//EN" "http://www.w3.org/Graphics/SVG/1.1/DTD/svg11.dtd">
<svg version="1.1" id="Layer_1" xmlns="http://www.w3.org/2000/svg" xmlns:xlink="http://www.w3.org/1999/xlink" x="0px" y="0px"
	 width="1280px" height="700px" viewBox="0 0 1280 700" enable-background="new 0 0 1280 700" xml:space="preserve">
<g id="Miscelaneas">
	<g>
		<g>
			<path fill="none" stroke="#5BA4C2" stroke-width="0.75" stroke-miterlimit="10" d="M640.3,654c0,0,0-14.3,0-19.3
				c0-3.1,1-4.1,3.7-4.1s118.9,0,118.9,0c3,0,3.8-1.4,3.8-5c0-3.4-0.3-9.3-0.3-13c0-3.5,0.899-5.4,3.3-6v-0.2
				c-2.4-0.7-3.3-2.4-3.3-6c0-3.8,0.3-6.6,0.3-10"/>
		</g>
		<g>
			<path fill="none" stroke="#5BA4C2" stroke-width="0.75" stroke-miterlimit="10" d="M513,590.2c0,3.4,0.3,6.3,0.3,10
				c0,3.601-0.899,5.4-3.3,6v0.2c2.4,0.7,3.3,2.5,3.3,6c0,3.8-0.3,9.6-0.3,13c0,3.6,0.8,5,3.8,5c0,0,117.2,0,119.9,0s3.7,1,3.7,4.1
				c0,5,0,19.301,0,19.301"/>
		</g>
	</g>
	<g>
		<g>
			<path fill="#5BA4C2" d="M643.8,653.9L643.8,653.9l-3.5-6.9l0,0l0,0l0,0l0,0l-3.7,6.801l0,0c-0.3,0.6-0.5,1.3-0.6,2
				c0,2.3,1.8,4.1,4.1,4.199c2.301,0,4.101-1.8,4.2-4.1C644.3,655.2,644.1,654.5,643.8,653.9z"/>
			<g>
				<g>
					<path fill="#72ADC8" d="M639,659C638.9,659,638.9,659,639,659c-2.1-0.399-2.4-2.6-2.3-3.699c0-0.2,0.2-0.301,0.399-0.301
						c0.2,0,0.301,0.2,0.301,0.4c0,0.1-0.301,2.5,1.6,2.9c0.2,0,0.3,0.2,0.3,0.399C639.3,658.9,639.1,659,639,659z"/>
				</g>
			</g>
		</g>
		<path fill="#72ADC8" d="M644.3,655.9c0-0.7-0.2-1.4-0.5-2l0,0l-3.5-6.9l0,0l0,0l0,0v13C642.5,659.9,644.3,658.2,644.3,655.9z"/>
		<g>
			<g>
				<path fill="#E2D4D5" d="M641.9,653.4l-0.801-2c-0.1-0.1-0.1-0.4,0-0.4c0.101,0,0.301,0.101,0.301,0.301l1,1.899
					c0.1,0.101,0,0.4-0.101,0.5C642.2,653.7,642,653.6,641.9,653.4z"/>
			</g>
			<ellipse fill="#E2D4D5" cx="642.6" cy="654.3" rx="0.4" ry="0.4"/>
		</g>
	</g>
	<g>
		<g>
			<path fill="#5BA4C2" d="M644,665.9L644,665.9l-1.9-3.8l0,0l0,0l0,0l0,0l-2,3.7l0,0c-0.199,0.3-0.3,0.7-0.3,1.1
				c0,1.3,1,2.3,2.2,2.3c1.3,0,2.3-1,2.3-2.2C644.3,666.6,644.2,666.2,644,665.9z"/>
			<g>
				<g>
					<path fill="#72ADC8" d="M641.3,668.7L641.3,668.7c-1.2-0.2-1.3-1.399-1.3-2c0-0.1,0.1-0.2,0.2-0.2c0.1,0,0.2,0.101,0.2,0.2
						c0,0.101-0.101,1.4,0.899,1.601c0.101,0,0.2,0.1,0.2,0.199C641.5,668.7,641.4,668.7,641.3,668.7z"/>
				</g>
			</g>
		</g>
		<path fill="#72ADC8" d="M644.3,667c0-0.399-0.1-0.8-0.3-1.1l0,0l-1.9-3.8l0,0l0,0l0,0v7.2C643.3,669.2,644.3,668.2,644.3,667z"/>
		<g>
			<g>
				<path fill="#E2D4D5" d="M643,665.6l-0.4-1.101c0-0.1-0.1-0.199,0-0.199c0.101,0,0.2,0.1,0.2,0.1l0.5,1.1
					c0,0.101,0,0.2-0.1,0.301C643.1,665.801,643,665.7,643,665.6z"/>
			</g>
			<ellipse fill="#E2D4D5" cx="643.4" cy="666.1" rx="0.2" ry="0.2"/>
		</g>
	</g>
</g>
<g enable-background="new    ">
	<path fill="#5BA4C2" d="M542.923,592.138h-1.373c-0.294,0-0.504-0.056-0.729-0.435l-3.194-5.519
		c-0.056-0.084-0.084-0.112-0.126-0.112s-0.07,0.028-0.07,0.112v5.673c0,0.154-0.126,0.28-0.28,0.28h-1.653
		c-0.154,0-0.28-0.126-0.28-0.28v-9.595c0-0.295,0.238-0.532,0.532-0.532h1.415c0.28,0,0.42,0.14,0.588,0.434l3.32,5.771
		c0.056,0.084,0.07,0.112,0.112,0.112c0.028,0,0.07-0.028,0.07-0.126v-5.926c0-0.154,0.126-0.266,0.28-0.266h1.653
		c0.154,0,0.28,0.111,0.28,0.266v9.609C543.469,591.9,543.217,592.138,542.923,592.138z"/>
	<path fill="#5BA4C2" d="M551.896,592.138h-1.569c-0.154,0-0.28-0.126-0.28-0.28v-0.336c-0.771,0.546-1.387,0.729-2.283,0.729
		c-2.031,0-2.479-1.415-2.479-3.18v-4.665c0-0.154,0.14-0.294,0.294-0.294h1.695c0.154,0,0.28,0.14,0.28,0.294v4.665
		c0,0.98,0.182,1.303,1.037,1.303c0.406,0,0.84-0.196,1.316-0.448v-5.52c0-0.154,0.126-0.294,0.28-0.294h1.695
		c0.154,0,0.294,0.14,0.294,0.294v7.452C552.177,592.012,552.05,592.138,551.896,592.138z"/>
	<path fill="#5BA4C2" d="M560.352,588.833h-4.468v0.028c0,0.798,0.336,1.526,1.443,1.526c0.882,0,2.129-0.07,2.689-0.126
		c0.014,0,0.028,0,0.042,0c0.154,0,0.266,0.07,0.266,0.224v1.065c0,0.224-0.056,0.321-0.294,0.378
		c-0.896,0.224-1.653,0.336-2.872,0.336c-1.695,0-3.516-0.896-3.516-3.6v-0.98c0-2.256,1.317-3.685,3.544-3.685
		c2.297,0,3.46,1.569,3.46,3.685v0.812C560.646,588.707,560.534,588.833,560.352,588.833z M558.433,587.376
		c0-1.036-0.476-1.555-1.261-1.555c-0.771,0-1.289,0.532-1.289,1.555v0.056h2.549V587.376z"/>
	<path fill="#5BA4C2" d="M564.732,592.264c-0.771,0-1.835-0.112-2.549-0.308c-0.168-0.043-0.266-0.154-0.266-0.322V590.5
		c0-0.141,0.098-0.267,0.266-0.267c0.014,0,0.042,0,0.056,0c0.757,0.099,1.933,0.196,2.381,0.196c0.672,0,0.827-0.182,0.827-0.546
		c0-0.21-0.126-0.364-0.519-0.589l-1.821-1.051c-0.784-0.448-1.247-1.162-1.247-2.072c0-1.415,0.938-2.172,2.872-2.172
		c1.106,0,1.779,0.141,2.493,0.322c0.168,0.042,0.266,0.154,0.266,0.322v1.135c0,0.168-0.098,0.266-0.238,0.266
		c-0.014,0-0.028,0-0.042,0c-0.406-0.056-1.611-0.182-2.325-0.182c-0.546,0-0.742,0.084-0.742,0.406c0,0.21,0.154,0.322,0.434,0.49
		l1.737,0.994c1.163,0.673,1.415,1.401,1.415,2.157C567.729,591.228,566.777,592.264,564.732,592.264z"/>
	<path fill="#5BA4C2" d="M573.427,592.152c-0.42,0.07-0.7,0.112-1.106,0.112c-1.541,0-2.354-0.406-2.354-2.396v-4.062l-1.121-0.183
		c-0.154-0.028-0.294-0.14-0.294-0.294v-0.925c0-0.154,0.14-0.294,0.294-0.294h1.121v-1.148c0-0.154,0.126-0.252,0.28-0.28
		l1.709-0.294c0.014,0,0.028,0,0.042,0c0.14,0,0.252,0.098,0.252,0.238v1.484h1.149c0.154,0,0.28,0.126,0.28,0.28v1.135
		c0,0.154-0.126,0.28-0.28,0.28h-1.149v4.076c0,0.56,0.042,0.658,0.462,0.658h0.687c0.182,0,0.294,0.084,0.294,0.238v1.092
		C573.693,592.012,573.595,592.125,573.427,592.152z"/>
	<path fill="#5BA4C2" d="M579.153,585.877h-0.112c-0.686,0-1.289,0.211-1.807,0.49v5.478c0,0.154-0.126,0.294-0.28,0.294h-1.695
		c-0.154,0-0.294-0.14-0.294-0.294v-7.452c0-0.154,0.126-0.28,0.28-0.28h1.667c0.154,0,0.28,0.126,0.28,0.28v0.28
		c0.518-0.435,1.218-0.673,1.891-0.673c0.154,0,0.28,0.126,0.28,0.28v1.331C579.363,585.737,579.279,585.877,579.153,585.877z"/>
	<path fill="#5BA4C2" d="M586.097,592.138h-1.569c-0.154,0-0.28-0.126-0.28-0.28v-0.224c-0.546,0.392-1.107,0.63-1.947,0.63
		c-1.219,0-2.395-0.588-2.395-2.409v-0.126c0-1.639,1.05-2.367,3.446-2.367h0.756v-0.505c0-0.798-0.393-0.966-1.051-0.966
		c-0.896,0-1.891,0.056-2.325,0.098h-0.07c-0.14,0-0.252-0.07-0.252-0.252v-1.135c0-0.154,0.098-0.266,0.266-0.308
		c0.519-0.127,1.499-0.295,2.423-0.295c2.017,0,3.278,0.812,3.278,2.857v5.001C586.377,592.012,586.251,592.138,586.097,592.138z
		 M584.15,588.707h-0.798c-0.981,0-1.233,0.336-1.233,1.022v0.126c0,0.588,0.294,0.7,0.882,0.7c0.42,0,0.812-0.14,1.149-0.308
		V588.707z"/>
	<path fill="#5BA4C2" d="M590.674,592.264c-0.771,0-1.835-0.112-2.549-0.308c-0.168-0.043-0.266-0.154-0.266-0.322V590.5
		c0-0.141,0.098-0.267,0.266-0.267c0.014,0,0.042,0,0.056,0c0.757,0.099,1.933,0.196,2.381,0.196c0.672,0,0.827-0.182,0.827-0.546
		c0-0.21-0.126-0.364-0.519-0.589l-1.821-1.051c-0.784-0.448-1.247-1.162-1.247-2.072c0-1.415,0.938-2.172,2.872-2.172
		c1.106,0,1.779,0.141,2.493,0.322c0.168,0.042,0.266,0.154,0.266,0.322v1.135c0,0.168-0.098,0.266-0.238,0.266
		c-0.014,0-0.028,0-0.042,0c-0.406-0.056-1.611-0.182-2.326-0.182c-0.546,0-0.742,0.084-0.742,0.406c0,0.21,0.154,0.322,0.434,0.49
		l1.737,0.994c1.163,0.673,1.415,1.401,1.415,2.157C593.671,591.228,592.719,592.264,590.674,592.264z"/>
	<path fill="#5BA4C2" d="M603.653,592.054c-0.393,0.098-1.023,0.21-1.863,0.21c-1.975,0-3.264-1.261-3.264-3.544v-1.177
		c0-2.283,1.289-3.544,3.264-3.544c0.84,0,1.471,0.112,1.863,0.21c0.21,0.057,0.294,0.112,0.294,0.322v1.247
		c0,0.14-0.126,0.238-0.266,0.238c0,0-0.014,0-0.028,0c-0.519-0.057-0.911-0.099-1.709-0.099c-0.63,0-1.149,0.379-1.149,1.625v1.177
		c0,1.247,0.519,1.625,1.149,1.625c0.798,0,1.19-0.042,1.709-0.098c0.014,0,0.028,0,0.028,0c0.14,0,0.266,0.098,0.266,0.237v1.247
		C603.947,591.942,603.863,591.999,603.653,592.054z"/>
	<path fill="#5BA4C2" d="M611.578,588.833h-4.468v0.028c0,0.798,0.336,1.526,1.443,1.526c0.882,0,2.129-0.07,2.689-0.126
		c0.014,0,0.028,0,0.042,0c0.154,0,0.266,0.07,0.266,0.224v1.065c0,0.224-0.056,0.321-0.294,0.378
		c-0.896,0.224-1.653,0.336-2.872,0.336c-1.695,0-3.516-0.896-3.516-3.6v-0.98c0-2.256,1.317-3.685,3.544-3.685
		c2.297,0,3.46,1.569,3.46,3.685v0.812C611.872,588.707,611.76,588.833,611.578,588.833z M610.751,581.436l-1.709,1.709
		c-0.112,0.112-0.154,0.168-0.336,0.168h-1.499c-0.084,0-0.126-0.042-0.126-0.098c0-0.042,0.014-0.084,0.056-0.14l1.303-1.64
		c0.126-0.153,0.182-0.21,0.378-0.21h1.835c0.098,0,0.154,0.042,0.154,0.099C610.807,581.352,610.793,581.394,610.751,581.436z
		 M609.659,587.376c0-1.036-0.476-1.555-1.261-1.555c-0.771,0-1.289,0.532-1.289,1.555v0.056h2.549V587.376z"/>
	<path fill="#5BA4C2" d="M615.341,592.138h-1.709c-0.154,0-0.294-0.14-0.294-0.294v-10.17c0-0.154,0.14-0.28,0.294-0.28h1.709
		c0.154,0,0.266,0.126,0.266,0.28v10.17C615.607,591.999,615.495,592.138,615.341,592.138z"/>
	<path fill="#5BA4C2" d="M623.897,592.138h-1.569c-0.154,0-0.28-0.126-0.28-0.28v-0.336c-0.771,0.546-1.387,0.729-2.283,0.729
		c-2.031,0-2.479-1.415-2.479-3.18v-4.665c0-0.154,0.14-0.294,0.294-0.294h1.695c0.154,0,0.28,0.14,0.28,0.294v4.665
		c0,0.98,0.182,1.303,1.037,1.303c0.406,0,0.84-0.196,1.316-0.448v-5.52c0-0.154,0.126-0.294,0.28-0.294h1.695
		c0.154,0,0.294,0.14,0.294,0.294v7.452C624.178,592.012,624.051,592.138,623.897,592.138z"/>
	<path fill="#5BA4C2" d="M627.857,592.138h-1.709c-0.154,0-0.294-0.14-0.294-0.294v-10.17c0-0.154,0.14-0.28,0.294-0.28h1.709
		c0.154,0,0.266,0.126,0.266,0.28v10.17C628.124,591.999,628.011,592.138,627.857,592.138z"/>
	<path fill="#5BA4C2" d="M635.713,592.138h-1.569c-0.154,0-0.28-0.126-0.28-0.28v-0.224c-0.546,0.392-1.107,0.63-1.947,0.63
		c-1.219,0-2.396-0.588-2.396-2.409v-0.126c0-1.639,1.051-2.367,3.446-2.367h0.756v-0.505c0-0.798-0.392-0.966-1.051-0.966
		c-0.896,0-1.891,0.056-2.325,0.098h-0.07c-0.14,0-0.252-0.07-0.252-0.252v-1.135c0-0.154,0.098-0.266,0.266-0.308
		c0.519-0.127,1.499-0.295,2.423-0.295c2.017,0,3.278,0.812,3.278,2.857v5.001C635.993,592.012,635.867,592.138,635.713,592.138z
		 M633.766,588.707h-0.798c-0.98,0-1.233,0.336-1.233,1.022v0.126c0,0.588,0.294,0.7,0.882,0.7c0.42,0,0.812-0.14,1.149-0.308
		V588.707z"/>
	<path fill="#5BA4C2" d="M640.29,592.264c-0.771,0-1.835-0.112-2.549-0.308c-0.168-0.043-0.266-0.154-0.266-0.322V590.5
		c0-0.141,0.098-0.267,0.266-0.267c0.014,0,0.042,0,0.056,0c0.757,0.099,1.933,0.196,2.381,0.196c0.672,0,0.827-0.182,0.827-0.546
		c0-0.21-0.126-0.364-0.519-0.589l-1.821-1.051c-0.784-0.448-1.247-1.162-1.247-2.072c0-1.415,0.938-2.172,2.872-2.172
		c1.107,0,1.779,0.141,2.494,0.322c0.168,0.042,0.266,0.154,0.266,0.322v1.135c0,0.168-0.098,0.266-0.238,0.266
		c-0.014,0-0.027,0-0.042,0c-0.405-0.056-1.61-0.182-2.325-0.182c-0.546,0-0.742,0.084-0.742,0.406c0,0.21,0.154,0.322,0.434,0.49
		l1.737,0.994c1.163,0.673,1.415,1.401,1.415,2.157C643.287,591.228,642.334,592.264,640.29,592.264z"/>
	<path fill="#5BA4C2" d="M647.078,590.094l-1.344,3.138c-0.07,0.154-0.112,0.28-0.267,0.28h-1.232c-0.126,0-0.238-0.099-0.238-0.21
		c0-0.028,0.015-0.042,0.015-0.07l0.896-3.138c0.041-0.168,0.125-0.267,0.279-0.267h1.709c0.127,0,0.211,0.07,0.211,0.168
		C647.107,590.023,647.093,590.065,647.078,590.094z"/>
	<path fill="#5BA4C2" d="M658.688,588.833h-4.469v0.028c0,0.798,0.336,1.526,1.443,1.526c0.882,0,2.129-0.07,2.689-0.126
		c0.014,0,0.027,0,0.041,0c0.154,0,0.267,0.07,0.267,0.224v1.065c0,0.224-0.056,0.321-0.294,0.378
		c-0.896,0.224-1.653,0.336-2.872,0.336c-1.694,0-3.516-0.896-3.516-3.6v-0.98c0-2.256,1.317-3.685,3.544-3.685
		c2.297,0,3.46,1.569,3.46,3.685v0.812C658.981,588.707,658.869,588.833,658.688,588.833z M656.768,587.376
		c0-1.036-0.476-1.555-1.26-1.555c-0.771,0-1.289,0.532-1.289,1.555v0.056h2.549V587.376z"/>
	<path fill="#5BA4C2" d="M667.045,592.138h-1.695c-0.154,0-0.279-0.14-0.279-0.294v-4.665c0-0.98-0.183-1.303-1.037-1.303
		c-0.406,0-0.84,0.196-1.316,0.448v5.52c0,0.154-0.127,0.294-0.28,0.294h-1.694c-0.154,0-0.295-0.14-0.295-0.294v-7.452
		c0-0.154,0.126-0.28,0.28-0.28h1.569c0.154,0,0.279,0.126,0.279,0.28v0.336c0.771-0.546,1.387-0.729,2.283-0.729
		c2.031,0,2.479,1.415,2.479,3.18v4.665C667.339,591.999,667.199,592.138,667.045,592.138z"/>
	<path fill="#5BA4C2" d="M675.275,592.264c-0.771,0-1.836-0.112-2.55-0.308c-0.169-0.043-0.267-0.154-0.267-0.322V590.5
		c0-0.141,0.098-0.267,0.267-0.267c0.014,0,0.042,0,0.056,0c0.757,0.099,1.934,0.196,2.381,0.196c0.673,0,0.827-0.182,0.827-0.546
		c0-0.21-0.126-0.364-0.519-0.589l-1.82-1.051c-0.785-0.448-1.247-1.162-1.247-2.072c0-1.415,0.938-2.172,2.872-2.172
		c1.105,0,1.778,0.141,2.492,0.322c0.168,0.042,0.267,0.154,0.267,0.322v1.135c0,0.168-0.099,0.266-0.237,0.266
		c-0.015,0-0.029,0-0.043,0c-0.406-0.056-1.611-0.182-2.325-0.182c-0.546,0-0.742,0.084-0.742,0.406c0,0.21,0.154,0.322,0.435,0.49
		l1.736,0.994c1.163,0.673,1.415,1.401,1.415,2.157C678.272,591.228,677.32,592.264,675.275,592.264z"/>
	<path fill="#5BA4C2" d="M686.309,592.138h-1.568c-0.154,0-0.28-0.126-0.28-0.28v-0.336c-0.771,0.546-1.387,0.729-2.283,0.729
		c-2.031,0-2.479-1.415-2.479-3.18v-4.665c0-0.154,0.141-0.294,0.295-0.294h1.694c0.153,0,0.28,0.14,0.28,0.294v4.665
		c0,0.98,0.182,1.303,1.036,1.303c0.406,0,0.841-0.196,1.317-0.448v-5.52c0-0.154,0.125-0.294,0.279-0.294h1.695
		c0.154,0,0.294,0.14,0.294,0.294v7.452C686.589,592.012,686.463,592.138,686.309,592.138z"/>
	<path fill="#5BA4C2" d="M702.188,592.138h-1.695c-0.154,0-0.28-0.14-0.28-0.294v-4.776c0-0.896-0.21-1.163-0.854-1.163
		c-0.238,0-0.658,0.056-1.078,0.252c0.027,0.28,0.041,0.603,0.041,0.911v4.776c0,0.154-0.125,0.294-0.279,0.294h-1.695
		c-0.154,0-0.294-0.14-0.294-0.294v-4.776c0-0.896-0.168-1.163-0.812-1.163c-0.267,0-0.63,0.14-1.064,0.364v5.575
		c0,0.154-0.126,0.294-0.28,0.294h-1.695c-0.154,0-0.294-0.14-0.294-0.294v-7.452c0-0.154,0.126-0.28,0.28-0.28h1.597
		c0.154,0,0.28,0.126,0.28,0.28v0.308c0.588-0.392,1.261-0.7,2.073-0.7c0.742,0,1.261,0.21,1.653,0.687
		c0.812-0.462,1.372-0.687,2.283-0.687c1.849,0,2.408,1.233,2.408,3.068v4.776C702.48,591.999,702.341,592.138,702.188,592.138z"/>
	<path fill="#5BA4C2" d="M710.066,592.138h-1.568c-0.154,0-0.28-0.126-0.28-0.28v-0.224c-0.546,0.392-1.106,0.63-1.947,0.63
		c-1.219,0-2.396-0.588-2.396-2.409v-0.126c0-1.639,1.051-2.367,3.446-2.367h0.757v-0.505c0-0.798-0.393-0.966-1.051-0.966
		c-0.896,0-1.892,0.056-2.326,0.098h-0.069c-0.14,0-0.253-0.07-0.253-0.252v-1.135c0-0.154,0.099-0.266,0.267-0.308
		c0.519-0.127,1.499-0.295,2.423-0.295c2.018,0,3.278,0.812,3.278,2.857v5.001C710.347,592.012,710.221,592.138,710.066,592.138z
		 M708.119,588.707h-0.798c-0.98,0-1.233,0.336-1.233,1.022v0.126c0,0.588,0.295,0.7,0.883,0.7c0.42,0,0.812-0.14,1.148-0.308
		V588.707z"/>
	<path fill="#5BA4C2" d="M718.831,584.434l-2.353,8.25c-0.436,1.514-1.01,2.283-3.068,2.283c-0.518,0-1.345-0.111-1.695-0.224
		c-0.154-0.056-0.294-0.098-0.294-0.252v-1.135c0-0.154,0.126-0.267,0.28-0.267c0.014,0,0.014,0,0.028,0
		c0.462,0.028,1.288,0.112,1.751,0.112c0.504,0,0.756-0.168,0.924-0.729l0.127-0.434h-0.211c-0.518,0-0.952-0.084-1.303-1.303
		l-1.849-6.304c-0.015-0.042-0.015-0.07-0.015-0.098c0-0.141,0.085-0.225,0.281-0.225h1.863c0.14,0,0.237,0.126,0.266,0.267
		l1.261,5.267c0.042,0.196,0.084,0.266,0.168,0.266h0.014c0.028,0,0.042,0,0.056,0c0.043,0,0.057,0,0.057,0l1.303-5.532
		c0.027-0.141,0.141-0.267,0.294-0.267h1.863c0.14,0,0.267,0.112,0.267,0.252C718.846,584.392,718.831,584.406,718.831,584.434z"/>
	<path fill="#5BA4C2" d="M722.959,592.264c-2.27,0-3.516-1.415-3.516-3.642v-0.98c0-2.228,1.246-3.643,3.516-3.643
		s3.502,1.415,3.502,3.643v0.98C726.461,590.849,725.229,592.264,722.959,592.264z M724.205,587.642
		c0-1.135-0.434-1.709-1.246-1.709s-1.261,0.574-1.261,1.709v0.98c0,1.135,0.448,1.723,1.261,1.723s1.246-0.588,1.246-1.723V587.642
		z"/>
	<path fill="#5BA4C2" d="M732.102,585.877h-0.112c-0.687,0-1.288,0.211-1.807,0.49v5.478c0,0.154-0.126,0.294-0.28,0.294h-1.695
		c-0.154,0-0.294-0.14-0.294-0.294v-7.452c0-0.154,0.126-0.28,0.28-0.28h1.667c0.153,0,0.28,0.126,0.28,0.28v0.28
		c0.518-0.435,1.219-0.673,1.891-0.673c0.154,0,0.28,0.126,0.28,0.28v1.331C732.312,585.737,732.228,585.877,732.102,585.877z"/>
	<path fill="#5BA4C2" d="M737.169,581.436l-1.708,1.709c-0.113,0.112-0.154,0.168-0.337,0.168h-1.499
		c-0.084,0-0.14-0.042-0.14-0.098c0-0.042,0.028-0.084,0.069-0.14l1.303-1.64c0.112-0.153,0.183-0.21,0.379-0.21h1.835
		c0.084,0,0.153,0.042,0.153,0.099C737.225,581.352,737.211,581.394,737.169,581.436z M735.488,592.138h-1.682
		c-0.153,0-0.293-0.14-0.293-0.294v-7.438c0-0.154,0.14-0.294,0.293-0.294h1.682c0.154,0,0.294,0.14,0.294,0.294v7.438
		C735.782,591.999,735.643,592.138,735.488,592.138z"/>
	<path fill="#5BA4C2" d="M743.428,592.138h-1.568c-0.154,0-0.28-0.126-0.28-0.28v-0.224c-0.546,0.392-1.106,0.63-1.947,0.63
		c-1.219,0-2.396-0.588-2.396-2.409v-0.126c0-1.639,1.051-2.367,3.446-2.367h0.757v-0.505c0-0.798-0.393-0.966-1.051-0.966
		c-0.896,0-1.892,0.056-2.326,0.098h-0.069c-0.14,0-0.253-0.07-0.253-0.252v-1.135c0-0.154,0.099-0.266,0.267-0.308
		c0.519-0.127,1.499-0.295,2.423-0.295c2.018,0,3.278,0.812,3.278,2.857v5.001C743.708,592.012,743.582,592.138,743.428,592.138z
		 M741.48,588.707h-0.798c-0.98,0-1.233,0.336-1.233,1.022v0.126c0,0.588,0.295,0.7,0.883,0.7c0.42,0,0.812-0.14,1.148-0.308
		V588.707z"/>
</g>
<g enable-background="new    ">
	<path fill="#5BA4C2" d="M555.578,606.833h-4.468v0.028c0,0.798,0.336,1.526,1.443,1.526c0.882,0,2.129-0.07,2.689-0.126
		c0.014,0,0.028,0,0.042,0c0.154,0,0.266,0.07,0.266,0.224v1.065c0,0.224-0.056,0.321-0.294,0.378
		c-0.896,0.224-1.653,0.336-2.871,0.336c-1.695,0-3.516-0.896-3.516-3.6v-0.98c0-2.256,1.317-3.685,3.544-3.685
		c2.297,0,3.46,1.569,3.46,3.685v0.812C555.873,606.707,555.76,606.833,555.578,606.833z M553.659,605.376
		c0-1.036-0.476-1.555-1.261-1.555c-0.771,0-1.289,0.532-1.289,1.555v0.056h2.549V605.376z"/>
	<path fill="#5BA4C2" d="M559.958,610.264c-0.771,0-1.835-0.112-2.549-0.308c-0.168-0.043-0.266-0.154-0.266-0.322V608.5
		c0-0.141,0.098-0.267,0.266-0.267c0.014,0,0.042,0,0.056,0c0.757,0.099,1.933,0.196,2.381,0.196c0.672,0,0.827-0.182,0.827-0.546
		c0-0.21-0.126-0.364-0.519-0.589l-1.821-1.051c-0.784-0.448-1.247-1.162-1.247-2.072c0-1.415,0.938-2.172,2.872-2.172
		c1.106,0,1.779,0.141,2.493,0.322c0.168,0.042,0.266,0.154,0.266,0.322v1.135c0,0.168-0.098,0.266-0.238,0.266
		c-0.014,0-0.028,0-0.042,0c-0.406-0.056-1.611-0.182-2.326-0.182c-0.546,0-0.742,0.084-0.742,0.406c0,0.21,0.154,0.322,0.434,0.49
		l1.737,0.994c1.163,0.673,1.415,1.401,1.415,2.157C562.956,609.228,562.003,610.264,559.958,610.264z"/>
	<path fill="#5BA4C2" d="M568.653,610.152c-0.42,0.07-0.7,0.112-1.106,0.112c-1.541,0-2.354-0.406-2.354-2.396v-4.062l-1.121-0.183
		c-0.154-0.028-0.294-0.14-0.294-0.294v-0.925c0-0.154,0.14-0.294,0.294-0.294h1.121v-1.148c0-0.154,0.126-0.252,0.28-0.28
		l1.709-0.294c0.014,0,0.028,0,0.042,0c0.14,0,0.252,0.098,0.252,0.238v1.484h1.149c0.154,0,0.28,0.126,0.28,0.28v1.135
		c0,0.154-0.126,0.28-0.28,0.28h-1.149v4.076c0,0.56,0.042,0.658,0.462,0.658h0.687c0.182,0,0.294,0.084,0.294,0.238v1.092
		C568.919,610.012,568.821,610.125,568.653,610.152z"/>
	<path fill="#5BA4C2" d="M576.102,610.138h-1.569c-0.154,0-0.28-0.126-0.28-0.28v-0.224c-0.546,0.392-1.107,0.63-1.947,0.63
		c-1.219,0-2.396-0.588-2.396-2.409v-0.126c0-1.639,1.051-2.367,3.446-2.367h0.756v-0.505c0-0.798-0.392-0.966-1.051-0.966
		c-0.896,0-1.891,0.056-2.325,0.098h-0.07c-0.14,0-0.252-0.07-0.252-0.252v-1.135c0-0.154,0.098-0.266,0.266-0.308
		c0.519-0.127,1.499-0.295,2.423-0.295c2.017,0,3.278,0.812,3.278,2.857v5.001C576.382,610.012,576.256,610.138,576.102,610.138z
		 M574.155,606.707h-0.798c-0.98,0-1.233,0.336-1.233,1.022v0.126c0,0.588,0.294,0.7,0.882,0.7c0.42,0,0.812-0.14,1.149-0.308
		V606.707z M575.808,599.436l-1.709,1.709c-0.112,0.112-0.154,0.168-0.336,0.168h-1.499c-0.084,0-0.126-0.042-0.126-0.098
		c0-0.042,0.014-0.084,0.056-0.14l1.302-1.64c0.126-0.153,0.182-0.21,0.378-0.21h1.835c0.098,0,0.154,0.042,0.154,0.099
		C575.864,599.352,575.85,599.394,575.808,599.436z"/>
	<path fill="#5BA4C2" d="M584.656,610.138h-1.695c-0.154,0-0.28-0.14-0.28-0.294v-4.665c0-0.98-0.182-1.303-1.037-1.303
		c-0.406,0-0.84,0.196-1.316,0.448v5.52c0,0.154-0.126,0.294-0.28,0.294h-1.695c-0.154,0-0.294-0.14-0.294-0.294v-7.452
		c0-0.154,0.126-0.28,0.28-0.28h1.569c0.154,0,0.28,0.126,0.28,0.28v0.336c0.771-0.546,1.387-0.729,2.283-0.729
		c2.031,0,2.479,1.415,2.479,3.18v4.665C584.95,609.999,584.81,610.138,584.656,610.138z"/>
	<path fill="#5BA4C2" d="M595.183,610.054c-0.393,0.098-1.023,0.21-1.863,0.21c-1.975,0-3.264-1.261-3.264-3.544v-1.177
		c0-2.283,1.289-3.544,3.264-3.544c0.84,0,1.471,0.112,1.863,0.21c0.21,0.057,0.294,0.112,0.294,0.322v1.247
		c0,0.14-0.126,0.238-0.266,0.238c0,0-0.014,0-0.028,0c-0.519-0.057-0.911-0.099-1.709-0.099c-0.63,0-1.149,0.379-1.149,1.625v1.177
		c0,1.247,0.519,1.625,1.149,1.625c0.798,0,1.19-0.042,1.709-0.098c0.014,0,0.028,0,0.028,0c0.14,0,0.266,0.098,0.266,0.237v1.247
		C595.477,609.942,595.393,609.999,595.183,610.054z"/>
	<path fill="#5BA4C2" d="M599.732,610.264c-2.27,0-3.516-1.415-3.516-3.642v-0.98c0-2.228,1.247-3.643,3.516-3.643
		c2.269,0,3.502,1.415,3.502,3.643v0.98C603.234,608.849,602.001,610.264,599.732,610.264z M600.979,605.642
		c0-1.135-0.434-1.709-1.247-1.709s-1.261,0.574-1.261,1.709v0.98c0,1.135,0.448,1.723,1.261,1.723s1.247-0.588,1.247-1.723V605.642
		z"/>
	<path fill="#5BA4C2" d="M614.968,610.138h-1.695c-0.154,0-0.28-0.14-0.28-0.294v-4.776c0-0.896-0.21-1.163-0.854-1.163
		c-0.238,0-0.658,0.056-1.079,0.252c0.028,0.28,0.042,0.603,0.042,0.911v4.776c0,0.154-0.126,0.294-0.28,0.294h-1.695
		c-0.154,0-0.294-0.14-0.294-0.294v-4.776c0-0.896-0.168-1.163-0.812-1.163c-0.266,0-0.63,0.14-1.064,0.364v5.575
		c0,0.154-0.126,0.294-0.28,0.294h-1.695c-0.154,0-0.294-0.14-0.294-0.294v-7.452c0-0.154,0.126-0.28,0.28-0.28h1.597
		c0.154,0,0.28,0.126,0.28,0.28v0.308c0.588-0.392,1.261-0.7,2.073-0.7c0.742,0,1.261,0.21,1.653,0.687
		c0.812-0.462,1.373-0.687,2.283-0.687c1.849,0,2.409,1.233,2.409,3.068v4.776C615.262,609.999,615.122,610.138,614.968,610.138z"/>
	<path fill="#5BA4C2" d="M620.354,610.264c-0.28,0-0.742-0.042-1.148-0.098v2.423c0,0.154-0.126,0.28-0.28,0.28h-1.695
		c-0.154,0-0.294-0.126-0.294-0.28v-9.819c0-0.224,0.056-0.322,0.435-0.406c0.798-0.196,1.905-0.364,2.983-0.364
		c2.269,0,3.516,1.317,3.516,3.586v1.093C623.87,608.878,622.721,610.264,620.354,610.264z M621.601,605.586
		c0-0.994-0.252-1.709-1.247-1.709c-0.462,0-0.882,0.028-1.148,0.07v4.37c0.336,0.042,0.812,0.084,1.148,0.084
		c0.995,0,1.247-0.742,1.247-1.723V605.586z"/>
	<path fill="#5BA4C2" d="M631.906,610.138h-1.569c-0.154,0-0.28-0.126-0.28-0.28v-0.336c-0.771,0.546-1.387,0.729-2.283,0.729
		c-2.031,0-2.479-1.415-2.479-3.18v-4.665c0-0.154,0.14-0.294,0.294-0.294h1.695c0.154,0,0.28,0.14,0.28,0.294v4.665
		c0,0.98,0.182,1.303,1.036,1.303c0.406,0,0.841-0.196,1.317-0.448v-5.52c0-0.154,0.126-0.294,0.28-0.294h1.695
		c0.154,0,0.294,0.14,0.294,0.294v7.452C632.186,610.012,632.06,610.138,631.906,610.138z"/>
	<path fill="#5BA4C2" d="M640.361,606.833h-4.468v0.028c0,0.798,0.336,1.526,1.443,1.526c0.882,0,2.129-0.07,2.689-0.126
		c0.014,0,0.028,0,0.042,0c0.154,0,0.266,0.07,0.266,0.224v1.065c0,0.224-0.056,0.321-0.294,0.378
		c-0.896,0.224-1.653,0.336-2.871,0.336c-1.695,0-3.516-0.896-3.516-3.6v-0.98c0-2.256,1.317-3.685,3.544-3.685
		c2.297,0,3.46,1.569,3.46,3.685v0.812C640.656,606.707,640.543,606.833,640.361,606.833z M638.442,605.376
		c0-1.036-0.476-1.555-1.261-1.555c-0.771,0-1.289,0.532-1.289,1.555v0.056h2.549V605.376z"/>
	<path fill="#5BA4C2" d="M644.742,610.264c-0.771,0-1.836-0.112-2.55-0.308c-0.169-0.043-0.267-0.154-0.267-0.322V608.5
		c0-0.141,0.098-0.267,0.267-0.267c0.014,0,0.042,0,0.056,0c0.757,0.099,1.934,0.196,2.381,0.196c0.673,0,0.827-0.182,0.827-0.546
		c0-0.21-0.126-0.364-0.519-0.589l-1.82-1.051c-0.785-0.448-1.247-1.162-1.247-2.072c0-1.415,0.938-2.172,2.872-2.172
		c1.105,0,1.778,0.141,2.492,0.322c0.168,0.042,0.267,0.154,0.267,0.322v1.135c0,0.168-0.099,0.266-0.237,0.266
		c-0.015,0-0.029,0-0.043,0c-0.406-0.056-1.611-0.182-2.325-0.182c-0.546,0-0.742,0.084-0.742,0.406c0,0.21,0.154,0.322,0.435,0.49
		l1.736,0.994c1.163,0.673,1.415,1.401,1.415,2.157C647.739,609.228,646.787,610.264,644.742,610.264z"/>
	<path fill="#5BA4C2" d="M653.436,610.152c-0.42,0.07-0.699,0.112-1.105,0.112c-1.541,0-2.354-0.406-2.354-2.396v-4.062
		l-1.121-0.183c-0.154-0.028-0.294-0.14-0.294-0.294v-0.925c0-0.154,0.14-0.294,0.294-0.294h1.121v-1.148
		c0-0.154,0.125-0.252,0.279-0.28l1.709-0.294c0.015,0,0.028,0,0.043,0c0.14,0,0.252,0.098,0.252,0.238v1.484h1.148
		c0.154,0,0.279,0.126,0.279,0.28v1.135c0,0.154-0.125,0.28-0.279,0.28h-1.148v4.076c0,0.56,0.041,0.658,0.462,0.658h0.687
		c0.182,0,0.294,0.084,0.294,0.238v1.092C653.702,610.012,653.604,610.125,653.436,610.152z"/>
	<path fill="#5BA4C2" d="M660.885,610.138h-1.568c-0.154,0-0.28-0.126-0.28-0.28v-0.224c-0.546,0.392-1.106,0.63-1.947,0.63
		c-1.219,0-2.396-0.588-2.396-2.409v-0.126c0-1.639,1.051-2.367,3.446-2.367h0.757v-0.505c0-0.798-0.393-0.966-1.051-0.966
		c-0.896,0-1.892,0.056-2.326,0.098h-0.069c-0.14,0-0.253-0.07-0.253-0.252v-1.135c0-0.154,0.099-0.266,0.267-0.308
		c0.519-0.127,1.499-0.295,2.423-0.295c2.018,0,3.278,0.812,3.278,2.857v5.001C661.165,610.012,661.039,610.138,660.885,610.138z
		 M658.938,606.707h-0.798c-0.98,0-1.233,0.336-1.233,1.022v0.126c0,0.588,0.295,0.7,0.883,0.7c0.42,0,0.812-0.14,1.148-0.308
		V606.707z"/>
	<path fill="#5BA4C2" d="M665.461,610.264c-0.77,0-1.834-0.112-2.549-0.308c-0.168-0.043-0.266-0.154-0.266-0.322V608.5
		c0-0.141,0.098-0.267,0.266-0.267c0.014,0,0.042,0,0.056,0c0.757,0.099,1.933,0.196,2.382,0.196c0.672,0,0.826-0.182,0.826-0.546
		c0-0.21-0.126-0.364-0.519-0.589l-1.821-1.051c-0.783-0.448-1.246-1.162-1.246-2.072c0-1.415,0.938-2.172,2.871-2.172
		c1.107,0,1.779,0.141,2.494,0.322c0.168,0.042,0.266,0.154,0.266,0.322v1.135c0,0.168-0.098,0.266-0.238,0.266
		c-0.014,0-0.027,0-0.042,0c-0.405-0.056-1.61-0.182-2.325-0.182c-0.546,0-0.742,0.084-0.742,0.406c0,0.21,0.154,0.322,0.434,0.49
		l1.737,0.994c1.163,0.673,1.415,1.401,1.415,2.157C668.459,609.228,667.506,610.264,665.461,610.264z"/>
	<path fill="#5BA4C2" d="M676.941,610.264c-0.28,0-0.742-0.042-1.148-0.098v2.423c0,0.154-0.127,0.28-0.28,0.28h-1.694
		c-0.154,0-0.295-0.126-0.295-0.28v-9.819c0-0.224,0.057-0.322,0.435-0.406c0.798-0.196,1.905-0.364,2.983-0.364
		c2.27,0,3.516,1.317,3.516,3.586v1.093C680.457,608.878,679.309,610.264,676.941,610.264z M678.188,605.586
		c0-0.994-0.252-1.709-1.246-1.709c-0.463,0-0.883,0.028-1.148,0.07v4.37c0.336,0.042,0.812,0.084,1.148,0.084
		c0.994,0,1.246-0.742,1.246-1.723V605.586z"/>
	<path fill="#5BA4C2" d="M685.174,610.264c-2.27,0-3.517-1.415-3.517-3.642v-0.98c0-2.228,1.247-3.643,3.517-3.643
		c2.269,0,3.502,1.415,3.502,3.643v0.98C688.676,608.849,687.442,610.264,685.174,610.264z M686.42,605.642
		c0-1.135-0.434-1.709-1.246-1.709s-1.262,0.574-1.262,1.709v0.98c0,1.135,0.449,1.723,1.262,1.723s1.246-0.588,1.246-1.723V605.642
		z"/>
	<path fill="#5BA4C2" d="M694.315,603.877h-0.112c-0.686,0-1.289,0.211-1.807,0.49v5.478c0,0.154-0.127,0.294-0.28,0.294h-1.694
		c-0.154,0-0.295-0.14-0.295-0.294v-7.452c0-0.154,0.126-0.28,0.28-0.28h1.667c0.154,0,0.28,0.126,0.28,0.28v0.28
		c0.519-0.435,1.218-0.673,1.891-0.673c0.154,0,0.28,0.126,0.28,0.28v1.331C694.525,603.737,694.441,603.877,694.315,603.877z"/>
	<path fill="#5BA4C2" d="M705.223,610.138h-1.569c-0.153,0-0.28-0.126-0.28-0.28v-0.224c-0.546,0.392-1.106,0.63-1.947,0.63
		c-1.219,0-2.395-0.588-2.395-2.409v-0.126c0-1.639,1.051-2.367,3.445-2.367h0.757v-0.505c0-0.798-0.393-0.966-1.051-0.966
		c-0.896,0-1.892,0.056-2.325,0.098h-0.07c-0.14,0-0.252-0.07-0.252-0.252v-1.135c0-0.154,0.098-0.266,0.266-0.308
		c0.52-0.127,1.5-0.295,2.424-0.295c2.018,0,3.277,0.812,3.277,2.857v5.001C705.502,610.012,705.377,610.138,705.223,610.138z
		 M703.275,606.707h-0.799c-0.98,0-1.232,0.336-1.232,1.022v0.126c0,0.588,0.295,0.7,0.883,0.7c0.42,0,0.812-0.14,1.148-0.308
		V606.707z"/>
	<path fill="#5BA4C2" d="M714.168,603.583l-0.434,0.141c0.168,0.252,0.309,0.7,0.309,1.036v0.112c0,1.82-1.275,2.619-3.461,2.619
		c-0.658,0-1.176-0.098-1.456-0.21c-0.154,0.098-0.196,0.196-0.196,0.322c0,0.224,0.084,0.322,0.42,0.392l1.583,0.351
		c2.438,0.532,3.278,0.91,3.278,2.255v0.112c0,1.541-1.205,2.283-3.67,2.283c-2.326,0-3.559-0.812-3.559-2.283V610.6
		c0-0.574,0.238-1.106,0.841-1.568c-0.505-0.28-0.714-0.841-0.714-1.303c0-0.519,0.266-0.91,0.615-1.19
		c-0.447-0.393-0.645-1.107-0.645-1.667v-0.112c0-1.583,1.051-2.647,3.502-2.647h3.488c0.196,0,0.351,0.168,0.351,0.364v0.799
		C714.421,603.47,714.337,603.527,714.168,603.583z M711.899,610.6c0-0.266-0.183-0.448-1.442-0.729l-1.037-0.224
		c-0.168,0.238-0.28,0.462-0.28,0.952v0.112c0,0.477,0.322,0.715,1.401,0.715c1.148,0,1.358-0.295,1.358-0.715V610.6z
		 M711.829,604.76c0-0.574-0.252-1.009-1.247-1.009c-0.994,0-1.273,0.435-1.273,1.009v0.112c0,0.476,0.209,0.98,1.273,0.98
		c0.98,0,1.247-0.378,1.247-0.98V604.76z"/>
	<path fill="#5BA4C2" d="M722.177,610.138h-1.569c-0.154,0-0.279-0.126-0.279-0.28v-0.336c-0.771,0.546-1.387,0.729-2.283,0.729
		c-2.031,0-2.48-1.415-2.48-3.18v-4.665c0-0.154,0.141-0.294,0.295-0.294h1.695c0.153,0,0.279,0.14,0.279,0.294v4.665
		c0,0.98,0.183,1.303,1.037,1.303c0.406,0,0.84-0.196,1.316-0.448v-5.52c0-0.154,0.126-0.294,0.28-0.294h1.694
		c0.154,0,0.295,0.14,0.295,0.294v7.452C722.457,610.012,722.33,610.138,722.177,610.138z"/>
	<path fill="#5BA4C2" d="M730.044,610.138h-1.569c-0.153,0-0.279-0.126-0.279-0.28v-0.224c-0.547,0.392-1.107,0.63-1.947,0.63
		c-1.219,0-2.396-0.588-2.396-2.409v-0.126c0-1.639,1.051-2.367,3.446-2.367h0.756v-0.505c0-0.798-0.392-0.966-1.051-0.966
		c-0.896,0-1.891,0.056-2.324,0.098h-0.07c-0.141,0-0.252-0.07-0.252-0.252v-1.135c0-0.154,0.098-0.266,0.266-0.308
		c0.519-0.127,1.499-0.295,2.424-0.295c2.017,0,3.277,0.812,3.277,2.857v5.001C730.324,610.012,730.198,610.138,730.044,610.138z
		 M728.098,606.707h-0.799c-0.98,0-1.232,0.336-1.232,1.022v0.126c0,0.588,0.294,0.7,0.882,0.7c0.421,0,0.812-0.14,1.149-0.308
		V606.707z"/>
</g>
</svg>
