<?xml version="1.0" encoding="utf-8"?>
<!-- Generator: Adobe Illustrator 16.0.0, SVG Export Plug-In . SVG Version: 6.00 Build 0)  -->
<!DOCTYPE svg PUBLIC "-//W3C//DTD SVG 1.1//EN" "http://www.w3.org/Graphics/SVG/1.1/DTD/svg11.dtd">
<svg version="1.1" id="Layer_1" xmlns="http://www.w3.org/2000/svg" xmlns:xlink="http://www.w3.org/1999/xlink" x="0px" y="0px"
	 width="1280px" height="700px" viewBox="0 0 1280 700" enable-background="new 0 0 1280 700" xml:space="preserve">
<g id="Miscelaneas">
	<g>
		<g>
			<path fill="none" stroke="#5BA4C2" stroke-width="0.75" stroke-miterlimit="10" d="M640.316,644c0,0,0-14.332,0-19.332
				c0-3.087,1.002-4.066,3.666-4.066c2.663,0,117.926,0,117.926,0c2.987,0,3.763-1.438,3.763-5.035
				c0-3.375-0.331-19.253-0.331-23.016c0-3.542,0.941-5.367,3.32-6.032v-0.222c-2.379-0.663-3.32-2.435-3.32-6.031
				c0-3.762,0.331-16.641,0.331-20.018"/>
		</g>
		<g>
			<path fill="none" stroke="#5BA4C2" stroke-width="0.75" stroke-miterlimit="10" d="M513.021,560.248
				c0,3.376,0.331,16.256,0.331,20.018c0,3.598-0.94,5.368-3.319,6.031v0.222c2.379,0.665,3.319,2.49,3.319,6.032
				c0,3.763-0.331,19.641-0.331,23.016c0,3.597,0.774,5.035,3.764,5.035c0,0,117.2,0,119.864,0c2.663,0,3.666,0.979,3.666,4.065
				c0,5,0,19.333,0,19.333"/>
		</g>
	</g>
	<g>
		<g>
			<path fill="#5BA4C2" d="M643.808,643.882l-0.002-0.009l-3.489-6.875v-0.017l-0.005,0.008l-0.004-0.008l-0.003,0.021l-3.662,6.781
				l-0.006,0.025c-0.343,0.594-0.547,1.281-0.558,2.014c-0.029,2.277,1.794,4.147,4.071,4.178c2.276,0.027,4.145-1.795,4.175-4.071
				C644.333,645.186,644.146,644.486,643.808,643.882z"/>
			<g>
				<g>
					<path fill="#72ADC8" d="M638.954,649.033c-0.021,0-0.045-0.002-0.068-0.008c-2.028-0.41-2.326-2.586-2.202-3.682
						c0.022-0.199,0.202-0.34,0.403-0.319c0.2,0.023,0.344,0.204,0.32,0.403c-0.012,0.104-0.254,2.504,1.623,2.883
						c0.196,0.039,0.323,0.232,0.285,0.43C639.28,648.916,639.125,649.035,638.954,649.033z"/>
				</g>
			</g>
		</g>
		<path fill="#72ADC8" d="M644.325,645.928c0.008-0.742-0.182-1.441-0.519-2.047l-0.002-0.009l-3.489-6.875v-0.017l-0.005,0.008
			l-0.004-0.008v13.011C642.512,649.936,644.296,648.152,644.325,645.928z"/>
		<g>
			<g>
				<path fill="#E2D4D5" d="M641.925,643.449l-0.758-2.031c-0.061-0.137-0.11-0.383,0.025-0.442
					c0.135-0.061,0.278,0.131,0.339,0.266l0.981,1.905c0.061,0.136,0.025,0.396-0.108,0.457
					C642.151,643.718,641.97,643.557,641.925,643.449z"/>
			</g>
			
				<ellipse transform="matrix(-0.08 -0.9968 0.9968 -0.08 51.7795 1336.3521)" fill="#E2D4D5" cx="642.572" cy="644.281" rx="0.415" ry="0.393"/>
		</g>
	</g>
	<g>
		<g>
			<path fill="#5BA4C2" d="M644.012,655.873l-0.001-0.004l-1.927-3.795v-0.01l-0.002,0.005l-0.002-0.005l-0.002,0.012l-2.021,3.742
				l-0.003,0.016c-0.188,0.326-0.302,0.706-0.308,1.11c-0.017,1.257,0.99,2.289,2.247,2.307c1.257,0.016,2.287-0.99,2.304-2.248
				C644.302,656.594,644.197,656.207,644.012,655.873z"/>
			<g>
				<g>
					<path fill="#72ADC8" d="M641.333,658.718c-0.013,0-0.025-0.002-0.038-0.004c-1.12-0.228-1.284-1.429-1.215-2.033
						c0.012-0.109,0.111-0.188,0.223-0.177c0.109,0.015,0.189,0.113,0.177,0.224c-0.007,0.059-0.141,1.382,0.896,1.592
						c0.108,0.021,0.179,0.127,0.157,0.236C641.513,658.652,641.427,658.719,641.333,658.718z"/>
				</g>
			</g>
		</g>
		<path fill="#72ADC8" d="M644.297,657.003c0.005-0.409-0.1-0.796-0.285-1.13l-0.001-0.004l-1.927-3.795v-0.01l-0.002,0.005
			l-0.002-0.005v7.182C643.296,659.216,644.281,658.23,644.297,657.003z"/>
		<g>
			<g>
				<path fill="#E2D4D5" d="M642.973,655.635l-0.419-1.122c-0.033-0.075-0.061-0.21,0.016-0.244
					c0.073-0.033,0.153,0.072,0.187,0.146l0.542,1.052c0.033,0.075,0.016,0.219-0.061,0.252
					C643.098,655.782,642.997,655.693,642.973,655.635z"/>
			</g>
			
				<ellipse transform="matrix(-0.0747 -0.9972 0.9972 -0.0747 37.1555 1346.7255)" fill="#E2D4D5" cx="643.363" cy="656.125" rx="0.229" ry="0.217"/>
		</g>
	</g>
</g>
<g enable-background="new    ">
	<path fill="#5BA4C2" d="M557.803,562.251c-2.255,0-3.852-0.98-3.852-3.965v-6.289c0-0.154,0.126-0.266,0.28-0.266h1.387
		c0.154,0,0.28,0.111,0.28,0.266v6.289c0,1.598,0.392,2.354,1.905,2.354s1.905-0.756,1.905-2.354v-6.289
		c0-0.154,0.126-0.266,0.28-0.266h1.387c0.154,0,0.28,0.111,0.28,0.266v6.289C561.655,561.27,560.058,562.251,557.803,562.251z"/>
	<path fill="#5BA4C2" d="M569.732,562.138h-1.289c-0.154,0-0.28-0.14-0.28-0.294v-4.566c0-1.219-0.112-1.569-1.191-1.569
		c-0.476,0-0.995,0.196-1.583,0.505v5.631c0,0.154-0.126,0.294-0.28,0.294h-1.289c-0.154,0-0.28-0.14-0.28-0.294v-7.326
		c0-0.154,0.126-0.28,0.28-0.28h1.219c0.154,0,0.28,0.126,0.28,0.28v0.294c0.812-0.518,1.345-0.672,2.269-0.672
		c2.017,0,2.423,1.358,2.423,3.138v4.566C570.012,561.999,569.886,562.138,569.732,562.138z"/>
	<path fill="#5BA4C2" d="M577.403,562.138h-1.19c-0.154,0-0.28-0.126-0.28-0.28v-0.224c-0.644,0.392-1.303,0.616-1.975,0.616
		c-1.163,0-2.423-0.448-2.423-2.34v-0.056c0-1.597,0.98-2.424,3.418-2.424h0.882v-0.616c0-0.91-0.406-1.134-1.232-1.134
		c-0.896,0-1.821,0.056-2.283,0.111c-0.028,0-0.056,0-0.07,0c-0.14,0-0.252-0.042-0.252-0.238v-0.896
		c0-0.153,0.084-0.252,0.266-0.294c0.56-0.112,1.373-0.224,2.339-0.224c1.989,0,3.082,0.882,3.082,2.675v5.043
		C577.684,562.012,577.558,562.138,577.403,562.138z M575.834,558.665h-0.882c-1.275,0-1.555,0.406-1.555,1.19v0.056
		c0,0.687,0.308,0.869,1.008,0.869c0.504,0,1.022-0.168,1.429-0.393V558.665z"/>
	<path fill="#5BA4C2" d="M584.653,553.187h-1.359c-0.154,0-0.294-0.126-0.294-0.28v-1.232c0-0.154,0.14-0.28,0.294-0.28h1.359
		c0.154,0,0.28,0.126,0.28,0.28v1.232C584.934,553.061,584.807,553.187,584.653,553.187z M584.611,562.138h-1.289
		c-0.154,0-0.28-0.14-0.28-0.294v-7.326c0-0.154,0.126-0.28,0.28-0.28h1.289c0.154,0,0.28,0.126,0.28,0.28v7.326
		C584.891,561.999,584.765,562.138,584.611,562.138z"/>
	<path fill="#5BA4C2" d="M592.944,562.138h-1.289c-0.154,0-0.28-0.14-0.28-0.294v-4.566c0-1.219-0.112-1.569-1.191-1.569
		c-0.476,0-0.995,0.196-1.583,0.505v5.631c0,0.154-0.126,0.294-0.28,0.294h-1.289c-0.154,0-0.28-0.14-0.28-0.294v-7.326
		c0-0.154,0.126-0.28,0.28-0.28h1.219c0.154,0,0.28,0.126,0.28,0.28v0.294c0.812-0.518,1.345-0.672,2.269-0.672
		c2.017,0,2.423,1.358,2.423,3.138v4.566C593.224,561.999,593.098,562.138,592.944,562.138z"/>
	<path fill="#5BA4C2" d="M601.148,554.56l-1.765,6.373c-0.28,1.037-1.037,1.317-1.751,1.317s-1.457-0.28-1.737-1.317l-1.765-6.373
		c-0.014-0.028-0.014-0.07-0.014-0.098c0-0.126,0.098-0.225,0.225-0.225h1.4c0.126,0,0.238,0.099,0.28,0.28l1.345,5.869
		c0.056,0.267,0.154,0.351,0.266,0.351c0.112,0,0.21-0.084,0.266-0.351l1.345-5.869c0.042-0.182,0.168-0.28,0.294-0.28h1.4
		c0.126,0,0.224,0.099,0.224,0.225C601.162,554.49,601.162,554.532,601.148,554.56z"/>
	<path fill="#5BA4C2" d="M608.302,558.833h-4.566v0.042c0,0.812,0.336,1.779,1.681,1.779c1.022,0,1.989-0.084,2.578-0.141
		c0.014,0,0.028,0,0.042,0c0.14,0,0.252,0.07,0.252,0.21v0.925c0,0.224-0.042,0.322-0.294,0.364
		c-0.911,0.168-1.457,0.238-2.718,0.238c-1.4,0-3.39-0.757-3.39-3.517v-1.036c0-2.186,1.219-3.558,3.362-3.558
		c2.157,0,3.334,1.471,3.334,3.558v0.784C608.582,558.707,608.498,558.833,608.302,558.833z M606.719,557.46
		c0-1.093-0.602-1.723-1.471-1.723s-1.499,0.616-1.499,1.723v0.057h2.97V557.46z"/>
	<path fill="#5BA4C2" d="M612.723,562.251c-0.546,0-1.723-0.07-2.507-0.28c-0.168-0.042-0.266-0.154-0.266-0.322v-0.841
		c0-0.111,0.098-0.224,0.238-0.224c0.028,0,0.042,0,0.056,0c0.672,0.084,1.933,0.154,2.353,0.154c0.869,0,0.995-0.295,0.995-0.673
		c0-0.266-0.168-0.435-0.616-0.714l-1.919-1.177c-0.687-0.421-1.177-1.121-1.177-1.934c0-1.4,0.882-2.101,2.662-2.101
		c1.134,0,1.779,0.126,2.493,0.28c0.168,0.042,0.252,0.153,0.252,0.321v0.812c0,0.169-0.084,0.267-0.224,0.267
		c-0.028,0-0.042,0-0.056,0c-0.393-0.056-1.513-0.168-2.312-0.168c-0.672,0-0.966,0.154-0.966,0.588c0,0.225,0.21,0.364,0.56,0.574
		l1.835,1.121c1.177,0.714,1.345,1.415,1.345,2.129C615.469,561.284,614.559,562.251,612.723,562.251z"/>
	<path fill="#5BA4C2" d="M621.012,562.152c-0.336,0.057-0.644,0.099-0.953,0.099c-1.583,0-2.227-0.351-2.227-2.228v-4.398
		l-1.316-0.196c-0.154-0.027-0.28-0.126-0.28-0.28v-0.63c0-0.154,0.126-0.28,0.28-0.28h1.316v-1.148c0-0.154,0.126-0.252,0.28-0.28
		l1.303-0.224c0.014,0,0.042,0,0.056,0c0.126,0,0.224,0.069,0.224,0.21v1.442h1.26c0.154,0,0.28,0.126,0.28,0.28v0.826
		c0,0.154-0.126,0.28-0.28,0.28h-1.26v4.398c0,0.7,0.042,0.784,0.546,0.784h0.743c0.182,0,0.294,0.07,0.294,0.21v0.883
		C621.278,562.041,621.194,562.125,621.012,562.152z"/>
	<path fill="#5BA4C2" d="M624.189,553.187h-1.359c-0.154,0-0.294-0.126-0.294-0.28v-1.232c0-0.154,0.14-0.28,0.294-0.28h1.359
		c0.154,0,0.28,0.126,0.28,0.28v1.232C624.469,553.061,624.343,553.187,624.189,553.187z M624.147,562.138h-1.289
		c-0.154,0-0.28-0.14-0.28-0.294v-7.326c0-0.154,0.126-0.28,0.28-0.28h1.289c0.154,0,0.28,0.126,0.28,0.28v7.326
		C624.427,561.999,624.301,562.138,624.147,562.138z"/>
	<path fill="#5BA4C2" d="M632.941,555.512l-0.462,0.183c0.224,0.322,0.35,0.63,0.35,1.12v0.099c0,1.751-1.205,2.549-3.32,2.549
		c-0.743,0-1.247-0.126-1.527-0.238c-0.168,0.112-0.238,0.238-0.238,0.364c0,0.28,0.154,0.393,0.477,0.463l1.653,0.392
		c1.905,0.448,3.138,0.743,3.138,2.241v0.099c0,1.429-1.051,2.199-3.432,2.199c-2.269,0-3.474-0.854-3.474-2.325v-0.126
		c0-0.574,0.266-1.135,0.714-1.541c-0.392-0.294-0.63-0.784-0.63-1.289v-0.014c0-0.435,0.182-0.868,0.56-1.135
		c-0.42-0.435-0.574-0.938-0.574-1.639v-0.099c0-1.4,0.911-2.577,3.334-2.577h3.278c0.21,0,0.378,0.168,0.378,0.378v0.589
		C633.166,555.415,633.11,555.443,632.941,555.512z M631.163,562.684c0-0.308-0.182-0.49-1.653-0.84l-1.247-0.294
		c-0.21,0.294-0.351,0.476-0.351,0.98v0.126c0,0.574,0.351,0.924,1.667,0.924c1.345,0,1.583-0.294,1.583-0.798V562.684z
		 M631.008,556.844c0-0.672-0.294-1.19-1.499-1.19c-1.191,0-1.513,0.532-1.513,1.19v0.112c0,0.519,0.21,1.106,1.513,1.106
		c1.163,0,1.499-0.406,1.499-1.106V556.844z"/>
	<path fill="#5BA4C2" d="M640.039,562.138h-1.19c-0.154,0-0.28-0.126-0.28-0.28v-0.224c-0.644,0.392-1.303,0.616-1.975,0.616
		c-1.163,0-2.423-0.448-2.423-2.34v-0.056c0-1.597,0.98-2.424,3.418-2.424h0.882v-0.616c0-0.91-0.406-1.134-1.232-1.134
		c-0.896,0-1.821,0.056-2.283,0.111c-0.028,0-0.056,0-0.07,0c-0.14,0-0.252-0.042-0.252-0.238v-0.896
		c0-0.153,0.084-0.252,0.266-0.294c0.56-0.112,1.373-0.224,2.339-0.224c1.989,0,3.082,0.882,3.082,2.675v5.043
		C640.319,562.012,640.193,562.138,640.039,562.138z M638.47,558.665h-0.882c-1.275,0-1.555,0.406-1.555,1.19v0.056
		c0,0.687,0.308,0.869,1.008,0.869c0.504,0,1.022-0.168,1.429-0.393V558.665z"/>
	<path fill="#5BA4C2" d="M646.856,562.068c-0.321,0.084-0.952,0.183-1.807,0.183c-1.821,0-3.194-1.121-3.194-3.404v-1.303
		c0-2.283,1.373-3.403,3.194-3.403c0.854,0,1.485,0.098,1.807,0.182c0.238,0.057,0.294,0.141,0.294,0.364v0.91
		c0,0.141-0.111,0.211-0.252,0.211c-0.014,0-0.027,0-0.042,0c-0.56-0.07-0.896-0.099-1.807-0.099c-0.659,0-1.345,0.379-1.345,1.835
		v1.303c0,1.457,0.686,1.835,1.345,1.835c0.91,0,1.247-0.027,1.807-0.098c0.015,0,0.028,0,0.042,0c0.141,0,0.252,0.07,0.252,0.21
		v0.91C647.15,561.928,647.095,562.012,646.856,562.068z"/>
	<path fill="#5BA4C2" d="M650.341,553.187h-1.358c-0.154,0-0.295-0.126-0.295-0.28v-1.232c0-0.154,0.141-0.28,0.295-0.28h1.358
		c0.153,0,0.28,0.126,0.28,0.28v1.232C650.621,553.061,650.494,553.187,650.341,553.187z M650.299,562.138h-1.289
		c-0.154,0-0.279-0.14-0.279-0.294v-7.326c0-0.154,0.125-0.28,0.279-0.28h1.289c0.154,0,0.279,0.126,0.279,0.28v7.326
		C650.578,561.999,650.453,562.138,650.299,562.138z"/>
	<path fill="#5BA4C2" d="M655.549,562.251c-2.199,0-3.348-1.485-3.348-3.488v-1.135c0-2.003,1.148-3.487,3.348-3.487
		s3.348,1.484,3.348,3.487v1.135C658.896,560.765,657.748,562.251,655.549,562.251z M657.048,557.628
		c0-1.148-0.519-1.891-1.499-1.891s-1.498,0.742-1.498,1.891v1.135c0,1.148,0.518,1.892,1.498,1.892s1.499-0.743,1.499-1.892
		V557.628z M657.65,551.436l-1.653,1.737c-0.112,0.126-0.168,0.182-0.336,0.182h-1.204c-0.084,0-0.127-0.042-0.127-0.098
		c0-0.042,0.014-0.098,0.057-0.14l1.33-1.682c0.127-0.153,0.182-0.21,0.364-0.21h1.472c0.098,0,0.153,0.042,0.153,0.099
		C657.706,551.352,657.691,551.394,657.65,551.436z"/>
	<path fill="#5BA4C2" d="M666.667,562.138h-1.289c-0.153,0-0.28-0.14-0.28-0.294v-4.566c0-1.219-0.111-1.569-1.19-1.569
		c-0.476,0-0.995,0.196-1.583,0.505v5.631c0,0.154-0.126,0.294-0.279,0.294h-1.289c-0.154,0-0.28-0.14-0.28-0.294v-7.326
		c0-0.154,0.126-0.28,0.28-0.28h1.219c0.154,0,0.279,0.126,0.279,0.28v0.294c0.812-0.518,1.346-0.672,2.27-0.672
		c2.018,0,2.424,1.358,2.424,3.138v4.566C666.947,561.999,666.82,562.138,666.667,562.138z"/>
	<path fill="#5BA4C2" d="M678.441,558.833h-4.566v0.042c0,0.812,0.336,1.779,1.68,1.779c1.023,0,1.99-0.084,2.578-0.141
		c0.014,0,0.027,0,0.042,0c0.14,0,0.252,0.07,0.252,0.21v0.925c0,0.224-0.042,0.322-0.294,0.364
		c-0.91,0.168-1.457,0.238-2.718,0.238c-1.4,0-3.39-0.757-3.39-3.517v-1.036c0-2.186,1.219-3.558,3.361-3.558
		c2.158,0,3.334,1.471,3.334,3.558v0.784C678.721,558.707,678.637,558.833,678.441,558.833z M676.857,557.46
		c0-1.093-0.602-1.723-1.471-1.723c-0.868,0-1.498,0.616-1.498,1.723v0.057h2.969V557.46z"/>
	<path fill="#5BA4C2" d="M686.49,562.138h-1.289c-0.153,0-0.279-0.14-0.279-0.294v-4.566c0-1.219-0.112-1.569-1.191-1.569
		c-0.476,0-0.994,0.196-1.582,0.505v5.631c0,0.154-0.127,0.294-0.28,0.294h-1.289c-0.153,0-0.28-0.14-0.28-0.294v-7.326
		c0-0.154,0.127-0.28,0.28-0.28h1.219c0.154,0,0.28,0.126,0.28,0.28v0.294c0.812-0.518,1.345-0.672,2.27-0.672
		c2.017,0,2.423,1.358,2.423,3.138v4.566C686.771,561.999,686.645,562.138,686.49,562.138z"/>
	<path fill="#5BA4C2" d="M698.279,562.138h-1.289c-0.154,0-0.28-0.14-0.28-0.294v-4.566c0-1.219-0.112-1.569-1.19-1.569
		c-0.477,0-0.995,0.196-1.584,0.505v5.631c0,0.154-0.125,0.294-0.279,0.294h-1.289c-0.154,0-0.279-0.14-0.279-0.294v-7.326
		c0-0.154,0.125-0.28,0.279-0.28h1.219c0.154,0,0.28,0.126,0.28,0.28v0.294c0.812-0.518,1.345-0.672,2.269-0.672
		c2.018,0,2.424,1.358,2.424,3.138v4.566C698.559,561.999,698.433,562.138,698.279,562.138z"/>
	<path fill="#5BA4C2" d="M702.027,553.187h-1.358c-0.153,0-0.294-0.126-0.294-0.28v-1.232c0-0.154,0.141-0.28,0.294-0.28h1.358
		c0.154,0,0.281,0.126,0.281,0.28v1.232C702.309,553.061,702.182,553.187,702.027,553.187z M701.986,562.138h-1.289
		c-0.154,0-0.28-0.14-0.28-0.294v-7.326c0-0.154,0.126-0.28,0.28-0.28h1.289c0.153,0,0.279,0.126,0.279,0.28v7.326
		C702.266,561.999,702.14,562.138,701.986,562.138z"/>
	<path fill="#5BA4C2" d="M710.318,562.138h-1.289c-0.154,0-0.279-0.14-0.279-0.294v-4.566c0-1.219-0.113-1.569-1.191-1.569
		c-0.477,0-0.994,0.196-1.583,0.505v5.631c0,0.154-0.126,0.294-0.28,0.294h-1.289c-0.153,0-0.279-0.14-0.279-0.294v-7.326
		c0-0.154,0.126-0.28,0.279-0.28h1.219c0.154,0,0.281,0.126,0.281,0.28v0.294c0.812-0.518,1.344-0.672,2.269-0.672
		c2.017,0,2.423,1.358,2.423,3.138v4.566C710.598,561.999,710.473,562.138,710.318,562.138z M708.413,553.355
		c-0.308,0-0.7-0.111-0.98-0.321l-0.616-0.463c-0.238-0.182-0.42-0.294-0.588-0.294c-0.225,0-0.393,0.098-0.393,0.477v0.294
		c0,0.154-0.057,0.224-0.196,0.224h-0.798c-0.141,0-0.197-0.069-0.197-0.224v-0.294c0-1.121,0.604-1.569,1.569-1.569
		c0.308,0,0.687,0.099,0.967,0.309l0.616,0.462c0.238,0.183,0.42,0.28,0.588,0.28c0.238,0,0.393-0.098,0.393-0.462v-0.295
		c0-0.153,0.057-0.224,0.196-0.224h0.798c0.141,0,0.196,0.07,0.196,0.224v0.309C709.968,552.922,709.379,553.355,708.413,553.355z"
		/>
	<path fill="#5BA4C2" d="M715.524,562.251c-2.199,0-3.348-1.485-3.348-3.488v-1.135c0-2.003,1.148-3.487,3.348-3.487
		s3.349,1.484,3.349,3.487v1.135C718.873,560.765,717.724,562.251,715.524,562.251z M717.023,557.628
		c0-1.148-0.519-1.891-1.499-1.891s-1.499,0.742-1.499,1.891v1.135c0,1.148,0.519,1.892,1.499,1.892s1.499-0.743,1.499-1.892
		V557.628z"/>
	<path fill="#5BA4C2" d="M723.014,562.251c-0.546,0-1.723-0.07-2.508-0.28c-0.168-0.042-0.266-0.154-0.266-0.322v-0.841
		c0-0.111,0.098-0.224,0.238-0.224c0.027,0,0.042,0,0.057,0c0.672,0.084,1.933,0.154,2.353,0.154c0.868,0,0.995-0.295,0.995-0.673
		c0-0.266-0.168-0.435-0.617-0.714l-1.918-1.177c-0.688-0.421-1.178-1.121-1.178-1.934c0-1.4,0.883-2.101,2.662-2.101
		c1.135,0,1.779,0.126,2.493,0.28c0.168,0.042,0.252,0.153,0.252,0.321v0.812c0,0.169-0.084,0.267-0.224,0.267
		c-0.028,0-0.043,0-0.057,0c-0.393-0.056-1.513-0.168-2.311-0.168c-0.673,0-0.967,0.154-0.967,0.588c0,0.225,0.21,0.364,0.561,0.574
		l1.834,1.121c1.178,0.714,1.346,1.415,1.346,2.129C725.76,561.284,724.85,562.251,723.014,562.251z"/>
</g>
<g enable-background="new    ">
	<path fill="#5BA4C2" d="M539.561,580.068c-0.322,0.084-0.952,0.183-1.807,0.183c-1.821,0-3.194-1.121-3.194-3.404v-1.303
		c0-2.283,1.373-3.403,3.194-3.403c0.854,0,1.485,0.098,1.807,0.182c0.238,0.057,0.294,0.141,0.294,0.364v0.91
		c0,0.141-0.112,0.211-0.252,0.211c-0.014,0-0.028,0-0.042,0c-0.56-0.07-0.896-0.099-1.807-0.099c-0.659,0-1.345,0.379-1.345,1.835
		v1.303c0,1.457,0.686,1.835,1.345,1.835c0.91,0,1.247-0.027,1.807-0.098c0.014,0,0.028,0,0.042,0c0.14,0,0.252,0.07,0.252,0.21
		v0.91C539.855,579.928,539.799,580.012,539.561,580.068z"/>
	<path fill="#5BA4C2" d="M544.292,580.251c-2.199,0-3.348-1.485-3.348-3.488v-1.135c0-2.003,1.148-3.487,3.348-3.487
		s3.348,1.484,3.348,3.487v1.135C547.64,578.765,546.491,580.251,544.292,580.251z M545.791,575.628
		c0-1.148-0.519-1.891-1.499-1.891s-1.499,0.742-1.499,1.891v1.135c0,1.148,0.518,1.892,1.499,1.892s1.499-0.743,1.499-1.892
		V575.628z"/>
	<path fill="#5BA4C2" d="M555.41,580.138h-1.289c-0.154,0-0.28-0.14-0.28-0.294v-4.566c0-1.219-0.112-1.569-1.191-1.569
		c-0.476,0-0.995,0.196-1.583,0.505v5.631c0,0.154-0.126,0.294-0.28,0.294h-1.289c-0.154,0-0.28-0.14-0.28-0.294v-7.326
		c0-0.154,0.126-0.28,0.28-0.28h1.219c0.154,0,0.28,0.126,0.28,0.28v0.294c0.812-0.518,1.345-0.672,2.269-0.672
		c2.017,0,2.423,1.358,2.423,3.138v4.566C555.69,579.999,555.564,580.138,555.41,580.138z"/>
	<path fill="#5BA4C2" d="M565.152,580.152c-0.336,0.057-0.644,0.099-0.953,0.099c-1.583,0-2.227-0.351-2.227-2.228v-4.398
		l-1.317-0.196c-0.154-0.027-0.28-0.126-0.28-0.28v-0.63c0-0.154,0.126-0.28,0.28-0.28h1.317v-1.148c0-0.154,0.126-0.252,0.28-0.28
		l1.303-0.224c0.014,0,0.042,0,0.056,0c0.126,0,0.224,0.069,0.224,0.21v1.442h1.26c0.154,0,0.28,0.126,0.28,0.28v0.826
		c0,0.154-0.126,0.28-0.28,0.28h-1.26v4.398c0,0.7,0.042,0.784,0.546,0.784h0.743c0.182,0,0.294,0.07,0.294,0.21v0.883
		C565.418,580.041,565.334,580.125,565.152,580.152z"/>
	<path fill="#5BA4C2" d="M572.854,576.833h-4.566v0.042c0,0.812,0.336,1.779,1.681,1.779c1.022,0,1.989-0.084,2.578-0.141
		c0.014,0,0.028,0,0.042,0c0.14,0,0.252,0.07,0.252,0.21v0.925c0,0.224-0.042,0.322-0.294,0.364
		c-0.911,0.168-1.457,0.238-2.718,0.238c-1.4,0-3.39-0.757-3.39-3.517v-1.036c0-2.186,1.219-3.558,3.362-3.558
		c2.157,0,3.334,1.471,3.334,3.558v0.784C573.134,576.707,573.049,576.833,572.854,576.833z M571.271,575.46
		c0-1.093-0.602-1.723-1.471-1.723s-1.499,0.616-1.499,1.723v0.057h2.97V575.46z"/>
	<path fill="#5BA4C2" d="M580.904,580.138h-1.289c-0.154,0-0.28-0.14-0.28-0.294v-4.566c0-1.219-0.112-1.569-1.191-1.569
		c-0.476,0-0.995,0.196-1.583,0.505v5.631c0,0.154-0.126,0.294-0.28,0.294h-1.289c-0.154,0-0.28-0.14-0.28-0.294v-7.326
		c0-0.154,0.126-0.28,0.28-0.28h1.219c0.154,0,0.28,0.126,0.28,0.28v0.294c0.812-0.518,1.345-0.672,2.269-0.672
		c2.017,0,2.423,1.358,2.423,3.138v4.566C581.184,579.999,581.058,580.138,580.904,580.138z"/>
	<path fill="#5BA4C2" d="M588.883,579.886c-0.868,0.224-1.919,0.364-2.815,0.364c-2.255,0-3.348-1.331-3.348-3.517v-1.078
		c0-2.186,1.093-3.516,3.348-3.516c0.336,0,0.827,0.027,1.345,0.098v-2.479c0-0.153,0.126-0.28,0.28-0.28h1.289
		c0.154,0,0.28,0.127,0.28,0.28v9.75C589.261,579.719,589.205,579.802,588.883,579.886z M587.412,573.751
		c-0.392-0.056-1.008-0.098-1.345-0.098c-1.205,0-1.499,0.854-1.499,2.003v1.078c0,1.149,0.294,2.004,1.499,2.004
		c0.504,0,1.079-0.042,1.345-0.099V573.751z"/>
	<path fill="#5BA4C2" d="M597.255,576.833h-4.566v0.042c0,0.812,0.336,1.779,1.681,1.779c1.022,0,1.989-0.084,2.578-0.141
		c0.014,0,0.028,0,0.042,0c0.14,0,0.252,0.07,0.252,0.21v0.925c0,0.224-0.042,0.322-0.294,0.364
		c-0.911,0.168-1.457,0.238-2.718,0.238c-1.4,0-3.39-0.757-3.39-3.517v-1.036c0-2.186,1.219-3.558,3.362-3.558
		c2.157,0,3.334,1.471,3.334,3.558v0.784C597.536,576.707,597.452,576.833,597.255,576.833z M595.672,575.46
		c0-1.093-0.602-1.723-1.471-1.723s-1.499,0.616-1.499,1.723v0.057h2.97V575.46z"/>
	<path fill="#5BA4C2" d="M605.306,580.138h-1.289c-0.154,0-0.28-0.14-0.28-0.294v-4.566c0-1.219-0.112-1.569-1.191-1.569
		c-0.476,0-0.995,0.196-1.583,0.505v5.631c0,0.154-0.126,0.294-0.28,0.294h-1.289c-0.154,0-0.28-0.14-0.28-0.294v-7.326
		c0-0.154,0.126-0.28,0.28-0.28h1.219c0.154,0,0.28,0.126,0.28,0.28v0.294c0.812-0.518,1.345-0.672,2.269-0.672
		c2.017,0,2.423,1.358,2.423,3.138v4.566C605.585,579.999,605.459,580.138,605.306,580.138z"/>
	<path fill="#5BA4C2" d="M612.122,580.068c-0.322,0.084-0.952,0.183-1.807,0.183c-1.821,0-3.194-1.121-3.194-3.404v-1.303
		c0-2.283,1.373-3.403,3.194-3.403c0.854,0,1.485,0.098,1.807,0.182c0.238,0.057,0.294,0.141,0.294,0.364v0.91
		c0,0.141-0.112,0.211-0.252,0.211c-0.014,0-0.028,0-0.042,0c-0.56-0.07-0.896-0.099-1.807-0.099c-0.659,0-1.345,0.379-1.345,1.835
		v1.303c0,1.457,0.686,1.835,1.345,1.835c0.91,0,1.247-0.027,1.807-0.098c0.014,0,0.028,0,0.042,0c0.14,0,0.252,0.07,0.252,0.21
		v0.91C612.417,579.928,612.36,580.012,612.122,580.068z"/>
	<path fill="#5BA4C2" d="M615.606,571.187h-1.359c-0.154,0-0.294-0.126-0.294-0.28v-1.232c0-0.154,0.14-0.28,0.294-0.28h1.359
		c0.154,0,0.28,0.126,0.28,0.28v1.232C615.887,571.061,615.76,571.187,615.606,571.187z M615.564,580.138h-1.289
		c-0.154,0-0.28-0.14-0.28-0.294v-7.326c0-0.154,0.126-0.28,0.28-0.28h1.289c0.154,0,0.28,0.126,0.28,0.28v7.326
		C615.844,579.999,615.718,580.138,615.564,580.138z"/>
	<path fill="#5BA4C2" d="M623.28,580.138h-1.19c-0.154,0-0.28-0.126-0.28-0.28v-0.224c-0.644,0.392-1.303,0.616-1.975,0.616
		c-1.163,0-2.423-0.448-2.423-2.34v-0.056c0-1.597,0.98-2.424,3.418-2.424h0.882v-0.616c0-0.91-0.406-1.134-1.232-1.134
		c-0.896,0-1.821,0.056-2.283,0.111c-0.028,0-0.056,0-0.07,0c-0.14,0-0.252-0.042-0.252-0.238v-0.896
		c0-0.153,0.084-0.252,0.266-0.294c0.56-0.112,1.373-0.224,2.339-0.224c1.989,0,3.082,0.882,3.082,2.675v5.043
		C623.561,580.012,623.435,580.138,623.28,580.138z M621.711,576.665h-0.882c-1.275,0-1.555,0.406-1.555,1.19v0.056
		c0,0.687,0.308,0.869,1.008,0.869c0.504,0,1.022-0.168,1.429-0.393V576.665z"/>
	<path fill="#5BA4C2" d="M634.452,580.138h-1.19c-0.154,0-0.28-0.126-0.28-0.28v-0.224c-0.644,0.392-1.303,0.616-1.975,0.616
		c-1.163,0-2.423-0.448-2.423-2.34v-0.056c0-1.597,0.98-2.424,3.418-2.424h0.882v-0.616c0-0.91-0.406-1.134-1.232-1.134
		c-0.896,0-1.821,0.056-2.283,0.111c-0.028,0-0.056,0-0.07,0c-0.14,0-0.252-0.042-0.252-0.238v-0.896
		c0-0.153,0.084-0.252,0.266-0.294c0.56-0.112,1.373-0.224,2.339-0.224c1.989,0,3.082,0.882,3.082,2.675v5.043
		C634.732,580.012,634.606,580.138,634.452,580.138z M632.883,576.665h-0.882c-1.275,0-1.555,0.406-1.555,1.19v0.056
		c0,0.687,0.308,0.869,1.008,0.869c0.504,0,1.022-0.168,1.429-0.393V576.665z"/>
	<path fill="#5BA4C2" d="M638.202,580.138h-1.303c-0.154,0-0.28-0.14-0.28-0.294v-10.086c0-0.153,0.126-0.28,0.28-0.28h1.303
		c0.154,0,0.266,0.127,0.266,0.28v10.086C638.468,579.999,638.356,580.138,638.202,580.138z"/>
	<path fill="#5BA4C2" d="M650.034,576.833h-4.566v0.042c0,0.812,0.336,1.779,1.681,1.779c1.022,0,1.989-0.084,2.578-0.141
		c0.014,0,0.027,0,0.041,0c0.141,0,0.252,0.07,0.252,0.21v0.925c0,0.224-0.041,0.322-0.293,0.364
		c-0.911,0.168-1.457,0.238-2.719,0.238c-1.4,0-3.389-0.757-3.389-3.517v-1.036c0-2.186,1.219-3.558,3.361-3.558
		c2.157,0,3.334,1.471,3.334,3.558v0.784C650.314,576.707,650.23,576.833,650.034,576.833z M648.451,575.46
		c0-1.093-0.602-1.723-1.471-1.723s-1.499,0.616-1.499,1.723v0.057h2.97V575.46z"/>
	<path fill="#5BA4C2" d="M657.959,580.138h-1.598c-0.154,0-0.225-0.042-0.378-0.28l-1.597-2.465l-1.514,2.465
		c-0.153,0.238-0.224,0.28-0.377,0.28h-1.443c-0.112,0-0.168-0.07-0.168-0.154c0-0.042,0.014-0.084,0.042-0.126l2.507-3.796
		l-2.367-3.544c-0.014-0.028-0.027-0.056-0.027-0.084c0-0.098,0.098-0.196,0.224-0.196h1.597c0.154,0,0.225,0.07,0.365,0.28
		l1.414,2.186l1.316-2.186c0.154-0.252,0.225-0.28,0.379-0.28h1.442c0.112,0,0.168,0.07,0.168,0.154
		c0,0.042-0.015,0.084-0.042,0.126l-2.311,3.53l2.549,3.81c0.014,0.028,0.027,0.056,0.027,0.099
		C658.168,580.054,658.07,580.138,657.959,580.138z"/>
	<path fill="#5BA4C2" d="M663.655,580.068c-0.321,0.084-0.952,0.183-1.807,0.183c-1.821,0-3.194-1.121-3.194-3.404v-1.303
		c0-2.283,1.373-3.403,3.194-3.403c0.854,0,1.485,0.098,1.807,0.182c0.238,0.057,0.294,0.141,0.294,0.364v0.91
		c0,0.141-0.111,0.211-0.252,0.211c-0.014,0-0.027,0-0.042,0c-0.56-0.07-0.896-0.099-1.807-0.099c-0.659,0-1.345,0.379-1.345,1.835
		v1.303c0,1.457,0.686,1.835,1.345,1.835c0.91,0,1.247-0.027,1.807-0.098c0.015,0,0.028,0,0.042,0c0.141,0,0.252,0.07,0.252,0.21
		v0.91C663.949,579.928,663.894,580.012,663.655,580.068z"/>
	<path fill="#5BA4C2" d="M671.454,576.833h-4.566v0.042c0,0.812,0.336,1.779,1.681,1.779c1.022,0,1.989-0.084,2.578-0.141
		c0.014,0,0.027,0,0.041,0c0.141,0,0.252,0.07,0.252,0.21v0.925c0,0.224-0.041,0.322-0.293,0.364
		c-0.911,0.168-1.457,0.238-2.719,0.238c-1.4,0-3.389-0.757-3.389-3.517v-1.036c0-2.186,1.219-3.558,3.361-3.558
		c2.157,0,3.334,1.471,3.334,3.558v0.784C671.734,576.707,671.65,576.833,671.454,576.833z M669.871,575.46
		c0-1.093-0.602-1.723-1.471-1.723s-1.499,0.616-1.499,1.723v0.057h2.97V575.46z"/>
	<path fill="#5BA4C2" d="M675.877,580.251c-0.547,0-1.724-0.07-2.508-0.28c-0.168-0.042-0.267-0.154-0.267-0.322v-0.841
		c0-0.111,0.099-0.224,0.238-0.224c0.028,0,0.042,0,0.056,0c0.673,0.084,1.934,0.154,2.354,0.154c0.869,0,0.994-0.295,0.994-0.673
		c0-0.266-0.168-0.435-0.615-0.714l-1.92-1.177c-0.686-0.421-1.176-1.121-1.176-1.934c0-1.4,0.882-2.101,2.661-2.101
		c1.134,0,1.778,0.126,2.493,0.28c0.168,0.042,0.252,0.153,0.252,0.321v0.812c0,0.169-0.084,0.267-0.225,0.267
		c-0.027,0-0.041,0-0.055,0c-0.393-0.056-1.514-0.168-2.312-0.168c-0.672,0-0.966,0.154-0.966,0.588c0,0.225,0.21,0.364,0.56,0.574
		l1.836,1.121c1.176,0.714,1.344,1.415,1.344,2.129C678.621,579.284,677.711,580.251,675.877,580.251z"/>
	<path fill="#5BA4C2" d="M683.268,580.251c-2.199,0-3.348-1.485-3.348-3.488v-1.135c0-2.003,1.148-3.487,3.348-3.487
		s3.349,1.484,3.349,3.487v1.135C686.616,578.765,685.467,580.251,683.268,580.251z M684.768,575.628c0-1.148-0.52-1.891-1.5-1.891
		s-1.498,0.742-1.498,1.891v1.135c0,1.148,0.518,1.892,1.498,1.892s1.5-0.743,1.5-1.892V575.628z"/>
	<path fill="#5BA4C2" d="M697.578,579.886c-0.869,0.224-1.92,0.364-2.816,0.364c-2.254,0-3.348-1.331-3.348-3.517v-1.078
		c0-2.186,1.094-3.516,3.348-3.516c0.337,0,0.827,0.027,1.346,0.098v-2.479c0-0.153,0.125-0.28,0.279-0.28h1.289
		c0.154,0,0.28,0.127,0.28,0.28v9.75C697.956,579.719,697.9,579.802,697.578,579.886z M696.107,573.751
		c-0.393-0.056-1.009-0.098-1.346-0.098c-1.204,0-1.498,0.854-1.498,2.003v1.078c0,1.149,0.294,2.004,1.498,2.004
		c0.505,0,1.079-0.042,1.346-0.099V573.751z"/>
	<path fill="#5BA4C2" d="M705.949,576.833h-4.566v0.042c0,0.812,0.336,1.779,1.682,1.779c1.021,0,1.988-0.084,2.577-0.141
		c0.014,0,0.028,0,0.042,0c0.141,0,0.252,0.07,0.252,0.21v0.925c0,0.224-0.042,0.322-0.294,0.364
		c-0.911,0.168-1.457,0.238-2.718,0.238c-1.4,0-3.39-0.757-3.39-3.517v-1.036c0-2.186,1.219-3.558,3.362-3.558
		c2.156,0,3.334,1.471,3.334,3.558v0.784C706.23,576.707,706.146,576.833,705.949,576.833z M704.367,575.46
		c0-1.093-0.603-1.723-1.471-1.723c-0.869,0-1.5,0.616-1.5,1.723v0.057h2.971V575.46z"/>
	<path fill="#5BA4C2" d="M714.502,580.251c-0.336,0-0.826-0.028-1.345-0.099v2.479c0,0.154-0.126,0.28-0.28,0.28h-1.289
		c-0.153,0-0.279-0.126-0.279-0.28v-9.749c0-0.21,0.056-0.294,0.378-0.378c0.868-0.225,1.919-0.364,2.815-0.364
		c2.256,0,3.348,1.33,3.348,3.516v1.078C717.85,578.92,716.758,580.251,714.502,580.251z M716.001,575.656
		c0-1.148-0.294-2.003-1.499-2.003c-0.504,0-1.078,0.042-1.345,0.098v4.889c0.393,0.057,1.009,0.099,1.345,0.099
		c1.205,0,1.499-0.854,1.499-2.004V575.656z"/>
	<path fill="#5BA4C2" d="M725.563,576.833h-4.566v0.042c0,0.812,0.336,1.779,1.681,1.779c1.022,0,1.989-0.084,2.578-0.141
		c0.014,0,0.027,0,0.041,0c0.141,0,0.252,0.07,0.252,0.21v0.925c0,0.224-0.041,0.322-0.293,0.364
		c-0.911,0.168-1.457,0.238-2.719,0.238c-1.4,0-3.389-0.757-3.389-3.517v-1.036c0-2.186,1.219-3.558,3.361-3.558
		c2.157,0,3.334,1.471,3.334,3.558v0.784C725.844,576.707,725.76,576.833,725.563,576.833z M723.98,575.46
		c0-1.093-0.602-1.723-1.471-1.723s-1.499,0.616-1.499,1.723v0.057h2.97V575.46z"/>
	<path fill="#5BA4C2" d="M729.986,580.251c-0.547,0-1.724-0.07-2.508-0.28c-0.168-0.042-0.267-0.154-0.267-0.322v-0.841
		c0-0.111,0.099-0.224,0.238-0.224c0.028,0,0.042,0,0.056,0c0.673,0.084,1.934,0.154,2.354,0.154c0.869,0,0.994-0.295,0.994-0.673
		c0-0.266-0.168-0.435-0.615-0.714l-1.92-1.177c-0.686-0.421-1.176-1.121-1.176-1.934c0-1.4,0.882-2.101,2.661-2.101
		c1.134,0,1.778,0.126,2.493,0.28c0.168,0.042,0.252,0.153,0.252,0.321v0.812c0,0.169-0.084,0.267-0.225,0.267
		c-0.027,0-0.041,0-0.055,0c-0.393-0.056-1.514-0.168-2.312-0.168c-0.672,0-0.966,0.154-0.966,0.588c0,0.225,0.21,0.364,0.56,0.574
		l1.836,1.121c1.176,0.714,1.344,1.415,1.344,2.129C732.73,579.284,731.82,580.251,729.986,580.251z"/>
	<path fill="#5BA4C2" d="M737.377,580.251c-2.199,0-3.348-1.485-3.348-3.488v-1.135c0-2.003,1.148-3.487,3.348-3.487
		s3.349,1.484,3.349,3.487v1.135C740.726,578.765,739.576,580.251,737.377,580.251z M738.877,575.628c0-1.148-0.52-1.891-1.5-1.891
		s-1.498,0.742-1.498,1.891v1.135c0,1.148,0.518,1.892,1.498,1.892s1.5-0.743,1.5-1.892V575.628z"/>
	<path fill="#5BA4C2" d="M744.209,578.275l-1.219,2.941c-0.07,0.169-0.111,0.28-0.266,0.28h-0.967c-0.126,0-0.21-0.084-0.21-0.195
		c0-0.028,0-0.057,0.014-0.085l0.854-2.941c0.057-0.168,0.126-0.266,0.28-0.266h1.345c0.111,0,0.196,0.069,0.196,0.168
		C744.237,578.206,744.223,578.233,744.209,578.275z"/>
</g>
<g enable-background="new    ">
	<path fill="#5BA4C2" d="M584.909,598.138h-1.289c-0.154,0-0.28-0.14-0.28-0.294v-4.763c0-1.079-0.224-1.358-1.009-1.358
		c-0.266,0-0.798,0.084-1.303,0.35c0.042,0.309,0.056,0.658,0.056,1.009v4.763c0,0.154-0.126,0.294-0.28,0.294h-1.289
		c-0.154,0-0.28-0.14-0.28-0.294v-4.763c0-1.079-0.182-1.358-0.966-1.358c-0.294,0-0.714,0.153-1.289,0.462v5.659
		c0,0.154-0.126,0.294-0.28,0.294h-1.289c-0.154,0-0.28-0.14-0.28-0.294v-7.326c0-0.154,0.126-0.28,0.28-0.28h1.219
		c0.154,0,0.28,0.126,0.28,0.28v0.294c0.588-0.378,1.177-0.672,2.003-0.672c0.799,0,1.317,0.238,1.639,0.63
		c0.714-0.392,1.345-0.63,2.311-0.63c1.905,0,2.325,1.303,2.325,2.941v4.763C585.189,597.999,585.063,598.138,584.909,598.138z"/>
	<path fill="#5BA4C2" d="M590.113,598.251c-2.199,0-3.348-1.485-3.348-3.488v-1.135c0-2.003,1.148-3.487,3.348-3.487
		s3.348,1.484,3.348,3.487v1.135C593.461,596.765,592.312,598.251,590.113,598.251z M591.612,593.628
		c0-1.148-0.519-1.891-1.499-1.891s-1.499,0.742-1.499,1.891v1.135c0,1.148,0.518,1.892,1.499,1.892s1.499-0.743,1.499-1.892
		V593.628z"/>
	<path fill="#5BA4C2" d="M597.603,598.251c-0.546,0-1.723-0.07-2.508-0.28c-0.168-0.042-0.266-0.154-0.266-0.322v-0.841
		c0-0.111,0.098-0.224,0.238-0.224c0.028,0,0.042,0,0.056,0c0.672,0.084,1.933,0.154,2.353,0.154c0.869,0,0.995-0.295,0.995-0.673
		c0-0.266-0.168-0.435-0.616-0.714l-1.919-1.177c-0.687-0.421-1.177-1.121-1.177-1.934c0-1.4,0.882-2.101,2.662-2.101
		c1.134,0,1.779,0.126,2.493,0.28c0.168,0.042,0.252,0.153,0.252,0.321v0.812c0,0.169-0.084,0.267-0.224,0.267
		c-0.028,0-0.042,0-0.056,0c-0.393-0.056-1.513-0.168-2.312-0.168c-0.672,0-0.966,0.154-0.966,0.588c0,0.225,0.21,0.364,0.56,0.574
		l1.835,1.121c1.177,0.714,1.345,1.415,1.345,2.129C600.348,597.284,599.438,598.251,597.603,598.251z"/>
	<path fill="#5BA4C2" d="M605.892,598.152c-0.336,0.057-0.644,0.099-0.953,0.099c-1.583,0-2.227-0.351-2.227-2.228v-4.398
		l-1.317-0.196c-0.154-0.027-0.28-0.126-0.28-0.28v-0.63c0-0.154,0.126-0.28,0.28-0.28h1.317v-1.148c0-0.154,0.126-0.252,0.28-0.28
		l1.303-0.224c0.014,0,0.042,0,0.056,0c0.126,0,0.224,0.069,0.224,0.21v1.442h1.26c0.154,0,0.28,0.126,0.28,0.28v0.826
		c0,0.154-0.126,0.28-0.28,0.28h-1.26v4.398c0,0.7,0.042,0.784,0.546,0.784h0.743c0.182,0,0.294,0.07,0.294,0.21v0.883
		C606.158,598.041,606.074,598.125,605.892,598.152z"/>
	<path fill="#5BA4C2" d="M611.197,591.709c-0.756,0-1.345,0.196-1.933,0.505v5.631c0,0.154-0.126,0.294-0.28,0.294h-1.289
		c-0.154,0-0.28-0.14-0.28-0.294v-7.326c0-0.154,0.126-0.28,0.28-0.28h1.219c0.154,0,0.28,0.126,0.28,0.28v0.294
		c0.687-0.532,1.443-0.672,2.003-0.672c0.154,0,0.28,0.126,0.28,0.28v1.008C611.478,591.583,611.352,591.709,611.197,591.709z"/>
	<path fill="#5BA4C2" d="M615.411,598.251c-2.199,0-3.348-1.485-3.348-3.488v-1.135c0-2.003,1.148-3.487,3.348-3.487
		s3.348,1.484,3.348,3.487v1.135C618.759,596.765,617.61,598.251,615.411,598.251z M616.91,593.628c0-1.148-0.519-1.891-1.499-1.891
		s-1.499,0.742-1.499,1.891v1.135c0,1.148,0.518,1.892,1.499,1.892s1.499-0.743,1.499-1.892V593.628z M617.512,587.436l-1.653,1.737
		c-0.112,0.126-0.168,0.182-0.336,0.182h-1.205c-0.084,0-0.126-0.042-0.126-0.098c0-0.042,0.014-0.098,0.056-0.14l1.331-1.682
		c0.126-0.153,0.182-0.21,0.364-0.21h1.471c0.098,0,0.154,0.042,0.154,0.099C617.568,587.352,617.554,587.394,617.512,587.436z"/>
	<path fill="#5BA4C2" d="M629.819,600.912h-1.289c-0.154,0-0.28-0.126-0.28-0.28v-2.479c-0.518,0.07-1.008,0.099-1.345,0.099
		c-2.255,0-3.348-1.331-3.348-3.517v-1.078c0-2.186,1.093-3.516,3.348-3.516c0.896,0,1.947,0.14,2.815,0.364
		c0.322,0.084,0.378,0.168,0.378,0.378v9.749C630.099,600.786,629.973,600.912,629.819,600.912z M628.25,591.751
		c-0.266-0.056-0.84-0.098-1.345-0.098c-1.205,0-1.499,0.854-1.499,2.003v1.078c0,1.149,0.294,2.004,1.499,2.004
		c0.336,0,0.953-0.042,1.345-0.099V591.751z"/>
	<path fill="#5BA4C2" d="M638.107,598.138h-1.289c-0.154,0-0.28-0.126-0.28-0.28v-0.322c-0.729,0.477-1.303,0.7-2.199,0.7
		c-0.701,0-1.317-0.182-1.723-0.588c-0.518-0.519-0.7-1.387-0.7-2.55v-4.566c0-0.153,0.126-0.294,0.28-0.294h1.289
		c0.154,0,0.28,0.141,0.28,0.294v4.566c0,0.701,0.056,1.107,0.322,1.345c0.196,0.169,0.435,0.253,0.869,0.253
		c0.518,0,1.19-0.351,1.583-0.561v-5.604c0-0.153,0.126-0.294,0.28-0.294h1.289c0.154,0,0.28,0.141,0.28,0.294v7.326
		C638.387,598.012,638.261,598.138,638.107,598.138z"/>
	<path fill="#5BA4C2" d="M646.381,594.833h-4.566v0.042c0,0.812,0.336,1.779,1.681,1.779c1.022,0,1.989-0.084,2.577-0.141
		c0.014,0,0.028,0,0.043,0c0.14,0,0.252,0.07,0.252,0.21v0.925c0,0.224-0.043,0.322-0.295,0.364
		c-0.91,0.168-1.457,0.238-2.717,0.238c-1.4,0-3.39-0.757-3.39-3.517v-1.036c0-2.186,1.218-3.558,3.362-3.558
		c2.157,0,3.334,1.471,3.334,3.558v0.784C646.661,594.707,646.576,594.833,646.381,594.833z M644.798,593.46
		c0-1.093-0.603-1.723-1.471-1.723s-1.499,0.616-1.499,1.723v0.057h2.97V593.46z"/>
	<path fill="#5BA4C2" d="M657.314,598.138h-1.191c-0.154,0-0.279-0.126-0.279-0.28v-0.224c-0.645,0.392-1.303,0.616-1.976,0.616
		c-1.163,0-2.423-0.448-2.423-2.34v-0.056c0-1.597,0.98-2.424,3.418-2.424h0.882v-0.616c0-0.91-0.406-1.134-1.232-1.134
		c-0.896,0-1.821,0.056-2.283,0.111c-0.028,0-0.056,0-0.07,0c-0.14,0-0.252-0.042-0.252-0.238v-0.896
		c0-0.153,0.084-0.252,0.267-0.294c0.561-0.112,1.372-0.224,2.339-0.224c1.989,0,3.081,0.882,3.081,2.675v5.043
		C657.594,598.012,657.469,598.138,657.314,598.138z M655.745,594.665h-0.882c-1.275,0-1.555,0.406-1.555,1.19v0.056
		c0,0.687,0.308,0.869,1.008,0.869c0.504,0,1.022-0.168,1.429-0.393V594.665z"/>
	<path fill="#5BA4C2" d="M665.393,600.912h-1.289c-0.154,0-0.28-0.126-0.28-0.28v-2.479c-0.519,0.07-1.009,0.099-1.345,0.099
		c-2.255,0-3.348-1.331-3.348-3.517v-1.078c0-2.186,1.093-3.516,3.348-3.516c0.896,0,1.947,0.14,2.815,0.364
		c0.322,0.084,0.378,0.168,0.378,0.378v9.749C665.672,600.786,665.547,600.912,665.393,600.912z M663.823,591.751
		c-0.267-0.056-0.841-0.098-1.345-0.098c-1.205,0-1.498,0.854-1.498,2.003v1.078c0,1.149,0.293,2.004,1.498,2.004
		c0.336,0,0.953-0.042,1.345-0.099V591.751z"/>
	<path fill="#5BA4C2" d="M673.681,598.138h-1.289c-0.153,0-0.28-0.126-0.28-0.28v-0.322c-0.729,0.477-1.303,0.7-2.199,0.7
		c-0.7,0-1.316-0.182-1.723-0.588c-0.518-0.519-0.7-1.387-0.7-2.55v-4.566c0-0.153,0.126-0.294,0.28-0.294h1.289
		c0.153,0,0.279,0.141,0.279,0.294v4.566c0,0.701,0.057,1.107,0.322,1.345c0.196,0.169,0.435,0.253,0.869,0.253
		c0.518,0,1.189-0.351,1.582-0.561v-5.604c0-0.153,0.127-0.294,0.28-0.294h1.289c0.153,0,0.28,0.141,0.28,0.294v7.326
		C673.961,598.012,673.834,598.138,673.681,598.138z"/>
	<path fill="#5BA4C2" d="M681.955,594.833h-4.566v0.042c0,0.812,0.336,1.779,1.68,1.779c1.023,0,1.99-0.084,2.578-0.141
		c0.014,0,0.027,0,0.042,0c0.14,0,0.252,0.07,0.252,0.21v0.925c0,0.224-0.042,0.322-0.294,0.364
		c-0.91,0.168-1.457,0.238-2.718,0.238c-1.4,0-3.39-0.757-3.39-3.517v-1.036c0-2.186,1.219-3.558,3.361-3.558
		c2.158,0,3.334,1.471,3.334,3.558v0.784C682.234,594.707,682.15,594.833,681.955,594.833z M680.371,593.46
		c0-1.093-0.602-1.723-1.471-1.723c-0.868,0-1.498,0.616-1.498,1.723v0.057h2.969V593.46z"/>
	<path fill="#5BA4C2" d="M685.466,598.138h-1.303c-0.154,0-0.28-0.14-0.28-0.294v-10.086c0-0.153,0.126-0.28,0.28-0.28h1.303
		c0.153,0,0.267,0.127,0.267,0.28v10.086C685.732,597.999,685.619,598.138,685.466,598.138z"/>
	<path fill="#5BA4C2" d="M689.273,598.138h-1.303c-0.154,0-0.28-0.14-0.28-0.294v-10.086c0-0.153,0.126-0.28,0.28-0.28h1.303
		c0.154,0,0.266,0.127,0.266,0.28v10.086C689.539,597.999,689.428,598.138,689.273,598.138z"/>
	<path fill="#5BA4C2" d="M694.538,598.251c-2.199,0-3.348-1.485-3.348-3.488v-1.135c0-2.003,1.148-3.487,3.348-3.487
		s3.349,1.484,3.349,3.487v1.135C697.887,596.765,696.737,598.251,694.538,598.251z M696.037,593.628
		c0-1.148-0.519-1.891-1.499-1.891s-1.499,0.742-1.499,1.891v1.135c0,1.148,0.519,1.892,1.499,1.892s1.499-0.743,1.499-1.892
		V593.628z"/>
	<path fill="#5BA4C2" d="M702.027,598.251c-0.546,0-1.723-0.07-2.508-0.28c-0.168-0.042-0.266-0.154-0.266-0.322v-0.841
		c0-0.111,0.098-0.224,0.238-0.224c0.027,0,0.042,0,0.057,0c0.672,0.084,1.933,0.154,2.353,0.154c0.868,0,0.995-0.295,0.995-0.673
		c0-0.266-0.168-0.435-0.617-0.714l-1.918-1.177c-0.688-0.421-1.178-1.121-1.178-1.934c0-1.4,0.883-2.101,2.662-2.101
		c1.135,0,1.779,0.126,2.493,0.28c0.168,0.042,0.252,0.153,0.252,0.321v0.812c0,0.169-0.084,0.267-0.224,0.267
		c-0.028,0-0.043,0-0.057,0c-0.393-0.056-1.513-0.168-2.311-0.168c-0.673,0-0.967,0.154-0.967,0.588c0,0.225,0.21,0.364,0.561,0.574
		l1.834,1.121c1.178,0.714,1.346,1.415,1.346,2.129C704.773,597.284,703.863,598.251,702.027,598.251z"/>
</g>
</svg>
