<?xml version="1.0" encoding="utf-8"?>
<!-- Generator: Adobe Illustrator 16.0.0, SVG Export Plug-In . SVG Version: 6.00 Build 0)  -->
<!DOCTYPE svg PUBLIC "-//W3C//DTD SVG 1.1//EN" "http://www.w3.org/Graphics/SVG/1.1/DTD/svg11.dtd">
<svg version="1.1" id="Texto" xmlns="http://www.w3.org/2000/svg" xmlns:xlink="http://www.w3.org/1999/xlink" x="0px" y="0px"
	 width="1280px" height="700px" viewBox="0 0 1280 700" enable-background="new 0 0 1280 700" xml:space="preserve">
<g>
	<g>
		<g>
			<path fill="none" stroke="#5BA4C2" stroke-width="0.75" stroke-miterlimit="10" d="M640.3,654c0,0,0-14.3,0-19.3
				c0-3.1,1-4.1,3.7-4.1s92.9,0,92.9,0c3,0,3.8-1.4,3.8-5c0-3.4-0.3-9.3-0.3-13c0-3.5,0.899-5.4,3.3-6v-0.2c-2.4-0.7-3.3-2.4-3.3-6
				c0-3.8,0.3-6.6,0.3-10"/>
		</g>
		<g>
			<path fill="none" stroke="#5BA4C2" stroke-width="0.75" stroke-miterlimit="10" d="M541,590.2c0,3.4,0.3,6.3,0.3,10
				c0,3.601-0.899,5.4-3.3,6v0.2c2.4,0.7,3.3,2.5,3.3,6c0,3.8-0.3,9.6-0.3,13c0,3.6,0.8,5,3.8,5c0,0,89.2,0,91.8,0
				c2.601,0,3.7,1,3.7,4.1c0,5,0,19.301,0,19.301"/>
		</g>
	</g>
	<g>
		<g>
			<path fill="#5BA4C2" d="M643.8,653.9L643.8,653.9l-3.5-6.9l0,0l0,0l0,0l0,0l-3.7,6.801l0,0c-0.3,0.6-0.5,1.3-0.6,2
				c0,2.3,1.8,4.1,4.1,4.199c2.301,0,4.101-1.8,4.2-4.1C644.3,655.2,644.1,654.5,643.8,653.9z"/>
			<g>
				<g>
					<path fill="#72ADC8" d="M639,659C638.9,659,638.9,659,639,659c-2.1-0.399-2.4-2.6-2.3-3.699c0-0.2,0.2-0.301,0.399-0.301
						c0.2,0,0.301,0.2,0.301,0.4c0,0.1-0.301,2.5,1.6,2.9c0.2,0,0.3,0.2,0.3,0.399C639.3,658.9,639.1,659,639,659z"/>
				</g>
			</g>
		</g>
		<path fill="#72ADC8" d="M644.3,655.9c0-0.7-0.2-1.4-0.5-2l0,0l-3.5-6.9l0,0l0,0l0,0v13C642.5,659.9,644.3,658.2,644.3,655.9z"/>
		<g>
			<g>
				<path fill="#E2D4D5" d="M641.9,653.4l-0.801-2c-0.1-0.1-0.1-0.4,0-0.4c0.101,0,0.301,0.101,0.301,0.301l1,1.899
					c0.1,0.101,0,0.4-0.101,0.5C642.2,653.7,642,653.6,641.9,653.4z"/>
			</g>
			<ellipse fill="#E2D4D5" cx="642.582" cy="654.281" rx="0.4" ry="0.4"/>
		</g>
	</g>
	<g>
		<g>
			<path fill="#5BA4C2" d="M644,665.9L644,665.9l-1.9-3.8l0,0l0,0l0,0l0,0l-2,3.7l0,0c-0.199,0.3-0.3,0.7-0.3,1.1
				c0,1.3,1,2.3,2.2,2.3c1.3,0,2.3-1,2.3-2.2C644.3,666.6,644.2,666.2,644,665.9z"/>
			<g>
				<g>
					<path fill="#72ADC8" d="M641.3,668.7L641.3,668.7c-1.2-0.2-1.3-1.399-1.3-2c0-0.1,0.1-0.2,0.2-0.2c0.1,0,0.2,0.101,0.2,0.2
						c0,0.101-0.101,1.4,0.899,1.601c0.101,0,0.2,0.1,0.2,0.199C641.5,668.7,641.4,668.7,641.3,668.7z"/>
				</g>
			</g>
		</g>
		<path fill="#72ADC8" d="M644.3,667c0-0.399-0.1-0.8-0.3-1.1l0,0l-1.9-3.8l0,0l0,0l0,0v7.2C643.3,669.2,644.3,668.2,644.3,667z"/>
		<g>
			<g>
				<path fill="#E2D4D5" d="M643,665.6l-0.4-1.101c0-0.1-0.1-0.199,0-0.199c0.101,0,0.2,0.1,0.2,0.1l0.5,1.1
					c0,0.101,0,0.2-0.1,0.301C643.1,665.801,643,665.7,643,665.6z"/>
			</g>
			<ellipse fill="#E2D4D5" cx="643.391" cy="666.087" rx="0.2" ry="0.2"/>
		</g>
	</g>
</g>
<g enable-background="new    ">
	<path fill="#5BA4C2" d="M567.66,592.054c-0.448,0.07-0.995,0.196-2.662,0.196c-1.821,0-3.235-0.49-3.235-2.872v-4.889
		c0-2.381,1.415-2.871,3.235-2.871c1.667,0,2.213,0.126,2.662,0.196c0.21,0.027,0.28,0.098,0.28,0.294v0.896
		c0,0.154-0.126,0.28-0.28,0.28h-2.857c-0.812,0-1.107,0.28-1.107,1.204v1.513h3.796c0.154,0,0.28,0.127,0.28,0.28v1.009
		c0,0.154-0.126,0.28-0.28,0.28h-3.796v1.807c0,0.925,0.294,1.205,1.107,1.205h2.857c0.154,0,0.28,0.126,0.28,0.28v0.896
		C567.94,591.957,567.87,592.026,567.66,592.054z"/>
	<path fill="#5BA4C2" d="M571.339,592.138h-1.303c-0.154,0-0.28-0.14-0.28-0.294v-10.086c0-0.153,0.126-0.28,0.28-0.28h1.303
		c0.154,0,0.266,0.127,0.266,0.28v10.086C571.605,591.999,571.493,592.138,571.339,592.138z"/>
	<path fill="#5BA4C2" d="M584.614,592.138h-1.485c-0.126,0-0.238-0.112-0.266-0.238l-0.645-2.661h-3.222l-0.645,2.661
		c-0.028,0.126-0.14,0.238-0.266,0.238h-1.485c-0.14,0-0.252-0.098-0.252-0.238c0-0.014,0.014-0.042,0.014-0.07l2.297-8.782
		c0.336-1.303,1.345-1.429,1.947-1.429c0.603,0,1.611,0.126,1.947,1.429l2.297,8.782c0,0.028,0.014,0.057,0.014,0.07
		C584.866,592.041,584.754,592.138,584.614,592.138z M580.832,583.482c-0.042-0.169-0.084-0.225-0.224-0.225
		s-0.182,0.056-0.224,0.225l-1.008,4.16h2.465L580.832,583.482z"/>
	<path fill="#5BA4C2" d="M592.691,585.512l-0.462,0.183c0.224,0.322,0.35,0.63,0.35,1.12v0.099c0,1.751-1.205,2.549-3.32,2.549
		c-0.743,0-1.247-0.126-1.527-0.238c-0.168,0.112-0.238,0.238-0.238,0.364c0,0.28,0.154,0.393,0.477,0.463l1.653,0.392
		c1.905,0.448,3.138,0.743,3.138,2.241v0.099c0,1.429-1.051,2.199-3.432,2.199c-2.269,0-3.474-0.854-3.474-2.325v-0.126
		c0-0.574,0.266-1.135,0.714-1.541c-0.392-0.294-0.63-0.784-0.63-1.289v-0.014c0-0.435,0.182-0.868,0.56-1.135
		c-0.42-0.435-0.574-0.938-0.574-1.639v-0.099c0-1.4,0.911-2.577,3.334-2.577h3.278c0.21,0,0.378,0.168,0.378,0.378v0.589
		C592.916,585.415,592.859,585.443,592.691,585.512z M590.913,592.684c0-0.308-0.182-0.49-1.653-0.84l-1.247-0.294
		c-0.21,0.294-0.351,0.476-0.351,0.98v0.126c0,0.574,0.351,0.924,1.667,0.924c1.345,0,1.583-0.294,1.583-0.798V592.684z
		 M590.758,586.844c0-0.672-0.294-1.19-1.499-1.19c-1.191,0-1.513,0.532-1.513,1.19v0.112c0,0.519,0.21,1.106,1.513,1.106
		c1.163,0,1.499-0.406,1.499-1.106V586.844z"/>
	<path fill="#5BA4C2" d="M600.406,592.138h-1.289c-0.154,0-0.28-0.126-0.28-0.28v-0.322c-0.729,0.477-1.303,0.7-2.199,0.7
		c-0.701,0-1.317-0.182-1.723-0.588c-0.518-0.519-0.7-1.387-0.7-2.55v-4.566c0-0.153,0.126-0.294,0.28-0.294h1.289
		c0.154,0,0.28,0.141,0.28,0.294v4.566c0,0.701,0.056,1.107,0.322,1.345c0.196,0.169,0.435,0.253,0.869,0.253
		c0.518,0,1.19-0.351,1.583-0.561v-5.604c0-0.153,0.126-0.294,0.28-0.294h1.289c0.154,0,0.28,0.141,0.28,0.294v7.326
		C600.686,592.012,600.56,592.138,600.406,592.138z"/>
	<path fill="#5BA4C2" d="M608.077,592.138h-1.19c-0.154,0-0.28-0.126-0.28-0.28v-0.224c-0.644,0.392-1.303,0.616-1.975,0.616
		c-1.163,0-2.423-0.448-2.423-2.34v-0.056c0-1.597,0.98-2.424,3.418-2.424h0.882v-0.616c0-0.91-0.406-1.134-1.232-1.134
		c-0.896,0-1.821,0.056-2.283,0.111c-0.028,0-0.056,0-0.07,0c-0.14,0-0.252-0.042-0.252-0.238v-0.896
		c0-0.153,0.084-0.252,0.266-0.294c0.56-0.112,1.373-0.224,2.339-0.224c1.989,0,3.082,0.882,3.082,2.675v5.043
		C608.357,592.012,608.231,592.138,608.077,592.138z M606.508,588.665h-0.882c-1.275,0-1.555,0.406-1.555,1.19v0.056
		c0,0.687,0.308,0.869,1.008,0.869c0.504,0,1.022-0.168,1.429-0.393V588.665z"/>
	<path fill="#5BA4C2" d="M619.249,592.138h-1.19c-0.154,0-0.28-0.126-0.28-0.28v-0.224c-0.644,0.392-1.303,0.616-1.975,0.616
		c-1.163,0-2.423-0.448-2.423-2.34v-0.056c0-1.597,0.98-2.424,3.418-2.424h0.882v-0.616c0-0.91-0.406-1.134-1.232-1.134
		c-0.896,0-1.821,0.056-2.283,0.111c-0.028,0-0.056,0-0.07,0c-0.14,0-0.252-0.042-0.252-0.238v-0.896
		c0-0.153,0.084-0.252,0.266-0.294c0.56-0.112,1.373-0.224,2.339-0.224c1.989,0,3.082,0.882,3.082,2.675v5.043
		C619.529,592.012,619.403,592.138,619.249,592.138z M617.68,588.665h-0.882c-1.275,0-1.555,0.406-1.555,1.19v0.056
		c0,0.687,0.308,0.869,1.008,0.869c0.504,0,1.022-0.168,1.429-0.393V588.665z"/>
	<path fill="#5BA4C2" d="M627.565,584.56l-2.339,8.181c-0.434,1.526-0.952,2.199-2.857,2.199c-0.462,0-1.163-0.084-1.485-0.183
		c-0.154-0.042-0.294-0.098-0.294-0.238v-0.896c0-0.153,0.126-0.252,0.28-0.252c0.014,0,0.014,0,0.028,0
		c0.392,0.015,1.19,0.084,1.583,0.084c0.602,0,0.91-0.168,1.106-0.896l0.112-0.42h-0.21c-0.406,0-0.911-0.098-1.219-1.163
		l-1.835-6.415c-0.014-0.042-0.014-0.07-0.014-0.098c0-0.141,0.084-0.225,0.266-0.225h1.415c0.126,0,0.238,0.126,0.266,0.252
		l1.415,5.701c0.056,0.238,0.112,0.309,0.196,0.309h0.014c0.028,0,0.056,0,0.07,0c0.042,0,0.042,0,0.042,0l1.513-6.023
		c0.028-0.126,0.14-0.238,0.28-0.238h1.429c0.14,0,0.252,0.112,0.252,0.238C627.58,584.505,627.58,584.532,627.565,584.56z"/>
	<path fill="#5BA4C2" d="M635.027,592.138h-1.289c-0.154,0-0.28-0.126-0.28-0.28v-0.322c-0.729,0.477-1.303,0.7-2.199,0.7
		c-0.701,0-1.317-0.182-1.723-0.588c-0.518-0.519-0.7-1.387-0.7-2.55v-4.566c0-0.153,0.126-0.294,0.28-0.294h1.289
		c0.154,0,0.28,0.141,0.28,0.294v4.566c0,0.701,0.056,1.107,0.322,1.345c0.196,0.169,0.435,0.253,0.869,0.253
		c0.518,0,1.19-0.351,1.583-0.561v-5.604c0-0.153,0.126-0.294,0.28-0.294h1.289c0.154,0,0.28,0.141,0.28,0.294v7.326
		C635.307,592.012,635.181,592.138,635.027,592.138z"/>
	<path fill="#5BA4C2" d="M643.006,591.886c-0.867,0.224-1.918,0.364-2.815,0.364c-2.255,0-3.348-1.331-3.348-3.517v-1.078
		c0-2.186,1.093-3.516,3.348-3.516c0.336,0,0.827,0.027,1.344,0.098v-2.479c0-0.153,0.127-0.28,0.281-0.28h1.288
		c0.154,0,0.28,0.127,0.28,0.28v9.75C643.385,591.719,643.328,591.802,643.006,591.886z M641.535,585.751
		c-0.392-0.056-1.008-0.098-1.344-0.098c-1.205,0-1.499,0.854-1.499,2.003v1.078c0,1.149,0.294,2.004,1.499,2.004
		c0.504,0,1.079-0.042,1.344-0.099V585.751z"/>
	<path fill="#5BA4C2" d="M650.776,592.138h-1.19c-0.154,0-0.28-0.126-0.28-0.28v-0.224c-0.645,0.392-1.303,0.616-1.976,0.616
		c-1.162,0-2.423-0.448-2.423-2.34v-0.056c0-1.597,0.98-2.424,3.418-2.424h0.882v-0.616c0-0.91-0.406-1.134-1.232-1.134
		c-0.896,0-1.82,0.056-2.283,0.111c-0.027,0-0.056,0-0.07,0c-0.14,0-0.252-0.042-0.252-0.238v-0.896
		c0-0.153,0.084-0.252,0.267-0.294c0.561-0.112,1.372-0.224,2.339-0.224c1.989,0,3.082,0.882,3.082,2.675v5.043
		C651.057,592.012,650.931,592.138,650.776,592.138z M649.207,588.665h-0.882c-1.274,0-1.555,0.406-1.555,1.19v0.056
		c0,0.687,0.308,0.869,1.009,0.869c0.504,0,1.021-0.168,1.428-0.393V588.665z"/>
	<path fill="#5BA4C2" d="M661.948,592.138h-1.19c-0.154,0-0.28-0.126-0.28-0.28v-0.224c-0.645,0.392-1.303,0.616-1.976,0.616
		c-1.162,0-2.423-0.448-2.423-2.34v-0.056c0-1.597,0.98-2.424,3.418-2.424h0.882v-0.616c0-0.91-0.406-1.134-1.232-1.134
		c-0.896,0-1.82,0.056-2.283,0.111c-0.027,0-0.056,0-0.07,0c-0.14,0-0.252-0.042-0.252-0.238v-0.896
		c0-0.153,0.084-0.252,0.267-0.294c0.561-0.112,1.372-0.224,2.339-0.224c1.989,0,3.082,0.882,3.082,2.675v5.043
		C662.229,592.012,662.103,592.138,661.948,592.138z M660.379,588.665h-0.882c-1.274,0-1.555,0.406-1.555,1.19v0.056
		c0,0.687,0.308,0.869,1.009,0.869c0.504,0,1.021-0.168,1.428-0.393V588.665z"/>
	<path fill="#5BA4C2" d="M673.723,588.833h-4.566v0.042c0,0.812,0.336,1.779,1.681,1.779c1.022,0,1.989-0.084,2.577-0.141
		c0.014,0,0.028,0,0.043,0c0.14,0,0.252,0.07,0.252,0.21v0.925c0,0.224-0.043,0.322-0.295,0.364
		c-0.91,0.168-1.457,0.238-2.717,0.238c-1.4,0-3.391-0.757-3.391-3.517v-1.036c0-2.186,1.219-3.558,3.362-3.558
		c2.157,0,3.334,1.471,3.334,3.558v0.784C674.003,588.707,673.919,588.833,673.723,588.833z M672.14,587.46
		c0-1.093-0.603-1.723-1.471-1.723s-1.499,0.616-1.499,1.723v0.057h2.97V587.46z"/>
	<path fill="#5BA4C2" d="M677.234,592.138h-1.303c-0.154,0-0.281-0.14-0.281-0.294v-10.086c0-0.153,0.127-0.28,0.281-0.28h1.303
		c0.153,0,0.266,0.127,0.266,0.28v10.086C677.5,591.999,677.388,592.138,677.234,592.138z"/>
	<path fill="#5BA4C2" d="M681.042,583.187h-1.358c-0.154,0-0.295-0.126-0.295-0.28v-1.232c0-0.154,0.141-0.28,0.295-0.28h1.358
		c0.153,0,0.28,0.126,0.28,0.28v1.232C681.322,583.061,681.195,583.187,681.042,583.187z M681,592.138h-1.289
		c-0.154,0-0.279-0.14-0.279-0.294v-7.326c0-0.154,0.125-0.28,0.279-0.28H681c0.154,0,0.28,0.126,0.28,0.28v7.326
		C681.28,591.999,681.154,592.138,681,592.138z"/>
	<path fill="#5BA4C2" d="M692.918,592.138h-1.289c-0.153,0-0.279-0.14-0.279-0.294v-4.763c0-1.079-0.225-1.358-1.009-1.358
		c-0.267,0-0.798,0.084-1.303,0.35c0.042,0.309,0.056,0.658,0.056,1.009v4.763c0,0.154-0.125,0.294-0.279,0.294h-1.289
		c-0.154,0-0.28-0.14-0.28-0.294v-4.763c0-1.079-0.183-1.358-0.966-1.358c-0.295,0-0.715,0.153-1.289,0.462v5.659
		c0,0.154-0.127,0.294-0.28,0.294h-1.289c-0.153,0-0.28-0.14-0.28-0.294v-7.326c0-0.154,0.127-0.28,0.28-0.28h1.219
		c0.154,0,0.28,0.126,0.28,0.28v0.294c0.588-0.378,1.177-0.672,2.003-0.672c0.799,0,1.317,0.238,1.64,0.63
		c0.714-0.392,1.344-0.63,2.311-0.63c1.905,0,2.325,1.303,2.325,2.941v4.763C693.198,591.999,693.072,592.138,692.918,592.138z"/>
	<path fill="#5BA4C2" d="M696.666,583.187h-1.359c-0.154,0-0.294-0.126-0.294-0.28v-1.232c0-0.154,0.14-0.28,0.294-0.28h1.359
		c0.153,0,0.279,0.126,0.279,0.28v1.232C696.945,583.061,696.819,583.187,696.666,583.187z M696.623,592.138h-1.288
		c-0.154,0-0.28-0.14-0.28-0.294v-7.326c0-0.154,0.126-0.28,0.28-0.28h1.288c0.154,0,0.28,0.126,0.28,0.28v7.326
		C696.903,591.999,696.777,592.138,696.623,592.138z"/>
	<path fill="#5BA4C2" d="M704.956,592.138h-1.289c-0.153,0-0.28-0.14-0.28-0.294v-4.566c0-1.219-0.111-1.569-1.19-1.569
		c-0.476,0-0.995,0.196-1.583,0.505v5.631c0,0.154-0.126,0.294-0.279,0.294h-1.289c-0.154,0-0.28-0.14-0.28-0.294v-7.326
		c0-0.154,0.126-0.28,0.28-0.28h1.219c0.154,0,0.279,0.126,0.279,0.28v0.294c0.812-0.518,1.346-0.672,2.27-0.672
		c2.018,0,2.424,1.358,2.424,3.138v4.566C705.236,591.999,705.109,592.138,704.956,592.138z"/>
	<path fill="#5BA4C2" d="M712.627,592.138h-1.189c-0.154,0-0.281-0.126-0.281-0.28v-0.224c-0.644,0.392-1.303,0.616-1.975,0.616
		c-1.162,0-2.424-0.448-2.424-2.34v-0.056c0-1.597,0.98-2.424,3.418-2.424h0.883v-0.616c0-0.91-0.406-1.134-1.232-1.134
		c-0.896,0-1.821,0.056-2.283,0.111c-0.028,0-0.057,0-0.07,0c-0.141,0-0.252-0.042-0.252-0.238v-0.896
		c0-0.153,0.084-0.252,0.266-0.294c0.561-0.112,1.373-0.224,2.34-0.224c1.988,0,3.082,0.882,3.082,2.675v5.043
		C712.908,592.012,712.781,592.138,712.627,592.138z M711.059,588.665h-0.883c-1.274,0-1.555,0.406-1.555,1.19v0.056
		c0,0.687,0.309,0.869,1.009,0.869c0.505,0,1.022-0.168,1.429-0.393V588.665z"/>
	<path fill="#5BA4C2" d="M718.506,585.709c-0.756,0-1.344,0.196-1.933,0.505v5.631c0,0.154-0.126,0.294-0.28,0.294h-1.289
		c-0.153,0-0.279-0.14-0.279-0.294v-7.326c0-0.154,0.126-0.28,0.279-0.28h1.219c0.154,0,0.281,0.126,0.281,0.28v0.294
		c0.686-0.532,1.442-0.672,2.002-0.672c0.154,0,0.281,0.126,0.281,0.28v1.008C718.787,585.583,718.66,585.709,718.506,585.709z"/>
</g>
<g enable-background="new    ">
	<path fill="#5BA4C2" d="M585.005,609.886c-0.868,0.224-1.919,0.364-2.815,0.364c-2.255,0-3.348-1.331-3.348-3.517v-1.078
		c0-2.186,1.093-3.516,3.348-3.516c0.336,0,0.827,0.027,1.345,0.098v-2.479c0-0.153,0.126-0.28,0.28-0.28h1.289
		c0.154,0,0.28,0.127,0.28,0.28v9.75C585.384,609.719,585.328,609.802,585.005,609.886z M583.535,603.751
		c-0.392-0.056-1.008-0.098-1.345-0.098c-1.205,0-1.499,0.854-1.499,2.003v1.078c0,1.149,0.294,2.004,1.499,2.004
		c0.504,0,1.079-0.042,1.345-0.099V603.751z"/>
	<path fill="#5BA4C2" d="M593.378,606.833h-4.566v0.042c0,0.812,0.336,1.779,1.681,1.779c1.022,0,1.989-0.084,2.578-0.141
		c0.014,0,0.028,0,0.042,0c0.14,0,0.252,0.07,0.252,0.21v0.925c0,0.224-0.042,0.322-0.294,0.364
		c-0.911,0.168-1.457,0.238-2.718,0.238c-1.4,0-3.39-0.757-3.39-3.517v-1.036c0-2.186,1.219-3.558,3.362-3.558
		c2.157,0,3.334,1.471,3.334,3.558v0.784C593.658,606.707,593.574,606.833,593.378,606.833z M591.795,605.46
		c0-1.093-0.602-1.723-1.471-1.723s-1.499,0.616-1.499,1.723v0.057h2.97V605.46z"/>
	<path fill="#5BA4C2" d="M597.8,610.251c-0.546,0-1.723-0.07-2.508-0.28c-0.168-0.042-0.266-0.154-0.266-0.322v-0.841
		c0-0.111,0.098-0.224,0.238-0.224c0.028,0,0.042,0,0.056,0c0.672,0.084,1.933,0.154,2.353,0.154c0.869,0,0.995-0.295,0.995-0.673
		c0-0.266-0.168-0.435-0.616-0.714l-1.919-1.177c-0.687-0.421-1.177-1.121-1.177-1.934c0-1.4,0.882-2.101,2.662-2.101
		c1.134,0,1.779,0.126,2.493,0.28c0.168,0.042,0.252,0.153,0.252,0.321v0.812c0,0.169-0.084,0.267-0.224,0.267
		c-0.028,0-0.042,0-0.056,0c-0.393-0.056-1.513-0.168-2.312-0.168c-0.672,0-0.966,0.154-0.966,0.588c0,0.225,0.21,0.364,0.56,0.574
		l1.835,1.121c1.177,0.714,1.345,1.415,1.345,2.129C600.545,609.284,599.635,610.251,597.8,610.251z"/>
	<path fill="#5BA4C2" d="M608.26,606.833h-4.566v0.042c0,0.812,0.336,1.779,1.681,1.779c1.022,0,1.989-0.084,2.578-0.141
		c0.014,0,0.028,0,0.042,0c0.14,0,0.252,0.07,0.252,0.21v0.925c0,0.224-0.042,0.322-0.294,0.364
		c-0.911,0.168-1.457,0.238-2.718,0.238c-1.4,0-3.39-0.757-3.39-3.517v-1.036c0-2.186,1.219-3.558,3.362-3.558
		c2.157,0,3.334,1.471,3.334,3.558v0.784C608.54,606.707,608.456,606.833,608.26,606.833z M606.677,605.46
		c0-1.093-0.602-1.723-1.471-1.723s-1.499,0.616-1.499,1.723v0.057h2.97V605.46z"/>
	<path fill="#5BA4C2" d="M614.838,610.068c-0.322,0.084-0.952,0.183-1.807,0.183c-1.821,0-3.194-1.121-3.194-3.404v-1.303
		c0-2.283,1.373-3.403,3.194-3.403c0.854,0,1.485,0.098,1.807,0.182c0.238,0.057,0.294,0.141,0.294,0.364v0.91
		c0,0.141-0.112,0.211-0.252,0.211c-0.014,0-0.028,0-0.042,0c-0.56-0.07-0.896-0.099-1.807-0.099c-0.659,0-1.345,0.379-1.345,1.835
		v1.303c0,1.457,0.686,1.835,1.345,1.835c0.91,0,1.247-0.027,1.807-0.098c0.014,0,0.028,0,0.042,0c0.14,0,0.252,0.07,0.252,0.21
		v0.91C615.133,609.928,615.077,610.012,614.838,610.068z"/>
	<path fill="#5BA4C2" d="M622.861,610.138h-1.289c-0.154,0-0.28-0.14-0.28-0.294v-4.608c0-1.219-0.21-1.527-1.149-1.527
		c-0.476,0-1.037,0.168-1.625,0.477v5.659c0,0.154-0.126,0.294-0.28,0.294h-1.289c-0.154,0-0.28-0.14-0.28-0.294v-10.086
		c0-0.153,0.126-0.28,0.28-0.28h1.289c0.154,0,0.28,0.127,0.28,0.28v2.899c0.533-0.321,1.121-0.518,2.115-0.518
		c1.933,0,2.507,1.372,2.507,3.096v4.608C623.141,609.999,623.015,610.138,622.861,610.138z"/>
	<path fill="#5BA4C2" d="M628.067,610.251c-2.199,0-3.348-1.485-3.348-3.488v-1.135c0-2.003,1.148-3.487,3.348-3.487
		s3.348,1.484,3.348,3.487v1.135C631.416,608.765,630.267,610.251,628.067,610.251z M629.566,605.628
		c0-1.148-0.519-1.891-1.499-1.891s-1.499,0.742-1.499,1.891v1.135c0,1.148,0.518,1.892,1.499,1.892s1.499-0.743,1.499-1.892
		V605.628z"/>
	<path fill="#5BA4C2" d="M635.557,610.251c-0.546,0-1.723-0.07-2.507-0.28c-0.168-0.042-0.266-0.154-0.266-0.322v-0.841
		c0-0.111,0.098-0.224,0.238-0.224c0.028,0,0.042,0,0.056,0c0.672,0.084,1.933,0.154,2.353,0.154c0.869,0,0.995-0.295,0.995-0.673
		c0-0.266-0.168-0.435-0.616-0.714l-1.919-1.177c-0.687-0.421-1.177-1.121-1.177-1.934c0-1.4,0.882-2.101,2.662-2.101
		c1.134,0,1.779,0.126,2.493,0.28c0.168,0.042,0.252,0.153,0.252,0.321v0.812c0,0.169-0.084,0.267-0.224,0.267
		c-0.028,0-0.042,0-0.056,0c-0.393-0.056-1.513-0.168-2.312-0.168c-0.672,0-0.966,0.154-0.966,0.588c0,0.225,0.21,0.364,0.56,0.574
		l1.835,1.121c1.177,0.714,1.345,1.415,1.345,2.129C638.302,609.284,637.392,610.251,635.557,610.251z"/>
	<path fill="#5BA4C2" d="M649.909,602.56l-2.339,8.181c-0.435,1.526-0.953,2.199-2.857,2.199c-0.463,0-1.163-0.084-1.485-0.183
		c-0.153-0.042-0.294-0.098-0.294-0.238v-0.896c0-0.153,0.126-0.252,0.28-0.252c0.014,0,0.014,0,0.028,0
		c0.392,0.015,1.189,0.084,1.582,0.084c0.603,0,0.91-0.168,1.107-0.896l0.111-0.42h-0.21c-0.406,0-0.911-0.098-1.219-1.163
		l-1.835-6.415c-0.014-0.042-0.014-0.07-0.014-0.098c0-0.141,0.084-0.225,0.266-0.225h1.415c0.126,0,0.238,0.126,0.267,0.252
		l1.414,5.701c0.057,0.238,0.112,0.309,0.196,0.309h0.015c0.027,0,0.056,0,0.069,0c0.042,0,0.042,0,0.042,0l1.514-6.023
		c0.027-0.126,0.139-0.238,0.279-0.238h1.429c0.14,0,0.253,0.112,0.253,0.238C649.924,602.505,649.924,602.532,649.909,602.56z"/>
	<path fill="#5BA4C2" d="M658.826,610.152c-0.336,0.057-0.645,0.099-0.953,0.099c-1.582,0-2.227-0.351-2.227-2.228v-4.398
		l-1.317-0.196c-0.153-0.027-0.28-0.126-0.28-0.28v-0.63c0-0.154,0.127-0.28,0.28-0.28h1.317v-1.148c0-0.154,0.125-0.252,0.279-0.28
		l1.303-0.224c0.015,0,0.043,0,0.057,0c0.126,0,0.225,0.069,0.225,0.21v1.442h1.26c0.154,0,0.28,0.126,0.28,0.28v0.826
		c0,0.154-0.126,0.28-0.28,0.28h-1.26v4.398c0,0.7,0.041,0.784,0.545,0.784h0.743c0.183,0,0.294,0.07,0.294,0.21v0.883
		C659.092,610.041,659.008,610.125,658.826,610.152z"/>
	<path fill="#5BA4C2" d="M663.319,610.251c-2.199,0-3.348-1.485-3.348-3.488v-1.135c0-2.003,1.148-3.487,3.348-3.487
		s3.349,1.484,3.349,3.487v1.135C666.668,608.765,665.519,610.251,663.319,610.251z M664.818,605.628
		c0-1.148-0.519-1.891-1.499-1.891s-1.499,0.742-1.499,1.891v1.135c0,1.148,0.519,1.892,1.499,1.892s1.499-0.743,1.499-1.892
		V605.628z"/>
	<path fill="#5BA4C2" d="M674.087,610.138h-1.597c-0.154,0-0.225-0.042-0.379-0.28l-1.596-2.465l-1.514,2.465
		c-0.154,0.238-0.225,0.28-0.378,0.28h-1.442c-0.113,0-0.168-0.07-0.168-0.154c0-0.042,0.014-0.084,0.041-0.126l2.508-3.796
		l-2.367-3.544c-0.014-0.028-0.028-0.056-0.028-0.084c0-0.098,0.099-0.196,0.224-0.196h1.598c0.154,0,0.225,0.07,0.364,0.28
		l1.415,2.186l1.316-2.186c0.154-0.252,0.225-0.28,0.378-0.28h1.442c0.112,0,0.168,0.07,0.168,0.154
		c0,0.042-0.014,0.084-0.041,0.126l-2.312,3.53l2.55,3.81c0.014,0.028,0.027,0.056,0.027,0.099
		C674.297,610.054,674.199,610.138,674.087,610.138z"/>
	<path fill="#5BA4C2" d="M677.137,601.187h-1.359c-0.153,0-0.293-0.126-0.293-0.28v-1.232c0-0.154,0.14-0.28,0.293-0.28h1.359
		c0.154,0,0.28,0.126,0.28,0.28v1.232C677.417,601.061,677.291,601.187,677.137,601.187z M677.095,610.138h-1.289
		c-0.153,0-0.28-0.14-0.28-0.294v-7.326c0-0.154,0.127-0.28,0.28-0.28h1.289c0.153,0,0.28,0.126,0.28,0.28v7.326
		C677.375,609.999,677.248,610.138,677.095,610.138z"/>
	<path fill="#5BA4C2" d="M685.427,610.138h-1.289c-0.153,0-0.28-0.14-0.28-0.294v-4.566c0-1.219-0.111-1.569-1.19-1.569
		c-0.476,0-0.995,0.196-1.583,0.505v5.631c0,0.154-0.126,0.294-0.279,0.294h-1.289c-0.154,0-0.28-0.14-0.28-0.294v-7.326
		c0-0.154,0.126-0.28,0.28-0.28h1.219c0.154,0,0.279,0.126,0.279,0.28v0.294c0.812-0.518,1.346-0.672,2.27-0.672
		c2.018,0,2.424,1.358,2.424,3.138v4.566C685.707,609.999,685.58,610.138,685.427,610.138z"/>
	<path fill="#5BA4C2" d="M693.098,610.138h-1.189c-0.154,0-0.281-0.126-0.281-0.28v-0.224c-0.644,0.392-1.303,0.616-1.975,0.616
		c-1.162,0-2.424-0.448-2.424-2.34v-0.056c0-1.597,0.98-2.424,3.418-2.424h0.883v-0.616c0-0.91-0.406-1.134-1.232-1.134
		c-0.896,0-1.821,0.056-2.283,0.111c-0.028,0-0.057,0-0.07,0c-0.141,0-0.252-0.042-0.252-0.238v-0.896
		c0-0.153,0.084-0.252,0.266-0.294c0.561-0.112,1.373-0.224,2.34-0.224c1.988,0,3.082,0.882,3.082,2.675v5.043
		C693.379,610.012,693.252,610.138,693.098,610.138z M691.529,606.665h-0.883c-1.274,0-1.555,0.406-1.555,1.19v0.056
		c0,0.687,0.309,0.869,1.009,0.869c0.505,0,1.022-0.168,1.429-0.393V606.665z"/>
	<path fill="#5BA4C2" d="M697.759,610.251c-0.546,0-1.724-0.07-2.508-0.28c-0.168-0.042-0.267-0.154-0.267-0.322v-0.841
		c0-0.111,0.099-0.224,0.238-0.224c0.028,0,0.043,0,0.057,0c0.672,0.084,1.934,0.154,2.354,0.154c0.868,0,0.994-0.295,0.994-0.673
		c0-0.266-0.168-0.435-0.616-0.714l-1.919-1.177c-0.687-0.421-1.177-1.121-1.177-1.934c0-1.4,0.882-2.101,2.661-2.101
		c1.135,0,1.779,0.126,2.494,0.28c0.168,0.042,0.252,0.153,0.252,0.321v0.812c0,0.169-0.084,0.267-0.225,0.267
		c-0.027,0-0.042,0-0.056,0c-0.393-0.056-1.513-0.168-2.312-0.168c-0.672,0-0.967,0.154-0.967,0.588
		c0,0.225,0.211,0.364,0.561,0.574l1.835,1.121c1.177,0.714,1.345,1.415,1.345,2.129
		C700.504,609.284,699.594,610.251,697.759,610.251z"/>
</g>
</svg>
