<?xml version="1.0" encoding="utf-8"?>
<!-- Generator: Adobe Illustrator 16.0.0, SVG Export Plug-In . SVG Version: 6.00 Build 0)  -->
<!DOCTYPE svg PUBLIC "-//W3C//DTD SVG 1.1//EN" "http://www.w3.org/Graphics/SVG/1.1/DTD/svg11.dtd">
<svg version="1.1" id="Layer_1" xmlns="http://www.w3.org/2000/svg" xmlns:xlink="http://www.w3.org/1999/xlink" x="0px" y="0px"
	 width="1280px" height="700px" viewBox="0 0 1280 700" enable-background="new 0 0 1280 700" xml:space="preserve">
<g enable-background="new    ">
	<path fill="#5BA4C2" d="M558.979,592.083c-0.49,0.069-1.205,0.182-2.717,0.182c-1.807,0-3.404-0.462-3.404-3.012v-4.65
		c0-2.55,1.611-2.997,3.418-2.997c1.513,0,2.213,0.111,2.703,0.182c0.196,0.028,0.28,0.098,0.28,0.28v1.303
		c0,0.154-0.126,0.28-0.28,0.28h-2.843c-0.658,0-0.896,0.224-0.896,0.952v1.274h3.628c0.154,0,0.28,0.126,0.28,0.28v1.331
		c0,0.154-0.126,0.28-0.28,0.28h-3.628v1.484c0,0.729,0.238,0.953,0.896,0.953h2.843c0.154,0,0.28,0.126,0.28,0.279v1.303
		C559.26,591.97,559.176,592.054,558.979,592.083z"/>
	<path fill="#5BA4C2" d="M562.883,592.138h-1.709c-0.154,0-0.294-0.14-0.294-0.294v-10.17c0-0.154,0.14-0.28,0.294-0.28h1.709
		c0.154,0,0.266,0.126,0.266,0.28v10.17C563.149,591.999,563.037,592.138,562.883,592.138z"/>
	<path fill="#5BA4C2" d="M576.494,592.138h-1.961c-0.14,0-0.252-0.112-0.28-0.252l-0.504-2.298h-2.872l-0.504,2.298
		c-0.028,0.14-0.14,0.252-0.28,0.252h-1.961c-0.14,0-0.238-0.084-0.238-0.225c0-0.014,0.014-0.042,0.014-0.069l2.087-8.685
		c0.322-1.345,1.359-1.555,2.325-1.555c0.967,0,1.989,0.21,2.312,1.555l2.087,8.685c0,0.027,0.014,0.056,0.014,0.069
		C576.732,592.054,576.634,592.138,576.494,592.138z M572.502,583.803c-0.028-0.14-0.056-0.21-0.182-0.21
		c-0.126,0-0.168,0.07-0.196,0.21l-0.854,3.866h2.087L572.502,583.803z"/>
	<path fill="#5BA4C2" d="M584.824,585.583l-0.434,0.141c0.168,0.252,0.308,0.7,0.308,1.036v0.112c0,1.82-1.274,2.619-3.46,2.619
		c-0.658,0-1.176-0.098-1.457-0.21c-0.154,0.098-0.196,0.196-0.196,0.322c0,0.224,0.084,0.322,0.42,0.392l1.583,0.351
		c2.438,0.532,3.278,0.91,3.278,2.255v0.112c0,1.541-1.205,2.283-3.67,2.283c-2.325,0-3.558-0.812-3.558-2.283V592.6
		c0-0.574,0.238-1.106,0.84-1.568c-0.504-0.28-0.714-0.841-0.714-1.303c0-0.519,0.266-0.91,0.616-1.19
		c-0.448-0.393-0.645-1.107-0.645-1.667v-0.112c0-1.583,1.051-2.647,3.502-2.647h3.488c0.196,0,0.351,0.168,0.351,0.364v0.799
		C585.076,585.47,584.992,585.527,584.824,585.583z M582.555,592.6c0-0.266-0.182-0.448-1.443-0.729l-1.037-0.224
		c-0.168,0.238-0.28,0.462-0.28,0.952v0.112c0,0.477,0.322,0.715,1.401,0.715c1.149,0,1.359-0.295,1.359-0.715V592.6z
		 M582.484,586.76c0-0.574-0.252-1.009-1.247-1.009s-1.274,0.435-1.274,1.009v0.112c0,0.476,0.21,0.98,1.274,0.98
		c0.98,0,1.247-0.378,1.247-0.98V586.76z"/>
	<path fill="#5BA4C2" d="M592.832,592.138h-1.569c-0.154,0-0.28-0.126-0.28-0.28v-0.336c-0.771,0.546-1.387,0.729-2.283,0.729
		c-2.031,0-2.479-1.415-2.479-3.18v-4.665c0-0.154,0.14-0.294,0.294-0.294h1.695c0.154,0,0.28,0.14,0.28,0.294v4.665
		c0,0.98,0.182,1.303,1.036,1.303c0.406,0,0.841-0.196,1.317-0.448v-5.52c0-0.154,0.126-0.294,0.28-0.294h1.695
		c0.154,0,0.294,0.14,0.294,0.294v7.452C593.111,592.012,592.985,592.138,592.832,592.138z"/>
	<path fill="#5BA4C2" d="M600.699,592.138h-1.569c-0.154,0-0.28-0.126-0.28-0.28v-0.224c-0.546,0.392-1.107,0.63-1.947,0.63
		c-1.219,0-2.395-0.588-2.395-2.409v-0.126c0-1.639,1.05-2.367,3.446-2.367h0.756v-0.505c0-0.798-0.393-0.966-1.051-0.966
		c-0.896,0-1.891,0.056-2.325,0.098h-0.07c-0.14,0-0.252-0.07-0.252-0.252v-1.135c0-0.154,0.098-0.266,0.266-0.308
		c0.519-0.127,1.499-0.295,2.423-0.295c2.017,0,3.278,0.812,3.278,2.857v5.001C600.979,592.012,600.853,592.138,600.699,592.138z
		 M598.752,588.707h-0.798c-0.981,0-1.233,0.336-1.233,1.022v0.126c0,0.588,0.294,0.7,0.882,0.7c0.42,0,0.812-0.14,1.149-0.308
		V588.707z"/>
	<path fill="#5BA4C2" d="M612.207,592.138h-1.569c-0.154,0-0.28-0.126-0.28-0.28v-0.224c-0.546,0.392-1.107,0.63-1.947,0.63
		c-1.219,0-2.396-0.588-2.396-2.409v-0.126c0-1.639,1.051-2.367,3.446-2.367h0.756v-0.505c0-0.798-0.392-0.966-1.051-0.966
		c-0.896,0-1.891,0.056-2.325,0.098h-0.07c-0.14,0-0.252-0.07-0.252-0.252v-1.135c0-0.154,0.098-0.266,0.266-0.308
		c0.519-0.127,1.499-0.295,2.423-0.295c2.017,0,3.278,0.812,3.278,2.857v5.001C612.487,592.012,612.361,592.138,612.207,592.138z
		 M610.26,588.707h-0.798c-0.98,0-1.233,0.336-1.233,1.022v0.126c0,0.588,0.294,0.7,0.882,0.7c0.42,0,0.812-0.14,1.149-0.308
		V588.707z"/>
	<path fill="#5BA4C2" d="M620.972,584.434l-2.353,8.25c-0.435,1.514-1.009,2.283-3.068,2.283c-0.518,0-1.345-0.111-1.695-0.224
		c-0.154-0.056-0.294-0.098-0.294-0.252v-1.135c0-0.154,0.126-0.267,0.28-0.267c0.014,0,0.014,0,0.028,0
		c0.462,0.028,1.289,0.112,1.751,0.112c0.504,0,0.756-0.168,0.924-0.729l0.126-0.434h-0.21c-0.519,0-0.953-0.084-1.303-1.303
		l-1.849-6.304c-0.014-0.042-0.014-0.07-0.014-0.098c0-0.141,0.084-0.225,0.28-0.225h1.863c0.14,0,0.238,0.126,0.266,0.267
		l1.261,5.267c0.042,0.196,0.084,0.266,0.168,0.266h0.014c0.028,0,0.042,0,0.056,0c0.042,0,0.056,0,0.056,0l1.303-5.532
		c0.028-0.141,0.14-0.267,0.294-0.267h1.863c0.14,0,0.266,0.112,0.266,0.252C620.986,584.392,620.972,584.406,620.972,584.434z"/>
	<path fill="#5BA4C2" d="M628.741,592.138h-1.569c-0.154,0-0.28-0.126-0.28-0.28v-0.336c-0.771,0.546-1.387,0.729-2.283,0.729
		c-2.031,0-2.479-1.415-2.479-3.18v-4.665c0-0.154,0.14-0.294,0.294-0.294h1.695c0.154,0,0.28,0.14,0.28,0.294v4.665
		c0,0.98,0.182,1.303,1.037,1.303c0.406,0,0.84-0.196,1.316-0.448v-5.52c0-0.154,0.126-0.294,0.28-0.294h1.695
		c0.154,0,0.294,0.14,0.294,0.294v7.452C629.021,592.012,628.895,592.138,628.741,592.138z"/>
	<path fill="#5BA4C2" d="M636.945,591.9c-0.798,0.196-1.905,0.364-2.984,0.364c-2.269,0-3.516-1.316-3.516-3.586v-1.093
		c0-2.199,1.148-3.586,3.516-3.586c0.28,0,0.743,0.042,1.149,0.099v-2.424c0-0.154,0.126-0.28,0.28-0.28h1.695
		c0.154,0,0.294,0.126,0.294,0.28v9.819C637.379,591.719,637.323,591.816,636.945,591.9z M635.11,585.947
		c-0.336-0.042-0.812-0.07-1.149-0.07c-0.994,0-1.247,0.729-1.247,1.709v1.093c0,0.995,0.252,1.723,1.247,1.723
		c0.462,0,0.883-0.042,1.149-0.084V585.947z"/>
	<path fill="#5BA4C2" d="M644.967,592.138h-1.569c-0.153,0-0.28-0.126-0.28-0.28v-0.224c-0.546,0.392-1.106,0.63-1.947,0.63
		c-1.218,0-2.395-0.588-2.395-2.409v-0.126c0-1.639,1.05-2.367,3.445-2.367h0.757v-0.505c0-0.798-0.393-0.966-1.051-0.966
		c-0.896,0-1.891,0.056-2.325,0.098h-0.07c-0.14,0-0.252-0.07-0.252-0.252v-1.135c0-0.154,0.098-0.266,0.266-0.308
		c0.519-0.127,1.5-0.295,2.423-0.295c2.018,0,3.277,0.812,3.277,2.857v5.001C645.246,592.012,645.121,592.138,644.967,592.138z
		 M643.02,588.707h-0.799c-0.98,0-1.232,0.336-1.232,1.022v0.126c0,0.588,0.295,0.7,0.883,0.7c0.42,0,0.812-0.14,1.148-0.308
		V588.707z"/>
	<path fill="#5BA4C2" d="M656.475,592.138h-1.568c-0.154,0-0.28-0.126-0.28-0.28v-0.224c-0.546,0.392-1.106,0.63-1.947,0.63
		c-1.219,0-2.396-0.588-2.396-2.409v-0.126c0-1.639,1.051-2.367,3.446-2.367h0.757v-0.505c0-0.798-0.393-0.966-1.051-0.966
		c-0.896,0-1.892,0.056-2.326,0.098h-0.069c-0.14,0-0.253-0.07-0.253-0.252v-1.135c0-0.154,0.099-0.266,0.267-0.308
		c0.519-0.127,1.499-0.295,2.423-0.295c2.018,0,3.278,0.812,3.278,2.857v5.001C656.755,592.012,656.629,592.138,656.475,592.138z
		 M654.527,588.707h-0.798c-0.98,0-1.233,0.336-1.233,1.022v0.126c0,0.588,0.295,0.7,0.883,0.7c0.42,0,0.812-0.14,1.148-0.308
		V588.707z"/>
	<path fill="#5BA4C2" d="M666.988,592.054c-0.393,0.098-1.023,0.21-1.863,0.21c-1.975,0-3.264-1.261-3.264-3.544v-1.177
		c0-2.283,1.289-3.544,3.264-3.544c0.84,0,1.471,0.112,1.863,0.21c0.21,0.057,0.294,0.112,0.294,0.322v1.247
		c0,0.14-0.126,0.238-0.267,0.238c0,0-0.014,0-0.027,0c-0.519-0.057-0.91-0.099-1.709-0.099c-0.631,0-1.148,0.379-1.148,1.625v1.177
		c0,1.247,0.518,1.625,1.148,1.625c0.799,0,1.19-0.042,1.709-0.098c0.014,0,0.027,0,0.027,0c0.141,0,0.267,0.098,0.267,0.237v1.247
		C667.282,591.942,667.198,591.999,666.988,592.054z"/>
	<path fill="#5BA4C2" d="M674.618,592.138h-1.569c-0.153,0-0.279-0.126-0.279-0.28v-0.224c-0.547,0.392-1.107,0.63-1.947,0.63
		c-1.219,0-2.396-0.588-2.396-2.409v-0.126c0-1.639,1.051-2.367,3.446-2.367h0.756v-0.505c0-0.798-0.392-0.966-1.051-0.966
		c-0.896,0-1.891,0.056-2.324,0.098h-0.07c-0.141,0-0.252-0.07-0.252-0.252v-1.135c0-0.154,0.098-0.266,0.266-0.308
		c0.519-0.127,1.499-0.295,2.424-0.295c2.017,0,3.277,0.812,3.277,2.857v5.001C674.898,592.012,674.772,592.138,674.618,592.138z
		 M672.672,588.707h-0.799c-0.98,0-1.232,0.336-1.232,1.022v0.126c0,0.588,0.294,0.7,0.882,0.7c0.421,0,0.812-0.14,1.149-0.308
		V588.707z"/>
	<path fill="#5BA4C2" d="M679.195,592.264c-0.771,0-1.836-0.112-2.55-0.308c-0.169-0.043-0.267-0.154-0.267-0.322V590.5
		c0-0.141,0.098-0.267,0.267-0.267c0.014,0,0.042,0,0.056,0c0.757,0.099,1.934,0.196,2.381,0.196c0.673,0,0.827-0.182,0.827-0.546
		c0-0.21-0.126-0.364-0.519-0.589l-1.82-1.051c-0.785-0.448-1.247-1.162-1.247-2.072c0-1.415,0.938-2.172,2.872-2.172
		c1.105,0,1.778,0.141,2.492,0.322c0.168,0.042,0.267,0.154,0.267,0.322v1.135c0,0.168-0.099,0.266-0.237,0.266
		c-0.015,0-0.029,0-0.043,0c-0.406-0.056-1.611-0.182-2.325-0.182c-0.546,0-0.742,0.084-0.742,0.406c0,0.21,0.154,0.322,0.435,0.49
		l1.736,0.994c1.163,0.673,1.415,1.401,1.415,2.157C682.192,591.228,681.24,592.264,679.195,592.264z"/>
	<path fill="#5BA4C2" d="M685.719,583.202h-1.821c-0.154,0-0.28-0.126-0.28-0.28v-1.303c0-0.154,0.126-0.28,0.28-0.28h1.821
		c0.154,0,0.279,0.126,0.279,0.28v1.303C685.998,583.076,685.873,583.202,685.719,583.202z M685.662,592.138h-1.709
		c-0.154,0-0.279-0.126-0.279-0.28v-7.466c0-0.154,0.125-0.28,0.279-0.28h1.709c0.154,0,0.28,0.126,0.28,0.28v7.466
		C685.942,592.012,685.816,592.138,685.662,592.138z"/>
	<path fill="#5BA4C2" d="M695.674,592.152c-0.421,0.07-0.701,0.112-1.107,0.112c-1.541,0-2.354-0.406-2.354-2.396v-4.062
		l-1.12-0.183c-0.153-0.028-0.294-0.14-0.294-0.294v-0.925c0-0.154,0.141-0.294,0.294-0.294h1.12v-1.148
		c0-0.154,0.127-0.252,0.281-0.28l1.709-0.294c0.014,0,0.027,0,0.041,0c0.141,0,0.252,0.098,0.252,0.238v1.484h1.149
		c0.153,0,0.28,0.126,0.28,0.28v1.135c0,0.154-0.127,0.28-0.28,0.28h-1.149v4.076c0,0.56,0.043,0.658,0.463,0.658h0.687
		c0.183,0,0.294,0.084,0.294,0.238v1.092C695.939,592.012,695.842,592.125,695.674,592.152z"/>
	<path fill="#5BA4C2" d="M700.363,592.264c-2.27,0-3.517-1.415-3.517-3.642v-0.98c0-2.228,1.247-3.643,3.517-3.643
		c2.269,0,3.502,1.415,3.502,3.643v0.98C703.865,590.849,702.632,592.264,700.363,592.264z M701.609,587.642
		c0-1.135-0.434-1.709-1.246-1.709s-1.262,0.574-1.262,1.709v0.98c0,1.135,0.449,1.723,1.262,1.723s1.246-0.588,1.246-1.723V587.642
		z"/>
	<path fill="#5BA4C2" d="M711.564,591.9c-0.799,0.196-1.906,0.364-2.984,0.364c-2.27,0-3.516-1.316-3.516-3.586v-1.093
		c0-2.199,1.148-3.586,3.516-3.586c0.28,0,0.742,0.042,1.148,0.099v-2.424c0-0.154,0.127-0.28,0.281-0.28h1.694
		c0.153,0,0.294,0.126,0.294,0.28v9.819C711.998,591.719,711.941,591.816,711.564,591.9z M709.729,585.947
		c-0.336-0.042-0.812-0.07-1.148-0.07c-0.994,0-1.246,0.729-1.246,1.709v1.093c0,0.995,0.252,1.723,1.246,1.723
		c0.463,0,0.883-0.042,1.148-0.084V585.947z"/>
	<path fill="#5BA4C2" d="M719.586,592.138h-1.569c-0.153,0-0.28-0.126-0.28-0.28v-0.224c-0.546,0.392-1.106,0.63-1.947,0.63
		c-1.219,0-2.395-0.588-2.395-2.409v-0.126c0-1.639,1.051-2.367,3.445-2.367h0.757v-0.505c0-0.798-0.393-0.966-1.051-0.966
		c-0.896,0-1.892,0.056-2.325,0.098h-0.07c-0.14,0-0.252-0.07-0.252-0.252v-1.135c0-0.154,0.098-0.266,0.266-0.308
		c0.52-0.127,1.5-0.295,2.424-0.295c2.018,0,3.277,0.812,3.277,2.857v5.001C719.865,592.012,719.74,592.138,719.586,592.138z
		 M717.639,588.707h-0.799c-0.98,0-1.232,0.336-1.232,1.022v0.126c0,0.588,0.295,0.7,0.883,0.7c0.42,0,0.812-0.14,1.148-0.308
		V588.707z"/>
	<path fill="#5BA4C2" d="M724.162,592.264c-0.771,0-1.835-0.112-2.549-0.308c-0.169-0.043-0.267-0.154-0.267-0.322V590.5
		c0-0.141,0.098-0.267,0.267-0.267c0.014,0,0.041,0,0.055,0c0.758,0.099,1.934,0.196,2.382,0.196c0.673,0,0.827-0.182,0.827-0.546
		c0-0.21-0.127-0.364-0.52-0.589l-1.82-1.051c-0.784-0.448-1.246-1.162-1.246-2.072c0-1.415,0.938-2.172,2.871-2.172
		c1.106,0,1.779,0.141,2.493,0.322c0.168,0.042,0.267,0.154,0.267,0.322v1.135c0,0.168-0.099,0.266-0.238,0.266
		c-0.014,0-0.028,0-0.042,0c-0.406-0.056-1.611-0.182-2.325-0.182c-0.547,0-0.742,0.084-0.742,0.406c0,0.21,0.153,0.322,0.434,0.49
		l1.737,0.994c1.163,0.673,1.415,1.401,1.415,2.157C727.16,591.228,726.207,592.264,724.162,592.264z"/>
</g>
<g enable-background="new    ">
	<path fill="#5BA4C2" d="M531.664,610.138h-1.709c-0.154,0-0.294-0.14-0.294-0.294v-10.17c0-0.154,0.14-0.28,0.294-0.28h1.709
		c0.154,0,0.266,0.126,0.266,0.28v10.17C531.93,609.999,531.817,610.138,531.664,610.138z"/>
	<path fill="#5BA4C2" d="M539.519,610.138h-1.569c-0.154,0-0.28-0.126-0.28-0.28v-0.224c-0.546,0.392-1.107,0.63-1.947,0.63
		c-1.219,0-2.396-0.588-2.396-2.409v-0.126c0-1.639,1.051-2.367,3.446-2.367h0.756v-0.505c0-0.798-0.392-0.966-1.051-0.966
		c-0.896,0-1.891,0.056-2.325,0.098h-0.07c-0.14,0-0.252-0.07-0.252-0.252v-1.135c0-0.154,0.098-0.266,0.266-0.308
		c0.519-0.127,1.499-0.295,2.423-0.295c2.017,0,3.278,0.812,3.278,2.857v5.001C539.799,610.012,539.673,610.138,539.519,610.138z
		 M537.572,606.707h-0.798c-0.98,0-1.233,0.336-1.233,1.022v0.126c0,0.588,0.294,0.7,0.882,0.7c0.42,0,0.812-0.14,1.149-0.308
		V606.707z"/>
	<path fill="#5BA4C2" d="M544.096,610.264c-0.771,0-1.835-0.112-2.549-0.308c-0.168-0.043-0.266-0.154-0.266-0.322V608.5
		c0-0.141,0.098-0.267,0.266-0.267c0.014,0,0.042,0,0.056,0c0.757,0.099,1.933,0.196,2.381,0.196c0.672,0,0.827-0.182,0.827-0.546
		c0-0.21-0.126-0.364-0.519-0.589l-1.821-1.051c-0.784-0.448-1.247-1.162-1.247-2.072c0-1.415,0.938-2.172,2.872-2.172
		c1.106,0,1.779,0.141,2.493,0.322c0.168,0.042,0.266,0.154,0.266,0.322v1.135c0,0.168-0.098,0.266-0.238,0.266
		c-0.014,0-0.028,0-0.042,0c-0.406-0.056-1.611-0.182-2.325-0.182c-0.546,0-0.742,0.084-0.742,0.406c0,0.21,0.154,0.322,0.434,0.49
		l1.737,0.994c1.163,0.673,1.415,1.401,1.415,2.157C547.093,609.228,546.141,610.264,544.096,610.264z"/>
	<path fill="#5BA4C2" d="M556.542,600.992h-0.686c-0.42,0-0.462,0.098-0.462,0.658v0.462h1.148c0.154,0,0.28,0.126,0.28,0.28v1.135
		c0,0.154-0.126,0.28-0.28,0.28h-1.148v6.051c0,0.154-0.126,0.28-0.28,0.28h-1.723c-0.154,0-0.28-0.126-0.28-0.28v-6.051
		l-1.121-0.183c-0.154-0.028-0.294-0.14-0.294-0.294v-0.925c0-0.154,0.14-0.294,0.294-0.294h1.121v-0.448
		c0-1.989,0.812-2.396,2.353-2.396c0.406,0,0.687,0.042,1.107,0.112c0.168,0.028,0.266,0.14,0.266,0.28v1.093
		C556.836,600.907,556.724,600.992,556.542,600.992z"/>
	<path fill="#5BA4C2" d="M564.706,610.138h-1.569c-0.154,0-0.28-0.126-0.28-0.28v-0.336c-0.771,0.546-1.387,0.729-2.283,0.729
		c-2.031,0-2.479-1.415-2.479-3.18v-4.665c0-0.154,0.14-0.294,0.294-0.294h1.695c0.154,0,0.28,0.14,0.28,0.294v4.665
		c0,0.98,0.182,1.303,1.037,1.303c0.406,0,0.84-0.196,1.316-0.448v-5.52c0-0.154,0.126-0.294,0.28-0.294h1.695
		c0.154,0,0.294,0.14,0.294,0.294v7.452C564.986,610.012,564.859,610.138,564.706,610.138z"/>
	<path fill="#5BA4C2" d="M573.259,610.138h-1.695c-0.154,0-0.28-0.14-0.28-0.294v-4.665c0-0.98-0.182-1.303-1.037-1.303
		c-0.406,0-0.84,0.196-1.316,0.448v5.52c0,0.154-0.126,0.294-0.28,0.294h-1.695c-0.154,0-0.294-0.14-0.294-0.294v-7.452
		c0-0.154,0.126-0.28,0.28-0.28h1.569c0.154,0,0.28,0.126,0.28,0.28v0.336c0.771-0.546,1.387-0.729,2.283-0.729
		c2.031,0,2.479,1.415,2.479,3.18v4.665C573.553,609.999,573.414,610.138,573.259,610.138z"/>
	<path fill="#5BA4C2" d="M580.147,610.054c-0.393,0.098-1.023,0.21-1.863,0.21c-1.975,0-3.264-1.261-3.264-3.544v-1.177
		c0-2.283,1.289-3.544,3.264-3.544c0.84,0,1.471,0.112,1.863,0.21c0.21,0.057,0.294,0.112,0.294,0.322v1.247
		c0,0.14-0.126,0.238-0.266,0.238c0,0-0.014,0-0.028,0c-0.519-0.057-0.911-0.099-1.709-0.099c-0.63,0-1.149,0.379-1.149,1.625v1.177
		c0,1.247,0.519,1.625,1.149,1.625c0.798,0,1.19-0.042,1.709-0.098c0.014,0,0.028,0,0.028,0c0.14,0,0.266,0.098,0.266,0.237v1.247
		C580.441,609.942,580.357,609.999,580.147,610.054z"/>
	<path fill="#5BA4C2" d="M583.967,601.202h-1.821c-0.154,0-0.28-0.126-0.28-0.28v-1.303c0-0.154,0.126-0.28,0.28-0.28h1.821
		c0.154,0,0.28,0.126,0.28,0.28v1.303C584.247,601.076,584.121,601.202,583.967,601.202z M583.911,610.138h-1.709
		c-0.154,0-0.28-0.126-0.28-0.28v-7.466c0-0.154,0.126-0.28,0.28-0.28h1.709c0.154,0,0.28,0.126,0.28,0.28v7.466
		C584.191,610.012,584.065,610.138,583.911,610.138z"/>
	<path fill="#5BA4C2" d="M589.218,610.264c-2.27,0-3.516-1.415-3.516-3.642v-0.98c0-2.228,1.247-3.643,3.516-3.643
		c2.269,0,3.502,1.415,3.502,3.643v0.98C592.72,608.849,591.487,610.264,589.218,610.264z M590.464,605.642
		c0-1.135-0.434-1.709-1.247-1.709s-1.261,0.574-1.261,1.709v0.98c0,1.135,0.448,1.723,1.261,1.723s1.247-0.588,1.247-1.723V605.642
		z"/>
	<path fill="#5BA4C2" d="M600.769,610.138h-1.695c-0.154,0-0.28-0.14-0.28-0.294v-4.665c0-0.98-0.182-1.303-1.037-1.303
		c-0.406,0-0.84,0.196-1.316,0.448v5.52c0,0.154-0.126,0.294-0.28,0.294h-1.695c-0.154,0-0.294-0.14-0.294-0.294v-7.452
		c0-0.154,0.126-0.28,0.28-0.28h1.569c0.154,0,0.28,0.126,0.28,0.28v0.336c0.771-0.546,1.387-0.729,2.283-0.729
		c2.031,0,2.479,1.415,2.479,3.18v4.665C601.063,609.999,600.923,610.138,600.769,610.138z"/>
	<path fill="#5BA4C2" d="M609.239,606.833h-4.468v0.028c0,0.798,0.336,1.526,1.443,1.526c0.882,0,2.129-0.07,2.689-0.126
		c0.014,0,0.028,0,0.042,0c0.154,0,0.266,0.07,0.266,0.224v1.065c0,0.224-0.056,0.321-0.294,0.378
		c-0.896,0.224-1.653,0.336-2.872,0.336c-1.695,0-3.516-0.896-3.516-3.6v-0.98c0-2.256,1.317-3.685,3.544-3.685
		c2.297,0,3.46,1.569,3.46,3.685v0.812C609.534,606.707,609.421,606.833,609.239,606.833z M607.32,605.376
		c0-1.036-0.476-1.555-1.261-1.555c-0.771,0-1.289,0.532-1.289,1.555v0.056h2.549V605.376z"/>
	<path fill="#5BA4C2" d="M613.619,610.264c-0.771,0-1.835-0.112-2.549-0.308c-0.168-0.043-0.266-0.154-0.266-0.322V608.5
		c0-0.141,0.098-0.267,0.266-0.267c0.014,0,0.042,0,0.056,0c0.757,0.099,1.933,0.196,2.381,0.196c0.672,0,0.827-0.182,0.827-0.546
		c0-0.21-0.126-0.364-0.519-0.589l-1.821-1.051c-0.784-0.448-1.247-1.162-1.247-2.072c0-1.415,0.938-2.172,2.872-2.172
		c1.106,0,1.779,0.141,2.493,0.322c0.168,0.042,0.266,0.154,0.266,0.322v1.135c0,0.168-0.098,0.266-0.238,0.266
		c-0.014,0-0.028,0-0.042,0c-0.406-0.056-1.611-0.182-2.325-0.182c-0.546,0-0.742,0.084-0.742,0.406c0,0.21,0.154,0.322,0.434,0.49
		l1.737,0.994c1.163,0.673,1.415,1.401,1.415,2.157C616.617,609.228,615.664,610.264,613.619,610.264z"/>
	<path fill="#5BA4C2" d="M627.929,609.9c-0.798,0.196-1.905,0.364-2.984,0.364c-2.269,0-3.516-1.316-3.516-3.586v-1.093
		c0-2.199,1.148-3.586,3.516-3.586c0.28,0,0.743,0.042,1.149,0.099v-2.424c0-0.154,0.126-0.28,0.28-0.28h1.695
		c0.154,0,0.294,0.126,0.294,0.28v9.819C628.363,609.719,628.307,609.816,627.929,609.9z M626.094,603.947
		c-0.336-0.042-0.812-0.07-1.149-0.07c-0.994,0-1.247,0.729-1.247,1.709v1.093c0,0.995,0.252,1.723,1.247,1.723
		c0.462,0,0.883-0.042,1.149-0.084V603.947z"/>
	<path fill="#5BA4C2" d="M636.539,606.833h-4.468v0.028c0,0.798,0.336,1.526,1.443,1.526c0.882,0,2.129-0.07,2.689-0.126
		c0.014,0,0.028,0,0.042,0c0.154,0,0.266,0.07,0.266,0.224v1.065c0,0.224-0.056,0.321-0.294,0.378
		c-0.896,0.224-1.653,0.336-2.871,0.336c-1.695,0-3.516-0.896-3.516-3.6v-0.98c0-2.256,1.317-3.685,3.544-3.685
		c2.297,0,3.46,1.569,3.46,3.685v0.812C636.833,606.707,636.721,606.833,636.539,606.833z M634.62,605.376
		c0-1.036-0.476-1.555-1.261-1.555c-0.771,0-1.289,0.532-1.289,1.555v0.056h2.549V605.376z"/>
	<path fill="#5BA4C2" d="M640.302,610.138h-1.709c-0.154,0-0.294-0.14-0.294-0.294v-10.17c0-0.154,0.14-0.28,0.294-0.28h1.709
		c0.154,0,0.266,0.126,0.266,0.28v10.17C640.568,609.999,640.456,610.138,640.302,610.138z"/>
	<path fill="#5BA4C2" d="M652.021,610.026c-0.293,0.099-1.105,0.238-2.086,0.238c-2.13,0-4.146-1.12-4.146-4.454v-1.766
		c0-3.333,2.017-4.439,4.146-4.439c0.98,0,1.793,0.14,2.086,0.237c0.197,0.057,0.309,0.112,0.309,0.309v1.358
		c0,0.168-0.084,0.28-0.266,0.28c-0.014,0-0.028,0-0.043,0c-0.531-0.042-1.303-0.112-2.072-0.112c-0.967,0-1.737,0.505-1.737,2.367
		v1.766c0,1.863,0.771,2.367,1.737,2.367c0.77,0,1.541-0.07,2.072-0.112c0.015,0,0.029,0,0.043,0c0.182,0,0.266,0.112,0.266,0.28
		v1.358C652.33,609.9,652.219,609.97,652.021,610.026z"/>
	<path fill="#5BA4C2" d="M660.353,610.138h-1.569c-0.154,0-0.279-0.126-0.279-0.28v-0.336c-0.771,0.546-1.387,0.729-2.283,0.729
		c-2.031,0-2.48-1.415-2.48-3.18v-4.665c0-0.154,0.141-0.294,0.295-0.294h1.695c0.153,0,0.279,0.14,0.279,0.294v4.665
		c0,0.98,0.183,1.303,1.037,1.303c0.406,0,0.84-0.196,1.316-0.448v-5.52c0-0.154,0.126-0.294,0.28-0.294h1.694
		c0.154,0,0.295,0.14,0.295,0.294v7.452C660.633,610.012,660.506,610.138,660.353,610.138z"/>
	<path fill="#5BA4C2" d="M668.809,606.833h-4.469v0.028c0,0.798,0.336,1.526,1.443,1.526c0.882,0,2.129-0.07,2.689-0.126
		c0.014,0,0.027,0,0.041,0c0.154,0,0.267,0.07,0.267,0.224v1.065c0,0.224-0.056,0.321-0.294,0.378
		c-0.896,0.224-1.653,0.336-2.871,0.336c-1.695,0-3.517-0.896-3.517-3.6v-0.98c0-2.256,1.317-3.685,3.544-3.685
		c2.297,0,3.46,1.569,3.46,3.685v0.812C669.103,606.707,668.99,606.833,668.809,606.833z M666.889,605.376
		c0-1.036-0.476-1.555-1.26-1.555c-0.771,0-1.289,0.532-1.289,1.555v0.056h2.549V605.376z"/>
	<path fill="#5BA4C2" d="M674.758,603.877h-0.113c-0.686,0-1.288,0.211-1.807,0.49v5.478c0,0.154-0.126,0.294-0.279,0.294h-1.695
		c-0.154,0-0.295-0.14-0.295-0.294v-7.452c0-0.154,0.127-0.28,0.281-0.28h1.666c0.154,0,0.281,0.126,0.281,0.28v0.28
		c0.518-0.435,1.218-0.673,1.891-0.673c0.154,0,0.279,0.126,0.279,0.28v1.331C674.967,603.737,674.883,603.877,674.758,603.877z"/>
	<path fill="#5BA4C2" d="M679.531,610.264c-0.281,0-0.742-0.042-1.148-0.098v2.423c0,0.154-0.127,0.28-0.281,0.28h-1.694
		c-0.154,0-0.294-0.126-0.294-0.28v-9.819c0-0.224,0.056-0.322,0.434-0.406c0.799-0.196,1.905-0.364,2.984-0.364
		c2.269,0,3.516,1.317,3.516,3.586v1.093C683.047,608.878,681.898,610.264,679.531,610.264z M680.777,605.586
		c0-0.994-0.252-1.709-1.246-1.709c-0.463,0-0.883,0.028-1.148,0.07v4.37c0.336,0.042,0.812,0.084,1.148,0.084
		c0.994,0,1.246-0.742,1.246-1.723V605.586z"/>
	<path fill="#5BA4C2" d="M687.762,610.264c-2.27,0-3.516-1.415-3.516-3.642v-0.98c0-2.228,1.246-3.643,3.516-3.643
		s3.502,1.415,3.502,3.643v0.98C691.264,608.849,690.031,610.264,687.762,610.264z M689.009,605.642
		c0-1.135-0.435-1.709-1.247-1.709s-1.26,0.574-1.26,1.709v0.98c0,1.135,0.447,1.723,1.26,1.723s1.247-0.588,1.247-1.723V605.642z"
		/>
	<path fill="#5BA4C2" d="M704.467,610.138h-1.835c-0.153,0-0.28-0.126-0.28-0.28v-4.048h-3.459v4.048c0,0.154-0.127,0.28-0.281,0.28
		h-1.834c-0.154,0-0.281-0.126-0.281-0.28v-9.861c0-0.154,0.127-0.266,0.281-0.266h1.834c0.154,0,0.281,0.111,0.281,0.266v3.727
		h3.459v-3.727c0-0.154,0.127-0.266,0.28-0.266h1.835c0.154,0,0.28,0.111,0.28,0.266v9.861
		C704.747,610.012,704.621,610.138,704.467,610.138z"/>
	<path fill="#5BA4C2" d="M713.174,610.138h-1.568c-0.154,0-0.281-0.126-0.281-0.28v-0.336c-0.77,0.546-1.387,0.729-2.283,0.729
		c-2.031,0-2.479-1.415-2.479-3.18v-4.665c0-0.154,0.14-0.294,0.294-0.294h1.694c0.154,0,0.281,0.14,0.281,0.294v4.665
		c0,0.98,0.182,1.303,1.035,1.303c0.406,0,0.842-0.196,1.317-0.448v-5.52c0-0.154,0.126-0.294,0.28-0.294h1.695
		c0.154,0,0.293,0.14,0.293,0.294v7.452C713.453,610.012,713.328,610.138,713.174,610.138z"/>
	<path fill="#5BA4C2" d="M725.412,610.138h-1.695c-0.154,0-0.28-0.14-0.28-0.294v-4.776c0-0.896-0.21-1.163-0.854-1.163
		c-0.238,0-0.658,0.056-1.078,0.252c0.027,0.28,0.041,0.603,0.041,0.911v4.776c0,0.154-0.125,0.294-0.279,0.294h-1.695
		c-0.154,0-0.294-0.14-0.294-0.294v-4.776c0-0.896-0.169-1.163-0.812-1.163c-0.267,0-0.63,0.14-1.064,0.364v5.575
		c0,0.154-0.126,0.294-0.28,0.294h-1.695c-0.154,0-0.294-0.14-0.294-0.294v-7.452c0-0.154,0.126-0.28,0.28-0.28h1.597
		c0.154,0,0.28,0.126,0.28,0.28v0.308c0.588-0.392,1.261-0.7,2.073-0.7c0.742,0,1.261,0.21,1.653,0.687
		c0.812-0.462,1.372-0.687,2.283-0.687c1.849,0,2.408,1.233,2.408,3.068v4.776C725.705,609.999,725.565,610.138,725.412,610.138z"/>
	<path fill="#5BA4C2" d="M733.291,610.138h-1.568c-0.154,0-0.28-0.126-0.28-0.28v-0.224c-0.546,0.392-1.106,0.63-1.947,0.63
		c-1.219,0-2.396-0.588-2.396-2.409v-0.126c0-1.639,1.051-2.367,3.446-2.367h0.757v-0.505c0-0.798-0.393-0.966-1.051-0.966
		c-0.896,0-1.892,0.056-2.326,0.098h-0.069c-0.14,0-0.253-0.07-0.253-0.252v-1.135c0-0.154,0.099-0.266,0.267-0.308
		c0.519-0.127,1.499-0.295,2.423-0.295c2.018,0,3.278,0.812,3.278,2.857v5.001C733.571,610.012,733.445,610.138,733.291,610.138z
		 M731.344,606.707h-0.798c-0.981,0-1.233,0.336-1.233,1.022v0.126c0,0.588,0.295,0.7,0.883,0.7c0.42,0,0.812-0.14,1.148-0.308
		V606.707z"/>
	<path fill="#5BA4C2" d="M741.846,610.138h-1.695c-0.154,0-0.279-0.14-0.279-0.294v-4.665c0-0.98-0.183-1.303-1.037-1.303
		c-0.406,0-0.84,0.196-1.316,0.448v5.52c0,0.154-0.127,0.294-0.28,0.294h-1.694c-0.154,0-0.295-0.14-0.295-0.294v-7.452
		c0-0.154,0.126-0.28,0.28-0.28h1.569c0.154,0,0.279,0.126,0.279,0.28v0.336c0.771-0.546,1.387-0.729,2.283-0.729
		c2.031,0,2.48,1.415,2.48,3.18v4.665C742.141,609.999,742,610.138,741.846,610.138z"/>
	<path fill="#5BA4C2" d="M747.107,610.264c-2.27,0-3.516-1.415-3.516-3.642v-0.98c0-2.228,1.246-3.643,3.516-3.643
		s3.502,1.415,3.502,3.643v0.98C750.609,608.849,749.377,610.264,747.107,610.264z M748.354,605.642
		c0-1.135-0.435-1.709-1.247-1.709s-1.26,0.574-1.26,1.709v0.98c0,1.135,0.447,1.723,1.26,1.723s1.247-0.588,1.247-1.723V605.642z"
		/>
</g>
<g id="Globa">
	<g>
		<g>
			<g>
				<line fill="none" stroke="#D4EAE1" stroke-miterlimit="10" x1="540.2" y1="321.6" x2="621.9" y2="321.6"/>
				<circle fill="none" stroke="#D4EAE1" stroke-miterlimit="10" cx="623.7" cy="321.6" r="1.7"/>
			</g>
		</g>
	</g>
	<g>
		<g>
			<path fill="#D4EAE1" d="M450.2,352.1c3.399,0,72.6,0.399,75.7,0.399c3.199,0,4.199-0.6,4.199-3.3v-54.9
				c0-2.699-1-3.399-4.199-3.399c-3,0-72.4,0.2-75.801,0.2c-3.199,0-4.6-0.101-5.199-3.101h-0.2c-0.601,3-2.2,3.101-5.4,3.101
				c-3.399,0-73.3-0.3-76.3-0.3c-3.2,0-4.8,0.699-4.8,3.399v54.9c0,2.7,1.6,3.399,4.8,3.399c3,0,72.8-0.399,76.1-0.399
				c3.2,0,5,1.899,5.601,2.899h0.2C445.4,354,446.9,352.1,450.2,352.1z"/>
		</g>
		<g enable-background="new    ">
			<path fill="#5BA4C2" d="M383.308,319.168c-0.319,0.05-0.709,0.14-1.899,0.14c-1.299,0-2.309-0.35-2.309-2.049v-3.488
				c0-1.699,1.009-2.049,2.309-2.049c1.189,0,1.58,0.09,1.899,0.14c0.15,0.021,0.2,0.07,0.2,0.21v0.64c0,0.11-0.09,0.2-0.2,0.2
				h-2.039c-0.58,0-0.79,0.2-0.79,0.859v1.079h2.708c0.11,0,0.2,0.09,0.2,0.2v0.72c0,0.109-0.09,0.2-0.2,0.2h-2.708v1.289
				c0,0.659,0.21,0.859,0.79,0.859h2.039c0.11,0,0.2,0.09,0.2,0.2v0.64C383.508,319.097,383.458,319.147,383.308,319.168z"/>
			<path fill="#5BA4C2" d="M385.939,319.227h-0.93c-0.11,0-0.2-0.1-0.2-0.21v-7.196c0-0.109,0.09-0.199,0.2-0.199h0.93
				c0.11,0,0.19,0.09,0.19,0.199v7.196C386.129,319.128,386.049,319.227,385.939,319.227z"/>
			<path fill="#5BA4C2" d="M393.958,319.227h-0.85c-0.11,0-0.2-0.09-0.2-0.2v-0.159c-0.46,0.279-0.93,0.439-1.409,0.439
				c-0.83,0-1.729-0.32-1.729-1.669v-0.04c0-1.14,0.699-1.729,2.438-1.729h0.63v-0.439c0-0.649-0.29-0.81-0.88-0.81
				c-0.64,0-1.299,0.04-1.629,0.08c-0.02,0-0.04,0-0.05,0c-0.1,0-0.18-0.03-0.18-0.17v-0.64c0-0.11,0.06-0.18,0.19-0.21
				c0.4-0.08,0.979-0.16,1.669-0.16c1.419,0,2.199,0.63,2.199,1.909v3.598C394.158,319.137,394.068,319.227,393.958,319.227z
				 M392.839,316.749h-0.63c-0.91,0-1.109,0.29-1.109,0.85v0.04c0,0.489,0.22,0.619,0.72,0.619c0.36,0,0.729-0.12,1.02-0.279
				V316.749z"/>
			<path fill="#5BA4C2" d="M400.207,314.5l-0.33,0.13c0.16,0.23,0.25,0.45,0.25,0.8v0.07c0,1.249-0.859,1.818-2.369,1.818
				c-0.53,0-0.889-0.09-1.089-0.17c-0.12,0.08-0.17,0.17-0.17,0.26c0,0.2,0.11,0.28,0.34,0.33l1.179,0.28
				c1.359,0.319,2.239,0.529,2.239,1.599v0.07c0,1.02-0.75,1.569-2.448,1.569c-1.619,0-2.479-0.61-2.479-1.659v-0.09
				c0-0.41,0.19-0.81,0.51-1.1c-0.28-0.21-0.45-0.56-0.45-0.92v-0.01c0-0.31,0.13-0.62,0.4-0.81c-0.3-0.31-0.41-0.67-0.41-1.169
				v-0.07c0-0.999,0.649-1.839,2.378-1.839h2.339c0.15,0,0.27,0.12,0.27,0.27v0.42C400.367,314.43,400.327,314.45,400.207,314.5z
				 M398.938,319.617c0-0.22-0.13-0.35-1.18-0.6l-0.889-0.21c-0.15,0.21-0.25,0.34-0.25,0.7v0.09c0,0.409,0.25,0.659,1.189,0.659
				c0.959,0,1.129-0.21,1.129-0.569V319.617z M398.828,315.449c0-0.479-0.209-0.85-1.069-0.85c-0.85,0-1.079,0.38-1.079,0.85v0.08
				c0,0.37,0.15,0.79,1.079,0.79c0.83,0,1.069-0.29,1.069-0.79V315.449z"/>
			<path fill="#5BA4C2" d="M405.718,319.227h-0.919c-0.11,0-0.2-0.09-0.2-0.2v-0.229c-0.52,0.34-0.929,0.5-1.569,0.5
				c-0.5,0-0.939-0.13-1.229-0.42c-0.37-0.37-0.5-0.989-0.5-1.819v-3.258c0-0.11,0.09-0.21,0.2-0.21h0.919c0.11,0,0.2,0.1,0.2,0.21
				v3.258c0,0.5,0.04,0.79,0.23,0.96c0.14,0.119,0.31,0.18,0.62,0.18c0.37,0,0.85-0.25,1.129-0.4v-3.997c0-0.11,0.09-0.21,0.2-0.21
				h0.919c0.11,0,0.2,0.1,0.2,0.21v5.227C405.917,319.137,405.828,319.227,405.718,319.227z"/>
			<path fill="#5BA4C2" d="M411.198,319.227h-0.85c-0.11,0-0.2-0.09-0.2-0.2v-0.159c-0.46,0.279-0.93,0.439-1.409,0.439
				c-0.83,0-1.729-0.32-1.729-1.669v-0.04c0-1.14,0.699-1.729,2.438-1.729h0.63v-0.439c0-0.649-0.29-0.81-0.88-0.81
				c-0.64,0-1.299,0.04-1.629,0.08c-0.02,0-0.04,0-0.05,0c-0.1,0-0.18-0.03-0.18-0.17v-0.64c0-0.11,0.06-0.18,0.19-0.21
				c0.4-0.08,0.979-0.16,1.669-0.16c1.419,0,2.199,0.63,2.199,1.909v3.598C411.397,319.137,411.308,319.227,411.198,319.227z
				 M410.079,316.749h-0.63c-0.91,0-1.109,0.29-1.109,0.85v0.04c0,0.489,0.22,0.619,0.72,0.619c0.36,0,0.729-0.12,1.02-0.279
				V316.749z"/>
			<path fill="#5BA4C2" d="M417.898,314.639c-0.54,0-0.959,0.141-1.379,0.36v4.018c0,0.11-0.09,0.21-0.2,0.21H415.4
				c-0.11,0-0.2-0.1-0.2-0.21v-5.228c0-0.109,0.09-0.199,0.2-0.199h0.87c0.11,0,0.2,0.09,0.2,0.199V314
				c0.49-0.379,1.029-0.479,1.429-0.479c0.11,0,0.2,0.09,0.2,0.2v0.72C418.098,314.55,418.008,314.639,417.898,314.639z"/>
			<path fill="#5BA4C2" d="M423.167,316.869h-3.258v0.029c0,0.58,0.24,1.27,1.2,1.27c0.729,0,1.419-0.06,1.839-0.1
				c0.01,0,0.02,0,0.03,0c0.1,0,0.18,0.05,0.18,0.149v0.66c0,0.16-0.03,0.229-0.21,0.26c-0.65,0.12-1.04,0.17-1.939,0.17
				c-1,0-2.419-0.54-2.419-2.509v-0.739c0-1.56,0.87-2.539,2.399-2.539c1.539,0,2.379,1.05,2.379,2.539v0.56
				C423.368,316.779,423.308,316.869,423.167,316.869z M422.038,315.889c0-0.78-0.43-1.229-1.049-1.229s-1.069,0.439-1.069,1.229
				v0.04h2.119V315.889z"/>
			<path fill="#5BA4C2" d="M426.778,319.307c-0.24,0-0.589-0.021-0.959-0.07v1.77c0,0.109-0.09,0.199-0.2,0.199H424.7
				c-0.11,0-0.2-0.09-0.2-0.199v-6.956c0-0.15,0.04-0.21,0.27-0.271c0.62-0.159,1.369-0.26,2.009-0.26
				c1.609,0,2.389,0.949,2.389,2.509v0.77C429.167,318.358,428.388,319.307,426.778,319.307z M427.848,316.029
				c0-0.819-0.209-1.43-1.069-1.43c-0.36,0-0.77,0.03-0.959,0.07v3.488c0.28,0.04,0.72,0.07,0.959,0.07
				c0.86,0,1.069-0.61,1.069-1.43V316.029z"/>
			<path fill="#5BA4C2" d="M432.968,314.639c-0.54,0-0.959,0.141-1.379,0.36v4.018c0,0.11-0.09,0.21-0.2,0.21h-0.919
				c-0.11,0-0.2-0.1-0.2-0.21v-5.228c0-0.109,0.09-0.199,0.2-0.199h0.87c0.11,0,0.2,0.09,0.2,0.199V314
				c0.49-0.379,1.029-0.479,1.429-0.479c0.11,0,0.2,0.09,0.2,0.2v0.72C433.168,314.55,433.078,314.639,432.968,314.639z"/>
			<path fill="#5BA4C2" d="M438.237,316.869h-3.258v0.029c0,0.58,0.24,1.27,1.2,1.27c0.729,0,1.419-0.06,1.839-0.1
				c0.01,0,0.02,0,0.03,0c0.1,0,0.18,0.05,0.18,0.149v0.66c0,0.16-0.03,0.229-0.21,0.26c-0.65,0.12-1.04,0.17-1.939,0.17
				c-1,0-2.418-0.54-2.418-2.509v-0.739c0-1.56,0.869-2.539,2.398-2.539c1.539,0,2.379,1.05,2.379,2.539v0.56
				C438.438,316.779,438.377,316.869,438.237,316.869z M437.108,315.889c0-0.78-0.43-1.229-1.049-1.229s-1.069,0.439-1.069,1.229
				v0.04h2.119V315.889z"/>
			<path fill="#5BA4C2" d="M441.398,319.307c-0.39,0-1.229-0.05-1.789-0.2c-0.12-0.03-0.19-0.109-0.19-0.229v-0.6
				c0-0.08,0.07-0.16,0.17-0.16c0.02,0,0.03,0,0.04,0c0.48,0.06,1.379,0.11,1.679,0.11c0.62,0,0.709-0.21,0.709-0.48
				c0-0.189-0.12-0.31-0.439-0.51l-1.37-0.839c-0.489-0.3-0.839-0.8-0.839-1.38c0-0.999,0.63-1.499,1.899-1.499
				c0.81,0,1.27,0.09,1.779,0.2c0.12,0.03,0.18,0.109,0.18,0.229v0.58c0,0.12-0.06,0.189-0.16,0.189c-0.02,0-0.03,0-0.04,0
				c-0.28-0.04-1.08-0.12-1.649-0.12c-0.479,0-0.689,0.11-0.689,0.42c0,0.16,0.15,0.26,0.4,0.41l1.309,0.8
				c0.839,0.51,0.959,1.009,0.959,1.519C443.357,318.618,442.708,319.307,441.398,319.307z"/>
			<path fill="#5BA4C2" d="M448.867,316.869h-3.258v0.029c0,0.58,0.24,1.27,1.2,1.27c0.729,0,1.419-0.06,1.839-0.1
				c0.01,0,0.02,0,0.03,0c0.1,0,0.18,0.05,0.18,0.149v0.66c0,0.16-0.03,0.229-0.21,0.26c-0.65,0.12-1.04,0.17-1.939,0.17
				c-1,0-2.418-0.54-2.418-2.509v-0.739c0-1.56,0.869-2.539,2.398-2.539c1.539,0,2.379,1.05,2.379,2.539v0.56
				C449.067,316.779,449.007,316.869,448.867,316.869z M447.738,315.889c0-0.78-0.43-1.229-1.049-1.229s-1.069,0.439-1.069,1.229
				v0.04h2.119V315.889z"/>
			<path fill="#5BA4C2" d="M454.617,319.227h-0.919c-0.11,0-0.2-0.1-0.2-0.21v-3.258c0-0.87-0.08-1.12-0.85-1.12
				c-0.34,0-0.709,0.141-1.129,0.36v4.018c0,0.11-0.09,0.21-0.2,0.21h-0.919c-0.11,0-0.2-0.1-0.2-0.21v-5.228
				c0-0.109,0.09-0.199,0.2-0.199h0.87c0.11,0,0.2,0.09,0.2,0.199V314c0.58-0.369,0.959-0.479,1.619-0.479
				c1.439,0,1.729,0.97,1.729,2.239v3.258C454.817,319.128,454.727,319.227,454.617,319.227z"/>
			<path fill="#5BA4C2" d="M458.878,319.237c-0.24,0.04-0.459,0.07-0.68,0.07c-1.129,0-1.589-0.25-1.589-1.589v-3.139l-0.939-0.14
				c-0.11-0.021-0.2-0.09-0.2-0.2v-0.45c0-0.109,0.09-0.199,0.2-0.199h0.939v-0.819c0-0.11,0.09-0.181,0.2-0.2l0.93-0.16
				c0.01,0,0.03,0,0.04,0c0.09,0,0.16,0.05,0.16,0.15v1.029h0.899c0.11,0,0.2,0.09,0.2,0.199v0.59c0,0.11-0.09,0.2-0.2,0.2h-0.899
				v3.139c0,0.499,0.03,0.56,0.39,0.56h0.53c0.13,0,0.21,0.05,0.21,0.149v0.63C459.068,319.157,459.008,319.218,458.878,319.237z"/>
			<path fill="#5BA4C2" d="M463.947,319.227h-0.85c-0.11,0-0.2-0.09-0.2-0.2v-0.159c-0.46,0.279-0.93,0.439-1.409,0.439
				c-0.83,0-1.729-0.32-1.729-1.669v-0.04c0-1.14,0.699-1.729,2.438-1.729h0.63v-0.439c0-0.649-0.29-0.81-0.88-0.81
				c-0.64,0-1.299,0.04-1.629,0.08c-0.02,0-0.04,0-0.05,0c-0.1,0-0.18-0.03-0.18-0.17v-0.64c0-0.11,0.06-0.18,0.19-0.21
				c0.4-0.08,0.979-0.16,1.669-0.16c1.419,0,2.199,0.63,2.199,1.909v3.598C464.147,319.137,464.057,319.227,463.947,319.227z
				 M462.828,316.749h-0.63c-0.91,0-1.109,0.29-1.109,0.85v0.04c0,0.489,0.22,0.619,0.72,0.619c0.36,0,0.729-0.12,1.02-0.279
				V316.749z"/>
			<path fill="#5BA4C2" d="M472.147,319.048c-0.62,0.16-1.369,0.26-2.009,0.26c-1.609,0-2.389-0.949-2.389-2.509v-0.77
				c0-1.56,0.78-2.509,2.389-2.509c0.24,0,0.59,0.021,0.959,0.07v-1.77c0-0.109,0.09-0.199,0.2-0.199h0.919
				c0.11,0,0.2,0.09,0.2,0.199v6.956C472.417,318.927,472.377,318.987,472.147,319.048z M471.098,314.67
				c-0.28-0.04-0.72-0.07-0.959-0.07c-0.859,0-1.069,0.61-1.069,1.43v0.77c0,0.819,0.21,1.43,1.069,1.43
				c0.36,0,0.77-0.03,0.959-0.07V314.67z"/>
			<path fill="#5BA4C2" d="M478.127,316.869h-3.258v0.029c0,0.58,0.24,1.27,1.2,1.27c0.729,0,1.419-0.06,1.839-0.1
				c0.01,0,0.02,0,0.03,0c0.1,0,0.18,0.05,0.18,0.149v0.66c0,0.16-0.03,0.229-0.21,0.26c-0.65,0.12-1.04,0.17-1.939,0.17
				c-1,0-2.418-0.54-2.418-2.509v-0.739c0-1.56,0.869-2.539,2.398-2.539c1.539,0,2.379,1.05,2.379,2.539v0.56
				C478.327,316.779,478.267,316.869,478.127,316.869z M476.998,315.889c0-0.78-0.43-1.229-1.049-1.229s-1.069,0.439-1.069,1.229
				v0.04h2.119V315.889z"/>
			<path fill="#5BA4C2" d="M488.936,319.227h-0.919c-0.11,0-0.2-0.1-0.2-0.21v-3.398c0-0.77-0.16-0.969-0.72-0.969
				c-0.19,0-0.569,0.06-0.929,0.25c0.03,0.22,0.04,0.47,0.04,0.719v3.398c0,0.11-0.09,0.21-0.2,0.21h-0.919
				c-0.11,0-0.2-0.1-0.2-0.21v-3.398c0-0.77-0.13-0.969-0.69-0.969c-0.209,0-0.509,0.109-0.919,0.329v4.038
				c0,0.11-0.09,0.21-0.2,0.21h-0.919c-0.11,0-0.2-0.1-0.2-0.21v-5.228c0-0.109,0.09-0.199,0.2-0.199h0.87
				c0.11,0,0.2,0.09,0.2,0.199V314c0.42-0.27,0.839-0.479,1.429-0.479c0.57,0,0.939,0.17,1.169,0.45
				c0.51-0.28,0.959-0.45,1.649-0.45c1.359,0,1.659,0.93,1.659,2.099v3.398C489.135,319.128,489.045,319.227,488.936,319.227z"/>
			<path fill="#5BA4C2" d="M494.847,316.869h-3.258v0.029c0,0.58,0.24,1.27,1.2,1.27c0.729,0,1.419-0.06,1.839-0.1
				c0.01,0,0.02,0,0.03,0c0.1,0,0.18,0.05,0.18,0.149v0.66c0,0.16-0.03,0.229-0.21,0.26c-0.65,0.12-1.04,0.17-1.939,0.17
				c-1,0-2.418-0.54-2.418-2.509v-0.739c0-1.56,0.869-2.539,2.398-2.539c1.539,0,2.379,1.05,2.379,2.539v0.56
				C495.047,316.779,494.987,316.869,494.847,316.869z M493.717,315.889c0-0.78-0.43-1.229-1.049-1.229s-1.069,0.439-1.069,1.229
				v0.04h2.119V315.889z"/>
			<path fill="#5BA4C2" d="M500.376,319.048c-0.62,0.16-1.369,0.26-2.009,0.26c-1.609,0-2.389-0.949-2.389-2.509v-0.77
				c0-1.56,0.78-2.509,2.389-2.509c0.24,0,0.59,0.021,0.959,0.07v-1.77c0-0.109,0.09-0.199,0.2-0.199h0.919
				c0.11,0,0.2,0.09,0.2,0.199v6.956C500.646,318.927,500.606,318.987,500.376,319.048z M499.327,314.67
				c-0.28-0.04-0.72-0.07-0.959-0.07c-0.859,0-1.069,0.61-1.069,1.43v0.77c0,0.819,0.21,1.43,1.069,1.43
				c0.36,0,0.77-0.03,0.959-0.07V314.67z"/>
			<path fill="#5BA4C2" d="M503.128,312.841h-0.97c-0.11,0-0.21-0.09-0.21-0.199v-0.88c0-0.11,0.1-0.2,0.21-0.2h0.97
				c0.11,0,0.2,0.09,0.2,0.2v0.88C503.328,312.751,503.238,312.841,503.128,312.841z M503.098,319.227h-0.919
				c-0.11,0-0.2-0.1-0.2-0.21v-5.228c0-0.109,0.09-0.199,0.2-0.199h0.919c0.11,0,0.2,0.09,0.2,0.199v5.228
				C503.298,319.128,503.208,319.227,503.098,319.227z"/>
			<path fill="#5BA4C2" d="M508.607,319.227h-0.85c-0.11,0-0.2-0.09-0.2-0.2v-0.159c-0.46,0.279-0.93,0.439-1.409,0.439
				c-0.83,0-1.729-0.32-1.729-1.669v-0.04c0-1.14,0.699-1.729,2.438-1.729h0.63v-0.439c0-0.649-0.29-0.81-0.88-0.81
				c-0.64,0-1.299,0.04-1.629,0.08c-0.02,0-0.04,0-0.05,0c-0.1,0-0.18-0.03-0.18-0.17v-0.64c0-0.11,0.06-0.18,0.19-0.21
				c0.4-0.08,0.979-0.16,1.669-0.16c1.419,0,2.199,0.63,2.199,1.909v3.598C508.807,319.137,508.717,319.227,508.607,319.227z
				 M507.488,316.749h-0.63c-0.91,0-1.109,0.29-1.109,0.85v0.04c0,0.489,0.22,0.619,0.72,0.619c0.36,0,0.729-0.12,1.02-0.279
				V316.749z"/>
		</g>
		<g enable-background="new    ">
			<path fill="#5BA4C2" d="M393.908,328.869h-3.258v0.029c0,0.58,0.24,1.27,1.2,1.27c0.729,0,1.419-0.06,1.839-0.1
				c0.01,0,0.02,0,0.03,0c0.1,0,0.18,0.05,0.18,0.149v0.66c0,0.16-0.03,0.229-0.21,0.26c-0.65,0.12-1.04,0.17-1.939,0.17
				c-1,0-2.419-0.54-2.419-2.509v-0.739c0-1.56,0.87-2.539,2.399-2.539c1.539,0,2.379,1.05,2.379,2.539v0.56
				C394.108,328.779,394.048,328.869,393.908,328.869z M392.778,327.889c0-0.78-0.43-1.229-1.049-1.229s-1.069,0.439-1.069,1.229
				v0.04h2.119V327.889z"/>
			<path fill="#5BA4C2" d="M396.419,331.227h-0.93c-0.11,0-0.2-0.1-0.2-0.21v-7.196c0-0.109,0.09-0.199,0.2-0.199h0.93
				c0.11,0,0.19,0.09,0.19,0.199v7.196C396.609,331.128,396.529,331.227,396.419,331.227z"/>
			<path fill="#5BA4C2" d="M403.029,331.307c-1.489,0-2.619-0.92-2.619-3.089v-1.149c0-2.408,0.939-3.348,2.769-3.348
				c0.87,0,1.519,0.12,1.849,0.189c0.14,0.03,0.229,0.08,0.229,0.21v0.62c0,0.14-0.08,0.21-0.189,0.21c-0.01,0-0.03,0-0.04,0
				c-0.38-0.061-1.25-0.13-1.849-0.13c-1.009,0-1.379,0.449-1.409,1.818c0.32-0.06,0.85-0.109,1.389-0.109
				c1.299,0,2.449,0.56,2.449,2.198v0.101C405.607,330.307,404.678,331.307,403.029,331.307z M404.248,328.728
				c0-0.939-0.64-1.188-1.369-1.188c-0.29,0-0.81,0.05-1.109,0.109v0.569c0,1.67,0.53,2.01,1.259,2.01c0.68,0,1.219-0.3,1.219-1.399
				V328.728z"/>
			<path fill="#5BA4C2" d="M409.259,331.307c-1.619,0-2.609-0.93-2.609-3.418v-0.74c0-2.488,0.99-3.428,2.609-3.428
				s2.608,0.939,2.608,3.428v0.74C411.867,330.378,410.878,331.307,409.259,331.307z M410.478,327.149
				c0-1.809-0.53-2.299-1.219-2.299c-0.69,0-1.22,0.49-1.22,2.299v0.74c0,1.809,0.53,2.288,1.22,2.288
				c0.689,0,1.219-0.479,1.219-2.288V327.149z"/>
			<path fill="#5BA4C2" d="M414.239,327.919c-0.899,0-1.429-0.539-1.429-1.679v-0.819c0-1.14,0.53-1.669,1.429-1.669
				s1.419,0.529,1.419,1.669v0.819C415.658,327.38,415.139,327.919,414.239,327.919z M414.809,325.421c0-0.71-0.209-0.93-0.569-0.93
				s-0.58,0.22-0.58,0.93v0.819c0,0.71,0.22,0.939,0.58,0.939s0.569-0.229,0.569-0.939V325.421z M419.106,324.002l-4.167,7.046
				c-0.08,0.14-0.12,0.21-0.23,0.21h-0.84c-0.07,0-0.1-0.04-0.1-0.09c0-0.04,0.01-0.08,0.04-0.12l4.167-7.046
				c0.09-0.15,0.13-0.2,0.24-0.2h0.84c0.06,0,0.09,0.03,0.09,0.08C419.146,323.911,419.136,323.951,419.106,324.002z
				 M418.707,331.287c-0.899,0-1.429-0.539-1.429-1.679v-0.819c0-1.14,0.53-1.68,1.429-1.68c0.9,0,1.419,0.54,1.419,1.68v0.819
				C420.126,330.748,419.606,331.287,418.707,331.287z M419.276,328.789c0-0.71-0.21-0.93-0.57-0.93s-0.58,0.22-0.58,0.93v0.819
				c0,0.71,0.22,0.93,0.58,0.93s0.57-0.22,0.57-0.93V328.789z"/>
			<path fill="#5BA4C2" d="M427.867,331.048c-0.62,0.16-1.369,0.26-2.009,0.26c-1.609,0-2.389-0.949-2.389-2.509v-0.77
				c0-1.56,0.78-2.509,2.389-2.509c0.24,0,0.59,0.021,0.959,0.07v-1.77c0-0.109,0.09-0.199,0.2-0.199h0.92
				c0.11,0,0.2,0.09,0.2,0.199v6.956C428.137,330.927,428.097,330.987,427.867,331.048z M426.818,326.67
				c-0.28-0.04-0.72-0.07-0.959-0.07c-0.859,0-1.069,0.61-1.069,1.43v0.77c0,0.819,0.21,1.43,1.069,1.43
				c0.36,0,0.77-0.03,0.959-0.07V326.67z"/>
			<path fill="#5BA4C2" d="M433.847,328.869h-3.258v0.029c0,0.58,0.24,1.27,1.2,1.27c0.729,0,1.419-0.06,1.839-0.1
				c0.01,0,0.02,0,0.03,0c0.1,0,0.18,0.05,0.18,0.149v0.66c0,0.16-0.03,0.229-0.21,0.26c-0.65,0.12-1.04,0.17-1.939,0.17
				c-1,0-2.419-0.54-2.419-2.509v-0.739c0-1.56,0.87-2.539,2.399-2.539c1.539,0,2.379,1.05,2.379,2.539v0.56
				C434.047,328.779,433.987,328.869,433.847,328.869z M432.718,327.889c0-0.78-0.43-1.229-1.049-1.229s-1.069,0.439-1.069,1.229
				v0.04h2.119V327.889z"/>
			<path fill="#5BA4C2" d="M436.359,331.227h-0.93c-0.11,0-0.2-0.1-0.2-0.21v-7.196c0-0.109,0.09-0.199,0.2-0.199h0.93
				c0.11,0,0.19,0.09,0.19,0.199v7.196C436.549,331.128,436.469,331.227,436.359,331.227z"/>
			<path fill="#5BA4C2" d="M442.678,331.307c-0.24,0-0.589-0.021-0.959-0.07v1.77c0,0.109-0.09,0.199-0.2,0.199H440.6
				c-0.11,0-0.2-0.09-0.2-0.199v-6.956c0-0.15,0.04-0.21,0.27-0.271c0.62-0.159,1.369-0.26,2.009-0.26
				c1.609,0,2.389,0.949,2.389,2.509v0.77C445.067,330.358,444.288,331.307,442.678,331.307z M443.748,328.029
				c0-0.819-0.21-1.43-1.07-1.43c-0.36,0-0.77,0.03-0.959,0.07v3.488c0.28,0.04,0.72,0.07,0.959,0.07c0.86,0,1.07-0.61,1.07-1.43
				V328.029z"/>
			<path fill="#5BA4C2" d="M450.577,328.869h-3.258v0.029c0,0.58,0.24,1.27,1.2,1.27c0.729,0,1.419-0.06,1.839-0.1
				c0.01,0,0.02,0,0.03,0c0.1,0,0.18,0.05,0.18,0.149v0.66c0,0.16-0.03,0.229-0.21,0.26c-0.65,0.12-1.04,0.17-1.939,0.17
				c-1,0-2.419-0.54-2.419-2.509v-0.739c0-1.56,0.87-2.539,2.399-2.539c1.539,0,2.379,1.05,2.379,2.539v0.56
				C450.777,328.779,450.717,328.869,450.577,328.869z M449.447,327.889c0-0.78-0.43-1.229-1.049-1.229s-1.069,0.439-1.069,1.229
				v0.04h2.119V327.889z"/>
			<path fill="#5BA4C2" d="M453.738,331.307c-0.39,0-1.229-0.05-1.789-0.2c-0.12-0.03-0.19-0.109-0.19-0.229v-0.6
				c0-0.08,0.07-0.16,0.17-0.16c0.02,0,0.03,0,0.04,0c0.48,0.06,1.379,0.11,1.679,0.11c0.62,0,0.709-0.21,0.709-0.48
				c0-0.189-0.12-0.31-0.439-0.51l-1.37-0.839c-0.489-0.3-0.839-0.8-0.839-1.38c0-0.999,0.63-1.499,1.899-1.499
				c0.81,0,1.27,0.09,1.779,0.2c0.12,0.03,0.18,0.109,0.18,0.229v0.58c0,0.12-0.06,0.189-0.16,0.189c-0.02,0-0.03,0-0.04,0
				c-0.28-0.04-1.08-0.12-1.649-0.12c-0.479,0-0.689,0.11-0.689,0.42c0,0.16,0.15,0.26,0.4,0.41l1.309,0.8
				c0.839,0.51,0.959,1.009,0.959,1.519C455.697,330.618,455.048,331.307,453.738,331.307z"/>
			<path fill="#5BA4C2" d="M459.018,331.307c-1.569,0-2.389-1.06-2.389-2.488v-0.81c0-1.43,0.82-2.489,2.389-2.489
				c1.569,0,2.389,1.06,2.389,2.489v0.81C461.407,330.248,460.587,331.307,459.018,331.307z M460.087,328.01
				c0-0.82-0.37-1.35-1.069-1.35c-0.7,0-1.07,0.529-1.07,1.35v0.81c0,0.819,0.37,1.349,1.07,1.349c0.699,0,1.069-0.529,1.069-1.349
				V328.01z"/>
			<path fill="#5BA4C2" d="M468.407,331.177c-0.229,0.06-0.679,0.13-1.289,0.13c-1.299,0-2.279-0.8-2.279-2.429v-0.93
				c0-1.629,0.979-2.429,2.279-2.429c0.61,0,1.06,0.07,1.289,0.13c0.17,0.04,0.21,0.101,0.21,0.26v0.65c0,0.1-0.08,0.149-0.18,0.149
				c-0.01,0-0.02,0-0.03,0c-0.399-0.05-0.64-0.07-1.289-0.07c-0.47,0-0.959,0.271-0.959,1.31v0.93c0,1.039,0.49,1.31,0.959,1.31
				c0.649,0,0.89-0.021,1.289-0.07c0.01,0,0.02,0,0.03,0c0.1,0,0.18,0.05,0.18,0.15v0.649
				C468.617,331.077,468.577,331.137,468.407,331.177z"/>
			<path fill="#5BA4C2" d="M471.788,331.307c-1.569,0-2.389-1.06-2.389-2.488v-0.81c0-1.43,0.819-2.489,2.389-2.489
				c1.569,0,2.389,1.06,2.389,2.489v0.81C474.177,330.248,473.357,331.307,471.788,331.307z M472.857,328.01
				c0-0.82-0.37-1.35-1.069-1.35c-0.7,0-1.07,0.529-1.07,1.35v0.81c0,0.819,0.37,1.349,1.07,1.349c0.699,0,1.069-0.529,1.069-1.349
				V328.01z"/>
			<path fill="#5BA4C2" d="M478.007,326.639c-0.54,0-0.959,0.141-1.379,0.36v4.018c0,0.11-0.09,0.21-0.2,0.21h-0.919
				c-0.11,0-0.2-0.1-0.2-0.21v-5.228c0-0.109,0.09-0.199,0.2-0.199h0.87c0.11,0,0.2,0.09,0.2,0.199V326
				c0.49-0.379,1.029-0.479,1.429-0.479c0.11,0,0.2,0.09,0.2,0.2v0.72C478.207,326.55,478.117,326.639,478.007,326.639z"/>
			<path fill="#5BA4C2" d="M481.337,331.307c-0.24,0-0.589-0.021-0.959-0.07v1.77c0,0.109-0.09,0.199-0.2,0.199h-0.919
				c-0.11,0-0.2-0.09-0.2-0.199v-6.956c0-0.15,0.04-0.21,0.27-0.271c0.62-0.159,1.369-0.26,2.009-0.26
				c1.609,0,2.389,0.949,2.389,2.509v0.77C483.726,330.358,482.947,331.307,481.337,331.307z M482.407,328.029
				c0-0.819-0.21-1.43-1.07-1.43c-0.36,0-0.77,0.03-0.959,0.07v3.488c0.28,0.04,0.72,0.07,0.959,0.07c0.86,0,1.07-0.61,1.07-1.43
				V328.029z"/>
			<path fill="#5BA4C2" d="M487.048,331.307c-1.569,0-2.389-1.06-2.389-2.488v-0.81c0-1.43,0.819-2.489,2.389-2.489
				c1.569,0,2.389,1.06,2.389,2.489v0.81C489.437,330.248,488.617,331.307,487.048,331.307z M488.117,328.01
				c0-0.82-0.37-1.35-1.069-1.35c-0.7,0-1.07,0.529-1.07,1.35v0.81c0,0.819,0.37,1.349,1.07,1.349c0.699,0,1.069-0.529,1.069-1.349
				V328.01z"/>
			<path fill="#5BA4C2" d="M493.267,326.639c-0.54,0-0.959,0.141-1.379,0.36v4.018c0,0.11-0.09,0.21-0.2,0.21h-0.919
				c-0.11,0-0.2-0.1-0.2-0.21v-5.228c0-0.109,0.09-0.199,0.2-0.199h0.87c0.11,0,0.2,0.09,0.2,0.199V326
				c0.49-0.379,1.029-0.479,1.429-0.479c0.11,0,0.2,0.09,0.2,0.2v0.72C493.467,326.55,493.377,326.639,493.267,326.639z"/>
			<path fill="#5BA4C2" d="M498.057,331.227h-0.85c-0.11,0-0.2-0.09-0.2-0.2v-0.159c-0.46,0.279-0.93,0.439-1.409,0.439
				c-0.83,0-1.729-0.32-1.729-1.669v-0.04c0-1.14,0.699-1.729,2.438-1.729h0.63v-0.439c0-0.649-0.29-0.81-0.88-0.81
				c-0.64,0-1.299,0.04-1.629,0.08c-0.02,0-0.04,0-0.05,0c-0.1,0-0.18-0.03-0.18-0.17v-0.64c0-0.11,0.06-0.18,0.19-0.21
				c0.4-0.08,0.979-0.16,1.669-0.16c1.419,0,2.199,0.63,2.199,1.909v3.598C498.256,331.137,498.167,331.227,498.057,331.227z
				 M496.938,328.749h-0.63c-0.91,0-1.109,0.29-1.109,0.85v0.04c0,0.489,0.22,0.619,0.72,0.619c0.36,0,0.729-0.12,1.02-0.279
				V328.749z"/>
			<path fill="#5BA4C2" d="M500.738,331.227h-0.93c-0.11,0-0.2-0.1-0.2-0.21v-7.196c0-0.109,0.09-0.199,0.2-0.199h0.93
				c0.11,0,0.19,0.09,0.19,0.199v7.196C500.928,331.128,500.848,331.227,500.738,331.227z"/>
		</g>
	</g>
</g>
<g id="Miscelaneas">
	<g>
		<g>
			<path fill="none" stroke="#5BA4C2" stroke-width="0.75" stroke-miterlimit="10" d="M640.3,654c0,0,0-14.3,0-19.3
				c0-3.1,1-4.1,3.7-4.1s118.9,0,118.9,0c3,0,3.8-1.4,3.8-5c0-3.4-0.3-9.3-0.3-13c0-3.5,0.899-5.4,3.3-6v-0.2
				c-2.4-0.7-3.3-2.4-3.3-6c0-3.8,0.3-6.6,0.3-10"/>
		</g>
		<g>
			<path fill="none" stroke="#5BA4C2" stroke-width="0.75" stroke-miterlimit="10" d="M513,590.2c0,3.4,0.3,6.3,0.3,10
				c0,3.601-0.899,5.4-3.3,6v0.2c2.4,0.7,3.3,2.5,3.3,6c0,3.8-0.3,9.6-0.3,13c0,3.6,0.8,5,3.8,5c0,0,117.2,0,119.9,0s3.7,1,3.7,4.1
				c0,5,0,19.301,0,19.301"/>
		</g>
	</g>
	<g>
		<g>
			<path fill="#5BA4C2" d="M643.8,653.9L643.8,653.9l-3.5-6.9l0,0l0,0l0,0l0,0l-3.7,6.801l0,0c-0.3,0.6-0.5,1.3-0.6,2
				c0,2.3,1.8,4.1,4.1,4.199c2.301,0,4.101-1.8,4.2-4.1C644.3,655.2,644.1,654.5,643.8,653.9z"/>
			<g>
				<g>
					<path fill="#72ADC8" d="M639,659C638.9,659,638.9,659,639,659c-2.1-0.399-2.4-2.6-2.3-3.699c0-0.2,0.2-0.301,0.399-0.301
						c0.2,0,0.301,0.2,0.301,0.4c0,0.1-0.301,2.5,1.6,2.9c0.2,0,0.3,0.2,0.3,0.399C639.3,658.9,639.1,659,639,659z"/>
				</g>
			</g>
		</g>
		<path fill="#72ADC8" d="M644.3,655.9c0-0.7-0.2-1.4-0.5-2l0,0l-3.5-6.9l0,0l0,0l0,0v13C642.5,659.9,644.3,658.2,644.3,655.9z"/>
		<g>
			<g>
				<path fill="#E2D4D5" d="M641.9,653.4l-0.801-2c-0.1-0.1-0.1-0.4,0-0.4c0.101,0,0.301,0.101,0.301,0.301l1,1.899
					c0.1,0.101,0,0.4-0.101,0.5C642.2,653.7,642,653.6,641.9,653.4z"/>
			</g>
			<ellipse fill="#E2D4D5" cx="642.582" cy="654.281" rx="0.4" ry="0.4"/>
		</g>
	</g>
	<g>
		<g>
			<path fill="#5BA4C2" d="M644,665.9L644,665.9l-1.9-3.8l0,0l0,0l0,0l0,0l-2,3.7l0,0c-0.199,0.3-0.3,0.7-0.3,1.1
				c0,1.3,1,2.3,2.2,2.3c1.3,0,2.3-1,2.3-2.2C644.3,666.6,644.2,666.2,644,665.9z"/>
			<g>
				<g>
					<path fill="#72ADC8" d="M641.3,668.7L641.3,668.7c-1.2-0.2-1.3-1.399-1.3-2c0-0.1,0.1-0.2,0.2-0.2c0.1,0,0.2,0.101,0.2,0.2
						c0,0.101-0.101,1.4,0.899,1.601c0.101,0,0.2,0.1,0.2,0.199C641.5,668.7,641.4,668.7,641.3,668.7z"/>
				</g>
			</g>
		</g>
		<path fill="#72ADC8" d="M644.3,667c0-0.399-0.1-0.8-0.3-1.1l0,0l-1.9-3.8l0,0l0,0l0,0v7.2C643.3,669.2,644.3,668.2,644.3,667z"/>
		<g>
			<g>
				<path fill="#E2D4D5" d="M643,665.6l-0.4-1.101c0-0.1-0.1-0.199,0-0.199c0.101,0,0.2,0.1,0.2,0.1l0.5,1.1
					c0,0.101,0,0.2-0.1,0.301C643.1,665.801,643,665.7,643,665.6z"/>
			</g>
			<ellipse fill="#E2D4D5" cx="643.405" cy="666.101" rx="0.2" ry="0.2"/>
		</g>
	</g>
</g>
</svg>
