<?xml version="1.0" encoding="utf-8"?>
<!-- Generator: Adobe Illustrator 16.0.0, SVG Export Plug-In . SVG Version: 6.00 Build 0)  -->
<!DOCTYPE svg PUBLIC "-//W3C//DTD SVG 1.1//EN" "http://www.w3.org/Graphics/SVG/1.1/DTD/svg11.dtd">
<svg version="1.1" id="Layer_1" xmlns="http://www.w3.org/2000/svg" xmlns:xlink="http://www.w3.org/1999/xlink" x="0px" y="0px"
	 width="1280px" height="700px" viewBox="0 0 1280 700" enable-background="new 0 0 1280 700" xml:space="preserve">
<g id="Miscelaneas">
	<g>
		<g>
			<g>
				<path fill="none" stroke="#5BA4C2" stroke-width="0.75" stroke-miterlimit="10" d="M640.3,654c0,0,0-14.3,0-19.3
					c0-3.1,1-4.1,3.7-4.1s92.9,0,92.9,0c3,0,3.8-1.4,3.8-5c0-3.4-0.3-9.3-0.3-13c0-3.5,0.899-5.4,3.3-6v-0.2c-2.4-0.7-3.3-2.4-3.3-6
					c0-3.8,0.3-6.6,0.3-10"/>
			</g>
			<g>
				<path fill="none" stroke="#5BA4C2" stroke-width="0.75" stroke-miterlimit="10" d="M537,590.2c0,3.4,0.3,6.3,0.3,10
					c0,3.601-0.899,5.4-3.3,6v0.2c2.4,0.7,3.3,2.5,3.3,6c0,3.8-0.3,9.6-0.3,13c0,3.6,0.8,5,3.8,5c0,0,93.2,0,95.9,0s3.7,1,3.7,4.1
					c0,5,0,19.301,0,19.301"/>
			</g>
		</g>
		<g>
			<g>
				<path fill="#5BA4C2" d="M643.8,653.9L643.8,653.9l-3.5-6.9l0,0l0,0l0,0l0,0l-3.7,6.801l0,0c-0.3,0.6-0.5,1.3-0.6,2
					c0,2.3,1.8,4.1,4.1,4.199c2.301,0,4.101-1.8,4.2-4.1C644.3,655.2,644.1,654.5,643.8,653.9z"/>
				<g>
					<g>
						<path fill="#72ADC8" d="M639,659C638.9,659,638.9,659,639,659c-2.1-0.399-2.4-2.6-2.3-3.699c0-0.2,0.2-0.301,0.399-0.301
							c0.2,0,0.301,0.2,0.301,0.4c0,0.1-0.301,2.5,1.6,2.9c0.2,0,0.3,0.2,0.3,0.399C639.3,658.9,639.1,659,639,659z"/>
					</g>
				</g>
			</g>
			<path fill="#72ADC8" d="M644.3,655.9c0-0.7-0.2-1.4-0.5-2l0,0l-3.5-6.9l0,0l0,0l0,0v13C642.5,659.9,644.3,658.2,644.3,655.9z"/>
			<g>
				<g>
					<path fill="#E2D4D5" d="M641.9,653.4l-0.801-2c-0.1-0.1-0.1-0.4,0-0.4c0.101,0,0.301,0.101,0.301,0.301l1,1.899
						c0.1,0.101,0,0.4-0.101,0.5C642.2,653.7,642,653.6,641.9,653.4z"/>
				</g>
				<ellipse fill="#E2D4D5" cx="642.582" cy="654.281" rx="0.4" ry="0.4"/>
			</g>
		</g>
		<g>
			<g>
				<path fill="#5BA4C2" d="M644,665.9L644,665.9l-1.9-3.8l0,0l0,0l0,0l0,0l-2,3.7l0,0c-0.199,0.3-0.3,0.7-0.3,1.1
					c0,1.3,1,2.3,2.2,2.3c1.3,0,2.3-1,2.3-2.2C644.3,666.6,644.2,666.2,644,665.9z"/>
				<g>
					<g>
						<path fill="#72ADC8" d="M641.3,668.7L641.3,668.7c-1.2-0.2-1.3-1.399-1.3-2c0-0.1,0.1-0.2,0.2-0.2c0.1,0,0.2,0.101,0.2,0.2
							c0,0.101-0.101,1.4,0.899,1.601c0.101,0,0.2,0.1,0.2,0.199C641.5,668.7,641.4,668.7,641.3,668.7z"/>
					</g>
				</g>
			</g>
			<path fill="#72ADC8" d="M644.3,667c0-0.399-0.1-0.8-0.3-1.1l0,0l-1.9-3.8l0,0l0,0l0,0v7.2C643.3,669.2,644.3,668.2,644.3,667z"/>
			<g>
				<g>
					<path fill="#E2D4D5" d="M643,665.6l-0.4-1.101c0-0.1-0.1-0.199,0-0.199c0.101,0,0.2,0.1,0.2,0.1l0.5,1.1
						c0,0.101,0,0.2-0.1,0.301C643.1,665.801,643,665.7,643,665.6z"/>
				</g>
				<ellipse fill="#E2D4D5" cx="643.405" cy="666.101" rx="0.2" ry="0.2"/>
			</g>
		</g>
	</g>
</g>
<g enable-background="new    ">
	<path fill="#2B4E6B" d="M561.142,592.264c-1.163,0-2.409-0.112-2.983-0.21c-0.266-0.042-0.406-0.168-0.406-0.49v-9.259
		c0-0.322,0.14-0.448,0.406-0.49c0.574-0.099,1.821-0.21,2.983-0.21c2.788,0,4.469,1.471,4.469,4.426v1.807
		C565.61,590.794,563.929,592.264,561.142,592.264z M563.215,586.031c0-1.891-0.812-2.396-2.073-2.396
		c-0.35,0-0.798,0.015-0.994,0.028v6.542c0.196,0.014,0.644,0.027,0.994,0.027c1.261,0,2.073-0.504,2.073-2.396V586.031z"/>
	<path fill="#2B4E6B" d="M570.452,592.264c-2.27,0-3.516-1.415-3.516-3.642v-0.98c0-2.228,1.247-3.643,3.516-3.643
		c2.269,0,3.502,1.415,3.502,3.643v0.98C573.954,590.849,572.721,592.264,570.452,592.264z M571.698,587.642
		c0-1.135-0.434-1.709-1.247-1.709s-1.261,0.574-1.261,1.709v0.98c0,1.135,0.448,1.723,1.261,1.723s1.247-0.588,1.247-1.723V587.642
		z"/>
	<path fill="#2B4E6B" d="M578.025,592.264c-0.771,0-1.835-0.112-2.549-0.308c-0.168-0.043-0.266-0.154-0.266-0.322V590.5
		c0-0.141,0.098-0.267,0.266-0.267c0.014,0,0.042,0,0.056,0c0.757,0.099,1.933,0.196,2.381,0.196c0.672,0,0.827-0.182,0.827-0.546
		c0-0.21-0.126-0.364-0.519-0.589l-1.821-1.051c-0.784-0.448-1.247-1.162-1.247-2.072c0-1.415,0.938-2.172,2.872-2.172
		c1.106,0,1.779,0.141,2.493,0.322c0.168,0.042,0.266,0.154,0.266,0.322v1.135c0,0.168-0.098,0.266-0.238,0.266
		c-0.014,0-0.028,0-0.042,0c-0.406-0.056-1.611-0.182-2.326-0.182c-0.546,0-0.742,0.084-0.742,0.406c0,0.21,0.154,0.322,0.434,0.49
		l1.737,0.994c1.163,0.673,1.415,1.401,1.415,2.157C581.023,591.228,580.07,592.264,578.025,592.264z"/>
	<path fill="#2B4E6B" d="M594.45,582.025l-2.087,8.685c-0.322,1.345-1.345,1.555-2.311,1.555c-0.967,0-2.003-0.21-2.325-1.555
		l-2.087-8.685c0-0.028-0.014-0.042-0.014-0.07c0-0.126,0.112-0.224,0.252-0.224h1.947c0.14,0,0.252,0.111,0.28,0.252l1.751,8.082
		c0.028,0.154,0.07,0.21,0.196,0.21s0.168-0.056,0.196-0.21l1.751-8.082c0.028-0.141,0.126-0.252,0.266-0.252h1.961
		c0.14,0,0.238,0.084,0.238,0.224C594.464,581.969,594.45,581.997,594.45,582.025z"/>
	<path fill="#2B4E6B" d="M600.902,592.138h-1.569c-0.154,0-0.28-0.126-0.28-0.28v-0.224c-0.546,0.392-1.107,0.63-1.947,0.63
		c-1.219,0-2.396-0.588-2.396-2.409v-0.126c0-1.639,1.051-2.367,3.446-2.367h0.756v-0.505c0-0.798-0.392-0.966-1.051-0.966
		c-0.896,0-1.891,0.056-2.325,0.098h-0.07c-0.14,0-0.252-0.07-0.252-0.252v-1.135c0-0.154,0.098-0.266,0.266-0.308
		C596,584.168,596.98,584,597.905,584c2.017,0,3.278,0.812,3.278,2.857v5.001C601.183,592.012,601.057,592.138,600.902,592.138z
		 M598.956,588.707h-0.798c-0.98,0-1.233,0.336-1.233,1.022v0.126c0,0.588,0.294,0.7,0.882,0.7c0.42,0,0.812-0.14,1.149-0.308
		V588.707z"/>
	<path fill="#2B4E6B" d="M605.479,592.264c-0.771,0-1.835-0.112-2.549-0.308c-0.168-0.043-0.266-0.154-0.266-0.322V590.5
		c0-0.141,0.098-0.267,0.266-0.267c0.014,0,0.042,0,0.056,0c0.757,0.099,1.933,0.196,2.381,0.196c0.672,0,0.827-0.182,0.827-0.546
		c0-0.21-0.126-0.364-0.519-0.589l-1.821-1.051c-0.784-0.448-1.247-1.162-1.247-2.072c0-1.415,0.938-2.172,2.872-2.172
		c1.106,0,1.779,0.141,2.493,0.322c0.168,0.042,0.266,0.154,0.266,0.322v1.135c0,0.168-0.098,0.266-0.238,0.266
		c-0.014,0-0.028,0-0.042,0c-0.406-0.056-1.611-0.182-2.325-0.182c-0.546,0-0.742,0.084-0.742,0.406c0,0.21,0.154,0.322,0.434,0.49
		l1.737,0.994c1.163,0.673,1.415,1.401,1.415,2.157C608.477,591.228,607.524,592.264,605.479,592.264z"/>
	<path fill="#2B4E6B" d="M613.193,592.264c-2.27,0-3.516-1.415-3.516-3.642v-0.98c0-2.228,1.247-3.643,3.516-3.643
		c2.269,0,3.502,1.415,3.502,3.643v0.98C616.695,590.849,615.462,592.264,613.193,592.264z M614.44,587.642
		c0-1.135-0.434-1.709-1.247-1.709s-1.261,0.574-1.261,1.709v0.98c0,1.135,0.448,1.723,1.261,1.723s1.247-0.588,1.247-1.723V587.642
		z"/>
	<path fill="#2B4E6B" d="M620.767,592.264c-0.771,0-1.835-0.112-2.549-0.308c-0.168-0.043-0.266-0.154-0.266-0.322V590.5
		c0-0.141,0.098-0.267,0.266-0.267c0.014,0,0.042,0,0.056,0c0.757,0.099,1.933,0.196,2.381,0.196c0.672,0,0.827-0.182,0.827-0.546
		c0-0.21-0.126-0.364-0.519-0.589l-1.821-1.051c-0.784-0.448-1.247-1.162-1.247-2.072c0-1.415,0.938-2.172,2.872-2.172
		c1.106,0,1.779,0.141,2.493,0.322c0.168,0.042,0.266,0.154,0.266,0.322v1.135c0,0.168-0.098,0.266-0.238,0.266
		c-0.014,0-0.028,0-0.042,0c-0.406-0.056-1.611-0.182-2.326-0.182c-0.546,0-0.742,0.084-0.742,0.406c0,0.21,0.154,0.322,0.434,0.49
		l1.737,0.994c1.163,0.673,1.415,1.401,1.415,2.157C623.764,591.228,622.812,592.264,620.767,592.264z"/>
</g>
<g enable-background="new    ">
	<path fill="#5BA4C2" d="M632.675,592.251c-0.336,0-0.826-0.028-1.345-0.099v2.479c0,0.154-0.126,0.28-0.28,0.28h-1.289
		c-0.154,0-0.28-0.126-0.28-0.28v-9.749c0-0.21,0.056-0.294,0.378-0.378c0.869-0.225,1.919-0.364,2.815-0.364
		c2.255,0,3.348,1.33,3.348,3.516v1.078C636.023,590.92,634.931,592.251,632.675,592.251z M634.174,587.656
		c0-1.148-0.294-2.003-1.499-2.003c-0.504,0-1.079,0.042-1.345,0.098v4.889c0.393,0.057,1.009,0.099,1.345,0.099
		c1.205,0,1.499-0.854,1.499-2.004V587.656z"/>
	<path fill="#5BA4C2" d="M640.67,592.251c-2.2,0-3.348-1.485-3.348-3.488v-1.135c0-2.003,1.148-3.487,3.348-3.487
		c2.199,0,3.348,1.484,3.348,3.487v1.135C644.018,590.765,642.869,592.251,640.67,592.251z M642.168,587.628
		c0-1.148-0.518-1.891-1.498-1.891c-0.981,0-1.499,0.742-1.499,1.891v1.135c0,1.148,0.518,1.892,1.499,1.892
		c0.98,0,1.498-0.743,1.498-1.892V587.628z"/>
	<path fill="#5BA4C2" d="M649.377,585.709c-0.756,0-1.344,0.196-1.933,0.505v5.631c0,0.154-0.126,0.294-0.28,0.294h-1.289
		c-0.153,0-0.279-0.14-0.279-0.294v-7.326c0-0.154,0.126-0.28,0.279-0.28h1.219c0.154,0,0.281,0.126,0.281,0.28v0.294
		c0.686-0.532,1.442-0.672,2.002-0.672c0.154,0,0.281,0.126,0.281,0.28v1.008C649.658,585.583,649.531,585.709,649.377,585.709z"/>
	<path fill="#5BA4C2" d="M655.998,592.138h-1.303c-0.154,0-0.279-0.14-0.279-0.294v-10.086c0-0.153,0.125-0.28,0.279-0.28h1.303
		c0.154,0,0.267,0.127,0.267,0.28v10.086C656.265,591.999,656.152,592.138,655.998,592.138z"/>
	<path fill="#5BA4C2" d="M663.729,592.138h-1.19c-0.154,0-0.28-0.126-0.28-0.28v-0.224c-0.645,0.392-1.303,0.616-1.975,0.616
		c-1.163,0-2.424-0.448-2.424-2.34v-0.056c0-1.597,0.98-2.424,3.418-2.424h0.883v-0.616c0-0.91-0.406-1.134-1.232-1.134
		c-0.896,0-1.822,0.056-2.283,0.111c-0.029,0-0.057,0-0.07,0c-0.141,0-0.252-0.042-0.252-0.238v-0.896
		c0-0.153,0.084-0.252,0.266-0.294c0.561-0.112,1.373-0.224,2.34-0.224c1.988,0,3.081,0.882,3.081,2.675v5.043
		C664.009,592.012,663.883,592.138,663.729,592.138z M662.16,588.665h-0.883c-1.275,0-1.555,0.406-1.555,1.19v0.056
		c0,0.687,0.309,0.869,1.008,0.869c0.505,0,1.023-0.168,1.43-0.393V588.665z"/>
	<path fill="#5BA4C2" d="M679.103,592.138h-1.289c-0.153,0-0.28-0.14-0.28-0.294v-4.763c0-1.079-0.224-1.358-1.008-1.358
		c-0.267,0-0.799,0.084-1.303,0.35c0.041,0.309,0.056,0.658,0.056,1.009v4.763c0,0.154-0.126,0.294-0.28,0.294h-1.289
		c-0.154,0-0.279-0.14-0.279-0.294v-4.763c0-1.079-0.183-1.358-0.967-1.358c-0.295,0-0.715,0.153-1.289,0.462v5.659
		c0,0.154-0.126,0.294-0.279,0.294h-1.289c-0.154,0-0.28-0.14-0.28-0.294v-7.326c0-0.154,0.126-0.28,0.28-0.28h1.219
		c0.154,0,0.279,0.126,0.279,0.28v0.294c0.589-0.378,1.178-0.672,2.004-0.672c0.798,0,1.316,0.238,1.639,0.63
		c0.715-0.392,1.345-0.63,2.311-0.63c1.906,0,2.326,1.303,2.326,2.941v4.763C679.383,591.999,679.256,592.138,679.103,592.138z"/>
	<path fill="#5BA4C2" d="M686.771,592.138h-1.189c-0.154,0-0.281-0.126-0.281-0.28v-0.224c-0.644,0.392-1.303,0.616-1.975,0.616
		c-1.162,0-2.424-0.448-2.424-2.34v-0.056c0-1.597,0.98-2.424,3.418-2.424h0.883v-0.616c0-0.91-0.406-1.134-1.232-1.134
		c-0.896,0-1.821,0.056-2.283,0.111c-0.028,0-0.057,0-0.07,0c-0.141,0-0.252-0.042-0.252-0.238v-0.896
		c0-0.153,0.084-0.252,0.266-0.294c0.561-0.112,1.373-0.224,2.34-0.224c1.988,0,3.082,0.882,3.082,2.675v5.043
		C687.053,592.012,686.926,592.138,686.771,592.138z M685.203,588.665h-0.883c-1.274,0-1.555,0.406-1.555,1.19v0.056
		c0,0.687,0.309,0.869,1.009,0.869c0.505,0,1.022-0.168,1.429-0.393V588.665z"/>
	<path fill="#5BA4C2" d="M695.061,592.138h-1.289c-0.154,0-0.279-0.14-0.279-0.294v-4.566c0-1.219-0.113-1.569-1.191-1.569
		c-0.477,0-0.994,0.196-1.583,0.505v5.631c0,0.154-0.126,0.294-0.28,0.294h-1.289c-0.153,0-0.279-0.14-0.279-0.294v-7.326
		c0-0.154,0.126-0.28,0.279-0.28h1.219c0.154,0,0.281,0.126,0.281,0.28v0.294c0.812-0.518,1.344-0.672,2.269-0.672
		c2.017,0,2.423,1.358,2.423,3.138v4.566C695.34,591.999,695.215,592.138,695.061,592.138z M693.155,583.355
		c-0.308,0-0.7-0.111-0.98-0.321l-0.616-0.463c-0.238-0.182-0.42-0.294-0.588-0.294c-0.225,0-0.393,0.098-0.393,0.477v0.294
		c0,0.154-0.057,0.224-0.196,0.224h-0.798c-0.141,0-0.197-0.069-0.197-0.224v-0.294c0-1.121,0.604-1.569,1.569-1.569
		c0.308,0,0.687,0.099,0.967,0.309l0.616,0.462c0.238,0.183,0.42,0.28,0.588,0.28c0.238,0,0.393-0.098,0.393-0.462v-0.295
		c0-0.153,0.057-0.224,0.196-0.224h0.798c0.141,0,0.196,0.07,0.196,0.224v0.309C694.71,582.922,694.122,583.355,693.155,583.355z"/>
	<path fill="#5BA4C2" d="M702.732,592.138h-1.191c-0.154,0-0.279-0.126-0.279-0.28v-0.224c-0.645,0.392-1.303,0.616-1.976,0.616
		c-1.163,0-2.423-0.448-2.423-2.34v-0.056c0-1.597,0.98-2.424,3.418-2.424h0.882v-0.616c0-0.91-0.406-1.134-1.232-1.134
		c-0.896,0-1.821,0.056-2.283,0.111c-0.028,0-0.056,0-0.07,0c-0.14,0-0.252-0.042-0.252-0.238v-0.896
		c0-0.153,0.084-0.252,0.267-0.294c0.56-0.112,1.372-0.224,2.339-0.224c1.989,0,3.081,0.882,3.081,2.675v5.043
		C703.012,592.012,702.887,592.138,702.732,592.138z M701.163,588.665h-0.882c-1.275,0-1.555,0.406-1.555,1.19v0.056
		c0,0.687,0.308,0.869,1.008,0.869c0.504,0,1.022-0.168,1.429-0.393V588.665z"/>
	<path fill="#5BA4C2" d="M711.021,592.138h-1.289c-0.153,0-0.28-0.14-0.28-0.294v-4.566c0-1.219-0.111-1.569-1.19-1.569
		c-0.476,0-0.995,0.196-1.583,0.505v5.631c0,0.154-0.126,0.294-0.279,0.294h-1.289c-0.154,0-0.28-0.14-0.28-0.294v-7.326
		c0-0.154,0.126-0.28,0.28-0.28h1.219c0.154,0,0.279,0.126,0.279,0.28v0.294c0.812-0.518,1.346-0.672,2.27-0.672
		c2.018,0,2.424,1.358,2.424,3.138v4.566C711.301,591.999,711.174,592.138,711.021,592.138z"/>
	<path fill="#5BA4C2" d="M718.691,592.138h-1.19c-0.154,0-0.28-0.126-0.28-0.28v-0.224c-0.645,0.392-1.303,0.616-1.975,0.616
		c-1.163,0-2.424-0.448-2.424-2.34v-0.056c0-1.597,0.98-2.424,3.418-2.424h0.883v-0.616c0-0.91-0.406-1.134-1.232-1.134
		c-0.896,0-1.822,0.056-2.283,0.111c-0.029,0-0.057,0-0.07,0c-0.141,0-0.252-0.042-0.252-0.238v-0.896
		c0-0.153,0.084-0.252,0.266-0.294c0.561-0.112,1.373-0.224,2.34-0.224c1.988,0,3.081,0.882,3.081,2.675v5.043
		C718.972,592.012,718.846,592.138,718.691,592.138z M717.123,588.665h-0.883c-1.275,0-1.555,0.406-1.555,1.19v0.056
		c0,0.687,0.309,0.869,1.008,0.869c0.505,0,1.023-0.168,1.43-0.393V588.665z"/>
</g>
<g enable-background="new    ">
	<path fill="#5BA4C2" d="M586.957,610.138h-1.19c-0.154,0-0.28-0.126-0.28-0.28v-0.224c-0.645,0.392-1.303,0.616-1.975,0.616
		c-1.163,0-2.423-0.448-2.423-2.34v-0.056c0-1.597,0.98-2.424,3.418-2.424h0.882v-0.616c0-0.91-0.406-1.134-1.232-1.134
		c-0.896,0-1.821,0.056-2.283,0.111c-0.028,0-0.056,0-0.07,0c-0.14,0-0.252-0.042-0.252-0.238v-0.896
		c0-0.153,0.084-0.252,0.266-0.294c0.561-0.112,1.373-0.224,2.339-0.224c1.989,0,3.082,0.882,3.082,2.675v5.043
		C587.237,610.012,587.111,610.138,586.957,610.138z M585.388,606.665h-0.882c-1.275,0-1.555,0.406-1.555,1.19v0.056
		c0,0.687,0.308,0.869,1.008,0.869c0.504,0,1.022-0.168,1.429-0.393V606.665z"/>
	<path fill="#5BA4C2" d="M593.774,610.068c-0.322,0.084-0.952,0.183-1.807,0.183c-1.821,0-3.194-1.121-3.194-3.404v-1.303
		c0-2.283,1.373-3.403,3.194-3.403c0.854,0,1.485,0.098,1.807,0.182c0.238,0.057,0.294,0.141,0.294,0.364v0.91
		c0,0.141-0.112,0.211-0.252,0.211c-0.014,0-0.028,0-0.042,0c-0.56-0.07-0.896-0.099-1.807-0.099c-0.659,0-1.345,0.379-1.345,1.835
		v1.303c0,1.457,0.686,1.835,1.345,1.835c0.91,0,1.247-0.027,1.807-0.098c0.014,0,0.028,0,0.042,0c0.14,0,0.252,0.07,0.252,0.21
		v0.91C594.069,609.928,594.013,610.012,593.774,610.068z"/>
	<path fill="#5BA4C2" d="M599.752,610.152c-0.336,0.057-0.644,0.099-0.953,0.099c-1.583,0-2.227-0.351-2.227-2.228v-4.398
		l-1.316-0.196c-0.154-0.027-0.28-0.126-0.28-0.28v-0.63c0-0.154,0.126-0.28,0.28-0.28h1.316v-1.148c0-0.154,0.126-0.252,0.28-0.28
		l1.303-0.224c0.014,0,0.042,0,0.056,0c0.126,0,0.224,0.069,0.224,0.21v1.442h1.26c0.154,0,0.28,0.126,0.28,0.28v0.826
		c0,0.154-0.126,0.28-0.28,0.28h-1.26v4.398c0,0.7,0.042,0.784,0.546,0.784h0.743c0.182,0,0.294,0.07,0.294,0.21v0.883
		C600.018,610.041,599.934,610.125,599.752,610.152z"/>
	<path fill="#5BA4C2" d="M602.929,601.187h-1.359c-0.154,0-0.294-0.126-0.294-0.28v-1.232c0-0.154,0.14-0.28,0.294-0.28h1.359
		c0.154,0,0.28,0.126,0.28,0.28v1.232C603.209,601.061,603.083,601.187,602.929,601.187z M602.887,610.138h-1.289
		c-0.154,0-0.28-0.14-0.28-0.294v-7.326c0-0.154,0.126-0.28,0.28-0.28h1.289c0.154,0,0.28,0.126,0.28,0.28v7.326
		C603.167,609.999,603.041,610.138,602.887,610.138z"/>
	<path fill="#5BA4C2" d="M611.485,602.56l-1.765,6.373c-0.28,1.037-1.037,1.317-1.751,1.317s-1.457-0.28-1.737-1.317l-1.765-6.373
		c-0.014-0.028-0.014-0.07-0.014-0.098c0-0.126,0.098-0.225,0.225-0.225h1.4c0.126,0,0.238,0.099,0.28,0.28l1.345,5.869
		c0.056,0.267,0.154,0.351,0.266,0.351c0.112,0,0.21-0.084,0.266-0.351l1.345-5.869c0.042-0.182,0.168-0.28,0.294-0.28h1.4
		c0.126,0,0.224,0.099,0.224,0.225C611.499,602.49,611.499,602.532,611.485,602.56z"/>
	<path fill="#5BA4C2" d="M618.009,610.138h-1.19c-0.154,0-0.28-0.126-0.28-0.28v-0.224c-0.645,0.392-1.303,0.616-1.975,0.616
		c-1.163,0-2.423-0.448-2.423-2.34v-0.056c0-1.597,0.98-2.424,3.418-2.424h0.882v-0.616c0-0.91-0.406-1.134-1.232-1.134
		c-0.896,0-1.821,0.056-2.283,0.111c-0.028,0-0.056,0-0.07,0c-0.14,0-0.252-0.042-0.252-0.238v-0.896
		c0-0.153,0.084-0.252,0.266-0.294c0.561-0.112,1.373-0.224,2.339-0.224c1.989,0,3.082,0.882,3.082,2.675v5.043
		C618.289,610.012,618.163,610.138,618.009,610.138z M616.44,606.665h-0.882c-1.275,0-1.555,0.406-1.555,1.19v0.056
		c0,0.687,0.308,0.869,1.008,0.869c0.504,0,1.022-0.168,1.429-0.393V606.665z"/>
	<path fill="#5BA4C2" d="M627.752,610.152c-0.336,0.057-0.644,0.099-0.953,0.099c-1.583,0-2.227-0.351-2.227-2.228v-4.398
		l-1.316-0.196c-0.154-0.027-0.28-0.126-0.28-0.28v-0.63c0-0.154,0.126-0.28,0.28-0.28h1.316v-1.148c0-0.154,0.126-0.252,0.28-0.28
		l1.303-0.224c0.014,0,0.042,0,0.056,0c0.126,0,0.224,0.069,0.224,0.21v1.442h1.26c0.154,0,0.28,0.126,0.28,0.28v0.826
		c0,0.154-0.126,0.28-0.28,0.28h-1.26v4.398c0,0.7,0.042,0.784,0.546,0.784h0.743c0.182,0,0.294,0.07,0.294,0.21v0.883
		C628.018,610.041,627.934,610.125,627.752,610.152z"/>
	<path fill="#5BA4C2" d="M635.467,610.138h-1.289c-0.154,0-0.28-0.126-0.28-0.28v-0.322c-0.729,0.477-1.303,0.7-2.199,0.7
		c-0.701,0-1.317-0.182-1.723-0.588c-0.518-0.519-0.7-1.387-0.7-2.55v-4.566c0-0.153,0.126-0.294,0.28-0.294h1.289
		c0.154,0,0.28,0.141,0.28,0.294v4.566c0,0.701,0.056,1.107,0.322,1.345c0.196,0.169,0.435,0.253,0.869,0.253
		c0.518,0,1.19-0.351,1.583-0.561v-5.604c0-0.153,0.126-0.294,0.28-0.294h1.289c0.154,0,0.28,0.141,0.28,0.294v7.326
		C635.747,610.012,635.621,610.138,635.467,610.138z"/>
	<path fill="#5BA4C2" d="M640.127,610.251c-0.546,0-1.723-0.07-2.508-0.28c-0.168-0.042-0.266-0.154-0.266-0.322v-0.841
		c0-0.111,0.098-0.224,0.238-0.224c0.028,0,0.042,0,0.056,0c0.672,0.084,1.933,0.154,2.353,0.154c0.869,0,0.995-0.295,0.995-0.673
		c0-0.266-0.168-0.435-0.616-0.714l-1.919-1.177c-0.687-0.421-1.177-1.121-1.177-1.934c0-1.4,0.882-2.101,2.662-2.101
		c1.134,0,1.779,0.126,2.493,0.28c0.168,0.042,0.252,0.153,0.252,0.321v0.812c0,0.169-0.084,0.267-0.224,0.267
		c-0.028,0-0.042,0-0.056,0c-0.393-0.056-1.514-0.168-2.312-0.168c-0.672,0-0.966,0.154-0.966,0.588c0,0.225,0.21,0.364,0.56,0.574
		l1.835,1.121c1.177,0.714,1.345,1.415,1.345,2.129C642.872,609.284,641.962,610.251,640.127,610.251z"/>
	<path fill="#5BA4C2" d="M651.02,610.251c-2.199,0-3.348-1.485-3.348-3.488v-1.135c0-2.003,1.148-3.487,3.348-3.487
		s3.348,1.484,3.348,3.487v1.135C654.367,608.765,653.219,610.251,651.02,610.251z M652.518,605.628
		c0-1.148-0.518-1.891-1.498-1.891s-1.499,0.742-1.499,1.891v1.135c0,1.148,0.519,1.892,1.499,1.892s1.498-0.743,1.498-1.892
		V605.628z M653.12,599.436l-1.653,1.737c-0.111,0.126-0.168,0.182-0.336,0.182h-1.204c-0.084,0-0.126-0.042-0.126-0.098
		c0-0.042,0.014-0.098,0.056-0.14l1.331-1.682c0.126-0.153,0.182-0.21,0.363-0.21h1.472c0.098,0,0.153,0.042,0.153,0.099
		C653.176,599.352,653.162,599.394,653.12,599.436z"/>
	<path fill="#5BA4C2" d="M659.727,603.709c-0.756,0-1.344,0.196-1.933,0.505v5.631c0,0.154-0.126,0.294-0.28,0.294h-1.289
		c-0.153,0-0.279-0.14-0.279-0.294v-7.326c0-0.154,0.126-0.28,0.279-0.28h1.219c0.154,0,0.281,0.126,0.281,0.28v0.294
		c0.686-0.532,1.442-0.672,2.002-0.672c0.154,0,0.281,0.126,0.281,0.28v1.008C660.008,603.583,659.881,603.709,659.727,603.709z"/>
	<path fill="#5BA4C2" d="M667.583,603.512l-0.462,0.183c0.225,0.322,0.35,0.63,0.35,1.12v0.099c0,1.751-1.204,2.549-3.319,2.549
		c-0.743,0-1.247-0.126-1.526-0.238c-0.168,0.112-0.238,0.238-0.238,0.364c0,0.28,0.154,0.393,0.477,0.463l1.652,0.392
		c1.904,0.448,3.138,0.743,3.138,2.241v0.099c0,1.429-1.051,2.199-3.433,2.199c-2.269,0-3.473-0.854-3.473-2.325v-0.126
		c0-0.574,0.266-1.135,0.714-1.541c-0.392-0.294-0.63-0.784-0.63-1.289v-0.014c0-0.435,0.182-0.868,0.56-1.135
		c-0.42-0.435-0.574-0.938-0.574-1.639v-0.099c0-1.4,0.911-2.577,3.334-2.577h3.278c0.209,0,0.377,0.168,0.377,0.378v0.589
		C667.807,603.415,667.751,603.443,667.583,603.512z M665.805,610.684c0-0.308-0.183-0.49-1.653-0.84l-1.247-0.294
		c-0.21,0.294-0.35,0.476-0.35,0.98v0.126c0,0.574,0.35,0.924,1.666,0.924c1.346,0,1.584-0.294,1.584-0.798V610.684z
		 M665.65,604.844c0-0.672-0.295-1.19-1.499-1.19c-1.19,0-1.513,0.532-1.513,1.19v0.112c0,0.519,0.21,1.106,1.513,1.106
		c1.163,0,1.499-0.406,1.499-1.106V604.844z"/>
	<path fill="#5BA4C2" d="M674.68,610.138h-1.189c-0.154,0-0.281-0.126-0.281-0.28v-0.224c-0.644,0.392-1.303,0.616-1.975,0.616
		c-1.162,0-2.424-0.448-2.424-2.34v-0.056c0-1.597,0.98-2.424,3.418-2.424h0.883v-0.616c0-0.91-0.406-1.134-1.232-1.134
		c-0.896,0-1.821,0.056-2.283,0.111c-0.028,0-0.057,0-0.07,0c-0.141,0-0.252-0.042-0.252-0.238v-0.896
		c0-0.153,0.084-0.252,0.266-0.294c0.561-0.112,1.373-0.224,2.34-0.224c1.988,0,3.082,0.882,3.082,2.675v5.043
		C674.961,610.012,674.834,610.138,674.68,610.138z M673.111,606.665h-0.883c-1.274,0-1.555,0.406-1.555,1.19v0.056
		c0,0.687,0.309,0.869,1.009,0.869c0.505,0,1.022-0.168,1.429-0.393V606.665z"/>
	<path fill="#5BA4C2" d="M682.969,610.138h-1.289c-0.154,0-0.279-0.14-0.279-0.294v-4.566c0-1.219-0.113-1.569-1.191-1.569
		c-0.477,0-0.994,0.196-1.583,0.505v5.631c0,0.154-0.126,0.294-0.28,0.294h-1.289c-0.153,0-0.279-0.14-0.279-0.294v-7.326
		c0-0.154,0.126-0.28,0.279-0.28h1.219c0.154,0,0.281,0.126,0.281,0.28v0.294c0.812-0.518,1.344-0.672,2.269-0.672
		c2.017,0,2.423,1.358,2.423,3.138v4.566C683.248,609.999,683.123,610.138,682.969,610.138z"/>
	<path fill="#5BA4C2" d="M688.175,610.251c-2.199,0-3.348-1.485-3.348-3.488v-1.135c0-2.003,1.148-3.487,3.348-3.487
		s3.349,1.484,3.349,3.487v1.135C691.523,608.765,690.374,610.251,688.175,610.251z M689.674,605.628
		c0-1.148-0.519-1.891-1.499-1.891s-1.499,0.742-1.499,1.891v1.135c0,1.148,0.519,1.892,1.499,1.892s1.499-0.743,1.499-1.892
		V605.628z"/>
	<path fill="#5BA4C2" d="M695.664,610.251c-0.546,0-1.723-0.07-2.508-0.28c-0.168-0.042-0.266-0.154-0.266-0.322v-0.841
		c0-0.111,0.098-0.224,0.238-0.224c0.027,0,0.042,0,0.057,0c0.672,0.084,1.933,0.154,2.353,0.154c0.868,0,0.995-0.295,0.995-0.673
		c0-0.266-0.168-0.435-0.617-0.714l-1.918-1.177c-0.688-0.421-1.178-1.121-1.178-1.934c0-1.4,0.883-2.101,2.662-2.101
		c1.135,0,1.779,0.126,2.493,0.28c0.168,0.042,0.252,0.153,0.252,0.321v0.812c0,0.169-0.084,0.267-0.224,0.267
		c-0.028,0-0.043,0-0.057,0c-0.393-0.056-1.513-0.168-2.311-0.168c-0.673,0-0.967,0.154-0.967,0.588c0,0.225,0.21,0.364,0.561,0.574
		l1.834,1.121c1.178,0.714,1.346,1.415,1.346,2.129C698.41,609.284,697.5,610.251,695.664,610.251z"/>
</g>
</svg>
