<?xml version="1.0" encoding="utf-8"?>
<!-- Generator: Adobe Illustrator 16.0.0, SVG Export Plug-In . SVG Version: 6.00 Build 0)  -->
<!DOCTYPE svg PUBLIC "-//W3C//DTD SVG 1.1//EN" "http://www.w3.org/Graphics/SVG/1.1/DTD/svg11.dtd">
<svg version="1.1" id="Layer_1" xmlns="http://www.w3.org/2000/svg" xmlns:xlink="http://www.w3.org/1999/xlink" x="0px" y="0px"
	 width="1280px" height="700px" viewBox="0 0 1280 700" enable-background="new 0 0 1280 700" xml:space="preserve">
<g id="Miscelaneas">
	<g>
		<g>
			<g>
				<path fill="none" stroke="#5BA4C2" stroke-width="0.75" stroke-miterlimit="10" d="M640.3,654c0,0,0-14.3,0-19.3
					c0-3.1,1-4.1,3.7-4.1s136.9,0,136.9,0c3,0,3.8-1.4,3.8-5c0-3.4-0.3-9.3-0.3-13c0-3.5,0.899-5.4,3.3-6v-0.2
					c-2.4-0.7-3.3-2.4-3.3-6c0-3.8,0.3-6.6,0.3-10"/>
			</g>
			<g>
				<path fill="none" stroke="#5BA4C2" stroke-width="0.75" stroke-miterlimit="10" d="M495,590.2c0,3.4,0.3,6.3,0.3,10
					c0,3.601-0.899,5.4-3.3,6v0.2c2.4,0.7,3.3,2.5,3.3,6c0,3.8-0.3,9.6-0.3,13c0,3.6,0.8,5,3.8,5c0,0,135.2,0,137.9,0
					c2.699,0,3.7,1,3.7,4.1c0,5,0,19.301,0,19.301"/>
			</g>
		</g>
		<g>
			<g>
				<path fill="#5BA4C2" d="M643.8,653.9L643.8,653.9l-3.5-6.9l0,0l0,0l0,0l0,0l-3.7,6.801l0,0c-0.3,0.6-0.5,1.3-0.6,2
					c0,2.3,1.8,4.1,4.1,4.199c2.301,0,4.101-1.8,4.2-4.1C644.3,655.2,644.1,654.5,643.8,653.9z"/>
				<g>
					<g>
						<path fill="#72ADC8" d="M639,659C638.9,659,638.9,659,639,659c-2.1-0.399-2.4-2.6-2.3-3.699c0-0.2,0.2-0.301,0.399-0.301
							c0.2,0,0.301,0.2,0.301,0.4c0,0.1-0.301,2.5,1.6,2.9c0.2,0,0.3,0.2,0.3,0.399C639.3,658.9,639.1,659,639,659z"/>
					</g>
				</g>
			</g>
			<path fill="#72ADC8" d="M644.3,655.9c0-0.7-0.2-1.4-0.5-2l0,0l-3.5-6.9l0,0l0,0l0,0v13C642.5,659.9,644.3,658.2,644.3,655.9z"/>
			<g>
				<g>
					<path fill="#E2D4D5" d="M641.9,653.4l-0.801-2c-0.1-0.1-0.1-0.4,0-0.4c0.101,0,0.301,0.101,0.301,0.301l1,1.899
						c0.1,0.101,0,0.4-0.101,0.5C642.2,653.7,642,653.6,641.9,653.4z"/>
				</g>
				<ellipse fill="#E2D4D5" cx="642.582" cy="654.281" rx="0.4" ry="0.4"/>
			</g>
		</g>
		<g>
			<g>
				<path fill="#5BA4C2" d="M644,665.9L644,665.9l-1.9-3.8l0,0l0,0l0,0l0,0l-2,3.7l0,0c-0.199,0.3-0.3,0.7-0.3,1.1
					c0,1.3,1,2.3,2.2,2.3c1.3,0,2.3-1,2.3-2.2C644.3,666.6,644.2,666.2,644,665.9z"/>
				<g>
					<g>
						<path fill="#72ADC8" d="M641.3,668.7L641.3,668.7c-1.2-0.2-1.3-1.399-1.3-2c0-0.1,0.1-0.2,0.2-0.2c0.1,0,0.2,0.101,0.2,0.2
							c0,0.101-0.101,1.4,0.899,1.601c0.101,0,0.2,0.1,0.2,0.199C641.5,668.7,641.4,668.7,641.3,668.7z"/>
					</g>
				</g>
			</g>
			<path fill="#72ADC8" d="M644.3,667c0-0.399-0.1-0.8-0.3-1.1l0,0l-1.9-3.8l0,0l0,0l0,0v7.2C643.3,669.2,644.3,668.2,644.3,667z"/>
			<g>
				<g>
					<path fill="#E2D4D5" d="M643,665.6l-0.4-1.101c0-0.1-0.1-0.199,0-0.199c0.101,0,0.2,0.1,0.2,0.1l0.5,1.1
						c0,0.101,0,0.2-0.1,0.301C643.1,665.801,643,665.7,643,665.6z"/>
				</g>
				<ellipse fill="#E2D4D5" cx="643.391" cy="666.087" rx="0.2" ry="0.2"/>
			</g>
		</g>
	</g>
</g>
<g enable-background="new    ">
	<path fill="#5BA4C2" d="M521.677,592.054c-0.448,0.07-0.995,0.196-2.662,0.196c-1.821,0-3.235-0.49-3.235-2.872v-4.889
		c0-2.381,1.415-2.871,3.235-2.871c1.667,0,2.213,0.126,2.662,0.196c0.21,0.027,0.28,0.098,0.28,0.294v0.896
		c0,0.154-0.126,0.28-0.28,0.28h-2.857c-0.812,0-1.107,0.28-1.107,1.204v1.513h3.796c0.154,0,0.28,0.127,0.28,0.28v1.009
		c0,0.154-0.126,0.28-0.28,0.28h-3.796v1.807c0,0.925,0.294,1.205,1.107,1.205h2.857c0.154,0,0.28,0.126,0.28,0.28v0.896
		C521.958,591.957,521.887,592.026,521.677,592.054z"/>
	<path fill="#5BA4C2" d="M526.268,592.251c-0.546,0-1.723-0.07-2.508-0.28c-0.168-0.042-0.266-0.154-0.266-0.322v-0.841
		c0-0.111,0.098-0.224,0.238-0.224c0.028,0,0.042,0,0.056,0c0.672,0.084,1.933,0.154,2.353,0.154c0.869,0,0.995-0.295,0.995-0.673
		c0-0.266-0.168-0.435-0.616-0.714l-1.919-1.177c-0.687-0.421-1.177-1.121-1.177-1.934c0-1.4,0.882-2.101,2.662-2.101
		c1.134,0,1.779,0.126,2.493,0.28c0.168,0.042,0.252,0.153,0.252,0.321v0.812c0,0.169-0.084,0.267-0.224,0.267
		c-0.028,0-0.042,0-0.056,0c-0.393-0.056-1.513-0.168-2.312-0.168c-0.672,0-0.966,0.154-0.966,0.588c0,0.225,0.21,0.364,0.56,0.574
		l1.835,1.121c1.177,0.714,1.345,1.415,1.345,2.129C529.013,591.284,528.103,592.251,526.268,592.251z"/>
	<path fill="#5BA4C2" d="M535.703,583.187h-1.359c-0.154,0-0.294-0.126-0.294-0.28v-1.232c0-0.154,0.14-0.28,0.294-0.28h1.359
		c0.154,0,0.28,0.126,0.28,0.28v1.232C535.983,583.061,535.856,583.187,535.703,583.187z M535.661,592.138h-1.289
		c-0.154,0-0.28-0.14-0.28-0.294v-7.326c0-0.154,0.126-0.28,0.28-0.28h1.289c0.154,0,0.28,0.126,0.28,0.28v7.326
		C535.94,591.999,535.814,592.138,535.661,592.138z"/>
	<path fill="#5BA4C2" d="M547.579,592.138h-1.289c-0.154,0-0.28-0.14-0.28-0.294v-4.763c0-1.079-0.224-1.358-1.009-1.358
		c-0.266,0-0.798,0.084-1.303,0.35c0.042,0.309,0.056,0.658,0.056,1.009v4.763c0,0.154-0.126,0.294-0.28,0.294h-1.289
		c-0.154,0-0.28-0.14-0.28-0.294v-4.763c0-1.079-0.182-1.358-0.966-1.358c-0.294,0-0.714,0.153-1.289,0.462v5.659
		c0,0.154-0.126,0.294-0.28,0.294h-1.289c-0.154,0-0.28-0.14-0.28-0.294v-7.326c0-0.154,0.126-0.28,0.28-0.28h1.219
		c0.154,0,0.28,0.126,0.28,0.28v0.294c0.588-0.378,1.177-0.672,2.003-0.672c0.798,0,1.317,0.238,1.639,0.63
		c0.714-0.392,1.345-0.63,2.311-0.63c1.905,0,2.325,1.303,2.325,2.941v4.763C547.859,591.999,547.733,592.138,547.579,592.138z"/>
	<path fill="#5BA4C2" d="M552.867,592.251c-0.336,0-0.826-0.028-1.345-0.099v2.479c0,0.154-0.126,0.28-0.28,0.28h-1.289
		c-0.154,0-0.28-0.126-0.28-0.28v-9.749c0-0.21,0.056-0.294,0.378-0.378c0.869-0.225,1.919-0.364,2.815-0.364
		c2.255,0,3.348,1.33,3.348,3.516v1.078C556.215,590.92,555.123,592.251,552.867,592.251z M554.366,587.656
		c0-1.148-0.294-2.003-1.499-2.003c-0.504,0-1.078,0.042-1.345,0.098v4.889c0.393,0.057,1.009,0.099,1.345,0.099
		c1.205,0,1.499-0.854,1.499-2.004V587.656z"/>
	<path fill="#5BA4C2" d="M560.861,592.251c-2.199,0-3.348-1.485-3.348-3.488v-1.135c0-2.003,1.148-3.487,3.348-3.487
		s3.348,1.484,3.348,3.487v1.135C564.209,590.765,563.06,592.251,560.861,592.251z M562.36,587.628c0-1.148-0.519-1.891-1.499-1.891
		s-1.499,0.742-1.499,1.891v1.135c0,1.148,0.518,1.892,1.499,1.892s1.499-0.743,1.499-1.892V587.628z"/>
	<path fill="#5BA4C2" d="M569.569,585.709c-0.756,0-1.345,0.196-1.933,0.505v5.631c0,0.154-0.126,0.294-0.28,0.294h-1.289
		c-0.154,0-0.28-0.14-0.28-0.294v-7.326c0-0.154,0.126-0.28,0.28-0.28h1.219c0.154,0,0.28,0.126,0.28,0.28v0.294
		c0.687-0.532,1.443-0.672,2.003-0.672c0.154,0,0.28,0.126,0.28,0.28v1.008C569.85,585.583,569.724,585.709,569.569,585.709z"/>
	<path fill="#5BA4C2" d="M575.184,592.152c-0.336,0.057-0.644,0.099-0.953,0.099c-1.583,0-2.227-0.351-2.227-2.228v-4.398
		l-1.316-0.196c-0.154-0.027-0.28-0.126-0.28-0.28v-0.63c0-0.154,0.126-0.28,0.28-0.28h1.316v-1.148c0-0.154,0.126-0.252,0.28-0.28
		l1.303-0.224c0.014,0,0.042,0,0.056,0c0.126,0,0.224,0.069,0.224,0.21v1.442h1.26c0.154,0,0.28,0.126,0.28,0.28v0.826
		c0,0.154-0.126,0.28-0.28,0.28h-1.26v4.398c0,0.7,0.042,0.784,0.546,0.784h0.743c0.182,0,0.294,0.07,0.294,0.21v0.883
		C575.45,592.041,575.366,592.125,575.184,592.152z"/>
	<path fill="#5BA4C2" d="M582.282,592.138h-1.19c-0.154,0-0.28-0.126-0.28-0.28v-0.224c-0.645,0.392-1.303,0.616-1.975,0.616
		c-1.163,0-2.423-0.448-2.423-2.34v-0.056c0-1.597,0.98-2.424,3.418-2.424h0.882v-0.616c0-0.91-0.406-1.134-1.232-1.134
		c-0.896,0-1.821,0.056-2.283,0.111c-0.028,0-0.056,0-0.07,0c-0.14,0-0.252-0.042-0.252-0.238v-0.896
		c0-0.153,0.084-0.252,0.266-0.294c0.561-0.112,1.373-0.224,2.339-0.224c1.989,0,3.082,0.882,3.082,2.675v5.043
		C582.562,592.012,582.437,592.138,582.282,592.138z M580.713,588.665h-0.882c-1.275,0-1.555,0.406-1.555,1.19v0.056
		c0,0.687,0.308,0.869,1.008,0.869c0.504,0,1.022-0.168,1.429-0.393V588.665z"/>
	<path fill="#5BA4C2" d="M590.571,592.138h-1.289c-0.154,0-0.28-0.14-0.28-0.294v-4.566c0-1.219-0.112-1.569-1.191-1.569
		c-0.476,0-0.995,0.196-1.583,0.505v5.631c0,0.154-0.126,0.294-0.28,0.294h-1.289c-0.154,0-0.28-0.14-0.28-0.294v-7.326
		c0-0.154,0.126-0.28,0.28-0.28h1.219c0.154,0,0.28,0.126,0.28,0.28v0.294c0.812-0.518,1.345-0.672,2.269-0.672
		c2.017,0,2.423,1.358,2.423,3.138v4.566C590.851,591.999,590.725,592.138,590.571,592.138z"/>
	<path fill="#5BA4C2" d="M596.533,592.152c-0.336,0.057-0.644,0.099-0.953,0.099c-1.583,0-2.227-0.351-2.227-2.228v-4.398
		l-1.316-0.196c-0.154-0.027-0.28-0.126-0.28-0.28v-0.63c0-0.154,0.126-0.28,0.28-0.28h1.316v-1.148c0-0.154,0.126-0.252,0.28-0.28
		l1.303-0.224c0.014,0,0.042,0,0.056,0c0.126,0,0.224,0.069,0.224,0.21v1.442h1.26c0.154,0,0.28,0.126,0.28,0.28v0.826
		c0,0.154-0.126,0.28-0.28,0.28h-1.26v4.398c0,0.7,0.042,0.784,0.546,0.784h0.743c0.182,0,0.294,0.07,0.294,0.21v0.883
		C596.799,592.041,596.715,592.125,596.533,592.152z"/>
	<path fill="#5BA4C2" d="M604.235,588.833h-4.566v0.042c0,0.812,0.336,1.779,1.681,1.779c1.022,0,1.989-0.084,2.578-0.141
		c0.014,0,0.028,0,0.042,0c0.14,0,0.252,0.07,0.252,0.21v0.925c0,0.224-0.042,0.322-0.294,0.364
		c-0.911,0.168-1.457,0.238-2.718,0.238c-1.4,0-3.39-0.757-3.39-3.517v-1.036c0-2.186,1.219-3.558,3.362-3.558
		c2.157,0,3.334,1.471,3.334,3.558v0.784C604.515,588.707,604.431,588.833,604.235,588.833z M602.652,587.46
		c0-1.093-0.602-1.723-1.471-1.723s-1.499,0.616-1.499,1.723v0.057h2.97V587.46z"/>
	<path fill="#5BA4C2" d="M612.787,592.251c-0.896,0-1.947-0.141-2.815-0.364c-0.322-0.084-0.378-0.168-0.378-0.378v-9.75
		c0-0.153,0.126-0.28,0.28-0.28h1.289c0.154,0,0.28,0.127,0.28,0.28v2.479c0.519-0.07,1.009-0.098,1.345-0.098
		c2.255,0,3.348,1.33,3.348,3.516v1.078C616.135,590.92,615.042,592.251,612.787,592.251z M614.286,587.656
		c0-1.148-0.294-2.003-1.499-2.003c-0.336,0-0.952,0.042-1.345,0.098v4.889c0.266,0.057,0.841,0.099,1.345,0.099
		c1.205,0,1.499-0.854,1.499-2.004V587.656z"/>
	<path fill="#5BA4C2" d="M623.849,588.833h-4.566v0.042c0,0.812,0.336,1.779,1.681,1.779c1.022,0,1.989-0.084,2.578-0.141
		c0.014,0,0.028,0,0.042,0c0.14,0,0.252,0.07,0.252,0.21v0.925c0,0.224-0.042,0.322-0.294,0.364
		c-0.911,0.168-1.457,0.238-2.718,0.238c-1.4,0-3.39-0.757-3.39-3.517v-1.036c0-2.186,1.219-3.558,3.362-3.558
		c2.157,0,3.334,1.471,3.334,3.558v0.784C624.129,588.707,624.045,588.833,623.849,588.833z M622.266,587.46
		c0-1.093-0.602-1.723-1.471-1.723s-1.499,0.616-1.499,1.723v0.057h2.97V587.46z"/>
	<path fill="#5BA4C2" d="M628.9,592.251c-0.896,0-1.947-0.141-2.815-0.364c-0.322-0.084-0.378-0.168-0.378-0.378v-9.75
		c0-0.153,0.126-0.28,0.28-0.28h1.289c0.154,0,0.28,0.127,0.28,0.28v2.479c0.519-0.07,1.009-0.098,1.345-0.098
		c2.255,0,3.348,1.33,3.348,3.516v1.078C632.249,590.92,631.156,592.251,628.9,592.251z M630.399,587.656
		c0-1.148-0.294-2.003-1.499-2.003c-0.336,0-0.952,0.042-1.345,0.098v4.889c0.267,0.057,0.841,0.099,1.345,0.099
		c1.205,0,1.499-0.854,1.499-2.004V587.656z"/>
	<path fill="#5BA4C2" d="M639.962,588.833h-4.566v0.042c0,0.812,0.336,1.779,1.681,1.779c1.022,0,1.989-0.084,2.578-0.141
		c0.014,0,0.028,0,0.042,0c0.14,0,0.252,0.07,0.252,0.21v0.925c0,0.224-0.042,0.322-0.294,0.364
		c-0.911,0.168-1.457,0.238-2.718,0.238c-1.4,0-3.39-0.757-3.39-3.517v-1.036c0-2.186,1.219-3.558,3.362-3.558
		c2.157,0,3.334,1.471,3.334,3.558v0.784C640.243,588.707,640.158,588.833,639.962,588.833z M638.379,587.46
		c0-1.093-0.602-1.723-1.471-1.723s-1.499,0.616-1.499,1.723v0.057h2.97V587.46z"/>
	<path fill="#5BA4C2" d="M645.603,585.709c-0.757,0-1.345,0.196-1.933,0.505v5.631c0,0.154-0.127,0.294-0.28,0.294h-1.289
		c-0.153,0-0.28-0.14-0.28-0.294v-7.326c0-0.154,0.127-0.28,0.28-0.28h1.219c0.154,0,0.28,0.126,0.28,0.28v0.294
		c0.687-0.532,1.443-0.672,2.003-0.672c0.154,0,0.28,0.126,0.28,0.28v1.008C645.883,585.583,645.757,585.709,645.603,585.709z"/>
</g>
<g enable-background="new    ">
	<path fill="#2B4E6B" d="M657.382,592.138h-1.569c-0.154,0-0.279-0.126-0.279-0.28v-0.336c-0.771,0.546-1.387,0.729-2.283,0.729
		c-2.031,0-2.48-1.415-2.48-3.18v-4.665c0-0.154,0.141-0.294,0.295-0.294h1.695c0.153,0,0.279,0.14,0.279,0.294v4.665
		c0,0.98,0.183,1.303,1.037,1.303c0.406,0,0.84-0.196,1.316-0.448v-5.52c0-0.154,0.126-0.294,0.28-0.294h1.694
		c0.154,0,0.295,0.14,0.295,0.294v7.452C657.662,592.012,657.535,592.138,657.382,592.138z"/>
	<path fill="#2B4E6B" d="M665.936,592.138h-1.695c-0.154,0-0.279-0.14-0.279-0.294v-4.665c0-0.98-0.183-1.303-1.037-1.303
		c-0.406,0-0.84,0.196-1.316,0.448v5.52c0,0.154-0.127,0.294-0.28,0.294h-1.694c-0.154,0-0.295-0.14-0.295-0.294v-7.452
		c0-0.154,0.126-0.28,0.28-0.28h1.569c0.154,0,0.279,0.126,0.279,0.28v0.336c0.771-0.546,1.387-0.729,2.283-0.729
		c2.031,0,2.479,1.415,2.479,3.18v4.665C666.229,591.999,666.09,592.138,665.936,592.138z"/>
	<path fill="#2B4E6B" d="M679.908,582.025l-2.087,8.685c-0.322,1.345-1.345,1.555-2.312,1.555s-2.003-0.21-2.324-1.555l-2.088-8.685
		c0-0.028-0.014-0.042-0.014-0.07c0-0.126,0.111-0.224,0.252-0.224h1.947c0.14,0,0.252,0.111,0.279,0.252l1.752,8.082
		c0.027,0.154,0.07,0.21,0.195,0.21c0.127,0,0.168-0.056,0.196-0.21l1.751-8.082c0.028-0.141,0.127-0.252,0.266-0.252h1.962
		c0.14,0,0.237,0.084,0.237,0.224C679.922,581.969,679.908,581.997,679.908,582.025z"/>
	<path fill="#2B4E6B" d="M686.361,592.138h-1.569c-0.153,0-0.28-0.126-0.28-0.28v-0.224c-0.546,0.392-1.106,0.63-1.947,0.63
		c-1.219,0-2.395-0.588-2.395-2.409v-0.126c0-1.639,1.051-2.367,3.445-2.367h0.757v-0.505c0-0.798-0.393-0.966-1.051-0.966
		c-0.896,0-1.892,0.056-2.325,0.098h-0.07c-0.14,0-0.252-0.07-0.252-0.252v-1.135c0-0.154,0.098-0.266,0.266-0.308
		c0.52-0.127,1.5-0.295,2.424-0.295c2.018,0,3.277,0.812,3.277,2.857v5.001C686.641,592.012,686.516,592.138,686.361,592.138z
		 M684.414,588.707h-0.799c-0.98,0-1.232,0.336-1.232,1.022v0.126c0,0.588,0.295,0.7,0.883,0.7c0.42,0,0.812-0.14,1.148-0.308
		V588.707z"/>
	<path fill="#2B4E6B" d="M690.938,592.264c-0.771,0-1.835-0.112-2.549-0.308c-0.169-0.043-0.267-0.154-0.267-0.322V590.5
		c0-0.141,0.098-0.267,0.267-0.267c0.014,0,0.041,0,0.055,0c0.758,0.099,1.934,0.196,2.382,0.196c0.673,0,0.827-0.182,0.827-0.546
		c0-0.21-0.127-0.364-0.52-0.589l-1.82-1.051c-0.784-0.448-1.246-1.162-1.246-2.072c0-1.415,0.938-2.172,2.871-2.172
		c1.106,0,1.779,0.141,2.493,0.322c0.168,0.042,0.267,0.154,0.267,0.322v1.135c0,0.168-0.099,0.266-0.238,0.266
		c-0.014,0-0.028,0-0.042,0c-0.406-0.056-1.611-0.182-2.325-0.182c-0.547,0-0.742,0.084-0.742,0.406c0,0.21,0.153,0.322,0.434,0.49
		l1.737,0.994c1.163,0.673,1.415,1.401,1.415,2.157C693.936,591.228,692.982,592.264,690.938,592.264z"/>
	<path fill="#2B4E6B" d="M698.652,592.264c-2.27,0-3.517-1.415-3.517-3.642v-0.98c0-2.228,1.247-3.643,3.517-3.643
		c2.269,0,3.502,1.415,3.502,3.643v0.98C702.154,590.849,700.921,592.264,698.652,592.264z M699.898,587.642
		c0-1.135-0.434-1.709-1.246-1.709s-1.262,0.574-1.262,1.709v0.98c0,1.135,0.449,1.723,1.262,1.723s1.246-0.588,1.246-1.723V587.642
		z"/>
	<path fill="#2B4E6B" d="M713.493,591.9c-0.798,0.196-1.905,0.364-2.983,0.364c-2.27,0-3.516-1.316-3.516-3.586v-1.093
		c0-2.199,1.148-3.586,3.516-3.586c0.279,0,0.742,0.042,1.148,0.099v-2.424c0-0.154,0.126-0.28,0.28-0.28h1.694
		c0.154,0,0.295,0.126,0.295,0.28v9.819C713.928,591.719,713.871,591.816,713.493,591.9z M711.658,585.947
		c-0.336-0.042-0.812-0.07-1.148-0.07c-0.994,0-1.247,0.729-1.247,1.709v1.093c0,0.995,0.253,1.723,1.247,1.723
		c0.462,0,0.883-0.042,1.148-0.084V585.947z"/>
	<path fill="#2B4E6B" d="M722.104,588.833h-4.469v0.028c0,0.798,0.336,1.526,1.443,1.526c0.882,0,2.129-0.07,2.689-0.126
		c0.014,0,0.027,0,0.041,0c0.154,0,0.267,0.07,0.267,0.224v1.065c0,0.224-0.056,0.321-0.294,0.378
		c-0.896,0.224-1.653,0.336-2.872,0.336c-1.694,0-3.516-0.896-3.516-3.6v-0.98c0-2.256,1.317-3.685,3.544-3.685
		c2.297,0,3.46,1.569,3.46,3.685v0.812C722.397,588.707,722.285,588.833,722.104,588.833z M720.184,587.376
		c0-1.036-0.476-1.555-1.26-1.555c-0.771,0-1.289,0.532-1.289,1.555v0.056h2.549V587.376z"/>
	<path fill="#2B4E6B" d="M735.529,592.138h-1.961c-0.14,0-0.252-0.112-0.279-0.252l-0.505-2.298h-2.871l-0.505,2.298
		c-0.027,0.14-0.14,0.252-0.279,0.252h-1.961c-0.141,0-0.238-0.084-0.238-0.225c0-0.014,0.014-0.042,0.014-0.069l2.087-8.685
		c0.322-1.345,1.358-1.555,2.325-1.555s1.989,0.21,2.312,1.555l2.087,8.685c0,0.027,0.014,0.056,0.014,0.069
		C735.768,592.054,735.67,592.138,735.529,592.138z M731.537,583.803c-0.027-0.14-0.056-0.21-0.182-0.21s-0.168,0.07-0.195,0.21
		l-0.855,3.866h2.088L731.537,583.803z"/>
	<path fill="#2B4E6B" d="M743.859,585.583l-0.435,0.141c0.168,0.252,0.308,0.7,0.308,1.036v0.112c0,1.82-1.273,2.619-3.459,2.619
		c-0.658,0-1.177-0.098-1.457-0.21c-0.154,0.098-0.196,0.196-0.196,0.322c0,0.224,0.084,0.322,0.421,0.392l1.582,0.351
		c2.438,0.532,3.277,0.91,3.277,2.255v0.112c0,1.541-1.204,2.283-3.67,2.283c-2.324,0-3.557-0.812-3.557-2.283V592.6
		c0-0.574,0.237-1.106,0.84-1.568c-0.504-0.28-0.715-0.841-0.715-1.303c0-0.519,0.267-0.91,0.617-1.19
		c-0.449-0.393-0.645-1.107-0.645-1.667v-0.112c0-1.583,1.051-2.647,3.502-2.647h3.487c0.196,0,0.351,0.168,0.351,0.364v0.799
		C744.111,585.47,744.027,585.527,743.859,585.583z M741.59,592.6c0-0.266-0.182-0.448-1.443-0.729l-1.036-0.224
		c-0.168,0.238-0.28,0.462-0.28,0.952v0.112c0,0.477,0.322,0.715,1.4,0.715c1.149,0,1.359-0.295,1.359-0.715V592.6z M741.52,586.76
		c0-0.574-0.252-1.009-1.246-1.009c-0.995,0-1.275,0.435-1.275,1.009v0.112c0,0.476,0.211,0.98,1.275,0.98
		c0.98,0,1.246-0.378,1.246-0.98V586.76z"/>
	<path fill="#2B4E6B" d="M751.867,592.138h-1.569c-0.154,0-0.28-0.126-0.28-0.28v-0.336c-0.771,0.546-1.387,0.729-2.283,0.729
		c-2.031,0-2.479-1.415-2.479-3.18v-4.665c0-0.154,0.14-0.294,0.294-0.294h1.695c0.154,0,0.28,0.14,0.28,0.294v4.665
		c0,0.98,0.183,1.303,1.036,1.303c0.406,0,0.841-0.196,1.316-0.448v-5.52c0-0.154,0.127-0.294,0.281-0.294h1.694
		c0.154,0,0.294,0.14,0.294,0.294v7.452C752.146,592.012,752.021,592.138,751.867,592.138z"/>
	<path fill="#2B4E6B" d="M759.734,592.138h-1.568c-0.154,0-0.28-0.126-0.28-0.28v-0.224c-0.546,0.392-1.106,0.63-1.947,0.63
		c-1.219,0-2.396-0.588-2.396-2.409v-0.126c0-1.639,1.051-2.367,3.446-2.367h0.757v-0.505c0-0.798-0.393-0.966-1.051-0.966
		c-0.896,0-1.892,0.056-2.326,0.098H754.3c-0.14,0-0.253-0.07-0.253-0.252v-1.135c0-0.154,0.099-0.266,0.267-0.308
		c0.519-0.127,1.499-0.295,2.423-0.295c2.018,0,3.278,0.812,3.278,2.857v5.001C760.015,592.012,759.889,592.138,759.734,592.138z
		 M757.787,588.707h-0.798c-0.98,0-1.233,0.336-1.233,1.022v0.126c0,0.588,0.295,0.7,0.883,0.7c0.42,0,0.812-0.14,1.148-0.308
		V588.707z"/>
	<path fill="#2B4E6B" d="M764.059,590.094l-1.346,3.138c-0.069,0.154-0.111,0.28-0.266,0.28h-1.232c-0.126,0-0.238-0.099-0.238-0.21
		c0-0.028,0.014-0.042,0.014-0.07l0.896-3.138c0.043-0.168,0.127-0.267,0.281-0.267h1.708c0.126,0,0.21,0.07,0.21,0.168
		C764.086,590.023,764.072,590.065,764.059,590.094z"/>
</g>
<g enable-background="new    ">
	<path fill="#5BA4C2" d="M551.832,610.138h-1.289c-0.154,0-0.28-0.126-0.28-0.28v-0.322c-0.729,0.477-1.303,0.7-2.199,0.7
		c-0.701,0-1.317-0.182-1.723-0.588c-0.518-0.519-0.7-1.387-0.7-2.55v-4.566c0-0.153,0.126-0.294,0.28-0.294h1.289
		c0.154,0,0.28,0.141,0.28,0.294v4.566c0,0.701,0.056,1.107,0.322,1.345c0.196,0.169,0.435,0.253,0.869,0.253
		c0.518,0,1.19-0.351,1.583-0.561v-5.604c0-0.153,0.126-0.294,0.28-0.294h1.289c0.154,0,0.28,0.141,0.28,0.294v7.326
		C552.111,610.012,551.985,610.138,551.832,610.138z"/>
	<path fill="#5BA4C2" d="M560.12,610.138h-1.289c-0.154,0-0.28-0.14-0.28-0.294v-4.566c0-1.219-0.112-1.569-1.191-1.569
		c-0.476,0-0.995,0.196-1.583,0.505v5.631c0,0.154-0.126,0.294-0.28,0.294h-1.289c-0.154,0-0.28-0.14-0.28-0.294v-7.326
		c0-0.154,0.126-0.28,0.28-0.28h1.219c0.154,0,0.28,0.126,0.28,0.28v0.294c0.812-0.518,1.345-0.672,2.269-0.672
		c2.017,0,2.423,1.358,2.423,3.138v4.566C560.399,609.999,560.273,610.138,560.12,610.138z"/>
	<path fill="#5BA4C2" d="M565.325,610.251c-2.199,0-3.348-1.485-3.348-3.488v-1.135c0-2.003,1.148-3.487,3.348-3.487
		s3.348,1.484,3.348,3.487v1.135C568.673,608.765,567.524,610.251,565.325,610.251z M566.824,605.628
		c0-1.148-0.519-1.891-1.499-1.891s-1.499,0.742-1.499,1.891v1.135c0,1.148,0.518,1.892,1.499,1.892s1.499-0.743,1.499-1.892
		V605.628z"/>
	<path fill="#5BA4C2" d="M572.815,610.251c-0.546,0-1.723-0.07-2.508-0.28c-0.168-0.042-0.266-0.154-0.266-0.322v-0.841
		c0-0.111,0.098-0.224,0.238-0.224c0.028,0,0.042,0,0.056,0c0.672,0.084,1.933,0.154,2.353,0.154c0.869,0,0.995-0.295,0.995-0.673
		c0-0.266-0.168-0.435-0.616-0.714l-1.919-1.177c-0.687-0.421-1.177-1.121-1.177-1.934c0-1.4,0.882-2.101,2.662-2.101
		c1.134,0,1.779,0.126,2.493,0.28c0.168,0.042,0.252,0.153,0.252,0.321v0.812c0,0.169-0.084,0.267-0.224,0.267
		c-0.028,0-0.042,0-0.056,0c-0.393-0.056-1.513-0.168-2.312-0.168c-0.672,0-0.966,0.154-0.966,0.588c0,0.225,0.21,0.364,0.56,0.574
		l1.835,1.121c1.177,0.714,1.345,1.415,1.345,2.129C575.561,609.284,574.65,610.251,572.815,610.251z"/>
	<path fill="#5BA4C2" d="M590.375,610.138h-1.289c-0.154,0-0.28-0.14-0.28-0.294v-4.763c0-1.079-0.224-1.358-1.009-1.358
		c-0.266,0-0.798,0.084-1.303,0.35c0.042,0.309,0.056,0.658,0.056,1.009v4.763c0,0.154-0.126,0.294-0.28,0.294h-1.289
		c-0.154,0-0.28-0.14-0.28-0.294v-4.763c0-1.079-0.182-1.358-0.966-1.358c-0.294,0-0.714,0.153-1.289,0.462v5.659
		c0,0.154-0.126,0.294-0.28,0.294h-1.289c-0.154,0-0.28-0.14-0.28-0.294v-7.326c0-0.154,0.126-0.28,0.28-0.28h1.219
		c0.154,0,0.28,0.126,0.28,0.28v0.294c0.588-0.378,1.177-0.672,2.003-0.672c0.798,0,1.317,0.238,1.639,0.63
		c0.714-0.392,1.345-0.63,2.311-0.63c1.905,0,2.325,1.303,2.325,2.941v4.763C590.655,609.999,590.529,610.138,590.375,610.138z"/>
	<path fill="#5BA4C2" d="M594.123,601.187h-1.359c-0.154,0-0.294-0.126-0.294-0.28v-1.232c0-0.154,0.14-0.28,0.294-0.28h1.359
		c0.154,0,0.28,0.126,0.28,0.28v1.232C594.403,601.061,594.276,601.187,594.123,601.187z M594.081,610.138h-1.289
		c-0.154,0-0.28-0.14-0.28-0.294v-7.326c0-0.154,0.126-0.28,0.28-0.28h1.289c0.154,0,0.28,0.126,0.28,0.28v7.326
		C594.36,609.999,594.234,610.138,594.081,610.138z"/>
	<path fill="#5BA4C2" d="M602.413,610.138h-1.289c-0.154,0-0.28-0.14-0.28-0.294v-4.566c0-1.219-0.112-1.569-1.191-1.569
		c-0.476,0-0.995,0.196-1.583,0.505v5.631c0,0.154-0.126,0.294-0.28,0.294h-1.289c-0.154,0-0.28-0.14-0.28-0.294v-7.326
		c0-0.154,0.126-0.28,0.28-0.28h1.219c0.154,0,0.28,0.126,0.28,0.28v0.294c0.812-0.518,1.345-0.672,2.269-0.672
		c2.017,0,2.423,1.358,2.423,3.138v4.566C602.693,609.999,602.567,610.138,602.413,610.138z"/>
	<path fill="#5BA4C2" d="M610.701,610.138h-1.289c-0.154,0-0.28-0.126-0.28-0.28v-0.322c-0.729,0.477-1.303,0.7-2.199,0.7
		c-0.701,0-1.317-0.182-1.723-0.588c-0.518-0.519-0.7-1.387-0.7-2.55v-4.566c0-0.153,0.126-0.294,0.28-0.294h1.289
		c0.154,0,0.28,0.141,0.28,0.294v4.566c0,0.701,0.056,1.107,0.322,1.345c0.196,0.169,0.435,0.253,0.869,0.253
		c0.518,0,1.19-0.351,1.583-0.561v-5.604c0-0.153,0.126-0.294,0.28-0.294h1.289c0.154,0,0.28,0.141,0.28,0.294v7.326
		C610.98,610.012,610.854,610.138,610.701,610.138z"/>
	<path fill="#5BA4C2" d="M616.943,610.152c-0.336,0.057-0.644,0.099-0.953,0.099c-1.583,0-2.227-0.351-2.227-2.228v-4.398
		l-1.316-0.196c-0.154-0.027-0.28-0.126-0.28-0.28v-0.63c0-0.154,0.126-0.28,0.28-0.28h1.316v-1.148c0-0.154,0.126-0.252,0.28-0.28
		l1.303-0.224c0.014,0,0.042,0,0.056,0c0.126,0,0.224,0.069,0.224,0.21v1.442h1.26c0.154,0,0.28,0.126,0.28,0.28v0.826
		c0,0.154-0.126,0.28-0.28,0.28h-1.26v4.398c0,0.7,0.042,0.784,0.546,0.784h0.743c0.182,0,0.294,0.07,0.294,0.21v0.883
		C617.209,610.041,617.125,610.125,616.943,610.152z"/>
	<path fill="#5BA4C2" d="M621.437,610.251c-2.199,0-3.348-1.485-3.348-3.488v-1.135c0-2.003,1.148-3.487,3.348-3.487
		s3.348,1.484,3.348,3.487v1.135C624.785,608.765,623.636,610.251,621.437,610.251z M622.936,605.628
		c0-1.148-0.519-1.891-1.499-1.891s-1.499,0.742-1.499,1.891v1.135c0,1.148,0.518,1.892,1.499,1.892s1.499-0.743,1.499-1.892
		V605.628z"/>
	<path fill="#5BA4C2" d="M628.927,610.251c-0.546,0-1.723-0.07-2.508-0.28c-0.168-0.042-0.266-0.154-0.266-0.322v-0.841
		c0-0.111,0.098-0.224,0.238-0.224c0.028,0,0.042,0,0.056,0c0.672,0.084,1.933,0.154,2.353,0.154c0.869,0,0.995-0.295,0.995-0.673
		c0-0.266-0.168-0.435-0.616-0.714l-1.919-1.177c-0.687-0.421-1.177-1.121-1.177-1.934c0-1.4,0.882-2.101,2.662-2.101
		c1.134,0,1.779,0.126,2.493,0.28c0.168,0.042,0.252,0.153,0.252,0.321v0.812c0,0.169-0.084,0.267-0.224,0.267
		c-0.028,0-0.042,0-0.056,0c-0.393-0.056-1.513-0.168-2.312-0.168c-0.672,0-0.966,0.154-0.966,0.588c0,0.225,0.21,0.364,0.56,0.574
		l1.835,1.121c1.177,0.714,1.345,1.415,1.345,2.129C631.672,609.284,630.762,610.251,628.927,610.251z"/>
	<path fill="#5BA4C2" d="M642.284,610.138h-1.19c-0.154,0-0.28-0.126-0.28-0.28v-0.224c-0.645,0.392-1.303,0.616-1.975,0.616
		c-1.163,0-2.423-0.448-2.423-2.34v-0.056c0-1.597,0.98-2.424,3.418-2.424h0.882v-0.616c0-0.91-0.406-1.134-1.232-1.134
		c-0.896,0-1.821,0.056-2.283,0.111c-0.028,0-0.056,0-0.07,0c-0.14,0-0.252-0.042-0.252-0.238v-0.896
		c0-0.153,0.084-0.252,0.266-0.294c0.561-0.112,1.373-0.224,2.339-0.224c1.989,0,3.082,0.882,3.082,2.675v5.043
		C642.564,610.012,642.438,610.138,642.284,610.138z M640.715,606.665h-0.882c-1.275,0-1.555,0.406-1.555,1.19v0.056
		c0,0.687,0.308,0.869,1.008,0.869c0.504,0,1.022-0.168,1.428-0.393V606.665z"/>
	<path fill="#5BA4C2" d="M650.572,610.138h-1.289c-0.153,0-0.279-0.14-0.279-0.294v-4.566c0-1.219-0.112-1.569-1.191-1.569
		c-0.476,0-0.994,0.196-1.582,0.505v5.631c0,0.154-0.127,0.294-0.28,0.294h-1.289c-0.153,0-0.28-0.14-0.28-0.294v-7.326
		c0-0.154,0.127-0.28,0.28-0.28h1.219c0.154,0,0.28,0.126,0.28,0.28v0.294c0.812-0.518,1.345-0.672,2.27-0.672
		c2.017,0,2.423,1.358,2.423,3.138v4.566C650.853,609.999,650.727,610.138,650.572,610.138z"/>
	<path fill="#5BA4C2" d="M656.535,610.152c-0.336,0.057-0.645,0.099-0.953,0.099c-1.582,0-2.227-0.351-2.227-2.228v-4.398
		l-1.316-0.196c-0.154-0.027-0.28-0.126-0.28-0.28v-0.63c0-0.154,0.126-0.28,0.28-0.28h1.316v-1.148c0-0.154,0.126-0.252,0.28-0.28
		l1.303-0.224c0.014,0,0.042,0,0.056,0c0.127,0,0.225,0.069,0.225,0.21v1.442h1.26c0.154,0,0.281,0.126,0.281,0.28v0.826
		c0,0.154-0.127,0.28-0.281,0.28h-1.26v4.398c0,0.7,0.042,0.784,0.546,0.784h0.743c0.182,0,0.293,0.07,0.293,0.21v0.883
		C656.801,610.041,656.717,610.125,656.535,610.152z"/>
	<path fill="#5BA4C2" d="M664.236,606.833h-4.566v0.042c0,0.812,0.336,1.779,1.681,1.779c1.022,0,1.989-0.084,2.577-0.141
		c0.014,0,0.028,0,0.043,0c0.14,0,0.252,0.07,0.252,0.21v0.925c0,0.224-0.043,0.322-0.295,0.364
		c-0.91,0.168-1.457,0.238-2.717,0.238c-1.4,0-3.391-0.757-3.391-3.517v-1.036c0-2.186,1.219-3.558,3.362-3.558
		c2.157,0,3.334,1.471,3.334,3.558v0.784C664.517,606.707,664.433,606.833,664.236,606.833z M662.653,605.46
		c0-1.093-0.603-1.723-1.471-1.723s-1.499,0.616-1.499,1.723v0.057h2.97V605.46z"/>
	<path fill="#5BA4C2" d="M668.658,610.251c-0.546,0-1.723-0.07-2.508-0.28c-0.168-0.042-0.266-0.154-0.266-0.322v-0.841
		c0-0.111,0.098-0.224,0.238-0.224c0.027,0,0.042,0,0.057,0c0.672,0.084,1.933,0.154,2.353,0.154c0.868,0,0.995-0.295,0.995-0.673
		c0-0.266-0.168-0.435-0.617-0.714l-1.918-1.177c-0.688-0.421-1.178-1.121-1.178-1.934c0-1.4,0.883-2.101,2.662-2.101
		c1.135,0,1.779,0.126,2.493,0.28c0.168,0.042,0.252,0.153,0.252,0.321v0.812c0,0.169-0.084,0.267-0.224,0.267
		c-0.028,0-0.043,0-0.057,0c-0.393-0.056-1.513-0.168-2.311-0.168c-0.673,0-0.967,0.154-0.967,0.588c0,0.225,0.21,0.364,0.561,0.574
		l1.834,1.121c1.178,0.714,1.346,1.415,1.346,2.129C671.404,609.284,670.494,610.251,668.658,610.251z"/>
	<path fill="#5BA4C2" d="M682.324,609.886c-0.869,0.224-1.92,0.364-2.816,0.364c-2.254,0-3.348-1.331-3.348-3.517v-1.078
		c0-2.186,1.094-3.516,3.348-3.516c0.337,0,0.827,0.027,1.346,0.098v-2.479c0-0.153,0.125-0.28,0.279-0.28h1.289
		c0.154,0,0.28,0.127,0.28,0.28v9.75C682.702,609.719,682.646,609.802,682.324,609.886z M680.854,603.751
		c-0.393-0.056-1.009-0.098-1.346-0.098c-1.204,0-1.498,0.854-1.498,2.003v1.078c0,1.149,0.294,2.004,1.498,2.004
		c0.505,0,1.079-0.042,1.346-0.099V603.751z"/>
	<path fill="#5BA4C2" d="M690.696,606.833h-4.566v0.042c0,0.812,0.336,1.779,1.681,1.779c1.022,0,1.989-0.084,2.578-0.141
		c0.014,0,0.027,0,0.041,0c0.141,0,0.252,0.07,0.252,0.21v0.925c0,0.224-0.041,0.322-0.293,0.364
		c-0.911,0.168-1.457,0.238-2.719,0.238c-1.4,0-3.389-0.757-3.389-3.517v-1.036c0-2.186,1.219-3.558,3.361-3.558
		c2.157,0,3.334,1.471,3.334,3.558v0.784C690.977,606.707,690.893,606.833,690.696,606.833z M689.113,605.46
		c0-1.093-0.602-1.723-1.471-1.723s-1.499,0.616-1.499,1.723v0.057h2.97V605.46z"/>
	<path fill="#5BA4C2" d="M700.775,610.068c-0.322,0.084-0.953,0.183-1.807,0.183c-1.822,0-3.194-1.121-3.194-3.404v-1.303
		c0-2.283,1.372-3.403,3.194-3.403c0.854,0,1.484,0.098,1.807,0.182c0.238,0.057,0.294,0.141,0.294,0.364v0.91
		c0,0.141-0.112,0.211-0.253,0.211c-0.014,0-0.027,0-0.041,0c-0.561-0.07-0.896-0.099-1.807-0.099c-0.659,0-1.346,0.379-1.346,1.835
		v1.303c0,1.457,0.687,1.835,1.346,1.835c0.91,0,1.246-0.027,1.807-0.098c0.014,0,0.027,0,0.041,0c0.141,0,0.253,0.07,0.253,0.21
		v0.91C701.069,609.928,701.014,610.012,700.775,610.068z"/>
	<path fill="#5BA4C2" d="M705.506,610.251c-2.199,0-3.348-1.485-3.348-3.488v-1.135c0-2.003,1.148-3.487,3.348-3.487
		s3.349,1.484,3.349,3.487v1.135C708.854,608.765,707.705,610.251,705.506,610.251z M707.006,605.628c0-1.148-0.52-1.891-1.5-1.891
		s-1.498,0.742-1.498,1.891v1.135c0,1.148,0.518,1.892,1.498,1.892s1.5-0.743,1.5-1.892V605.628z"/>
	<path fill="#5BA4C2" d="M720.21,610.138h-1.289c-0.153,0-0.28-0.14-0.28-0.294v-4.763c0-1.079-0.224-1.358-1.008-1.358
		c-0.267,0-0.799,0.084-1.303,0.35c0.041,0.309,0.056,0.658,0.056,1.009v4.763c0,0.154-0.126,0.294-0.28,0.294h-1.289
		c-0.154,0-0.279-0.14-0.279-0.294v-4.763c0-1.079-0.183-1.358-0.967-1.358c-0.295,0-0.715,0.153-1.289,0.462v5.659
		c0,0.154-0.126,0.294-0.279,0.294h-1.289c-0.154,0-0.28-0.14-0.28-0.294v-7.326c0-0.154,0.126-0.28,0.28-0.28h1.219
		c0.154,0,0.279,0.126,0.279,0.28v0.294c0.589-0.378,1.178-0.672,2.004-0.672c0.798,0,1.316,0.238,1.639,0.63
		c0.715-0.392,1.345-0.63,2.311-0.63c1.906,0,2.326,1.303,2.326,2.941v4.763C720.49,609.999,720.363,610.138,720.21,610.138z"/>
	<path fill="#5BA4C2" d="M728.482,606.833h-4.566v0.042c0,0.812,0.336,1.779,1.68,1.779c1.023,0,1.99-0.084,2.578-0.141
		c0.014,0,0.027,0,0.042,0c0.14,0,0.252,0.07,0.252,0.21v0.925c0,0.224-0.042,0.322-0.294,0.364
		c-0.91,0.168-1.457,0.238-2.718,0.238c-1.4,0-3.39-0.757-3.39-3.517v-1.036c0-2.186,1.219-3.558,3.361-3.558
		c2.158,0,3.334,1.471,3.334,3.558v0.784C728.762,606.707,728.678,606.833,728.482,606.833z M726.898,605.46
		c0-1.093-0.602-1.723-1.471-1.723c-0.868,0-1.498,0.616-1.498,1.723v0.057h2.969V605.46z"/>
	<path fill="#5BA4C2" d="M734.122,603.709c-0.757,0-1.345,0.196-1.933,0.505v5.631c0,0.154-0.127,0.294-0.28,0.294h-1.289
		c-0.153,0-0.28-0.14-0.28-0.294v-7.326c0-0.154,0.127-0.28,0.28-0.28h1.219c0.154,0,0.28,0.126,0.28,0.28v0.294
		c0.687-0.532,1.443-0.672,2.003-0.672c0.154,0,0.28,0.126,0.28,0.28v1.008C734.402,603.583,734.276,603.709,734.122,603.709z"/>
</g>
</svg>
