<?xml version="1.0" encoding="utf-8"?>
<!-- Generator: Adobe Illustrator 16.0.0, SVG Export Plug-In . SVG Version: 6.00 Build 0)  -->
<!DOCTYPE svg PUBLIC "-//W3C//DTD SVG 1.1//EN" "http://www.w3.org/Graphics/SVG/1.1/DTD/svg11.dtd">
<svg version="1.1" id="Layer_1" xmlns="http://www.w3.org/2000/svg" xmlns:xlink="http://www.w3.org/1999/xlink" x="0px" y="0px"
	 width="1280px" height="700px" viewBox="0 0 1280 700" enable-background="new 0 0 1280 700" xml:space="preserve">
<g id="Miscelaneas">
	<g>
		<g>
			<g>
				<path fill="none" stroke="#5BA4C2" stroke-width="0.75" stroke-miterlimit="10" d="M640.3,654c0,0,0-14.3,0-19.3
					c0-3.1,1-4.1,3.7-4.1s86.9,0,86.9,0c3,0,3.8-1.4,3.8-5c0-3.4-0.3-9.3-0.3-13c0-3.5,0.899-5.4,3.3-6v-0.2c-2.4-0.7-3.3-2.4-3.3-6
					c0-3.8,0.3-6.6,0.3-10"/>
			</g>
			<g>
				<path fill="none" stroke="#5BA4C2" stroke-width="0.75" stroke-miterlimit="10" d="M547,590.2c0,3.4,0.3,6.3,0.3,10
					c0,3.601-0.899,5.4-3.3,6v0.2c2.4,0.7,3.3,2.5,3.3,6c0,3.8-0.3,9.6-0.3,13c0,3.6,0.8,5,3.8,5c0,0,83.2,0,85.8,0
					c2.601,0,3.7,1,3.7,4.1c0,5,0,19.301,0,19.301"/>
			</g>
		</g>
		<g>
			<g>
				<path fill="#5BA4C2" d="M643.8,653.9L643.8,653.9l-3.5-6.9l0,0l0,0l0,0l0,0l-3.7,6.801l0,0c-0.3,0.6-0.5,1.3-0.6,2
					c0,2.3,1.8,4.1,4.1,4.199c2.301,0,4.101-1.8,4.2-4.1C644.3,655.2,644.1,654.5,643.8,653.9z"/>
				<g>
					<g>
						<path fill="#72ADC8" d="M639,659C638.9,659,638.9,659,639,659c-2.1-0.399-2.4-2.6-2.3-3.699c0-0.2,0.2-0.301,0.399-0.301
							c0.2,0,0.301,0.2,0.301,0.4c0,0.1-0.301,2.5,1.6,2.9c0.2,0,0.3,0.2,0.3,0.399C639.3,658.9,639.1,659,639,659z"/>
					</g>
				</g>
			</g>
			<path fill="#72ADC8" d="M644.3,655.9c0-0.7-0.2-1.4-0.5-2l0,0l-3.5-6.9l0,0l0,0l0,0v13C642.5,659.9,644.3,658.2,644.3,655.9z"/>
			<g>
				<g>
					<path fill="#E2D4D5" d="M641.9,653.4l-0.801-2c-0.1-0.1-0.1-0.4,0-0.4c0.101,0,0.301,0.101,0.301,0.301l1,1.899
						c0.1,0.101,0,0.4-0.101,0.5C642.2,653.7,642,653.6,641.9,653.4z"/>
				</g>
				<ellipse fill="#E2D4D5" cx="642.582" cy="654.281" rx="0.4" ry="0.4"/>
			</g>
		</g>
		<g>
			<g>
				<path fill="#5BA4C2" d="M644,665.9L644,665.9l-1.9-3.8l0,0l0,0l0,0l0,0l-2,3.7l0,0c-0.199,0.3-0.3,0.7-0.3,1.1
					c0,1.3,1,2.3,2.2,2.3c1.3,0,2.3-1,2.3-2.2C644.3,666.6,644.2,666.2,644,665.9z"/>
				<g>
					<g>
						<path fill="#72ADC8" d="M641.3,668.7L641.3,668.7c-1.2-0.2-1.3-1.399-1.3-2c0-0.1,0.1-0.2,0.2-0.2c0.1,0,0.2,0.101,0.2,0.2
							c0,0.101-0.101,1.4,0.899,1.601c0.101,0,0.2,0.1,0.2,0.199C641.5,668.7,641.4,668.7,641.3,668.7z"/>
					</g>
				</g>
			</g>
			<path fill="#72ADC8" d="M644.3,667c0-0.399-0.1-0.8-0.3-1.1l0,0l-1.9-3.8l0,0l0,0l0,0v7.2C643.3,669.2,644.3,668.2,644.3,667z"/>
			<g>
				<g>
					<path fill="#E2D4D5" d="M643,665.6l-0.4-1.101c0-0.1-0.1-0.199,0-0.199c0.101,0,0.2,0.1,0.2,0.1l0.5,1.1
						c0,0.101,0,0.2-0.1,0.301C643.1,665.801,643,665.7,643,665.6z"/>
				</g>
				<ellipse fill="#E2D4D5" cx="643.391" cy="666.087" rx="0.2" ry="0.2"/>
			</g>
		</g>
	</g>
</g>
<g enable-background="new    ">
	<path fill="#5BA4C2" d="M587.366,592.138h-1.485c-0.126,0-0.238-0.112-0.266-0.238l-0.645-2.661h-3.222l-0.645,2.661
		c-0.028,0.126-0.14,0.238-0.266,0.238h-1.485c-0.14,0-0.252-0.098-0.252-0.238c0-0.014,0.014-0.042,0.014-0.07l2.297-8.782
		c0.336-1.303,1.345-1.429,1.947-1.429s1.611,0.126,1.947,1.429l2.297,8.782c0,0.028,0.014,0.057,0.014,0.07
		C587.618,592.041,587.506,592.138,587.366,592.138z M583.583,583.482c-0.042-0.169-0.084-0.225-0.224-0.225
		s-0.182,0.056-0.224,0.225l-1.008,4.16h2.465L583.583,583.482z"/>
	<path fill="#5BA4C2" d="M594.981,592.138h-1.289c-0.154,0-0.28-0.14-0.28-0.294v-4.566c0-1.219-0.112-1.569-1.191-1.569
		c-0.476,0-0.995,0.196-1.583,0.505v5.631c0,0.154-0.126,0.294-0.28,0.294h-1.289c-0.154,0-0.28-0.14-0.28-0.294v-7.326
		c0-0.154,0.126-0.28,0.28-0.28h1.219c0.154,0,0.28,0.126,0.28,0.28v0.294c0.812-0.518,1.345-0.672,2.269-0.672
		c2.017,0,2.423,1.358,2.423,3.138v4.566C595.261,591.999,595.135,592.138,594.981,592.138z"/>
	<path fill="#5BA4C2" d="M600.944,592.152c-0.336,0.057-0.644,0.099-0.953,0.099c-1.583,0-2.227-0.351-2.227-2.228v-4.398
		l-1.317-0.196c-0.154-0.027-0.28-0.126-0.28-0.28v-0.63c0-0.154,0.126-0.28,0.28-0.28h1.317v-1.148c0-0.154,0.126-0.252,0.28-0.28
		l1.303-0.224c0.014,0,0.042,0,0.056,0c0.126,0,0.224,0.069,0.224,0.21v1.442h1.26c0.154,0,0.28,0.126,0.28,0.28v0.826
		c0,0.154-0.126,0.28-0.28,0.28h-1.26v4.398c0,0.7,0.042,0.784,0.546,0.784h0.743c0.182,0,0.294,0.07,0.294,0.21v0.883
		C601.21,592.041,601.126,592.125,600.944,592.152z"/>
	<path fill="#5BA4C2" d="M608.645,588.833h-4.566v0.042c0,0.812,0.336,1.779,1.681,1.779c1.022,0,1.989-0.084,2.578-0.141
		c0.014,0,0.028,0,0.042,0c0.14,0,0.252,0.07,0.252,0.21v0.925c0,0.224-0.042,0.322-0.294,0.364
		c-0.911,0.168-1.457,0.238-2.718,0.238c-1.4,0-3.39-0.757-3.39-3.517v-1.036c0-2.186,1.219-3.558,3.362-3.558
		c2.157,0,3.334,1.471,3.334,3.558v0.784C608.925,588.707,608.841,588.833,608.645,588.833z M607.062,587.46
		c0-1.093-0.602-1.723-1.471-1.723s-1.499,0.616-1.499,1.723v0.057h2.97V587.46z"/>
	<path fill="#5BA4C2" d="M613.066,592.251c-0.546,0-1.723-0.07-2.507-0.28c-0.168-0.042-0.266-0.154-0.266-0.322v-0.841
		c0-0.111,0.098-0.224,0.238-0.224c0.028,0,0.042,0,0.056,0c0.672,0.084,1.933,0.154,2.353,0.154c0.869,0,0.995-0.295,0.995-0.673
		c0-0.266-0.168-0.435-0.616-0.714l-1.919-1.177c-0.687-0.421-1.177-1.121-1.177-1.934c0-1.4,0.882-2.101,2.662-2.101
		c1.134,0,1.779,0.126,2.493,0.28c0.168,0.042,0.252,0.153,0.252,0.321v0.812c0,0.169-0.084,0.267-0.224,0.267
		c-0.028,0-0.042,0-0.056,0c-0.393-0.056-1.513-0.168-2.312-0.168c-0.672,0-0.966,0.154-0.966,0.588c0,0.225,0.21,0.364,0.56,0.574
		l1.835,1.121c1.177,0.714,1.345,1.415,1.345,2.129C615.812,591.284,614.902,592.251,613.066,592.251z"/>
	<path fill="#5BA4C2" d="M626.732,591.886c-0.868,0.224-1.919,0.364-2.815,0.364c-2.255,0-3.348-1.331-3.348-3.517v-1.078
		c0-2.186,1.093-3.516,3.348-3.516c0.336,0,0.827,0.027,1.345,0.098v-2.479c0-0.153,0.126-0.28,0.28-0.28h1.289
		c0.154,0,0.28,0.127,0.28,0.28v9.75C627.111,591.719,627.055,591.802,626.732,591.886z M625.262,585.751
		c-0.392-0.056-1.008-0.098-1.345-0.098c-1.205,0-1.499,0.854-1.499,2.003v1.078c0,1.149,0.294,2.004,1.499,2.004
		c0.504,0,1.079-0.042,1.345-0.099V585.751z"/>
	<path fill="#5BA4C2" d="M635.104,588.833h-4.566v0.042c0,0.812,0.336,1.779,1.681,1.779c1.022,0,1.989-0.084,2.578-0.141
		c0.014,0,0.028,0,0.042,0c0.14,0,0.252,0.07,0.252,0.21v0.925c0,0.224-0.042,0.322-0.294,0.364
		c-0.911,0.168-1.457,0.238-2.718,0.238c-1.4,0-3.39-0.757-3.39-3.517v-1.036c0-2.186,1.219-3.558,3.362-3.558
		c2.157,0,3.334,1.471,3.334,3.558v0.784C635.385,588.707,635.301,588.833,635.104,588.833z M633.521,587.46
		c0-1.093-0.602-1.723-1.471-1.723s-1.499,0.616-1.499,1.723v0.057h2.97V587.46z"/>
	<path fill="#5BA4C2" d="M646.346,591.886c-0.867,0.224-1.918,0.364-2.814,0.364c-2.256,0-3.348-1.331-3.348-3.517v-1.078
		c0-2.186,1.092-3.516,3.348-3.516c0.336,0,0.826,0.027,1.344,0.098v-2.479c0-0.153,0.127-0.28,0.281-0.28h1.288
		c0.154,0,0.28,0.127,0.28,0.28v9.75C646.725,591.719,646.668,591.802,646.346,591.886z M644.875,585.751
		c-0.392-0.056-1.008-0.098-1.344-0.098c-1.205,0-1.499,0.854-1.499,2.003v1.078c0,1.149,0.294,2.004,1.499,2.004
		c0.504,0,1.078-0.042,1.344-0.099V585.751z"/>
	<path fill="#5BA4C2" d="M654.732,592.138h-1.289c-0.154,0-0.279-0.126-0.279-0.28v-0.322c-0.729,0.477-1.303,0.7-2.199,0.7
		c-0.701,0-1.317-0.182-1.724-0.588c-0.519-0.519-0.7-1.387-0.7-2.55v-4.566c0-0.153,0.126-0.294,0.279-0.294h1.289
		c0.154,0,0.28,0.141,0.28,0.294v4.566c0,0.701,0.056,1.107,0.322,1.345c0.196,0.169,0.435,0.253,0.868,0.253
		c0.519,0,1.191-0.351,1.584-0.561v-5.604c0-0.153,0.125-0.294,0.279-0.294h1.289c0.154,0,0.279,0.141,0.279,0.294v7.326
		C655.012,592.012,654.887,592.138,654.732,592.138z"/>
	<path fill="#5BA4C2" d="M661.549,592.068c-0.321,0.084-0.951,0.183-1.807,0.183c-1.82,0-3.193-1.121-3.193-3.404v-1.303
		c0-2.283,1.373-3.403,3.193-3.403c0.855,0,1.485,0.098,1.807,0.182c0.238,0.057,0.295,0.141,0.295,0.364v0.91
		c0,0.141-0.112,0.211-0.252,0.211c-0.014,0-0.028,0-0.043,0c-0.56-0.07-0.896-0.099-1.807-0.099c-0.658,0-1.344,0.379-1.344,1.835
		v1.303c0,1.457,0.686,1.835,1.344,1.835c0.91,0,1.247-0.027,1.807-0.098c0.015,0,0.029,0,0.043,0c0.14,0,0.252,0.07,0.252,0.21
		v0.91C661.844,591.928,661.787,592.012,661.549,592.068z"/>
	<path fill="#5BA4C2" d="M669.572,592.138h-1.289c-0.154,0-0.279-0.14-0.279-0.294v-4.608c0-1.219-0.211-1.527-1.149-1.527
		c-0.476,0-1.036,0.168-1.625,0.477v5.659c0,0.154-0.126,0.294-0.28,0.294h-1.289c-0.153,0-0.279-0.14-0.279-0.294v-10.086
		c0-0.153,0.126-0.28,0.279-0.28h1.289c0.154,0,0.28,0.127,0.28,0.28v2.899c0.532-0.321,1.12-0.518,2.115-0.518
		c1.933,0,2.507,1.372,2.507,3.096v4.608C669.852,591.999,669.727,592.138,669.572,592.138z"/>
	<path fill="#5BA4C2" d="M677.244,592.138h-1.191c-0.154,0-0.279-0.126-0.279-0.28v-0.224c-0.645,0.392-1.303,0.616-1.976,0.616
		c-1.163,0-2.423-0.448-2.423-2.34v-0.056c0-1.597,0.98-2.424,3.418-2.424h0.882v-0.616c0-0.91-0.406-1.134-1.232-1.134
		c-0.896,0-1.821,0.056-2.283,0.111c-0.028,0-0.056,0-0.07,0c-0.14,0-0.252-0.042-0.252-0.238v-0.896
		c0-0.153,0.084-0.252,0.267-0.294c0.56-0.112,1.372-0.224,2.339-0.224c1.989,0,3.081,0.882,3.081,2.675v5.043
		C677.523,592.012,677.398,592.138,677.244,592.138z M675.675,588.665h-0.882c-1.275,0-1.555,0.406-1.555,1.19v0.056
		c0,0.687,0.308,0.869,1.008,0.869c0.504,0,1.022-0.168,1.429-0.393V588.665z"/>
	<path fill="#5BA4C2" d="M683.123,585.709c-0.757,0-1.346,0.196-1.934,0.505v5.631c0,0.154-0.126,0.294-0.279,0.294h-1.289
		c-0.154,0-0.28-0.14-0.28-0.294v-7.326c0-0.154,0.126-0.28,0.28-0.28h1.219c0.154,0,0.279,0.126,0.279,0.28v0.294
		c0.688-0.532,1.443-0.672,2.004-0.672c0.154,0,0.279,0.126,0.279,0.28v1.008C683.402,585.583,683.277,585.709,683.123,585.709z"/>
	<path fill="#5BA4C2" d="M688.736,592.152c-0.336,0.057-0.644,0.099-0.952,0.099c-1.583,0-2.228-0.351-2.228-2.228v-4.398
		l-1.316-0.196c-0.154-0.027-0.279-0.126-0.279-0.28v-0.63c0-0.154,0.125-0.28,0.279-0.28h1.316v-1.148
		c0-0.154,0.127-0.252,0.281-0.28l1.303-0.224c0.014,0,0.041,0,0.056,0c0.126,0,0.224,0.069,0.224,0.21v1.442h1.261
		c0.154,0,0.28,0.126,0.28,0.28v0.826c0,0.154-0.126,0.28-0.28,0.28h-1.261v4.398c0,0.7,0.043,0.784,0.547,0.784h0.742
		c0.182,0,0.294,0.07,0.294,0.21v0.883C689.003,592.041,688.919,592.125,688.736,592.152z"/>
	<path fill="#5BA4C2" d="M696.438,588.833h-4.566v0.042c0,0.812,0.336,1.779,1.682,1.779c1.021,0,1.988-0.084,2.577-0.141
		c0.014,0,0.028,0,0.042,0c0.141,0,0.252,0.07,0.252,0.21v0.925c0,0.224-0.042,0.322-0.294,0.364
		c-0.911,0.168-1.457,0.238-2.718,0.238c-1.4,0-3.39-0.757-3.39-3.517v-1.036c0-2.186,1.219-3.558,3.362-3.558
		c2.156,0,3.334,1.471,3.334,3.558v0.784C696.719,588.707,696.634,588.833,696.438,588.833z M694.855,587.46
		c0-1.093-0.603-1.723-1.471-1.723c-0.869,0-1.5,0.616-1.5,1.723v0.057h2.971V587.46z"/>
	<path fill="#5BA4C2" d="M700.201,590.275l-1.219,2.941c-0.07,0.169-0.111,0.28-0.266,0.28h-0.967c-0.126,0-0.21-0.084-0.21-0.195
		c0-0.028,0-0.057,0.014-0.085l0.854-2.941c0.057-0.168,0.126-0.266,0.28-0.266h1.345c0.111,0,0.196,0.069,0.196,0.168
		C700.229,590.206,700.215,590.233,700.201,590.275z"/>
</g>
<g enable-background="new    ">
	<path fill="#5BA4C2" d="M570.892,610.152c-0.336,0.057-0.644,0.099-0.953,0.099c-1.583,0-2.227-0.351-2.227-2.228v-4.398
		l-1.316-0.196c-0.154-0.027-0.28-0.126-0.28-0.28v-0.63c0-0.154,0.126-0.28,0.28-0.28h1.316v-1.148c0-0.154,0.126-0.252,0.28-0.28
		l1.303-0.224c0.014,0,0.042,0,0.056,0c0.126,0,0.224,0.069,0.224,0.21v1.442h1.26c0.154,0,0.28,0.126,0.28,0.28v0.826
		c0,0.154-0.126,0.28-0.28,0.28h-1.26v4.398c0,0.7,0.042,0.784,0.546,0.784h0.743c0.182,0,0.294,0.07,0.294,0.21v0.883
		C571.158,610.041,571.074,610.125,570.892,610.152z"/>
	<path fill="#5BA4C2" d="M575.385,610.251c-2.199,0-3.348-1.485-3.348-3.488v-1.135c0-2.003,1.148-3.487,3.348-3.487
		s3.348,1.484,3.348,3.487v1.135C578.733,608.765,577.584,610.251,575.385,610.251z M576.884,605.628
		c0-1.148-0.519-1.891-1.499-1.891s-1.499,0.742-1.499,1.891v1.135c0,1.148,0.518,1.892,1.499,1.892s1.499-0.743,1.499-1.892
		V605.628z M577.486,599.436l-1.653,1.737c-0.112,0.126-0.168,0.182-0.336,0.182h-1.205c-0.084,0-0.126-0.042-0.126-0.098
		c0-0.042,0.014-0.098,0.056-0.14l1.331-1.682c0.126-0.153,0.182-0.21,0.364-0.21h1.471c0.098,0,0.154,0.042,0.154,0.099
		C577.542,599.352,577.528,599.394,577.486,599.436z"/>
	<path fill="#5BA4C2" d="M590.089,610.138H588.8c-0.154,0-0.28-0.14-0.28-0.294v-4.763c0-1.079-0.224-1.358-1.009-1.358
		c-0.266,0-0.798,0.084-1.303,0.35c0.042,0.309,0.056,0.658,0.056,1.009v4.763c0,0.154-0.126,0.294-0.28,0.294h-1.289
		c-0.154,0-0.28-0.14-0.28-0.294v-4.763c0-1.079-0.182-1.358-0.966-1.358c-0.294,0-0.714,0.153-1.289,0.462v5.659
		c0,0.154-0.126,0.294-0.28,0.294h-1.289c-0.154,0-0.28-0.14-0.28-0.294v-7.326c0-0.154,0.126-0.28,0.28-0.28h1.219
		c0.154,0,0.28,0.126,0.28,0.28v0.294c0.588-0.378,1.177-0.672,2.003-0.672c0.798,0,1.317,0.238,1.639,0.63
		c0.714-0.392,1.345-0.63,2.311-0.63c1.905,0,2.325,1.303,2.325,2.941v4.763C590.369,609.999,590.243,610.138,590.089,610.138z"/>
	<path fill="#5BA4C2" d="M597.758,610.138h-1.19c-0.154,0-0.28-0.126-0.28-0.28v-0.224c-0.644,0.392-1.303,0.616-1.975,0.616
		c-1.163,0-2.423-0.448-2.423-2.34v-0.056c0-1.597,0.98-2.424,3.418-2.424h0.882v-0.616c0-0.91-0.406-1.134-1.232-1.134
		c-0.896,0-1.821,0.056-2.283,0.111c-0.028,0-0.056,0-0.07,0c-0.14,0-0.252-0.042-0.252-0.238v-0.896
		c0-0.153,0.084-0.252,0.266-0.294c0.56-0.112,1.373-0.224,2.339-0.224c1.989,0,3.082,0.882,3.082,2.675v5.043
		C598.039,610.012,597.913,610.138,597.758,610.138z M596.189,606.665h-0.882c-1.275,0-1.555,0.406-1.555,1.19v0.056
		c0,0.687,0.308,0.869,1.008,0.869c0.504,0,1.022-0.168,1.429-0.393V606.665z"/>
</g>
<g enable-background="new    ">
	<path fill="#2B4E6B" d="M610.087,610.138h-1.569c-0.154,0-0.28-0.126-0.28-0.28v-0.336c-0.771,0.546-1.387,0.729-2.283,0.729
		c-2.031,0-2.479-1.415-2.479-3.18v-4.665c0-0.154,0.14-0.294,0.294-0.294h1.695c0.154,0,0.28,0.14,0.28,0.294v4.665
		c0,0.98,0.182,1.303,1.037,1.303c0.406,0,0.84-0.196,1.316-0.448v-5.52c0-0.154,0.126-0.294,0.28-0.294h1.695
		c0.154,0,0.294,0.14,0.294,0.294v7.452C610.367,610.012,610.241,610.138,610.087,610.138z"/>
	<path fill="#2B4E6B" d="M618.641,610.138h-1.695c-0.154,0-0.28-0.14-0.28-0.294v-4.665c0-0.98-0.182-1.303-1.037-1.303
		c-0.406,0-0.84,0.196-1.316,0.448v5.52c0,0.154-0.126,0.294-0.28,0.294h-1.695c-0.154,0-0.294-0.14-0.294-0.294v-7.452
		c0-0.154,0.126-0.28,0.28-0.28h1.569c0.154,0,0.28,0.126,0.28,0.28v0.336c0.771-0.546,1.387-0.729,2.283-0.729
		c2.031,0,2.479,1.415,2.479,3.18v4.665C618.935,609.999,618.795,610.138,618.641,610.138z"/>
	<path fill="#2B4E6B" d="M632.614,600.025l-2.087,8.685c-0.322,1.345-1.345,1.555-2.311,1.555c-0.967,0-2.003-0.21-2.325-1.555
		l-2.087-8.685c0-0.028-0.014-0.042-0.014-0.07c0-0.126,0.112-0.224,0.252-0.224h1.947c0.14,0,0.252,0.111,0.28,0.252l1.751,8.082
		c0.028,0.154,0.07,0.21,0.196,0.21s0.168-0.056,0.196-0.21l1.751-8.082c0.028-0.141,0.126-0.252,0.266-0.252h1.961
		c0.14,0,0.238,0.084,0.238,0.224C632.627,599.969,632.614,599.997,632.614,600.025z"/>
	<path fill="#2B4E6B" d="M639.066,610.138h-1.569c-0.154,0-0.28-0.126-0.28-0.28v-0.224c-0.546,0.392-1.107,0.63-1.947,0.63
		c-1.219,0-2.395-0.588-2.395-2.409v-0.126c0-1.639,1.05-2.367,3.446-2.367h0.756v-0.505c0-0.798-0.393-0.966-1.051-0.966
		c-0.896,0-1.891,0.056-2.325,0.098h-0.07c-0.14,0-0.252-0.07-0.252-0.252v-1.135c0-0.154,0.098-0.266,0.266-0.308
		c0.519-0.127,1.499-0.295,2.423-0.295c2.017,0,3.278,0.812,3.278,2.857v5.001C639.346,610.012,639.22,610.138,639.066,610.138z
		 M637.119,606.707h-0.798c-0.981,0-1.233,0.336-1.233,1.022v0.126c0,0.588,0.294,0.7,0.882,0.7c0.42,0,0.812-0.14,1.149-0.308
		V606.707z"/>
	<path fill="#2B4E6B" d="M643.643,610.264c-0.771,0-1.835-0.112-2.549-0.308c-0.169-0.043-0.267-0.154-0.267-0.322V608.5
		c0-0.141,0.098-0.267,0.267-0.267c0.014,0,0.041,0,0.055,0c0.758,0.099,1.934,0.196,2.382,0.196c0.673,0,0.827-0.182,0.827-0.546
		c0-0.21-0.127-0.364-0.52-0.589l-1.82-1.051c-0.784-0.448-1.246-1.162-1.246-2.072c0-1.415,0.938-2.172,2.871-2.172
		c1.106,0,1.779,0.141,2.493,0.322c0.168,0.042,0.267,0.154,0.267,0.322v1.135c0,0.168-0.099,0.266-0.238,0.266
		c-0.014,0-0.028,0-0.042,0c-0.406-0.056-1.611-0.182-2.325-0.182c-0.547,0-0.742,0.084-0.742,0.406c0,0.21,0.153,0.322,0.434,0.49
		l1.737,0.994c1.163,0.673,1.415,1.401,1.415,2.157C646.641,609.228,645.688,610.264,643.643,610.264z"/>
	<path fill="#2B4E6B" d="M651.357,610.264c-2.27,0-3.517-1.415-3.517-3.642v-0.98c0-2.228,1.247-3.643,3.517-3.643
		c2.269,0,3.502,1.415,3.502,3.643v0.98C654.859,608.849,653.626,610.264,651.357,610.264z M652.604,605.642
		c0-1.135-0.434-1.709-1.246-1.709s-1.262,0.574-1.262,1.709v0.98c0,1.135,0.449,1.723,1.262,1.723s1.246-0.588,1.246-1.723V605.642
		z"/>
	<path fill="#2B4E6B" d="M666.198,609.9c-0.798,0.196-1.905,0.364-2.983,0.364c-2.27,0-3.516-1.316-3.516-3.586v-1.093
		c0-2.199,1.148-3.586,3.516-3.586c0.279,0,0.742,0.042,1.148,0.099v-2.424c0-0.154,0.126-0.28,0.28-0.28h1.694
		c0.154,0,0.295,0.126,0.295,0.28v9.819C666.633,609.719,666.576,609.816,666.198,609.9z M664.363,603.947
		c-0.336-0.042-0.812-0.07-1.148-0.07c-0.994,0-1.247,0.729-1.247,1.709v1.093c0,0.995,0.253,1.723,1.247,1.723
		c0.462,0,0.883-0.042,1.148-0.084V603.947z"/>
	<path fill="#2B4E6B" d="M674.809,606.833h-4.469v0.028c0,0.798,0.336,1.526,1.443,1.526c0.882,0,2.129-0.07,2.689-0.126
		c0.014,0,0.027,0,0.041,0c0.154,0,0.267,0.07,0.267,0.224v1.065c0,0.224-0.056,0.321-0.294,0.378
		c-0.896,0.224-1.653,0.336-2.872,0.336c-1.694,0-3.516-0.896-3.516-3.6v-0.98c0-2.256,1.317-3.685,3.544-3.685
		c2.297,0,3.46,1.569,3.46,3.685v0.812C675.103,606.707,674.99,606.833,674.809,606.833z M672.889,605.376
		c0-1.036-0.476-1.555-1.26-1.555c-0.771,0-1.289,0.532-1.289,1.555v0.056h2.549V605.376z"/>
	<path fill="#2B4E6B" d="M688.234,610.138h-1.961c-0.14,0-0.252-0.112-0.279-0.252l-0.505-2.298h-2.871l-0.505,2.298
		c-0.027,0.14-0.14,0.252-0.279,0.252h-1.961c-0.141,0-0.238-0.084-0.238-0.225c0-0.014,0.014-0.042,0.014-0.069l2.087-8.685
		c0.322-1.345,1.358-1.555,2.325-1.555s1.989,0.21,2.312,1.555l2.087,8.685c0,0.027,0.014,0.056,0.014,0.069
		C688.473,610.054,688.375,610.138,688.234,610.138z M684.242,601.803c-0.027-0.14-0.056-0.21-0.182-0.21s-0.168,0.07-0.195,0.21
		l-0.855,3.866h2.088L684.242,601.803z"/>
	<path fill="#2B4E6B" d="M696.564,603.583l-0.435,0.141c0.168,0.252,0.308,0.7,0.308,1.036v0.112c0,1.82-1.273,2.619-3.459,2.619
		c-0.658,0-1.177-0.098-1.457-0.21c-0.154,0.098-0.196,0.196-0.196,0.322c0,0.224,0.084,0.322,0.421,0.392l1.582,0.351
		c2.438,0.532,3.277,0.91,3.277,2.255v0.112c0,1.541-1.204,2.283-3.67,2.283c-2.324,0-3.557-0.812-3.557-2.283V610.6
		c0-0.574,0.237-1.106,0.84-1.568c-0.504-0.28-0.715-0.841-0.715-1.303c0-0.519,0.267-0.91,0.617-1.19
		c-0.449-0.393-0.645-1.107-0.645-1.667v-0.112c0-1.583,1.051-2.647,3.502-2.647h3.487c0.196,0,0.351,0.168,0.351,0.364v0.799
		C696.816,603.47,696.732,603.527,696.564,603.583z M694.295,610.6c0-0.266-0.182-0.448-1.443-0.729l-1.036-0.224
		c-0.168,0.238-0.28,0.462-0.28,0.952v0.112c0,0.477,0.322,0.715,1.4,0.715c1.149,0,1.359-0.295,1.359-0.715V610.6z M694.225,604.76
		c0-0.574-0.252-1.009-1.246-1.009c-0.995,0-1.275,0.435-1.275,1.009v0.112c0,0.476,0.211,0.98,1.275,0.98
		c0.98,0,1.246-0.378,1.246-0.98V604.76z"/>
	<path fill="#2B4E6B" d="M704.572,610.138h-1.569c-0.154,0-0.28-0.126-0.28-0.28v-0.336c-0.771,0.546-1.387,0.729-2.283,0.729
		c-2.031,0-2.479-1.415-2.479-3.18v-4.665c0-0.154,0.14-0.294,0.294-0.294h1.695c0.154,0,0.28,0.14,0.28,0.294v4.665
		c0,0.98,0.183,1.303,1.036,1.303c0.406,0,0.841-0.196,1.316-0.448v-5.52c0-0.154,0.127-0.294,0.281-0.294h1.694
		c0.154,0,0.294,0.14,0.294,0.294v7.452C704.852,610.012,704.726,610.138,704.572,610.138z"/>
	<path fill="#2B4E6B" d="M712.439,610.138h-1.568c-0.154,0-0.28-0.126-0.28-0.28v-0.224c-0.546,0.392-1.106,0.63-1.947,0.63
		c-1.219,0-2.396-0.588-2.396-2.409v-0.126c0-1.639,1.051-2.367,3.446-2.367h0.757v-0.505c0-0.798-0.393-0.966-1.051-0.966
		c-0.896,0-1.892,0.056-2.326,0.098h-0.069c-0.14,0-0.253-0.07-0.253-0.252v-1.135c0-0.154,0.099-0.266,0.267-0.308
		c0.519-0.127,1.499-0.295,2.423-0.295c2.018,0,3.278,0.812,3.278,2.857v5.001C712.72,610.012,712.594,610.138,712.439,610.138z
		 M710.492,606.707h-0.798c-0.98,0-1.233,0.336-1.233,1.022v0.126c0,0.588,0.295,0.7,0.883,0.7c0.42,0,0.812-0.14,1.148-0.308
		V606.707z"/>
</g>
</svg>
