<?xml version="1.0" encoding="utf-8"?>
<!-- Generator: Adobe Illustrator 16.0.0, SVG Export Plug-In . SVG Version: 6.00 Build 0)  -->
<!DOCTYPE svg PUBLIC "-//W3C//DTD SVG 1.1//EN" "http://www.w3.org/Graphics/SVG/1.1/DTD/svg11.dtd">
<svg version="1.1" id="textoJarraNivel01" xmlns="http://www.w3.org/2000/svg" xmlns:xlink="http://www.w3.org/1999/xlink" x="0px"
	 y="0px" width="1280px" height="700px" viewBox="0 0 1280 700" enable-background="new 0 0 1280 700" xml:space="preserve">
<g>
	<g>
		<line fill="none" stroke="#E2D4D5" stroke-miterlimit="10" x1="772.999" y1="418.5" x2="661.999" y2="418.5"/>
		<circle fill="none" stroke="#E2D4D5" stroke-miterlimit="10" cx="658.999" cy="418.5" r="3.205"/>
	</g>
	<g>
		<g enable-background="new    ">
			<path fill="#D0E9EF" d="M785.797,419.5h-0.98c-0.209,0-0.359-0.04-0.52-0.31l-2.279-3.938c-0.039-0.06-0.059-0.079-0.09-0.079
				c-0.029,0-0.049,0.02-0.049,0.079v4.048c0,0.11-0.09,0.2-0.2,0.2h-1.18c-0.11,0-0.2-0.09-0.2-0.2v-6.846
				c0-0.21,0.17-0.38,0.381-0.38h1.009c0.2,0,0.3,0.1,0.42,0.31l2.368,4.118c0.041,0.06,0.051,0.08,0.08,0.08
				c0.02,0,0.051-0.021,0.051-0.091v-4.228c0-0.109,0.09-0.189,0.199-0.189h1.18c0.109,0,0.199,0.08,0.199,0.189v6.856
				C786.186,419.33,786.006,419.5,785.797,419.5z"/>
			<path fill="#D0E9EF" d="M789.108,419.5h-1.339c-0.11,0-0.18-0.09-0.18-0.2v-7.036c0-0.109,0.069-0.189,0.18-0.189h1.339
				c0.11,0,0.19,0.08,0.19,0.189v7.036C789.299,419.41,789.219,419.5,789.108,419.5z"/>
			<path fill="#D0E9EF" d="M796.566,412.284l-1.49,6.196c-0.229,0.96-0.959,1.109-1.648,1.109s-1.43-0.149-1.659-1.109l-1.489-6.196
				c0-0.021-0.01-0.03-0.01-0.05c0-0.09,0.08-0.16,0.18-0.16h1.389c0.101,0,0.181,0.08,0.201,0.18l1.248,5.767
				c0.021,0.11,0.051,0.15,0.141,0.15s0.119-0.04,0.14-0.15l1.249-5.767c0.021-0.1,0.09-0.18,0.19-0.18h1.399
				c0.1,0,0.17,0.06,0.17,0.16C796.576,412.244,796.566,412.263,796.566,412.284z"/>
			<path fill="#D0E9EF" d="M801.566,419.46c-0.35,0.05-0.859,0.13-1.939,0.13c-1.289,0-2.428-0.33-2.428-2.148v-3.318
				c0-1.819,1.148-2.139,2.438-2.139c1.079,0,1.579,0.08,1.929,0.13c0.141,0.02,0.2,0.069,0.2,0.199v0.93c0,0.11-0.091,0.2-0.2,0.2
				h-2.029c-0.469,0-0.639,0.16-0.639,0.68v0.909h2.588c0.11,0,0.2,0.09,0.2,0.2v0.949c0,0.11-0.09,0.2-0.2,0.2h-2.588v1.06
				c0,0.52,0.17,0.68,0.639,0.68h2.029c0.109,0,0.2,0.09,0.2,0.199v0.93C801.767,419.38,801.707,419.44,801.566,419.46z"/>
			<path fill="#D0E9EF" d="M807.097,419.46c-0.33,0.07-1.1,0.13-1.63,0.13c-1.289,0-2.438-0.33-2.438-2.148v-5.167
				c0-0.11,0.09-0.2,0.199-0.2h1.31c0.11,0,0.2,0.09,0.2,0.2v5.167c0,0.52,0.17,0.68,0.639,0.68h1.72c0.11,0,0.2,0.09,0.2,0.199
				v0.93C807.297,419.38,807.236,419.429,807.097,419.46z"/>
			<path fill="#D0E9EF" d="M813.338,419.59c-1.699,0-2.689-0.97-2.689-3.368v-0.859c0-2.398,0.99-3.378,2.689-3.378
				s2.698,0.979,2.698,3.378v0.859C816.036,418.62,815.037,419.59,813.338,419.59z M814.326,415.362c0-1.579-0.43-1.959-0.988-1.959
				c-0.561,0-0.98,0.38-0.98,1.959v0.859c0,1.579,0.42,1.949,0.98,1.949c0.559,0,0.988-0.37,0.988-1.949V415.362z"/>
			<path fill="#D0E9EF" d="M819.107,418.081v-4.298l-1.299,0.56c-0.051,0.021-0.09,0.03-0.12,0.03c-0.07,0-0.11-0.05-0.11-0.13
				v-1.14c0-0.07,0.03-0.11,0.1-0.14l1.81-0.85c0.069-0.03,0.13-0.04,0.229-0.04h0.9c0.109,0,0.189,0.08,0.189,0.189v5.817h1.329
				c0.11,0,0.2,0.08,0.2,0.189v1.029c0,0.11-0.09,0.2-0.2,0.2h-4.357c-0.11,0-0.2-0.09-0.2-0.2v-1.029c0-0.109,0.09-0.189,0.2-0.189
				H819.107z"/>
		</g>
		<g enable-background="new    ">
			<path fill="#5BA4C2" d="M788.131,436.036h-1.485c-0.126,0-0.238-0.112-0.267-0.238l-0.645-2.661h-3.221l-0.645,2.661
				c-0.028,0.126-0.141,0.238-0.267,0.238h-1.485c-0.139,0-0.252-0.098-0.252-0.238c0-0.014,0.015-0.042,0.015-0.07l2.297-8.782
				c0.337-1.303,1.345-1.429,1.947-1.429s1.61,0.126,1.947,1.429l2.297,8.782c0,0.028,0.015,0.057,0.015,0.07
				C788.383,435.938,788.271,436.036,788.131,436.036z M784.348,427.38c-0.041-0.169-0.084-0.225-0.224-0.225
				s-0.183,0.056-0.224,0.225l-1.009,4.16h2.466L784.348,427.38z"/>
			<path fill="#5BA4C2" d="M795.941,435.91c-0.699,0.14-1.61,0.238-3.053,0.238c-1.514,0-3.754-0.995-3.754-4.301v-2.017
				c0-3.32,2.129-4.314,3.795-4.314c1.346,0,2.55,0.168,3.012,0.252c0.183,0.042,0.267,0.112,0.267,0.294v0.938
				c0,0.196-0.056,0.295-0.28,0.295c-0.014,0-0.027,0-0.042,0c-0.644-0.057-1.61-0.112-2.956-0.112
				c-0.938,0-1.834,0.658-1.834,2.647v2.017c0,1.989,0.966,2.634,1.793,2.634c0.518,0,0.952-0.014,1.387-0.042v-3.572
				c0-0.154,0.111-0.28,0.266-0.28h1.387c0.154,0,0.28,0.126,0.28,0.28v4.707C796.208,435.756,796.124,435.868,795.941,435.91z"/>
			<path fill="#5BA4C2" d="M802.086,436.148c-2.255,0-3.852-0.98-3.852-3.965v-6.289c0-0.154,0.125-0.266,0.279-0.266h1.387
				c0.154,0,0.281,0.111,0.281,0.266v6.289c0,1.598,0.392,2.354,1.904,2.354s1.905-0.756,1.905-2.354v-6.289
				c0-0.154,0.126-0.266,0.28-0.266h1.387c0.154,0,0.279,0.111,0.279,0.266v6.289C805.938,435.168,804.342,436.148,802.086,436.148z
				"/>
			<path fill="#5BA4C2" d="M815.164,436.036h-1.484c-0.126,0-0.238-0.112-0.266-0.238l-0.645-2.661h-3.223l-0.645,2.661
				c-0.027,0.126-0.14,0.238-0.266,0.238h-1.484c-0.141,0-0.252-0.098-0.252-0.238c0-0.014,0.014-0.042,0.014-0.07l2.297-8.782
				c0.336-1.303,1.345-1.429,1.947-1.429s1.611,0.126,1.947,1.429l2.297,8.782c0,0.028,0.014,0.057,0.014,0.07
				C815.416,435.938,815.305,436.036,815.164,436.036z M811.383,427.38c-0.043-0.169-0.084-0.225-0.225-0.225
				s-0.182,0.056-0.225,0.225l-1.008,4.16h2.465L811.383,427.38z"/>
			<path fill="#5BA4C2" d="M823.422,432.156c-0.364,0-0.924-0.042-1.246-0.057v3.656c0,0.154-0.112,0.28-0.267,0.28h-1.401
				c-0.153,0-0.279-0.126-0.279-0.28v-9.637c0-0.28,0.168-0.379,0.448-0.421c0.728-0.111,1.723-0.182,2.745-0.182
				c2.157,0,4.034,0.756,4.034,3.235v0.126C827.456,431.357,825.579,432.156,823.422,432.156z M825.523,428.752
				c0-1.177-0.701-1.625-2.102-1.625c-0.294,0-0.994,0.028-1.246,0.057v3.334c0.224,0.014,1.008,0.042,1.246,0.042
				c1.514,0,2.102-0.561,2.102-1.682V428.752z"/>
			<path fill="#5BA4C2" d="M832.704,436.148c-2.312,0-3.992-1.289-3.992-4.37v-1.892c0-3.082,1.681-4.37,3.992-4.37
				s3.992,1.288,3.992,4.37v1.892C836.696,434.859,835.016,436.148,832.704,436.148z M834.734,429.886
				c0-1.849-0.658-2.676-2.03-2.676c-1.373,0-2.031,0.827-2.031,2.676v1.892c0,1.849,0.658,2.675,2.031,2.675
				c1.372,0,2.03-0.826,2.03-2.675V429.886z"/>
			<path fill="#5BA4C2" d="M844.451,427.253H842v8.503c0,0.154-0.125,0.28-0.279,0.28h-1.387c-0.154,0-0.281-0.126-0.281-0.28
				v-8.503h-2.451c-0.154,0-0.279-0.098-0.279-0.252v-1.106c0-0.154,0.125-0.266,0.279-0.266h6.85c0.154,0,0.281,0.111,0.281,0.266
				v1.106C844.732,427.155,844.605,427.253,844.451,427.253z"/>
			<path fill="#5BA4C2" d="M852.559,436.036h-1.485c-0.126,0-0.238-0.112-0.267-0.238l-0.645-2.661h-3.221l-0.645,2.661
				c-0.028,0.126-0.141,0.238-0.267,0.238h-1.485c-0.139,0-0.252-0.098-0.252-0.238c0-0.014,0.015-0.042,0.015-0.07l2.297-8.782
				c0.337-1.303,1.345-1.429,1.947-1.429s1.61,0.126,1.947,1.429l2.297,8.782c0,0.028,0.015,0.057,0.015,0.07
				C852.811,435.938,852.698,436.036,852.559,436.036z M848.775,427.38c-0.041-0.169-0.084-0.225-0.224-0.225
				s-0.183,0.056-0.224,0.225l-1.009,4.16h2.466L848.775,427.38z"/>
			<path fill="#5BA4C2" d="M857.218,436.148c-1.135,0-1.989-0.07-2.423-0.154c-0.463-0.084-0.673-0.238-0.673-0.757v-8.824
				c0-0.505,0.182-0.687,0.63-0.757c0.364-0.056,1.247-0.14,2.34-0.14c2.535,0,4.314,0.729,4.314,2.844v0.279
				c0,0.925-0.435,1.751-1.289,2.115c0.854,0.364,1.358,1.079,1.358,2.13v0.237C861.476,435.349,859.822,436.148,857.218,436.148z
				 M859.515,428.471c0-0.98-0.63-1.345-2.423-1.345c-0.336,0-0.729,0.015-1.023,0.028v2.844h1.779c1.303,0,1.667-0.616,1.667-1.331
				V428.471z M859.57,432.912c0-0.771-0.406-1.484-1.723-1.484h-1.779v3.082c0.337,0,0.855,0.027,1.149,0.027
				c1.793,0,2.353-0.462,2.353-1.442V432.912z"/>
			<path fill="#5BA4C2" d="M868.839,435.952c-0.42,0.098-1.639,0.196-2.382,0.196c-1.82,0-3.234-0.49-3.234-2.872v-7.368
				c0-0.153,0.125-0.279,0.279-0.279h1.387c0.154,0,0.28,0.126,0.28,0.279v7.368c0,0.925,0.28,1.205,1.093,1.205h2.577
				c0.154,0,0.28,0.126,0.28,0.28v0.896C869.119,435.854,869.049,435.91,868.839,435.952z"/>
			<path fill="#5BA4C2" d="M876.062,435.952c-0.447,0.07-0.994,0.196-2.661,0.196c-1.821,0-3.235-0.49-3.235-2.872v-4.889
				c0-2.381,1.414-2.871,3.235-2.871c1.667,0,2.214,0.126,2.661,0.196c0.211,0.027,0.281,0.098,0.281,0.294v0.896
				c0,0.154-0.127,0.28-0.281,0.28h-2.857c-0.812,0-1.106,0.28-1.106,1.204v1.513h3.796c0.154,0,0.28,0.127,0.28,0.28v1.009
				c0,0.154-0.126,0.28-0.28,0.28h-3.796v1.807c0,0.925,0.294,1.205,1.106,1.205h2.857c0.154,0,0.281,0.126,0.281,0.28v0.896
				C876.344,435.854,876.273,435.924,876.062,435.952z"/>
		</g>
		<g enable-background="new    ">
			<path fill="#5BA4C2" d="M789.783,455.122c-1.303,0.336-2.877,0.546-4.221,0.546c-3.381,0-5.018-1.994-5.018-5.27v-1.617
				c0-3.275,1.637-5.27,5.018-5.27c0.504,0,1.238,0.041,2.016,0.146v-3.717c0-0.23,0.189-0.42,0.42-0.42h1.932
				c0.23,0,0.42,0.189,0.42,0.42v14.613C790.35,454.87,790.266,454.996,789.783,455.122z M787.578,445.926
				c-0.588-0.084-1.512-0.146-2.016-0.146c-1.806,0-2.246,1.28-2.246,3.002v1.617c0,1.721,0.44,3.002,2.246,3.002
				c0.756,0,1.617-0.062,2.016-0.146V445.926z"/>
			<path fill="#5BA4C2" d="M802.34,450.545h-6.844v0.062c0,1.219,0.504,2.667,2.52,2.667c1.532,0,2.98-0.126,3.863-0.21
				c0.021,0,0.041,0,0.062,0c0.21,0,0.378,0.105,0.378,0.314v1.387c0,0.336-0.063,0.482-0.44,0.545
				c-1.365,0.252-2.184,0.357-4.074,0.357c-2.1,0-5.08-1.134-5.08-5.27v-1.555c0-3.275,1.826-5.332,5.039-5.332
				c3.232,0,4.996,2.204,4.996,5.332v1.176C802.76,450.355,802.635,450.545,802.34,450.545z M799.968,448.487
				c0-1.638-0.903-2.583-2.204-2.583c-1.303,0-2.247,0.924-2.247,2.583v0.084h4.451V448.487z"/>
			<path fill="#5BA4C2" d="M815.781,455.668c-3.129,0-5.501-1.932-5.501-6.488v-2.414c0-5.061,1.974-7.033,5.815-7.033
				c1.827,0,3.191,0.252,3.885,0.398c0.294,0.062,0.482,0.168,0.482,0.441v1.301c0,0.295-0.168,0.441-0.398,0.441
				c-0.021,0-0.062,0-0.084,0c-0.798-0.126-2.625-0.273-3.885-0.273c-2.12,0-2.896,0.945-2.96,3.822
				c0.672-0.127,1.784-0.231,2.919-0.231c2.729,0,5.144,1.176,5.144,4.619v0.21C821.198,453.568,819.246,455.668,815.781,455.668z
				 M818.343,450.251c0-1.974-1.344-2.499-2.876-2.499c-0.609,0-1.701,0.105-2.331,0.231v1.196c0,3.507,1.112,4.221,2.646,4.221
				c1.428,0,2.562-0.63,2.562-2.939V450.251z"/>
			<path fill="#5BA4C2" d="M837.221,455.5h-1.784c-0.231,0-0.42-0.189-0.42-0.42v-0.336c-0.966,0.588-1.952,0.924-2.96,0.924
				c-1.743,0-3.633-0.672-3.633-3.506v-0.084c0-2.395,1.47-3.633,5.123-3.633h1.322v-0.924c0-1.365-0.608-1.701-1.848-1.701
				c-1.344,0-2.729,0.084-3.422,0.168c-0.042,0-0.084,0-0.105,0c-0.209,0-0.377-0.062-0.377-0.356v-1.344
				c0-0.231,0.125-0.378,0.398-0.44c0.84-0.168,2.058-0.336,3.506-0.336c2.982,0,4.619,1.322,4.619,4.01v7.559
				C837.641,455.31,837.452,455.5,837.221,455.5z M834.869,450.293h-1.322c-1.91,0-2.33,0.609-2.33,1.785v0.084
				c0,1.028,0.461,1.301,1.512,1.301c0.756,0,1.532-0.252,2.141-0.588V450.293z"/>
			<path fill="#5BA4C2" d="M850.977,455.668h-0.21c-2.855,0-5.375-1.365-5.375-4.682v-0.189c0-1.406,0.776-2.625,1.911-3.422
				c-1.281-0.84-1.827-1.975-1.827-3.275v-0.084c0-3.15,2.415-4.283,5.291-4.283h0.21c2.877,0,5.333,1.133,5.333,4.283v0.084
				c0,1.301-0.567,2.436-1.848,3.275c1.134,0.797,1.911,2.016,1.911,3.422v0.189C856.373,454.302,853.832,455.668,850.977,455.668z
				 M853.602,444.099c0-1.407-0.777-2.227-2.625-2.227h-0.21c-1.848,0-2.583,0.819-2.583,2.227v0.084
				c0,1.217,0.651,2.162,2.268,2.162h0.861c1.617,0,2.289-0.945,2.289-2.162V444.099z M853.538,450.797
				c0-1.008-0.567-2.31-2.226-2.31h-0.861c-1.658,0-2.225,1.302-2.225,2.31v0.189c0,1.406,0.84,2.498,2.54,2.498h0.21
				c1.701,0,2.562-1.092,2.562-2.498V450.797z"/>
			<path fill="#5BA4C2" d="M875.986,440.361l-3.443,13.165c-0.504,1.952-2.016,2.142-2.918,2.142c-0.903,0-2.415-0.189-2.919-2.142
				l-3.443-13.165c0-0.041-0.021-0.062-0.021-0.104c0-0.21,0.168-0.356,0.377-0.356h2.227c0.188,0,0.356,0.168,0.398,0.356
				l3.045,12.618c0.062,0.252,0.125,0.336,0.336,0.336c0.209,0,0.272-0.084,0.336-0.336l3.044-12.618
				c0.042-0.188,0.21-0.356,0.399-0.356h2.225c0.211,0,0.379,0.146,0.379,0.356C876.008,440.299,875.986,440.32,875.986,440.361z"/>
			<path fill="#5BA4C2" d="M885.08,455.5h-1.785c-0.23,0-0.42-0.189-0.42-0.42v-0.336c-0.966,0.588-1.953,0.924-2.961,0.924
				c-1.742,0-3.632-0.672-3.632-3.506v-0.084c0-2.395,1.47-3.633,5.123-3.633h1.323v-0.924c0-1.365-0.609-1.701-1.848-1.701
				c-1.344,0-2.73,0.084-3.423,0.168c-0.042,0-0.084,0-0.104,0c-0.211,0-0.379-0.062-0.379-0.356v-1.344
				c0-0.231,0.127-0.378,0.399-0.44c0.84-0.168,2.058-0.336,3.507-0.336c2.98,0,4.619,1.322,4.619,4.01v7.559
				C885.5,455.31,885.311,455.5,885.08,455.5z M882.729,450.293h-1.323c-1.911,0-2.331,0.609-2.331,1.785v0.084
				c0,1.028,0.463,1.301,1.512,1.301c0.756,0,1.533-0.252,2.143-0.588V450.293z"/>
			<path fill="#5BA4C2" d="M892.073,455.668c-0.819,0-2.583-0.105-3.759-0.42c-0.252-0.062-0.398-0.23-0.398-0.482v-1.26
				c0-0.168,0.146-0.336,0.357-0.336c0.041,0,0.062,0,0.084,0c1.008,0.125,2.896,0.23,3.527,0.23c1.301,0,1.49-0.441,1.49-1.008
				c0-0.398-0.252-0.65-0.924-1.07l-2.877-1.764c-1.028-0.631-1.764-1.68-1.764-2.898c0-2.1,1.323-3.148,3.99-3.148
				c1.7,0,2.666,0.188,3.736,0.42c0.252,0.062,0.379,0.23,0.379,0.482v1.218c0,0.252-0.127,0.399-0.336,0.399
				c-0.043,0-0.063,0-0.084,0c-0.588-0.084-2.268-0.252-3.465-0.252c-1.008,0-1.449,0.23-1.449,0.881
				c0,0.336,0.315,0.547,0.84,0.861l2.751,1.68c1.764,1.07,2.016,2.121,2.016,3.191
				C896.188,454.219,894.824,455.668,892.073,455.668z"/>
			<path fill="#5BA4C2" d="M903.161,455.668c-3.296,0-5.019-2.226-5.019-5.229v-1.7c0-3.003,1.723-5.228,5.019-5.228
				s5.019,2.225,5.019,5.228v1.7C908.18,453.442,906.457,455.668,903.161,455.668z M905.408,448.739
				c0-1.722-0.777-2.835-2.247-2.835s-2.247,1.113-2.247,2.835v1.7c0,1.723,0.777,2.835,2.247,2.835s2.247-1.112,2.247-2.835
				V448.739z"/>
			<path fill="#5BA4C2" d="M914.396,455.668c-0.819,0-2.583-0.105-3.759-0.42c-0.252-0.062-0.399-0.23-0.399-0.482v-1.26
				c0-0.168,0.147-0.336,0.357-0.336c0.042,0,0.062,0,0.084,0c1.008,0.125,2.897,0.23,3.527,0.23c1.302,0,1.49-0.441,1.49-1.008
				c0-0.398-0.252-0.65-0.924-1.07l-2.876-1.764c-1.028-0.631-1.764-1.68-1.764-2.898c0-2.1,1.323-3.148,3.989-3.148
				c1.701,0,2.666,0.188,3.737,0.42c0.252,0.062,0.378,0.23,0.378,0.482v1.218c0,0.252-0.126,0.399-0.336,0.399
				c-0.042,0-0.062,0-0.084,0c-0.588-0.084-2.268-0.252-3.465-0.252c-1.008,0-1.448,0.23-1.448,0.881
				c0,0.336,0.315,0.547,0.84,0.861l2.751,1.68c1.764,1.07,2.016,2.121,2.016,3.191
				C918.512,454.219,917.146,455.668,914.396,455.668z"/>
		</g>
		<g>
			<g>
				<g>
					<g>
						<polygon fill="#E6FFE5" points="781.417,473.395 780.49,465.302 784.402,465.302 784.402,462.174 779.6,462.174 
							779.908,464.872 780.972,474.174 784.402,474.174 784.402,473.395 						"/>
						<polygon fill="#D0E9EF" points="784.402,462.174 784.402,465.302 788.313,465.302 787.388,473.395 784.402,473.395 
							784.402,474.174 787.832,474.174 788.896,464.872 789.205,462.174 						"/>
						<polygon fill="#76CDD7" points="787.388,473.395 788.313,465.302 784.402,465.302 784.402,473.395 						"/>
						<polygon fill="#AAE0DE" points="781.417,473.395 784.402,473.395 784.402,465.302 780.49,465.302 						"/>
					</g>
				</g>
			</g>
			<g>
				<g>
					<g>
						<polygon fill="#E6FFE5" points="793.931,473.395 793.004,465.302 796.916,465.302 796.916,462.174 792.113,462.174 
							792.422,464.872 793.485,474.174 796.916,474.174 796.916,473.395 						"/>
						<polygon fill="#D0E9EF" points="796.916,462.174 796.916,465.302 800.827,465.302 799.901,473.395 796.916,473.395 
							796.916,474.174 800.346,474.174 801.409,464.872 801.719,462.174 						"/>
						<polygon fill="#76CDD7" points="799.901,473.395 800.827,465.302 796.916,465.302 796.916,473.395 						"/>
						<polygon fill="#AAE0DE" points="793.931,473.395 796.916,473.395 796.916,465.302 793.004,465.302 						"/>
					</g>
				</g>
			</g>
			<g>
				<g>
					<g>
						<polygon fill="#E6FFE5" points="806.443,473.395 805.518,465.302 809.43,465.302 809.43,462.174 804.627,462.174 
							804.936,464.872 805.998,474.174 809.43,474.174 809.43,473.395 						"/>
						<polygon fill="#D0E9EF" points="809.43,462.174 809.43,465.302 813.34,465.302 812.414,473.395 809.43,473.395 
							809.43,474.174 812.859,474.174 813.922,464.872 814.232,462.174 						"/>
						<polygon fill="#76CDD7" points="812.414,473.395 813.34,465.302 809.43,465.302 809.43,473.395 						"/>
						<polygon fill="#AAE0DE" points="806.443,473.395 809.43,473.395 809.43,465.302 805.518,465.302 						"/>
					</g>
				</g>
			</g>
			<g>
				<g>
					<g>
						<polygon fill="#E6FFE5" points="818.957,473.395 818.03,465.302 821.942,465.302 821.942,462.174 817.14,462.174 
							817.448,464.872 818.512,474.174 821.942,474.174 821.942,473.395 						"/>
						<polygon fill="#D0E9EF" points="821.942,462.174 821.942,465.302 825.854,465.302 824.928,473.395 821.942,473.395 
							821.942,474.174 825.372,474.174 826.436,464.872 826.745,462.174 						"/>
						<polygon fill="#76CDD7" points="824.928,473.395 825.854,465.302 821.942,465.302 821.942,473.395 						"/>
						<polygon fill="#AAE0DE" points="818.957,473.395 821.942,473.395 821.942,465.302 818.03,465.302 						"/>
					</g>
				</g>
			</g>
			<g>
				<g>
					<g>
						<polygon fill="#E6FFE5" points="831.471,473.395 830.544,465.302 834.456,465.302 834.456,462.174 829.653,462.174 
							829.962,464.872 831.025,474.174 834.456,474.174 834.456,473.395 						"/>
						<polygon fill="#D0E9EF" points="834.456,462.174 834.456,465.302 838.367,465.302 837.441,473.395 834.456,473.395 
							834.456,474.174 837.886,474.174 838.949,464.872 839.259,462.174 						"/>
						<polygon fill="#76CDD7" points="837.441,473.395 838.367,465.302 834.456,465.302 834.456,473.395 						"/>
						<polygon fill="#AAE0DE" points="831.471,473.395 834.456,473.395 834.456,465.302 830.544,465.302 						"/>
					</g>
				</g>
			</g>
			<g>
				<g>
					<g>
						<polygon fill="#E6FFE5" points="843.984,473.395 843.058,465.302 846.97,465.302 846.97,462.174 842.167,462.174 
							842.476,464.872 843.539,474.174 846.97,474.174 846.97,473.395 						"/>
						<polygon fill="#D0E9EF" points="846.97,462.174 846.97,465.302 850.881,465.302 849.955,473.395 846.97,473.395 
							846.97,474.174 850.399,474.174 851.463,464.872 851.772,462.174 						"/>
						<polygon fill="#76CDD7" points="849.955,473.395 850.881,465.302 846.97,465.302 846.97,473.395 						"/>
						<polygon fill="#AAE0DE" points="843.984,473.395 846.97,473.395 846.97,465.302 843.058,465.302 						"/>
					</g>
				</g>
			</g>
			<g>
				<g>
					<g>
						<polygon fill="#E6FFE5" points="856.498,473.395 855.57,465.302 859.482,465.302 859.482,462.174 854.68,462.174 
							854.988,464.872 856.053,474.174 859.482,474.174 859.482,473.395 						"/>
						<polygon fill="#D0E9EF" points="859.482,462.174 859.482,465.302 863.396,465.302 862.469,473.395 859.482,473.395 
							859.482,474.174 862.912,474.174 863.977,464.872 864.285,462.174 						"/>
						<polygon fill="#76CDD7" points="862.469,473.395 863.396,465.302 859.482,465.302 859.482,473.395 						"/>
						<polygon fill="#AAE0DE" points="856.498,473.395 859.482,473.395 859.482,465.302 855.57,465.302 						"/>
					</g>
				</g>
			</g>
			<g>
				<g>
					<g>
						<polygon fill="#E6FFE5" points="869.011,473.395 868.084,465.302 871.996,465.302 871.996,462.174 867.193,462.174 
							867.502,464.872 868.565,474.174 871.996,474.174 871.996,473.395 						"/>
						<polygon fill="#D0E9EF" points="871.996,462.174 871.996,465.302 875.908,465.302 874.982,473.395 871.996,473.395 
							871.996,474.174 875.426,474.174 876.49,464.872 876.799,462.174 						"/>
						<polygon fill="#76CDD7" points="874.982,473.395 875.908,465.302 871.996,465.302 871.996,473.395 						"/>
						<polygon fill="#AAE0DE" points="869.011,473.395 871.996,473.395 871.996,465.302 868.084,465.302 						"/>
					</g>
				</g>
			</g>
		</g>
	</g>
</g>
</svg>
