<?xml version="1.0" encoding="utf-8"?>
<!-- Generator: Adobe Illustrator 16.0.0, SVG Export Plug-In . SVG Version: 6.00 Build 0)  -->
<!DOCTYPE svg PUBLIC "-//W3C//DTD SVG 1.1//EN" "http://www.w3.org/Graphics/SVG/1.1/DTD/svg11.dtd">
<svg version="1.1" id="Layer_1" xmlns="http://www.w3.org/2000/svg" xmlns:xlink="http://www.w3.org/1999/xlink" x="0px" y="0px"
	 width="1280px" height="700px" viewBox="0 0 1280 700" enable-background="new 0 0 1280 700" xml:space="preserve">
<g id="Miscelaneas">
	<g>
		<g>
			<g>
				<path fill="none" stroke="#5BA4C2" stroke-width="0.75" stroke-miterlimit="10" d="M640.3,654c0,0,0-14.3,0-19.3
					c0-3.1,1-4.1,3.7-4.1s144.9,0,144.9,0c3,0,3.8-1.4,3.8-5c0-3.4-0.3-9.3-0.3-13c0-3.5,0.899-5.4,3.3-6v-0.2
					c-2.4-0.7-3.3-2.4-3.3-6c0-3.8,0.3-6.6,0.3-10"/>
			</g>
			<g>
				<path fill="none" stroke="#5BA4C2" stroke-width="0.75" stroke-miterlimit="10" d="M489,590.2c0,3.4,0.3,6.3,0.3,10
					c0,3.601-0.899,5.4-3.3,6v0.2c2.4,0.7,3.3,2.5,3.3,6c0,3.8-0.3,9.6-0.3,13c0,3.6,0.8,5,3.8,5c0,0,141.2,0,143.9,0
					c2.699,0,3.7,1,3.7,4.1c0,5,0,19.301,0,19.301"/>
			</g>
		</g>
		<g>
			<g>
				<path fill="#5BA4C2" d="M643.8,653.9L643.8,653.9l-3.5-6.9l0,0l0,0l0,0l0,0l-3.7,6.801l0,0c-0.3,0.6-0.5,1.3-0.6,2
					c0,2.3,1.8,4.1,4.1,4.199c2.301,0,4.101-1.8,4.2-4.1C644.3,655.2,644.1,654.5,643.8,653.9z"/>
				<g>
					<g>
						<path fill="#72ADC8" d="M639,659C638.9,659,638.9,659,639,659c-2.1-0.399-2.4-2.6-2.3-3.699c0-0.2,0.2-0.301,0.399-0.301
							c0.2,0,0.301,0.2,0.301,0.4c0,0.1-0.301,2.5,1.6,2.9c0.2,0,0.3,0.2,0.3,0.399C639.3,658.9,639.1,659,639,659z"/>
					</g>
				</g>
			</g>
			<path fill="#72ADC8" d="M644.3,655.9c0-0.7-0.2-1.4-0.5-2l0,0l-3.5-6.9l0,0l0,0l0,0v13C642.5,659.9,644.3,658.2,644.3,655.9z"/>
			<g>
				<g>
					<path fill="#E2D4D5" d="M641.9,653.4l-0.801-2c-0.1-0.1-0.1-0.4,0-0.4c0.101,0,0.301,0.101,0.301,0.301l1,1.899
						c0.1,0.101,0,0.4-0.101,0.5C642.2,653.7,642,653.6,641.9,653.4z"/>
				</g>
				<ellipse fill="#E2D4D5" cx="642.582" cy="654.281" rx="0.4" ry="0.4"/>
			</g>
		</g>
		<g>
			<g>
				<path fill="#5BA4C2" d="M644,665.9L644,665.9l-1.9-3.8l0,0l0,0l0,0l0,0l-2,3.7l0,0c-0.199,0.3-0.3,0.7-0.3,1.1
					c0,1.3,1,2.3,2.2,2.3c1.3,0,2.3-1,2.3-2.2C644.3,666.6,644.2,666.2,644,665.9z"/>
				<g>
					<g>
						<path fill="#72ADC8" d="M641.3,668.7L641.3,668.7c-1.2-0.2-1.3-1.399-1.3-2c0-0.1,0.1-0.2,0.2-0.2c0.1,0,0.2,0.101,0.2,0.2
							c0,0.101-0.101,1.4,0.899,1.601c0.101,0,0.2,0.1,0.2,0.199C641.5,668.7,641.4,668.7,641.3,668.7z"/>
					</g>
				</g>
			</g>
			<path fill="#72ADC8" d="M644.3,667c0-0.399-0.1-0.8-0.3-1.1l0,0l-1.9-3.8l0,0l0,0l0,0v7.2C643.3,669.2,644.3,668.2,644.3,667z"/>
			<g>
				<g>
					<path fill="#E2D4D5" d="M643,665.6l-0.4-1.101c0-0.1-0.1-0.199,0-0.199c0.101,0,0.2,0.1,0.2,0.1l0.5,1.1
						c0,0.101,0,0.2-0.1,0.301C643.1,665.801,643,665.7,643,665.6z"/>
				</g>
				<ellipse fill="#E2D4D5" cx="643.405" cy="666.101" rx="0.2" ry="0.2"/>
			</g>
		</g>
	</g>
</g>
<g enable-background="new    ">
	<path fill="#5BA4C2" d="M539.115,592.138h-1.485c-0.126,0-0.238-0.112-0.266-0.238l-0.645-2.661h-3.222l-0.645,2.661
		c-0.028,0.126-0.14,0.238-0.266,0.238h-1.485c-0.14,0-0.252-0.098-0.252-0.238c0-0.014,0.014-0.042,0.014-0.07l2.297-8.782
		c0.336-1.303,1.345-1.429,1.947-1.429s1.611,0.126,1.947,1.429l2.297,8.782c0,0.028,0.014,0.057,0.014,0.07
		C539.367,592.041,539.255,592.138,539.115,592.138z M535.333,583.482c-0.042-0.169-0.084-0.225-0.224-0.225
		s-0.182,0.056-0.224,0.225l-1.008,4.16h2.465L535.333,583.482z"/>
	<path fill="#5BA4C2" d="M546.464,584.56l-2.339,8.181c-0.434,1.526-0.952,2.199-2.857,2.199c-0.462,0-1.163-0.084-1.485-0.183
		c-0.154-0.042-0.294-0.098-0.294-0.238v-0.896c0-0.153,0.126-0.252,0.28-0.252c0.014,0,0.014,0,0.028,0
		c0.392,0.015,1.19,0.084,1.583,0.084c0.602,0,0.91-0.168,1.106-0.896l0.112-0.42h-0.21c-0.406,0-0.911-0.098-1.219-1.163
		l-1.835-6.415c-0.014-0.042-0.014-0.07-0.014-0.098c0-0.141,0.084-0.225,0.266-0.225h1.415c0.126,0,0.238,0.126,0.266,0.252
		l1.415,5.701c0.056,0.238,0.112,0.309,0.196,0.309h0.014c0.028,0,0.056,0,0.07,0c0.042,0,0.042,0,0.042,0l1.513-6.023
		c0.028-0.126,0.14-0.238,0.28-0.238h1.429c0.14,0,0.252,0.112,0.252,0.238C546.478,584.505,546.478,584.532,546.464,584.56z"/>
	<path fill="#5BA4C2" d="M553.926,592.138h-1.289c-0.154,0-0.28-0.126-0.28-0.28v-0.322c-0.729,0.477-1.303,0.7-2.199,0.7
		c-0.701,0-1.317-0.182-1.723-0.588c-0.518-0.519-0.7-1.387-0.7-2.55v-4.566c0-0.153,0.126-0.294,0.28-0.294h1.289
		c0.154,0,0.28,0.141,0.28,0.294v4.566c0,0.701,0.056,1.107,0.322,1.345c0.196,0.169,0.435,0.253,0.869,0.253
		c0.518,0,1.19-0.351,1.583-0.561v-5.604c0-0.153,0.126-0.294,0.28-0.294h1.289c0.154,0,0.28,0.141,0.28,0.294v7.326
		C554.206,592.012,554.08,592.138,553.926,592.138z"/>
	<path fill="#5BA4C2" d="M561.905,591.886c-0.868,0.224-1.919,0.364-2.815,0.364c-2.255,0-3.348-1.331-3.348-3.517v-1.078
		c0-2.186,1.093-3.516,3.348-3.516c0.336,0,0.827,0.027,1.345,0.098v-2.479c0-0.153,0.126-0.28,0.28-0.28h1.289
		c0.154,0,0.28,0.127,0.28,0.28v9.75C562.284,591.719,562.228,591.802,561.905,591.886z M560.435,585.751
		c-0.392-0.056-1.008-0.098-1.345-0.098c-1.205,0-1.499,0.854-1.499,2.003v1.078c0,1.149,0.294,2.004,1.499,2.004
		c0.504,0,1.079-0.042,1.345-0.099V585.751z"/>
	<path fill="#5BA4C2" d="M569.675,592.138h-1.19c-0.154,0-0.28-0.126-0.28-0.28v-0.224c-0.644,0.392-1.303,0.616-1.975,0.616
		c-1.163,0-2.423-0.448-2.423-2.34v-0.056c0-1.597,0.98-2.424,3.418-2.424h0.882v-0.616c0-0.91-0.406-1.134-1.232-1.134
		c-0.896,0-1.821,0.056-2.283,0.111c-0.028,0-0.056,0-0.07,0c-0.14,0-0.252-0.042-0.252-0.238v-0.896
		c0-0.153,0.084-0.252,0.266-0.294c0.56-0.112,1.373-0.224,2.339-0.224c1.989,0,3.082,0.882,3.082,2.675v5.043
		C569.956,592.012,569.83,592.138,569.675,592.138z M568.106,588.665h-0.882c-1.275,0-1.555,0.406-1.555,1.19v0.056
		c0,0.687,0.308,0.869,1.008,0.869c0.504,0,1.022-0.168,1.429-0.393V588.665z"/>
	<path fill="#5BA4C2" d="M580.847,592.138h-1.19c-0.154,0-0.28-0.126-0.28-0.28v-0.224c-0.644,0.392-1.303,0.616-1.975,0.616
		c-1.163,0-2.423-0.448-2.423-2.34v-0.056c0-1.597,0.98-2.424,3.418-2.424h0.882v-0.616c0-0.91-0.406-1.134-1.232-1.134
		c-0.896,0-1.821,0.056-2.283,0.111c-0.028,0-0.056,0-0.07,0c-0.14,0-0.252-0.042-0.252-0.238v-0.896
		c0-0.153,0.084-0.252,0.266-0.294c0.56-0.112,1.373-0.224,2.339-0.224c1.989,0,3.082,0.882,3.082,2.675v5.043
		C581.127,592.012,581.001,592.138,580.847,592.138z M579.278,588.665h-0.882c-1.275,0-1.555,0.406-1.555,1.19v0.056
		c0,0.687,0.308,0.869,1.008,0.869c0.504,0,1.022-0.168,1.429-0.393V588.665z"/>
	<path fill="#5BA4C2" d="M592.327,591.886c-0.868,0.224-1.919,0.364-2.815,0.364c-2.255,0-3.348-1.331-3.348-3.517v-1.078
		c0-2.186,1.093-3.516,3.348-3.516c0.336,0,0.827,0.027,1.345,0.098v-2.479c0-0.153,0.126-0.28,0.28-0.28h1.289
		c0.154,0,0.28,0.127,0.28,0.28v9.75C592.706,591.719,592.649,591.802,592.327,591.886z M590.856,585.751
		c-0.392-0.056-1.008-0.098-1.345-0.098c-1.205,0-1.499,0.854-1.499,2.003v1.078c0,1.149,0.294,2.004,1.499,2.004
		c0.504,0,1.079-0.042,1.345-0.099V585.751z"/>
	<path fill="#5BA4C2" d="M596.175,583.187h-1.359c-0.154,0-0.294-0.126-0.294-0.28v-1.232c0-0.154,0.14-0.28,0.294-0.28h1.359
		c0.154,0,0.28,0.126,0.28,0.28v1.232C596.455,583.061,596.329,583.187,596.175,583.187z M596.133,592.138h-1.289
		c-0.154,0-0.28-0.14-0.28-0.294v-7.326c0-0.154,0.126-0.28,0.28-0.28h1.289c0.154,0,0.28,0.126,0.28,0.28v7.326
		C596.413,591.999,596.287,592.138,596.133,592.138z"/>
	<path fill="#5BA4C2" d="M604.927,585.512l-0.462,0.183c0.224,0.322,0.35,0.63,0.35,1.12v0.099c0,1.751-1.205,2.549-3.32,2.549
		c-0.743,0-1.247-0.126-1.527-0.238c-0.168,0.112-0.238,0.238-0.238,0.364c0,0.28,0.154,0.393,0.477,0.463l1.653,0.392
		c1.905,0.448,3.138,0.743,3.138,2.241v0.099c0,1.429-1.051,2.199-3.432,2.199c-2.269,0-3.474-0.854-3.474-2.325v-0.126
		c0-0.574,0.266-1.135,0.714-1.541c-0.392-0.294-0.63-0.784-0.63-1.289v-0.014c0-0.435,0.182-0.868,0.56-1.135
		c-0.42-0.435-0.574-0.938-0.574-1.639v-0.099c0-1.4,0.911-2.577,3.334-2.577h3.278c0.21,0,0.378,0.168,0.378,0.378v0.589
		C605.151,585.415,605.096,585.443,604.927,585.512z M603.148,592.684c0-0.308-0.182-0.49-1.653-0.84l-1.247-0.294
		c-0.21,0.294-0.351,0.476-0.351,0.98v0.126c0,0.574,0.351,0.924,1.667,0.924c1.345,0,1.583-0.294,1.583-0.798V592.684z
		 M602.994,586.844c0-0.672-0.294-1.19-1.499-1.19c-1.191,0-1.513,0.532-1.513,1.19v0.112c0,0.519,0.21,1.106,1.513,1.106
		c1.163,0,1.499-0.406,1.499-1.106V586.844z"/>
	<path fill="#5BA4C2" d="M612.627,588.833h-4.566v0.042c0,0.812,0.336,1.779,1.681,1.779c1.022,0,1.989-0.084,2.578-0.141
		c0.014,0,0.028,0,0.042,0c0.14,0,0.252,0.07,0.252,0.21v0.925c0,0.224-0.042,0.322-0.294,0.364
		c-0.911,0.168-1.457,0.238-2.718,0.238c-1.4,0-3.39-0.757-3.39-3.517v-1.036c0-2.186,1.219-3.558,3.362-3.558
		c2.157,0,3.334,1.471,3.334,3.558v0.784C612.908,588.707,612.823,588.833,612.627,588.833z M611.044,587.46
		c0-1.093-0.602-1.723-1.471-1.723s-1.499,0.616-1.499,1.723v0.057h2.97V587.46z"/>
	<path fill="#5BA4C2" d="M618.268,585.709c-0.756,0-1.345,0.196-1.933,0.505v5.631c0,0.154-0.126,0.294-0.28,0.294h-1.289
		c-0.154,0-0.28-0.14-0.28-0.294v-7.326c0-0.154,0.126-0.28,0.28-0.28h1.219c0.154,0,0.28,0.126,0.28,0.28v0.294
		c0.687-0.532,1.443-0.672,2.003-0.672c0.154,0,0.28,0.126,0.28,0.28v1.008C618.548,585.583,618.422,585.709,618.268,585.709z"/>
	<path fill="#5BA4C2" d="M621.389,583.187h-1.359c-0.154,0-0.294-0.126-0.294-0.28v-1.232c0-0.154,0.14-0.28,0.294-0.28h1.359
		c0.154,0,0.28,0.126,0.28,0.28v1.232C621.669,583.061,621.542,583.187,621.389,583.187z M621.347,592.138h-1.289
		c-0.154,0-0.28-0.14-0.28-0.294v-7.326c0-0.154,0.126-0.28,0.28-0.28h1.289c0.154,0,0.28,0.126,0.28,0.28v7.326
		C621.627,591.999,621.5,592.138,621.347,592.138z"/>
	<path fill="#5BA4C2" d="M627.27,585.709c-0.756,0-1.345,0.196-1.933,0.505v5.631c0,0.154-0.126,0.294-0.28,0.294h-1.289
		c-0.154,0-0.28-0.14-0.28-0.294v-7.326c0-0.154,0.126-0.28,0.28-0.28h1.219c0.154,0,0.28,0.126,0.28,0.28v0.294
		c0.687-0.532,1.443-0.672,2.003-0.672c0.154,0,0.28,0.126,0.28,0.28v1.008C627.55,585.583,627.424,585.709,627.27,585.709z"/>
	<path fill="#5BA4C2" d="M633.891,592.138h-1.303c-0.154,0-0.28-0.14-0.28-0.294v-10.086c0-0.153,0.126-0.28,0.28-0.28h1.303
		c0.154,0,0.266,0.127,0.266,0.28v10.086C634.157,591.999,634.044,592.138,633.891,592.138z"/>
	<path fill="#5BA4C2" d="M639.155,592.251c-2.199,0-3.348-1.485-3.348-3.488v-1.135c0-2.003,1.148-3.487,3.348-3.487
		c2.199,0,3.348,1.484,3.348,3.487v1.135C642.503,590.765,641.354,592.251,639.155,592.251z M640.654,587.628
		c0-1.148-0.519-1.891-1.5-1.891s-1.499,0.742-1.499,1.891v1.135c0,1.148,0.518,1.892,1.499,1.892s1.5-0.743,1.5-1.892V587.628z"/>
	<path fill="#5BA4C2" d="M646.645,592.251c-0.546,0-1.723-0.07-2.508-0.28c-0.168-0.042-0.266-0.154-0.266-0.322v-0.841
		c0-0.111,0.098-0.224,0.238-0.224c0.027,0,0.042,0,0.057,0c0.672,0.084,1.933,0.154,2.353,0.154c0.868,0,0.995-0.295,0.995-0.673
		c0-0.266-0.168-0.435-0.617-0.714l-1.918-1.177c-0.688-0.421-1.178-1.121-1.178-1.934c0-1.4,0.883-2.101,2.662-2.101
		c1.135,0,1.779,0.126,2.493,0.28c0.168,0.042,0.252,0.153,0.252,0.321v0.812c0,0.169-0.084,0.267-0.224,0.267
		c-0.028,0-0.043,0-0.057,0c-0.393-0.056-1.513-0.168-2.311-0.168c-0.673,0-0.967,0.154-0.967,0.588c0,0.225,0.21,0.364,0.561,0.574
		l1.834,1.121c1.178,0.714,1.346,1.415,1.346,2.129C649.391,591.284,648.48,592.251,646.645,592.251z"/>
	<path fill="#5BA4C2" d="M660.002,592.138h-1.19c-0.154,0-0.28-0.126-0.28-0.28v-0.224c-0.645,0.392-1.303,0.616-1.975,0.616
		c-1.163,0-2.424-0.448-2.424-2.34v-0.056c0-1.597,0.98-2.424,3.418-2.424h0.883v-0.616c0-0.91-0.406-1.134-1.232-1.134
		c-0.896,0-1.822,0.056-2.283,0.111c-0.029,0-0.057,0-0.07,0c-0.141,0-0.252-0.042-0.252-0.238v-0.896
		c0-0.153,0.084-0.252,0.266-0.294c0.561-0.112,1.373-0.224,2.34-0.224c1.988,0,3.081,0.882,3.081,2.675v5.043
		C660.282,592.012,660.156,592.138,660.002,592.138z M658.434,588.665h-0.883c-1.275,0-1.555,0.406-1.555,1.19v0.056
		c0,0.687,0.309,0.869,1.008,0.869c0.505,0,1.023-0.168,1.43-0.393V588.665z"/>
	<path fill="#5BA4C2" d="M663.752,592.138h-1.303c-0.154,0-0.28-0.14-0.28-0.294v-10.086c0-0.153,0.126-0.28,0.28-0.28h1.303
		c0.154,0,0.266,0.127,0.266,0.28v10.086C664.018,591.999,663.906,592.138,663.752,592.138z"/>
	<path fill="#5BA4C2" d="M667.561,583.187h-1.359c-0.154,0-0.294-0.126-0.294-0.28v-1.232c0-0.154,0.14-0.28,0.294-0.28h1.359
		c0.153,0,0.279,0.126,0.279,0.28v1.232C667.84,583.061,667.714,583.187,667.561,583.187z M667.518,592.138h-1.288
		c-0.154,0-0.28-0.14-0.28-0.294v-7.326c0-0.154,0.126-0.28,0.28-0.28h1.288c0.154,0,0.28,0.126,0.28,0.28v7.326
		C667.798,591.999,667.672,592.138,667.518,592.138z"/>
	<path fill="#5BA4C2" d="M679.437,592.138h-1.289c-0.153,0-0.28-0.14-0.28-0.294v-4.763c0-1.079-0.224-1.358-1.008-1.358
		c-0.267,0-0.799,0.084-1.303,0.35c0.041,0.309,0.056,0.658,0.056,1.009v4.763c0,0.154-0.126,0.294-0.28,0.294h-1.289
		c-0.154,0-0.279-0.14-0.279-0.294v-4.763c0-1.079-0.183-1.358-0.967-1.358c-0.295,0-0.715,0.153-1.289,0.462v5.659
		c0,0.154-0.126,0.294-0.279,0.294h-1.289c-0.154,0-0.28-0.14-0.28-0.294v-7.326c0-0.154,0.126-0.28,0.28-0.28h1.219
		c0.154,0,0.279,0.126,0.279,0.28v0.294c0.589-0.378,1.178-0.672,2.004-0.672c0.798,0,1.316,0.238,1.639,0.63
		c0.715-0.392,1.345-0.63,2.311-0.63c1.906,0,2.326,1.303,2.326,2.941v4.763C679.717,591.999,679.59,592.138,679.437,592.138z"/>
	<path fill="#5BA4C2" d="M687.708,588.833h-4.566v0.042c0,0.812,0.336,1.779,1.681,1.779c1.022,0,1.989-0.084,2.578-0.141
		c0.014,0,0.027,0,0.041,0c0.141,0,0.252,0.07,0.252,0.21v0.925c0,0.224-0.041,0.322-0.293,0.364
		c-0.911,0.168-1.457,0.238-2.719,0.238c-1.4,0-3.389-0.757-3.389-3.517v-1.036c0-2.186,1.219-3.558,3.361-3.558
		c2.157,0,3.334,1.471,3.334,3.558v0.784C687.988,588.707,687.904,588.833,687.708,588.833z M686.125,587.46
		c0-1.093-0.602-1.723-1.471-1.723s-1.499,0.616-1.499,1.723v0.057h2.97V587.46z"/>
	<path fill="#5BA4C2" d="M695.758,592.138h-1.289c-0.153,0-0.279-0.14-0.279-0.294v-4.566c0-1.219-0.112-1.569-1.191-1.569
		c-0.476,0-0.994,0.196-1.582,0.505v5.631c0,0.154-0.127,0.294-0.28,0.294h-1.289c-0.153,0-0.28-0.14-0.28-0.294v-7.326
		c0-0.154,0.127-0.28,0.28-0.28h1.219c0.154,0,0.28,0.126,0.28,0.28v0.294c0.812-0.518,1.345-0.672,2.27-0.672
		c2.017,0,2.423,1.358,2.423,3.138v4.566C696.038,591.999,695.912,592.138,695.758,592.138z"/>
	<path fill="#5BA4C2" d="M701.721,592.152c-0.336,0.057-0.645,0.099-0.953,0.099c-1.582,0-2.227-0.351-2.227-2.228v-4.398
		l-1.316-0.196c-0.154-0.027-0.28-0.126-0.28-0.28v-0.63c0-0.154,0.126-0.28,0.28-0.28h1.316v-1.148c0-0.154,0.126-0.252,0.28-0.28
		l1.303-0.224c0.014,0,0.042,0,0.056,0c0.127,0,0.225,0.069,0.225,0.21v1.442h1.26c0.154,0,0.281,0.126,0.281,0.28v0.826
		c0,0.154-0.127,0.28-0.281,0.28h-1.26v4.398c0,0.7,0.042,0.784,0.546,0.784h0.743c0.182,0,0.293,0.07,0.293,0.21v0.883
		C701.986,592.041,701.902,592.125,701.721,592.152z"/>
	<path fill="#5BA4C2" d="M706.215,592.251c-2.199,0-3.348-1.485-3.348-3.488v-1.135c0-2.003,1.148-3.487,3.348-3.487
		s3.348,1.484,3.348,3.487v1.135C709.562,590.765,708.414,592.251,706.215,592.251z M707.713,587.628
		c0-1.148-0.518-1.891-1.498-1.891s-1.499,0.742-1.499,1.891v1.135c0,1.148,0.519,1.892,1.499,1.892s1.498-0.743,1.498-1.892
		V587.628z"/>
	<path fill="#5BA4C2" d="M713.704,592.251c-0.546,0-1.724-0.07-2.508-0.28c-0.168-0.042-0.267-0.154-0.267-0.322v-0.841
		c0-0.111,0.099-0.224,0.238-0.224c0.028,0,0.043,0,0.057,0c0.672,0.084,1.934,0.154,2.354,0.154c0.868,0,0.994-0.295,0.994-0.673
		c0-0.266-0.168-0.435-0.616-0.714l-1.919-1.177c-0.687-0.421-1.177-1.121-1.177-1.934c0-1.4,0.882-2.101,2.661-2.101
		c1.135,0,1.779,0.126,2.494,0.28c0.168,0.042,0.252,0.153,0.252,0.321v0.812c0,0.169-0.084,0.267-0.225,0.267
		c-0.027,0-0.042,0-0.056,0c-0.393-0.056-1.513-0.168-2.312-0.168c-0.672,0-0.967,0.154-0.967,0.588
		c0,0.225,0.211,0.364,0.561,0.574l1.835,1.121c1.177,0.714,1.345,1.415,1.345,2.129
		C716.449,591.284,715.539,592.251,713.704,592.251z"/>
	<path fill="#5BA4C2" d="M727.468,594.912h-1.288c-0.154,0-0.281-0.126-0.281-0.28v-2.479c-0.518,0.07-1.008,0.099-1.344,0.099
		c-2.256,0-3.348-1.331-3.348-3.517v-1.078c0-2.186,1.092-3.516,3.348-3.516c0.896,0,1.947,0.14,2.814,0.364
		c0.322,0.084,0.379,0.168,0.379,0.378v9.749C727.748,594.786,727.622,594.912,727.468,594.912z M725.898,585.751
		c-0.266-0.056-0.84-0.098-1.344-0.098c-1.205,0-1.499,0.854-1.499,2.003v1.078c0,1.149,0.294,2.004,1.499,2.004
		c0.336,0,0.952-0.042,1.344-0.099V585.751z"/>
	<path fill="#5BA4C2" d="M735.756,592.138h-1.289c-0.154,0-0.279-0.126-0.279-0.28v-0.322c-0.729,0.477-1.303,0.7-2.199,0.7
		c-0.701,0-1.317-0.182-1.724-0.588c-0.519-0.519-0.7-1.387-0.7-2.55v-4.566c0-0.153,0.126-0.294,0.279-0.294h1.289
		c0.154,0,0.28,0.141,0.28,0.294v4.566c0,0.701,0.056,1.107,0.322,1.345c0.196,0.169,0.435,0.253,0.868,0.253
		c0.519,0,1.191-0.351,1.584-0.561v-5.604c0-0.153,0.125-0.294,0.279-0.294h1.289c0.154,0,0.279,0.141,0.279,0.294v7.326
		C736.035,592.012,735.91,592.138,735.756,592.138z"/>
	<path fill="#5BA4C2" d="M744.029,588.833h-4.566v0.042c0,0.812,0.336,1.779,1.682,1.779c1.021,0,1.988-0.084,2.577-0.141
		c0.014,0,0.028,0,0.042,0c0.141,0,0.252,0.07,0.252,0.21v0.925c0,0.224-0.042,0.322-0.294,0.364
		c-0.911,0.168-1.457,0.238-2.718,0.238c-1.4,0-3.39-0.757-3.39-3.517v-1.036c0-2.186,1.219-3.558,3.362-3.558
		c2.156,0,3.334,1.471,3.334,3.558v0.784C744.311,588.707,744.226,588.833,744.029,588.833z M742.447,587.46
		c0-1.093-0.603-1.723-1.471-1.723c-0.869,0-1.5,0.616-1.5,1.723v0.057h2.971V587.46z"/>
</g>
<g enable-background="new    ">
	<path fill="#5BA4C2" d="M511.115,610.068c-0.322,0.084-0.952,0.183-1.807,0.183c-1.821,0-3.194-1.121-3.194-3.404v-1.303
		c0-2.283,1.373-3.403,3.194-3.403c0.854,0,1.485,0.098,1.807,0.182c0.238,0.057,0.294,0.141,0.294,0.364v0.91
		c0,0.141-0.112,0.211-0.252,0.211c-0.014,0-0.028,0-0.042,0c-0.56-0.07-0.896-0.099-1.807-0.099c-0.659,0-1.345,0.379-1.345,1.835
		v1.303c0,1.457,0.686,1.835,1.345,1.835c0.91,0,1.247-0.027,1.807-0.098c0.014,0,0.028,0,0.042,0c0.14,0,0.252,0.07,0.252,0.21
		v0.91C511.409,609.928,511.353,610.012,511.115,610.068z"/>
	<path fill="#5BA4C2" d="M515.846,610.251c-2.199,0-3.348-1.485-3.348-3.488v-1.135c0-2.003,1.148-3.487,3.348-3.487
		s3.348,1.484,3.348,3.487v1.135C519.194,608.765,518.045,610.251,515.846,610.251z M517.345,605.628
		c0-1.148-0.519-1.891-1.499-1.891s-1.499,0.742-1.499,1.891v1.135c0,1.148,0.518,1.892,1.499,1.892s1.499-0.743,1.499-1.892
		V605.628z"/>
	<path fill="#5BA4C2" d="M530.55,610.138h-1.289c-0.154,0-0.28-0.14-0.28-0.294v-4.763c0-1.079-0.224-1.358-1.009-1.358
		c-0.266,0-0.798,0.084-1.303,0.35c0.042,0.309,0.056,0.658,0.056,1.009v4.763c0,0.154-0.126,0.294-0.28,0.294h-1.289
		c-0.154,0-0.28-0.14-0.28-0.294v-4.763c0-1.079-0.182-1.358-0.966-1.358c-0.294,0-0.714,0.153-1.289,0.462v5.659
		c0,0.154-0.126,0.294-0.28,0.294h-1.289c-0.154,0-0.28-0.14-0.28-0.294v-7.326c0-0.154,0.126-0.28,0.28-0.28h1.219
		c0.154,0,0.28,0.126,0.28,0.28v0.294c0.588-0.378,1.177-0.672,2.003-0.672c0.799,0,1.317,0.238,1.639,0.63
		c0.714-0.392,1.345-0.63,2.311-0.63c1.905,0,2.325,1.303,2.325,2.941v4.763C530.83,609.999,530.704,610.138,530.55,610.138z"/>
	<path fill="#5BA4C2" d="M538.821,606.833h-4.566v0.042c0,0.812,0.336,1.779,1.681,1.779c1.022,0,1.989-0.084,2.578-0.141
		c0.014,0,0.028,0,0.042,0c0.14,0,0.252,0.07,0.252,0.21v0.925c0,0.224-0.042,0.322-0.294,0.364
		c-0.911,0.168-1.457,0.238-2.718,0.238c-1.4,0-3.39-0.757-3.39-3.517v-1.036c0-2.186,1.219-3.558,3.362-3.558
		c2.157,0,3.334,1.471,3.334,3.558v0.784C539.102,606.707,539.017,606.833,538.821,606.833z M537.238,605.46
		c0-1.093-0.602-1.723-1.471-1.723s-1.499,0.616-1.499,1.723v0.057h2.97V605.46z"/>
	<path fill="#5BA4C2" d="M544.462,603.709c-0.756,0-1.345,0.196-1.933,0.505v5.631c0,0.154-0.126,0.294-0.28,0.294h-1.289
		c-0.154,0-0.28-0.14-0.28-0.294v-7.326c0-0.154,0.126-0.28,0.28-0.28h1.219c0.154,0,0.28,0.126,0.28,0.28v0.294
		c0.687-0.532,1.443-0.672,2.003-0.672c0.154,0,0.28,0.126,0.28,0.28v1.008C544.742,603.583,544.616,603.709,544.462,603.709z"/>
	<path fill="#5BA4C2" d="M551.841,606.833h-4.566v0.042c0,0.812,0.336,1.779,1.681,1.779c1.022,0,1.989-0.084,2.578-0.141
		c0.014,0,0.028,0,0.042,0c0.14,0,0.252,0.07,0.252,0.21v0.925c0,0.224-0.042,0.322-0.294,0.364
		c-0.911,0.168-1.457,0.238-2.718,0.238c-1.4,0-3.39-0.757-3.39-3.517v-1.036c0-2.186,1.219-3.558,3.362-3.558
		c2.157,0,3.334,1.471,3.334,3.558v0.784C552.122,606.707,552.038,606.833,551.841,606.833z M550.258,605.46
		c0-1.093-0.602-1.723-1.471-1.723s-1.499,0.616-1.499,1.723v0.057h2.97V605.46z"/>
	<path fill="#5BA4C2" d="M563.477,610.138h-1.289c-0.154,0-0.28-0.14-0.28-0.294v-4.763c0-1.079-0.224-1.358-1.009-1.358
		c-0.266,0-0.798,0.084-1.303,0.35c0.042,0.309,0.056,0.658,0.056,1.009v4.763c0,0.154-0.126,0.294-0.28,0.294h-1.289
		c-0.154,0-0.28-0.14-0.28-0.294v-4.763c0-1.079-0.182-1.358-0.966-1.358c-0.294,0-0.714,0.153-1.289,0.462v5.659
		c0,0.154-0.126,0.294-0.28,0.294h-1.289c-0.154,0-0.28-0.14-0.28-0.294v-7.326c0-0.154,0.126-0.28,0.28-0.28h1.219
		c0.154,0,0.28,0.126,0.28,0.28v0.294c0.588-0.378,1.177-0.672,2.003-0.672c0.798,0,1.317,0.238,1.639,0.63
		c0.714-0.392,1.345-0.63,2.311-0.63c1.905,0,2.325,1.303,2.325,2.941v4.763C563.757,609.999,563.631,610.138,563.477,610.138z"/>
	<path fill="#5BA4C2" d="M568.681,610.251c-2.199,0-3.348-1.485-3.348-3.488v-1.135c0-2.003,1.148-3.487,3.348-3.487
		s3.348,1.484,3.348,3.487v1.135C572.029,608.765,570.88,610.251,568.681,610.251z M570.18,605.628c0-1.148-0.519-1.891-1.499-1.891
		s-1.499,0.742-1.499,1.891v1.135c0,1.148,0.518,1.892,1.499,1.892s1.499-0.743,1.499-1.892V605.628z"/>
	<path fill="#5BA4C2" d="M576.17,610.251c-0.546,0-1.723-0.07-2.507-0.28c-0.168-0.042-0.266-0.154-0.266-0.322v-0.841
		c0-0.111,0.098-0.224,0.238-0.224c0.028,0,0.042,0,0.056,0c0.672,0.084,1.933,0.154,2.353,0.154c0.869,0,0.995-0.295,0.995-0.673
		c0-0.266-0.168-0.435-0.616-0.714l-1.919-1.177c-0.687-0.421-1.177-1.121-1.177-1.934c0-1.4,0.882-2.101,2.662-2.101
		c1.134,0,1.779,0.126,2.493,0.28c0.168,0.042,0.252,0.153,0.252,0.321v0.812c0,0.169-0.084,0.267-0.224,0.267
		c-0.028,0-0.042,0-0.056,0c-0.393-0.056-1.513-0.168-2.312-0.168c-0.672,0-0.966,0.154-0.966,0.588c0,0.225,0.21,0.364,0.56,0.574
		l1.835,1.121c1.177,0.714,1.345,1.415,1.345,2.129C578.916,609.284,578.006,610.251,576.17,610.251z"/>
	<path fill="#5BA4C2" d="M590.523,602.56l-2.339,8.181c-0.434,1.526-0.952,2.199-2.857,2.199c-0.462,0-1.163-0.084-1.485-0.183
		c-0.154-0.042-0.294-0.098-0.294-0.238v-0.896c0-0.153,0.126-0.252,0.28-0.252c0.014,0,0.014,0,0.028,0
		c0.392,0.015,1.19,0.084,1.583,0.084c0.602,0,0.91-0.168,1.106-0.896l0.112-0.42h-0.21c-0.406,0-0.911-0.098-1.219-1.163
		l-1.835-6.415c-0.014-0.042-0.014-0.07-0.014-0.098c0-0.141,0.084-0.225,0.266-0.225h1.415c0.126,0,0.238,0.126,0.266,0.252
		l1.415,5.701c0.056,0.238,0.112,0.309,0.196,0.309h0.014c0.028,0,0.056,0,0.07,0c0.042,0,0.042,0,0.042,0l1.513-6.023
		c0.028-0.126,0.14-0.238,0.28-0.238h1.429c0.14,0,0.252,0.112,0.252,0.238C590.537,602.505,590.537,602.532,590.523,602.56z"/>
	<path fill="#5BA4C2" d="M600.868,610.138h-1.19c-0.154,0-0.28-0.126-0.28-0.28v-0.224c-0.644,0.392-1.303,0.616-1.975,0.616
		c-1.163,0-2.423-0.448-2.423-2.34v-0.056c0-1.597,0.98-2.424,3.418-2.424h0.882v-0.616c0-0.91-0.406-1.134-1.232-1.134
		c-0.896,0-1.821,0.056-2.283,0.111c-0.028,0-0.056,0-0.07,0c-0.14,0-0.252-0.042-0.252-0.238v-0.896
		c0-0.153,0.084-0.252,0.266-0.294c0.56-0.112,1.373-0.224,2.339-0.224c1.989,0,3.082,0.882,3.082,2.675v5.043
		C601.148,610.012,601.022,610.138,600.868,610.138z M599.299,606.665h-0.882c-1.275,0-1.555,0.406-1.555,1.19v0.056
		c0,0.687,0.308,0.869,1.008,0.869c0.504,0,1.022-0.168,1.429-0.393V606.665z"/>
	<path fill="#5BA4C2" d="M610.611,610.152c-0.336,0.057-0.644,0.099-0.953,0.099c-1.583,0-2.227-0.351-2.227-2.228v-4.398
		l-1.317-0.196c-0.154-0.027-0.28-0.126-0.28-0.28v-0.63c0-0.154,0.126-0.28,0.28-0.28h1.317v-1.148c0-0.154,0.126-0.252,0.28-0.28
		l1.303-0.224c0.014,0,0.042,0,0.056,0c0.126,0,0.224,0.069,0.224,0.21v1.442h1.26c0.154,0,0.28,0.126,0.28,0.28v0.826
		c0,0.154-0.126,0.28-0.28,0.28h-1.26v4.398c0,0.7,0.042,0.784,0.546,0.784h0.743c0.182,0,0.294,0.07,0.294,0.21v0.883
		C610.877,610.041,610.793,610.125,610.611,610.152z"/>
	<path fill="#5BA4C2" d="M615.917,603.709c-0.756,0-1.345,0.196-1.933,0.505v5.631c0,0.154-0.126,0.294-0.28,0.294h-1.289
		c-0.154,0-0.28-0.14-0.28-0.294v-7.326c0-0.154,0.126-0.28,0.28-0.28h1.219c0.154,0,0.28,0.126,0.28,0.28v0.294
		c0.687-0.532,1.443-0.672,2.003-0.672c0.154,0,0.28,0.126,0.28,0.28v1.008C616.197,603.583,616.071,603.709,615.917,603.709z"/>
	<path fill="#5BA4C2" d="M622.625,610.138h-1.19c-0.154,0-0.28-0.126-0.28-0.28v-0.224c-0.645,0.392-1.303,0.616-1.975,0.616
		c-1.163,0-2.423-0.448-2.423-2.34v-0.056c0-1.597,0.98-2.424,3.418-2.424h0.882v-0.616c0-0.91-0.406-1.134-1.232-1.134
		c-0.896,0-1.821,0.056-2.283,0.111c-0.028,0-0.056,0-0.07,0c-0.14,0-0.252-0.042-0.252-0.238v-0.896
		c0-0.153,0.084-0.252,0.266-0.294c0.561-0.112,1.373-0.224,2.339-0.224c1.989,0,3.082,0.882,3.082,2.675v5.043
		C622.905,610.012,622.779,610.138,622.625,610.138z M621.056,606.665h-0.882c-1.275,0-1.555,0.406-1.555,1.19v0.056
		c0,0.687,0.308,0.869,1.008,0.869c0.504,0,1.022-0.168,1.429-0.393V606.665z"/>
	<path fill="#5BA4C2" d="M630.913,610.138h-1.289c-0.154,0-0.28-0.14-0.28-0.294v-4.566c0-1.219-0.112-1.569-1.191-1.569
		c-0.476,0-0.995,0.196-1.583,0.505v5.631c0,0.154-0.126,0.294-0.28,0.294h-1.289c-0.154,0-0.28-0.14-0.28-0.294v-7.326
		c0-0.154,0.126-0.28,0.28-0.28h1.219c0.154,0,0.28,0.126,0.28,0.28v0.294c0.812-0.518,1.345-0.672,2.269-0.672
		c2.017,0,2.423,1.358,2.423,3.138v4.566C631.192,609.999,631.066,610.138,630.913,610.138z"/>
	<path fill="#5BA4C2" d="M635.573,610.251c-0.546,0-1.723-0.07-2.508-0.28c-0.168-0.042-0.266-0.154-0.266-0.322v-0.841
		c0-0.111,0.098-0.224,0.238-0.224c0.028,0,0.042,0,0.056,0c0.672,0.084,1.933,0.154,2.353,0.154c0.869,0,0.995-0.295,0.995-0.673
		c0-0.266-0.168-0.435-0.616-0.714l-1.919-1.177c-0.687-0.421-1.177-1.121-1.177-1.934c0-1.4,0.882-2.101,2.662-2.101
		c1.134,0,1.779,0.126,2.493,0.28c0.168,0.042,0.252,0.153,0.252,0.321v0.812c0,0.169-0.084,0.267-0.224,0.267
		c-0.028,0-0.042,0-0.056,0c-0.393-0.056-1.513-0.168-2.312-0.168c-0.672,0-0.966,0.154-0.966,0.588c0,0.225,0.21,0.364,0.56,0.574
		l1.835,1.121c1.177,0.714,1.345,1.415,1.345,2.129C638.318,609.284,637.408,610.251,635.573,610.251z"/>
	<path fill="#5BA4C2" d="M643.988,600.712h-0.631c-0.672,0-0.826,0.153-0.826,0.84v0.687h1.344c0.154,0,0.281,0.126,0.281,0.28
		v0.841c0,0.153-0.127,0.266-0.281,0.266h-1.344v6.22c0,0.154-0.127,0.294-0.281,0.294h-1.273c-0.154,0-0.295-0.14-0.295-0.294
		v-6.22l-1.247-0.196c-0.154-0.027-0.28-0.111-0.28-0.266v-0.645c0-0.154,0.126-0.28,0.28-0.28h1.247v-0.687
		c0-1.807,0.967-2.241,2.424-2.241c0.336,0,0.574,0.057,0.84,0.112c0.112,0.028,0.252,0.098,0.252,0.225v0.826
		C644.197,600.641,644.086,600.712,643.988,600.712z"/>
	<path fill="#5BA4C2" d="M648.145,610.251c-2.199,0-3.348-1.485-3.348-3.488v-1.135c0-2.003,1.148-3.487,3.348-3.487
		s3.348,1.484,3.348,3.487v1.135C651.492,608.765,650.344,610.251,648.145,610.251z M649.644,605.628
		c0-1.148-0.519-1.891-1.499-1.891s-1.498,0.742-1.498,1.891v1.135c0,1.148,0.518,1.892,1.498,1.892s1.499-0.743,1.499-1.892
		V605.628z"/>
	<path fill="#5BA4C2" d="M656.854,603.709c-0.757,0-1.346,0.196-1.934,0.505v5.631c0,0.154-0.126,0.294-0.279,0.294h-1.289
		c-0.154,0-0.28-0.14-0.28-0.294v-7.326c0-0.154,0.126-0.28,0.28-0.28h1.219c0.154,0,0.279,0.126,0.279,0.28v0.294
		c0.688-0.532,1.443-0.672,2.004-0.672c0.154,0,0.279,0.126,0.279,0.28v1.008C657.133,603.583,657.008,603.709,656.854,603.709z"/>
	<path fill="#5BA4C2" d="M668.099,610.138h-1.289c-0.153,0-0.28-0.14-0.28-0.294v-4.763c0-1.079-0.224-1.358-1.008-1.358
		c-0.267,0-0.799,0.084-1.303,0.35c0.041,0.309,0.056,0.658,0.056,1.009v4.763c0,0.154-0.126,0.294-0.28,0.294h-1.289
		c-0.154,0-0.279-0.14-0.279-0.294v-4.763c0-1.079-0.183-1.358-0.967-1.358c-0.295,0-0.715,0.153-1.289,0.462v5.659
		c0,0.154-0.126,0.294-0.279,0.294h-1.289c-0.154,0-0.28-0.14-0.28-0.294v-7.326c0-0.154,0.126-0.28,0.28-0.28h1.219
		c0.154,0,0.279,0.126,0.279,0.28v0.294c0.589-0.378,1.178-0.672,2.004-0.672c0.799,0,1.316,0.238,1.639,0.63
		c0.715-0.392,1.345-0.63,2.311-0.63c1.906,0,2.326,1.303,2.326,2.941v4.763C668.379,609.999,668.252,610.138,668.099,610.138z"/>
	<path fill="#5BA4C2" d="M675.768,610.138h-1.19c-0.154,0-0.28-0.126-0.28-0.28v-0.224c-0.645,0.392-1.303,0.616-1.975,0.616
		c-1.163,0-2.424-0.448-2.424-2.34v-0.056c0-1.597,0.98-2.424,3.418-2.424h0.883v-0.616c0-0.91-0.406-1.134-1.232-1.134
		c-0.896,0-1.822,0.056-2.283,0.111c-0.029,0-0.057,0-0.07,0c-0.141,0-0.252-0.042-0.252-0.238v-0.896
		c0-0.153,0.084-0.252,0.266-0.294c0.561-0.112,1.373-0.224,2.34-0.224c1.988,0,3.081,0.882,3.081,2.675v5.043
		C676.048,610.012,675.922,610.138,675.768,610.138z M674.199,606.665h-0.883c-1.275,0-1.555,0.406-1.555,1.19v0.056
		c0,0.687,0.309,0.869,1.008,0.869c0.505,0,1.023-0.168,1.43-0.393V606.665z"/>
	<path fill="#5BA4C2" d="M681.646,603.709c-0.756,0-1.345,0.196-1.934,0.505v5.631c0,0.154-0.125,0.294-0.279,0.294h-1.289
		c-0.154,0-0.279-0.14-0.279-0.294v-7.326c0-0.154,0.125-0.28,0.279-0.28h1.219c0.154,0,0.28,0.126,0.28,0.28v0.294
		c0.687-0.532,1.442-0.672,2.003-0.672c0.154,0,0.28,0.126,0.28,0.28v1.008C681.927,603.583,681.801,603.709,681.646,603.709z"/>
	<path fill="#5BA4C2" d="M684.768,610.138h-1.303c-0.154,0-0.28-0.14-0.28-0.294v-10.086c0-0.153,0.126-0.28,0.28-0.28h1.303
		c0.154,0,0.266,0.127,0.266,0.28v10.086C685.033,609.999,684.922,610.138,684.768,610.138z"/>
	<path fill="#5BA4C2" d="M690.032,610.251c-2.199,0-3.348-1.485-3.348-3.488v-1.135c0-2.003,1.148-3.487,3.348-3.487
		s3.349,1.484,3.349,3.487v1.135C693.381,608.765,692.231,610.251,690.032,610.251z M691.531,605.628
		c0-1.148-0.519-1.891-1.499-1.891s-1.499,0.742-1.499,1.891v1.135c0,1.148,0.519,1.892,1.499,1.892s1.499-0.743,1.499-1.892
		V605.628z"/>
	<path fill="#5BA4C2" d="M697.521,610.251c-0.546,0-1.723-0.07-2.508-0.28c-0.168-0.042-0.266-0.154-0.266-0.322v-0.841
		c0-0.111,0.098-0.224,0.238-0.224c0.027,0,0.042,0,0.057,0c0.672,0.084,1.933,0.154,2.353,0.154c0.868,0,0.995-0.295,0.995-0.673
		c0-0.266-0.168-0.435-0.617-0.714l-1.918-1.177c-0.688-0.421-1.178-1.121-1.178-1.934c0-1.4,0.883-2.101,2.662-2.101
		c1.135,0,1.779,0.126,2.493,0.28c0.168,0.042,0.252,0.153,0.252,0.321v0.812c0,0.169-0.084,0.267-0.224,0.267
		c-0.028,0-0.043,0-0.057,0c-0.393-0.056-1.513-0.168-2.311-0.168c-0.673,0-0.967,0.154-0.967,0.588c0,0.225,0.21,0.364,0.561,0.574
		l1.834,1.121c1.178,0.714,1.346,1.415,1.346,2.129C700.268,609.284,699.357,610.251,697.521,610.251z"/>
	<path fill="#5BA4C2" d="M711.482,606.833h-4.566v0.042c0,0.812,0.336,1.779,1.68,1.779c1.023,0,1.99-0.084,2.578-0.141
		c0.014,0,0.027,0,0.042,0c0.14,0,0.252,0.07,0.252,0.21v0.925c0,0.224-0.042,0.322-0.294,0.364
		c-0.91,0.168-1.457,0.238-2.718,0.238c-1.4,0-3.39-0.757-3.39-3.517v-1.036c0-2.186,1.219-3.558,3.361-3.558
		c2.158,0,3.334,1.471,3.334,3.558v0.784C711.762,606.707,711.678,606.833,711.482,606.833z M709.898,605.46
		c0-1.093-0.602-1.723-1.471-1.723c-0.868,0-1.498,0.616-1.498,1.723v0.057h2.969V605.46z"/>
	<path fill="#5BA4C2" d="M719.531,610.138h-1.289c-0.153,0-0.279-0.14-0.279-0.294v-4.566c0-1.219-0.112-1.569-1.191-1.569
		c-0.476,0-0.994,0.196-1.582,0.505v5.631c0,0.154-0.127,0.294-0.28,0.294h-1.289c-0.153,0-0.28-0.14-0.28-0.294v-7.326
		c0-0.154,0.127-0.28,0.28-0.28h1.219c0.154,0,0.28,0.126,0.28,0.28v0.294c0.812-0.518,1.345-0.672,2.27-0.672
		c2.017,0,2.423,1.358,2.423,3.138v4.566C719.812,609.999,719.686,610.138,719.531,610.138z"/>
	<path fill="#5BA4C2" d="M731.306,606.833h-4.566v0.042c0,0.812,0.336,1.779,1.681,1.779c1.022,0,1.989-0.084,2.578-0.141
		c0.014,0,0.027,0,0.041,0c0.141,0,0.252,0.07,0.252,0.21v0.925c0,0.224-0.041,0.322-0.293,0.364
		c-0.911,0.168-1.457,0.238-2.719,0.238c-1.4,0-3.389-0.757-3.389-3.517v-1.036c0-2.186,1.219-3.558,3.361-3.558
		c2.157,0,3.334,1.471,3.334,3.558v0.784C731.586,606.707,731.502,606.833,731.306,606.833z M729.723,605.46
		c0-1.093-0.602-1.723-1.471-1.723s-1.499,0.616-1.499,1.723v0.057h2.97V605.46z"/>
	<path fill="#5BA4C2" d="M739.355,610.138h-1.289c-0.154,0-0.279-0.14-0.279-0.294v-4.566c0-1.219-0.113-1.569-1.191-1.569
		c-0.477,0-0.994,0.196-1.583,0.505v5.631c0,0.154-0.126,0.294-0.28,0.294h-1.289c-0.153,0-0.279-0.14-0.279-0.294v-7.326
		c0-0.154,0.126-0.28,0.279-0.28h1.219c0.154,0,0.281,0.126,0.281,0.28v0.294c0.812-0.518,1.344-0.672,2.269-0.672
		c2.017,0,2.423,1.358,2.423,3.138v4.566C739.635,609.999,739.51,610.138,739.355,610.138z"/>
	<path fill="#5BA4C2" d="M747.629,606.833h-4.566v0.042c0,0.812,0.336,1.779,1.682,1.779c1.021,0,1.988-0.084,2.577-0.141
		c0.014,0,0.028,0,0.042,0c0.141,0,0.252,0.07,0.252,0.21v0.925c0,0.224-0.042,0.322-0.294,0.364
		c-0.911,0.168-1.457,0.238-2.718,0.238c-1.4,0-3.39-0.757-3.39-3.517v-1.036c0-2.186,1.219-3.558,3.362-3.558
		c2.156,0,3.334,1.471,3.334,3.558v0.784C747.91,606.707,747.826,606.833,747.629,606.833z M746.047,605.46
		c0-1.093-0.603-1.723-1.471-1.723c-0.869,0-1.5,0.616-1.5,1.723v0.057h2.971V605.46z"/>
	<path fill="#5BA4C2" d="M753.27,603.709c-0.756,0-1.345,0.196-1.934,0.505v5.631c0,0.154-0.125,0.294-0.279,0.294h-1.289
		c-0.154,0-0.279-0.14-0.279-0.294v-7.326c0-0.154,0.125-0.28,0.279-0.28h1.219c0.154,0,0.28,0.126,0.28,0.28v0.294
		c0.687-0.532,1.442-0.672,2.003-0.672c0.154,0,0.28,0.126,0.28,0.28v1.008C753.55,603.583,753.424,603.709,753.27,603.709z"/>
	<path fill="#5BA4C2" d="M761.125,603.512l-0.461,0.183c0.224,0.322,0.35,0.63,0.35,1.12v0.099c0,1.751-1.205,2.549-3.32,2.549
		c-0.742,0-1.246-0.126-1.526-0.238c-0.168,0.112-0.238,0.238-0.238,0.364c0,0.28,0.154,0.393,0.477,0.463l1.653,0.392
		c1.904,0.448,3.137,0.743,3.137,2.241v0.099c0,1.429-1.051,2.199-3.432,2.199c-2.27,0-3.474-0.854-3.474-2.325v-0.126
		c0-0.574,0.267-1.135,0.714-1.541c-0.392-0.294-0.63-0.784-0.63-1.289v-0.014c0-0.435,0.183-0.868,0.56-1.135
		c-0.42-0.435-0.574-0.938-0.574-1.639v-0.099c0-1.4,0.911-2.577,3.334-2.577h3.278c0.21,0,0.378,0.168,0.378,0.378v0.589
		C761.35,603.415,761.293,603.443,761.125,603.512z M759.347,610.684c0-0.308-0.183-0.49-1.653-0.84l-1.246-0.294
		c-0.211,0.294-0.351,0.476-0.351,0.98v0.126c0,0.574,0.351,0.924,1.667,0.924c1.345,0,1.583-0.294,1.583-0.798V610.684z
		 M759.192,604.844c0-0.672-0.294-1.19-1.499-1.19c-1.19,0-1.512,0.532-1.512,1.19v0.112c0,0.519,0.209,1.106,1.512,1.106
		c1.163,0,1.499-0.406,1.499-1.106V604.844z"/>
	<path fill="#5BA4C2" d="M765.912,599.436l-1.653,1.737c-0.112,0.126-0.169,0.182-0.337,0.182h-1.204
		c-0.084,0-0.126-0.042-0.126-0.098c0-0.042,0.014-0.098,0.057-0.14l1.33-1.682c0.126-0.153,0.182-0.21,0.364-0.21h1.471
		c0.099,0,0.154,0.042,0.154,0.099C765.968,599.352,765.953,599.394,765.912,599.436z M764.553,609.844
		c0,0.154-0.126,0.294-0.28,0.294h-1.288c-0.154,0-0.295-0.14-0.295-0.294v-7.326c0-0.154,0.127-0.28,0.281-0.28h1.288
		c0.153,0,0.28,0.126,0.28,0.28v7.326H764.553z"/>
	<path fill="#5BA4C2" d="M771.975,610.138h-1.19c-0.154,0-0.28-0.126-0.28-0.28v-0.224c-0.645,0.392-1.303,0.616-1.975,0.616
		c-1.163,0-2.424-0.448-2.424-2.34v-0.056c0-1.597,0.98-2.424,3.418-2.424h0.883v-0.616c0-0.91-0.406-1.134-1.232-1.134
		c-0.896,0-1.822,0.056-2.283,0.111c-0.029,0-0.057,0-0.07,0c-0.141,0-0.252-0.042-0.252-0.238v-0.896
		c0-0.153,0.084-0.252,0.266-0.294c0.561-0.112,1.373-0.224,2.34-0.224c1.988,0,3.081,0.882,3.081,2.675v5.043
		C772.255,610.012,772.129,610.138,771.975,610.138z M770.406,606.665h-0.883c-1.275,0-1.555,0.406-1.555,1.19v0.056
		c0,0.687,0.309,0.869,1.008,0.869c0.505,0,1.023-0.168,1.43-0.393V606.665z"/>
</g>
</svg>
