<?xml version="1.0" encoding="utf-8"?>
<!-- Generator: Adobe Illustrator 16.0.0, SVG Export Plug-In . SVG Version: 6.00 Build 0)  -->
<!DOCTYPE svg PUBLIC "-//W3C//DTD SVG 1.1//EN" "http://www.w3.org/Graphics/SVG/1.1/DTD/svg11.dtd">
<svg version="1.1" id="textoJarraNivel06" xmlns="http://www.w3.org/2000/svg" xmlns:xlink="http://www.w3.org/1999/xlink" x="0px"
	 y="0px" width="1280px" height="700px" viewBox="0 0 1280 700" enable-background="new 0 0 1280 700" xml:space="preserve">
<g>
	<g>
		<g>
			<polyline fill="none" stroke="#E2D4D5" stroke-miterlimit="10" points="479.595,95.167 560,212.167 610.595,212.167 			"/>
			<circle fill="none" stroke="#E2D4D5" stroke-miterlimit="10" cx="613.595" cy="212.167" r="3.205"/>
		</g>
		<g enable-background="new    ">
			<path fill="#D0E9EF" d="M435.442,96.168h-0.979c-0.21,0-0.36-0.04-0.52-0.31l-2.279-3.938c-0.04-0.06-0.06-0.079-0.09-0.079
				c-0.03,0-0.05,0.02-0.05,0.079v4.048c0,0.11-0.09,0.2-0.2,0.2h-1.18c-0.11,0-0.2-0.09-0.2-0.2v-6.846c0-0.21,0.17-0.38,0.38-0.38
				h1.009c0.2,0,0.3,0.1,0.42,0.31l2.369,4.118c0.04,0.06,0.05,0.08,0.08,0.08c0.02,0,0.05-0.021,0.05-0.091v-4.228
				c0-0.109,0.09-0.189,0.2-0.189h1.18c0.11,0,0.2,0.08,0.2,0.189v6.856C435.832,95.998,435.651,96.168,435.442,96.168z"/>
			<path fill="#D0E9EF" d="M438.754,96.168h-1.339c-0.11,0-0.18-0.09-0.18-0.2v-7.036c0-0.109,0.07-0.189,0.18-0.189h1.339
				c0.11,0,0.19,0.08,0.19,0.189v7.036C438.944,96.078,438.864,96.168,438.754,96.168z"/>
			<path fill="#D0E9EF" d="M446.211,88.952l-1.489,6.196c-0.23,0.96-0.959,1.109-1.649,1.109c-0.69,0-1.429-0.149-1.659-1.109
				l-1.489-6.196c0-0.021-0.01-0.03-0.01-0.05c0-0.09,0.08-0.16,0.18-0.16h1.389c0.1,0,0.18,0.08,0.2,0.18l1.249,5.767
				c0.02,0.11,0.05,0.15,0.14,0.15s0.12-0.04,0.14-0.15l1.25-5.767c0.02-0.1,0.09-0.18,0.19-0.18h1.399c0.1,0,0.17,0.06,0.17,0.16
				C446.221,88.912,446.211,88.931,446.211,88.952z"/>
			<path fill="#D0E9EF" d="M451.212,96.128c-0.35,0.05-0.859,0.13-1.939,0.13c-1.289,0-2.429-0.33-2.429-2.148v-3.318
				c0-1.819,1.149-2.139,2.439-2.139c1.079,0,1.579,0.08,1.929,0.13c0.14,0.02,0.2,0.069,0.2,0.199v0.93c0,0.11-0.09,0.2-0.2,0.2
				h-2.029c-0.47,0-0.64,0.16-0.64,0.68V91.7h2.588c0.11,0,0.2,0.09,0.2,0.2v0.949c0,0.11-0.09,0.2-0.2,0.2h-2.588v1.06
				c0,0.52,0.17,0.68,0.64,0.68h2.029c0.11,0,0.2,0.09,0.2,0.199v0.93C451.412,96.048,451.352,96.108,451.212,96.128z"/>
			<path fill="#D0E9EF" d="M456.742,96.128c-0.33,0.07-1.1,0.13-1.629,0.13c-1.289,0-2.438-0.33-2.438-2.148v-5.167
				c0-0.11,0.09-0.2,0.2-0.2h1.31c0.11,0,0.2,0.09,0.2,0.2v5.167c0,0.52,0.17,0.68,0.64,0.68h1.719c0.11,0,0.2,0.09,0.2,0.199v0.93
				C456.942,96.048,456.882,96.097,456.742,96.128z"/>
			<path fill="#D0E9EF" d="M462.983,96.258c-1.699,0-2.688-0.97-2.688-3.368V92.03c0-2.398,0.989-3.378,2.688-3.378
				s2.699,0.979,2.699,3.378v0.859C465.682,95.288,464.682,96.258,462.983,96.258z M463.972,92.03c0-1.579-0.43-1.959-0.989-1.959
				s-0.979,0.38-0.979,1.959v0.859c0,1.579,0.42,1.949,0.979,1.949s0.989-0.37,0.989-1.949V92.03z"/>
			<path fill="#D0E9EF" d="M469.462,96.258c-1.609,0-2.678-0.949-2.678-2.938V91.79c0-2.259,1.079-3.138,2.778-3.138
				c0.899,0,1.559,0.1,1.969,0.199c0.16,0.04,0.22,0.101,0.22,0.221v0.869c0,0.14-0.07,0.21-0.18,0.21c-0.02,0-0.03,0-0.05,0
				c-0.48-0.08-1.229-0.14-1.819-0.14c-0.88,0-1.25,0.35-1.25,1.459v0.069c0.26-0.05,0.76-0.119,1.179-0.119
				c1.35,0,2.469,0.569,2.469,2.229v0.07C472.101,95.238,471.182,96.258,469.462,96.258z M470.432,93.649
				c0-0.819-0.48-1.039-1.069-1.039c-0.26,0-0.68,0.06-0.91,0.1v0.609c0,1.359,0.43,1.64,1.009,1.64c0.55,0,0.97-0.26,0.97-1.239
				V93.649z"/>
		</g>
		<g enable-background="new    ">
			<path fill="#D76A74" d="M405.604,112.702h-1.709c-0.154,0-0.21-0.14-0.28-0.28l-2.017-3.74h-0.196
				c-0.364,0-0.924-0.042-1.247-0.056v3.796c0,0.154-0.112,0.28-0.266,0.28h-1.401c-0.154,0-0.28-0.126-0.28-0.28v-9.637
				c0-0.28,0.168-0.379,0.448-0.421c0.728-0.111,1.723-0.182,2.745-0.182c2.157,0,4.034,0.771,4.034,3.166v0.126
				c0,1.484-0.742,2.409-1.891,2.857l2.199,4.09c0.028,0.042,0.028,0.084,0.028,0.112
				C405.772,112.632,405.716,112.702,405.604,112.702z M403.502,105.348c0-1.051-0.7-1.499-2.101-1.499
				c-0.294,0-0.994,0.027-1.247,0.056v3.151c0.224,0.015,1.009,0.042,1.247,0.042c1.443,0,2.101-0.392,2.101-1.624V105.348z"/>
			<path fill="#D76A74" d="M412.897,112.618c-0.448,0.07-0.995,0.196-2.662,0.196c-1.821,0-3.235-0.49-3.235-2.872v-4.889
				c0-2.381,1.415-2.871,3.235-2.871c1.667,0,2.213,0.126,2.662,0.196c0.21,0.027,0.28,0.098,0.28,0.294v0.896
				c0,0.154-0.126,0.28-0.28,0.28h-2.857c-0.812,0-1.107,0.28-1.107,1.204v1.513h3.796c0.154,0,0.28,0.127,0.28,0.28v1.009
				c0,0.154-0.126,0.28-0.28,0.28h-3.796v1.807c0,0.925,0.294,1.205,1.107,1.205h2.857c0.154,0,0.28,0.126,0.28,0.28v0.896
				C413.177,112.52,413.107,112.59,412.897,112.618z"/>
			<path fill="#D76A74" d="M420.961,103.849h-2.857c-0.812,0-1.107,0.28-1.107,1.204v1.513h3.796c0.154,0,0.28,0.127,0.28,0.28
				v1.009c0,0.154-0.126,0.28-0.28,0.28h-3.796v4.286c0,0.154-0.126,0.28-0.28,0.28h-1.373c-0.154,0-0.28-0.126-0.28-0.28v-7.368
				c0-2.381,1.415-2.871,3.235-2.871c1.667,0,2.213,0.126,2.662,0.196c0.21,0.027,0.28,0.098,0.28,0.294v0.896
				C421.241,103.723,421.115,103.849,420.961,103.849z"/>
			<path fill="#D76A74" d="M430.524,112.702h-1.709c-0.154,0-0.21-0.14-0.28-0.28l-2.017-3.74h-0.196
				c-0.364,0-0.924-0.042-1.247-0.056v3.796c0,0.154-0.112,0.28-0.266,0.28h-1.401c-0.154,0-0.28-0.126-0.28-0.28v-9.637
				c0-0.28,0.168-0.379,0.448-0.421c0.728-0.111,1.723-0.182,2.745-0.182c2.157,0,4.034,0.771,4.034,3.166v0.126
				c0,1.484-0.742,2.409-1.891,2.857l2.199,4.09c0.028,0.042,0.028,0.084,0.028,0.112
				C430.692,112.632,430.636,112.702,430.524,112.702z M428.422,105.348c0-1.051-0.7-1.499-2.101-1.499
				c-0.294,0-0.994,0.027-1.247,0.056v3.151c0.224,0.015,1.009,0.042,1.247,0.042c1.443,0,2.101-0.392,2.101-1.624V105.348z"/>
			<path fill="#D76A74" d="M437.817,112.618c-0.448,0.07-0.995,0.196-2.662,0.196c-1.821,0-3.235-0.49-3.235-2.872v-4.889
				c0-2.381,1.415-2.871,3.235-2.871c1.667,0,2.213,0.126,2.662,0.196c0.21,0.027,0.28,0.098,0.28,0.294v0.896
				c0,0.154-0.126,0.28-0.28,0.28h-2.857c-0.812,0-1.107,0.28-1.107,1.204v1.513h3.796c0.154,0,0.28,0.127,0.28,0.28v1.009
				c0,0.154-0.126,0.28-0.28,0.28h-3.796v1.807c0,0.925,0.294,1.205,1.107,1.205h2.857c0.154,0,0.28,0.126,0.28,0.28v0.896
				C438.097,112.52,438.027,112.59,437.817,112.618z"/>
			<path fill="#D76A74" d="M442.603,112.814c-1.05,0-1.807-0.099-2.479-0.252c-0.14-0.028-0.266-0.127-0.266-0.28v-1.009
				c0-0.154,0.126-0.267,0.266-0.267c0.014,0,0.014,0,0.028,0c0.56,0.07,1.961,0.141,2.479,0.141c1.247,0,1.625-0.448,1.625-1.261
				c0-0.546-0.266-0.826-1.19-1.373l-1.849-1.106c-1.303-0.771-1.653-1.583-1.653-2.563c0-1.541,0.896-2.661,3.502-2.661
				c0.924,0,2.213,0.14,2.689,0.252c0.14,0.028,0.252,0.126,0.252,0.267v1.036c0,0.14-0.098,0.252-0.238,0.252
				c-0.014,0-0.014,0-0.028,0c-0.924-0.084-1.849-0.14-2.759-0.14c-1.037,0-1.471,0.364-1.471,0.994
				c0,0.462,0.238,0.742,1.148,1.247l1.681,0.938c1.541,0.854,1.947,1.751,1.947,2.857
				C446.287,111.302,445.405,112.814,442.603,112.814z"/>
			<path fill="#D76A74" d="M453.86,112.59c-0.21,0.057-1.135,0.225-2.213,0.225c-1.681,0-3.964-0.827-3.964-4.286v-2.06
				c0-3.516,2.283-4.286,3.964-4.286c1.079,0,2.003,0.168,2.213,0.224c0.182,0.057,0.308,0.126,0.308,0.322v0.938
				c0,0.168-0.07,0.295-0.28,0.295c0,0-0.014,0-0.028,0c-0.49-0.043-1.443-0.112-2.185-0.112c-1.177,0-2.031,0.63-2.031,2.619v2.06
				c0,1.946,0.854,2.619,2.031,2.619c0.742,0,1.695-0.07,2.185-0.112c0.014,0,0.028,0,0.028,0c0.21,0,0.28,0.126,0.28,0.294v0.938
				C454.168,112.464,454.042,112.534,453.86,112.59z"/>
			<path fill="#D76A74" d="M459.208,112.814c-2.312,0-3.992-1.289-3.992-4.37v-1.892c0-3.082,1.681-4.37,3.992-4.37
				c2.311,0,3.992,1.288,3.992,4.37v1.892C463.2,111.525,461.519,112.814,459.208,112.814z M461.238,106.552
				c0-1.849-0.658-2.676-2.031-2.676c-1.373,0-2.031,0.827-2.031,2.676v1.892c0,1.849,0.658,2.675,2.031,2.675
				c1.373,0,2.031-0.826,2.031-2.675V106.552z"/>
			<path fill="#D76A74" d="M467.635,112.814c-1.05,0-1.807-0.099-2.479-0.252c-0.14-0.028-0.266-0.127-0.266-0.28v-1.009
				c0-0.154,0.126-0.267,0.266-0.267c0.014,0,0.014,0,0.028,0c0.56,0.07,1.961,0.141,2.479,0.141c1.247,0,1.625-0.448,1.625-1.261
				c0-0.546-0.266-0.826-1.19-1.373l-1.849-1.106c-1.303-0.771-1.653-1.583-1.653-2.563c0-1.541,0.896-2.661,3.502-2.661
				c0.924,0,2.213,0.14,2.689,0.252c0.14,0.028,0.252,0.126,0.252,0.267v1.036c0,0.14-0.098,0.252-0.238,0.252
				c-0.014,0-0.014,0-0.028,0c-0.924-0.084-1.849-0.14-2.759-0.14c-1.037,0-1.471,0.364-1.471,0.994
				c0,0.462,0.238,0.742,1.149,1.247l1.681,0.938c1.541,0.854,1.947,1.751,1.947,2.857
				C471.319,111.302,470.437,112.814,467.635,112.814z"/>
		</g>
		<g enable-background="new    ">
			<path fill="#D76A74" d="M375.7,128.702h-1.485c-0.126,0-0.238-0.112-0.266-0.238l-0.645-2.661h-3.222l-0.645,2.661
				c-0.028,0.126-0.14,0.238-0.266,0.238h-1.485c-0.14,0-0.252-0.098-0.252-0.238c0-0.014,0.014-0.042,0.014-0.07l2.297-8.782
				c0.336-1.303,1.345-1.429,1.947-1.429s1.611,0.126,1.947,1.429l2.297,8.782c0,0.028,0.014,0.057,0.014,0.07
				C375.952,128.604,375.84,128.702,375.7,128.702z M371.917,120.046c-0.042-0.169-0.084-0.225-0.224-0.225
				s-0.182,0.056-0.224,0.225l-1.008,4.16h2.465L371.917,120.046z"/>
			<path fill="#D76A74" d="M383.511,128.576c-0.7,0.14-1.611,0.238-3.054,0.238c-1.513,0-3.754-0.995-3.754-4.301v-2.017
				c0-3.32,2.129-4.314,3.796-4.314c1.345,0,2.549,0.168,3.012,0.252c0.182,0.042,0.266,0.112,0.266,0.294v0.938
				c0,0.196-0.056,0.295-0.28,0.295c-0.014,0-0.028,0-0.042,0c-0.644-0.057-1.611-0.112-2.956-0.112
				c-0.938,0-1.835,0.658-1.835,2.647v2.017c0,1.989,0.966,2.634,1.793,2.634c0.518,0,0.953-0.014,1.387-0.042v-3.572
				c0-0.154,0.112-0.28,0.266-0.28h1.387c0.154,0,0.28,0.126,0.28,0.28v4.707C383.777,128.422,383.693,128.534,383.511,128.576z"/>
			<path fill="#D76A74" d="M389.655,128.814c-2.255,0-3.852-0.98-3.852-3.965v-6.289c0-0.154,0.126-0.266,0.28-0.266h1.387
				c0.154,0,0.28,0.111,0.28,0.266v6.289c0,1.598,0.392,2.354,1.905,2.354s1.905-0.756,1.905-2.354v-6.289
				c0-0.154,0.126-0.266,0.28-0.266h1.387c0.154,0,0.28,0.111,0.28,0.266v6.289C393.507,127.834,391.911,128.814,389.655,128.814z"
				/>
			<path fill="#D76A74" d="M402.734,128.702h-1.485c-0.126,0-0.238-0.112-0.266-0.238l-0.645-2.661h-3.222l-0.645,2.661
				c-0.028,0.126-0.14,0.238-0.266,0.238h-1.485c-0.14,0-0.252-0.098-0.252-0.238c0-0.014,0.014-0.042,0.014-0.07l2.297-8.782
				c0.336-1.303,1.345-1.429,1.947-1.429s1.611,0.126,1.947,1.429l2.297,8.782c0,0.028,0.014,0.057,0.014,0.07
				C402.986,128.604,402.874,128.702,402.734,128.702z M398.952,120.046c-0.042-0.169-0.084-0.225-0.224-0.225
				s-0.182,0.056-0.224,0.225l-1.008,4.16h2.465L398.952,120.046z"/>
			<path fill="#D76A74" d="M410.921,128.814c-0.995,0-2.339-0.099-2.76-0.168c-0.238-0.042-0.364-0.154-0.364-0.435v-9.427
				c0-0.28,0.126-0.393,0.364-0.435c0.42-0.07,1.765-0.168,2.76-0.168c2.801,0,4.398,1.513,4.398,4.286v2.06
				C415.32,127.302,413.723,128.814,410.921,128.814z M413.387,122.469c0-2.102-1.064-2.647-2.465-2.647
				c-0.519,0-0.882,0.028-1.177,0.042v7.271c0.294,0.014,0.658,0.042,1.177,0.042c1.401,0,2.465-0.547,2.465-2.647V122.469z"/>
			<path fill="#D76A74" d="M423.033,128.618c-0.448,0.07-0.995,0.196-2.662,0.196c-1.821,0-3.235-0.49-3.235-2.872v-4.889
				c0-2.381,1.415-2.871,3.235-2.871c1.667,0,2.213,0.126,2.662,0.196c0.21,0.027,0.28,0.098,0.28,0.294v0.896
				c0,0.154-0.126,0.28-0.28,0.28h-2.857c-0.812,0-1.107,0.28-1.107,1.204v1.513h3.796c0.154,0,0.28,0.127,0.28,0.28v1.009
				c0,0.154-0.126,0.28-0.28,0.28h-3.796v1.807c0,0.925,0.294,1.205,1.107,1.205h2.857c0.154,0,0.28,0.126,0.28,0.28v0.896
				C423.313,128.52,423.243,128.59,423.033,128.618z"/>
			<path fill="#D76A74" d="M431.318,128.814c-1.05,0-1.807-0.099-2.479-0.252c-0.14-0.028-0.266-0.127-0.266-0.28v-1.009
				c0-0.154,0.126-0.267,0.266-0.267c0.014,0,0.014,0,0.028,0c0.56,0.07,1.961,0.141,2.479,0.141c1.247,0,1.625-0.448,1.625-1.261
				c0-0.546-0.266-0.826-1.19-1.373l-1.849-1.106c-1.303-0.771-1.653-1.583-1.653-2.563c0-1.541,0.896-2.661,3.502-2.661
				c0.924,0,2.213,0.14,2.689,0.252c0.14,0.028,0.252,0.126,0.252,0.267v1.036c0,0.14-0.098,0.252-0.238,0.252
				c-0.014,0-0.014,0-0.028,0c-0.924-0.084-1.849-0.14-2.759-0.14c-1.037,0-1.471,0.364-1.471,0.994
				c0,0.462,0.238,0.742,1.149,1.247l1.681,0.938c1.541,0.854,1.947,1.751,1.947,2.857
				C435.002,127.302,434.12,128.814,431.318,128.814z"/>
			<path fill="#D76A74" d="M443.991,128.702h-1.485c-0.126,0-0.238-0.112-0.266-0.238l-0.645-2.661h-3.222l-0.645,2.661
				c-0.028,0.126-0.14,0.238-0.266,0.238h-1.485c-0.14,0-0.252-0.098-0.252-0.238c0-0.014,0.014-0.042,0.014-0.07l2.297-8.782
				c0.336-1.303,1.345-1.429,1.947-1.429c0.603,0,1.611,0.126,1.947,1.429l2.297,8.782c0,0.028,0.014,0.057,0.014,0.07
				C444.243,128.604,444.131,128.702,443.991,128.702z M440.209,120.046c-0.042-0.169-0.084-0.225-0.224-0.225
				s-0.182,0.056-0.224,0.225l-1.008,4.16h2.465L440.209,120.046z"/>
			<path fill="#D76A74" d="M448.65,128.814c-1.134,0-1.989-0.07-2.423-0.154c-0.462-0.084-0.672-0.238-0.672-0.757v-8.824
				c0-0.505,0.182-0.687,0.63-0.757c0.364-0.056,1.247-0.14,2.339-0.14c2.536,0,4.314,0.729,4.314,2.844v0.279
				c0,0.925-0.434,1.751-1.289,2.115c0.854,0.364,1.359,1.079,1.359,2.13v0.237C452.909,128.015,451.256,128.814,448.65,128.814z
				 M450.948,121.137c0-0.98-0.63-1.345-2.423-1.345c-0.336,0-0.728,0.015-1.022,0.028v2.844h1.779c1.303,0,1.667-0.616,1.667-1.331
				V121.137z M451.004,125.578c0-0.771-0.406-1.484-1.723-1.484h-1.779v3.082c0.336,0,0.854,0.027,1.148,0.027
				c1.793,0,2.354-0.462,2.354-1.442V125.578z"/>
			<path fill="#D76A74" d="M458.367,128.814c-2.312,0-3.992-1.289-3.992-4.37v-1.892c0-3.082,1.681-4.37,3.992-4.37
				c2.311,0,3.992,1.288,3.992,4.37v1.892C462.359,127.525,460.678,128.814,458.367,128.814z M460.398,122.552
				c0-1.849-0.658-2.676-2.031-2.676c-1.373,0-2.031,0.827-2.031,2.676v1.892c0,1.849,0.658,2.675,2.031,2.675
				c1.373,0,2.031-0.826,2.031-2.675V122.552z"/>
			<path fill="#D76A74" d="M471.571,128.702h-1.709c-0.154,0-0.21-0.14-0.28-0.28l-2.017-3.74h-0.196
				c-0.364,0-0.924-0.042-1.247-0.056v3.796c0,0.154-0.112,0.28-0.266,0.28h-1.401c-0.154,0-0.28-0.126-0.28-0.28v-9.637
				c0-0.28,0.168-0.379,0.448-0.421c0.728-0.111,1.723-0.182,2.745-0.182c2.157,0,4.034,0.771,4.034,3.166v0.126
				c0,1.484-0.742,2.409-1.891,2.857l2.199,4.09c0.028,0.042,0.028,0.084,0.028,0.112
				C471.739,128.632,471.683,128.702,471.571,128.702z M469.47,121.348c0-1.051-0.7-1.499-2.101-1.499
				c-0.294,0-0.995,0.027-1.247,0.056v3.151c0.224,0.015,1.009,0.042,1.247,0.042c1.443,0,2.101-0.392,2.101-1.624V121.348z"/>
		</g>
		<g enable-background="new    ">
			<path fill="#E28E94" d="M403.252,150.336c-3.401,0-5.48-1.953-5.48-7.181v-1.554c0-5.229,2.079-7.201,5.48-7.201
				s5.48,1.973,5.48,7.201v1.554C408.732,148.383,406.654,150.336,403.252,150.336z M405.814,141.601
				c0-3.801-1.113-4.829-2.562-4.829s-2.562,1.028-2.562,4.829v1.554c0,3.8,1.113,4.808,2.562,4.808s2.562-1.008,2.562-4.808
				V141.601z"/>
			<path fill="#E28E94" d="M428.367,135.029l-3.443,13.165c-0.504,1.952-2.016,2.142-2.918,2.142s-2.415-0.189-2.918-2.142
				l-3.443-13.165c0-0.041-0.021-0.062-0.021-0.104c0-0.21,0.168-0.356,0.378-0.356h2.226c0.189,0,0.357,0.168,0.399,0.356
				l3.044,12.618c0.063,0.252,0.126,0.336,0.336,0.336s0.273-0.084,0.336-0.336l3.044-12.618c0.042-0.188,0.21-0.356,0.399-0.356
				h2.226c0.21,0,0.378,0.146,0.378,0.356C428.388,134.967,428.367,134.988,428.367,135.029z"/>
			<path fill="#E28E94" d="M437.46,150.168h-1.785c-0.231,0-0.42-0.189-0.42-0.42v-0.336c-0.966,0.588-1.953,0.924-2.96,0.924
				c-1.743,0-3.632-0.672-3.632-3.506v-0.084c0-2.395,1.47-3.633,5.123-3.633h1.323v-0.924c0-1.365-0.609-1.701-1.848-1.701
				c-1.344,0-2.729,0.084-3.422,0.168c-0.042,0-0.084,0-0.105,0c-0.21,0-0.378-0.062-0.378-0.356v-1.344
				c0-0.231,0.126-0.378,0.399-0.44c0.84-0.168,2.058-0.336,3.506-0.336c2.981,0,4.619,1.322,4.619,4.01v7.559
				C437.88,149.978,437.691,150.168,437.46,150.168z M435.109,144.961h-1.323c-1.911,0-2.331,0.609-2.331,1.785v0.084
				c0,1.028,0.462,1.301,1.512,1.301c0.756,0,1.533-0.252,2.142-0.588V144.961z"/>
			<path fill="#E28E94" d="M444.454,150.336c-0.819,0-2.583-0.105-3.758-0.42c-0.252-0.062-0.399-0.23-0.399-0.482v-1.26
				c0-0.168,0.147-0.336,0.357-0.336c0.042,0,0.063,0,0.084,0c1.008,0.125,2.897,0.23,3.527,0.23c1.302,0,1.491-0.441,1.491-1.008
				c0-0.398-0.252-0.65-0.924-1.07l-2.876-1.764c-1.029-0.631-1.764-1.68-1.764-2.898c0-2.1,1.323-3.148,3.989-3.148
				c1.701,0,2.667,0.188,3.737,0.42c0.252,0.062,0.378,0.23,0.378,0.482v1.218c0,0.252-0.126,0.399-0.336,0.399
				c-0.042,0-0.063,0-0.084,0c-0.588-0.084-2.268-0.252-3.464-0.252c-1.008,0-1.449,0.23-1.449,0.881
				c0,0.336,0.315,0.547,0.84,0.861l2.75,1.68c1.764,1.07,2.016,2.121,2.016,3.191C448.569,148.886,447.205,150.336,444.454,150.336
				z"/>
			<path fill="#E28E94" d="M455.542,150.336c-3.296,0-5.018-2.226-5.018-5.229v-1.7c0-3.003,1.722-5.228,5.018-5.228
				s5.018,2.225,5.018,5.228v1.7C460.56,148.11,458.838,150.336,455.542,150.336z M457.789,143.407c0-1.722-0.777-2.835-2.247-2.835
				s-2.247,1.113-2.247,2.835v1.7c0,1.723,0.777,2.835,2.247,2.835s2.247-1.112,2.247-2.835V143.407z"/>
			<path fill="#E28E94" d="M466.777,150.336c-0.819,0-2.583-0.105-3.758-0.42c-0.252-0.062-0.399-0.23-0.399-0.482v-1.26
				c0-0.168,0.147-0.336,0.357-0.336c0.042,0,0.063,0,0.084,0c1.008,0.125,2.897,0.23,3.527,0.23c1.302,0,1.491-0.441,1.491-1.008
				c0-0.398-0.252-0.65-0.924-1.07l-2.876-1.764c-1.029-0.631-1.764-1.68-1.764-2.898c0-2.1,1.323-3.148,3.989-3.148
				c1.701,0,2.667,0.188,3.737,0.42c0.252,0.062,0.378,0.23,0.378,0.482v1.218c0,0.252-0.126,0.399-0.336,0.399
				c-0.042,0-0.063,0-0.084,0c-0.588-0.084-2.268-0.252-3.464-0.252c-1.008,0-1.449,0.23-1.449,0.881
				c0,0.336,0.315,0.547,0.84,0.861l2.75,1.68c1.764,1.07,2.016,2.121,2.016,3.191C470.892,148.886,469.527,150.336,466.777,150.336
				z"/>
		</g>
		<g>
			<g>
				<g>
					<g>
						<polygon fill="#E6FFE5" points="471.177,168.062 472.104,159.969 468.191,159.969 468.191,156.84 472.994,156.84 
							472.686,159.539 471.622,168.84 468.191,168.84 468.191,168.062 						"/>
						<polygon fill="#D0E9EF" points="468.191,156.84 468.191,159.969 464.28,159.969 465.206,168.062 468.191,168.062 
							468.191,168.84 464.762,168.84 463.698,159.539 463.389,156.84 						"/>
						<polygon fill="#D0E9EF" points="465.206,168.062 464.28,159.969 468.191,159.969 468.191,168.062 						"/>
						<polygon fill="#E6FFE5" points="471.177,168.062 468.191,168.062 468.191,159.969 472.104,159.969 						"/>
					</g>
				</g>
			</g>
		</g>
	</g>
</g>
</svg>
