<?xml version="1.0" encoding="utf-8"?>
<!-- Generator: Adobe Illustrator 16.0.0, SVG Export Plug-In . SVG Version: 6.00 Build 0)  -->
<!DOCTYPE svg PUBLIC "-//W3C//DTD SVG 1.1//EN" "http://www.w3.org/Graphics/SVG/1.1/DTD/svg11.dtd">
<svg version="1.1" id="textoJarraNivel03" xmlns="http://www.w3.org/2000/svg" xmlns:xlink="http://www.w3.org/1999/xlink" x="0px"
	 y="0px" width="1280px" height="700px" viewBox="0 0 1280 700" enable-background="new 0 0 1280 700" xml:space="preserve">
<g>
	<g>
		<line fill="none" stroke="#E2D4D5" stroke-miterlimit="10" x1="772.999" y1="295.5" x2="661.999" y2="295.5"/>
		<circle fill="none" stroke="#E2D4D5" stroke-miterlimit="10" cx="658.999" cy="295.5" r="3.205"/>
	</g>
	<g>
		<g enable-background="new    ">
			<path fill="#D0E9EF" d="M785.797,296.5h-0.98c-0.209,0-0.359-0.04-0.52-0.31l-2.279-3.938c-0.039-0.06-0.059-0.079-0.09-0.079
				c-0.029,0-0.049,0.02-0.049,0.079v4.048c0,0.11-0.09,0.2-0.2,0.2h-1.18c-0.11,0-0.2-0.09-0.2-0.2v-6.846
				c0-0.21,0.17-0.38,0.381-0.38h1.009c0.2,0,0.3,0.1,0.42,0.31l2.368,4.118c0.041,0.06,0.051,0.08,0.08,0.08
				c0.02,0,0.051-0.021,0.051-0.091v-4.228c0-0.109,0.09-0.189,0.199-0.189h1.18c0.109,0,0.199,0.08,0.199,0.189v6.856
				C786.186,296.33,786.006,296.5,785.797,296.5z"/>
			<path fill="#D0E9EF" d="M789.108,296.5h-1.339c-0.11,0-0.18-0.09-0.18-0.2v-7.036c0-0.109,0.069-0.189,0.18-0.189h1.339
				c0.11,0,0.19,0.08,0.19,0.189v7.036C789.299,296.41,789.219,296.5,789.108,296.5z"/>
			<path fill="#D0E9EF" d="M796.566,289.284l-1.49,6.196c-0.229,0.96-0.959,1.109-1.648,1.109s-1.43-0.149-1.659-1.109l-1.489-6.196
				c0-0.021-0.01-0.03-0.01-0.05c0-0.09,0.08-0.16,0.18-0.16h1.389c0.101,0,0.181,0.08,0.201,0.18l1.248,5.767
				c0.021,0.11,0.051,0.15,0.141,0.15s0.119-0.04,0.14-0.15l1.249-5.767c0.021-0.1,0.09-0.18,0.19-0.18h1.399
				c0.1,0,0.17,0.06,0.17,0.16C796.576,289.244,796.566,289.263,796.566,289.284z"/>
			<path fill="#D0E9EF" d="M801.566,296.46c-0.35,0.05-0.859,0.13-1.939,0.13c-1.289,0-2.428-0.33-2.428-2.148v-3.318
				c0-1.819,1.148-2.139,2.438-2.139c1.079,0,1.579,0.08,1.929,0.13c0.141,0.02,0.2,0.069,0.2,0.199v0.93c0,0.11-0.091,0.2-0.2,0.2
				h-2.029c-0.469,0-0.639,0.16-0.639,0.68v0.909h2.588c0.11,0,0.2,0.09,0.2,0.2v0.949c0,0.11-0.09,0.2-0.2,0.2h-2.588v1.06
				c0,0.52,0.17,0.68,0.639,0.68h2.029c0.109,0,0.2,0.09,0.2,0.199v0.93C801.767,296.38,801.707,296.44,801.566,296.46z"/>
			<path fill="#D0E9EF" d="M807.097,296.46c-0.33,0.07-1.1,0.13-1.63,0.13c-1.289,0-2.438-0.33-2.438-2.148v-5.167
				c0-0.11,0.09-0.2,0.199-0.2h1.31c0.11,0,0.2,0.09,0.2,0.2v5.167c0,0.52,0.17,0.68,0.639,0.68h1.72c0.11,0,0.2,0.09,0.2,0.199
				v0.93C807.297,296.38,807.236,296.429,807.097,296.46z"/>
			<path fill="#D0E9EF" d="M813.338,296.59c-1.699,0-2.689-0.97-2.689-3.368v-0.859c0-2.398,0.99-3.378,2.689-3.378
				s2.698,0.979,2.698,3.378v0.859C816.036,295.62,815.037,296.59,813.338,296.59z M814.326,292.362c0-1.579-0.43-1.959-0.988-1.959
				c-0.561,0-0.98,0.38-0.98,1.959v0.859c0,1.579,0.42,1.949,0.98,1.949c0.559,0,0.988-0.37,0.988-1.949V292.362z"/>
			<path fill="#D0E9EF" d="M819.617,296.59c-0.779,0-1.549-0.12-2.068-0.279c-0.101-0.03-0.19-0.091-0.19-0.19v-0.8
				c0-0.109,0.08-0.18,0.18-0.18c0.011,0,0.011,0,0.021,0c0.699,0.061,1.449,0.09,1.988,0.09c0.71,0,0.99-0.3,0.99-0.85v-0.18
				c0-0.449-0.16-0.859-0.811-0.859h-1.758c-0.111,0-0.19-0.09-0.19-0.2v-0.85c0-0.109,0.079-0.189,0.19-0.189h1.719
				c0.649,0,0.85-0.43,0.85-0.87v-0.14c0-0.449-0.211-0.749-0.99-0.749c-0.699,0-1.209,0.05-1.969,0.119c-0.01,0-0.01,0-0.02,0
				c-0.1,0-0.18-0.069-0.18-0.18v-0.8c0-0.1,0.1-0.159,0.199-0.189c0.52-0.16,1.26-0.31,2.039-0.31c1.629,0,2.608,0.55,2.608,2.049
				v0.14c0,0.58-0.36,1.229-0.89,1.529c0.55,0.29,0.89,0.85,0.89,1.499v0.18C822.226,295.91,821.166,296.59,819.617,296.59z"/>
		</g>
		<g enable-background="new    ">
			<path fill="#E4CA93" d="M786.547,312.924c-0.209,0.057-1.135,0.225-2.213,0.225c-1.681,0-3.964-0.827-3.964-4.286v-2.06
				c0-3.516,2.283-4.286,3.964-4.286c1.078,0,2.004,0.168,2.213,0.224c0.183,0.057,0.309,0.126,0.309,0.322v0.938
				c0,0.168-0.07,0.295-0.28,0.295c0,0-0.014,0-0.028,0c-0.49-0.043-1.442-0.112-2.185-0.112c-1.177,0-2.031,0.63-2.031,2.619v2.06
				c0,1.946,0.854,2.619,2.031,2.619c0.742,0,1.694-0.07,2.185-0.112c0.015,0,0.028,0,0.028,0c0.21,0,0.28,0.126,0.28,0.294v0.938
				C786.855,312.798,786.729,312.868,786.547,312.924z"/>
			<path fill="#E4CA93" d="M796.012,313.036h-1.484c-0.126,0-0.238-0.112-0.266-0.238l-0.645-2.661h-3.223l-0.645,2.661
				c-0.027,0.126-0.14,0.238-0.266,0.238H788c-0.141,0-0.252-0.098-0.252-0.238c0-0.014,0.014-0.042,0.014-0.07l2.297-8.782
				c0.336-1.303,1.345-1.429,1.947-1.429s1.611,0.126,1.947,1.429l2.297,8.782c0,0.028,0.014,0.057,0.014,0.07
				C796.264,312.938,796.152,313.036,796.012,313.036z M792.23,304.38c-0.043-0.169-0.084-0.225-0.225-0.225
				s-0.182,0.056-0.225,0.225l-1.008,4.16h2.465L792.23,304.38z"/>
			<path fill="#E4CA93" d="M803.473,304.183h-2.857c-0.812,0-1.106,0.28-1.106,1.204v1.513h3.796c0.154,0,0.28,0.127,0.28,0.28
				v1.009c0,0.154-0.126,0.28-0.28,0.28h-3.796v4.286c0,0.154-0.126,0.28-0.28,0.28h-1.373c-0.153,0-0.279-0.126-0.279-0.28v-7.368
				c0-2.381,1.414-2.871,3.235-2.871c1.667,0,2.214,0.126,2.661,0.196c0.211,0.027,0.281,0.098,0.281,0.294v0.896
				C803.754,304.057,803.627,304.183,803.473,304.183z"/>
			<path fill="#E4CA93" d="M811.537,312.952c-0.448,0.07-0.994,0.196-2.662,0.196c-1.82,0-3.234-0.49-3.234-2.872v-4.889
				c0-2.381,1.414-2.871,3.234-2.871c1.668,0,2.214,0.126,2.662,0.196c0.21,0.027,0.28,0.098,0.28,0.294v0.896
				c0,0.154-0.126,0.28-0.28,0.28h-2.857c-0.812,0-1.107,0.28-1.107,1.204v1.513h3.797c0.154,0,0.28,0.127,0.28,0.28v1.009
				c0,0.154-0.126,0.28-0.28,0.28h-3.797v1.807c0,0.925,0.295,1.205,1.107,1.205h2.857c0.154,0,0.28,0.126,0.28,0.28v0.896
				C811.817,312.854,811.747,312.924,811.537,312.952z M810.893,299.995l-1.652,1.737c-0.112,0.126-0.168,0.182-0.336,0.182h-1.205
				c-0.084,0-0.127-0.042-0.127-0.098c0-0.042,0.015-0.099,0.057-0.141l1.331-1.681c0.126-0.154,0.182-0.21,0.364-0.21h1.471
				c0.098,0,0.154,0.042,0.154,0.098C810.949,299.911,810.935,299.953,810.893,299.995z"/>
			<path fill="#E4CA93" d="M824.39,302.95l-2.129,4.861c-0.267,0.616-0.546,0.896-0.854,1.022v3.922c0,0.154-0.112,0.28-0.266,0.28
				h-1.401c-0.154,0-0.267-0.126-0.267-0.28v-3.922c-0.308-0.126-0.588-0.406-0.854-1.022l-2.115-4.861
				c-0.015-0.042-0.028-0.084-0.028-0.111c0-0.112,0.084-0.21,0.224-0.21h1.555c0.127,0,0.225,0.111,0.267,0.224l1.681,4.175
				c0.099,0.237,0.183,0.279,0.238,0.279c0.07,0,0.154-0.042,0.252-0.279l1.682-4.175c0.041-0.112,0.14-0.224,0.266-0.224h1.541
				c0.141,0,0.238,0.098,0.238,0.21C824.418,302.881,824.404,302.908,824.39,302.95z"/>
			<path fill="#E4CA93" d="M835.742,304.253h-2.451v8.503c0,0.154-0.125,0.28-0.279,0.28h-1.387c-0.154,0-0.281-0.126-0.281-0.28
				v-8.503h-2.451c-0.154,0-0.279-0.098-0.279-0.252v-1.106c0-0.154,0.125-0.266,0.279-0.266h6.85c0.154,0,0.281,0.111,0.281,0.266
				v1.106C836.023,304.155,835.896,304.253,835.742,304.253z"/>
			<path fill="#E4CA93" d="M842.967,312.952c-0.448,0.07-0.994,0.196-2.662,0.196c-1.82,0-3.234-0.49-3.234-2.872v-4.889
				c0-2.381,1.414-2.871,3.234-2.871c1.668,0,2.214,0.126,2.662,0.196c0.21,0.027,0.28,0.098,0.28,0.294v0.896
				c0,0.154-0.126,0.28-0.28,0.28h-2.857c-0.812,0-1.107,0.28-1.107,1.204v1.513h3.797c0.154,0,0.28,0.127,0.28,0.28v1.009
				c0,0.154-0.126,0.28-0.28,0.28h-3.797v1.807c0,0.925,0.295,1.205,1.107,1.205h2.857c0.154,0,0.28,0.126,0.28,0.28v0.896
				C843.247,312.854,843.177,312.924,842.967,312.952z M842.322,299.995l-1.652,1.737c-0.112,0.126-0.168,0.182-0.336,0.182h-1.205
				c-0.084,0-0.127-0.042-0.127-0.098c0-0.042,0.015-0.099,0.057-0.141l1.331-1.681c0.126-0.154,0.182-0.21,0.364-0.21h1.471
				c0.098,0,0.154,0.042,0.154,0.098C842.379,299.911,842.364,299.953,842.322,299.995z"/>
		</g>
		<g enable-background="new    ">
			<path fill="#E4CA93" d="M783.27,329.148c-1.051,0-1.807-0.099-2.479-0.252c-0.14-0.028-0.267-0.127-0.267-0.28v-1.009
				c0-0.154,0.127-0.267,0.267-0.267c0.015,0,0.015,0,0.028,0c0.561,0.07,1.961,0.141,2.479,0.141c1.247,0,1.624-0.448,1.624-1.261
				c0-0.546-0.266-0.826-1.189-1.373l-1.85-1.106c-1.303-0.771-1.652-1.583-1.652-2.563c0-1.541,0.896-2.661,3.502-2.661
				c0.924,0,2.213,0.14,2.689,0.252c0.14,0.028,0.252,0.126,0.252,0.267v1.036c0,0.14-0.099,0.252-0.238,0.252
				c-0.014,0-0.014,0-0.028,0c-0.925-0.084-1.849-0.14-2.759-0.14c-1.037,0-1.472,0.364-1.472,0.994
				c0,0.462,0.238,0.742,1.149,1.247l1.68,0.938c1.541,0.854,1.947,1.751,1.947,2.857
				C786.953,327.635,786.071,329.148,783.27,329.148z"/>
			<path fill="#E4CA93" d="M790.297,329.036h-1.387c-0.154,0-0.279-0.126-0.279-0.28v-9.861c0-0.154,0.125-0.266,0.279-0.266h1.387
				c0.154,0,0.28,0.111,0.28,0.266v9.861C790.577,328.91,790.451,329.036,790.297,329.036z"/>
			<path fill="#E4CA93" d="M799.988,329.036h-1.415c-0.336,0-0.63,0-0.854-0.504l-3.109-6.822c-0.043-0.084-0.084-0.112-0.127-0.112
				c-0.041,0-0.069,0.028-0.069,0.112v7.046c0,0.154-0.112,0.28-0.267,0.28h-1.19c-0.153,0-0.28-0.126-0.28-0.28v-9.567
				c0-0.308,0.252-0.56,0.561-0.56h1.513c0.294,0,0.448,0.084,0.616,0.448l3.264,7.199c0.028,0.07,0.07,0.112,0.112,0.112
				c0.028,0,0.07-0.042,0.07-0.126v-7.368c0-0.154,0.112-0.266,0.267-0.266h1.204c0.153,0,0.267,0.111,0.267,0.266v9.581
				C800.549,328.784,800.297,329.036,799.988,329.036z"/>
			<path fill="#E4CA93" d="M813.624,329.036h-1.485c-0.125,0-0.238-0.112-0.266-0.238l-0.645-2.661h-3.222l-0.645,2.661
				c-0.028,0.126-0.14,0.238-0.267,0.238h-1.484c-0.14,0-0.252-0.098-0.252-0.238c0-0.014,0.014-0.042,0.014-0.07l2.298-8.782
				c0.336-1.303,1.345-1.429,1.946-1.429c0.604,0,1.611,0.126,1.947,1.429l2.297,8.782c0,0.028,0.015,0.057,0.015,0.07
				C813.876,328.938,813.764,329.036,813.624,329.036z M809.842,320.38c-0.042-0.169-0.084-0.225-0.225-0.225
				c-0.14,0-0.182,0.056-0.224,0.225l-1.009,4.16h2.466L809.842,320.38z"/>
			<path fill="#E4CA93" d="M821.533,329.036h-6.121c-0.406,0-0.715-0.14-0.715-0.519v-0.771c0-0.168,0.043-0.322,0.182-0.532
				l4.441-6.653c0.027-0.042,0.041-0.084,0.041-0.126c0-0.07-0.041-0.112-0.139-0.112h-3.895c-0.154,0-0.267-0.098-0.267-0.252
				v-1.177c0-0.154,0.112-0.266,0.267-0.266h5.645c0.406,0,0.742,0.168,0.742,0.532v0.812c0,0.195-0.084,0.406-0.195,0.574
				l-4.371,6.541c-0.041,0.057-0.056,0.112-0.056,0.154c0,0.056,0.028,0.084,0.126,0.084h4.314c0.154,0,0.28,0.098,0.28,0.252v1.177
				C821.813,328.91,821.688,329.036,821.533,329.036z"/>
			<path fill="#E4CA93" d="M827.201,329.148c-2.255,0-3.852-0.98-3.852-3.965v-6.289c0-0.154,0.126-0.266,0.28-0.266h1.387
				c0.154,0,0.28,0.111,0.28,0.266v6.289c0,1.598,0.393,2.354,1.904,2.354c1.514,0,1.906-0.756,1.906-2.354v-6.289
				c0-0.154,0.125-0.266,0.279-0.266h1.387c0.154,0,0.28,0.111,0.28,0.266v6.289C831.054,328.168,829.457,329.148,827.201,329.148z
				 M829.484,315.995l-1.652,1.737c-0.111,0.126-0.168,0.182-0.336,0.182h-1.205c-0.084,0-0.126-0.042-0.126-0.098
				c0-0.042,0.015-0.099,0.056-0.141l1.331-1.681c0.126-0.154,0.183-0.21,0.364-0.21h1.471c0.098,0,0.154,0.042,0.154,0.098
				C829.541,315.911,829.527,315.953,829.484,315.995z"/>
			<path fill="#E4CA93" d="M838.977,328.924c-0.21,0.057-1.135,0.225-2.213,0.225c-1.682,0-3.965-0.827-3.965-4.286v-2.06
				c0-3.516,2.283-4.286,3.965-4.286c1.078,0,2.003,0.168,2.213,0.224c0.182,0.057,0.309,0.126,0.309,0.322v0.938
				c0,0.168-0.07,0.295-0.281,0.295c0,0-0.014,0-0.027,0c-0.49-0.043-1.443-0.112-2.186-0.112c-1.176,0-2.031,0.63-2.031,2.619v2.06
				c0,1.946,0.855,2.619,2.031,2.619c0.742,0,1.695-0.07,2.186-0.112c0.014,0,0.027,0,0.027,0c0.211,0,0.281,0.126,0.281,0.294
				v0.938C839.285,328.798,839.158,328.868,838.977,328.924z"/>
			<path fill="#E4CA93" d="M848.441,329.036h-1.484c-0.127,0-0.238-0.112-0.267-0.238l-0.645-2.661h-3.222l-0.645,2.661
				c-0.027,0.126-0.14,0.238-0.266,0.238h-1.485c-0.14,0-0.252-0.098-0.252-0.238c0-0.014,0.015-0.042,0.015-0.07l2.297-8.782
				c0.336-1.303,1.345-1.429,1.947-1.429c0.602,0,1.61,0.126,1.947,1.429l2.297,8.782c0,0.028,0.014,0.057,0.014,0.07
				C848.693,328.938,848.582,329.036,848.441,329.036z M844.659,320.38c-0.042-0.169-0.084-0.225-0.224-0.225
				c-0.141,0-0.183,0.056-0.225,0.225l-1.008,4.16h2.465L844.659,320.38z"/>
			<path fill="#E4CA93" d="M857.401,329.036h-1.709c-0.154,0-0.21-0.14-0.28-0.28l-2.018-3.74h-0.195
				c-0.365,0-0.925-0.042-1.247-0.056v3.796c0,0.154-0.112,0.28-0.267,0.28h-1.4c-0.154,0-0.279-0.126-0.279-0.28v-9.637
				c0-0.28,0.168-0.379,0.447-0.421c0.729-0.111,1.723-0.182,2.746-0.182c2.156,0,4.033,0.771,4.033,3.166v0.126
				c0,1.484-0.742,2.409-1.891,2.857l2.199,4.09c0.028,0.042,0.028,0.084,0.028,0.112
				C857.569,328.966,857.514,329.036,857.401,329.036z M855.3,321.682c0-1.051-0.7-1.499-2.101-1.499
				c-0.295,0-0.995,0.027-1.247,0.056v3.151c0.224,0.015,1.009,0.042,1.247,0.042c1.442,0,2.101-0.392,2.101-1.624V321.682z"/>
			<path fill="#E4CA93" d="M870.127,329.036h-1.484c-0.126,0-0.238-0.112-0.266-0.238l-0.645-2.661h-3.223l-0.645,2.661
				c-0.027,0.126-0.14,0.238-0.266,0.238h-1.484c-0.141,0-0.252-0.098-0.252-0.238c0-0.014,0.014-0.042,0.014-0.07l2.297-8.782
				c0.336-1.303,1.345-1.429,1.947-1.429s1.611,0.126,1.947,1.429l2.297,8.782c0,0.028,0.014,0.057,0.014,0.07
				C870.379,328.938,870.268,329.036,870.127,329.036z M866.346,320.38c-0.043-0.169-0.084-0.225-0.225-0.225
				s-0.182,0.056-0.225,0.225l-1.008,4.16h2.465L866.346,320.38z"/>
			<path fill="#E4CA93" d="M879.003,329.036h-1.415c-0.336,0-0.63,0-0.854-0.504l-3.11-6.822c-0.042-0.084-0.084-0.112-0.126-0.112
				s-0.07,0.028-0.07,0.112v7.046c0,0.154-0.111,0.28-0.266,0.28h-1.191c-0.153,0-0.279-0.126-0.279-0.28v-9.567
				c0-0.308,0.252-0.56,0.561-0.56h1.512c0.295,0,0.449,0.084,0.617,0.448l3.264,7.199c0.027,0.07,0.07,0.112,0.111,0.112
				c0.029,0,0.07-0.042,0.07-0.126v-7.368c0-0.154,0.112-0.266,0.267-0.266h1.204c0.154,0,0.267,0.111,0.267,0.266v9.581
				C879.563,328.784,879.312,329.036,879.003,329.036z M876.636,317.998c-0.308,0-0.7-0.112-0.98-0.322l-0.616-0.462
				c-0.238-0.183-0.42-0.294-0.588-0.294c-0.225,0-0.393,0.098-0.393,0.476v0.295c0,0.153-0.057,0.224-0.196,0.224h-0.798
				c-0.141,0-0.197-0.07-0.197-0.224v-0.295c0-1.12,0.604-1.568,1.569-1.568c0.308,0,0.687,0.098,0.967,0.308l0.616,0.463
				c0.238,0.182,0.42,0.28,0.588,0.28c0.238,0,0.393-0.099,0.393-0.463v-0.294c0-0.154,0.057-0.224,0.196-0.224h0.798
				c0.141,0,0.197,0.069,0.197,0.224v0.309C878.191,317.563,877.603,317.998,876.636,317.998z"/>
			<path fill="#E4CA93" d="M889.139,329.036h-1.484c-0.126,0-0.238-0.112-0.266-0.238l-0.645-2.661h-3.223l-0.645,2.661
				c-0.027,0.126-0.14,0.238-0.266,0.238h-1.484c-0.141,0-0.252-0.098-0.252-0.238c0-0.014,0.014-0.042,0.014-0.07l2.297-8.782
				c0.336-1.303,1.345-1.429,1.947-1.429s1.611,0.126,1.947,1.429l2.297,8.782c0,0.028,0.014,0.057,0.014,0.07
				C889.391,328.938,889.279,329.036,889.139,329.036z M885.357,320.38c-0.043-0.169-0.084-0.225-0.225-0.225
				s-0.182,0.056-0.225,0.225l-1.008,4.16h2.465L885.357,320.38z"/>
			<path fill="#E4CA93" d="M893.826,329.148c-0.994,0-2.339-0.099-2.76-0.168c-0.237-0.042-0.363-0.154-0.363-0.435v-9.427
				c0-0.28,0.126-0.393,0.363-0.435c0.421-0.07,1.766-0.168,2.76-0.168c2.802,0,4.398,1.513,4.398,4.286v2.06
				C898.225,327.635,896.628,329.148,893.826,329.148z M896.292,322.802c0-2.102-1.064-2.647-2.466-2.647
				c-0.518,0-0.882,0.028-1.176,0.042v7.271c0.294,0.014,0.658,0.042,1.176,0.042c1.401,0,2.466-0.547,2.466-2.647V322.802z"/>
			<path fill="#E4CA93" d="M901.707,329.036h-1.387c-0.153,0-0.279-0.126-0.279-0.28v-9.861c0-0.154,0.126-0.266,0.279-0.266h1.387
				c0.154,0,0.281,0.111,0.281,0.266v9.861C901.988,328.91,901.861,329.036,901.707,329.036z"/>
			<path fill="#E4CA93" d="M907.211,329.148c-0.995,0-2.34-0.099-2.76-0.168c-0.238-0.042-0.364-0.154-0.364-0.435v-9.427
				c0-0.28,0.126-0.393,0.364-0.435c0.42-0.07,1.765-0.168,2.76-0.168c2.801,0,4.398,1.513,4.398,4.286v2.06
				C911.609,327.635,910.012,329.148,907.211,329.148z M909.676,322.802c0-2.102-1.064-2.647-2.465-2.647
				c-0.52,0-0.883,0.028-1.178,0.042v7.271c0.295,0.014,0.658,0.042,1.178,0.042c1.4,0,2.465-0.547,2.465-2.647V322.802z"/>
			<path fill="#E4CA93" d="M920.682,329.036h-1.485c-0.126,0-0.238-0.112-0.267-0.238l-0.645-2.661h-3.221l-0.645,2.661
				c-0.028,0.126-0.141,0.238-0.267,0.238h-1.485c-0.139,0-0.252-0.098-0.252-0.238c0-0.014,0.015-0.042,0.015-0.07l2.297-8.782
				c0.337-1.303,1.345-1.429,1.947-1.429s1.61,0.126,1.947,1.429l2.297,8.782c0,0.028,0.015,0.057,0.015,0.07
				C920.934,328.938,920.821,329.036,920.682,329.036z M916.898,320.38c-0.041-0.169-0.084-0.225-0.224-0.225
				s-0.183,0.056-0.224,0.225l-1.009,4.16h2.466L916.898,320.38z"/>
			<path fill="#E4CA93" d="M923.632,329.036h-1.247c-0.154,0-0.279-0.126-0.279-0.28v-1.583c0-0.154,0.125-0.266,0.279-0.266h1.247
				c0.153,0,0.28,0.111,0.28,0.266v1.583C923.912,328.91,923.785,329.036,923.632,329.036z"/>
		</g>
		<g enable-background="new    ">
			<path fill="#F1DEAE" d="M789.783,349.122c-1.303,0.336-2.877,0.546-4.221,0.546c-3.381,0-5.018-1.994-5.018-5.27v-1.617
				c0-3.275,1.637-5.27,5.018-5.27c0.504,0,1.238,0.041,2.016,0.146v-3.717c0-0.23,0.189-0.42,0.42-0.42h1.932
				c0.23,0,0.42,0.189,0.42,0.42v14.613C790.35,348.87,790.266,348.996,789.783,349.122z M787.578,339.926
				c-0.588-0.084-1.512-0.146-2.016-0.146c-1.806,0-2.246,1.28-2.246,3.002v1.617c0,1.721,0.44,3.002,2.246,3.002
				c0.756,0,1.617-0.062,2.016-0.146V339.926z"/>
			<path fill="#F1DEAE" d="M802.34,344.545h-6.844v0.062c0,1.219,0.504,2.667,2.52,2.667c1.532,0,2.98-0.126,3.863-0.21
				c0.021,0,0.041,0,0.062,0c0.21,0,0.378,0.105,0.378,0.314v1.387c0,0.336-0.063,0.482-0.44,0.545
				c-1.365,0.252-2.184,0.357-4.074,0.357c-2.1,0-5.08-1.134-5.08-5.27v-1.555c0-3.275,1.826-5.332,5.039-5.332
				c3.232,0,4.996,2.204,4.996,5.332v1.176C802.76,344.355,802.635,344.545,802.34,344.545z M799.968,342.487
				c0-1.638-0.903-2.583-2.204-2.583c-1.303,0-2.247,0.924-2.247,2.583v0.084h4.451V342.487z"/>
			<path fill="#F1DEAE" d="M815.635,349.668c-3.402,0-5.48-1.953-5.48-7.181v-1.554c0-5.229,2.078-7.201,5.48-7.201
				c3.4,0,5.479,1.973,5.479,7.201v1.554C821.114,347.715,819.035,349.668,815.635,349.668z M818.195,340.933
				c0-3.801-1.112-4.829-2.561-4.829c-1.449,0-2.562,1.028-2.562,4.829v1.554c0,3.8,1.113,4.808,2.562,4.808
				c1.448,0,2.561-1.008,2.561-4.808V340.933z"/>
			<path fill="#F1DEAE" d="M837.221,349.5h-1.784c-0.231,0-0.42-0.189-0.42-0.42v-0.336c-0.966,0.588-1.952,0.924-2.96,0.924
				c-1.743,0-3.633-0.672-3.633-3.506v-0.084c0-2.395,1.47-3.633,5.123-3.633h1.322v-0.924c0-1.365-0.608-1.701-1.848-1.701
				c-1.344,0-2.729,0.084-3.422,0.168c-0.042,0-0.084,0-0.105,0c-0.209,0-0.377-0.062-0.377-0.356v-1.344
				c0-0.231,0.125-0.378,0.398-0.44c0.84-0.168,2.058-0.336,3.506-0.336c2.982,0,4.619,1.322,4.619,4.01v7.559
				C837.641,349.31,837.452,349.5,837.221,349.5z M834.869,344.293h-1.322c-1.91,0-2.33,0.609-2.33,1.785v0.084
				c0,1.028,0.461,1.301,1.512,1.301c0.756,0,1.532-0.252,2.141-0.588V344.293z"/>
			<path fill="#F1DEAE" d="M853.244,341.647l-1.89,1.26c-1.974,1.323-2.981,2.372-2.981,4.115v0.084h6.908
				c0.23,0,0.42,0.147,0.42,0.378v1.596c0,0.23-0.189,0.42-0.42,0.42h-8.902c-0.231,0-0.42-0.189-0.42-0.42v-2.058
				c0-2.31,1.448-4.347,3.191-5.501l2.078-1.386c1.617-1.071,1.932-1.407,1.932-2.562c0-1.134-0.714-1.554-2.457-1.554
				c-1.238,0-2.939,0.168-4.199,0.315c-0.021,0-0.021,0-0.041,0c-0.231,0-0.379-0.189-0.379-0.42v-1.26
				c0-0.211,0.189-0.336,0.399-0.399c1.092-0.294,2.855-0.524,4.22-0.524c3.675,0,5.166,1.238,5.166,3.842
				C855.869,339.316,854.966,340.492,853.244,341.647z"/>
			<path fill="#F1DEAE" d="M875.986,334.361l-3.443,13.165c-0.504,1.952-2.016,2.142-2.918,2.142c-0.903,0-2.415-0.189-2.919-2.142
				l-3.443-13.165c0-0.041-0.021-0.062-0.021-0.104c0-0.21,0.168-0.356,0.377-0.356h2.227c0.188,0,0.356,0.168,0.398,0.356
				l3.045,12.618c0.062,0.252,0.125,0.336,0.336,0.336c0.209,0,0.272-0.084,0.336-0.336l3.044-12.618
				c0.042-0.188,0.21-0.356,0.399-0.356h2.225c0.211,0,0.379,0.146,0.379,0.356C876.008,334.299,875.986,334.32,875.986,334.361z"/>
			<path fill="#F1DEAE" d="M885.08,349.5h-1.785c-0.23,0-0.42-0.189-0.42-0.42v-0.336c-0.966,0.588-1.953,0.924-2.961,0.924
				c-1.742,0-3.632-0.672-3.632-3.506v-0.084c0-2.395,1.47-3.633,5.123-3.633h1.323v-0.924c0-1.365-0.609-1.701-1.848-1.701
				c-1.344,0-2.73,0.084-3.423,0.168c-0.042,0-0.084,0-0.104,0c-0.211,0-0.379-0.062-0.379-0.356v-1.344
				c0-0.231,0.127-0.378,0.399-0.44c0.84-0.168,2.058-0.336,3.507-0.336c2.98,0,4.619,1.322,4.619,4.01v7.559
				C885.5,349.31,885.311,349.5,885.08,349.5z M882.729,344.293h-1.323c-1.911,0-2.331,0.609-2.331,1.785v0.084
				c0,1.028,0.463,1.301,1.512,1.301c0.756,0,1.533-0.252,2.143-0.588V344.293z"/>
			<path fill="#F1DEAE" d="M892.073,349.668c-0.819,0-2.583-0.105-3.759-0.42c-0.252-0.062-0.398-0.23-0.398-0.482v-1.26
				c0-0.168,0.146-0.336,0.357-0.336c0.041,0,0.062,0,0.084,0c1.008,0.125,2.896,0.23,3.527,0.23c1.301,0,1.49-0.441,1.49-1.008
				c0-0.398-0.252-0.65-0.924-1.07l-2.877-1.764c-1.028-0.631-1.764-1.68-1.764-2.898c0-2.1,1.323-3.148,3.99-3.148
				c1.7,0,2.666,0.188,3.736,0.42c0.252,0.062,0.379,0.23,0.379,0.482v1.218c0,0.252-0.127,0.399-0.336,0.399
				c-0.043,0-0.063,0-0.084,0c-0.588-0.084-2.268-0.252-3.465-0.252c-1.008,0-1.449,0.23-1.449,0.881
				c0,0.336,0.315,0.547,0.84,0.861l2.751,1.68c1.764,1.07,2.016,2.121,2.016,3.191
				C896.188,348.219,894.824,349.668,892.073,349.668z"/>
			<path fill="#F1DEAE" d="M903.161,349.668c-3.296,0-5.019-2.226-5.019-5.229v-1.7c0-3.003,1.723-5.228,5.019-5.228
				s5.019,2.225,5.019,5.228v1.7C908.18,347.442,906.457,349.668,903.161,349.668z M905.408,342.739
				c0-1.722-0.777-2.835-2.247-2.835s-2.247,1.113-2.247,2.835v1.7c0,1.723,0.777,2.835,2.247,2.835s2.247-1.112,2.247-2.835
				V342.739z"/>
			<path fill="#F1DEAE" d="M914.396,349.668c-0.819,0-2.583-0.105-3.759-0.42c-0.252-0.062-0.399-0.23-0.399-0.482v-1.26
				c0-0.168,0.147-0.336,0.357-0.336c0.042,0,0.062,0,0.084,0c1.008,0.125,2.897,0.23,3.527,0.23c1.302,0,1.49-0.441,1.49-1.008
				c0-0.398-0.252-0.65-0.924-1.07l-2.876-1.764c-1.028-0.631-1.764-1.68-1.764-2.898c0-2.1,1.323-3.148,3.989-3.148
				c1.701,0,2.666,0.188,3.737,0.42c0.252,0.062,0.378,0.23,0.378,0.482v1.218c0,0.252-0.126,0.399-0.336,0.399
				c-0.042,0-0.062,0-0.084,0c-0.588-0.084-2.268-0.252-3.465-0.252c-1.008,0-1.448,0.23-1.448,0.881
				c0,0.336,0.315,0.547,0.84,0.861l2.751,1.68c1.764,1.07,2.016,2.121,2.016,3.191
				C918.512,348.219,917.146,349.668,914.396,349.668z"/>
		</g>
		<g>
			<g>
				<g>
					<g>
						<polygon fill="#E6FFE5" points="781.417,367.395 780.49,359.301 784.402,359.301 784.402,356.173 779.6,356.173 
							779.908,358.872 780.972,368.173 784.402,368.173 784.402,367.395 						"/>
						<polygon fill="#D0E9EF" points="784.402,356.173 784.402,359.301 788.313,359.301 787.388,367.395 784.402,367.395 
							784.402,368.173 787.832,368.173 788.896,358.872 789.205,356.173 						"/>
						<polygon fill="#E4CA93" points="787.388,367.395 788.313,359.301 784.402,359.301 784.402,367.395 						"/>
						<polygon fill="#F1DEAE" points="781.417,367.395 784.402,367.395 784.402,359.301 780.49,359.301 						"/>
					</g>
				</g>
			</g>
			<g>
				<g>
					<g>
						<polygon fill="#E6FFE5" points="793.931,367.395 793.004,359.301 796.916,359.301 796.916,356.173 792.113,356.173 
							792.422,358.872 793.485,368.173 796.916,368.173 796.916,367.395 						"/>
						<polygon fill="#D0E9EF" points="796.916,356.173 796.916,359.301 800.827,359.301 799.901,367.395 796.916,367.395 
							796.916,368.173 800.346,368.173 801.409,358.872 801.719,356.173 						"/>
						<polygon fill="#E4CA93" points="799.901,367.395 800.827,359.301 796.916,359.301 796.916,367.395 						"/>
						<polygon fill="#F1DEAE" points="793.931,367.395 796.916,367.395 796.916,359.301 793.004,359.301 						"/>
					</g>
				</g>
			</g>
		</g>
	</g>
</g>
</svg>
