<?xml version="1.0" encoding="utf-8"?>
<!-- Generator: Adobe Illustrator 16.0.0, SVG Export Plug-In . SVG Version: 6.00 Build 0)  -->
<!DOCTYPE svg PUBLIC "-//W3C//DTD SVG 1.1//EN" "http://www.w3.org/Graphics/SVG/1.1/DTD/svg11.dtd">
<svg version="1.1" id="Layer_1" xmlns="http://www.w3.org/2000/svg" xmlns:xlink="http://www.w3.org/1999/xlink" x="0px" y="0px"
	 width="1280px" height="700px" viewBox="0 0 1280 700" enable-background="new 0 0 1280 700" xml:space="preserve">
<g id="Textos">
	<path fill="#4C4452" d="M832.894,231.5H445.046c-6.109,0-11.223,4.814-11.223,10.926V447.43c0,6.111,5.111,11.07,11.225,11.07
		h387.849c6.108,0,10.929-4.959,10.929-11.07V242.426C843.824,236.314,839.005,231.5,832.894,231.5z"/>
</g>
<path fill="#4C4452" d="M832.894,231.5H445.046c-6.109,0-11.223,4.814-11.223,10.926V447.43c0,6.111,5.111,11.07,11.225,11.07
	h387.849c6.108,0,10.929-4.959,10.929-11.07V242.426C843.824,236.314,839.005,231.5,832.894,231.5z"/>
<g>
	<g>
		<g>
			<g>
				<g>
					<path opacity="0.15" d="M767.825,272.413c7.565,0,13.145,5.671,13.145,13.145v153.586c0,7.474-5.579,13.146-13.145,13.146
						H527.411c-7.566,0-13.145-5.672-13.145-13.146V285.557c0-7.473,5.58-13.145,13.145-13.145H767.825z"/>
					<path fill="#E2D4D5" d="M758.42,262.713c7.565,0,13.145,5.671,13.145,13.144v9.687v134.215v9.685
						c0,7.474-5.579,13.146-13.145,13.146H518.006c-7.566,0-13.145-5.672-13.145-13.146v-9.685V285.543v-9.687
						c0-7.472,5.579-13.144,13.145-13.144H758.42z"/>
					<path fill="#3C3541" d="M506.591,275.856v9.687v134.215v9.685c0,3.165,1.147,6.061,3.231,8.155
						c2.092,2.104,4.998,3.261,8.184,3.261H758.42c3.185,0,6.092-1.157,8.183-3.261c2.085-2.095,3.231-4.99,3.231-8.155v-9.685
						V285.543v-9.687c0-3.164-1.146-6.06-3.231-8.154c-2.091-2.103-4.998-3.261-8.183-3.261H518.006
						c-3.186,0-6.092,1.158-8.184,3.261C507.739,269.797,506.591,272.692,506.591,275.856z"/>
					<path fill="#E2D4D5" d="M758.42,440.859H518.006h-0.001c-3.185,0-6.091-1.157-8.183-3.261c-2.084-2.095-3.231-4.99-3.231-8.155
						v-9.685V285.543v-9.687c0-3.164,1.147-6.06,3.231-8.154c2.092-2.103,4.998-3.261,8.184-3.261H758.42
						c3.185,0,6.092,1.158,8.183,3.261c2.085,2.094,3.231,4.99,3.231,8.154v9.687v134.215v9.685c0,3.165-1.146,6.061-3.231,8.155
						C764.512,439.702,761.604,440.859,758.42,440.859 M758.42,441.48c3.352,0,6.415-1.223,8.623-3.443
						c2.201-2.213,3.413-5.264,3.413-8.594v-9.685V285.543v-9.687c0-3.33-1.212-6.382-3.413-8.592
						c-2.208-2.222-5.271-3.445-8.623-3.445H518.006c-3.352,0-6.415,1.223-8.624,3.445c-2.201,2.211-3.413,5.264-3.413,8.592v9.687
						v134.215v9.685c0,3.33,1.212,6.381,3.413,8.594c2.209,2.221,5.271,3.443,8.623,3.443H758.42L758.42,441.48z"/>
				</g>
				<g>
					<circle fill="#4C4452" cx="758.146" cy="356.483" r="6.604"/>
					<path opacity="0.25" fill="#4C4452" d="M758.146,363.088c3.524,0,6.395-2.762,6.586-6.238c-0.674,0.102-3.113,0.432-6.55,0.43
						c-3.418,0.002-5.915-0.324-6.623-0.428C751.751,360.326,754.623,363.088,758.146,363.088z"/>
					<path fill="#3C3541" d="M756.128,354.991c0-0.343,0.279-0.622,0.623-0.622h2.984c0.344,0,0.622,0.279,0.622,0.622v2.985
						c0,0.342-0.278,0.622-0.622,0.622h-2.984c-0.344,0-0.623-0.28-0.623-0.622V354.991 M755.713,354.991v2.985
						c0,0.571,0.465,1.036,1.038,1.036h2.984c0.572,0,1.037-0.465,1.037-1.036v-2.985c0-0.573-0.465-1.037-1.037-1.037h-2.984
						C756.178,353.954,755.713,354.418,755.713,354.991L755.713,354.991z"/>
				</g>
				<g>
					<circle fill="#3C3541" cx="519.198" cy="356.484" r="1.762"/>
					<circle fill="#E2D4D5" cx="519.198" cy="356.483" r="0.638"/>
					<circle opacity="0.5" fill="#E2D4D5" cx="519.016" cy="356.276" r="0.255"/>
				</g>
			</g>
			<g>
				<defs>
					<rect id="SVGID_1_" x="531.985" y="286.345" width="212.205" height="132.337"/>
				</defs>
				<clipPath id="SVGID_2_">
					<use xlink:href="#SVGID_1_"  overflow="visible"/>
				</clipPath>
				<rect x="512.845" y="283.078" clip-path="url(#SVGID_2_)" fill="#453C4B" width="250.485" height="136.984"/>
				<g clip-path="url(#SVGID_2_)">
				</g>
				<g clip-path="url(#SVGID_2_)">
					<path fill="#C3E1D5" d="M561.869,407.742c-1.173,0-2.133,0.96-2.133,2.133v10.215c0,1.174,0.96,2.134,2.133,2.134h152.287
						c1.173,0,2.133-0.96,2.133-2.134v-10.215c0-1.173-0.96-2.133-2.133-2.133H561.869z"/>
				</g>
				<path clip-path="url(#SVGID_2_)" fill="#95CAB4" d="M646.854,411.851c-0.004-0.087,0.025-0.198-0.077-0.198
					c-0.111,0-0.224,0-0.335,0c-0.08,0-0.156-0.006-0.156,0.056c0,0.168-0.098,0.322-0.249,0.399
					c-0.021-0.137-0.111-0.451-0.111-0.451h-3.01c0,0-0.09,0.314-0.11,0.451c-0.152-0.077-0.25-0.231-0.25-0.399
					c0-0.062-0.075-0.056-0.155-0.056c-0.111,0-0.224,0-0.336,0c-0.103,0-0.073,0.111-0.077,0.198
					c-0.005,0.094-0.002,0.188,0.007,0.282c0.02,0.195,0.067,0.391,0.162,0.564c0.086,0.161,0.211,0.298,0.369,0.391
					c0.076,0.047,0.16,0.083,0.247,0.108c0.09,0.027,0.213,0.064,0.229,0.161c0.068,0.438,0.51,1.198,0.823,1.479
					c0.134,0.12,0.44,0.301,0.395,0.511c-0.016,0.065-0.062,0.149-0.069,0.199c-0.016,0.102-0.015,0.205-0.04,0.307
					c-0.055,0.227-0.204,0.419-0.353,0.592c-0.055,0.062-0.18,0.14-0.18,0.14h-0.23l-0.084,0.136h-0.187c0,0,0,0.196,0,0.294
					c0,0.137,0.133,0.116,0.133,0.116h2.424c0,0,0.134,0.021,0.134-0.116c0-0.098,0-0.294,0-0.294h-0.188l-0.084-0.136h-0.23
					c0,0-0.124-0.077-0.179-0.14c-0.149-0.173-0.298-0.365-0.354-0.592c-0.024-0.102-0.024-0.205-0.039-0.307
					c-0.008-0.05-0.055-0.134-0.069-0.199c-0.046-0.21,0.261-0.391,0.394-0.511c0.314-0.281,0.755-1.042,0.823-1.479
					c0.016-0.097,0.14-0.134,0.229-0.161c0.087-0.025,0.169-0.062,0.247-0.108c0.157-0.093,0.282-0.229,0.37-0.391
					c0.093-0.174,0.142-0.369,0.161-0.564C646.856,412.039,646.859,411.944,646.854,411.851z M642.568,412.921
					c-0.094-0.067-0.17-0.157-0.224-0.259c-0.116-0.215-0.147-0.473-0.133-0.713c0.057,0,0.113,0,0.172,0
					c0.067,0,0.05,0.048,0.075,0.106c0.044,0.107,0.123,0.2,0.224,0.262c0.014,0.009,0.091,0.034,0.09,0.052
					c-0.001,0.066-0.008,0.133-0.008,0.199c0,0.165,0.036,0.329,0.097,0.481C642.765,413.001,642.661,412.987,642.568,412.921z
					 M646.473,412.662c-0.056,0.102-0.131,0.193-0.225,0.259c-0.093,0.066-0.195,0.08-0.293,0.129
					c0.061-0.152,0.099-0.316,0.099-0.48c0-0.067-0.009-0.134-0.01-0.2c-0.001-0.018,0.076-0.042,0.091-0.052
					c0.099-0.062,0.179-0.153,0.224-0.261c0.024-0.059,0.008-0.106,0.074-0.106c0.057,0,0.114,0,0.172,0
					C646.619,412.189,646.587,412.448,646.473,412.662z"/>
				<path clip-path="url(#SVGID_2_)" fill="#B4D2BF" d="M614.87,415.279c0,1.013-0.821,1.834-1.834,1.834
					c-1.013,0-1.833-0.821-1.833-1.834s1.833-3.645,1.833-3.645S614.87,414.267,614.87,415.279z"/>
				<g clip-path="url(#SVGID_2_)">
					<path fill="#B4D2BF" d="M630.879,412.399h-0.002l0,0h-4.501h-0.011c-0.23,0-0.38,0.21-0.38,0.441v3.871
						c0,0.23,0.15,0.385,0.38,0.385h4.514c0.23,0,0.389-0.154,0.389-0.385v-3.871C631.269,412.609,631.109,412.399,630.879,412.399z
						"/>
					<path fill="#B4D2BF" d="M630.879,412.399h-0.002l0,0h-4.501h-0.011c-0.23,0-0.38,0.21-0.38,0.441v0.929h5.284v-0.929
						C631.269,412.609,631.109,412.399,630.879,412.399z"/>
					<circle fill="#C3E1D5" cx="629.801" cy="413.097" r="0.404"/>
					<circle fill="#C3E1D5" cx="627.453" cy="413.097" r="0.404"/>
					<path fill="#B4D2BF" d="M629.801,411.651c-0.174,0-0.294,0.143-0.294,0.316v1.112c0,0.175,0.12,0.315,0.293,0.315
						c0.174,0,0.293-0.141,0.293-0.315v-1.112C630.094,411.794,629.976,411.651,629.801,411.651z"/>
					<path fill="#B4D2BF" d="M627.453,411.651c-0.174,0-0.294,0.143-0.294,0.316v1.112c0,0.175,0.119,0.315,0.293,0.315
						s0.293-0.141,0.293-0.315v-1.112C627.746,411.794,627.626,411.651,627.453,411.651z"/>
					<g>
						<path fill="#C3E1D5" d="M627.21,416.05c-0.031,0-0.055-0.024-0.055-0.056v-0.21c0-0.03,0.024-0.049,0.055-0.049h0.369v-1.358
							l-0.361,0.11c-0.014,0.005-0.025,0.005-0.033,0.005c-0.02,0-0.03-0.008-0.03-0.032v-0.26c0-0.017,0.005-0.024,0.019-0.03
							l0.489-0.16c0.016-0.005,0.033-0.011,0.062-0.011h0.183c0.031,0,0.052,0.021,0.052,0.052v1.685h0.37
							c0.03,0,0.056,0.019,0.056,0.049v0.21c0,0.031-0.025,0.056-0.056,0.056H627.21z"/>
						<path fill="#C3E1D5" d="M629.406,416.071c-0.204,0-0.373-0.03-0.53-0.068c-0.027-0.006-0.053-0.024-0.053-0.053v-0.171
							c0-0.031,0.022-0.05,0.05-0.05c0.003,0,0.003,0,0.005,0c0.218,0.022,0.395,0.039,0.527,0.039c0.224,0,0.31-0.101,0.31-0.292
							v-0.059c0-0.146-0.044-0.279-0.254-0.279h-0.488c-0.031,0-0.053-0.021-0.053-0.052v-0.175c0-0.03,0.022-0.052,0.053-0.052
							h0.488c0.21,0,0.254-0.124,0.254-0.271v-0.044c0-0.141-0.056-0.265-0.31-0.265c-0.196,0-0.284,0.013-0.527,0.037
							c-0.002,0-0.002,0-0.005,0c-0.027,0-0.05-0.019-0.05-0.049v-0.171c0-0.027,0.025-0.048,0.053-0.053
							c0.157-0.038,0.326-0.069,0.53-0.069c0.398,0,0.693,0.151,0.693,0.569v0.044c0,0.192-0.088,0.328-0.237,0.408
							c0.152,0.084,0.237,0.243,0.237,0.42v0.059C630.099,415.887,629.798,416.071,629.406,416.071z"/>
					</g>
				</g>
				<path clip-path="url(#SVGID_2_)" fill="#B4D2BF" d="M646.776,411.616c-0.111,0-0.224,0-0.335,0c-0.08,0-0.156,0.014-0.156,0.075
					c0,0.168-0.098,0.311-0.249,0.386c-0.021-0.135-0.111-0.461-0.111-0.461h-3.01c0,0-0.09,0.335-0.11,0.471
					c-0.152-0.076-0.25-0.237-0.25-0.405c0-0.062-0.075-0.065-0.155-0.065c-0.111,0-0.224,0-0.336,0
					c-0.103,0-0.073,0.13-0.077,0.217c-0.005,0.094-0.002,0.197,0.007,0.29c0.02,0.196,0.067,0.396,0.162,0.569
					c0.086,0.161,0.211,0.3,0.369,0.394c0.076,0.047,0.16,0.083,0.247,0.109c0.09,0.027,0.213,0.065,0.229,0.161
					c0.068,0.438,0.51,1.198,0.823,1.48c0.134,0.119,0.44,0.301,0.395,0.511c-0.016,0.065-0.062,0.149-0.069,0.199
					c-0.016,0.102-0.015,0.204-0.04,0.307c-0.055,0.227-0.204,0.419-0.353,0.592c-0.019,0.021-0.045,0.043-0.071,0.063h-0.339
					l-0.084,0.197h-0.447c0,0,0,0.211,0,0.309c0,0.137,0.148,0.277,0.148,0.277h2.865c0,0,0.117-0.141,0.117-0.277
					c0-0.098,0-0.309,0-0.309h-0.367l-0.084-0.197h-0.338c-0.027-0.021-0.053-0.043-0.071-0.063
					c-0.149-0.173-0.298-0.365-0.354-0.592c-0.024-0.102-0.024-0.205-0.039-0.307c-0.008-0.05-0.055-0.134-0.069-0.199
					c-0.046-0.21,0.261-0.391,0.394-0.511c0.314-0.281,0.755-1.042,0.823-1.479c0.016-0.097,0.14-0.134,0.229-0.161
					c0.087-0.025,0.169-0.062,0.247-0.108c0.157-0.093,0.282-0.229,0.37-0.391c0.093-0.174,0.142-0.369,0.161-0.564
					c0.009-0.094,0.012-0.206,0.006-0.3C646.85,411.746,646.879,411.616,646.776,411.616z M642.568,412.921
					c-0.094-0.067-0.17-0.128-0.224-0.229c-0.116-0.215-0.147-0.488-0.133-0.684c0.057,0,0.113,0,0.172,0
					c0.067,0,0.05,0.018,0.075,0.076c0.044,0.107,0.123,0.187,0.224,0.247c0.014,0.009,0.091,0.026,0.09,0.045
					c-0.001,0.066-0.008,0.129-0.008,0.196c0,0.164,0.036,0.325,0.097,0.479C642.765,413.003,642.661,412.987,642.568,412.921z
					 M646.473,412.692c-0.056,0.101-0.131,0.177-0.225,0.243c-0.093,0.066-0.195,0.073-0.293,0.121
					c0.061-0.152,0.099-0.318,0.099-0.483c0-0.067-0.009-0.135-0.01-0.202c-0.001-0.018,0.076-0.043,0.091-0.053
					c0.099-0.062,0.179-0.125,0.224-0.232c0.024-0.059,0.008-0.077,0.074-0.077c0.057,0,0.114,0,0.172,0
					C646.619,412.204,646.587,412.478,646.473,412.692z"/>
				<g clip-path="url(#SVGID_2_)">
					<path fill="#B4D2BF" d="M663.058,411.846h-4.911c-0.229,0.007-0.409,0.192-0.409,0.422v3.319c0,0.229,0.181,0.415,0.413,0.423
						h1.57l0.792,1.262c0.021,0.033,0.057,0.054,0.095,0.054c0.04,0,0.076-0.021,0.097-0.054l0.792-1.262h1.562
						c0.232,0,0.421-0.189,0.421-0.423v-3.319C663.479,412.035,663.29,411.846,663.058,411.846z"/>
					<circle fill="#C3E1D5" cx="659.323" cy="413.941" r="0.337"/>
					<circle fill="#C3E1D5" cx="660.692" cy="413.941" r="0.337"/>
					<circle fill="#C3E1D5" cx="662.062" cy="413.941" r="0.337"/>
				</g>
				<g clip-path="url(#SVGID_2_)">
					<g>
						<g>
							<g>
								<path fill="#95CAB4" d="M600.322,416.895c0,0.126-0.103,0.229-0.229,0.229h-3.653c-0.125,0-0.228-0.103-0.228-0.229v-5.022
									c0-0.126,0.103-0.228,0.228-0.228h3.653c0.125,0,0.229,0.102,0.229,0.228V416.895z"/>
							</g>
							<g>
								<rect x="596.212" y="413.413" fill="#C3E1D5" width="4.109" height="0.115"/>
							</g>
							<g>
								<rect x="596.668" y="412.101" fill="#C3E1D5" width="3.197" height="0.913"/>
							</g>
							<g>
								<g>
									<rect x="596.668" y="416.21" fill="#C3E1D5" width="0.457" height="0.456"/>
								</g>
								<g>
									<rect x="597.354" y="416.21" fill="#C3E1D5" width="0.457" height="0.456"/>
								</g>
								<g>
									<rect x="598.039" y="416.21" fill="#C3E1D5" width="0.457" height="0.456"/>
								</g>
								<g>
									<rect x="598.724" y="415.525" fill="#C3E1D5" width="0.456" height="1.141"/>
								</g>
								<g>
									<rect x="599.408" y="416.21" fill="#C3E1D5" width="0.457" height="0.456"/>
								</g>
							</g>
							<g>
								<g>
									<rect x="596.668" y="415.525" fill="#C3E1D5" width="0.457" height="0.456"/>
								</g>
								<g>
									<rect x="597.354" y="415.525" fill="#C3E1D5" width="0.457" height="0.456"/>
								</g>
								<g>
									<rect x="598.039" y="415.525" fill="#C3E1D5" width="0.457" height="0.456"/>
								</g>
								<g>
									<rect x="599.408" y="415.525" fill="#C3E1D5" width="0.457" height="0.456"/>
								</g>
							</g>
							<g>
								<g>
									<rect x="596.668" y="414.84" fill="#C3E1D5" width="0.457" height="0.457"/>
								</g>
								<g>
									<rect x="597.354" y="414.84" fill="#C3E1D5" width="0.457" height="0.457"/>
								</g>
								<g>
									<rect x="598.039" y="414.84" fill="#C3E1D5" width="0.457" height="0.457"/>
								</g>
								<g>
									<rect x="598.724" y="414.84" fill="#C3E1D5" width="0.456" height="0.457"/>
								</g>
								<g>
									<rect x="599.408" y="414.84" fill="#C3E1D5" width="0.457" height="0.457"/>
								</g>
							</g>
							<g>
								<g>
									<rect x="596.668" y="414.154" fill="#C3E1D5" width="0.457" height="0.458"/>
								</g>
								<g>
									<rect x="597.354" y="414.154" fill="#C3E1D5" width="0.457" height="0.458"/>
								</g>
								<g>
									<rect x="598.039" y="414.154" fill="#C3E1D5" width="0.457" height="0.458"/>
								</g>
								<g>
									<g>
										<rect x="598.724" y="414.154" fill="#C3E1D5" width="0.456" height="0.458"/>
									</g>
								</g>
								<g>
									<rect x="599.408" y="414.154" fill="#C3E1D5" width="0.457" height="0.458"/>
								</g>
							</g>
						</g>
					</g>
					<g>
						<g>
							<g>
								<path fill="#B4D2BF" d="M600.322,416.895c0,0.126-0.103,0.229-0.229,0.229h-3.653c-0.125,0-0.228-0.103-0.228-0.229v-5.022
									c0-0.126,0.103-0.228,0.228-0.228h3.653c0.125,0,0.229,0.102,0.229,0.228V416.895z"/>
							</g>
						</g>
					</g>
					<g>
						<rect x="596.668" y="412.101" fill="#C3E1D5" width="3.197" height="0.913"/>
					</g>
					<g>
						<g>
							<rect x="596.668" y="416.21" fill="#C3E1D5" width="0.457" height="0.456"/>
						</g>
						<g>
							<rect x="597.354" y="416.21" fill="#C3E1D5" width="0.457" height="0.456"/>
						</g>
						<g>
							<rect x="598.039" y="416.21" fill="#C3E1D5" width="0.457" height="0.456"/>
						</g>
						<g>
							<rect x="598.724" y="415.525" fill="#C3E1D5" width="0.456" height="1.141"/>
						</g>
						<g>
							<rect x="599.408" y="416.21" fill="#C3E1D5" width="0.457" height="0.456"/>
						</g>
					</g>
					<g>
						<g>
							<rect x="596.668" y="415.525" fill="#C3E1D5" width="0.457" height="0.456"/>
						</g>
						<g>
							<rect x="597.354" y="415.525" fill="#C3E1D5" width="0.457" height="0.456"/>
						</g>
						<g>
							<rect x="598.039" y="415.525" fill="#C3E1D5" width="0.457" height="0.456"/>
						</g>
						<g>
							<rect x="599.408" y="415.525" fill="#C3E1D5" width="0.457" height="0.456"/>
						</g>
					</g>
					<g>
						<g>
							<rect x="596.668" y="414.84" fill="#C3E1D5" width="0.457" height="0.457"/>
						</g>
						<g>
							<rect x="597.354" y="414.84" fill="#C3E1D5" width="0.457" height="0.457"/>
						</g>
						<g>
							<rect x="598.039" y="414.84" fill="#C3E1D5" width="0.457" height="0.457"/>
						</g>
						<g>
							<rect x="598.724" y="414.84" fill="#C3E1D5" width="0.456" height="0.457"/>
						</g>
						<g>
							<rect x="599.408" y="414.84" fill="#C3E1D5" width="0.457" height="0.457"/>
						</g>
					</g>
					<g>
						<g>
							<rect x="596.668" y="414.154" fill="#C3E1D5" width="0.457" height="0.458"/>
						</g>
						<g>
							<rect x="597.354" y="414.154" fill="#C3E1D5" width="0.457" height="0.458"/>
						</g>
						<g>
							<rect x="598.039" y="414.154" fill="#C3E1D5" width="0.457" height="0.458"/>
						</g>
						<g>
							<g>
								<rect x="598.724" y="414.154" fill="#C3E1D5" width="0.456" height="0.458"/>
							</g>
						</g>
						<g>
							<rect x="599.408" y="414.154" fill="#C3E1D5" width="0.457" height="0.458"/>
						</g>
					</g>
				</g>
				<g clip-path="url(#SVGID_2_)">
					<path fill="#B4D2BF" d="M679.59,413.918h-0.361c-0.041,0-0.091-0.036-0.106-0.086l-0.213-0.515
						c-0.019-0.035-0.011-0.098,0.019-0.126l0.255-0.256c0.046-0.046,0.073-0.108,0.073-0.176c0-0.066-0.027-0.129-0.073-0.176
						l-0.294-0.295c-0.094-0.092-0.257-0.092-0.351,0.002l-0.256,0.255c-0.027,0.028-0.076,0.045-0.135,0.014l-0.517-0.211
						c-0.039-0.012-0.075-0.062-0.075-0.103v-0.362c0-0.138-0.111-0.249-0.249-0.249h-0.415c-0.138,0-0.248,0.111-0.248,0.249v0.362
						c0,0.04-0.038,0.091-0.087,0.105l-0.516,0.213c-0.032,0.019-0.098,0.01-0.124-0.019l-0.257-0.255
						c-0.094-0.094-0.258-0.094-0.352,0l-0.294,0.293c-0.047,0.047-0.072,0.109-0.072,0.176c0,0.067,0.025,0.13,0.072,0.176
						l0.256,0.256c0.028,0.028,0.038,0.091,0.014,0.136l-0.212,0.515c-0.011,0.038-0.062,0.076-0.103,0.076h-0.361
						c-0.137,0-0.249,0.112-0.249,0.25v0.414c0,0.137,0.112,0.249,0.249,0.249h0.361c0.041,0,0.092,0.038,0.106,0.086l0.212,0.515
						c0.021,0.036,0.011,0.098-0.018,0.126l-0.255,0.255c-0.048,0.047-0.073,0.11-0.073,0.177s0.026,0.129,0.072,0.175l0.294,0.296
						c0.096,0.092,0.258,0.092,0.353-0.002l0.256-0.255c0.026-0.027,0.074-0.045,0.135-0.013l0.515,0.21
						c0.039,0.012,0.077,0.063,0.077,0.104v0.362c0,0.137,0.11,0.247,0.248,0.247h0.415c0.138,0,0.249-0.11,0.249-0.247v-0.362
						c0-0.042,0.036-0.092,0.085-0.105l0.516-0.214c0.033-0.018,0.1-0.009,0.126,0.019l0.256,0.256c0.093,0.094,0.258,0.094,0.352,0
						l0.293-0.294c0.046-0.047,0.073-0.109,0.073-0.176s-0.027-0.13-0.073-0.176l-0.255-0.255c-0.029-0.029-0.037-0.092-0.014-0.136
						l0.212-0.516c0.012-0.039,0.062-0.076,0.103-0.076h0.361c0.137,0,0.249-0.112,0.249-0.249v-0.414
						C679.839,414.03,679.727,413.918,679.59,413.918z"/>
					<g>
						<circle fill="#C3E1D5" cx="677.099" cy="414.375" r="0.758"/>
					</g>
				</g>
				<g opacity="0.2" clip-path="url(#SVGID_2_)">
					<text transform="matrix(1 0 0 1 572.1738 295.5889)" fill="#FFFFFF" font-family="'NeoSansStd-Light'" font-size="2.7397">21:10</text>
					<path fill="#FFFFFF" d="M570.766,296.496c-0.04-0.039-0.103-0.046-0.149-0.015c-0.53,0.346-1.147,0.53-1.786,0.53
						c-1.802,0-3.27-1.467-3.27-3.269c0-0.844,0.322-1.646,0.906-2.257c0.039-0.041,0.044-0.103,0.012-0.149
						c-0.031-0.046-0.091-0.065-0.143-0.043c-1.385,0.558-2.28,1.887-2.28,3.384c0,2.014,1.638,3.652,3.652,3.652
						c1.225,0,2.402-0.646,3.073-1.684C570.813,296.598,570.806,296.536,570.766,296.496z M567.709,298.091
						c-1.882,0-3.414-1.532-3.414-3.414c0-1.216,0.632-2.313,1.647-2.923c-0.401,0.582-0.618,1.271-0.618,1.988
						c0,1.934,1.573,3.507,3.507,3.507c0.493,0,0.973-0.102,1.417-0.297C569.603,297.665,568.672,298.091,567.709,298.091z"/>
				</g>
				<g opacity="0.25" clip-path="url(#SVGID_2_)">
					<circle opacity="0.25" cx="638.385" cy="348.32" r="1.186"/>
					<rect x="625.041" y="347.929" fill="#312839" width="26.027" height="0.391"/>
					<circle fill="#C3E1D5" cx="638.153" cy="348.115" r="1.186"/>
					<circle fill="#312839" cx="638.153" cy="348.115" r="0.593"/>
				</g>
				<g clip-path="url(#SVGID_2_)">
					<path fill-rule="evenodd" clip-rule="evenodd" fill="#DEDEDE" d="M600.092,305.748h70.314c1.081,0,1.957,0.876,1.957,1.957
						v85.908c0,1.081-0.876,1.957-1.957,1.957h-70.314c-1.081,0-1.957-0.876-1.957-1.957v-85.908
						C598.136,306.624,599.012,305.748,600.092,305.748z"/>
					<g>
						<path fill-rule="evenodd" clip-rule="evenodd" fill="#C3E1D5" d="M602.305,303.204h70.314c1.08,0,1.956,0.877,1.956,1.958
							v85.908c0,1.08-0.876,1.957-1.956,1.957h-70.314c-1.082,0-1.957-0.877-1.957-1.957v-85.908
							C600.348,304.081,601.224,303.204,602.305,303.204z"/>
						<path fill-rule="evenodd" clip-rule="evenodd" fill="#5BA4C2" d="M601.109,355.258v35.812c0,0.54,0.439,0.979,0.979,0.979
							H672.4c0.54,0,0.979-0.438,0.979-0.979v-35.812H601.109z"/>
					</g>
					<g>
						<path fill-rule="evenodd" clip-rule="evenodd" fill="#DEDEDE" d="M600.364,368.066v3.522h32.599
							c0.662,0.782,3.514,3.277,3.676,3.554c0.159,0.274,0.538,0.264,0.696-0.013c0.22-0.383,3.022-2.954,3.669-3.541h33.512v-3.522
							H600.364z"/>
						<g>
							<g>
								<g>
									<g>
										<path fill-rule="evenodd" clip-rule="evenodd" fill="#C3E1D5" d="M672.621,303.204h-70.314
											c-1.081,0-1.958,0.876-1.958,1.958v65.557h32.614c0.662,0.782,3.514,3.256,3.676,3.533
											c0.159,0.273,0.538,0.274,0.696-0.003c0.22-0.382,3.022-2.943,3.669-3.53h33.573v-65.557
											C674.577,304.08,673.701,303.204,672.621,303.204z"/>
									</g>
								</g>
								<g>
									<g>
										<path opacity="0.05" d="M609.992,307.637h-4.911c-0.229,0.008-0.409,0.194-0.409,0.422v3.32
											c0,0.229,0.18,0.414,0.413,0.421h1.57l0.792,1.263c0.021,0.034,0.057,0.053,0.096,0.053c0.04,0,0.075-0.02,0.096-0.053
											l0.792-1.263h1.562c0.233,0,0.422-0.189,0.422-0.421v-3.32C610.414,307.827,610.225,307.637,609.992,307.637z"/>
										<path fill="#E2D4D5" d="M609.558,307.204h-4.911c-0.229,0.007-0.409,0.193-0.409,0.422v3.319
											c0,0.229,0.18,0.414,0.413,0.422h1.571l0.792,1.263c0.021,0.033,0.057,0.053,0.096,0.053c0.04,0,0.076-0.02,0.097-0.053
											l0.792-1.263h1.561c0.233,0,0.422-0.189,0.422-0.422v-3.319C609.98,307.393,609.791,307.204,609.558,307.204z"/>
										<path fill="#F5E5E5" d="M607.108,307.204h-2.461c-0.229,0.007-0.409,0.193-0.409,0.422v3.319
											c0,0.229,0.18,0.414,0.413,0.422h1.571l0.792,1.263c0.021,0.033,0.057,0.053,0.096,0.053
											C607.148,312.683,607.108,307.204,607.108,307.204z"/>
									</g>
									<circle fill="#B8B5BB" cx="605.823" cy="309.496" r="0.337"/>
									<circle fill="#B8B5BB" cx="607.193" cy="309.496" r="0.337"/>
									<circle fill="#B8B5BB" cx="608.563" cy="309.496" r="0.337"/>
								</g>
							</g>
							<g>
								<path opacity="0.05" fill-rule="evenodd" clip-rule="evenodd" d="M672.621,303.096h-2.789
									c-0.052,0.392-0.08,0.589-0.08,0.867c0,2.324,1.854,4.235,4.177,4.235c0.21,0,0.391,0.006,0.587-0.024v-3.013
									C674.516,304.08,673.701,303.096,672.621,303.096z"/>
								<g>
									<g>
										<path fill-rule="evenodd" clip-rule="evenodd" fill="#D86F79" d="M671.603,300.229c1.644-1.643,4.307-1.643,5.95,0
											c1.643,1.643,1.643,4.307,0,5.95c-1.644,1.643-4.307,1.643-5.95,0C669.959,304.536,669.959,301.872,671.603,300.229z"/>
									</g>
									<g>
										<path fill="#F5E5E5" stroke="#F5E5E5" stroke-miterlimit="10" d="M676.258,301.523c0.024,0.024,0.024,0.065-0.001,0.089
											l-1.571,1.571l1.572,1.572c0.024,0.024,0.024,0.064,0,0.089s-0.064,0.024-0.089,0l-1.572-1.572l-1.571,1.572
											c-0.024,0.024-0.064,0.024-0.089,0c-0.024-0.025-0.024-0.064,0-0.089l1.572-1.572l-1.573-1.572
											c-0.023-0.024-0.023-0.064,0.001-0.089c0.024-0.025,0.064-0.024,0.089,0l1.571,1.572l1.572-1.571
											C676.193,301.499,676.233,301.499,676.258,301.523z"/>
									</g>
								</g>
							</g>
						</g>
					</g>
				</g>
				<g clip-path="url(#SVGID_2_)">
					<g>
						<g>
							<text transform="matrix(1 0 0 1 614.8066 385.8516)"><tspan x="0" y="0" fill="#E2D4D5" font-family="'NeoSansStd-Black'" font-size="9.3932">7</tspan><tspan x="5.41" y="0" fill="#E2D4D5" font-family="'NeoSansStd-Black'" font-size="9.3932">0.000</tspan><tspan x="30.818" y="0" fill="#E2D4D5" font-family="'NeoSansStd-Bold'" font-size="9.3932"> </tspan><tspan x="32.321" y="0" fill="#E2D4D5" font-family="'NeoSansStd-Medium'" font-size="9.3932">ml.</tspan></text>
						</g>
					</g>
				</g>
				<g clip-path="url(#SVGID_2_)">
					<g>
						<g>
							<g>
								<text transform="matrix(1 0 0 1 607.8818 361.8867)"><tspan x="0" y="0" fill="#5BA4C2" font-family="'NeoSansStd-Medium'" font-size="3.5224">¡Hidrata tu Cuerpo, cada día, semana</tspan><tspan x="5.21" y="4.109" fill="#5BA4C2" font-family="'NeoSansStd-Medium'" font-size="3.5224">y alcanza el Objetivo Mensual!</tspan></text>
							</g>
						</g>
					</g>
					<g>
						<g>
							<g>
								<text transform="matrix(1 0 0 1 630.2827 357.0684)" fill="#3F5E78" font-family="'NeoSansStd-Bold'" font-size="5.6447">Anita</text>
							</g>
						</g>
					</g>
				</g>
				<g clip-path="url(#SVGID_2_)">
					<g>
						<g>
							<polygon fill="#F0CA67" points="619.953,319.018 637.917,308.646 655.883,319.018 655.883,339.761 637.917,350.133 
								619.953,339.761 							"/>
							<polygon fill="#F4DA80" points="637.924,308.649 637.901,308.646 619.918,319.018 619.918,339.761 637.901,350.133 
								637.924,350.129 							"/>
						</g>
					</g>
					<g>
						<polygon opacity="0.05" points="655.926,339.761 655.926,327.135 645.211,316.543 638.118,322.766 638.118,340.022 
							634.511,339.913 634.528,341.618 641.198,348.252 						"/>
						<g>
							<g>
								<g>
									<path fill-rule="evenodd" clip-rule="evenodd" fill="#E28E94" d="M642.204,339.222v-0.118h-8.433
										c0,2.328,1.889,4.216,4.218,4.216C640.277,343.32,642.142,341.497,642.204,339.222z"/>
									<path fill="#EE959B" d="M638.169,339.102l-4.365,0.036c0,2.188,1.687,4.242,4.016,4.242c0.039,0,0.349,0,0.349,0V339.102z"
										/>
								</g>
								<path fill-rule="evenodd" clip-rule="evenodd" fill="#CEAD8D" d="M638.104,341.212c1.159,0,2.107-0.949,2.107-2.108v-2.107
									c0-1.16-0.948-2.108-2.107-2.108c-1.16,0-2.108,0.948-2.108,2.108v2.107C635.996,340.264,636.944,341.212,638.104,341.212z"
									/>
								<path fill-rule="evenodd" clip-rule="evenodd" fill="#FFBE9A" d="M638.169,334.895c0-0.002-0.057-0.006-0.096-0.006
									c-1.159,0-2.088,0.948-2.088,2.108v2.107c0,1.159,0.929,2.108,2.088,2.108c0.039,0,0.096-0.004,0.096-0.006V334.895z"/>
								<g>
									<g>
										<g>
											<path fill-rule="evenodd" clip-rule="evenodd" fill="#E3BE9A" d="M637.988,339.104c3.479,0,6.325-2.846,6.325-6.324
												v-8.433c0-3.479-2.846-6.325-6.325-6.325c-3.479,0-6.324,2.846-6.324,6.325v8.433
												C631.664,336.258,634.508,339.104,637.988,339.104z"/>
										</g>
									</g>
								</g>
								<path fill-rule="evenodd" clip-rule="evenodd" fill="#FFBE9A" d="M638.169,318.026c0,0-0.012-0.002-0.051-0.002
									c-3.478,0-6.257,2.846-6.257,6.325v8.433c0,3.478,2.779,6.324,6.257,6.324c0.039,0,0.051-0.002,0.051-0.003V318.026z"/>
								<path fill-rule="evenodd" clip-rule="evenodd" fill="#7F6C50" d="M637.988,318.023c-3.479,0-6.324,2.846-6.324,6.325
									C635.156,324.348,637.988,321.516,637.988,318.023z"/>
								<circle fill-rule="evenodd" clip-rule="evenodd" fill="#7F6C50" cx="632.057" cy="318.392" r="2.311"/>
								<circle fill-rule="evenodd" clip-rule="evenodd" fill="#4C4452" cx="634.336" cy="327.021" r="0.565"/>
								<path fill-rule="evenodd" clip-rule="evenodd" fill="#6F5A3A" d="M637.988,318.023c0,3.493,2.832,6.325,6.325,6.325
									C644.312,320.869,641.467,318.023,637.988,318.023z"/>
								<circle fill-rule="evenodd" clip-rule="evenodd" fill="#4C4452" cx="641.64" cy="327.021" r="0.564"/>
								<circle fill-rule="evenodd" clip-rule="evenodd" fill="#6F5A3A" cx="643.778" cy="318.392" r="2.311"/>
								<g>
									<g>
										<circle fill-rule="evenodd" clip-rule="evenodd" fill="#EE959B" cx="640.609" cy="329.247" r="0.188"/>
										<circle fill-rule="evenodd" clip-rule="evenodd" fill="#EE959B" cx="641.64" cy="329.247" r="0.188"/>
										<circle fill-rule="evenodd" clip-rule="evenodd" fill="#EE959B" cx="642.67" cy="329.247" r="0.188"/>
									</g>
									<g>
										<circle fill-rule="evenodd" clip-rule="evenodd" fill="#EE959B" cx="641.124" cy="330.14" r="0.188"/>
										<circle fill-rule="evenodd" clip-rule="evenodd" fill="#EE959B" cx="642.155" cy="330.14" r="0.188"/>
									</g>
									<g>
										<circle fill-rule="evenodd" clip-rule="evenodd" fill="#EE959B" cx="633.305" cy="329.247" r="0.188"/>
										<circle fill-rule="evenodd" clip-rule="evenodd" fill="#EE959B" cx="634.336" cy="329.247" r="0.188"/>
										<circle fill-rule="evenodd" clip-rule="evenodd" fill="#EE959B" cx="635.367" cy="329.247" r="0.188"/>
									</g>
									<g>
										<circle fill-rule="evenodd" clip-rule="evenodd" fill="#EE959B" cx="633.821" cy="330.14" r="0.188"/>
										<circle fill-rule="evenodd" clip-rule="evenodd" fill="#EE959B" cx="634.852" cy="330.14" r="0.188"/>
									</g>
								</g>
								<g>
									<path fill-rule="evenodd" clip-rule="evenodd" fill="#E2D4D5" d="M640.98,332.99h-2.916v4.368
										c2.297-0.106,3.907-2.623,3.907-2.623C642.452,333.798,642.033,332.99,640.98,332.99z"/>
									<path fill-rule="evenodd" clip-rule="evenodd" fill="#F5E5E5" d="M634.999,332.99h3.066v4.368
										c-2.299-0.106-4.061-2.623-4.061-2.623C633.523,333.798,633.945,332.99,634.999,332.99z"/>
								</g>
							</g>
						</g>
					</g>
				</g>
			</g>
			<path opacity="0.1" fill="#FFFFFF" d="M509.823,267.703c-2.084,2.094-3.231,4.99-3.231,8.154v9.687v89.053l236.266-110.155
				H518.006C514.821,264.441,511.915,265.6,509.823,267.703z"/>
		</g>
	</g>
	<g>
		<defs>
			<rect id="SVGID_3_" x="446.226" y="247.577" width="385.548" height="210.847"/>
		</defs>
		<clipPath id="SVGID_4_">
			<use xlink:href="#SVGID_3_"  overflow="visible"/>
		</clipPath>
		<g clip-path="url(#SVGID_4_)">
			<g>
				
					<circle opacity="0.75" fill="none" stroke="#F5E5E5" stroke-width="3.75" stroke-miterlimit="10" cx="659.828" cy="373.541" r="6.919"/>
				<circle fill="none" stroke="#F5E5E5" stroke-width="3.75" stroke-miterlimit="10" cx="659.828" cy="373.542" r="4.543"/>
				
					<circle opacity="0.35" fill="none" stroke="#F5E5E5" stroke-width="3.75" stroke-miterlimit="10" cx="659.828" cy="373.541" r="9.085"/>
				
					<circle opacity="0.2" fill="none" stroke="#F5E5E5" stroke-width="3.75" stroke-miterlimit="10" cx="659.829" cy="373.54" r="11.355"/>
			</g>
			<g>
				<g>
					<path opacity="0.1" d="M734.329,421.479l-2.634-30.126c-0.006-0.123-0.017-0.246-0.031-0.369l-0.004-0.048l-0.002,0.004
						c-0.018-0.142-0.04-0.281-0.066-0.422c-0.622-3.1-3.638-5.107-6.736-4.485l-1.784,0.357c-2.108,0.423-3.712,1.955-4.324,3.868
						l-1.364,0.342c-1.301-1.566-3.396-2.389-5.532-1.959l-1.785,0.357c-2.358,0.473-4.085,2.336-4.5,4.564l-0.786,0.197
						c-1.236-1.919-3.561-2.987-5.935-2.512l-2.709,0.696c-1.998,0.402-2.961,2.689-3.64,4.463
						c-7.391-7.486-16.208-18.049-23.321-25.47c-0.001,0-0.003-0.004-0.003-0.004c-1.731-2.287-4.93-2.997-7.494-1.547
						c-2.461,1.394-4.03,4.543-2.654,6.895c1.455,2.482,15.767,20.663,28.974,37.256l0,0l-0.875,3.319l-1.257,4.762
						c-0.713,2.435-0.478,4.648,1.441,5.767l23.582,13.88c0.82,0.478,2.391,0.159,4.007-0.511l61.897,60.144l25.812-21.811
						L734.329,421.479z"/>
					<path fill="#E2BD98" d="M731.206,422.166l-2.633-30.125c-0.006-0.122-0.017-0.246-0.032-0.37l-0.004-0.047l-0.001,0.004
						c-0.019-0.141-0.039-0.282-0.066-0.423c-0.622-3.098-3.638-5.106-6.736-4.484l-1.784,0.357
						c-2.109,0.423-3.711,1.955-4.325,3.867l-1.363,0.343c-1.302-1.566-3.397-2.388-5.533-1.96l-1.784,0.359
						c-2.359,0.473-4.085,2.333-4.501,4.562l-0.785,0.197c-1.237-1.918-3.562-2.986-5.935-2.511l-2.71,0.697
						c-1.997,0.4-2.961,2.689-3.638,4.461c-7.392-7.485-16.209-18.047-23.322-25.468c-0.001-0.002-0.003-0.005-0.003-0.005
						c-1.731-2.287-4.931-2.998-7.494-1.546c-2.461,1.393-4.031,4.542-2.653,6.893c1.454,2.483,15.766,20.664,28.973,37.257l0,0
						L684,417.544l-1.257,4.762c-0.713,2.436-0.478,4.649,1.441,5.767l23.582,13.88c0.82,0.478,2.39,0.16,4.007-0.511l61.896,60.145
						l25.813-21.812L731.206,422.166z"/>
					<polygon fill="#CEAD8D" points="684.874,414.224 684.874,414.224 683.999,417.543 696.104,428.174 					"/>
				</g>
				<path fill="#FFBE9A" d="M723.472,429.547l63.832,60.529l12.185-10.295l-68.279-57.611l-2.634-30.128
					c-0.008-0.123-0.037-0.246-0.052-0.369l-0.023-0.048v0.003c0-0.141-0.021-0.282-0.049-0.423
					c-0.621-3.098-3.628-5.106-6.727-4.484l-1.78,0.357c-2.109,0.424-3.708,1.955-4.322,3.867l-1.362,0.343
					c-1.302-1.566-3.397-2.388-5.533-1.96l-1.783,0.359c-2.359,0.473-4.085,2.334-4.5,4.564l-0.786,0.195
					c-1.237-1.918-3.562-2.986-5.935-2.511l-2.709,0.697c-1.998,0.401-2.737,2.676-3.416,4.449
					c-7.39-7.486-16.098-18.074-23.098-25.481c0-0.001,0-0.005,0-0.005c-3-3.137-6.577-2.642-8.623-0.913l38.988,45.219
					L723.472,429.547z"/>
				<path opacity="0.25" fill="#E2D4D5" d="M662.799,371.858c-0.984-0.723-2.546-1.174-3.652-0.238
					c-0.245,0.207-0.857,0.724-0.868,0.733c-1.385,1.169-1.087,2.608-0.512,3.756c0.033,0.144,1.569,2.047,1.569,2.047
					c0.614,0.755,1.906,1.057,2.65,0.429l2.613-2.209c0.745-0.628,0.628-1.924-0.014-2.656
					C664.586,373.72,662.934,371.914,662.799,371.858z"/>
			</g>
		</g>
	</g>
</g>
<g id="Miscelaneas">
</g>
<g>
	<g opacity="0.4">
		<circle fill="#3C3541" cx="638.327" cy="350.275" r="23.952"/>
	</g>
	<path fill="#5BA4C2" d="M632.191,359.887c-0.074,0-0.146-0.02-0.213-0.058c-0.129-0.074-0.21-0.214-0.21-0.363v-18.379
		c0-0.15,0.081-0.289,0.21-0.365c0.13-0.076,0.289-0.076,0.421-0.001l16.081,9.189c0.133,0.074,0.213,0.213,0.213,0.365
		s-0.08,0.292-0.213,0.366l-16.081,9.191C632.333,359.868,632.264,359.887,632.191,359.887z"/>
</g>
</svg>
