<?xml version="1.0" encoding="utf-8"?>
<!-- Generator: Adobe Illustrator 16.0.0, SVG Export Plug-In . SVG Version: 6.00 Build 0)  -->
<!DOCTYPE svg PUBLIC "-//W3C//DTD SVG 1.1//EN" "http://www.w3.org/Graphics/SVG/1.1/DTD/svg11.dtd">
<svg version="1.1" id="wave" xmlns="http://www.w3.org/2000/svg" xmlns:xlink="http://www.w3.org/1999/xlink" x="0px" y="0px"
	 width="1280px" height="700px" viewBox="0 0 1280 700" style="enable-background:new 0 0 1280 700;" xml:space="preserve">
<path style="fill:#76B3CC;" d="M0.2,565.2h677.5H1280V349.9v-0.3v-5.3v-14.5v-0.3c-13.7,0-25.7-6.8-37.3-13.4
	c-11.8-6.7-24-13.7-38.2-13.7c-14.1,0-26,6.9-37.6,13.6c-11.5,6.7-23.4,13.5-37.5,13.5c-14.1,0-26-6.9-37.5-13.5
	c-11.6-6.7-23.7-13.6-38-13.6c-14.3,0-26.2,6.9-37.7,13.6c-11.5,6.7-23.4,13.5-37.6,13.5c-14.2,0-26.1-6.9-37.6-13.5
	c-11.5-6.7-23.4-13.6-37.7-13.6c-14.3,0-26.5,6.9-38.2,13.7c-11.5,6.6-23.5,13.4-37.3,13.4c-14,0-26.1-6.9-37.7-13.6
	c-11.6-6.6-23.7-13.5-37.5-13.5c-13.8,0-25.8,6.9-37.4,13.5c-11.6,6.7-23.6,13.6-37.6,13.6c-13.7,0-25.7-6.8-37.3-13.4
	c-11.8-6.7-24-13.7-38.2-13.7c-14.1,0-26,6.9-37.6,13.6c-11.5,6.7-23.4,13.5-37.5,13.5c-14.1,0-26-6.9-37.5-13.5
	c-11.6-6.7-23.7-13.6-38-13.6c-14.3,0-26.2,6.9-37.7,13.6c-11.5,6.7-23.4,13.5-37.6,13.5c-14.2,0-26.1-6.9-37.6-13.5
	c-11.5-6.7-23.4-13.6-37.7-13.6c-14.3,0-26.5,6.9-38.2,13.7c-11.5,6.6-23.5,13.4-37.3,13.4c-14,0-26.1-6.9-37.7-13.6
	c-11.6-6.6-23.7-13.5-37.5-13.5c-13.8,0-25.8,6.9-37.4,13.5c-11.6,6.7-23.6,13.6-37.6,13.6c-13.7,0-25.7-6.8-37.3-13.4
	c-11.8-6.7-24-13.7-38.2-13.7"/>
</svg>
