<?xml version="1.0" encoding="utf-8"?>
<!-- Generator: Adobe Illustrator 16.0.0, SVG Export Plug-In . SVG Version: 6.00 Build 0)  -->
<!DOCTYPE svg PUBLIC "-//W3C//DTD SVG 1.1//EN" "http://www.w3.org/Graphics/SVG/1.1/DTD/svg11.dtd">
<svg version="1.1" id="Personaje_x5F_Firefox" xmlns="http://www.w3.org/2000/svg" xmlns:xlink="http://www.w3.org/1999/xlink"
	 x="0px" y="0px" width="1280px" height="700px" viewBox="0 0 1280 700" enable-background="new 0 0 1280 700" xml:space="preserve"
	>
<g>
	<defs>
		<path id="SVGID_1_" d="M674.735,510.448C662.621,509.31,657,508.897,656,506.999V403.93c4-2.086,5.697-5.345,5.697-10.311
			c0-1.041,0.108-52.229,0.125-82.751l4.465,40.087l0.082,48.553c-0.362,0.24-0.689,0.517-0.994,0.825
			c-0.869,0.229-1.67,0.665-2.317,1.314l-2.247,2.25c-0.82,0.828-1.278,1.941-1.274,3.1l0.003,3.501c0,0.93,0.754,1.676,1.682,1.676
			l0.035,0.001c0.924-0.001,1.676-0.534,1.676-1.458L662.929,408h0.68l0.005,1.866l-0.014-0.108l0.019,10.202
			c-0.003,1.091,0.886,1.948,1.983,1.945l0.037-0.011c1.097-0.003,1.98-0.72,1.98-1.81L667.6,410h0.452l0.017,11.354
			c-0.005,0.899,0.729,1.646,1.628,1.646h0.032c0.9,0,1.633-0.75,1.63-1.648L671.343,410h0.554l0.018,10.854
			c-0.004,0.902,0.727,1.535,1.633,1.539l0.029-0.048c0.899-0.001,1.627-0.569,1.627-1.473L675.189,410h0.391l0.012,8.204
			c0.002,1.094,0.894,1.888,1.982,1.884l0.043-0.047c1.094-0.001,1.377-0.909,1.374-2.003l-0.009-8.407l-0.008-4.968
			c-0.004-2.755-1.42-5.083-3.76-5.889l-0.062-49.146c-0.001-0.391-0.091-0.762-0.216-1.12l-6.971-63.084
			c-0.209-1.893-2.129-3.048-4.018-2.84l-1.138,0.123c-0.835,0.094-1.667,0.464-2.33,0.999c-2.771-5.477-9.174-9.571-15.479-11.093
			l-0.014-8.3c6.84-2.437,11.742-8.958,11.73-16.634l-0.004-3.135c0.213,0.015,0.426,0.032,0.643,0.032
			c5.097,0,9.23-4.133,9.23-9.231c0-3.994-2.541-7.382-6.087-8.669c3.546-1.289,6.087-4.681,6.087-8.671
			c0-1.507-0.369-2.926-1.009-4.182c2.567-1.519,4.411-4.597,4.411-7.784c0-4.484-3.393-8.119-7.579-8.119
			c-0.743,0-1.46,0.119-2.136,0.333c0.374-1.009,0.584-2.108,0.584-3.266c0-0.278-0.016-0.459-0.041-0.729
			c-0.385-4.538-3.943-7.26-8.284-7.26c-2.034,0-3.963,0-3.963,0s-0.522-7.8-9.476-7.8c-8.255,0-9.475,7.8-9.475,7.8
			s-1.93,0-3.967,0c-4.338,0-7.898,2.721-8.284,7.26c-0.021,0.27-0.038,0.496-0.038,0.774c0,1.157,0.211,2.234,0.582,3.243
			c-0.676-0.214-1.393-0.344-2.137-0.344c-4.186,0-7.576,3.629-7.576,8.113c0,3.188,1.845,6.264,4.413,7.782
			c-0.64,1.256-1.007,2.673-1.007,4.179c0,3.99,2.541,7.382,6.083,8.671c-3.542,1.286-6.083,4.674-6.083,8.668
			c0,5.099,4.13,9.231,9.23,9.231c0.197,0,0.391-0.017,0.586-0.03l0.004,3.186c0.011,7.89,5.201,14.558,12.35,16.805l0.013,7.794
			c-6.871,1.232-14.179,5.503-17.056,11.537c-0.688-0.628-1.613-1.058-2.534-1.161l-1.138-0.123
			c-1.889-0.208-3.809,0.947-4.018,2.84l-6.971,63.083c-0.125,0.358-0.215,0.729-0.216,1.12l-0.062,49.513
			c-1.843,1.021-2.935,3.106-2.938,5.52l-0.009,4.967l-0.01,8.385c-0.003,1.094,0.283,1.979,1.377,1.98l0.043,0.001
			c1.088,0.004,1.98-0.698,1.982-1.792l0.011-8.204h0.39l-0.016,10.848c0,0.904,0.73,1.541,1.631,1.542l0.029-0.043
			c0.902-0.004,1.633-0.568,1.633-1.471L605.938,410h0.55l-0.015,11.352c-0.004,0.898,0.729,1.648,1.633,1.648h0.029
			c0.899,0,1.633-0.748,1.63-1.646L609.78,410h0.453l-0.022,10.078c0,1.09,0.887,1.89,1.98,1.893l0.041-0.048
			c1.096,0.002,1.985-0.905,1.982-1.996l0.017-10.269l-0.014,0.213l0.005-1.872h0.682l-0.005,2.717
			c0.003,0.924,0.752,1.568,1.676,1.57l0.038-0.057c0.927,0,1.678-0.774,1.681-1.704l0.003-3.515c0-1.158-0.458-2.278-1.279-3.107
			l-2.248-2.253c-0.647-0.649-1.454-1.088-2.323-1.316c-0.521-0.53-1.14-0.963-1.821-1.28l0.062-48.1l4.821-43.66
			c0.077,30.152,0.075,87.718,0.075,87.728c0,5.481,3.416,8.57,7.416,10.276v97.95V518h57.434
			C680.434,518,681.938,511.125,674.735,510.448z M631,506.999V406.958c3,0.231,4.989,0.312,7.611,0.312
			c3.347,0,6.389-0.187,9.389-0.661v96.641v6.563C638,508.86,633,508.784,631,506.999z"/>
	</defs>
	<clipPath id="SVGID_2_">
		<use xlink:href="#SVGID_1_"  overflow="visible"/>
	</clipPath>
	<g clip-path="url(#SVGID_2_)">
		<path fill="#76B3CC" d="M698,582.573c-39.333-8.385-78.667,8.386-118,0c0-69.878,0-193.757,0-263.635
			c39.333,8.385,80.481-35.232,118-20C698,368.817,698,512.695,698,582.573z"/>
		<path fill="#8BBFD4" d="M640,306.369c-20.646,7.637-40,16.833-60,12.569v263.635c0.118,0.025,0.236,0.044,0.354,0.069
			c19.764-2.106,39.527-4.275,59.291-0.137c0.118-0.013,0.236-0.025,0.354-0.038V306.369z"/>
	</g>
</g>
<g>
	<path fill="#BFE0D3" d="M631.232,330.347l-1.785,1.197c-1.785,1.197-3.045,2.1-3.045,3.569v0.084h6.635
		c0.232,0,0.42,0.168,0.42,0.399v2.163c0,0.231-0.188,0.42-0.42,0.42h-9.342c-0.232,0-0.42-0.189-0.42-0.42v-2.142
		c0-2.31,1.26-4.199,2.855-5.333l1.932-1.365c1.826-1.281,2.141-1.449,2.141-2.436c0-0.903-0.525-1.26-2.225-1.26
		c-1.281,0-2.855,0.147-4.137,0.273c-0.021,0-0.021,0-0.043,0c-0.23,0-0.377-0.189-0.377-0.42v-1.638
		c0-0.21,0.189-0.336,0.398-0.399c1.176-0.357,2.918-0.651,4.473-0.651c3.863,0,5.354,1.323,5.354,4.01
		C633.646,328.101,632.785,329.298,631.232,330.347z"/>
	<path fill="#BFE0D3" d="M643.412,322.999l-4.43,14.739c-0.062,0.231-0.189,0.441-0.42,0.441h-2.666c-0.211,0-0.4-0.168-0.4-0.357
		c0-0.021,0.021-0.063,0.021-0.084l4.451-14.739c0.062-0.231,0.189-0.42,0.42-0.42h2.666c0.189,0,0.379,0.147,0.379,0.336
		C643.434,322.936,643.412,322.957,643.412,322.999z"/>
	<path fill="#BFE0D3" d="M650.553,338.368c-1.639,0-3.254-0.252-4.346-0.588c-0.211-0.063-0.4-0.189-0.4-0.399v-1.68
		c0-0.231,0.168-0.378,0.379-0.378c0.021,0,0.021,0,0.041,0c1.471,0.126,3.045,0.189,4.18,0.189c1.49,0,2.078-0.63,2.078-1.785
		v-0.378c0-0.945-0.336-1.806-1.701-1.806h-3.695c-0.23,0-0.398-0.189-0.398-0.42v-1.785c0-0.231,0.168-0.399,0.398-0.399h3.611
		c1.365,0,1.785-0.903,1.785-1.827v-0.294c0-0.945-0.441-1.575-2.078-1.575c-1.471,0-2.541,0.105-4.137,0.252
		c-0.021,0-0.021,0-0.043,0c-0.209,0-0.377-0.147-0.377-0.378v-1.68c0-0.21,0.209-0.336,0.42-0.399
		c1.092-0.336,2.645-0.651,4.283-0.651c3.422,0,5.48,1.155,5.48,4.304v0.294c0,1.218-0.756,2.583-1.869,3.212
		c1.154,0.609,1.869,1.785,1.869,3.149v0.378C656.033,336.94,653.807,338.368,650.553,338.368z"/>
</g>
<g>
	<g>
		<path fill="#BFE0D3" d="M625.844,346.203c-0.246,0-0.623-0.028-0.842-0.038v2.469c0,0.104-0.074,0.189-0.18,0.189h-0.945
			c-0.104,0-0.189-0.085-0.189-0.189v-6.509c0-0.189,0.113-0.255,0.303-0.284c0.492-0.076,1.164-0.123,1.854-0.123
			c1.457,0,2.725,0.511,2.725,2.185v0.085C628.568,345.664,627.301,346.203,625.844,346.203z M627.264,343.904
			c0-0.795-0.473-1.097-1.42-1.097c-0.197,0-0.672,0.019-0.842,0.038v2.251c0.152,0.01,0.682,0.029,0.842,0.029
			c1.023,0,1.42-0.378,1.42-1.135V343.904z"/>
		<path fill="#BFE0D3" d="M634.139,348.824h-1.002c-0.086,0-0.162-0.076-0.18-0.161l-0.436-1.797h-2.176l-0.436,1.797
			c-0.02,0.085-0.096,0.161-0.18,0.161h-1.004c-0.094,0-0.17-0.066-0.17-0.161c0-0.01,0.01-0.028,0.01-0.047l1.551-5.932
			c0.229-0.88,0.908-0.965,1.316-0.965c0.406,0,1.088,0.085,1.314,0.965l1.551,5.932c0,0.019,0.01,0.038,0.01,0.047
			C634.309,348.758,634.234,348.824,634.139,348.824z M631.584,342.977c-0.027-0.113-0.057-0.151-0.15-0.151
			c-0.096,0-0.123,0.038-0.152,0.151l-0.68,2.81h1.664L631.584,342.977z"/>
		<path fill="#BFE0D3" d="M640.191,348.824h-1.154c-0.105,0-0.143-0.095-0.189-0.189l-1.363-2.526h-0.133
			c-0.246,0-0.623-0.029-0.842-0.038v2.564c0,0.104-0.074,0.189-0.18,0.189h-0.945c-0.104,0-0.189-0.085-0.189-0.189v-6.509
			c0-0.189,0.113-0.255,0.303-0.284c0.492-0.076,1.164-0.123,1.854-0.123c1.457,0,2.725,0.52,2.725,2.138v0.085
			c0,1.003-0.5,1.627-1.277,1.93l1.486,2.762c0.02,0.028,0.02,0.057,0.02,0.076C640.305,348.776,640.266,348.824,640.191,348.824z
			 M638.771,343.857c0-0.709-0.473-1.012-1.42-1.012c-0.197,0-0.672,0.019-0.842,0.038v2.129c0.152,0.009,0.682,0.028,0.842,0.028
			c0.975,0,1.42-0.265,1.42-1.097V343.857z"/>
		<path fill="#BFE0D3" d="M645.371,342.892h-1.654v5.742c0,0.104-0.086,0.189-0.189,0.189h-0.938c-0.104,0-0.189-0.085-0.189-0.189
			v-5.742h-1.654c-0.105,0-0.189-0.066-0.189-0.17v-0.747c0-0.104,0.084-0.18,0.189-0.18h4.625c0.105,0,0.189,0.076,0.189,0.18
			v0.747C645.561,342.826,645.477,342.892,645.371,342.892z"/>
		<path fill="#BFE0D3" d="M650.25,348.767c-0.303,0.047-0.672,0.132-1.797,0.132c-1.23,0-2.186-0.331-2.186-1.939v-3.302
			c0-1.608,0.955-1.939,2.186-1.939c1.125,0,1.494,0.085,1.797,0.132c0.143,0.019,0.189,0.066,0.189,0.199v0.605
			c0,0.104-0.084,0.189-0.189,0.189h-1.93c-0.549,0-0.748,0.189-0.748,0.813v1.022h2.564c0.104,0,0.189,0.085,0.189,0.189v0.681
			c0,0.104-0.086,0.189-0.189,0.189h-2.564v1.22c0,0.625,0.199,0.814,0.748,0.814h1.93c0.105,0,0.189,0.085,0.189,0.189v0.605
			C650.439,348.701,650.393,348.748,650.25,348.767z"/>
		<path fill="#BFE0D3" d="M653.482,348.899c-0.709,0-1.221-0.066-1.674-0.17c-0.094-0.019-0.18-0.085-0.18-0.189v-0.681
			c0-0.104,0.086-0.18,0.18-0.18c0.01,0,0.01,0,0.02,0c0.377,0.047,1.324,0.095,1.674,0.095c0.842,0,1.098-0.303,1.098-0.852
			c0-0.369-0.18-0.558-0.805-0.927l-1.248-0.748c-0.881-0.52-1.117-1.069-1.117-1.731c0-1.041,0.605-1.797,2.365-1.797
			c0.625,0,1.494,0.094,1.816,0.17c0.096,0.019,0.17,0.085,0.17,0.18v0.7c0,0.095-0.066,0.17-0.16,0.17c-0.01,0-0.01,0-0.02,0
			c-0.623-0.057-1.248-0.095-1.863-0.095c-0.699,0-0.994,0.246-0.994,0.672c0,0.312,0.162,0.501,0.777,0.842l1.135,0.634
			c1.041,0.577,1.314,1.183,1.314,1.93C655.971,347.878,655.375,348.899,653.482,348.899z"/>
	</g>
</g>
<g>
	<g>
		<path fill="#BFE0D3" d="M625.414,358.14c-0.584,0-1.373-0.058-1.619-0.099c-0.141-0.025-0.215-0.09-0.215-0.255v-5.535
			c0-0.164,0.074-0.23,0.215-0.255c0.246-0.041,1.035-0.099,1.619-0.099c1.645,0,2.582,0.888,2.582,2.517v1.209
			C627.996,357.251,627.059,358.14,625.414,358.14z M626.861,354.414c0-1.234-0.625-1.554-1.447-1.554
			c-0.305,0-0.518,0.017-0.691,0.025v4.269c0.174,0.008,0.387,0.025,0.691,0.025c0.822,0,1.447-0.321,1.447-1.554V354.414z"/>
		<path fill="#BFE0D3" d="M632.523,358.024c-0.262,0.041-0.584,0.115-1.562,0.115c-1.068,0-1.898-0.288-1.898-1.686v-2.87
			c0-1.398,0.83-1.686,1.898-1.686c0.979,0,1.301,0.074,1.562,0.115c0.125,0.017,0.166,0.058,0.166,0.173v0.526
			c0,0.09-0.074,0.165-0.166,0.165h-1.678c-0.477,0-0.648,0.164-0.648,0.707v0.888h2.229c0.09,0,0.164,0.074,0.164,0.165v0.592
			c0,0.091-0.074,0.165-0.164,0.165h-2.229v1.061c0,0.543,0.172,0.707,0.648,0.707h1.678c0.092,0,0.166,0.074,0.166,0.164v0.526
			C632.689,357.967,632.648,358.008,632.523,358.024z"/>
		<path fill="#BFE0D3" d="M640.242,358.074h-0.873c-0.074,0-0.139-0.066-0.156-0.14l-0.377-1.562h-1.893l-0.379,1.562
			c-0.016,0.074-0.082,0.14-0.156,0.14h-0.871c-0.082,0-0.148-0.058-0.148-0.14c0-0.008,0.008-0.025,0.008-0.041l1.35-5.157
			c0.197-0.765,0.789-0.839,1.143-0.839s0.947,0.074,1.145,0.839l1.348,5.157c0,0.016,0.01,0.033,0.01,0.041
			C640.391,358.016,640.324,358.074,640.242,358.074z M638.021,352.991c-0.025-0.099-0.051-0.132-0.133-0.132
			s-0.105,0.033-0.131,0.132l-0.592,2.443h1.447L638.021,352.991z"/>
		<path fill="#BFE0D3" d="M644.826,358c-0.41,0.082-0.945,0.14-1.793,0.14c-0.887,0-2.203-0.584-2.203-2.525v-1.184
			c0-1.949,1.25-2.533,2.229-2.533c0.789,0,1.496,0.099,1.768,0.148c0.107,0.025,0.156,0.066,0.156,0.173v0.551
			c0,0.115-0.031,0.173-0.164,0.173c-0.008,0-0.016,0-0.023,0c-0.379-0.033-0.947-0.066-1.736-0.066
			c-0.551,0-1.078,0.386-1.078,1.554v1.184c0,1.168,0.568,1.546,1.053,1.546c0.305,0,0.561-0.008,0.814-0.025v-2.097
			c0-0.09,0.066-0.164,0.156-0.164h0.814c0.09,0,0.164,0.074,0.164,0.164v2.763C644.982,357.909,644.934,357.975,644.826,358z"/>
		<path fill="#BFE0D3" d="M648.434,358.14c-1.324,0-2.262-0.576-2.262-2.328v-3.693c0-0.09,0.074-0.156,0.164-0.156h0.814
			c0.09,0,0.164,0.066,0.164,0.156v3.693c0,0.938,0.23,1.382,1.119,1.382s1.119-0.444,1.119-1.382v-3.693
			c0-0.09,0.074-0.156,0.164-0.156h0.814c0.09,0,0.164,0.066,0.164,0.156v3.693C650.695,357.564,649.758,358.14,648.434,358.14z"/>
		<path fill="#BFE0D3" d="M656.111,358.074h-0.873c-0.074,0-0.139-0.066-0.156-0.14l-0.377-1.562h-1.893l-0.379,1.562
			c-0.016,0.074-0.082,0.14-0.156,0.14h-0.871c-0.082,0-0.148-0.058-0.148-0.14c0-0.008,0.008-0.025,0.008-0.041l1.35-5.157
			c0.197-0.765,0.789-0.839,1.143-0.839s0.947,0.074,1.145,0.839l1.348,5.157c0,0.016,0.01,0.033,0.01,0.041
			C656.26,358.016,656.193,358.074,656.111,358.074z M653.891,352.991c-0.025-0.099-0.051-0.132-0.133-0.132
			s-0.105,0.033-0.131,0.132l-0.592,2.443h1.447L653.891,352.991z"/>
	</g>
</g>
</svg>
